<?xml version="1.0" encoding="UTF-8"?>
<svg id="b" data-name="Layer 2" xmlns="http://www.w3.org/2000/svg" width="34.823" height="24.44" viewBox="0 0 34.823 24.44">
  <defs>
    <style>
      .d {
        fill: #d9d9d9;
      }

      .e {
        fill: #717171;
      }

      .f {
        fill: #515151;
      }

      .g {
        fill: #949494;
      }

      .h {
        fill: #b6b6b6;
      }
    </style>
  </defs>
  <g id="c" data-name="Layer 1">
    <path class="e" d="M19.186,15.397v9c-1.657-.025-3.352.108-5,0l.005-4.005c-1.325-.074-2.679.092-4.005.005-.04-1.665.014-3.344-.005-5.006,2.991-.046,6.014.075,9.005.006Z"/>
    <path class="g" d="M24.186,15.397v9c-1.648.082-3.347.025-5,0v-9c1.648-.038,3.357-.086,5,0Z"/>
    <path class="h" d="M30.805,16.349c-.204,1.342.147,3.001.014,4.421,1.33.032,2.67-.034,4.005-.006v-5c-1.144.078-3.847-.54-4.018.585Z"/>
    <path class="d" d="M.793.029C.519.493.274.969.046,1.451c-.011,1.192-.077,2.39-.029,3.573,1.659.067,3.346-.092,5.006-.006l.006-5.006C3.624-.027,2.205.04.793.029Z"/>
    <path class="h" d="M20.096,6.209c-.032,1.334.04,2.675.006,4.005-1.659.067-3.345-.087-5.006-.005v-4h5Z"/>
    <path class="g" d="M10.186,20.397c1.326.087,2.68-.079,4.005-.005l-.005,4.005c-1.326-.087-2.68.079-4.005.005-.037-1.33.037-2.671.005-4.005Z"/>
    <path class="e" d="M19.752,10.298c1.66.087,3.347-.073,5.006-.006-.02,1.662.034,3.341-.006,5.006h-5v-5Z"/>
    <path class="e" d="M10.19,11.137v9c-1.657-.025-3.352.108-5,0l.005-4.005c-1.325-.074-2.679.092-4.005.005-.04-1.665.014-3.344-.005-5.006,2.991-.046,6.014.075,9.005.006Z"/>
    <path class="f" d="M15.068,6.703v9c-1.657-.025-3.352.108-5,0l.005-4.005c-1.325-.074-2.679.092-4.005.005-.04-1.665.014-3.344-.005-5.006,2.991-.046,6.014.075,9.005.006Z"/>
    <path class="f" d="M15.122,10.32c1.66.087,3.347-.073,5.006-.006-.02,1.662.034,3.341-.006,5.006h-5v-5Z"/>
  </g>
</svg>