<?xml version="1.0" encoding="UTF-8"?>
<svg id="b" data-name="Layer 2" xmlns="http://www.w3.org/2000/svg" width="248.977" height="347.544" viewBox="0 0 248.977 347.544">
  <defs>
    <style>
      .d {
        fill: #aa1f65;
      }

      .e {
        fill: #2b0f54;
      }

      .f {
        fill: #fe8042;
      }

      .g {
        fill: #3368db;
      }

      .h {
        fill: #49e6eb;
      }

      .i {
        fill: #fed945;
      }

      .j {
        fill: #fef6f7;
      }
    </style>
  </defs>
  <g id="c" data-name="Layer 1">
    <g>
      <path class="g" d="M85.959,144.109c2.061,1.48,3.098,2.542,5.989,1.994v8.476c.209.762,1.88,1.366,1.996,1.496.51.569.521,1.707,1.996,1.994v7.978h-3.993c-.015,1.321.023,2.668,0,3.989,1.322.023,2.67-.015,3.993,0v7.978h-3.993c.032-2.648-.046-5.331,0-7.978-2.65-.046-5.335.032-7.985,0v7.978h-3.993v-7.978h-3.993v27.922h-3.993v-27.922h-3.993v15.956h-3.993v23.934h-3.993v12.964h3.993v3.989h-3.993v3.989h3.993v3.989h3.993v-7.978h3.993v11.967h35.933v-7.978h7.985v-3.989h7.985v-3.989h3.993v7.978h3.993v15.956h3.993v-7.978h7.985v-3.989h7.985v11.967h3.993v-11.967h3.993v-7.978h3.993v-3.989h4.991v-3.989h3.993v-4.986h-3.993v-3.989h3.993v-23.934h-3.993v3.989h-4.991c-.015,1.321.023,2.668,0,3.989,1.654.021,3.336-.014,4.991,0v7.978h-4.991c.032-2.648-.046-5.331,0-7.978-2.65-.033-5.335.023-7.985,0v-3.989h-3.993v3.989h-3.993v-3.989h-3.993v-3.989h-3.993v-3.989h-3.993v3.989h-3.993v7.978h-3.993v7.978c-1.32.036-2.674-.056-3.993,0-.026,3.977.018,7.99,0,11.967h-3.993v-11.967c1.32-.036,2.674.056,3.993,0,.026-3.977-.018-7.99,0-11.967h3.993v-7.978h-11.978v-3.989h3.993v-7.978c-2.144-.085-4.337.123-6.488,0-2.879-.164-1.112-2.063-1.497-3.989,7.964.138,15.989-.022,23.956,0v3.989h-7.985v3.989h11.978v-3.989h7.985v-3.989c-2.651-.012-5.334.018-7.985,0v-3.989h7.985v-3.989h3.993v-3.989h3.993v-3.989h3.993c.141-.141,0-3.046,0-3.989h8.983v3.989h15.97v3.989h11.978v3.989h11.978v3.989h7.985v3.989h7.985v3.989h3.993v3.989h3.993v7.978h3.993c.455.454-.379,10.315,0,12.465.025.143.895,2.39.998,2.493.187.187,1.031-.265,1.497,0,.516.293.95,1.098,1.497,1.496.028,2.493-.04,4.998,0,7.479-1.927.385-3.828-1.381-3.993,1.496-.123,2.149.085,4.339,0,6.482h-3.993v4.986h7.985c.425,2.894,1.605,2.486,2.495,2.992,2.057,1.169,1.387,2.984,1.497,4.986h-7.985v3.989h7.985c.088,5.967-.04,11.981,0,17.95-3.522-.579-4.047-1.814-7.985-1.994-.023-1.321.015-2.668,0-3.989-3.982-.009-7.996.013-11.978,0-2.649-.009-5.336-.032-7.985,0v-7.978h-3.993v3.989h-3.993v-7.978h-3.993v-7.978h-11.978c.781,7.588-1.061,17.11,0,24.432.034.231.84.485.998,1.496.359,2.302-.943,1.876-.998,1.994h-15.97v3.989c-2.651.012-5.334-.017-7.985,0-2.983.019-6-.014-8.983,0v3.989c-2.651.005-5.334-.018-7.985,0s-5.334-.012-7.985,0v3.989c-1.323.009-2.67-.004-3.993,0-2.651.008-5.334.018-7.985,0,0-.943.141-3.848,0-3.989h-7.985v3.989c2.651.012,5.334-.018,7.985,0v3.989c-1.323.009-2.67-.016-3.993,0-3.655.044-9.224-.572-12.477,0-.391.069-.892,1.545-2.495.997v2.992c-8.299-.134-16.657.183-24.954,0l-1.497-3.989h-2.495v-3.989h-3.993v-3.989h-3.993v-3.989h-3.993v-3.989h-7.985c-.053-1.151.035-2.327,0-3.49-.716-1.146-2.161-1.765-2.994-2.493-.115-.1-.736-1.786-1.497-1.994-.944-.258-2.433.207-3.494,0-1.528-.298-1.744-1.792-1.996-1.994,1.241-1.978,3.888-2.197,5.989-1.994v-3.989h-3.993v-3.989h-3.993v-11.967h-3.993v-4.986h-3.993v-3.989h-11.978v-3.989h11.978v-3.989h-7.985v-3.989h-3.993c-.036-1.319.057-2.671,0-3.989-2.65.046-5.335-.032-7.985,0v-3.989h7.985c.036,1.319-.057,2.671,0,3.989,1.322-.023,2.67.015,3.993,0v-3.989h3.993v-7.978h3.993v7.978h3.993v11.967h3.993v-7.978h3.993v-15.956h-3.993v-3.989h3.993v-7.978h-3.993v3.989h-15.97v3.989h-3.993v-3.989h-2.495l-1.497-3.989c1.319-.056,2.672.036,3.993,0v-3.989h8.983c-.385-1.899,1.3-2.666,2.495-3.989h8.484v-3.989h8.983c-.385-1.899,1.3-2.666,2.495-3.989h9.482c-.385-1.899,1.3-2.666,2.495-3.989h9.482c.183-.182-.25-.997,0-1.496.353-.704.959-.459.998-.499ZM192.761,174.026h-3.993v19.945h3.993v-19.945Z"/>
      <path class="e" d="M135.866,298.679v3.989h-3.993v4.986c-1.322.023-2.67-.015-3.993,0v7.978h-3.993v3.989h19.963v3.989h28.946v3.989h7.985v-3.989h31.941v-3.989h7.985v3.989c-1.322.023-2.67-.015-3.993,0v23.934H36.051v-7.978h3.993v-7.978c1.784,0,11.554.423,11.978,0v-3.989h3.993v-3.989h3.993v3.989h7.985v-3.989h7.985v3.989h7.985v-3.989h11.978v-3.989h7.985v-3.989h7.985v-3.989h3.993c.017-1.321-.026-2.668,0-3.989,2.651-.016,5.334.011,7.985,0,.276-1.335-.412-4.112,0-4.986.077-.163,1.768-.755.998-2.992,1.567.465,1.894-.836,2.994-.997,2.438-.357,5.444.251,7.985,0Z"/>
      <path class="h" d="M28.066,166.048l1.497,3.989h2.495v3.989h3.993v-3.989h15.97v-3.989h3.993v7.978h-3.993v3.989h3.993v15.956h-3.993v7.978h-3.993v-11.967h-3.993v-7.978h-3.993v7.978h-3.993v3.989c-1.323.015-2.67-.023-3.993,0-.057-1.318.036-2.669,0-3.989h-7.985v3.989c2.65-.032,5.335.046,7.985,0,.057,1.318-.036,2.669,0,3.989h3.993v3.989h7.985v3.989h-11.978v3.989h11.978v3.989h3.993v4.986h3.993v11.967h3.993v3.989h3.993v3.989c-2.101-.202-4.748.017-5.989,1.994-.5-.402-2.341-1.952-2.495-1.994-.935-.256-11.046-.257-11.978,0-.98.27-3.018,3.428-6.488,1.994v1.994c-1.65.059-3.344-.089-4.991,0-3.532.19-6.585-.469-6.987,3.989h-4.991c.459,3.437-.621,5.549-3.993,5.983-.965.124-2.016-.074-2.994,0v1.994c-1.654.022-3.337-.033-4.991,0-.016,2.649.011,5.329,0,7.978H.118c-.089-2.644.062-5.332,0-7.978,1.323-.017,2.67.026,3.993,0,.04-6.635-.02-13.31,0-19.945h15.97v-3.989h-7.486l-4.492-3.49v-8.476h3.993v-4.986h4.492c.852.005.652-1.975.499-2.493-.602-2.04-3.364-1.179-4.492-1.496-.867-.243-1.606-2.727-3.494-1.994v1.496l-4.991.499c.016-2.649-.011-5.329,0-7.978h3.993v-15.956h3.993v-7.978h3.993v-3.989h3.993v-3.989h3.993v-3.989c1.321-.036,2.674.056,3.993,0ZM32.058,213.915h-11.978v4.986h11.978v-4.986Z"/>
      <path class="e" d="M83.962,57.35V24.94l.998-3.49c3.742.199,2.48-2.421,2.994-4.488.124-.498,1.737-1.607.998-3.49,2.054.204,4.197-1.937,3.993-3.989l3.993-.997v-2.992c2.17-.358,3.863-1.483,6.488-.997,1.589-1.514,1.55-3.559,3.993-3.989,9.059-1.593,22.373,1.18,31.941,0,2.661,2.971,4.16,4.777,8.484,3.989v3.989h7.985v3.989h3.993v3.989h3.993v7.978h4.991c-.008,13.615.011,27.272,0,40.886-4.311-.075-8.664.054-12.976,0v3.989h-3.993v-3.989c-.381-.38-6.388.31-7.985,0-1.138-.221-1.676-1.292-2.495-1.994l-.499,1.994h-4.991v-7.978h23.956v-19.945h-3.993v-4.986c-1.279-.148-2.815.229-3.993,0-1.716-.334-3.527-3.724-4.492-3.989-.847-.233-2.399.05-3.494,0-.386-1.926,1.382-3.825-1.497-3.989-4.72-.269-9.717.039-14.473,0-5.304-.044-10.667-.071-15.97,0-2.251.03-6.793-.466-8.484,0-1.5.413-2.412,3.816-3.494,3.989h-3.993c-.01,2.981.015,5.995,0,8.975-.02,3.977.024,7.99,0,11.967h-3.993c-.011,2.649.016,5.329,0,7.978-.024,3.977.024,7.99,0,11.967h-3.993c-.018-2.648.046-5.331,0-7.978-.023-1.321.015-2.668,0-3.989-.141-.141-3.049,0-3.993,0Z"/>
      <path class="d" d="M224.702,242.834c3.982.013,7.996-.009,11.978,0,.015,1.321-.023,2.668,0,3.989,3.938.18,4.463,1.416,7.985,1.994.036,5.394-.305,11.115,0,16.454.164,2.876,2.065,1.111,3.993,1.496-.023,1.321.015,2.668,0,3.989h-3.993v31.413c-.37.943-2.915,2.315-2.994,2.493l-4.991-1.994v12.964l-1.996.997-.998,6.981c-4.311.054-8.665-.075-12.976,0v-3.989h-7.985v3.989h-31.941v3.989h-7.985v-3.989h-28.946v-3.989h-19.963v-3.989h3.993v-7.978c1.322-.015,2.671.023,3.993,0,21.598-.374,43.278.278,64.88,0v3.989h27.948v3.989h3.993v-12.964h3.993v-7.978h3.993v-35.9h3.993v-3.989h-3.993c-.032-2.647.046-5.331,0-7.978-3.965-.182-8.008.13-11.978,0v-3.989Z"/>
      <path class="f" d="M111.91,24.441c-.386,1.926,1.382,3.825-1.497,3.989-2.151.123-4.344-.085-6.488,0v8.975h3.993v7.978h-3.993v3.989c2.651.011,5.334-.016,7.985,0v3.989c-2.65.009-5.336-.046-7.985,0-1.322.023-2.67-.015-3.993,0v7.978h3.993v3.989h8.983v-1.994c3.124,3.07,6.812,1.792,10.98,1.994v-11.967c1.325-.001,2.667.001,3.993,0,.049,2.813-.034,5.652,0,8.476l1.996,1.496v3.989c-3.867,2.423.021,8.78-3.993,11.468l1.996,6.482c-3.981.018-7.996-.013-11.978,0v3.989c-2.471.204-5.31-.918-6.987,1.496,1.604,1.027,2.827,3.412,3.993,4.488v1.994h-4.991c-.015,1.321.023,2.668,0,3.989,1.319.056,2.672-.036,3.993,0v3.989h3.993v-7.978c1.322.028,2.672-.044,3.993,0-.593,6.001.511,3.08,3.494,3.989.505.154,1.333,1.57,1.996,1.994,2.327-3.363,6.717-1.607,10.481-1.994v3.989h-7.985v3.989h-3.993c-.018,1.322.028,2.668,0,3.989s0,2.668,0,3.989v3.989c-1.323-.004-2.67.009-3.993,0v-3.989c-2.651-.025-5.334.035-7.985,0-.046-2.647.032-5.33,0-7.978h-3.993c.032-2.648-.046-5.33,0-7.978-1.319-.056-2.672.036-3.993,0v-7.978h-3.993v-3.989h-3.993v-7.978h-3.993c-.018,1.321.028,2.668,0,3.989h-7.985c-.046-2.647.032-5.33,0-7.978h-3.993c.067-5.304-.092-10.653,0-15.956h7.985c.046,2.647-.018,5.33,0,7.978s-.012,5.329,0,7.978h3.993c.011-2.649-.016-5.329,0-7.978.024-3.977-.024-7.99,0-11.967h3.993c.011-2.648-.016-5.329,0-7.978.024-3.977-.02-7.99,0-11.967h3.993v-8.975c1.081-.172,1.994-3.576,3.494-3.989,1.692-.466,6.234.03,8.484,0ZM111.91,73.305c-.386-1.925,1.382-3.825-1.497-3.989-3.472-.198-7.012.141-10.481,0v11.967c1.323.015,2.67-.023,3.993,0,.023,1.321-.015,2.667,0,3.989,2.539-.255,3.973-.125,5.49,1.994l2.495-.997c.022-1.653-.033-3.334,0-4.986,2.651-.018,5.334.012,7.985,0v-3.989c1.322-.023,2.67.015,3.993,0v-7.978c-2.144.085-4.337-.123-6.488,0-2.879.164-1.112,2.063-1.497,3.989-1.321-.028-2.671-.01-3.993,0Z"/>
      <path class="d" d="M12.095,262.779c1.928.385,3.828-1.381,3.993,1.496.123,2.149-.085,4.34,0,6.482h3.993v11.967h3.993c.013,6.635-.017,13.31,0,19.945,1.319.056,2.672-.036,3.993,0v8.975h3.993v3.989h3.993v3.989h3.993v3.989h3.993v3.989h3.993v-7.978h7.985v-3.989h11.978v-3.989h19.963v-3.989h7.985v-4.986h3.993v-3.989h7.985v-3.989h11.978v3.989h-7.985v3.989h-7.985v4.986c3.981-.017,7.997.024,11.978,0,.033-1.652-.022-3.333,0-4.986h7.985c-.412.875.276,3.652,0,4.986-2.651.011-5.334-.016-7.985,0-.026,1.321.017,2.668,0,3.989h-3.993v3.989h-7.985v3.989h-7.985v3.989h-11.978v3.989h-7.985v-3.989h-7.985v3.989h-7.985v-3.989h-3.993v3.989h-3.993v3.989c-.423.423-10.194,0-11.978,0h-3.993c-.023-1.321.015-2.668,0-3.989h-3.993v-3.989h-3.993v-7.978h-3.993c-.008-4.311.011-8.653,0-12.964-1.319-.056-2.672.036-3.993,0v-11.967h-3.993v-11.967h-3.993v-3.989h-2.495l-1.497-3.989c1.326,0,2.667,0,3.993,0,.011-2.649-.016-5.329,0-7.978Z"/>
      <path class="f" d="M119.896,134.136c.34.762-.219,2.855,0,3.989h3.993v3.989h3.993v7.978h11.978v3.989h3.993v3.989c.141.141,3.049,0,3.993,0v3.989h-7.985v3.989c-1.323-.009-2.67.004-3.993,0,0-.943.141-3.848,0-3.989h-19.963v-15.956h-3.993v-7.978h-3.993v-3.989h-3.993v15.956h3.993v3.989h3.993v7.978c-1.323.015-2.67-.023-3.993,0-.057-1.318.036-2.67,0-3.989h-3.993v-3.989c-3.324.251-7.612-1.098-9.982,1.994-.116-.13-1.787-.734-1.996-1.496v-8.476c-2.891.548-3.928-.514-5.989-1.994.458-.458,1.934-1.862,2.495-1.994.98-.23,2.389.146,3.494,0v-7.978h3.993c.325-6.289-.881-12.846.998-18.947,2.709,2.933,6.221,5.458,8.983,8.476.837.914,3.85,6.031,5.49,6.482,1.088.3,2.904-.299,3.993,0,.29.08,4.369,3.715,4.492,3.989Z"/>
      <path class="e" d="M159.822,93.25c.016-2.649-.011-5.329,0-7.978h3.993c.141.141,0,3.046,0,3.989v3.989c-1.321.036-2.673-.056-3.993,0-.023,3.812.016,7.646,0,11.468l-2.994,1.496-.998,6.981h-3.993c-.008,4.311.011,8.653,0,12.964-1.927.385-3.828-1.381-3.993,1.496-.123,2.149.085,4.339,0,6.482h-3.993v3.989h-3.993v3.989h-7.985v-3.989h-3.993v-3.989h-7.985c-.122-.274-4.202-3.909-4.492-3.989-1.089-.299-2.904.3-3.993,0-1.64-.451-4.653-5.568-5.49-6.482-2.762-3.019-6.274-5.543-8.983-8.476-1.486-1.609-2.734-3.677-3.993-5.485-.114-.805.171-1.785,0-2.493l6.987-1.994v3.989h3.993v7.978c2.651.025,5.334-.035,7.985,0,.023,1.321-.015,2.668,0,3.989,2.651.012,5.334-.018,7.985,0,1.323.009,2.67-.004,3.993,0,5.311.015,10.659-.011,15.97,0,.141-.141,0-3.046,0-3.989,1.323-.023,2.67.015,3.993,0v-3.989h3.993v-7.978c1.415.131.788-1.202.998-1.496,1.634-2.281,3.941-2.563,2.994-6.482,1.322-.028,2.67.018,3.993,0v-3.989c1.321-.036,2.673.056,3.993,0Z"/>
      <path class="d" d="M151.837,126.159c-.014,5.308.01,10.648,0,15.956h7.985v3.989c0,.943.141,3.848,0,3.989h-3.993v3.989h-3.993v3.989h-3.993c-.944,0-3.851.141-3.993,0v-3.989h-3.993v-3.989h-11.978v-7.978h-3.993v-3.989h-3.993c-.219-1.134.34-3.227,0-3.989h7.985v3.989h3.993v3.989h7.985v-3.989h3.993v-3.989h3.993c.085-2.143-.123-4.333,0-6.482.164-2.877,2.066-1.111,3.993-1.496Z"/>
      <path class="d" d="M143.851,65.327c1.597.31,7.605-.38,7.985,0v3.989h3.993v-3.989c4.312.054,8.665-.075,12.976,0-.003,3.977.013,7.99,0,11.967s.009,7.988,0,11.967h-4.991c0-.943.141-3.848,0-3.989h-3.993c-.011,2.649.016,5.329,0,7.978-1.319.056-2.672-.036-3.993,0v3.989c-1.323.018-2.67-.028-3.993,0s-2.67,0-3.993,0v-3.989h3.993v-3.989c1.178.229,2.713-.147,3.993,0v-11.967h3.993v-3.989h-15.97v-7.978Z"/>
      <path class="d" d="M91.947,85.272c.028-1.321-.018-2.667,0-3.989h3.993v7.978h3.993v3.989h3.993v7.978c1.321.036,2.673-.056,3.993,0-.046,2.647.032,5.33,0,7.978h3.993c.032,2.648-.046,5.33,0,7.978,2.651.035,5.334-.025,7.985,0v3.989c-2.651-.018-5.334.012-7.985,0-.015-1.321.023-2.668,0-3.989-2.651-.035-5.334.025-7.985,0v-7.978h-3.993v-3.989l-6.987,1.994c-.239-.99-.979-1.341-.998-1.496-.588-4.701-.027-11.469,0-16.454.007-1.321-.028-2.668,0-3.989Z"/>
      <path class="g" d="M4.11,209.926l4.991-.499v-1.496c1.887-.732,2.627,1.751,3.494,1.994,1.128.316,3.889-.544,4.492,1.496.153.518.353,2.498-.499,2.493h-4.492v4.986h-3.993v8.476l4.492,3.49h7.486v3.989H4.11c.025-8.296-.05-16.635,0-24.931Z"/>
      <path class="e" d="M12.095,252.807c-.014,3.313.02,6.659,0,9.972-.016,2.649.011,5.329,0,7.978-1.326,0-2.667,0-3.993,0-1.305,0-3.5.273-4.492,0-.238-.066-3.428-3.252-3.494-3.49-.286-1.036.045-3.138,0-4.488h3.993c.011-2.649-.016-5.329,0-7.978,1.654-.033,3.336.022,4.991,0v-1.994c.978-.074,2.029.124,2.994,0Z"/>
      <path class="e" d="M240.672,205.937c.065,3.964-.536,9.31,0,12.964h-7.985v-4.986h3.993c.085-2.143-.123-4.333,0-6.482.164-2.876,2.066-1.111,3.993-1.496Z"/>
      <path class="e" d="M248.657,266.768c-1.928-.385-3.828,1.38-3.993-1.496-.305-5.34.036-11.06,0-16.454,1.283.211,3.605,1.089,3.993,2.493.689,2.499.06,12.023,0,15.457Z"/>
      <path class="e" d="M241.67,304.663c-.231.517.196,1.758,0,2.493-.108.404-.944.633-.998.997-.338,2.291.236,5.1,0,7.479h-3.993v-12.964l4.991,1.994Z"/>
      <path class="f" d="M168.805,65.327c1.323.023,2.67-.015,3.993,0-.141,3.465.198,7.002,0,10.471-.164,2.876-2.066,1.111-3.993,1.496.013-3.977-.003-7.99,0-11.967Z"/>
      <path class="e" d="M244.665,226.879c.072,1.313-.019,2.671,0,3.989h-7.985v-3.989h7.985Z"/>
      <path class="i" d="M91.947,85.272c-.028,1.321.007,2.668,0,3.989h-7.985c-.015-1.321.023-2.668,0-3.989h7.985Z"/>
      <path class="g" d="M40.044,331.588v7.978h-3.993c0-2.647.046-5.332,0-7.978h3.993Z"/>
      <path class="d" d="M83.962,57.35c.944,0,3.851-.141,3.993,0,.015,1.321-.023,2.668,0,3.989h-7.985c.023-1.321-.015-2.668,0-3.989h3.993Z"/>
      <path class="f" d="M28.066,242.834v7.978h-3.993v15.956h3.993v7.978h3.993v3.989h3.993v3.989h3.993v3.989h7.985v3.989h-3.993v3.989h-7.985v12.964c.141.141,3.049,0,3.993,0,.023,1.321-.015,2.668,0,3.989h11.978v-3.989h3.993v-4.986h15.97v-3.989h15.97v-3.989h11.978v-3.989h7.985v-3.989h11.978v-3.989h7.985v-3.989h15.97v-3.989h19.963c.219-1.12-.34-3.267,0-3.989,1.521-3.231.33-1.796,0-3.989-.365-2.425.256-5.445,0-7.978,1.657-.002,3.334.001,4.991,0h23.956c.52-.519-.566-6.775,0-7.978.056-.118,1.357.307.998-1.994h.998l1.996,1.496v8.476h15.97v-11.967c-3.755-.105-7.026.916-9.982-1.994.388-.549.659-1.546,1.497-1.994,4.158-.036,8.331.05,12.477,0,2.649-.032,5.336-.009,7.985,0v3.989c3.97.13,8.013-.182,11.978,0,.046,2.647-.032,5.331,0,7.978h3.993v3.989h-3.993v35.9h-3.993v7.978h-3.993v12.964h-3.993v-3.989h-27.948v-3.989c-21.602.278-43.281-.374-64.88,0v-4.986h3.993v-3.989c1.416.128.782-1.182.998-1.496,2.185-3.18,7.267-2.487,10.98-2.493l.998-5.983c2.342,2,3.812,2.352,6.987,1.994v-3.989h3.993v-3.989h-15.97v3.989h-7.985v7.978c-2.144.085-4.337-.123-6.488,0-2.879.164-1.112,2.064-1.497,3.989-1.101.161-1.427,1.463-2.994.997.77,2.236-.921,2.828-.998,2.992h-7.985c-.022,1.653.033,3.334,0,4.986-3.981.024-7.997-.017-11.978,0v-4.986h7.985v-3.989h7.985v-3.989h-11.978v3.989h-7.985v3.989h-3.993v4.986h-7.985v3.989h-19.963v3.989h-11.978v3.989h-7.985v7.978h-3.993v-3.989h-3.993v-3.989h-3.993v-3.989h-3.993v-3.989h-3.993v-8.975c-1.321-.036-2.674.056-3.993,0-.017-6.635.013-13.31,0-19.945h-3.993v-11.967h-3.993c-.085-2.142.123-4.333,0-6.482-.164-2.876-2.065-1.111-3.993-1.496.02-3.313-.014-6.659,0-9.972,3.372-.434,4.451-2.546,3.993-5.983h4.991c.402-4.458,3.455-3.799,6.987-3.989ZM192.761,274.746h-15.97v7.978h11.978v-3.989h11.978v-3.989h-3.993v-3.989h-3.993v3.989ZM220.709,290.701h-3.993v3.989h-7.985v3.989h11.978v3.989h3.993v-7.978h-3.993v-3.989ZM159.822,298.679h-19.963v3.989h19.963v-3.989Z"/>
      <path class="h" d="M95.94,158.07c1.177.23,2.714-.148,3.993,0v3.989c2.65-.032,5.335.046,7.985,0,.057,1.318-.036,2.67,0,3.989,1.323.015,2.67-.023,3.993,0,.386,1.926-1.382,3.825,1.497,3.989,2.151.123,4.344-.085,6.488,0v7.978h-3.993v3.989h11.978v7.978h-3.993c-.018,3.977.026,7.99,0,11.967-1.319.056-2.672-.036-3.993,0v11.967h3.993c.018-3.977-.026-7.99,0-11.967,1.319-.056,2.672.036,3.993,0v-7.978h3.993v-7.978h3.993v-3.989h3.993v3.989h3.993v3.989h3.993v3.989h3.993v-3.989h3.993v3.989c2.651.023,5.335-.033,7.985,0-.046,2.647.032,5.33,0,7.978h4.991v-7.978c-1.654-.014-3.337.021-4.991,0,.023-1.321-.015-2.668,0-3.989h4.991v-3.989h3.993v23.934h-3.993v3.989h3.993v4.986h-3.993v3.989h-4.991v3.989h-3.993v7.978h-3.993v11.967h-3.993v-11.967h-7.985v3.989h-7.985v7.978h-3.993v-15.956h-3.993v-7.978h-3.993v3.989h-7.985v3.989h-7.985v7.978h-35.933v-11.967h-3.993v7.978h-3.993v-3.989h-3.993v-3.989h3.993v-3.989h-3.993v-12.964h3.993v-23.934h3.993v-15.956h3.993v27.922h3.993v-27.922h3.993v7.978h3.993v-7.978c2.65.032,5.336-.046,7.985,0-.046,2.647.032,5.33,0,7.978h3.993v-7.978c-1.322-.015-2.67.023-3.993,0,.023-1.321-.015-2.668,0-3.989h3.993v-7.978Z"/>
      <path class="i" d="M54.018,240.84c.252.203.468,1.696,1.996,1.994v11.967h-3.993v7.978h-7.985v3.989h-3.993v3.989h3.993v3.989h71.867v-3.989c3.467-.141,7.008.198,10.481,0,2.879-.164,1.112-2.062,1.497-3.989,1.323-.016,2.67.009,3.993,0,2.651-.018,5.334.012,7.985,0v-3.989c1.323-.004,2.67.009,3.993,0,2.651-.018,5.334.012,7.985,0v-3.989c2.651-.018,5.334.005,7.985,0,1.325-.003,2.667.002,3.993,0,.256,2.533-.365,5.553,0,7.978h-7.985v3.989h7.985c-.34.722.219,2.869,0,3.989h-19.963v3.989h-15.97v3.989h-7.985v3.989h-11.978v3.989h-7.985v3.989h-11.978v3.989h-15.97v3.989h-15.97v4.986h-3.993v3.989h-11.978c-.015-1.321.023-2.668,0-3.989h3.993v-4.986h7.985v-3.989h15.97v-3.989h11.978v-3.989h11.978v-3.989h11.978v-3.989h-3.993v-3.989h-3.993v3.989h-31.941v3.989h-3.993v3.989h-7.985v3.989h-3.993v3.989h-7.985c.036,2.98-.052,5.996,0,8.975-.944,0-3.851.141-3.993,0v-12.964h7.985v-3.989h3.993v-3.989h-7.985v-3.989h-3.993v-3.989h-3.993v-3.989h-3.993v-7.978h-3.993v-15.956h3.993v-7.978c1.647-.089,3.341.059,4.991,0v-1.994c3.47,1.433,5.508-1.725,6.488-1.994.932-.257,11.043-.256,11.978,0,.154.042,1.996,1.592,2.495,1.994Z"/>
      <path class="f" d="M61.005,244.829c-.546,2.031-.884,3.287-.998,5.485-.284,5.456.206,11.001,0,16.454h3.993c.138-1.11-.219-2.488,0-3.49.084-.383,1.294-.586.998-2.493,2.298-1.984,3.886-2.362,6.987-1.994v3.989h3.993l.998,6.981c1.603-.548,2.105.929,2.495.997,2.31.406,5.902-.057,8.484,0,8.297.183,16.655-.134,24.954,0v-2.992c1.603.548,2.105-.929,2.495-.997,3.253-.572,8.822.044,12.477,0-.385,1.927,1.382,3.825-1.497,3.989-3.472.198-7.013-.141-10.481,0v3.989H44.036v-3.989h-3.993v-3.989h3.993v-3.989h7.985v-7.978h3.993v-11.967c1.061.207,2.55-.258,3.494,0,.762.208,1.383,1.894,1.497,1.994Z"/>
      <path class="h" d="M193.759,248.818c-.158-1.011-.965-1.264-.998-1.496-1.061-7.322.781-16.844,0-24.432h11.978v7.978h3.993v7.978h3.993v-3.989h3.993v7.978c-4.146.05-8.319-.036-12.477,0-.838.449-1.109,1.446-1.497,1.994-.075.107-1.554.005-.998,1.994-2.686.194-6.059-1.042-6.987,1.994h-.998Z"/>
      <path class="i" d="M107.918,162.059c1.322-.023,2.67.015,3.993,0v-7.978h-3.993v-3.989h-3.993v-15.956h3.993v3.989h3.993v7.978h3.993v15.956h19.963c.141.141,0,3.046,0,3.989-7.967-.022-15.992.138-23.956,0-1.322-.023-2.67.015-3.993,0-.036-1.319.057-2.671,0-3.989-2.65.046-5.335-.032-7.985,0v-3.989c-1.279-.148-2.816.23-3.993,0-1.475-.288-1.486-1.425-1.996-1.994,2.369-3.092,6.658-1.744,9.982-1.994v3.989h3.993c.036,1.319-.057,2.671,0,3.989Z"/>
      <path class="e" d="M63.999,250.812h7.985v3.989h3.993v3.989h3.993v3.989h3.993v3.989h2.495l1.497,3.989c-2.582-.057-6.175.406-8.484,0-.391-.069-.892-1.545-2.495-.997l-.998-6.981h-3.993v-3.989c-3.101-.368-4.689.01-6.987,1.994-.573-3.695-.812-5.916-.998-9.972Z"/>
      <path class="e" d="M192.761,250.812c-.566,1.203.52,7.459,0,7.978h-23.956v-3.989c2.651-.017,5.334.012,7.985,0v-3.989h15.97Z"/>
      <path class="h" d="M139.859,166.048c2.651.018,5.334-.012,7.985,0v3.989h-7.985v3.989h-11.978v-3.989h7.985v-3.989c1.323.004,2.67-.009,3.993,0Z"/>
      <path class="d" d="M63.999,250.812c.186,4.056.425,6.277.998,9.972.296,1.907-.915,2.11-.998,2.493-.219,1.002.138,2.38,0,3.49h-3.993c.206-5.454-.284-10.999,0-16.454.114-2.198.452-3.454.998-5.485.834.729,2.278,1.347,2.994,2.493.035,1.163-.053,2.34,0,3.49Z"/>
      <rect class="h" x="188.768" y="174.026" width="3.993" height="19.945"/>
      <path class="d" d="M168.805,254.801v3.989c-1.657.001-3.334-.002-4.991,0-1.325.002-2.667-.003-3.993,0v-3.989c2.983-.014,6,.019,8.983,0Z"/>
      <path class="h" d="M131.874,262.779c-2.651-.018-5.334.012-7.985,0v-3.989h7.985c.141.141,0,3.046,0,3.989Z"/>
      <path class="f" d="M151.837,258.79v3.989c-2.651.012-5.334-.018-7.985,0v-3.989c2.651-.012,5.334.018,7.985,0Z"/>
      <path class="f" d="M139.859,262.779v3.989c-2.651.012-5.334-.018-7.985,0v-3.989c2.651.018,5.334.008,7.985,0Z"/>
      <path class="d" d="M127.881,298.679c.386-1.925-1.382-3.825,1.497-3.989,2.151-.123,4.344.085,6.488,0v-7.978h7.985v-3.989h15.97v3.989h-3.993v3.989c-3.175.358-4.645.006-6.987-1.994l-.998,5.983c-3.713.006-8.795-.687-10.98,2.493-.216.314.418,1.624-.998,1.496-2.542.251-5.547-.357-7.985,0Z"/>
      <rect class="g" x="20.081" y="213.915" width="11.978" height="4.986"/>
      <path class="f" d="M143.851,65.327v7.978h15.97v3.989h-3.993v11.967c-1.279-.147-2.814.229-3.993,0-1.138-.221-1.676-1.292-2.495-1.994l-.499,1.994c-1.636-.264-4.079.388-5.49,0-1.017-.28-4.538-5.072-5.989-5.983l-.499,1.994c-1.655.016-3.336-.024-4.991,0,.068-3.928.179-8.052,0-11.967h3.993c.282-.282,0-6.678,0-7.978h4.991l.499-1.994c.82.702,1.357,1.774,2.495,1.994ZM151.837,77.294h-7.985v3.989h7.985v-3.989Z"/>
      <path class="f" d="M143.851,28.43c1.094.05,2.647-.233,3.494,0,.964.265,2.776,3.655,4.492,3.989v20.942c-2.651.012-5.334-.018-7.985,0,.305-4.213.563-4.386-3.993-3.989v-3.989h-3.993v-7.978h3.993v-4.986h-2.495l-1.497-3.989c2.644.038,5.348-.121,7.985,0Z"/>
      <path class="i" d="M127.881,24.441c.022,1.321-.034,2.668,0,3.989,2.649-.018,5.337-.038,7.985,0l1.497,3.989h2.495v4.986h-3.993v7.978h3.993v3.989c4.555-.397,4.297-.224,3.993,3.989-1.323.009-2.67-.004-3.993,0-2.653.009-5.332-.003-7.985,0,.031-6.968-.023-13.974,0-20.942h-3.993c-.022-1.321.034-2.668,0-3.989-2.651.018-5.334-.012-7.985,0v3.989h-3.993v4.986h-3.993c-.423.423,0,10.184,0,11.967,5.311.032,10.66-.023,15.97,0,.015,1.321-.023,2.668,0,3.989,1.325-.001,2.667.002,3.993,0-.006,1.322.019,2.668,0,3.989-.024,1.653.016,3.333,0,4.986l-1.996.997-1.996-1.496c-.034-2.825.049-5.663,0-8.476-1.325.001-2.667-.001-3.993,0s-2.667-.002-3.993,0c-2.653.003-5.332-.009-7.985,0v-3.989c-2.651-.016-5.334.011-7.985,0v-3.989h3.993v-7.978h-3.993v-8.975c2.144-.085,4.337.123,6.488,0,2.879-.164,1.112-2.063,1.497-3.989,5.303-.071,10.666-.044,15.97,0Z"/>
      <path class="d" d="M151.837,32.419c1.177.229,2.714-.148,3.993,0v4.986h3.993v19.945h-19.963v-3.989c1.323-.004,2.67.009,3.993,0,2.651-.018,5.334.012,7.985,0v-20.942Z"/>
      <path class="d" d="M135.866,57.35v7.978c0,1.3.282,7.696,0,7.978h-3.993c-.134-2.933.121-3.599-1.996-5.983v-3.989l1.996-.997c.016-1.653-.024-3.333,0-4.986h3.993Z"/>
      <path class="d" d="M127.881,24.441c4.757.039,9.753-.269,14.473,0,2.879.164,1.112,2.063,1.497,3.989-2.638-.121-5.341.038-7.985,0s-5.337-.018-7.985,0c-.034-1.32.022-2.668,0-3.989Z"/>
      <path class="d" d="M99.933,28.43v8.975h-3.993c.015-2.98-.01-5.995,0-8.975h3.993Z"/>
      <path class="f" d="M139.859,53.361v3.989h-7.985c.019-1.321-.006-2.667,0-3.989,2.653-.003,5.332.009,7.985,0Z"/>
      <path class="d" d="M95.94,49.372c-.016,2.648.011,5.329,0,7.978h-3.993c.016-2.649-.011-5.329,0-7.978h3.993Z"/>
      <path class="d" d="M91.947,69.316c-.016,2.649.011,5.329,0,7.978h-3.993c-.012-2.649.018-5.329,0-7.978h3.993Z"/>
      <path class="d" d="M103.925,53.361c.386,1.925-1.382,3.825,1.497,3.989,3.181.181,6.038-.973,7.985,1.994.649-.484,2.531-1.851,2.994-1.994,2.955-.916,4.095,2.024,3.494-3.989,1.325-.002,2.667.001,3.993,0v11.967c-4.167-.203-7.855,1.075-10.98-1.994v1.994h-8.983v-3.989h-3.993v-7.978c1.323-.015,2.67.023,3.993,0Z"/>
      <path class="d" d="M127.881,85.272c1.323-.006,2.67.019,3.993,0-.023,1.321.015,2.667,0,3.989h-7.985c-.141.141,0,3.046,0,3.989v3.989c-1.322-.016-2.672.044-3.993,0s-2.671.028-3.993,0c-.571-.11-2.491-1.53-2.994-1.994-1.166-1.075-2.388-3.46-3.993-4.488,1.677-2.414,4.516-1.292,6.987-1.496v-3.989c3.981-.013,7.996.018,11.978,0Z"/>
      <path class="j" d="M111.91,73.305c1.321-.01,2.672-.028,3.993,0s2.67-.018,3.993,0c.141.141,0,3.046,0,3.989-2.65.046-5.335-.032-7.985,0-.017,1.321.026,2.668,0,3.989-2.648.018-5.338.046-7.985,0-.046-2.648.032-5.33,0-7.978,2.651-.013,5.334.019,7.985,0Z"/>
      <path class="i" d="M103.925,81.283c-1.322-.023-2.67.015-3.993,0v-11.967c3.468.141,7.008-.198,10.481,0,2.879.164,1.112,2.063,1.497,3.989-2.651.019-5.334-.013-7.985,0,.032,2.648-.046,5.33,0,7.978,2.647.046,5.337.018,7.985,0,.026-1.321-.017-2.668,0-3.989,2.65-.032,5.335.046,7.985,0,0-.943.141-3.848,0-3.989-1.322-.018-2.671.028-3.993,0,.386-1.925-1.382-3.825,1.497-3.989,2.151-.123,4.344.085,6.488,0v7.978c-1.323.015-2.67-.023-3.993,0v3.989c-2.651.012-5.334-.018-7.985,0-.033,1.652.022,3.333,0,4.986l-2.495.997c-1.517-2.12-2.951-2.249-5.49-1.994-.015-1.321.023-2.668,0-3.989Z"/>
      <path class="j" d="M131.874,73.305c.179,3.915.068,8.039,0,11.967-1.323.019-2.67-.006-3.993,0l-1.996-6.482c4.013-2.689.126-9.045,3.993-11.468,2.118,2.384,1.862,3.051,1.996,5.983Z"/>
      <path class="e" d="M111.91,53.361c2.653-.009,5.332.003,7.985,0,.602,6.013-.539,3.073-3.494,3.989-.463.144-2.346,1.511-2.994,1.994-1.947-2.967-4.804-1.813-7.985-1.994-2.879-.164-1.112-2.064-1.497-3.989,2.649-.046,5.335.009,7.985,0Z"/>
      <path class="i" d="M115.903,97.239v7.978h-3.993v-3.989c-1.321-.036-2.673.056-3.993,0,.023-1.321-.015-2.668,0-3.989h4.991v-1.994c.504.465,2.424,1.885,2.994,1.994Z"/>
      <path class="d" d="M131.874,93.25c1.301,0,7.703-.282,7.985,0v3.989c1.323.018,2.67-.028,3.993,0v7.978h3.993v7.978h-3.993v3.989c-1.323.015-2.67-.023-3.993,0,0,.943.141,3.848,0,3.989-5.311-.011-10.659.015-15.97,0v-3.989h7.985c2.65,0,5.336.046,7.985,0v-3.989c-.282-.282-6.684,0-7.985,0h-7.985c.028-1.321-.018-2.667,0-3.989h3.993v-3.989h7.985v-3.989c0-.943.141-3.848,0-3.989-1.323-.015-2.67.023-3.993,0v-3.989Z"/>
      <path class="f" d="M147.844,97.239c1.322,0,2.671.028,3.993,0,.947,3.919-1.361,4.201-2.994,6.482-.21.294.417,1.627-.998,1.496h-3.993v-7.978c1.322.028,2.67,0,3.993,0Z"/>
      <path class="e" d="M131.874,85.272c1.655-.024,3.336.016,4.991,0l.499-1.994c1.451.912,4.972,5.704,5.989,5.983,1.411.388,3.854-.264,5.49,0l.499-1.994c.819.702,1.357,1.774,2.495,1.994v3.989h-3.993v3.989c-1.322,0-2.671.028-3.993,0s-2.67.018-3.993,0v-3.989c-.282-.282-6.684,0-7.985,0h-7.985c0-.943-.141-3.848,0-3.989h7.985c.015-1.322-.023-2.668,0-3.989Z"/>
      <path class="i" d="M202.742,244.829c2.956,2.91,6.226,1.889,9.982,1.994v11.967h-15.97v-8.476l-1.996-1.496c.929-3.036,4.301-1.8,6.987-1.994-.556-1.989.923-1.888.998-1.994Z"/>
      <polygon class="i" points="192.761 274.746 192.761 270.757 196.753 270.757 196.753 274.746 200.746 274.746 200.746 278.735 188.768 278.735 188.768 282.724 176.79 282.724 176.79 274.746 192.761 274.746"/>
      <polygon class="i" points="220.709 290.701 220.709 294.69 224.702 294.69 224.702 302.668 220.709 302.668 220.709 298.679 208.731 298.679 208.731 294.69 216.716 294.69 216.716 290.701 220.709 290.701"/>
      <rect class="i" x="139.859" y="298.679" width="19.963" height="3.989"/>
      <path class="j" d="M163.814,266.768c.33,2.193,1.521.758,0,3.989h-7.985v-3.989h7.985Z"/>
      <path class="j" d="M40.044,307.654c-.052-2.979.036-5.995,0-8.975h7.985v-3.989h3.993v-3.989h7.985v-3.989h3.993v-3.989h31.941v-3.989h3.993v3.989h3.993v3.989h-11.978v3.989h-11.978v3.989h-11.978v3.989h-15.97v3.989h-7.985v4.986h-3.993Z"/>
      <rect class="i" x="143.851" y="77.294" width="7.985" height="3.989"/>
      <path class="j" d="M127.881,28.43c.034,1.32-.022,2.668,0,3.989h3.993c-.023,6.968.031,13.974,0,20.942-1.325.002-2.667-.001-3.993,0-.023-1.321.015-2.668,0-3.989-5.311-.023-10.66.032-15.97,0,0-1.782-.423-11.544,0-11.967h3.993v-4.986h3.993v-3.989c2.651-.012,5.334.018,7.985,0Z"/>
      <path class="j" d="M123.888,97.239c2.651.033,5.335-.046,7.985,0,1.323.023,2.67-.015,3.993,0,.141.141,0,3.046,0,3.989-3.764.387-8.154-1.368-10.481,1.994-.663-.424-1.491-1.841-1.996-1.994-2.982-.908-4.086,2.012-3.494-3.989,1.32.044,2.671-.016,3.993,0Z"/>
      <path class="f" d="M131.874,93.25v3.989c-2.65-.046-5.334.033-7.985,0v-3.989h7.985Z"/>
      <path class="i" d="M131.874,113.195v3.989h-7.985c0-1.321-.028-2.668,0-3.989h7.985Z"/>
      <path class="f" d="M131.874,113.195c1.301,0,7.703-.282,7.985,0v3.989c-2.649.046-5.335,0-7.985,0v-3.989Z"/>
    </g>
  </g>
</svg>