<?xml version="1.0" encoding="UTF-8"?>
<svg id="b" data-name="Layer 2" xmlns="http://www.w3.org/2000/svg" width="210.104" height="228.146" viewBox="0 0 210.104 228.146">
  <defs>
    <style>
      .d {
        fill: #d9d9d9;
      }

      .e {
        fill: #717171;
      }

      .f {
        fill: #515151;
      }

      .g {
        fill: #949494;
      }

      .h {
        fill: #b6b6b6;
      }
    </style>
  </defs>
  <g id="c" data-name="Layer 1">
    <g>
      <path class="f" d="M114.032,209.103c.04,1.665-.028,3.335,0,5-1.325.071-2.671-.028-4,0,.087-1.651,0-3.343,0-5h4Z"/>
      <path class="f" d="M129.032,5.103v4h-5c.088,1.66-.073,3.347-.006,5.006l5.006-.006c.083,1.661-.072,3.347-.005,5.006,1.33.033,2.671-.036,4.005-.006,1.665.037,3.335-.035,5,0-.086-1.659.086-3.341,0-5h-5c0-1.652.108-3.357,0-5l5.006-.006c.067,1.659-.092,3.346-.006,5.006,1.657,0,3.348-.086,5,0v5c-1.665-.036-3.335.035-5,0,.086,1.66-.073,3.347-.006,5.006,1.661.045,3.341-.061,5.006-.006,1.086.036,4.822-.185,5.006-.005.439.429-.457,8.552-.01,9.011.15.154,3.082-.025,4.005-.006.086-1.66-.073-3.347-.006-5.006,1.663-.008,3.339.006,5.006.006.036,1.665-.036,3.335,0,5-1.665,0-3.336.035-5,0-.085,1.628-.085,3.372,0,5,.086,1.66-.073,3.347-.006,5.006,1.659.067,3.346-.093,5.006-.006-.037-1.665.035-3.335,0-5s.036-3.335,0-5h5c.087,1.656-.03,3.339,0,5s-.021,3.334,0,5c-1.657,0-3.348.086-5,0,.03,1.334-.039,2.675-.006,4.005,1.659.067,3.345-.087,5.006-.005-.024-1.333.017-2.667,0-4h5c.071,1.325-.028,2.671,0,4-1.662-.037-3.342.082-5,0,.03,1.661-.088,3.344,0,5s-.074,3.347-.006,5.006c1.658.068,3.346-.095,5.006-.006.033,1.658-.108,3.35,0,5,.087,1.326-.079,2.68-.005,4.005,1.325.074,2.679-.092,4.005-.005v5c0,1.665-.038,3.336,0,5s-.113,3.351,0,5c.078,1.144-.54,3.847.585,4.018,1.342.204,3.001-.147,4.421-.014.032-1.33-.034-2.671-.006-4.005.036-1.665-.036-3.335,0-5s-.017-3.334,0-5,.017-3.335,0-5h5c.161,7.976-.026,16.02,0,24-1.667,0-3.343-.014-5.006-.006-.067,1.658.093,3.346.006,5.006-.086,1.643-.038,3.352,0,5,.069,2.991-.052,6.014-.006,9.005,1.658.067,3.346-.091,5.006-.005-.024-1.332.013-2.667,0-4h5v4c-1.662-.044-3.342.086-5,0,.03,1.661-.088,3.344,0,5s-.074,3.348-.006,5.006c1.658.067,3.346-.093,5.006-.006l-.006,5.006c1.658.068,3.346-.095,5.006-.006,1.325.071,2.671-.028,4,0l-.006,4.005c1.659.067,3.345-.087,5.006-.005.046,4.988,0,10.012,0,15v4c-1.66.087-3.347-.073-5.006-.006l.006,5.006c.002,1.667-.001,3.333,0,5-1.334.03-2.675-.039-4.005-.006-.068,1.659.089,3.346.005,5.006-.067,1.326.026,2.67,0,4,1.327-.07,2.673.066,4,0v-4c1.657,0,3.349.087,5,0-.03,1.334.039,2.675.006,4.005-1.659.067-3.345-.088-5.006-.005,0,1.658.083,3.347,0,5h-4c.03-1.666-.033-3.335,0-5-1.66.088-3.347-.073-5.006-.006-.067,1.659.093,3.346.006,5.006-1.66.088-3.347-.074-5.006-.006-.067,1.659.092,3.346.006,5.006,1.666-.03,3.335.035,5,0v5c-1.656.087-3.339-.03-5,0,.037-1.662-.086-3.343,0-5-1.661.03-3.344-.087-5,0s-3.347-.073-5.006-.006c-.068,1.658.095,3.346.006,5.006,1.65-.108,3.342.033,5,0s3.334.03,5,0c-.03,1.334.039,2.675.006,4.005-1.659.067-3.345-.088-5.006-.005s-3.338-.028-5,0c0-1.326-.071-2.679,0-4-1.326.087-2.68-.079-4.005-.005-.074,1.325.092,2.679.005,4.005,1.333-.024,2.667.023,4,0v5c-1.333-.002-2.667.001-4,0,.086-1.657-.109-3.346,0-5-1.661.03-3.344-.088-5,0s-3.347-.074-5.006-.006c-.067,1.659.092,3.346.006,5.006h5v5c-1.656.087-3.339-.03-5,0,.086-1.659-.086-3.341,0-5-1.665,0-3.336-.037-5,0-1.334.03-2.675-.039-4.005-.006-.067,1.659.087,3.345.005,5.006,1.333-.024,2.667.016,4,0v5c-1.325.071-2.671-.022-4,0,.086-1.659-.082-3.341,0-5-1.661.029-3.344-.086-5,0-5.093.265-5.481-1.583-5.006,5.005,1.658.069,3.346-.094,5.006-.005v5c-1.652.086-3.343,0-5,0h-5c.002-1.667.014-3.343.005-5.006-1.33-.033-2.671.036-4.005.006-1.648-.037-3.357-.087-5,0-1.66.088-3.347-.073-5.006-.005-.435,6.223-.249,5.011,5.006,5.005,1.667-.002,3.333.001,5,0v4c-3.322.061-6.676,0-10,0h-5c-.032-1.334.043-2.675.005-4.005-1.33-.037-2.671.037-4.005.005-1.665-.04-3.344.012-5.006-.005-.033,1.33.036,2.671.006,4.005l-5.006-.006c-.067,1.659.092,3.346.006,5.006,1.665-.034,3.335.034,5,0v5c-1.646.086-3.349.027-5,0,.086-1.659-.086-3.341,0-5-1.657.034-3.352-.113-5,0-1.144.078-3.847-.54-4.018.585-.204,1.342.147,3.001.014,4.421,1.33.032,2.671-.034,4.005-.006v5c-2.971.141-6.02,0-9,0,.04-1.665-.014-3.344.006-5.006-1.659-.067-3.346.093-5.006.006-1.643-.086-3.352-.038-5,0-2.991.069-6.014-.052-9.005-.006.019,1.662-.035,3.341.005,5.006-1.654-.109-3.343.086-5,0l.006-5.006c-1.661-.046-3.342.063-5.006.006-.087-1.656.03-3.339,0-5,1.66-.088,3.347.073,5.006.005.475-6.589.088-4.741-5.006-5.005.035,1.665-.03,3.334,0,5-1.643.087-3.352.037-5,0-.088-1.656.03-3.339,0-5-1.33-.033-2.674.067-4,0-.067-1.326.025-2.67,0-4,1.333,0,2.667,0,4,0,.013,1.333-.024,2.668,0,4,1.662.041,3.343-.086,5,0-.028-1.329.071-2.675,0-4-.089-1.66.074-3.348.006-5.006l-5.006.006c-.03-3.316.146-6.691,0-10-.073-1.662.065-3.346.005-5.006l-4.005.006c-.007-1.333,0-2.667,0-4,0-1.667,0-3.333,0-5v-24c1.334-.032,2.675.041,4.005.006.035-1.662-.041-3.34-.005-5.006,1.662-.029,3.343.083,5,0s3.347.072,5.006.005l-.006-4.005c1.105-.057,4.808.199,5.006.005.448-.438-.462-9.562-.011-10.01.319-.318,7.329.041,9.005.005,1.665-.035,3.334.016,5,0,4.623-.044,9.389-.211,14,0-.009,1.666.016,3.334,0,5s.035,3.335,0,5c-1.318.115-2.685-.098-4.005-.005l.005,4.005h-5c-1.667,0-3.333-.005-5,0s-3.336-.038-5,0c-2.991.069-6.014-.052-9.005-.005l-.012,4.427c.154,1.075,7.368.541,9.017.578,1.664.037,3.335.001,5,0s3.336.038,5,0c2.991-.068,6.015.051,9.005.006.068-1.658-.093-3.346-.005-5.006.07-1.325-.028-2.671,0-4,1.133-.099,4.787.225,5.006.006.177-.177-.006-4.012-.006-5.006,0-1.667.014-3.343.006-5.006-1.659-.06-3.344.082-5.006.006.009-1.666.007-3.334,0-5-.027-6.217.357-12.862,0-19-.077-1.328.072-2.679.005-4.005l-4.005.005c-.109-1.654.086-3.343,0-5s.073-3.347.006-5.006c-1.661-.045-3.341.061-5.006.006s-3.344.051-5.006.005l.006-10.005c1.661-.082,3.347.072,5.006.005.034-1.33-.038-2.671-.006-4.005.04-1.665-.028-3.335,0-5,1.66-.085,3.347.072,5.006.005-.278-7.966.36-16.049-.006-24.005-.076-1.662.066-3.347.006-5.006-1.661-.046-3.342.063-5.006.006,0-1.326.071-2.679,0-4-.089-1.66.074-3.347.006-5.006l-5.006.006c-.065-3.323.022-6.676,0-10-.009-1.333,0-2.667,0-4v-5c1.66-.088,3.347.073,5.006.005.474-6.583.091-4.745-5.006-5.005v-5c1.656-.087,3.339.03,5,0s3.334.015,5,0c-.002,1.667-.014,3.343-.005,5.006,1.33.033,2.671-.036,4.005-.006,1.648.037,3.357.086,5,0,1.66-.087,3.347.073,5.006.006.067-1.658-.093-3.346-.006-5.006h19c-.07-1.327.07-2.673,0-4,1.657.031,3.351-.108,5,0ZM105.037,19.098h-5.01v5.01h5.01v-5.01ZM114.032,47.103c-1.329.027-2.675-.07-4,0-5.091.268-5.481-1.588-5.006,5.005,1.662-.019,3.341.035,5.006-.005,1.334-.032,2.675.04,4.005.006.035-1.663-.041-3.34-.005-5.006,1.665-.034,3.335.003,5,0s3.333,0,5,0l-.006,5.006,5.006-.006c0,1.667,0,3.333,0,5,0,4.633.212,9.379,0,14-1.077.022-4.829-.183-5.006-.006s.042,3.921.006,5.006c-1.664.056-3.345-.052-5.006-.005.179,1.106-.275,4.735,0,5.01s3.905-.178,5.01,0c.046-1.661-.061-3.341-.005-5.006,1.664-.056,3.345.051,5.006.006.06-1.66-.082-3.344-.006-5.006.922-.019,3.857.158,4.005.006.313-.324-.039-7.332-.005-9.006l5.018-.58-.012-4.425c-1.663-.007-3.339.003-5.006.005,0-3.301.191-6.712,0-10-.077-1.328.072-2.679.005-4.005-1.325-.074-2.679.092-4.005.005-1.648-.108-3.343.025-5,0s-3.352-.082-5,0c-1.107.055-4.798-.203-5.006-.005-.152.144.026,3.083.006,4.005ZM152.032,66.103c-.113,1.646.023,3.345,0,5-1.334.028-2.675-.037-4.005-.006l.01,5.01h3.99c.04-1.662-.018-3.338.005-5.004,1.666-.035,3.343.037,5.006.006-.019-1.662.033-3.341-.006-5.006-.031-1.334.04-2.675.006-4.005-1.421.133-3.079-.218-4.421-.014-1.125.171-.506,2.874-.585,4.018ZM100.032,76.103c-1.667,0-3.343-.014-5.006-.005l-.012,4.425,5.018.58c.032,1.334-.041,2.675-.006,4.005,1.661.049,3.342-.061,5.006-.005.036,1.665-.017,3.334,0,5,.034,3.32.066,6.682,0,10-.033,1.665.036,3.335,0,5-1.664.052-3.344-.056-5.005.005v3.99s5.011.01,5.011.01c.032-1.329-.035-2.671-.006-4.005,1.665-.052,3.344.049,5.006.006.06-1.659-.083-3.344-.006-5.006.149-3.2.149-6.8,0-10-.077-1.661.066-3.346.006-5.006-1.661-.046-3.342.063-5.006.006-.064-2.991.048-6.014.006-9.005-1.663-.008-3.339.005-5.006.005ZM157.032,105.103c-.072,1.326.036,2.671,0,4-1.666.033-3.343-.036-5.006-.006l.006,5.006c-1.329-.022-2.676.072-4,0-.048-1.665.046-3.344.005-5.006-1.106.179-4.735-.275-5.01,0s.178,3.905,0,5.01c1.658.07,3.346-.095,5.006-.005.036,1.256-.509,4.848.578,5.018l8.428-.012c.067-1.658-.092-3.346-.005-5.006,1.66-.088,3.348.074,5.006.006.068-1.658-.094-3.346-.006-5.006.069-1.303.068-2.696,0-4-.264-5.094,1.582-5.48-5.005-5.006-.07,1.658.095,3.346.005,5.006ZM129.037,105.108h-5.009v3.99h5.009v-3.99ZM176.032,133.103c-.033,5.266-1.182,5.438,5.005,5.006.015-1.663-.016-3.339-.005-5.006.033-5.266,1.182-5.438-5.005-5.006-.015,1.663.016,3.339.005,5.006ZM148.032,138.103c-5.094.264-5.48-1.582-5.006,5.005,1.658.07,3.346-.095,5.006-.005,1.325.072,2.671-.028,4,0,1.665.035,3.334-.028,5,0,.02.922-.158,3.861-.006,4.005.181.172,3.95-.004,5.006-.005v5l-5.006-.006.006,5.006c.002,1.667-.001,3.333,0,5-1.661.082-3.347-.071-5.006-.005-.033,1.33.036,2.671.006,4.005-1.334.03-2.675-.039-4.005-.006l.005,5.006c-1.665.035-3.335-.034-5,0s-3.335-.034-5,0c-1.657.034-3.352-.113-5,0-1.145.078-3.847-.54-4.018.585-.204,1.342.147,3.001.014,4.421,1.329.032,2.671-.034,4.005-.006,1.665.036,3.335-.035,5,0s3.34.035,5,0,3.335.037,5,0c1.334-.03,2.675.039,4.005.006.067-1.659-.087-3.345-.005-5.006,1.66-.089,3.348.074,5.006.006l-.006-5.006c1.661-.082,3.347.071,5.006.005.033-1.33-.036-2.671-.006-4.005,1.66-.086,3.347.073,5.006.006.06-1.66-.083-3.344-.006-5.006.153-3.287.066-6.706,0-10-.027-1.334.037-2.675.006-4.005-1.659-.067-3.345.087-5.006.005s-3.338.028-5,0c-.023-1.078.183-4.829.006-5.006-.192-.192-3.902.064-5.006.006-1.303-.069-2.696-.068-4,0ZM95.032,166.103c-1.334.031-2.675-.04-4.005-.006.133,1.42-.218,3.079-.014,4.421.173,1.138,2.869.486,4.018.585,0,3.324.061,6.678,0,10-1.334.032-2.675-.043-4.005-.005l.005,4.005c-1.662.042-3.343-.088-5,0s-3.347-.074-5.006-.006l.006,5.006c-3.325.045-6.676-.064-10,0-1.334.026-2.675-.036-4.005-.006.133,1.42-.218,3.079-.014,4.421.17,1.118,2.877.516,4.018.585,4.651.281,10.321.215,15,0,1.662-.076,3.346.066,5.006.006l-.006-5.006c1.334-.03,2.675.039,4.005.006.068-1.659-.088-3.346-.005-5.006,1.661-.084,3.347.073,5.006.005.031-1.33-.033-2.671-.006-4.005.066-3.294.153-6.713,0-10-.077-1.662.066-3.346.006-5.006-1.662.019-3.341-.033-5.006.006ZM124.037,185.098h-5.01v5.01h5.01v-5.01Z"/>
      <path class="f" d="M105.032,5.103c-.07,1.327.07,2.673,0,4-1.667,0-3.334-.006-5,0s-3.334-.01-5,0v-4c3.323-.061,6.675.019,10,0Z"/>
      <path class="f" d="M191.032,171.103c-.03,1.661.087,3.344,0,5-1.665.037-3.335-.035-5,0,0-1.657-.086-3.348,0-5,1.651-.087,3.343,0,5,0Z"/>
      <path class="f" d="M48.032,52.103c-.006,1.667.009,3.334,0,5s.007,3.333,0,5c-.005,1.333.008,2.667,0,4-.01,1.666.017,3.334,0,5-1.665-.038-3.344.012-5.006-.006-.068,1.658.094,3.346.006,5.006l-5.006-.006.006,5.006c-1.667.006-3.334-.009-5,0-.036-1.666.04-3.344.005-5.006-1.329-.034-2.671.038-4.005.006-.032,1.665.037,3.335,0,5-1.666.014-3.334-.029-5,0,.002,1.333-.001,2.667,0,4-1.653.082-3.342,0-5,0,0,3.326-.001,6.68-.005,10.005h5.011c1.801-1.824-4.24-5.227,4.995-5.005v5c0,1.667,0,3.333,0,5s.035,3.336,0,5c-1.667-.003-3.343-.014-5.006-.005-.034,1.33.038,2.671.006,4.005-.04,1.665.028,3.335,0,5-1.667,0-3.343.014-5.006.006-.067-1.659.093-3.346.006-5.006-.07-1.327.07-2.673,0-4-.088-1.66.073-3.347.006-5.006l-5.006.006c.01-1.666-.018-3.334,0-5,.036-3.325-.067-6.676,0-10h5v-4c1.657-.082,3.338.029,5,0-.002-1.667-.012-3.343-.006-5.006,1.662.02,3.341-.034,5.006.006.021-1.081-.189-4.833-.009-5.007.355-.342,3.669.354,4.018.013.353-.345-.372-4.655-.014-5.012.363-.363,4.617.38,5.012.01.149-.139-.026-3.083-.006-4.005l5.006.006c.067-1.659-.093-3.346-.006-5.006s-.028-3.339,0-5h5Z"/>
      <path class="e" d="M148.032,19.103c.922.02,3.865-.155,4.005-.006.37.395-.373,4.649-.01,5.012s4.617-.38,5.012-.01c.149.14-.026,3.082-.006,4.005-1.667,0-3.343-.014-5.006-.006-.067,1.659.092,3.346.006,5.006-.922-.02-3.855.16-4.005.006-.446-.459.45-8.582.01-9.011-.184-.18-3.919.041-5.006.005v-5c1.665.036,3.335-.036,5,0Z"/>
      <path class="f" d="M33.032,181.103c.032,1.334-.041,2.675-.006,4.005,1.663.033,3.34-.038,5.006-.005v5c0,1.666-.009,3.334,0,5,1.666.01,3.334,0,5,0,.017,1.666-.035,3.335,0,5-1.667.001-3.333-.002-5,0-.087-1.653.009-3.341,0-5-1.665-.01-3.335.037-5,0-.037-1.09.191-4.811.005-5.006-.144-.152-3.083.026-4.005.006-.057-1.664.052-3.345.006-5.006-1.661-.046-3.342.063-5.006.006-.071-1.321,0-2.674,0-4,2.991.051,6.008,0,9,0Z"/>
      <path class="f" d="M10.032,138.103c0,2.98.141,6.029,0,9-1.666.022-3.335-.032-5,0,.006,1.667-.01,3.334,0,5,.02,3.324-.065,6.677,0,10,1.666.033,3.343-.038,5.006-.005.033,1.33-.036,2.671-.006,4.005,1.334.03,2.675-.039,4.005-.006.067,1.659-.087,3.345-.005,5.006,1.66.088,3.348-.073,5.006-.006.067,1.658-.092,3.346-.006,5.006,1.665.033,3.334-.023,5,0v5c-1.661-.028-3.344.087-5,0-.037-1.662.086-3.343,0-5-1.665-.033-3.335.037-5,0-.086-1.659.082-3.341,0-5-1.327-.07-2.673.07-4,0-.082-1.658.037-3.338,0-5-1.662-.037-3.342.082-5,0-.07-1.325.026-2.671,0-4-1.665-.033-3.334.023-5,0-.101-4.986.075-10.018-.006-15.005,1.662-.03,3.34.037,5.006.005-.011-2.994-.017-6.006,0-9,1.665-.028,3.335.04,5,0Z"/>
      <path class="f" d="M210.032,128.103c.101,4.97.09,10.03,0,15h-5v-15h5Z"/>
      <path class="e" d="M76.032,219.103v9c-1.657-.025-3.352.108-5,0l.005-4.005c-1.325-.074-2.679.092-4.005.005-.04-1.665.014-3.344-.005-5.006,2.991-.046,6.014.075,9.005.006Z"/>
      <path class="f" d="M14.032,109.103c-.028,4.989.043,10.012,0,15h-4v-5c0-3.326-.03-6.675,0-10h4Z"/>
      <path class="e" d="M129.032,5.103c1.326.087,2.68-.079,4.005-.005.074,1.325-.092,2.679-.005,4.005.108,1.643,0,3.348,0,5v5c-1.334-.03-2.675.039-4.005.006-.067-1.659.088-3.345.005-5.006s0-3.342,0-5v-4Z"/>
      <path class="g" d="M167.032,185.103c-.109,1.654.086,3.343,0,5s.073,3.347.006,5.006c-1.659.067-3.346-.093-5.006-.006v-10c1.656-.088,3.339.03,5,0Z"/>
      <path class="e" d="M186.032,109.103c1.665.044,3.335-.037,5,0v5c-1.666-.01-3.334,0-5,0h-5c-.088-1.656.03-3.339,0-5,1.658.086,3.338-.044,5,0Z"/>
      <path class="d" d="M10.032,119.103v9h-5c.068-2.991-.051-6.014-.006-9.005l5.006.005Z"/>
      <path class="g" d="M81.032,219.103v9c-1.648.082-3.347.025-5,0v-9c1.648-.038,3.357-.086,5,0Z"/>
      <path class="h" d="M119.032.103v5c-2.994-.027-6.006.009-9,0V.103c2.895-.137,6.105-.137,9,0Z"/>
      <path class="f" d="M195.032,114.103c1.659.089,3.348-.074,5.006-.006.068,1.658-.094,3.346-.006,5.006,1.661.079,3.347-.067,5.006-.006l-.006,5.006c-1.657-.082-3.338.028-5,0-.028-1.661.088-3.344,0-5-2.978-.141-6.014.05-9,0v-5c1.327.008,2.677-.071,4,0Z"/>
      <path class="h" d="M48.032,43.103c-.025,2.994.011,6.006,0,9h4v5c-1.333.002-2.667-.001-4,0,.009-1.666-.006-3.333,0-5h-5c.05-2.986-.141-6.021,0-9h5Z"/>
      <path class="g" d="M10.032,128.103h4c-.026,1.661.083,3.343,0,5H5.032c.017-1.666-.038-3.335,0-5h5Z"/>
      <path class="g" d="M205.032,124.103c1.661.082,3.347-.072,5.006-.005.031,1.33-.033,2.671-.006,4.005h-5c-1.658,0-3.347.082-5,0-.012-1.333.022-2.667,0-4,1.662.028,3.343-.082,5,0Z"/>
      <path class="e" d="M167.032,47.103c1.334.03,2.675-.039,4.005-.006.067,1.659-.087,3.345-.005,5.006s0,3.342,0,5c-1.326,0-2.679.071-4,0-.033-1.665.034-3.335,0-5s.035-3.335,0-5Z"/>
      <path class="f" d="M76.032,14.103c-.086,1.646-.027,3.349,0,5-1.666.03-3.335-.035-5,0,.002,1.667-.001,3.333,0,5-1.333,0-2.667,0-4,0-.03,1.334.039,2.675.006,4.005-3.325.024-6.68-.042-10.006-.005l.006,5.006c-1.663.006-3.339-.003-5.006-.006-.035,1.665.016,3.334,0,5-1.333-.001-2.667.002-4,0,.027-1.662-.082-3.343,0-5,1.333.001,2.667-.002,4,0,.035-1.665-.037-3.335,0-5,1.665-.037,3.334.019,5,0-.002-1.333.001-2.667,0-4,1.657-.082,3.338.029,5,0s3.334,0,5,0c.038-1.665-.026-3.334,0-5,1.325-.071,2.671.028,4,0l-.006-5.006c1.659-.067,3.346.092,5.006.006Z"/>
      <path class="g" d="M129.032,200.103c1.334.03,2.675-.039,4.005-.006.009,1.663-.003,3.339-.005,5.006-.002,1.333.001,2.667,0,4-1.326.067-2.67-.025-4,0v-9Z"/>
      <path class="h" d="M171.032,52.103l5.006-.006c.068,1.658-.094,3.346-.006,5.006h-5c0-1.658.082-3.347,0-5Z"/>
      <path class="d" d="M43.032,57.103c-.087,1.66.073,3.347.006,5.006l-5.006-.006c.035-1.666-.037-3.343-.006-5.006l5.006.006Z"/>
      <path class="h" d="M95.032,214.103v5c1.665.036,3.334-.028,5,0-.086,1.66.073,3.347.006,5.006-1.659.061-3.345-.085-5.006-.006v-5c-1.334-.029-2.675.038-4.005.006.133-1.42-.218-3.079-.014-4.421.171-1.125,2.874-.506,4.018-.585Z"/>
      <path class="f" d="M176.032,57.103c.088,1.656-.03,3.339,0,5-1.653-.083-3.342,0-5,0v-5h5Z"/>
      <path class="d" d="M110.032.103v5c-1.666-.005-3.334-.009-5,0,.088-1.66-.073-3.347-.006-5.006,1.659-.061,3.345.085,5.006.006Z"/>
      <path class="d" d="M57.032,209.103c5.093.265,5.481-1.583,5.006,5.005-1.658.068-3.346-.093-5.006-.005.03,1.661-.087,3.344,0,5,1.664.057,3.345-.052,5.006-.006l-.006,5.006c-1.66-.087-3.347.073-5.006.006-.067-1.659.093-3.346.006-5.006-1.664-.057-3.345.052-5.006.006-.068-1.658.094-3.346.006-5.006,1.648.037,3.357.087,5,0-.03-1.666.035-3.335,0-5Z"/>
      <path class="g" d="M110.032,214.103c-.088,1.66.074,3.347.006,5.006-1.659.067-3.346-.093-5.006-.006v-5c1.665-.034,3.335.035,5,0Z"/>
      <path class="d" d="M119.032,209.103l.006,5.006c-1.658.068-3.346-.095-5.006-.006-.028-1.665.04-3.335,0-5h5Z"/>
      <path class="d" d="M110.032,205.103c1.334.032,2.675-.042,4.005-.005.038,1.33-.037,2.671-.005,4.005h-4v-4Z"/>
      <path class="d" d="M157.032,33.103c.036,1.665-.035,3.335,0,5h-5c-.085-1.628-.085-3.372,0-5,1.664.035,3.335,0,5,0Z"/>
      <path class="d" d="M157.032,28.103c1.667,0,3.343-.014,5.006-.006.067,1.659-.093,3.346-.006,5.006h-5c-.036-1.665.036-3.335,0-5Z"/>
      <path class="e" d="M148.032,200.103c-.086,1.66.073,3.347.006,5.006-1.659.067-3.346-.093-5.006-.006v-5c1.645.088,3.349.027,5,0Z"/>
      <path class="e" d="M43.032,200.103c.035,1.665-.037,3.335,0,5,1.651.087,3.343,0,5,0,.025,1.33-.067,2.674,0,4-1.661-.084-3.347.073-5.006.005-.033-1.33.036-2.671.006-4.005-1.66-.088-3.347.074-5.006.006-.067-1.659.093-3.346.006-5.006,1.667-.002,3.333.001,5,0Z"/>
      <path class="e" d="M157.032,195.103c-.086,1.66.073,3.347.006,5.006-1.658.068-3.346-.095-5.006-.006v-5c1.666-.021,3.334.03,5,0Z"/>
      <path class="h" d="M38.032,195.103c.009,1.659-.087,3.347,0,5l-5.006.006c-.046-1.661.063-3.342.006-5.006,1.665.037,3.335-.01,5,0Z"/>
      <path class="h" d="M67.032,19.103c-.026,1.666.038,3.335,0,5-1.666,0-3.335-.029-5,0l-.006-5.006c1.658-.068,3.346.095,5.006.006Z"/>
      <path class="g" d="M143.032,14.103c1.66.087,3.347-.073,5.006-.006l-.006,5.006c-1.665-.036-3.335.036-5,0v5c-1.664-.055-3.345.051-5.006.006-.067-1.659.092-3.346.006-5.006,1.665.035,3.335-.036,5,0v-5Z"/>
      <path class="d" d="M119.032.103c1.661.079,3.347-.067,5.006-.006.067,1.658-.093,3.346-.006,5.006-1.665-.031-3.334.015-5,0V.103Z"/>
      <path class="d" d="M181.032,90.103c1.667,0,3.343-.014,5.006-.006.067,1.658-.093,3.346-.006,5.006h-5c-.006-1.667.005-3.333,0-5Z"/>
      <path class="h" d="M186.032,95.103c.086,1.652,0,3.343,0,5h-5c-.009-1.666.006-3.333,0-5h5Z"/>
      <path class="h" d="M176.032,185.103l.006,5.006-5.006-.006v-5c1.662-.028,3.343.083,5,0Z"/>
      <path class="e" d="M186.032,100.103c0,1.667,0,3.333,0,5h-5c-.017-1.666.009-3.334,0-5h5Z"/>
      <path class="h" d="M24.032,185.103c1.664.057,3.345-.052,5.006-.006.046,1.661-.063,3.342-.006,5.006-1.078-.023-4.829.183-5.006.006-.192-.192.065-3.901.006-5.006Z"/>
      <path class="d" d="M48.032,38.103c-.027,1.666.014,3.334,0,5h-5c.079-1.661-.067-3.347-.006-5.006l5.006.006Z"/>
      <path class="d" d="M195.032,171.103c-.083,1.661.072,3.347.005,5.006-1.33.033-2.671-.036-4.005-.006-.087,1.66.073,3.347.006,5.006-1.659.067-3.346-.093-5.006-.006v-5c1.665-.035,3.335.037,5,0,.087-1.656-.03-3.339,0-5h4Z"/>
      <path class="d" d="M186.032,171.103c-.086,1.652,0,3.343,0,5-1.665.035-3.334-.03-5,0,.087-1.66-.073-3.347-.006-5.006,1.658-.068,3.346.094,5.006.006Z"/>
      <path class="d" d="M191.032,166.103c-.033,1.665.03,3.334,0,5-1.657,0-3.349-.087-5,0,.087-1.66-.073-3.347-.006-5.006,1.659-.067,3.346.093,5.006.006Z"/>
      <path class="h" d="M14.032,171.103c.082,1.659-.086,3.341,0,5,1.665.037,3.335-.033,5,0,.086,1.657-.037,3.338,0,5-1.66-.087-3.348.073-5.006.006-.067-1.658.092-3.346.006-5.006-1.334-.03-2.675.039-4.005.006-.067-1.659.087-3.345.005-5.006,1.327.07,2.673-.07,4,0Z"/>
      <path class="e" d="M10.032,133.103v5c-1.665.04-3.335-.028-5,0,.01-1.666-.017-3.334,0-5h5Z"/>
      <path class="d" d="M10.032,166.103c.037,1.662-.082,3.342,0,5-1.66-.088-3.348.073-5.006.006-.068-1.658.094-3.346.006-5.006,1.658.082,3.338-.037,5,0Z"/>
      <path class="g" d="M205.032,157.103c-.087,1.66.073,3.347.006,5.006-1.658.068-3.346-.094-5.006-.006.037-1.664,0-3.335,0-5h5Z"/>
      <path class="h" d="M81.032,9.103v5c-1.628-.083-3.372-.085-5,0,.087-1.66-.073-3.347-.006-5.006,1.658-.067,3.346.093,5.006.006Z"/>
      <path class="d" d="M162.032,38.103l5.006-.006c.068,1.658-.095,3.346-.006,5.006h-5c-.021-1.666.03-3.334,0-5Z"/>
      <path class="d" d="M162.032,43.103c.017,1.333-.024,2.667,0,4-1.661-.082-3.347.071-5.006.005-.033-1.33.036-2.671.006-4.005,1.652.086,3.343,0,5,0Z"/>
      <path class="f" d="M205.032,152.103c-.03,1.661.087,3.344,0,5h-5v-5c1.657,0,3.348.086,5,0Z"/>
      <path class="d" d="M210.032,147.103c-.088,1.66.074,3.348.006,5.006-1.658.067-3.346-.093-5.006-.006.03-1.665-.014-3.334,0-5h5Z"/>
      <path class="e" d="M210.032,143.103c-.024,1.329.07,2.675,0,4h-5c-.014,1.666.03,3.335,0,5-1.652.086-3.343,0-5,0h-5l-.006-5.006c1.659-.067,3.346.093,5.006.006s3.343,0,5,0c.011-1.333,0-2.667,0-4h5Z"/>
      <path class="h" d="M5.032,162.103c.026,1.329-.07,2.675,0,4-1.661-.082-3.347.071-5.006.005-.031-1.33.033-2.671.006-4.005,1.666.023,3.335-.033,5,0Z"/>
      <path class="d" d="M191.032,109.103c1.334.03,2.675-.039,4.005-.006l-.005,5.006c-1.323-.071-2.673.008-4,0v-5Z"/>
      <path class="d" d="M24.032,181.103c0,1.326-.071,2.679,0,4-1.664-.057-3.345.054-5.006.005-.033-1.329.036-2.671.006-4.005,1.656.087,3.339-.028,5,0Z"/>
      <path class="d" d="M33.032,176.103c.028,1.665-.04,3.335,0,5-2.992,0-6.009.051-9,0v-5c2.985.04,6.022-.141,9,0Z"/>
      <path class="e" d="M52.032,28.103c-.037,1.665.035,3.335,0,5-1.333-.002-2.667.001-4,0,.082-1.661-.072-3.347-.005-5.006,1.33-.033,2.671.036,4.005.006Z"/>
      <path class="h" d="M57.032,24.103c.001,1.333-.002,2.667,0,4-1.666.019-3.335-.037-5,0,.03-1.334-.039-2.675-.006-4.005,1.659-.067,3.345.087,5.006.005Z"/>
      <path class="h" d="M86.032,224.103c-.032,1.334.04,2.675.006,4.005-1.659.067-3.345-.087-5.006-.005v-4h5Z"/>
      <path class="h" d="M176.032,62.103c1.661.083,3.347-.072,5.006-.005.031,1.33-.033,2.671-.006,4.005h-5c-.013-1.333.024-2.668,0-4Z"/>
      <path class="h" d="M14.032,100.103c-.01,1.666.006,3.333,0,5h-4c.027-1.661-.083-3.343,0-5,1.333-.001,2.667.002,4,0Z"/>
      <path class="g" d="M29.032,190.103c.922.02,3.861-.158,4.005-.006.186.195-.042,3.916-.005,5.006-1.334-.03-2.675.039-4.005.006-.049-1.661.061-3.342.005-5.006Z"/>
      <path class="d" d="M14.032,95.103c-.018,1.666.01,3.334,0,5-1.333.002-2.667-.001-4,0,.083-1.661-.072-3.347-.005-5.006l4.005.006Z"/>
      <path class="d" d="M91.032,5.103c-.001,1.333.002,2.667,0,4-1.666.015-3.335-.03-5,0l-.006-4.005c1.659-.068,3.345.088,5.006.005Z"/>
      <path class="d" d="M138.032,205.103l.006,4.005c-1.659.068-3.345-.088-5.006-.005.001-1.333-.002-2.667,0-4h5Z"/>
      <path class="h" d="M52.032,209.103c.03,1.661-.088,3.344,0,5-1.334-.03-2.675.039-4.005.006-.068-1.659.088-3.345.005-5.006,1.326.067,2.67-.033,4,0Z"/>
      <path class="h" d="M19.032,81.103v4h-5c.027-1.334-.037-2.675-.006-4.005,1.659-.067,3.345.087,5.006.005Z"/>
      <path class="e" d="M95.032,5.103v4c-1.333.008-2.667-.012-4,0,.002-1.333-.001-2.667,0-4,1.326-.067,2.67.025,4,0Z"/>
      <path class="e" d="M14.032,100.103l5.006-.006c.067,1.659-.093,3.346-.006,5.006h-5c-.005,1.333.007,2.667,0,4h-4c.012-1.333-.021-2.667,0-4h4c.006-1.667-.01-3.334,0-5Z"/>
      <path class="g" d="M67.032,224.103c1.326.087,2.68-.079,4.005-.005l-.005,4.005c-1.326-.087-2.68.079-4.005.005-.037-1.33.037-2.671.005-4.005Z"/>
      <path class="d" d="M48.032,76.103c-.035,1.665.037,3.335,0,5-1.667.007-3.334-.009-5,0,0-1.657-.087-3.349,0-5,1.667.002,3.333-.001,5,0Z"/>
      <path class="d" d="M81.032,19.103v5h-5c-.037-1.665.027-3.334,0-5,1.661-.03,3.344.087,5,0Z"/>
      <path class="d" d="M71.032,24.103h5c.03,1.334-.039,2.675-.006,4.005l5.006-.005c.022,3.324-.065,6.677,0,10,.033,1.665-.038,3.335,0,5h5c.071,1.321,0,2.674,0,4-1.664-.057-3.345.054-5.006.005-.033-1.329.036-2.671.006-4.005-1.665,0-3.336.039-5,0-.088-1.66.073-3.348.006-5.006-1.658-.067-3.346.093-5.006.006-.023-1.667.036-3.343-.005-5.005-5.302-.692-4.029.716-3.995,5.005-1.66.086-3.348-.073-5.006-.005.063,7.987-.067,16.018.006,24.005.012,1.333-.024,2.668,0,4,.06,3.324-.044,6.682-.006,10.005l5.006-.005c.018,1.666-.008,3.334,0,5h4v4c-1.333.011-2.667,0-4,0-.014,1.666.03,3.335,0,5h-5v-5c1.667,0,3.333,0,5,0,.012-1.333.006-2.667,0-4h-10c-1.667,0-3.333,0-5,0,.025,1.333-.016,2.667,0,4,.02,1.666-.033,3.335,0,5,.065,3.324-.048,6.682-.006,10.005,1.659.066,3.346-.09,5.006-.005l.58,5.018,4.425-.012c.068-1.658-.093-3.346-.005-5.006,1.66-.086,3.347.073,5.006.006.067-1.658-.093-3.346-.006-5.006,1.334-.03,2.675.039,4.005.006.067-1.659-.088-3.345-.005-5.006s0-3.342,0-5c1.666-.014,3.334.029,5,0s3.343.082,5,0l-.006,10.005c1.661.046,3.341-.06,5.006-.005l-.006,5.006,5.006-.006c.086,1.657-.109,3.346,0,5,.087,1.326-.079,2.68-.005,4.005l4.005-.005c.357,6.138-.027,12.783,0,19-4.644.151-9.362-.212-14,0-1.662.076-3.346-.066-5.006-.006l.006,5.006c-1.676.036-8.686-.323-9.005-.005-.451.449.459,9.572.011,10.01-.198.194-3.901-.062-5.006-.005-1.659.085-3.341-.082-5,0-1.106.055-4.798-.202-5.006-.005-.152.144.026,3.083.006,4.005-1.332.023-2.667,0-4,0v-4c0-1.657.087-3.349,0-5-.088-1.66.074-3.347.006-5.006l-5.006.006c-.087-1.66.073-3.347.006-5.006-1.658-.067-3.346.093-5.006.006-.029-1.334.038-2.675.006-4.005-1.42.133-3.079-.218-4.421-.014-1.143.174-.479,2.867-.585,4.018-1.334.03-2.675-.039-4.005-.006-.067,1.659.087,3.345.005,5.006s.086,3.341,0,5l-5.006-.006c-.032,1.663.042,3.34.006,5.006-1.664.057-3.345-.054-5.006-.005-.031,1.33.033,2.671.006,4.005-.066,3.294-.153,6.713,0,10,.077,1.661-.066,3.346-.006,5.006l5.006-.006c.07,1.327-.069,2.673,0,4,.086,1.66-.073,3.347-.005,5.006,4.657-.008,9.348-.005,14.005-.006h5c.006,1.667-.008,3.333,0,5s-.005,3.333,0,5h5c0,1.333-.007,2.667,0,4,.009,1.666-.006,3.333,0,5h4c.146,3.309-.03,6.684,0,10,.015,1.666-.016,3.334,0,5h5c.071,1.325-.028,2.671,0,4-1.657-.086-3.338.041-5,0-.024-1.332.013-2.667,0-4-1.333,0-2.667,0-4,0-.061-3.324.019-6.675,0-10-.01-1.666.006-3.333,0-5h-5c-.01-1.666.007-3.333,0-5-.005-1.333.004-2.667,0-4h-5l.006-5.006c-1.659-.061-3.345.085-5.006.006-2.978-.141-6.015.04-9,0-1.666-.023-3.335.033-5,0-.087-1.66.073-3.347.006-5.006-1.658-.067-3.346.093-5.006.006-.082-1.661.071-3.347.005-5.006-1.329-.033-2.671.036-4.005.006-.03-1.334.039-2.675.006-4.005-1.663-.033-3.34.038-5.006.005-.065-3.323.02-6.676,0-10l5.006.006c.061-1.659-.085-3.345-.006-5.006.141-2.971,0-6.02,0-9,1.334-.032,2.675.041,4.005.006.067-1.659-.088-3.345-.005-5.006s-.026-3.339,0-5c.021-1.333-.012-2.667,0-4,.043-4.988-.028-10.011,0-15h5c.088,1.66-.073,3.347-.006,5.006,1.663.008,3.339-.006,5.006-.006s3.343.014,5.006.006c.068-1.658-.095-3.346-.006-5.006,1.334-.032,2.675.043,4.005.005.074-1.325-.092-2.679-.005-4.005.108-1.648-.025-3.343,0-5s.082-3.352,0-5c-.082-1.661.072-3.347.005-5.006-1.329-.034-2.671.038-4.005.006-9.235-.222-3.194,3.181-4.995,5.006h-5.011c.004-3.326.006-6.68.005-10.006,1.658,0,3.347.082,5,0s3.347.072,5.006.005c.033-1.33-.036-2.671-.006-4.005,1.333-.011,2.667.007,4,0,.02.922-.158,3.861-.006,4.005.208.198,3.9-.059,5.006-.005,1.632.08,3.368.08,5,0,1.661-.082,3.347.071,5.006.005.033-1.33-.036-2.671-.006-4.005,1.333-.005,2.667,0,4,0-.062-3.324.046-6.682.005-10.006-1.329-.034-2.671.036-4.005.006.017-1.666-.01-3.334,0-5,1.333.001,2.667-.002,4,0,1.667.002,3.343.012,5.006.005l.012-8.428c-.166-1.059-3.786-.579-5.018-.578v-5c0-2.994-.017-6.006,0-9,.01-1.666-.016-3.334,0-5s-.035-3.335,0-5c1.667.002,3.343.012,5.006.006l-.006-5.006c3.326-.037,6.681.029,10.006.005.034-1.329-.036-2.671-.006-4.005,1.333,0,2.667,0,4,0ZM48.032,124.103c.06,1.139-.525,3.844.582,4.019l13.424-.014c.034-1.329-.036-2.671-.006-4.005.038-1.665-.012-3.344.006-5.006-1.659-.06-3.344.083-5.006.006-2.981-.138-6.021.096-9.005-.006.051,1.657-.081,3.348.005,5.006Z"/>
      <path class="d" d="M86.032,52.103h5c.366,7.956-.272,16.04.006,24.005-1.658.067-3.346-.091-5.006-.005s-3.341-.086-5,0v5h-5c.002,1.333-.001,2.667,0,4-1.666.029-3.334-.014-5,0,0,1.658.083,3.347,0,5h-4c-.03,1.661.087,3.344,0,5-1.648.037-3.357.086-5,0,.03-1.665,0-3.335,0-5h5c.03-1.665-.014-3.334,0-5,1.333,0,2.667.011,4,0v-4h5c-.002-1.667-.012-3.343-.006-5.006,1.658-.067,3.346.092,5.006.006v-10l5.006.005c.034-1.33-.038-2.671-.006-4.005.04-1.665-.014-3.344.006-5.006l-5.006.006v-5c1.652.086,3.343,0,5,0Z"/>
      <path class="d" d="M205.032,128.103v15h-5c0-4.988.046-10.012,0-15,1.653.082,3.342,0,5,0Z"/>
      <path class="d" d="M100.032,181.103c-.027,1.334.037,2.675.006,4.005-1.659.068-3.346-.089-5.006-.005-.083,1.661.072,3.347.005,5.006-1.329.033-2.671-.036-4.005-.006-1.665.037-3.335-.033-5,0v-5c1.657-.088,3.338.042,5,0,1.33-.034,2.673.067,4,0,.067-1.326-.025-2.67,0-4,1.665-.04,3.335.028,5,0Z"/>
      <path class="d" d="M81.032,190.103c1.666-.023,3.335.033,5,0v5c-4.679.215-10.349.281-15,0v-5c3.324-.064,6.675.045,10,0Z"/>
      <path class="e" d="M95.032,128.103c.007,1.666.009,3.334,0,5-4.611-.211-9.377-.044-14,0v-5c4.638-.212,9.356.151,14,0Z"/>
      <path class="d" d="M133.032,57.103c0,1.665.034,3.336,0,5-.034,1.673.318,8.682.005,9.006-.148.153-3.083-.024-4.005-.006-.076,1.662.066,3.346.006,5.006-1.661.046-3.342-.061-5.006-.006.036-1.085-.183-4.829-.006-5.006s3.929.028,5.006.006c.212-4.621,0-9.367,0-14,1.333-.001,2.667.002,4,0Z"/>
      <path class="d" d="M100.032,171.103c.153,3.287.066,6.706,0,10-1.665.028-3.335-.04-5,0,.061-3.322,0-6.676,0-10,1.645.141,3.347-.097,5,0Z"/>
      <path class="d" d="M167.032,147.103c.066,3.294.153,6.713,0,10h-5c-.035,1.665.037,3.335,0,5-1.659.086-3.341-.082-5,0-.001-1.667.002-3.333,0-5h5c.035-1.664,0-3.335,0-5v-5c1.667-.002,3.333.001,5,0Z"/>
      <path class="d" d="M110.032,90.103c.149,3.2.149,6.8,0,10h-5c.066-3.318.034-6.68,0-10h5Z"/>
      <path class="e" d="M110.032,205.103v4c0,1.657.087,3.349,0,5-1.665.035-3.335-.034-5,0,0-1.665-.037-3.336,0-5,.03-1.334-.039-2.675-.006-4.005,1.662.017,3.341-.035,5.006.005Z"/>
      <path class="g" d="M100.032,76.103c1.667,0,3.343-.013,5.006-.005.042,2.991-.07,6.014-.006,9.005-1.664-.057-3.345.054-5.006.005-.034-1.329.038-2.671.006-4.005-.04-1.665.028-3.335,0-5Z"/>
      <path class="d" d="M181.032,100.103c.009,1.666-.017,3.334,0,5,.013,1.333-.024,2.668,0,4-1.66-.086-3.347.072-5.006.005-.046-2.991.075-6.014.006-9.005h5Z"/>
      <path class="d" d="M152.032,114.103c1.651.027,3.354.087,5,0-.086,1.66.073,3.347.005,5.006l-8.428.012c-1.086-.17-.541-3.762-.578-5.018,1.324.072,2.671-.022,4,0Z"/>
      <path class="d" d="M200.032,119.103c.088,1.656-.028,3.339,0,5-1.666-.028-3.335.035-5,0-1.329-.028-2.675.071-4,0v-5c2.986.05,6.022-.141,9,0Z"/>
      <path class="e" d="M195.032,157.103c1.664-.037,3.335,0,5,0,0,1.665.037,3.336,0,5-1.651.087-3.343,0-5,0h-4c.084-1.661-.073-3.347-.005-5.006,1.33-.033,2.671.036,4.005.006Z"/>
      <path class="d" d="M91.032,147.103h4c-.088,1.66.074,3.348.005,5.006-2.991.045-6.014-.074-9.005-.006v-5h5Z"/>
      <path class="g" d="M76.032,147.103v5c-1.65-.036-8.863.498-9.017-.578l.012-4.427c2.991-.046,6.014.074,9.005.005Z"/>
      <path class="h" d="M48.032,147.103c1.333,0,2.668.023,4,0-.036,1.666.04,3.344.005,5.006-1.329.034-2.671-.038-4.005-.006-1.665.04-3.335-.028-5,0-.006-1.667.01-3.334,0-5,1.667,0,3.333,0,5,0Z"/>
      <path class="d" d="M157.032,162.103c1.659-.082,3.341.086,5,0-.03,1.334.039,2.675.006,4.005-1.659.067-3.345-.087-5.006-.005s-3.338-.037-5,0c.03-1.334-.039-2.675-.006-4.005,1.659-.067,3.345.087,5.006.005Z"/>
      <path class="e" d="M81.032,81.103h5c-.032,1.334.041,2.675.006,4.005-1.659.067-3.345-.087-5.006-.005s-3.338-.029-5,0c-.001-1.333.002-2.667,0-4h5Z"/>
      <path class="d" d="M133.032,47.103c.191,3.288,0,6.699,0,10-1.333.002-2.667-.001-4,0,0-1.667,0-3.333,0-5v-5h4Z"/>
      <path class="g" d="M119.032,5.103v4h-9v-4c2.994.009,6.006-.027,9,0Z"/>
      <path class="e" d="M171.032,62.103c1.658,0,3.347-.083,5,0,.024,1.332-.013,2.667,0,4-1.652,0-3.357.108-5,0-1.326-.087-2.68.079-4.005.005-.074-1.325.092-2.679.005-4.005h4Z"/>
      <path class="h" d="M167.032,52.103c.034,1.665-.033,3.335,0,5-1.66-.089-3.348.074-5.006.006-.068-1.658.094-3.346.006-5.006h5Z"/>
      <path class="e" d="M81.032,219.103c1.66.087,3.347-.073,5.006-.006-.02,1.662.034,3.341-.006,5.006h-5v-5Z"/>
      <rect class="h" x="100.027" y="19.098" width="5.01" height="5.01"/>
      <path class="e" d="M133.032,57.103c1.667-.002,3.343-.012,5.006-.005l.012,4.425-5.018.58c.034-1.664,0-3.335,0-5Z"/>
      <path class="e" d="M100.032,214.103c-.086,1.659.086,3.341,0,5-1.666-.028-3.335.036-5,0v-5c1.648-.113,3.343.034,5,0Z"/>
      <path class="d" d="M157.032,66.103c.038,1.665-.013,3.344.006,5.006-1.663.031-3.34-.04-5.006-.006.023-1.655-.113-3.354,0-5h5Z"/>
      <path class="d" d="M176.032,66.103c.017,1.665.017,3.335,0,5h-5v-5c1.643.108,3.348,0,5,0Z"/>
      <path class="g" d="M167.032,47.103c.035,1.665-.034,3.335,0,5h-5c-.088-1.656.03-3.339,0-5,1.658.082,3.338-.037,5,0Z"/>
      <path class="d" d="M176.032,71.103c-.017,1.666.036,3.335,0,5h-5c-.038-1.664,0-3.335,0-5h5Z"/>
      <path class="d" d="M105.032,209.103c-.037,1.664,0,3.335,0,5-1.665.034-3.335-.034-5,0,.086-1.66-.073-3.347-.006-5.006l5.006.006Z"/>
      <path class="g" d="M86.032,76.103c-.028,1.665.04,3.335,0,5h-5v-5c1.659-.086,3.341.085,5,0Z"/>
      <path class="h" d="M100.032,76.103c.028,1.665-.04,3.335,0,5l-5.018-.58.012-4.425c1.663-.008,3.339.006,5.006.005Z"/>
      <rect class="g" x="124.029" y="47.103" width="5.003" height="5.003"/>
      <path class="e" d="M124.032,76.103c-.056,1.664.052,3.345.005,5.006-1.106-.179-4.735.275-5.01,0s.178-3.905,0-5.01c1.661-.046,3.341.061,5.006.005Z"/>
      <path class="h" d="M176.032,76.103c-.036,1.665.036,3.335,0,5h-5c-.113-1.649.038-3.343,0-5h5Z"/>
      <path class="h" d="M129.032,200.103v5c-1.667.001-3.333-.002-5,0v-5c1.643-.087,3.352-.037,5,0Z"/>
      <path class="e" d="M124.032,200.103v5c-5.255.006-5.44,1.218-5.006-5.005,1.658-.068,3.346.093,5.006.005Z"/>
      <path class="d" d="M52.032,200.103l5.006-.006c.068,1.658-.095,3.346-.006,5.006h-5c-.016-1.666.015-3.334,0-5Z"/>
      <path class="h" d="M148.032,195.103c-.082,1.659.086,3.341,0,5-1.651.027-3.355.088-5,0v-5c1.656-.086,3.339.029,5,0Z"/>
      <path class="d" d="M143.032,195.103v5c-1.659-.089-3.347.074-5.006.005-.475-6.589-.088-4.741,5.006-5.005Z"/>
      <path class="g" d="M157.032,190.103c-.086,1.659.086,3.341,0,5-1.666.03-3.334-.021-5,0v-5c1.664-.037,3.335,0,5,0Z"/>
      <path class="e" d="M105.032,85.103c1.664.057,3.345-.052,5.006-.006.06,1.659-.083,3.344-.006,5.006h-5c-.017-1.666.036-3.335,0-5Z"/>
      <path class="e" d="M91.032,190.103l.006,5.006c-1.659.06-3.344-.082-5.006-.006v-5c1.665-.033,3.335.037,5,0Z"/>
      <path class="e" d="M86.032,185.103v5c-1.665.033-3.334-.023-5,0l-.006-5.006c1.658-.068,3.346.094,5.006.006Z"/>
      <path class="h" d="M138.032,14.103c.086,1.659-.086,3.341,0,5-1.665-.035-3.335.037-5,0v-5h5Z"/>
      <path class="e" d="M181.032,90.103c.005,1.667-.006,3.333,0,5h-5c.087-1.66-.073-3.347-.006-5.006,1.663-.008,3.339.006,5.006.006Z"/>
      <path class="e" d="M86.032,95.103c1.664.055,3.345-.051,5.006-.006.067,1.659-.092,3.346-.006,5.006l-5.006.006.006-5.006Z"/>
      <path class="g" d="M181.032,95.103c.006,1.667-.009,3.334,0,5h-5c-.038-1.648-.086-3.357,0-5h5Z"/>
      <path class="d" d="M162.032,185.103v5h-5c.086-1.66-.073-3.347-.006-5.006,1.658-.068,3.346.094,5.006.006Z"/>
      <path class="h" d="M110.032,100.103c-.077,1.661.066,3.346.006,5.006-1.661.043-3.341-.058-5.006-.006-.029,1.334.038,2.675.006,4.005l-5.01-.01v-3.99c1.66-.061,3.34.048,5.004-.005.036-1.665-.033-3.335,0-5h5Z"/>
      <path class="h" d="M157.032,105.103c.09-1.659-.075-3.348-.005-5.006,6.588-.475,4.741-.088,5.005,5.006h-5Z"/>
      <path class="g" d="M110.032,47.103v5c-1.665.04-3.344-.014-5.006.005-.476-6.593-.085-4.737,5.006-5.005Z"/>
      <rect class="e" x="119.027" y="185.098" width="5.01" height="5.01"/>
      <path class="h" d="M181.032,176.103c-.086,1.657.037,3.338,0,5-1.666.03-3.335-.033-5,0v-5c1.656-.087,3.339.03,5,0Z"/>
      <path class="d" d="M81.032,14.103c5.097.26,5.48-1.577,5.006,5.005-1.658.068-3.346-.093-5.006-.005v-5Z"/>
      <path class="g" d="M148.032,114.103c-1.659-.09-3.348.075-5.006.005.179-1.106-.275-4.735,0-5.01s3.905.178,5.01,0c.041,1.662-.053,3.341-.005,5.006Z"/>
      <path class="h" d="M157.032,109.103c-.044,1.662.086,3.342,0,5-1.646.087-3.349.027-5,0l-.006-5.006c1.663-.03,3.34.039,5.006.006Z"/>
      <path class="d" d="M162.032,109.103c-.088,1.66.073,3.348.006,5.006-1.658.068-3.346-.094-5.006-.006.086-1.658-.044-3.338,0-5,1.665-.033,3.334.023,5,0Z"/>
      <path class="e" d="M176.032,176.103v5c-1.658.033-3.35-.108-5,0,.089-1.66-.074-3.348-.006-5.006,1.659-.067,3.346.093,5.006.006Z"/>
      <path class="e" d="M86.032,47.103c1.664.057,3.345-.052,5.006-.006.06,1.659-.082,3.344-.006,5.006h-5v-5Z"/>
      <path class="g" d="M186.032,114.103c-.001,1.667.002,3.333,0,5-1.66-.087-3.348.073-5.006.006-.068-1.658.094-3.346.006-5.006h5Z"/>
      <path class="d" d="M48.032,176.103c0,1.667,0,3.333,0,5h-5c-.005-1.667.008-3.333,0-5h5Z"/>
      <path class="e" d="M191.032,119.103v5c-1.659-.089-3.348.074-5.006.006l.006-5.006c1.656.087,3.339-.028,5,0Z"/>
      <path class="d" d="M148.032,171.103c.002,1.667-.001,3.333,0,5-1.665.037-3.335-.035-5,0v-5c1.665-.034,3.335.035,5,0Z"/>
      <path class="h" d="M143.032,171.103v5c-1.66.035-3.34.035-5,0v-5c1.665-.034,3.335.034,5,0Z"/>
      <path class="g" d="M138.032,171.103v5c-1.665-.035-3.335.036-5,0v-5c1.648-.113,3.343.034,5,0Z"/>
      <path class="d" d="M81.032,128.103v5c-1.666.016-3.335-.035-5,0l-.006-5.006c1.659-.06,3.344.082,5.006.006Z"/>
      <path class="h" d="M129.032,9.103c0,1.658-.083,3.347,0,5l-5.006.006c-.067-1.658.093-3.346.006-5.006h5Z"/>
      <path class="e" d="M176.032,133.103c.01-1.667-.021-3.343-.005-5.006,6.187-.432,5.038-.26,5.005,5.006h-5Z"/>
      <path class="e" d="M105.032,9.103c-.088,1.66.073,3.347.006,5.006-1.659.067-3.346-.093-5.006-.006v-5c1.666-.006,3.333,0,5,0Z"/>
      <path class="e" d="M110.032,5.103v4h-5c.07-1.327-.07-2.673,0-4,1.666-.009,3.334-.005,5,0Z"/>
      <path class="g" d="M100.032,9.103v5c-1.643.086-3.352.037-5,0v-5c1.666-.01,3.333.006,5,0Z"/>
      <path class="h" d="M48.032,171.103v5h-5c-.008-1.667.006-3.333,0-5,1.667,0,3.333,0,5,0Z"/>
      <path class="d" d="M95.032,133.103c1.662.076,3.346-.066,5.006-.006.008,1.663-.006,3.339-.006,5.006h-5c.016-1.666-.009-3.334,0-5Z"/>
      <path class="d" d="M181.032,133.103c-.01,1.667.021,3.343.005,5.006-6.187.432-5.038.26-5.005-5.006h5Z"/>
      <path class="d" d="M100.032,138.103c0,.994.183,4.829.006,5.006-.219.219-3.873-.105-5.006-.006.035-1.665-.016-3.334,0-5h5Z"/>
      <path class="e" d="M148.032,138.103v5c-1.659-.09-3.348.075-5.006.005-.475-6.588-.088-4.741,5.006-5.005Z"/>
      <path class="e" d="M152.032,138.103c1.104.058,4.814-.198,5.006-.006.177.177-.029,3.928-.006,5.006-1.666-.028-3.335.035-5,0v-5Z"/>
      <path class="d" d="M157.032,166.103l.006,5.006c-1.658.068-3.346-.095-5.006-.006.082-1.658-.037-3.338,0-5,1.662-.037,3.342.082,5,0Z"/>
      <path class="e" d="M95.032,166.103c1.665-.038,3.344.013,5.006-.006.06,1.66-.083,3.344-.006,5.006-1.653-.097-3.355.141-5,0v-5Z"/>
      <path class="g" d="M48.032,166.103v5c-1.667,0-3.333,0-5,0-.006-1.667.006-3.333,0-5h5Z"/>
      <path class="h" d="M81.032,38.103l5.006-.006c.068,1.658-.095,3.346-.006,5.006h-5c-.038-1.665.033-3.335,0-5Z"/>
      <path class="g" d="M157.032,38.103c.035,1.665-.037,3.335,0,5-1.66-.087-3.347.073-5.006.006-.067-1.659.092-3.346.006-5.006h5Z"/>
      <path class="e" d="M167.032,157.103c-.077,1.662.066,3.346.006,5.006-1.659.067-3.346-.092-5.006-.006.037-1.665-.035-3.335,0-5h5Z"/>
      <path class="d" d="M43.032,147.103c.01,1.666-.006,3.333,0,5s-.01,3.334,0,5h5v5h-5c-.007-1.666.01-3.334,0-5h-5c0-3.326.004-6.674,0-10h5Z"/>
      <path class="h" d="M81.032,147.103v5c-1.665.001-3.336.037-5,0v-5c1.664-.038,3.335.005,5,0Z"/>
      <path class="d" d="M86.032,147.103v5c-1.664.038-3.335-.001-5,0v-5c1.667-.005,3.333,0,5,0Z"/>
      <path class="d" d="M48.032,152.103v5h-5c-.01-1.666.006-3.333,0-5,1.665-.028,3.335.04,5,0Z"/>
      <path class="d" d="M162.032,152.103c0,1.665.035,3.336,0,5h-5l-.006-5.006,5.006.006Z"/>
      <path class="d" d="M200.032,152.103v5c-1.665,0-3.336-.037-5,0-.001-1.667.002-3.333,0-5h5Z"/>
      <path class="e" d="M124.032,5.103c.07,1.327-.07,2.673,0,4h-5v-4c1.666.015,3.335-.031,5,0Z"/>
      <path class="h" d="M95.032,9.103v5c-1.334-.03-2.675.039-4.005.006-.009-1.663.003-3.339.005-5.006,1.333-.012,2.667.008,4,0Z"/>
      <path class="h" d="M205.032,143.103c0,1.333.011,2.667,0,4-1.657,0-3.348-.086-5,0v-4h5Z"/>
      <path class="g" d="M162.032,143.103c1.661.082,3.347-.072,5.006-.005.031,1.33-.033,2.671-.006,4.005-1.667.001-3.333-.002-5,0v-4Z"/>
      <path class="d" d="M162.032,143.103v4c-1.056.001-4.825.177-5.006.005-.152-.144.026-3.083.006-4.005,1.662.028,3.343-.082,5,0Z"/>
      <path class="h" d="M48.032,162.103v4h-5c-.005-1.333.006-2.667,0-4h5Z"/>
      <path class="e" d="M62.032,143.103l.006,4.005c-1.659.067-3.345-.088-5.006-.005v-4c1.659-.082,3.341.085,5,0Z"/>
      <path class="d" d="M57.032,143.103v4c-1.657.083-3.338-.029-5,0,.02-.922-.158-3.861-.006-4.005.208-.198,3.9.059,5.006.005Z"/>
      <path class="d" d="M95.032,166.103v5c-1.15-.098-3.845.554-4.018-.585-.204-1.342.147-3.001.014-4.421,1.329-.034,2.671.036,4.005.006Z"/>
      <path class="g" d="M152.032,166.103c-.037,1.662.082,3.342,0,5-1.325.071-2.671-.028-4,0l-.005-5.006c1.33-.033,2.671.036,4.005.006Z"/>
      <path class="g" d="M152.032,138.103v5c-1.329-.028-2.675.072-4,0v-5c1.304-.068,2.697-.069,4,0Z"/>
      <path class="h" d="M119.032,43.103v4c-1.665.003-3.335-.034-5,0-.036,1.666.04,3.344.005,5.006-1.329.034-2.671-.038-4.005-.006v-5c1.325-.07,2.671.027,4,0,.02-.922-.158-3.861-.006-4.005.208-.198,3.9.06,5.006.005Z"/>
      <path class="e" d="M133.032,171.103v5c-1.334-.029-2.675.038-4.005.006.133-1.42-.218-3.079-.014-4.421.171-1.125,2.874-.506,4.018-.585Z"/>
      <path class="d" d="M124.032,43.103c-.001,1.333.002,2.667,0,4-1.667,0-3.333-.003-5,0v-4c1.648-.082,3.347-.025,5,0Z"/>
      <path class="h" d="M129.032,43.103v4h-5c.002-1.333-.001-2.667,0-4,1.657.025,3.352-.108,5,0Z"/>
      <path class="d" d="M152.032,171.103c-.082,1.661.071,3.347.005,5.006-1.33.033-2.671-.036-4.005-.006-.001-1.667.002-3.333,0-5,1.329-.028,2.675.071,4,0Z"/>
      <path class="e" d="M200.032,124.103c.022,1.333-.012,2.667,0,4-1.661-.082-3.347.072-5.006.005l.006-4.005c1.665.035,3.334-.028,5,0Z"/>
      <path class="d" d="M171.032,57.103v5h-4c-.108-1.65.033-3.342,0-5,1.321.071,2.674,0,4,0Z"/>
      <path class="d" d="M162.032,105.103c.068,1.304.069,2.697,0,4-1.666.023-3.335-.033-5,0,.036-1.329-.072-2.674,0-4h5Z"/>
      <rect class="h" x="124.028" y="105.108" width="5.009" height="3.99"/>
      <path class="d" d="M76.032,19.103c.027,1.666-.037,3.335,0,5h-5c-.001-1.667.002-3.333,0-5,1.665-.035,3.334.03,5,0Z"/>
      <path class="d" d="M81.032,24.103c0,1.333-.009,2.667,0,4l-5.006.005c-.033-1.33.036-2.671.006-4.005h5Z"/>
      <path class="g" d="M152.032,66.103c.078-1.144-.54-3.847.585-4.018,1.342-.204,3.001.147,4.421.014.034,1.329-.036,2.671-.006,4.005h-5Z"/>
      <path class="g" d="M48.032,185.103l4.005-.006c.061,1.66-.078,3.344-.005,5.006h-4c-.006-1.667.009-3.334,0-5Z"/>
      <path class="e" d="M71.032,190.103v5c-1.142-.069-3.848.534-4.018-.585-.204-1.342.147-3.001.014-4.421,1.329-.03,2.67.031,4.005.006Z"/>
      <path class="d" d="M152.032,190.103v5c-1.333.016-2.667-.024-4,0,.082-1.661-.071-3.347-.005-5.006,1.33-.033,2.671.036,4.005.006Z"/>
      <path class="e" d="M176.032,81.103c-.029,1.334.038,2.675.006,4.005-1.42-.133-3.079.218-4.421.014-1.125-.171-.506-2.874-.585-4.018h5Z"/>
      <path class="e" d="M152.032,71.103c-.023,1.667.036,3.343-.005,5.005h-3.99s-.01-5.011-.01-5.011c1.33-.032,2.67.033,4.005.006Z"/>
      <path class="e" d="M91.032,105.103l4.005-.005c.067,1.326-.082,2.677-.005,4.005l-4.005.005c-.074-1.325.092-2.679.005-4.005Z"/>
      <path class="d" d="M171.032,181.103c-.071,1.321,0,2.674,0,4-1.333.023-2.667-.024-4,0,.087-1.326-.079-2.68-.005-4.005,1.325-.074,2.679.092,4.005.005Z"/>
      <path class="g" d="M95.032,181.103c-.025,1.33.067,2.674,0,4-1.327.067-2.67-.034-4,0l-.005-4.005c1.33-.038,2.671.037,4.005.005Z"/>
      <path class="e" d="M129.032,43.103c1.326.087,2.68-.079,4.005-.005.067,1.326-.082,2.677-.005,4.005h-4v-4Z"/>
      <path class="h" d="M195.032,162.103v4c-1.327.066-2.673-.07-4,0,.026-1.33-.067-2.674,0-4h4Z"/>
      <path class="h" d="M95.032,143.103c-.028,1.329.07,2.675,0,4h-4l-.005-4.005c1.32-.093,2.687.12,4.005.005Z"/>
      <path class="g" d="M48.032,71.103c-.017,1.666.035,3.335,0,5-1.667-.001-3.333.002-5,0-.087,1.651,0,3.343,0,5-1.666.009-3.333-.006-5,0,.002,1.333-.001,2.667,0,4-1.106-.055-4.798.202-5.006.005-.152-.144.026-3.083.006-4.005,1.666-.009,3.333.006,5,0l-.006-5.006,5.006.006c.088-1.66-.074-3.348-.006-5.006,1.662.018,3.341-.032,5.006.006Z"/>
      <path class="g" d="M52.032,57.103v5h-4c.007-1.667-.009-3.334,0-5,1.333-.001,2.667.002,4,0Z"/>
      <path class="e" d="M29.032,76.103c1.334.032,2.675-.04,4.005-.006.035,1.663-.041,3.34-.005,5.006-1.333.007-2.667-.011-4,0,.037-1.665-.032-3.335,0-5Z"/>
      <path class="h" d="M52.032,62.103v4c-1.333-.002-2.667.001-4,0,.008-1.333-.005-2.667,0-4h4Z"/>
      <path class="d" d="M33.032,105.103c-.087,1.326.079,2.68.005,4.005-1.33.038-2.671-.037-4.005-.005-.089,1.66.074,3.348.006,5.006-1.663.008-3.339-.006-5.006-.006.028-1.665-.04-3.335,0-5,1.665-.028,3.335.04,5,0,.071-1.325-.028-2.671,0-4,1.333.002,2.667-.001,4,0Z"/>
      <path class="e" d="M29.032,105.103c-.028,1.329.071,2.675,0,4-1.665.04-3.335-.028-5,0,.032-1.334-.041-2.675-.006-4.005,1.663-.009,3.339.002,5.006.005Z"/>
      <path class="d" d="M19.032,105.103c.07,1.327-.07,2.673,0,4h-5c.007-1.333-.005-2.667,0-4h5Z"/>
      <path class="h" d="M33.032,100.103c-.025,1.657.108,3.352,0,5-1.333-.001-2.667.002-4,0,.035-1.664,0-3.335,0-5h4Z"/>
      <path class="g" d="M33.032,95.103c.082,1.648.025,3.347,0,5h-4c0-1.667,0-3.333,0-5h4Z"/>
      <path class="d" d="M29.032,90.103c1.334.032,2.675-.04,4.005-.006.067,1.659-.087,3.345-.005,5.006h-4v-5Z"/>
      <path class="h" d="M10.032,147.103c-.079,1.661.067,3.347.006,5.006l-5.006-.006c-.01-1.666.006-3.333,0-5,1.665-.032,3.334.022,5,0Z"/>
      <path class="e" d="M14.032,124.103c-.012,1.333.021,2.667,0,4h-4v-4h4Z"/>
      <path class="h" d="M191.032,114.103v5c-1.661-.028-3.344.087-5,0,.002-1.667-.001-3.333,0-5,1.666,0,3.334-.01,5,0Z"/>
      <path class="g" d="M52.032,43.103c-.017,2.994,0,6.006,0,9h-4c.011-2.994-.025-6.006,0-9h4Z"/>
      <path class="h" d="M14.032,133.103c-.083,1.661.072,3.347.005,5.006-1.329.034-2.671-.038-4.005-.006v-5h4Z"/>
      <path class="d" d="M29.032,81.103c-.03,1.334.039,2.675.006,4.005-1.659.067-3.345-.087-5.006-.005-.001-1.333.002-2.667,0-4,1.666-.029,3.334.014,5,0Z"/>
      <path class="g" d="M43.032,190.103c.01,1.666-.017,3.334,0,5h5c.019,3.325-.061,6.676,0,10-1.657,0-3.349.087-5,0-.037-1.665.035-3.335,0-5s.017-3.334,0-5c-1.666,0-3.334.01-5,0-.009-1.666,0-3.334,0-5h5Z"/>
      <path class="e" d="M52.032,38.103c-.016,1.666.01,3.334,0,5h-4c.014-1.666-.027-3.334,0-5,1.333.002,2.667-.001,4,0Z"/>
      <path class="e" d="M81.032,14.103v5c-1.656.087-3.339-.03-5,0-.027-1.651-.086-3.354,0-5,1.628-.085,3.372-.083,5,0Z"/>
      <path class="f" d="M43.032,162.103c.006,1.333-.005,2.667,0,4h-5v-4c1.665-.032,3.335,0,5,0Z"/>
      <path class="f" d="M38.032,128.103c.036,1.665-.036,3.335,0,5s-.016,3.334,0,5-.01,3.334,0,5c.008,1.333-.001,2.667,0,4,.004,3.326,0,6.674,0,10v5c-1.081.021-4.833-.189-5.007-.009-.344.357.357,3.654.013,4.018-.324.342-7.416-.255-9.006-.009-.069-1.327.07-2.673,0-4-.088-1.66.073-3.348.006-5.006l-5.006.006c-.153-3.287-.066-6.706,0-10l5.006.005c.032-1.33-.035-2.671-.006-4.005,1.664-.057,3.345.052,5.006.006.067-1.659-.092-3.346-.006-5.006s-.082-3.341,0-5l4.005.006c.113-1.649-.155-3.362-.005-5.006,1.648-.037,3.357-.086,5,0Z"/>
      <path class="g" d="M38.032,162.103v9c-4.657,0-9.349-.002-14.005.006-.067-1.658.092-3.346.005-5.006,1.59-.246,8.682.351,9.006.009.345-.364-.356-3.661-.013-4.018.174-.18,3.925.029,5.007.009Z"/>
      <path class="g" d="M43.032,157.103c.01,1.666-.007,3.334,0,5-1.665,0-3.335-.032-5,0v-5h5Z"/>
      <path class="e" d="M57.032,90.103c.088,1.66-.074,3.347-.006,5.006,1.659.067,3.346-.093,5.006-.006-.03,1.661.087,3.344,0,5-1.628.085-3.372.083-5,0-1.66-.085-3.347.072-5.006.005-.042-3.324.071-6.682.006-10.005h5Z"/>
      <path class="d" d="M57.032,124.103h5c-.03,1.334.039,2.675.006,4.005l-13.424.014c-1.107-.175-.522-2.88-.582-4.019h9Z"/>
      <path class="f" d="M57.032,119.103v5h-9c-.087-1.658.046-3.349-.005-5.006,2.984.102,6.024-.132,9.005.006Z"/>
      <path class="h" d="M38.032,181.103h5c.004,1.333-.005,2.667,0,4-1.666-.023-3.335.033-5,0s-3.343.038-5.006.005c-.034-1.33.038-2.671.006-4.005,1.667,0,3.333,0,5,0Z"/>
      <path class="d" d="M48.032,71.103c1.334.03,2.675-.039,4.005-.006.042,3.324-.066,6.681-.005,10.006-1.333,0-2.667-.005-4,0,.037-1.665-.035-3.335,0-5s-.017-3.334,0-5Z"/>
      <path class="d" d="M48.032,81.103c-.03,1.334.039,2.675.006,4.005-1.659.066-3.345-.087-5.006-.005v-4c1.666-.009,3.333.007,5,0Z"/>
      <path class="g" d="M57.032,85.103c0,1.657-.087,3.349,0,5h-5c-.033-1.665.02-3.334,0-5h5Z"/>
      <path class="g" d="M67.032,95.103c-.087,1.66.073,3.347.006,5.006-1.658.067-3.346-.092-5.006-.006.087-1.656-.03-3.339,0-5,1.643.086,3.352.037,5,0Z"/>
      <path class="h" d="M62.032,100.103c-.088,1.66.073,3.347.005,5.006l-4.425.012-.58-5.018c1.628.083,3.372.085,5,0Z"/>
      <path class="g" d="M33.032,176.103c1.661.079,3.347-.067,5.006-.006l-.006,5.006c-1.667,0-3.333,0-5,0-.04-1.665.028-3.335,0-5Z"/>
      <path class="g" d="M57.032,119.103c1.662.077,3.347-.066,5.006-.006-.018,1.662.032,3.341-.006,5.006h-5v-5Z"/>
      <path class="d" d="M33.032,128.103c.105-1.151-.559-3.845.585-4.018,1.342-.204,3.001.147,4.421.014.032,1.329-.034,2.671-.006,4.005,1.66.087,3.347-.073,5.006-.006.067,1.658-.093,3.346-.006,5.006l5.006-.006c.068,1.659-.094,3.346-.006,5.006h-5c-.03-1.661.087-3.344,0-5-1.667.002-3.333-.001-5,0-.036-1.665.036-3.335,0-5-1.643-.086-3.352-.037-5,0-.15,1.644.118,3.357.005,5.006l-4.005-.006c.082-1.661-.071-3.347-.005-5.006,1.33-.033,2.671.036,4.005.006Z"/>
      <path class="e" d="M29.032,138.103c-.086,1.66.073,3.347.006,5.006-1.661.046-3.342-.063-5.006-.006.036-1.666-.038-3.343-.006-5.006l5.006.006Z"/>
      <path class="g" d="M43.032,133.103c.087,1.656-.03,3.339,0,5h5c.087,1.651,0,3.343,0,5h-5c-.015-1.666.03-3.335,0-5h-5c-.016-1.666.036-3.335,0-5,1.667-.001,3.333.002,5,0Z"/>
      <path class="g" d="M43.032,143.103c.012,1.333-.008,2.667,0,4h-5c-.001-1.333.008-2.667,0-4h5Z"/>
      <path class="d" d="M43.032,166.103c.006,1.667-.006,3.333,0,5h-5v-5h5Z"/>
      <path class="g" d="M19.032,157.103l5.006-.006c.067,1.658-.093,3.346-.006,5.006l-5.006.006c-.06-1.659.083-3.344.006-5.006Z"/>
      <path class="e" d="M48.032,143.103v4c-1.667,0-3.333,0-5,0-.008-1.333.012-2.667,0-4h5Z"/>
      <path class="e" d="M43.032,138.103c.03,1.665-.015,3.334,0,5h-5c-.01-1.666.016-3.334,0-5h5Z"/>
      <path class="h" d="M24.032,143.103c-.029,1.334.038,2.675.006,4.005l-5.006-.005c.027-1.334-.037-2.675-.006-4.005,1.661-.049,3.342.061,5.006.005Z"/>
      <path class="h" d="M71.032,90.103c-.083,1.661.072,3.347.005,5.006-1.33.033-2.671-.036-4.005-.006.087-1.656-.03-3.339,0-5h4Z"/>
      <path class="h" d="M57.032,81.103v4h-5c-.016-1.333.025-2.667,0-4,1.667,0,3.333,0,5,0Z"/>
      <path class="e" d="M43.032,81.103v4c-1.632.08-3.368.08-5,0-.001-1.333.002-2.667,0-4,1.667-.006,3.334.009,5,0Z"/>
      <path class="f" d="M67.032,38.103c.013,1.667-.024,3.343-.005,5.006,1.33.033,2.671-.036,4.005-.006.03,1.334-.039,2.675-.006,4.005l5.006-.005c.088,1.66-.073,3.348-.006,5.006,1.658.067,3.346-.093,5.006-.006v24c-1.66.086-3.348-.073-5.006-.006-.006,1.663.003,3.339.006,5.006h-9c-.008-1.666.018-3.334,0-5-.036-3.325.067-6.677,0-10-.027-1.334.037-2.675.006-4.005l-5.006.005c-.073-7.987.057-16.018-.006-24.005,1.658-.067,3.346.092,5.006.005Z"/>
      <path class="g" d="M71.032,38.103c1.66.088,3.348-.073,5.006-.006.067,1.658-.093,3.346-.006,5.006,1.664.039,3.335,0,5,0,.03,1.334-.039,2.675-.006,4.005,1.661.049,3.342-.061,5.006-.005v5c-1.657,0-3.348.086-5,0s-3.348.073-5.006.006c-.067-1.658.093-3.346.006-5.006-.07-1.327.07-2.673,0-4-1.665-.039-3.335.037-5,0-.037-1.665.023-3.334,0-5Z"/>
      <path class="e" d="M67.032,66.103c.067,3.323-.036,6.675,0,10l-5.006.005c-.038-3.324.066-6.681.006-10.005h5Z"/>
      <path class="d" d="M52.032,57.103c1.232-.002,4.852-.482,5.018.578l-.012,8.428c-1.663.007-3.339-.003-5.006-.005v-9Z"/>
      <path class="g" d="M62.032,62.103l5.006-.005c.031,1.33-.033,2.671-.006,4.005h-5c-.024-1.332.012-2.667,0-4Z"/>
      <path class="h" d="M67.032,38.103c-.033-4.289-1.307-5.697,3.995-5.005.04,1.663-.018,3.339.005,5.005-1.303-.069-2.697-.068-4,0Z"/>
      <path class="h" d="M67.032,81.103c.006,1.333.012,2.667,0,4-1.667,0-3.333,0-5,0v-4h5Z"/>
      <rect class="d" x="57.032" y="81.103" width="5" height="4"/>
      <path class="g" d="M81.032,57.103l5.006-.006c-.02,1.662.034,3.341-.006,5.006h-5v-5Z"/>
      <path class="h" d="M86.032,62.103c-.032,1.334.04,2.675.006,4.005l-5.006-.005v-4h5Z"/>
      <path class="h" d="M48.032,190.103c.006,1.667-.01,3.334,0,5h-5c-.017-1.666.01-3.334,0-5h5Z"/>
      <path class="d" d="M43.032,185.103c.007,1.667-.01,3.334,0,5h-5v-5c1.665.033,3.334-.023,5,0Z"/>
      <path class="f" d="M62.032,85.103v5c0,1.665.03,3.335,0,5-1.66-.087-3.347.073-5.006.006-.068-1.659.094-3.346.006-5.006s0-3.343,0-5h5Z"/>
      <path class="e" d="M71.032,38.103c.023,1.666-.037,3.335,0,5,1.665.037,3.335-.039,5,0,.07,1.327-.07,2.673,0,4l-5.006.005c-.033-1.33.036-2.671.006-4.005-1.334-.03-2.675.039-4.005.006-.019-1.663.018-3.339.005-5.006,1.303-.068,2.697-.069,4,0Z"/>
    </g>
  </g>
</svg>