<?xml version="1.0" encoding="UTF-8"?>
<svg id="b" data-name="Layer 2" xmlns="http://www.w3.org/2000/svg" width="523.41" height="1086.86" viewBox="0 0 523.41 1086.86">
  <defs>
    <style>
      .d {
        fill: #aa1f65;
      }

      .e {
        fill: #fe8042;
      }

      .f {
        fill: #94cb6f;
      }

      .g {
        fill: #10a44a;
      }

      .h {
        fill: #fed945;
      }
    </style>
  </defs>
  <g id="c" data-name="Layer 1">
    <g>
      <g>
        <path class="f" d="M286.9,8.992c.015-2.986-.01-6.007,0-8.992h9.988v8.992c-3.319.01-6.669-.014-9.988,0-.044,8.977.032,18,0,26.977h-8.989v118.9h8.989v81.931h-8.989v36.969h-8.989v26.977h-8.989c-.013,6.314.018,12.67,0,18.984,2.984-.032,6.005.023,8.989,0v-9.992h17.978v-8.992h36.955v18.984c-2.984.023-6.005-.032-8.989,0-.016,2.986.011,6.007,0,8.992-2.984.023-6.005-.032-8.989,0-.032,2.985.023,6.007,0,8.992-2.985.01-6.004-.015-8.989,0-.032,2.985.023,6.007,0,8.992-6.313.006-12.664-.009-18.977,0-3.501.274-1.941-10.1-.754-10.319,6.705-1.235,13.294-.95,19.731,1.326-5.169-9.026-.033-14.164,8.989-8.992-5.169-9.026-.033-14.164,8.989-8.992-1.952-3.301-1.966-6.697,0-9.992-.101.771-.303,1.881-.89,1.998-1.198.239-14.599.266-15.659,0l-1.429-1.998c3.123.569,2.984,9.153,0,9.992.07.856-.294,1.431-.874,1.998-.597.584-15.05.194-16.697,0l-1.406-1.998c3.523-.281,1.915,10.155.736,10.321-6.448.909-12.465.637-18.714-1.329,4.521,9.853.86,13.515-8.989,8.992-3.092-.477-2.954-8.251,0-8.992,2.958-1.97,6.027-1.962,8.989,0-1.952-2.964-1.962-6.034,0-8.992-2.081,1.731-4.528,2.1-7.133,2.16.74,3.593.121,5.871-1.856,6.833-2.94,1.463-5.899,2.525-8.95,1.218,1.6,2.753.913,5.268-1.038,7.774,4.897,8.933,1.101,12.029-7.078,10.991.224,2.496-.76,4.825-1.911,6.994-5.544,1.607-11.183,2.384-16.841,1.137,1.246,5.661.47,11.302-1.137,16.848-2.958,1.961-6.027,1.953-8.989,0-2.892,1.491-5.834,2.414-8.852,1.137,1.277,3.019.355,5.962-1.136,8.855-2.578,1.467-5.176,2.42-7.853,1.137,1.283,2.678.33,5.277-1.136,7.856l-2.246,1.343c-7.652.063-6.453,7.435.909,5.651l1.337,1.998c1.956,2.96,1.949,6.029,0,8.992-2.012,1.707-4.479,2.038-6.991,2.224.862,8.274-1.21,9.168-8.989,8.992.999,8.642-1.785,9.408-9.65,8.767l-1.337-1.998c-1.957-5.965-1.964-12.021,0-17.985.851-2.053,3.21-2.719,7.078-1.998-.224-2.5.762-4.826,1.911-6.994-2.325-6.116-2.489-12.311-1.328-18.718.247-1.364,10.305-2.632,10.317.733-.779-.094-1.933-.334-1.998-.904-.485-4.249-.721-21.836,0-25.612l1.998-1.461c.806-1.914,3.136-2.655,6.991-2.224-.861-8.274,1.208-9.168,8.989-8.992v-5.431c.134-4.405,10.518-4.742,11.985-1.337-2.174-1.317-2.839-4.487-1.998-9.511-.766-4.197-.101-7.022,1.998-8.474.805-1.895,3.135-2.647,6.991-2.256-.714-8.428.33-10.337,8.989-9.96-.998-8.642,1.783-9.408,9.65-8.767l1.337,1.998c-.772-.1-1.892-.309-1.998-.89-.218-1.205-.255-14.781,0-15.665l1.998-1.43c.477-3.093,8.248-2.955,8.989,0-.772-.1-1.892-.309-1.998-.89-.218-1.205-.255-14.781,0-15.665l1.998-1.43c.569-3.124,9.149-2.986,9.988,0-.47.05-.925.059-1.332-.077-1.706-.574-1.242-34.013-.666-35.719l1.998-1.172c.477-3.093,8.248-2.955,8.989,0l-1.998-.694V56.177l1.998-1.223c-.477,3.093-8.248,2.955-8.989,0,.78.091,1.954.345,1.998.898.53,6.779.52,17.839,0,24.629l-1.998,1.45c-.569,3.124-9.149,2.986-9.988,0,.771.101,1.881.303,1.998.89.239,1.198.266,14.604,0,15.665l-1.998,1.43c-.805,1.914-3.136,2.655-6.991,2.224.992,8.635-1.761,9.408-9.65,8.767l-1.337-1.998c.778.095,1.927.331,1.998.904.54,4.391.699,21.507,0,25.612l-1.998,1.461c-.477,3.093-8.248,2.955-8.989,0,.771.101,1.881.303,1.998.89.239,1.198.266,14.604,0,15.665l-1.998,1.43c-.477,3.093-8.248,2.955-8.989,0,.776.097,1.93.329,1.998.89.385,3.188.377,12.438,0,15.665l-1.998,1.43c-.569,3.124-9.149,2.986-9.988,0,.767.1,1.858.284,1.998.874.284,1.2.27,15.281,0,16.704l-1.998,1.406c-.477,3.093-8.248,2.955-8.989,0,.771.101,1.881.303,1.998.89.239,1.198.266,14.604,0,15.665l-1.998,1.43c-.477,3.093-8.248,2.955-8.989,0,.469-.051.925-.06,1.332.077,2.133.715,1.12,40.232.666,44.713l-1.998,1.171c-.477,3.093-8.248,2.955-8.989,0l1.998.688v116.003l-1.998,1.211c-.86,2.055-3.219,2.721-7.078,1.998.366,8.72.214,17.454-1.911,25.978-.477,3.093-8.248,2.955-8.989,0-.009-5.982.007-12.003,0-17.985h-9.988v-9.992h-8.989v-17.985h-8.989v-8.992h-8.989v-17.985h-8.989v-36.969h-9.988v-72.939h9.988v-26.977h8.989v-27.977h8.989v-17.985h8.989v-8.992h8.989v-17.985h9.988v-9.992h8.989v-8.992h8.989v-8.992h8.989v-8.992h8.989v-8.992h8.989v-8.992h9.988v-8.992h8.989v-9.992h8.989v-8.992h17.978v-8.992h18.977v-8.992h8.989v-8.992c5.979-.018,11.999.025,17.978,0Z"/>
        <path class="f" d="M150.067,410.655c1.402,5.29,2.518,10.696,1.585,16.125,3.814-.758,6.282-.138,7.404,1.86,1.962,2.963,1.971,6.034,0,8.992-5.951,1.562-11.969,2.567-18.026,1.268,1.218,2.643.592,5.254-.951,7.725-.851,2.053-3.211,2.719-7.078,1.998.26,2.82-.706,5.488-1.911,7.993,1.952,2.963,1.96,6.033,0,8.992-.708,1.876-3.038,2.568-6.991,2.074v14.481c-.945,3.178-3.97,4.32-9.075,3.428.365,17.683.265,35.374-1.911,52.956,1.962,2.96,1.955,6.03,0,8.992,1.966,2.96,1.96,6.03,0,8.992,1.388,5.245,2.496,10.608,1.615,15.987h5.463c-.362-5.399.484-10.756,1.911-15.987-1.96-2.963-1.966-6.033,0-8.992-1.955-2.963-1.962-6.033,0-8.992-2.735-12.263-2.792-24.714,0-36.969.447-3.072,8.213-2.977,8.989,0-.019,24.297.014,48.641,0,72.939h8.989v18.984h9.988v8.992h8.989v8.992h8.989v8.992h8.989v8.992h8.989v8.992h8.989v18.984h9.988v8.992h8.989v17.985h8.989v17.985h8.989v36.969h8.989v54.954c-2.162,1.289-4.574,1.79-6.991,2.224,1.044,8.121-2.482,11.532-10.987,6.768-2.036,1.713-4.455,2.036-6.991,2.224.677,3.525.011,5.781-1.998,6.768-5.492,1.932-11.24,2.598-16.979,1.616,1.969,12.604-8.416,10.58-19.976,7.377-2.052-.848-2.718-3.209-1.998-7.081-3.665.676-5.995.039-6.991-1.912-.134-27.293.1-54.638,0-81.931h-8.989v-27.977h-8.989v-17.985h-9.988v-17.985h-8.989v-8.992h-8.989v-18.984h-8.989v-8.992h-8.989v-17.985h-9.988v-118.9h9.988v-26.977h8.989v-18.984h8.989v-17.985h8.989v-8.992h8.989v-8.992h9.988Z"/>
        <path class="f" d="M240.956,355.702v8.992c-2.984.023-6.005-.032-8.989,0-.016,2.986.011,6.007,0,8.992-2.985.011-6.004-.016-8.989,0-.031,6.314.023,12.67,0,18.984h8.989v-8.992h18.977v-9.992h26.967v-8.992h54.933v8.992h27.966v9.992h17.978v8.992h18.977v8.992h8.989v8.992h8.989v8.992h8.989v8.992h8.989v8.992h9.988v8.992h8.989v9.992h8.989v17.985h8.989v17.985h8.989v8.992h9.988v8.992h-27.966v-8.992h-164.799v-8.992h-27.966v-8.992h-8.989v-8.992h-18.977v-8.992h-8.989v-8.992h-8.989v-9.992h-8.989c.021-5.981-.029-12.004,0-17.985,1.984-.518,3.975-.995,5.99-1.33,11.988-1.989,14.538-1.552,14.212,8.324,8.307-.864,9.113,1.217,9.021,8.992,9.38-.943,10.193,1.136,9.956,9.992,8.639-1,9.404,1.788,8.763,9.653l-1.998,1.337c1.316-2.174,4.485-2.841,9.507-1.998,4.195-.767,7.019-.101,8.471,1.998,1.913.806,2.654,3.137,2.223,6.994,8.632-.993,9.404,1.761,8.763,9.653l-1.998,1.337c.096-.773.316-1.922.874-1.998,1.49-.205,15.935-.342,16.697,0,.743.333,1.108,1.214,1.406,1.998,3.092.477,2.954,8.251,0,8.992l.691-1.998h107.96l1.215,1.998c-3.092-.477-2.954-8.251,0-8.992,1.316-2.174,4.485-2.841,9.507-1.998,4.195-.767,7.019-.101,8.471,1.998-1.913-.806-2.654-3.137-2.223-6.994-8.271.861-9.164-1.209-8.989-8.992-8.271.861-9.164-1.209-8.989-8.992-7.08,1.446-10.076-1.885-8.989-9.992-8.638.999-9.404-1.784-8.763-9.653l1.998-1.337c-.421,2.993-9.415,2.29-12.599,1.998-3.348.666-5.473,0-6.378-1.998-3.071-.447-2.975-8.217,0-8.992-.208.78-.506,1.859-1.17,1.998-5.301,1.111-26.968.48-33.32,0l-1.466-1.998c-3.092-.477-2.954-8.251,0-8.992l-.922,1.998h-53.814l-1.195-1.998c-3.092-.477-2.954-8.251,0-8.992l-.932,1.998h-61.782l-1.208-1.998,1.998,1.079c.672,8.23-.18,10.932-9.075,9.911.224,2.502-.763,4.827-1.911,6.994-2.987-.005-6.002,0-8.989,0-2.021-.823-2.701-3.154-2.042-6.994h-15.53c-5.101-1.231-3.715-6.528-1.406-10.991,2.037-1.714,4.457-2.037,6.991-2.224-1.445-7.083,1.884-10.08,9.988-8.992-.882-8.103,1.279-9.523,9.075-8.767-.367-5.737.472-11.422,1.911-16.986,2.958-1.96,6.026-1.951,8.989,0-4.832-9.713-.049-13.893,8.989-8.992-1.954-2.965-1.968-6.035,0-8.992,2.959-1.964,6.028-1.961,8.989,0Z"/>
        <path class="f" d="M140.079,465.609c-.016,2.985.011,6.007,0,8.992h-8.989c-1.955-2.963-1.961-6.033,0-8.992.447-3.072,8.213-2.977,8.989,0Z"/>
        <path class="g" d="M159.056,401.663c.029-9.31-.022-18.666,0-27.977h8.989v-117.901h8.989v-45.961h8.989v-17.985h8.989v-18.984h9.988v-17.985h8.989v-17.985h8.989v-27.977h8.989v-8.992h8.989v-17.985h9.988v-26.977h8.989v172.855h-8.989v36.969h-9.988v17.985h-8.989v17.985h-8.989v8.992h-8.989v9.992h-8.989v17.985h-9.988v8.992h-8.989v8.992h-8.989v27.977h-8.989c-.021,5.981.029,12.004,0,17.985-.477,3.093-8.248,2.955-8.989,0,1.954,2.963,1.96,6.032,0,8.992-.005,5.982.009,12.003,0,17.985-1.423,0-8.671.318-8.989,0-.007-5.982.009-12.003,0-17.985-.005-2.988.005-6.005,0-8.992h8.989Z"/>
        <path class="g" d="M131.09,465.609c-.004,2.988.009,6.005,0,8.992-.018,5.981.007,12.004,0,17.985-.851,2.053-3.21,2.719-7.078,1.998.224,2.5-.762,4.826-1.911,6.994-.06,12.307.022,24.662,0,36.969-.477,3.093-8.248,2.955-8.989,0-.032-18.302.024-36.652,0-54.954h8.989v-17.985c.318-.318,7.566,0,8.989,0Z"/>
        <path class="g" d="M213.989,373.687c-.01,6.315.007,12.669,0,18.984h-8.989v8.992h-9.988v8.992c-2.984.023-6.005-.032-8.989,0-.016-2.986,0-6.007,0-8.992-1.965-2.963-1.972-6.033,0-8.992,2.499-1.938,5.037-2.654,7.791-1.065-1.305-2.701-.249-5.31,1.198-7.928,2.501-1.333,5.243-1.818,7.99-2.256-.735-3.921-.07-6.499,1.998-7.736,2.985-.013,6.004.004,8.989,0Z"/>
        <path class="g" d="M186.023,410.655c.016,2.986-.011,6.006,0,8.992h18.977v8.992h-27.966v8.992c-5.98.007-11.998-.009-17.978,0-.016,2.985.011,6.007,0,8.992h-8.989v9.992c-.353.353-8.443,0-9.988,0-.004,2.986.016,6.007,0,8.992h-8.989c.004-2.986-.013-6.007,0-8.992.447-3.072,8.213-2.977,8.989,0-1.962-3.3-1.973-6.696,0-9.992.016-2.985-.011-6.007,0-8.992,6.313-.007,12.664.01,18.977,0,.016-2.985-.004-6.007,0-8.992h8.989v-8.992h8.989v-8.992c2.984-.023,6.005.032,8.989,0Z"/>
        <path class="g" d="M231.967,355.702c-.016,2.986.016,6.007,0,8.992-2.984.032-6.005-.023-8.989,0-.01,2.986.015,6.007,0,8.992-2.985.016-6.004-.004-8.989,0,.009-5.982-.007-12.003,0-17.985,5.98-.007,11.998.009,17.978,0Z"/>
        <path class="g" d="M259.933,328.724c5.98-.009,11.998.007,17.978,0v-8.992h18.977v-9.992h17.978c-.012,3.319.017,6.673,0,9.992-2.984.032-6.005-.023-8.989,0-.023,2.985.032,6.007,0,8.992-2.984.032-6.005-.023-8.989,0-.023,2.986.032,6.007,0,8.992-6.312.031-12.665-.023-18.977,0v8.992c-2.987.004-6.002-.005-8.989,0-5.241,1.388-10.599,2.497-15.98,1.616.712,3.768.047,6.227-1.998,7.377-3.319.005-6.669-.002-9.988,0-2.987.002-6.002-.005-8.989,0,.016-2.986-.011-6.007,0-8.992h8.989c.023-2.986-.032-6.007,0-8.992,3.414-2.496,6.568-2.482,9.988,0,2.984-.016,6.005.011,8.989,0,.011-2.986-.016-6.007,0-8.992Z"/>
        <path class="f" d="M268.922,346.709v8.992c-5.98.007-11.998-.009-17.978,0v-8.992c5.98-.007,11.998.009,17.978,0Z"/>
        <path class="g" d="M131.09,492.587c-.003,2.988.002,6.005,0,8.992h-8.989c.015-2.986-.01-6.007,0-8.992h8.989Z"/>
        <path class="g" d="M168.045,401.663c-.015,2.985.01,6.007,0,8.992h-8.989c.002-2.988-.009-6.005,0-8.992h8.989Z"/>
        <path class="g" d="M131.09,602.495c-2.984-.032-6.005.023-8.989,0v-17.985h8.989c.013,5.981-.018,12.004,0,17.985,2.984.032,6.005-.023,8.989,0,.013,5.981-.018,12.004,0,17.985,3.317.017,6.671-.012,9.988,0v8.992h8.989v8.992h8.989v9.992h8.989v8.992h8.989v17.985h8.989v17.985h9.988v27.977h8.989v44.962h-8.989v-8.992h-9.988v-45.961h-8.989v-17.985h-8.989v-17.985h-8.989v-17.985h-8.989v-8.992h-8.989v-9.992h-9.988c-.013-5.981.018-12.004,0-17.985-2.984-.016-6.005.011-8.989,0-.013-5.981.018-12.004,0-17.985Z"/>
        <rect class="g" x="195.012" y="775.35" width="9.988" height="27.977"/>
        <path class="g" d="M122.101,556.533c-.009,5.982.007,12.003,0,17.985h-8.989c-.007-5.982.009-12.003,0-17.985.477-3.093,8.248-2.955,8.989,0Z"/>
        <path class="g" d="M140.079,446.625c-.017,3.318.005,6.673,0,9.992h-8.989c.015-3.318-.011-6.673,0-9.992h8.989Z"/>
        <path class="g" d="M122.101,538.548c-.005,2.988.009,6.005,0,8.992-.477,3.093-8.248,2.955-8.989,0-.009-2.988.005-6.005,0-8.992h8.989Z"/>
        <path class="g" d="M122.101,547.541c-.009,2.988.005,6.005,0,8.992h-8.989c-.005-2.988.009-6.005,0-8.992h8.989Z"/>
        <path class="g" d="M213.989,428.64c.015-2.986-.01-6.007,0-8.992h8.989v-8.992h63.922v8.992h55.932v8.992h35.956v8.992h18.977v8.992h8.989v9.992h8.989v8.992h8.989v8.992h8.989v8.992h-17.978v8.992h-109.866v-8.992h-18.977v-8.992h-8.989v-8.992h-17.978v-8.992h-8.989v-9.992h-9.988v-8.992h-8.989v-8.992c-5.98-.007-11.998.009-17.978,0Z"/>
      </g>
      <path class="e" d="M459.454,949.841c1.959,2.962,1.962,6.032,0,8.992-.066.82-.332,1.951-.957,2.016-8.444.889-12.946-.308-8.032-11.009,2.958-1.97,6.027-1.962,8.989,0Z"/>
      <path class="e" d="M312.634,749.01c2.16-1.289,4.569-1.789,6.991-2.224-.677-3.524-.011-5.78,1.998-6.768.097-.776.327-1.928.89-1.998,2.126-.267,15.457-.267,16.426.666.336.324.521.806.663,1.332-3.123-.569-2.984-9.153,0-9.992.092-.781.343-1.948.903-1.998,2.843-.256,24.226-.477,25.603,0l1.46,1.998c-3.071-.447-2.975-8.217,0-8.992-.05-.47-.059-.925.077-1.332.574-1.707,34-1.242,35.706-.666l1.172,1.998c3.092.477,2.954,8.251,0,8.992.091-.781.345-1.955.897-1.998,6.776-.531,17.832-.52,24.62,0l1.45,1.998c1.976,1.068,2.717,3.732,2.223,7.993,8.307-.863,9.113,1.214,9.021,8.992,8.425-.714,10.333.331,9.956,8.992,8.271-.861,9.164,1.209,8.989,8.992,8.271-.861,9.164,1.209,8.989,8.992,3.526-.677,5.781-.011,6.766,1.998.47-.05.925-.059,1.332.077,1.706.574,1.196,33.998.666,35.719l-1.998,1.172c.477-3.093,8.248-2.955,8.989,0,.469-.051.925-.06,1.332.077,2.085.7,1.076,39.18.666,43.713l-1.998,1.173c-.477,3.093-8.248,2.955-8.989,0,.47-.05.925-.059,1.332.077,1.706.574,1.196,33.998.666,35.719l-1.998,1.172c.447-3.072,8.213-2.977,8.989,0-.772-.1-1.892-.309-1.998-.89-.218-1.205-.255-14.781,0-15.665l1.998-1.43c.805-1.914,3.136-2.655,6.991-2.224-.796-4.532.161-7.455,2.872-8.767.853-.434,18.2-.746,18.103,1.998-.013,2.986.016,6.007,0,8.992-.851,2.053-3.21,2.719-7.078,1.998.224,2.5-.762,4.826-1.911,6.994-.016,2.986.016,6.006,0,8.992-1.105,2.109-3.789,2.775-8.052,1.998.171,2.498-.775,4.826-1.935,6.994-.016,2.986.016,6.007,0,8.992.197,3.112-8.853,2.296-10.04,1.21-1.315-1.204-2.026-10.026,1.051-10.202-.982,2.155-3.805,2.821-8.471,1.998-4.559.782-7.728.116-9.507-1.998,1.96,5.965,1.968,12.021,0,17.985-.757,2.011-3.132,2.63-7.126,1.858.35,2.553-.705,4.927-1.863,7.135-2.509,1.511-5.106,2.264-7.76,1.021,1.421,6.052.837,12.096-1.229,17.963-2.817,1.555-5.759,2.213-8.74.989,1.293,5.715.313,11.392-1.248,16.996-5.24,1.387-10.596,2.497-15.98,1.616-.113,1.815-.037,3.608.226,5.379,8.1-.883,9.52,1.281,8.763,9.079,2.496-.224,4.824.761,6.991,1.912-2.46-6.05-2.482-11.94,0-17.985,6.296-1.969,12.679-1.961,18.977,0-.016,2.986.011,6.007,0,8.992h-8.989v8.992c-3.317-.012-6.671.017-9.988,0-.015,2.986.01,6.007,0,8.992h-17.978c-1.288-2.16-1.788-4.567-2.223-6.994-8.271.862-9.164-1.209-8.989-8.992l-4.768.226c1.445,7.083-1.884,10.08-9.988,8.992.863,8.31-1.214,9.116-8.989,9.024.714,8.428-.331,10.337-8.989,9.96.677,3.527.011,5.783-1.998,6.768-.101.771-.303,1.881-.89,1.998-1.198.239-14.599.266-15.659,0l-1.429-1.998c3.092.477,2.954,8.251,0,8.992-.094.775-.324,1.936-.874,1.998-3.547.403-13.112.396-16.697,0l-1.406-1.998c3.092.477,2.954,8.251,0,8.992-.101.771-.303,1.881-.89,1.998-1.198.239-14.599.266-15.659,0l-1.429-1.998c3.092.477,2.954,8.251,0,8.992-.094.775-.324,1.936-.874,1.998-3.547.403-13.112.396-16.697,0l-1.406-1.998c3.092.477,2.954,8.251,0,8.992-.091.781-.345,1.955-.897,1.998-6.776.531-17.832.52-24.62,0l-1.45-1.998c3.092.477,2.954,8.251,0,8.992-.091.782-.347,1.954-.903,1.998-2.874.229-24.547.725-25.603,0-.733-.503-1.252-1.108-1.46-1.998,3.123.569,2.984,9.153,0,9.992.008.78-.204,1.988-.686,1.998-30.039.64-63.161,1.163-93.165,0-3.682.657-6.024-.01-7.026-1.998-3.123-.569-2.984-9.153,0-9.992-.091.781-.345,1.955-.897,1.998-6.776.531-17.832.52-24.62,0l-1.45-1.998c-1.895-.805-2.646-3.136-2.255-6.994l-7.48-.121c-3.007-1.437-3.56-9.653-.253-10.869-.101.771-.303,1.881-.89,1.998-1.198.239-14.599.266-15.659,0l-1.429-1.998c-1.913-.806-2.654-3.137-2.223-6.994-8.271.861-9.164-1.208-8.989-8.992-3.526.677-5.781.011-6.766-1.998-2.807.648-2.435-15.361-1.998-16.555l1.998-1.43c-.938,3.475-10.69,2.857-10.987-1.089l-.257-6.905c-3.923.735-6.5.069-7.733-1.998-.776-.097-1.93-.329-1.998-.89-.385-3.188-.377-12.438,0-15.665l1.998-1.43c-.477,3.093-8.248,2.955-8.989,0-2.807.648-2.435-15.361-1.998-16.555l1.998-1.43c-.818,3.376-9.066,2.577-10.706.095.711-6.266-1.047-8.553-5.275-6.864.861,8.274-1.208,9.168-8.989,8.992v5.431c-.134,4.405-10.518,4.742-11.985,1.337-.015-2.986.01-6.007,0-8.992H.016c-.01-2.986.015-6.007,0-8.992.856-2.054,3.215-2.72,7.078-1.998-.367-5.734.472-11.42,1.911-16.986,5.577-1.398,11.264-2.499,16.979-1.616l.123-7.129c1.453-3.005,9.648-3.553,10.864-.248-.772-.1-1.892-.309-1.998-.89-.218-1.205-.255-14.781,0-15.665l1.998-1.43c.097-.776.329-1.931.89-1.998,3.186-.385,12.433-.377,15.659,0l1.429,1.998c-1.913-.806-2.654-3.137-2.223-6.994-9.847,2.012-10.958-6.326-6.861-12.708l7.087-.507c-1.445-7.083,1.884-10.08,9.988-8.992-.677-3.527-.011-5.783,1.998-6.768.1-.772.309-1.893.89-1.998,1.204-.218,14.775-.255,15.659,0l1.429,1.998c-3.123-.569-2.984-9.153,0-9.992,1.316-2.174,4.485-2.841,9.507-1.998,4.195-.767,7.019-.101,8.471,1.998-3.092-.477-2.954-8.251,0-8.992-.05-.47-.059-.925.077-1.332.574-1.707,32.16-1.112,35.706-.666l1.172,1.998c-3.375-.818-2.576-9.069-.095-10.71,6.135.853,8.497-1.126,7.087-5.938.074-4.293,9.631-4.767,10.987-1.337,3.092.477,2.954,8.251,0,8.992-.051-.47-.059-.925.077-1.332.629-1.878,35.115-.886,39.294-.666,3.568-.669,5.759-.003,6.573,1.998l1.998,1.079c-2.094,8.471,7.955,8.623,5.993.258l1.998-1.337c-.648-2.808,15.355-2.436,16.549-1.998l1.429,1.998c-3.366.301-2.085-9.793-.847-10.299,3.343-1.367,6.986-.876,9.836,1.307,2.013-1.708,4.48-2.038,6.991-2.224l.123-6.522c1.593-3.057,10.494-3.566,11.862-.246-.772-.1-1.892-.309-1.998-.89-.218-1.205-.255-14.781,0-15.665l1.998-1.43c.805-1.895,3.135-2.647,6.991-2.256-.714-8.428.33-10.337,8.989-9.96-.861-8.274,1.208-9.168,8.989-8.992-.861-8.274,1.208-9.168,8.989-8.992-.861-8.274,1.208-9.168,8.989-8.992-1.064-8.959,2.096-9.34,10.05-8.767-.645-3.668,0-6,1.935-6.994-9.461,4.765-15.019,1.31-9.988-8.992,3.566-1.967,6.823-2.296,10.743-1.326,1.384.342,2.569,10.309-.755,10.319Z"/>
      <path class="e" d="M9.005,912.872c1.958,5.965,1.967,12.022,0,17.985-.477,3.093-8.248,2.955-8.989,0,.009-5.983-.007-12.002,0-17.985h8.989Z"/>
      <path class="e" d="M468.443,921.865c-.789-2.791,8.148-2.273,8.741-1.876,5.752,3.85,1.757,19.077-8.741,10.868-1.96-2.962-1.963-6.032,0-8.992Z"/>
      <path class="e" d="M468.443,930.857c2.483,6.38,2.504,12.609,0,18.984-2.958,1.972-6.027,1.963-8.989,0-2.48-6.381-2.503-12.609,0-18.984,2.957-1.968,6.025-1.954,8.989,0Z"/>
      <path class="d" d="M9.005,967.826h9.988v-8.992h8.989v-8.992h8.989v8.992h8.989v17.985h8.989v17.985h9.988v9.992h8.989v17.985h8.989v8.992h8.989v8.992h17.978v8.992h9.988v8.992h26.967v9.992h100.877v-9.992h27.966v-8.992h26.967v-8.992h18.977v-8.992h17.978v-8.992h18.977v-8.992h17.978v-8.992h8.989v-9.992h8.989v-8.992h9.988v-8.992h8.989v8.992h8.989c.011,2.986-.016,6.007,0,8.992.017,3.318-.012,6.673,0,9.992h-8.989v8.992h-8.989v8.992h-18.977v8.992h-8.989v8.992h-17.978v8.992h-18.977v8.992h-26.967v9.992c-6.312.023-12.665-.031-18.977,0-2.161,1.288-4.569,1.789-6.991,2.224.677,3.524.011,5.78-1.998,6.768-8.974.044-17.993-.037-26.967,0-2.502,1.319-5.233,1.85-7.99,2.224.677,3.523.012,5.779-1.998,6.768-39.591.163-79.264.194-118.855,0-2.052-.851-2.718-3.211-1.998-7.081-2.499.224-4.824-.763-6.991-1.912-6.312-.031-12.665.031-18.977,0-2.052-.851-2.718-3.211-1.998-7.081-2.499.224-4.825-.762-6.991-1.912-1.483-2.906-2.446-5.853-1.16-8.88-2.67,1.275-5.265.365-7.829-1.111-2.964,1.954-6.032,1.968-8.989,0-2.985-.016-6.004.011-8.989,0v-8.992h-9.988v-8.992h-8.989v-8.992h-8.989c-.023-2.986.032-6.007,0-8.992-1.712-2.037-2.036-4.457-2.223-6.994-3.523.677-5.778.011-6.766-1.998-.032-2.985.023-6.007,0-8.992h-8.989v-18.984h-9.988c-.021-5.981.029-12.004,0-17.985Z"/>
      <path class="d" d="M413.511,694.056c2.052.851,2.718,3.211,1.998,7.081,2.499-.224,4.824.763,6.991,1.912,5.979.029,11.999-.025,17.978,0,2.052.852,2.718,3.212,1.998,7.081,2.819-.26,5.485.706,7.99,1.912,2.985.013,6.004-.016,8.989,0,2.052.851,2.718,3.211,1.998,7.081,2.576-.455,4.902.308,6.991,1.912,2.984.032,6.005-.023,8.989,0v8.992h8.989v9.992h8.989v8.992h9.988v17.985h8.989c.021,5.981-.029,12.004,0,17.985,1.288,2.162,1.788,4.571,2.223,6.994,3.523-.678,5.778-.012,6.766,1.998.104,21.299-.078,42.647,0,63.946h-8.989c-.011,3.318.015,6.673,0,9.992h-18.977v8.992h-8.989v17.985h-8.989v-36.969h8.989v-44.962h-8.989v-36.969h-8.989v-8.992h-8.989v-8.992h-8.989v-8.992h-9.988v-8.992h-8.989v-9.992h-26.967v-8.992h-36.955v8.992h-27.966v9.992h-17.978v8.992c-2.984.011-6.005-.016-8.989,0v-8.992c-3.317.012-6.671-.017-9.988,0,.016,2.986-.011,6.007,0,8.992,3.317-.012,6.671.017,9.988,0,0,1.424.318,8.675,0,8.992h-9.988v8.992h-8.989v8.992h-8.989v8.992h-8.989v8.992h-8.989v9.992h-8.989v17.985h-9.988v8.992c-2.984.023-6.005-.032-8.989,0l-1.998-.89v-15.021c-8.191.622-11.555-1.567-6.991-11.066-.017-3.318.012-6.673,0-9.992h8.989v-8.992h8.989v-8.992h9.988v-8.992c2.984-.023,6.005.032,8.989,0,2.484-1.906,5.094-2.695,7.853-1.137-1.558-2.76-.769-5.371,1.136-7.856.032-2.985-.023-6.007,0-8.992h17.978v-8.992c2.985-.011,6.004.016,8.989,0-.017-3.318.012-6.673,0-9.992h18.977v-8.992h17.978v-8.992h18.977v-8.992h26.967v-8.992c9.307.034,18.659-.046,27.966,0Z"/>
      <path class="d" d="M9.005,930.857c-.009,6.316.006,12.669,0,18.984H.016c-.031-6.313-.009-12.67,0-18.984h8.989Z"/>
      <path class="d" d="M155.826,812.956c6.311-.031,12.665.021,18.977,0,3.092.477,2.954,8.251,0,8.992-2.961,1.946-6.029,1.948-8.989,0-2.546,1.313-5.303,1.948-8.132,2.16.74,3.592.121,5.87-1.856,6.833h-8.989v8.992h-8.989v8.992h-36.955v8.992h-17.978v9.992h-17.978v8.992h-9.988v8.992h-8.989v8.992h8.989v8.992h-17.978v17.985h-8.989v8.992H9.005c.008-5.983-.009-12.002,0-17.985s-.007-12.002,0-17.985h9.988c.023-2.986-.032-6.007,0-8.992.85-2.053,3.21-2.719,7.078-1.998-.455-2.577.308-4.903,1.911-6.994,2.036-1.713,4.455-2.036,6.991-2.224-.677-3.525-.011-5.781,1.998-6.768,2.984-.032,6.004.023,8.989,0v-9.992h8.989v-8.992h9.988v-8.992h8.989v-8.992h8.989c1.466,2.579,2.42,5.178,1.136,7.856,2.677-1.284,5.275-.33,7.853,1.137,5.978.029,12-.021,17.978,0v-8.992c6.311-.023,12.666.031,18.977,0,2.161-1.288,4.569-1.789,6.991-2.224-.677-3.524-.011-5.78,1.998-6.768,2.984-.032,6.005.023,8.989,0v-8.992c2.985-.01,6.004.015,8.989,0Z"/>
      <path class="h" d="M229.735,803.963c.016,2.986-.011,6.007,0,8.992h8.989v17.985c-2.984.032-6.005-.023-8.989,0v8.992h-17.978v8.992h-9.988v-8.992h-45.944v-8.992c0-1.424-.318-8.675,0-8.992,3.317-.011,6.671.015,9.988,0,2.002.818,2.693,3.149,2.073,6.994.576.382,13.213.309,13.832,0,.779-.389.263-8.463-3.921-5.657l-2.994-1.337v-8.992c8.974-.03,17.993.022,26.967,0v-8.992h27.966Z"/>
      <path class="d" d="M468.443,921.865c-.005,2.988.002,6.005,0,8.992-2.985.016-6.004-.016-8.989,0,.015-2.986-.01-6.007,0-8.992.318-.318,7.566,0,8.989,0Z"/>
      <path class="d" d="M440.478,967.826c-.009,5.981.029,12.004,0,17.985-2.985-.016-6.004.011-8.989,0v-8.992h-8.989v-8.992c5.98-.007,11.998.009,17.978,0Z"/>
      <path class="d" d="M459.454,930.857c-.031,6.314.009,12.67,0,18.984-2.985.004-6.004-.013-8.989,0-.031-6.314.023-12.67,0-18.984,2.985-.011,6.004.016,8.989,0Z"/>
      <path class="d" d="M468.443,921.865c.009-5.983-.007-12.002,0-17.985h17.978v8.992h8.989c-.016,2.986.011,6.007,0,8.992h-8.989v18.984h-8.989v8.992c-2.985.011-6.004-.016-8.989,0-.015,2.986.01,6.007,0,8.992h-8.989c-.004,2.986.016,6.007,0,8.992-6.313.007-12.664-.01-18.977,0,.009-5.983-.007-12.002,0-17.985,3.317-.011,6.671.015,9.988,0,.015,2.986-.01,6.007,0,8.992.318.318,7.566,0,8.989,0,.004-2.988-.004-6.005,0-8.992,2.985-.004,6.004.016,8.989,0,.031-6.314-.004-12.67,0-18.984,2.985-.016,6.004.011,8.989,0v-8.992h-8.989Z"/>
      <path class="e" d="M82.915,1058.75c2.985.016,6.004-.011,8.989,0,.012,3.319-.017,6.673,0,9.992,2.985.016,6.004-.011,8.989,0v8.992c-2.985-.015-6.004.01-8.989,0-.011-2.986.016-6.006,0-8.992-2.985-.016-6.004.016-8.989,0-3.123-.569-2.984-9.153,0-9.992Z"/>
      <path class="e" d="M440.478,703.048c3.317.014,6.67-.01,9.988,0v8.992c-3.318-.015-6.67.011-9.988,0v-8.992Z"/>
      <path class="h" d="M82.915,1058.75v9.992c-2.985-.016-6.004.011-8.989,0v-9.992c2.985.016,6.004-.016,8.989,0Z"/>
      <path class="e" d="M257.701,1077.734v8.992c-3.319.01-6.669-.014-9.988,0v-8.992c3.319-.01,6.669.014,9.988,0Z"/>
      <path class="d" d="M505.398,894.887c-.016,2.986.011,6.006,0,8.992h-9.988c.016-2.986-.011-6.007,0-8.992h9.988Z"/>
      <path class="e" d="M36.971,867.91v8.992c-2.984.023-6.005-.032-8.989,0-.032,2.986.023,6.007,0,8.992h-8.989c.032-2.985-.023-6.007,0-8.992,2.984-.023,6.005.032,8.989,0,.032-2.986-.023-6.007,0-8.992,2.985-.023,6.005.032,8.989,0Z"/>
      <path class="d" d="M514.387,876.902c-.016,2.986.011,6.007,0,8.992h-8.989c.016-2.986-.011-6.006,0-8.992h8.989Z"/>
      <path class="e" d="M514.387,784.979h8.989c.01,2.986-.015,6.007,0,8.992h-8.989c-.01-2.986.015-6.007,0-8.992Z"/>
      <path class="d" d="M275.679,758.002c-.032,2.985.023,6.007,0,8.992-2.984.023-6.005-.032-8.989,0v-8.992h8.989Z"/>
      <path class="e" d="M27.982,1013.787h8.989c.023,2.986-.032,6.007,0,8.992h-8.989c-.023-2.985.032-6.007,0-8.992Z"/>
      <path class="d" d="M459.454,712.041c2.985.016,6.004-.011,8.989,0v8.992c-2.984-.032-6.005.023-8.989,0v-8.992Z"/>
      <path class="d" d="M413.511,694.056c2.984.015,6.005-.01,8.989,0v8.992c-2.985-.015-6.004.01-8.989,0v-8.992Z"/>
      <path class="e" d="M293.657,1068.741v8.992c-2.985.01-6.004-.015-8.989,0v-8.992c2.985-.01,6.005.015,8.989,0Z"/>
      <path class="e" d="M119.87,1077.734c2.985.015,6.004-.01,8.989,0v8.992c-2.984-.015-6.005.01-8.989,0v-8.992Z"/>
      <polygon class="h" points="82.915 976.818 91.904 976.818 91.904 985.811 109.882 985.811 109.882 994.803 119.87 994.803 119.87 1004.795 146.837 1004.795 146.837 1013.787 155.826 1013.787 155.826 1031.772 146.837 1031.772 146.837 1040.765 137.848 1040.765 137.848 1031.772 109.882 1031.772 109.882 1022.78 100.893 1022.78 100.893 1013.787 91.904 1013.787 91.904 1004.795 82.915 1004.795 82.915 976.818"/>
      <path class="e" d="M137.848,821.948v8.992c-2.984.01-6.005-.015-8.989,0v-8.992c2.984-.023,6.005.032,8.989,0Z"/>
      <path class="e" d="M82.915,830.941c1.424,0,8.671-.318,8.989,0v8.992c-2.984-.015-6.005.01-8.989,0-.01-2.985.015-6.007,0-8.992Z"/>
    </g>
  </g>
</svg>