<?xml version="1.0" encoding="UTF-8"?>
<svg id="b" data-name="Layer 2" xmlns="http://www.w3.org/2000/svg" width="430.309" height="301.603" viewBox="0 0 430.309 301.603">
  <defs>
    <style>
      .d {
        fill: #aa1f65;
      }

      .e {
        fill: #2b0f54;
      }

      .f {
        fill: #fe8042;
      }

      .g {
        fill: #fe4f69;
      }

      .h {
        fill: #3368db;
      }

      .i {
        fill: #49e6eb;
      }

      .j {
        fill: #fed945;
      }
    </style>
  </defs>
  <g id="c" data-name="Layer 1">
    <g>
      <path class="e" d="M37.938,104.907c4.98-.009,9.996.005,14.976,0,1.325-.001,2.668.001,3.993,0,1.657-.001,3.335.001,4.992,0,17.622-.011,35.291.008,52.914,0,34.926-.016,69.903-.042,104.829,0,6.643.008,13.325-.006,19.967,0v14.976h-9.984v13.977h-28.953c.144,11.295-.196,22.652,0,33.945.023,1.322-.015,2.671,0,3.993h4.992c.253,14.619-.253,29.309,0,43.928.023,1.322-.015,2.671,0,3.993h4.992c.196,11.285.024,22.656,0,33.945-.004,1.655.009,3.337,0,4.992-.016,2.984.011,6.001,0,8.985h-4.992c-.033,1.653.049,3.339,0,4.992h-4.992c0-3.315.057-6.67,0-9.984-.023-1.323.015-2.67,0-3.993h-4.992c-.224-12.956.224-25.98,0-38.936-.023-1.322.015-2.671,0-3.993h-3.993c-.224-12.956.162-25.978,0-38.936-.021-1.654.014-3.337,0-4.992h-4.992c-.158-12.626.117-25.31,0-37.938H56.907c-.033,1.653.049,3.34,0,4.992h-3.993c-.014,1.654.021,3.338,0,4.992-.158,12.627.158,25.311,0,37.938h-4.992c-.014,1.654.021,3.338,0,4.992-.158,12.627.158,25.311,0,37.938h-4.992c-.014,1.654.021,3.338,0,4.992-.158,12.627.158,25.311,0,37.938h-4.992c-.014,1.655.021,3.337,0,4.992-.1,7.971.073,15.989,0,23.961-1.655.014-3.337-.021-4.992,0-2.983.037-6.002-.026-8.985,0-.1-7.959-.1-16.002,0-23.961h4.992c.014-1.654-.021-3.338,0-4.992.158-12.627-.158-25.311,0-37.938h3.993c.014-1.654-.021-3.338,0-4.992.179-14.291-.179-28.639,0-42.93h4.992c.014-1.654-.021-3.338,0-4.992.158-12.623,0-25.313,0-37.938h4.992v-4.992c-1.654-.014-3.338.021-4.992,0-9.633-.121-19.319.089-28.953,0v-13.977H0v-14.976c12.63-.017,25.308.023,37.938,0Z"/>
      <path class="j" d="M267.563,24.039c14.295.064,28.635-.047,42.93,0v4.992h14.976c.026,1.322-.017,2.671,0,3.993h8.985v4.992h9.984v4.992h4.992v4.992h4.992v4.992h3.993v8.985h4.992v9.984h4.992v8.985h4.992c.03,3.316-.042,6.668,0,9.984.021,1.655-.014,3.337,0,4.992h4.992c.058,4.646-.058,9.331,0,13.977.021,1.655-.014,3.337,0,4.992h3.993c.037,2.983-.007,6.002,0,8.985h-3.993v4.992c-4.978,0-9.999-.062-14.976,0-1.655.021-3.337-.014-4.992,0v4.992c-9.299.116-18.653-.022-27.954,0-1.657.004-3.335-.003-4.992,0-3.318.007-6.666-.003-9.984,0-1.657.001-3.335-.002-4.992,0-2.984.004-6.002-.012-8.985,0l.499-4.992h4.493v-18.969c-.176-.176-3.984,0-4.992,0-.023-1.655.034-3.337,0-4.992-.027-1.323.018-2.67,0-3.993h-4.992c-.024-1.654.016-3.337,0-4.992h-4.992v27.455l4.992.499c.009,3.318-.005,6.666,0,9.984-1.654.024-3.337-.016-4.992,0v37.938c0,1.657-.001,3.335,0,4.992-2.983.037-6.002-.026-8.985,0v-8.985h-4.992v-9.485l-4.992-.499c-.006-4.648.01-9.33,0-13.977-.007-3.318.004-6.666,0-9.984-.022-17.622.016-35.291,0-52.914h-4.992c-.058-6.308.079-12.662,0-18.969-.021-1.654.014-3.338,0-4.992h-3.993c-.037-2.98-.037-6.005,0-8.985h8.985v-4.992c-1.655.022-3.338-.033-4.992,0v-18.969Z"/>
      <path class="e" d="M234.617,9.064v4.992c1.655-.022,3.337.033,4.992,0,1.323-.026,2.67.017,3.993,0v-4.992c1.654.024,3.337-.016,4.992,0v4.992c1.653.033,3.34-.049,4.992,0v4.992c1.654.033,3.339-.049,4.992,0,.049,1.652-.033,3.339,0,4.992,1.654.016,3.338-.024,4.992,0,1.322.019,2.671-.006,3.993,0v18.969c-1.323.026-2.671-.017-3.993,0-.014,1.655.021,3.337,0,4.992-.037,2.98-.037,6.005,0,8.985.021,1.655-.014,3.337,0,4.992h3.993c.079,6.307-.058,12.661,0,18.969h4.992c.016,17.622-.022,35.291,0,52.914h-18.969v-4.992h-4.992c-.016-1.655.024-3.338,0-4.992-.019-1.322.006-2.671,0-3.993-.028-6.31.021-12.659,0-18.969h-4.992v-9.984c-1.323-.017-2.671.026-3.993,0v-18.969h-4.992v-4.992h-4.992c-.033-1.654.049-3.339,0-4.992s.033-3.338,0-4.992c-1.654-.033-3.339.049-4.992,0s-3.338.033-4.992,0v-3.993h-8.985c-.017,1.323.026,2.671,0,3.993h-4.992v4.992h4.992c.024,1.655-.016,3.337,0,4.992h4.992v4.992c-1.654.033-3.339-.049-4.992,0s-3.338-.033-4.992,0c-.014,1.655.021,3.337,0,4.992-.058,4.646.042,9.331,0,13.977h-4.493l-.499,4.992c-6.311-.009-12.658.006-18.969,0v-4.992c-1.655-.014-3.337.021-4.992,0-2.983-.037-6.002.026-8.985,0v-4.992h-4.992c-.176-.176,0-3.984,0-4.992h4.992v-3.993c-1.654-.033-3.339.049-4.992,0s-3.338.033-4.992,0v-4.992h4.992v-4.992c0-1.008.176-4.815,0-4.992-1.654-.033-3.339.049-4.992,0-.037-2.983,0-6.002,0-8.985v-4.992c1.653-.049,3.338.033,4.992,0v-4.992h-4.992v-4.992h4.992v-4.992c1.655-.022,3.337.033,4.992,0,1.323-.026,2.67.017,3.993,0v-3.993c1.655-.033,3.337.022,4.992,0v-4.992c1.654-.033,3.339.049,4.992,0s3.338.033,4.992,0v-4.992c2.983-.037,6.002.026,8.985,0v-4.992c4.979-.045,9.997.062,14.976,0,1.655-.021,3.337.014,4.992,0v-4.992c6.305-.079,12.663-.013,18.969,0ZM224.633,19.047h-4.992v4.992h4.992v-4.992ZM243.602,19.047h-3.993v4.992h3.993v-4.992ZM210.656,29.031h-4.992v3.993h4.992v-3.993ZM200.672,33.025h-8.985v4.992h8.985v-4.992ZM258.577,33.025h-4.992v9.984h4.992v-9.984ZM176.711,48h-4.992v4.992h4.992v-4.992ZM258.577,61.977h-4.992v4.992h4.992v-4.992ZM176.711,71.961h-4.992v4.992h4.992v-4.992Z"/>
      <path class="h" d="M344.437,14.056c12.628-.158,25.309.117,37.938,0v4.992h9.984v4.992c1.653.033,3.34-.049,4.992,0v4.992c1.655.022,3.337-.033,4.992,0,1.323.026,2.67-.017,3.993,0,.017,1.323-.026,2.671,0,3.993.033,1.655-.022,3.337,0,4.992h4.992c.049,1.652-.033,3.339,0,4.992h4.992c.008,4.647-.011,9.33,0,13.977.066,28.904.501,57.965,0,86.858-.023,1.322.015,2.671,0,3.993h-4.992v4.992c-7.971.073-15.991-.1-23.961,0,.037-2.983-.026-6.002,0-8.985h-4.992c-.008-4.981.011-9.995,0-14.976-.004-1.658.004-3.334,0-4.992-.007-2.983.037-6.002,0-8.985-.021-1.655.014-3.337,0-4.992h-3.993c-.058-4.646.058-9.331,0-13.977-.021-1.655.014-3.337,0-4.992h-4.992c-.042-3.316.03-6.668,0-9.984h-4.992v-8.985h-4.992v-9.984h-4.992v-8.985h-3.993v-4.992h-4.992v-4.992h-4.992v-4.992h-9.984v-4.992h-8.985c-.017-1.323.026-2.671,0-3.993-.033-1.654.022-3.337,0-4.992,1.655-.022,3.338.033,4.992,0,1.322-.026,2.671.017,3.993,0v-4.992c1.655-.033,3.337.024,4.992,0s3.336.016,4.992,0v-4.992Z"/>
      <path class="e" d="M272.555,143.844c.01,4.648-.006,9.33,0,13.977s-.058,9.334,0,13.977c.021,1.654-.014,3.338,0,4.992h4.992c.024,1.655-.024,3.337,0,4.992-3.316-.042-6.668.03-9.984,0v4.992h4.992c.026,2.984-.037,6.002,0,8.985.021,1.655-.014,3.337,0,4.992.176.176,3.984,0,4.992,0,.079,6.308-.079,12.661,0,18.969.021,1.655-.014,3.337,0,4.992,1.655.016,3.337-.024,4.992,0v9.984c-1.655.019-3.337-.029-4.992,0s-3.336-.019-4.992,0v4.992c-2.98.037-6.005.037-8.985,0-.021-1.655.014-3.337,0-4.992h-4.992c-.042-3.316.03-6.667,0-9.984h-4.992c-.026-2.984.037-6.002,0-8.985-.021-1.655.014-3.337,0-4.992h-4.992c-.016,1.655.024,3.337,0,4.992-.019,1.323.019,2.671,0,3.993h-4.992c-.014,1.655.021,3.337,0,4.992-.042,3.316.03,6.667,0,9.984h-3.993v8.985c-1.655.014-3.337-.021-4.992,0-3.312.041-6.672.041-9.984,0v-3.993c-.176-.176-3.984,0-4.992,0h-3.993c.007-3.316-.042-6.669,0-9.984h3.993c.014-1.655-.021-3.337,0-4.992.079-6.308-.058-12.661,0-18.969h4.992c.058-6.308-.079-12.661,0-18.969h4.992c.014-1.655-.021-3.337,0-4.992.079-6.308-.058-12.66,0-18.969h4.992c.033-1.654-.049-3.339,0-4.992h4.992v-4.992c1.323-.019,2.671.019,3.993,0,1.655-.024,3.337.016,4.992,0v-4.992c3.316-.042,6.668.042,9.984,0,1.655-.021,3.337.014,4.992,0v-3.993c2.984-.037,6.001.026,8.985,0Z"/>
      <path class="e" d="M378.382,128.868h3.993c.011,4.981-.008,9.995,0,14.976h4.992c-.026,2.984.037,6.002,0,8.985-1.654.021-3.338-.014-4.992,0-.014,1.654.021,3.338,0,4.992-.042,3.315.03,6.668,0,9.984-1.322.023-2.671-.015-3.993,0v3.993h-9.984v4.992h-13.977v4.992h-62.897c-.002-1.657.001-3.335,0-4.992,1.654-.021,3.337.014,4.992,0,.014-1.654-.021-3.338,0-4.992.158-12.622.02-25.314,0-37.938,1.654-.024,3.337.007,4.992,0,2.984-.012,6.002.004,8.985,0v4.992c1.655.014,3.337-.021,4.992,0,3.312.041,6.672.041,9.984,0,1.655-.021,3.337.014,4.992,0v-4.992c9.301-.022,18.655.116,27.954,0,1.654-.021,3.337.014,4.992,0v-4.992c4.977-.062,9.998,0,14.976,0Z"/>
      <path class="e" d="M392.359,191.765v13.977h-23.961v9.984h4.992c.086,9.302-.116,18.653,0,27.954.021,1.654-.014,3.337,0,4.992,7.973.013,15.988-.018,23.961,0,4.648.011,9.329-.008,13.977,0v4.992h4.992v4.992h4.992v13.977h3.993v4.992h4.992c-.026,2.983.037,6.002,0,8.985h-4.992c-.033,1.654.049,3.339,0,4.992s.033,3.338,0,4.992h-13.977c-.033-1.654.049-3.339,0-4.992s.033-3.338,0-4.992h-4.992c-.037-2.984.026-6.001,0-8.985h4.992v-4.992h4.992v-4.992c0-1.008.176-4.815,0-4.992h-4.992c-.026-1.322.017-2.671,0-3.993h-4.992v-4.992h-23.961v4.992h4.992c.026,2.984-.037,6.002,0,8.985.021,1.655-.014,3.337,0,4.992h4.992c.049,1.653-.033,3.338,0,4.992h4.992v13.977h-4.992v4.992h-9.984v-4.992h-3.993v-4.992h-4.992c-.017-1.323.026-2.671,0-3.993h4.992c.033-1.654-.049-3.339,0-4.992,1.322-.026,2.671.017,3.993,0,.014-1.655-.021-3.337,0-4.992.042-3.316-.03-6.668,0-9.984h-3.993v-3.993h-4.992v-4.992h-23.961v4.992h-4.992v3.993h-4.992c.03,3.316-.042,6.668,0,9.984.021,1.655-.014,3.337,0,4.992,1.654.033,3.339-.049,4.992,0,.049,1.653-.033,3.338,0,4.992h4.992c-.026,1.322.017,2.671,0,3.993h-4.992v4.992h-4.992v4.992h-8.985v-4.992h-4.992v-13.977h4.992c.033-1.654-.049-3.339,0-4.992h3.993c.014-1.655-.021-3.337,0-4.992.037-2.983-.026-6.002,0-8.985h4.992v-4.992h-23.961v4.992h-4.992c-.017,1.323.026,2.671,0,3.993h-3.993c.007-1.323-.019-2.671,0-3.993.024-1.654-.016-3.338,0-4.992h3.993v-4.992c3.316-.01,6.668.014,9.984,0,11.3-.046,22.645.034,33.945,0,.014-1.654-.021-3.338,0-4.992.158-12.627-.117-25.31,0-37.938h-23.961v-13.977c20.616,0,41.283.085,61.899,0Z"/>
      <path class="e" d="M306.499,262.649c-.009,1.654-.024,3.339,0,4.992s-.016,3.338,0,4.992h3.993v4.992h4.992c-.026,2.983.037,6.003,0,8.985h-4.992c-.033,1.654.049,3.339,0,4.992s.033,3.338,0,4.992h-13.977v-4.992c0-1.008-.176-4.815,0-4.992h4.992v-3.993h-4.992c-.03-3.316.042-6.668,0-9.984,1.655-.024,3.337.016,4.992,0,.041-3.316-.057-6.669,0-9.984h4.992Z"/>
      <path class="h" d="M85.86.078v4.992h4.992c.019,1.323-.019,2.671,0,3.993.024,1.654-.016,3.337,0,4.992h4.992c.042,3.316-.042,6.668,0,9.984.021,1.655-.014,3.337,0,4.992h4.992c.037,2.983-.026,6.002,0,8.985h3.993v14.976h4.992c.026,2.984-.037,6.002,0,8.985.021,1.655-.014,3.337,0,4.992h4.992c.042,3.316-.057,6.668,0,9.984.023,1.323-.015,2.67,0,3.993h4.992c.057,3.314-.042,6.669,0,9.984.021,1.654-.014,3.337,0,4.992,1.654.014,3.338-.021,4.992,0,17.12.214,34.283-.159,51.416,0l.499-4.992c1.654.021,3.337-.014,4.992,0v4.992c6.311.006,12.658-.009,18.969,0s12.66-.026,18.969,0v8.985c-34.926-.042-69.903-.016-104.829,0v-3.993h-4.992v-14.976h-4.992c-.026-2.984.037-6.002,0-8.985-.021-1.655.014-3.337,0-4.992h-3.993c-.042-3.316.042-6.668,0-9.984-.021-1.655.014-3.337,0-4.992h-4.992c-.037-2.984.037-6.002,0-8.985-.021-1.655.014-3.337,0-4.992h-4.992c-.042-3.316.03-6.668,0-9.984h-4.992v-13.977h-4.992V.078c.176-.176,3.984,0,4.992,0Z"/>
      <path class="h" d="M382.375,167.804c6.638-.115,13.328.084,19.967,0v3.993h3.993v14.976h-3.993v4.992c-3.318.01-6.666-.014-9.984,0-20.616.085-41.283,0-61.899,0h-38.936c-.017-3.316.005-6.668,0-9.984h62.897v-4.992h13.977v-4.992h9.984v-3.993c1.322-.015,2.672.023,3.993,0Z"/>
      <path class="f" d="M219.641,239.687v3.993c1.655.014,3.337-.021,4.992,0,3.312.041,6.672.041,9.984,0v9.984h-4.992v13.977h-4.992c.03,3.316-.042,6.668,0,9.984h-4.992v4.992c-1.323.017-2.671-.026-3.993,0-1.655.033-3.337-.022-4.992,0v3.993c-4.968.062-10.008.086-14.976,0v-3.993c0-1.007-.176-4.815,0-4.992,1.653-.033,3.339.049,4.992,0s3.338.033,4.992,0c.033-1.653-.049-3.339,0-4.992s-.033-3.338,0-4.992h4.992c.011-2.984-.016-6.001,0-8.985h4.992c.014-1.655-.021-3.337,0-4.992.058-4.645-.009-9.332,0-13.977h3.993Z"/>
      <path class="h" d="M291.524,272.633c1.655-.024,3.337.024,4.992,0,.042,3.316-.03,6.667,0,9.984h4.992v3.993h-4.992c-.176.176,0,3.984,0,4.992-3.316.041-6.668-.057-9.984,0-1.323.023-2.67-.015-3.993,0v4.992c-4.974.086-9.999-.012-14.976,0-4.482.011-8.985-.008-13.478,0l-.499,4.992c-1.655-.006-3.337.024-4.992,0v-4.992c-1.655-.022-3.338.033-4.992,0-1.322-.026-2.671.017-3.993,0v-4.992h3.993v-4.992h9.984v-3.993c3.317-.01,6.667.014,9.984,0,6.31-.026,12.659.019,18.969,0v-4.992h3.993v-4.992c1.655-.016,3.337.024,4.992,0Z"/>
      <path class="f" d="M282.538,234.695c0,6.307-.079,12.663,0,18.969.021,1.655-.014,3.337,0,4.992h3.993c.019,1.323-.019,2.671,0,3.993.024,1.655-.016,3.337,0,4.992,1.654.033,3.339-.049,4.992,0,.029,1.655-.019,3.336,0,4.992-1.655.024-3.337-.016-4.992,0v4.992h-3.993v4.992c-6.31.019-12.659-.026-18.969,0l.499-4.992h3.494v-4.992h4.992c-.041-3.316.057-6.668,0-9.984-.023-1.323.015-2.67,0-3.993h-4.992c-.057-3.315.041-6.668,0-9.984h-3.993c-.026-2.984.037-6.002,0-8.985,2.98.037,6.005.037,8.985,0,1.655-.021,3.337.014,4.992,0v-4.992c1.655-.029,3.336.019,4.992,0Z"/>
      <path class="h" d="M224.633,277.625c.021,1.654-.014,3.337,0,4.992h4.992c-.026,2.983.037,6.002,0,8.985h-4.992v4.992c-1.654.024-3.337-.006-4.992,0-10.802.041-21.633-.03-32.447,0l-.499,4.992c-3.315-.006-6.669.041-9.984,0v-4.992c-1.655-.022-3.337.033-4.992,0-1.323-.026-2.67.017-3.993,0v-4.992h3.993v-4.992c3.317-.03,6.667.042,9.984,0,1.655-.021,3.337.014,4.992,0v-3.993c1.655-.024,3.337,0,4.992,0v3.993c1.323.015,2.671-.023,3.993,0,4.967.086,10.007.062,14.976,0,1.655-.021,3.337.014,4.992,0v-3.993c1.323-.026,2.67.017,3.993,0v-4.992h4.992Z"/>
      <path class="i" d="M56.907,66.969v33.945c-1.323.026-2.671-.017-3.993,0v3.993c-4.98.005-9.996-.009-14.976,0v-37.938c6.308.058,12.662-.079,18.969,0Z"/>
      <path class="i" d="M61.899,76.953h9.984c.015,1.323-.023,2.671,0,3.993-3.316-.042-6.667.03-9.984,0-.003-1.325.006-2.668,0-3.993Z"/>
      <path class="i" d="M66.891,95.922c-.049,1.653.033,3.338,0,4.992-1.655.016-3.337-.024-4.992,0v3.993c-1.657.001-3.335-.001-4.992,0v-3.993c1.654-.033,3.337.024,4.992,0v-4.992c1.655-.019,3.337.029,4.992,0Z"/>
      <path class="i" d="M71.883,90.93c-.021,1.655.014,3.337,0,4.992-1.655.019-3.337-.029-4.992,0,.049-1.653-.033-3.338,0-4.992,1.654-.033,3.339.049,4.992,0Z"/>
      <path class="i" d="M71.883,80.946c1.655.021,3.337-.014,4.992,0v9.984c-1.654.033-3.339-.049-4.992,0,.041-3.31.057-6.675,0-9.984Z"/>
      <path class="i" d="M416.32,56.985l4.992.499v85.86l-4.992.499c.501-28.893.066-57.954,0-86.858Z"/>
      <path class="h" d="M56.907,100.914v3.993c-1.325.001-2.668-.001-3.993,0v-3.993c1.323-.017,2.671.026,3.993,0Z"/>
      <path class="h" d="M56.907,66.969c1.654.021,3.338-.014,4.992,0,.011,3.316-.015,6.668,0,9.984.006,1.325-.003,2.668,0,3.993.011,4.979,0,9.997,0,14.976v4.992c-1.655.024-3.338-.033-4.992,0v-33.945Z"/>
      <path class="i" d="M219.641,296.594l-.499,4.992c-10.814-.015-21.644.021-32.447,0l.499-4.992c10.814-.03,21.644.041,32.447,0Z"/>
      <path class="i" d="M373.39,243.68h23.462l.499,4.992c-7.973-.018-15.988.013-23.961,0-.014-1.654.021-3.338,0-4.992Z"/>
      <path class="i" d="M267.563,296.594l-.499,4.992c-4.492-.012-8.997.017-13.478,0l.499-4.992c4.493-.008,8.996.011,13.478,0Z"/>
      <path class="i" d="M32.946,296.594l-.499,4.992h-8.486c-.014-1.655.021-3.337,0-4.992,2.983-.026,6.002.037,8.985,0Z"/>
      <path class="h" d="M157.742,52.992c0,2.984-.037,6.002,0,8.985,1.653.049,3.338-.033,4.992,0,.176.176,0,3.984,0,4.992h-4.992c-.014-1.655.021-3.337,0-4.992-1.653-.049-3.338.033-4.992,0,.026-2.984-.037-6.002,0-8.985h4.992Z"/>
      <path class="i" d="M243.602,296.594c1.654.033,3.337-.022,4.992,0v4.992c-1.655-.024-3.337.016-4.992,0v-4.992Z"/>
      <path class="i" d="M85.86.078h4.992c.016,1.655-.024,3.337,0,4.992h-4.992V.078Z"/>
      <path class="i" d="M171.719,296.594c1.654.033,3.337-.022,4.992,0v4.992c-1.654-.021-3.337.014-4.992,0v-4.992Z"/>
      <path class="i" d="M95.843,56.985h4.992c.014,1.655-.021,3.337,0,4.992h-4.992c-.014-1.655.021-3.337,0-4.992Z"/>
      <path class="i" d="M119.804,90.93h4.992v4.992c-1.654-.021-3.337.014-4.992,0-.014-1.654.021-3.338,0-4.992Z"/>
      <path class="i" d="M157.742,48v4.992h-4.992c.021-1.655-.014-3.337,0-4.992,1.654-.033,3.339.049,4.992,0Z"/>
      <path class="i" d="M90.852,43.008h4.992c.014,1.655-.021,3.337,0,4.992h-4.992c-.014-1.655.021-3.337,0-4.992Z"/>
      <path class="i" d="M229.625,291.602c-.021,1.654.014,3.337,0,4.992-1.654.016-3.338-.024-4.992,0v-4.992h4.992Z"/>
      <path class="h" d="M430.297,286.61c-.021,1.654.014,3.337,0,4.992h-4.992c.049-1.653-.033-3.338,0-4.992h4.992Z"/>
      <path class="i" d="M406.336,33.025h4.992c.033,1.653-.049,3.34,0,4.992h-4.992c-.022-1.655.033-3.337,0-4.992Z"/>
      <path class="i" d="M109.821,61.977h4.992c.014,1.655-.021,3.337,0,4.992h-4.992c-.014-1.655.021-3.337,0-4.992Z"/>
      <path class="i" d="M406.336,286.61h4.992c.033,1.654-.049,3.339,0,4.992h-4.992c-.014-1.655.021-3.337,0-4.992Z"/>
      <path class="i" d="M315.485,286.61c-.021,1.654.014,3.337,0,4.992h-4.992c.049-1.653-.033-3.338,0-4.992h4.992Z"/>
      <path class="h" d="M382.375,272.633c-.021,1.655.014,3.337,0,4.992-1.323.017-2.671-.026-3.993,0-.049,1.653.033,3.338,0,4.992h-4.992c-.033-1.654.022-3.337,0-4.992,1.655-.022,3.338.033,4.992,0,.049-1.653-.033-3.338,0-4.992h3.993Z"/>
      <path class="i" d="M37.938,133.86c1.654.021,3.338-.014,4.992,0v4.992h-4.992v-4.992Z"/>
      <path class="i" d="M344.437,277.625c1.653.049,3.338-.033,4.992,0-.022,1.655.033,3.338,0,4.992h-4.992c-.033-1.654.049-3.339,0-4.992Z"/>
      <path class="h" d="M253.586,14.056c1.652.049,3.339-.033,4.992,0,.033,1.653-.049,3.34,0,4.992,1.653.049,3.338-.033,4.992,0v4.992c-1.654-.024-3.337.016-4.992,0-.033-1.653.049-3.34,0-4.992-1.653-.049-3.338.033-4.992,0v-4.992Z"/>
      <path class="i" d="M90.852,9.064h4.992c.014,1.655-.021,3.337,0,4.992h-4.992c-.016-1.655.024-3.337,0-4.992Z"/>
      <path class="h" d="M339.445,272.633h4.992c.033,1.654-.049,3.339,0,4.992-1.653-.049-3.338.033-4.992,0-.014-1.655.021-3.337,0-4.992Z"/>
      <path class="i" d="M387.367,152.829c-.021,1.655.014,3.337,0,4.992h-4.992c.021-1.654-.014-3.338,0-4.992,1.654-.014,3.338.021,4.992,0Z"/>
      <path class="i" d="M397.351,24.039c1.652.049,3.339-.033,4.992,0v4.992c-1.655-.033-3.337.022-4.992,0v-4.992Z"/>
      <path class="i" d="M215.648,9.064v4.992c-1.655.014-3.337-.021-4.992,0v-4.992c1.655-.014,3.337.021,4.992,0Z"/>
      <path class="i" d="M95.843,24.039h4.992c.014,1.655-.021,3.337,0,4.992h-4.992c-.014-1.655.021-3.337,0-4.992Z"/>
      <path class="h" d="M186.695,171.798h4.992c.014,1.654-.021,3.338,0,4.992h-4.992c-.014-1.654.021-3.338,0-4.992Z"/>
      <path class="i" d="M37.938,176.79c-.021,1.654.014,3.337,0,4.992h-4.992c.021-1.654-.014-3.337,0-4.992h4.992Z"/>
      <path class="h" d="M52.914,181.782c-.021,1.654.014,3.337,0,4.992h-4.992c.021-1.654-.014-3.337,0-4.992h4.992Z"/>
      <path class="d" d="M205.664,272.633c-.049,1.652.033,3.338,0,4.992-1.653.033-3.339-.049-4.992,0v-4.992h4.992Z"/>
      <path class="h" d="M387.367,267.641h4.992c.033,1.654-.049,3.339,0,4.992h-4.992c-.014-1.655.021-3.337,0-4.992Z"/>
      <path class="h" d="M248.594,215.726c.024-1.655-.016-3.337,0-4.992h4.992c.014,1.655-.021,3.337,0,4.992h-4.992Z"/>
      <path class="h" d="M42.93,267.641c-.021,1.654.014,3.337,0,4.992h-4.992c.021-1.654-.014-3.337,0-4.992h4.992Z"/>
      <path class="h" d="M28.953,267.641c-.021,1.654.014,3.337,0,4.992h-4.992c.021-1.654-.014-3.337,0-4.992h4.992Z"/>
      <path class="i" d="M248.594,219.72c-.024,1.655.016,3.337,0,4.992h-4.992c.021-1.655-.014-3.337,0-4.992h4.992Z"/>
      <path class="h" d="M411.328,262.649h4.992c.176.176,0,3.984,0,4.992h-4.992c-.022-1.654.033-3.338,0-4.992Z"/>
      <path class="h" d="M239.608,9.064v4.992c-1.655.033-3.337-.022-4.992,0v-4.992c1.655.003,3.337-.008,4.992,0Z"/>
      <path class="h" d="M47.922,224.711c-.021,1.654.014,3.337,0,4.992h-4.992c.021-1.654-.014-3.337,0-4.992h4.992Z"/>
      <path class="h" d="M258.577,234.695h4.992c.014,1.655-.021,3.337,0,4.992-1.655-.021-3.337.014-4.992,0-.014-1.655.021-3.337,0-4.992Z"/>
      <path class="h" d="M186.695,19.047v4.992c-1.654.033-3.339-.049-4.992,0v-4.992c1.655-.014,3.337.021,4.992,0Z"/>
      <path class="i" d="M344.437,14.056v4.992c-1.655.016-3.337-.024-4.992,0v-4.992c1.655-.014,3.337.021,4.992,0Z"/>
      <path class="i" d="M243.602,9.064v4.992c-1.323.017-2.67-.026-3.993,0v-4.992c1.323.006,2.671-.019,3.993,0Z"/>
      <path class="h" d="M195.68,258.656h4.992c.015,1.323-.023,2.671,0,3.993h-4.992c-.015-1.322.023-2.671,0-3.993Z"/>
      <path class="j" d="M267.563,258.656h4.992c.015,1.323-.023,2.671,0,3.993h-4.992c-.015-1.323.023-2.671,0-3.993Z"/>
      <path class="h" d="M32.946,224.711c-.021,1.654.014,3.337,0,4.992h-3.993c.021-1.654-.014-3.337,0-4.992h3.993Z"/>
      <path class="h" d="M310.493,262.649c-.033,1.654.022,3.337,0,4.992h-3.993c-.024-1.653-.009-3.338,0-4.992h3.993Z"/>
      <path class="h" d="M306.499,258.656c-.019,1.322.007,2.671,0,3.993h-4.992c.023-1.323-.015-2.671,0-3.993h4.992Z"/>
      <path class="h" d="M334.454,267.641c-.021,1.655.014,3.337,0,4.992h-3.993c.049-1.653-.033-3.338,0-4.992h3.993Z"/>
      <path class="i" d="M334.454,19.047v4.992c-1.323.017-2.671-.026-3.993,0v-4.992c1.323-.017,2.671.026,3.993,0Z"/>
      <path class="i" d="M100.835,71.961h3.993c.014,1.655-.021,3.337,0,4.992h-3.993c-.014-1.655.021-3.337,0-4.992Z"/>
      <path class="i" d="M56.907,138.852c-.049,1.652.033,3.339,0,4.992h-3.993c.021-1.654-.014-3.337,0-4.992h3.993Z"/>
      <path class="i" d="M186.695,282.617v3.993c-1.655.014-3.337-.021-4.992,0v-3.993c1.656-.016,3.337.024,4.992,0Z"/>
      <path class="i" d="M114.812,76.953h4.992c.015,1.322-.023,2.671,0,3.993h-4.992c-.015-1.323.023-2.671,0-3.993Z"/>
      <path class="i" d="M286.532,291.602v4.992c-1.323.015-2.671-.023-3.993,0v-4.992c1.323-.015,2.671.023,3.993,0Z"/>
      <path class="i" d="M162.734,76.953c1.653.049,3.338-.033,4.992,0v3.993h-4.992v-3.993Z"/>
      <path class="g" d="M195.68,282.617v3.993c-1.323-.023-2.67.015-3.993,0v-3.993h3.993Z"/>
      <path class="h" d="M171.719,29.031v3.993c-1.323.017-2.671-.026-3.993,0v-3.993c1.323-.017,2.671.026,3.993,0Z"/>
      <path class="h" d="M191.687,215.726h3.993c.015,1.322-.023,2.671,0,3.993h-3.993c-.015-1.322.023-2.671,0-3.993Z"/>
      <path class="g" d="M215.648,253.664c-.021,1.655.014,3.337,0,4.992h-4.992c.009-1.655-.004-3.337,0-4.992h4.992Z"/>
      <path class="h" d="M205.664,215.726h4.992c.015,1.323-.023,2.671,0,3.993h-4.992c-.015-1.322.023-2.671,0-3.993Z"/>
      <path class="i" d="M200.672,167.804h4.992c.015,1.322-.023,2.671,0,3.993h-4.992c-.015-1.322.023-2.672,0-3.993Z"/>
      <path class="f" d="M272.555,157.821l4.992.499v9.485h4.992v8.985c2.983-.026,6.002.037,8.985,0,.001,1.657-.002,3.335,0,4.992.005,3.316-.017,6.668,0,9.984.016,2.984-.011,6.002,0,8.985h4.992c.176.176,0,3.985,0,4.992h-4.992v4.992c0,1.007-.176,4.815,0,4.992h9.984v8.985c-4.979-.016-9.996.022-14.976,0v-4.992c-1.323-.018-2.67.027-3.993,0-1.655-.034-3.337.023-4.992,0-.079-6.308.079-12.661,0-18.969h4.992c-.042-4.646.058-9.332,0-13.977-.021-1.655.014-3.337,0-4.992-1.655-.014-3.337.021-4.992,0-.024-1.655.024-3.337,0-4.992s.016-3.337,0-4.992h-4.992c-.058-4.644.006-9.333,0-13.977Z"/>
      <path class="f" d="M296.515,133.86c.02,12.624.158,25.316,0,37.938h-4.992v-37.938c1.654-.016,3.338.024,4.992,0Z"/>
      <path class="f" d="M296.515,123.876l-4.992-.499v-27.455h4.992c.016,1.654-.024,3.338,0,4.992.019,1.322-.006,2.671,0,3.993.008,1.655-.004,3.337,0,4.992.01,4.648-.013,9.329,0,13.977Z"/>
      <path class="f" d="M325.468,133.86v4.992c-3.312.041-6.672.041-9.984,0v-4.992c3.318-.003,6.666.007,9.984,0Z"/>
      <path class="f" d="M267.563,43.008c1.654-.033,3.337.022,4.992,0v4.992h-8.985c.021-1.655-.014-3.337,0-4.992,1.323-.017,2.671.026,3.993,0Z"/>
      <path class="i" d="M373.39,90.93h4.992c.014,1.655-.021,3.337,0,4.992h-4.992c-.014-1.655.021-3.337,0-4.992Z"/>
      <path class="i" d="M301.507,104.907c.034,1.655-.023,3.337,0,4.992h-4.992c-.004-1.655.008-3.337,0-4.992h4.992Z"/>
      <path class="d" d="M363.406,128.868v4.992c-1.655.014-3.337-.021-4.992,0v-4.992c1.655-.014,3.337.021,4.992,0Z"/>
      <path class="d" d="M315.485,133.86v4.992c-1.655-.021-3.337.014-4.992,0v-4.992c1.657-.002,3.335.001,4.992,0Z"/>
      <path class="d" d="M330.46,133.86v4.992c-1.655.014-3.337-.021-4.992,0v-4.992c1.657-.003,3.335.004,4.992,0Z"/>
      <path class="d" d="M296.515,171.798c-.021,1.654.014,3.337,0,4.992-1.654.014-3.338-.021-4.992,0-.001-1.657,0-3.335,0-4.992h4.992Z"/>
      <path class="f" d="M263.569,56.985h3.993c.014,1.654-.021,3.338,0,4.992h-3.993c-.014-1.655.021-3.337,0-4.992Z"/>
      <path class="i" d="M382.375,123.876c.004,1.658-.004,3.334,0,4.992h-3.993v-4.992h3.993Z"/>
      <path class="f" d="M378.382,109.899h3.993c.014,1.655-.021,3.337,0,4.992h-3.993c-.014-1.655.021-3.337,0-4.992Z"/>
      <path class="f" d="M210.656,56.985c.026-1.322-.017-2.671,0-3.993h8.985v3.993c1.654.033,3.339-.049,4.992,0v4.992h4.992c.049,1.653-.033,3.338,0,4.992h4.992v4.992h4.992v18.969c-1.654-.033-3.338.022-4.992,0v9.984h-4.992v-4.992c-3.316-.01-6.667.014-9.984,0-6.309-.026-12.659.009-18.969,0l.499-4.992h4.493c.042-4.646-.058-9.332,0-13.977h4.992v-4.992c1.653-.049,3.338.033,4.992,0v-4.992h-4.992c-.016-1.655.024-3.337,0-4.992s-.033-3.341,0-4.992Z"/>
      <rect class="h" x="253.586" y="33.025" width="4.992" height="9.984"/>
      <rect class="h" x="191.687" y="33.025" width="8.985" height="4.992"/>
      <rect class="h" x="171.719" y="71.961" width="4.992" height="4.992"/>
      <path class="d" d="M210.656,71.961v4.992h-4.992c.021-1.655-.014-3.337,0-4.992,1.654-.033,3.339.049,4.992,0Z"/>
      <rect class="h" x="171.719" y="48" width="4.992" height="4.992"/>
      <rect class="h" x="253.586" y="61.977" width="4.992" height="4.992"/>
      <path class="d" d="M210.656,56.985c-.033,1.651-.024,3.34,0,4.992h-4.992v-4.992h4.992Z"/>
      <path class="d" d="M224.633,56.985c1.653.049,3.338-.033,4.992,0,.033,1.654-.049,3.339,0,4.992h-4.992v-4.992Z"/>
      <rect class="h" x="219.641" y="19.047" width="4.992" height="4.992"/>
      <rect class="h" x="239.608" y="19.047" width="3.993" height="4.992"/>
      <rect class="h" x="205.664" y="29.031" width="4.992" height="3.993"/>
      <path class="h" d="M248.594,119.883c.006,1.323-.019,2.671,0,3.993h-4.992v-3.993h4.992Z"/>
      <path class="h" d="M248.594,147.837v4.992c-1.655.016-3.337-.024-4.992,0v-4.992c1.655-.014,3.337.021,4.992,0Z"/>
      <path class="h" d="M239.608,152.829v4.992h-4.992c.049-1.653-.033-3.338,0-4.992,1.655-.016,3.337.024,4.992,0Z"/>
      <path class="d" d="M272.555,171.798h4.992c.016,1.655-.024,3.337,0,4.992h-4.992c-.014-1.654.021-3.338,0-4.992Z"/>
      <path class="h" d="M229.625,181.782c-.021,1.655.014,3.337,0,4.992h-4.992c.021-1.654-.014-3.337,0-4.992h4.992Z"/>
      <path class="i" d="M272.555,195.759h4.992c.014,1.655-.021,3.337,0,4.992-1.007,0-4.815.176-4.992,0-.014-1.655.021-3.337,0-4.992Z"/>
      <path class="h" d="M282.538,219.72v4.992c-1.654-.024-3.337.016-4.992,0-.014-1.655.021-3.337,0-4.992,1.655.023,3.337-.034,4.992,0Z"/>
      <path class="d" d="M277.546,234.695v4.992c-1.655.014-3.337-.021-4.992,0v-4.992c1.655-.019,3.337.029,4.992,0Z"/>
      <path class="d" d="M219.641,239.687c1.008,0,4.815-.176,4.992,0v3.993c-1.655-.021-3.337.014-4.992,0v-3.993Z"/>
      <path class="i" d="M219.641,224.711c-.021,1.654.014,3.337,0,4.992h-3.993c.021-1.655-.014-3.337,0-4.992h3.993Z"/>
      <path class="h" d="M263.569,143.844v3.993c-1.655.014-3.337-.021-4.992,0v-3.993c1.655-.014,3.337.021,4.992,0Z"/>
      <path class="i" d="M354.421,243.68c-.021,1.654.014,3.337,0,4.992-11.3.034-22.645-.046-33.945,0l.499-4.992h33.445Z"/>
      <path class="g" d="M215.648,282.617v3.993c-1.655.014-3.337-.021-4.992,0v-3.993c1.655-.022,3.337.033,4.992,0Z"/>
      <path class="i" d="M291.524,267.641c1.653.049,3.338-.033,4.992,0,.014,1.655-.021,3.337,0,4.992-1.655.024-3.337-.024-4.992,0-.019-1.655.029-3.337,0-4.992Z"/>
      <path class="j" d="M286.532,262.649h4.992c.019,1.655-.029,3.337,0,4.992-1.653-.049-3.338.033-4.992,0-.016-1.655.024-3.337,0-4.992Z"/>
      <path class="j" d="M282.538,253.664h3.993c.016,1.655-.024,3.337,0,4.992h-3.993c-.014-1.655.021-3.337,0-4.992Z"/>
      <path class="j" d="M277.546,181.782c1.655.021,3.337-.014,4.992,0,.014,1.655-.021,3.337,0,4.992h-4.992c-.016-1.655.024-3.337,0-4.992Z"/>
      <rect class="j" x="291.524" y="205.742" width="4.992" height="4.992"/>
      <path class="j" d="M282.538,219.72c1.323.027,2.67-.018,3.993,0v4.992c-1.323-.006-2.671.019-3.993,0v-4.992Z"/>
    </g>
  </g>
</svg>