<?xml version="1.0" encoding="UTF-8"?>
<svg id="b" data-name="Layer 2" xmlns="http://www.w3.org/2000/svg" width="474.354" height="539.16" viewBox="0 0 474.354 539.16">
  <defs>
    <style>
      .d {
        fill: #aa1f65;
      }

      .e {
        fill: #49f669;
      }

      .f {
        fill: #2b0f54;
      }

      .g {
        fill: #339a78;
      }
    </style>
  </defs>
  <g id="c" data-name="Layer 1">
    <g>
      <path class="g" d="M220.706,341.455c1.945,1.259,1.943,2.733,0,3.994-.002,2.922-3.336,2.798-3.994,0v-3.994c1.259-1.945,2.734-1.944,3.994,0Z"/>
      <path class="g" d="M192.751,7.987c8.146-1.702,16.394-2.618,24.666-1.33,1.472,4.659,1.903,9.743,1.292,15.251l1.997,2.054c1.468-2.521,2.526-2.527,3.994,0,.028,1.323-.019,2.67,0,3.994-4.252,5.255-2.159,6.248,3.994,8.986,1.042-1.782,2.374-3.113,3.994-3.994,1.323.018,2.671-.028,3.994,0,2.922.002,2.798,3.336,0,3.994,1.602.146,2.245.77,1.946,2.209,6.067-.588,12.101.342,18.022,1.785,1.26-1.945,2.735-1.946,3.994,0,2.361,1.74,5.023,3.072,7.987,3.994,1.262-1.943,2.736-1.947,3.994,0,2.37,1.63,5.032,2.962,7.987,3.994,2.542,1.455,2.539,2.537,0,3.994,1.26-1.948,2.736-1.95,3.994,0,2.544,1.462,2.548,2.533,0,3.994-1.261,1.943-2.735,1.945-3.994,0-2.922-.002-2.798-3.336,0-3.994-1.259,1.942-2.733,1.94-3.994,0-1.47,2.522-2.524,2.518-3.994,0-1.46,1.29-1.46,2.704,0,3.994,1.497.787,2.828,2.118,3.994,3.994,1.261-1.919,2.733-1.919,3.994,0,3.341,2.025,6.004,4.688,7.987,7.987,1.441,1.038,3.052,1.933,4.835,2.686.697,2.455,1.613,3.564,2.748,3.328,2.04,2.368,4.171,4.611,6.394,6.731-.5,2.516.166.931,1.997-4.758-5.126,5.191-8.03-2.054-3.994-7.987-3.442,4.773-8.767-.551-3.994-3.994-1.471,2.517-2.522,2.514-3.994,0-2.514-1.471-2.517-2.522,0-3.994-3.556,5.22-9.091-1.713-3.994-3.994,1.458-2.533,2.537-2.538,3.994,0,2.54,1.453,2.537,2.539,0,3.994,1.465-2.526,2.53-2.532,3.994,0,2.532,1.464,2.526,2.529,0,3.994,1.454-2.537,2.54-2.54,3.994,0,2.538,1.457,2.533,2.535,0,3.994,1.465-2.526,2.53-2.532,3.994,0,2.525,2.749,2.514,5.232,0,7.987,1.471-2.514,2.522-2.517,3.994,0,1.659,1.352,3.323,2.683,4.992,3.994,5.063,8.503.566,10.708-6.989,10.104-.238,3.295-2.901,4.626-7.987,3.994-.235,3.294-2.897,4.625-7.987,3.994-.235,3.294-2.897,4.625-7.987,3.994.11,1.613-.329,3.027-1.919,3.615l-10.062.378c.213,5.569-12.235,5.551-12.101-.12-2.653.265-3.888-1.427-3.994-3.994-2.653.265-3.888-1.427-3.994-3.994-2.692.271-3.81-1.437-4.05-3.994-4.867.827-7.53-.504-7.987-3.994-5.051,1.058-11.342-2.157-5.814-5.99-.066.525-.182,1.005-.471,1.331-.848.954-19.355.907-22.035.666l-1.456-1.997c2.922.002,2.798,3.336,0,3.994l-1.138,1.997c-3.293.57-13.417.9-14.836-1.997,5.731,3.333-.689,7.079-5.99,6.11.27,2.689-1.427,3.808-3.994,4.05.834,4.773-.498,7.471-3.994,8.093l.12,7.706c3.296.239,4.627,2.902,3.994,7.987,2.689-.27,3.808,1.427,4.05,3.994,5.131-.812,7.734.559,7.811,4.113,6.44-.895,12.43-.27,17.971,1.877,1.042-1.782,2.374-3.113,3.994-3.994,1.463-2.54,2.532-2.544,3.994,0,2.922.002,2.798,3.336,0,3.994,1.095.125,1.943.79,2.545,1.997l36.872.018c2.888,1.019,3.837,5.142.52,5.973l1.144-1.997h17.395l1.429,1.997c2.133,1.757,5.13,2.642,8.988,2.655l2.993,1.339c2.37,1.63,5.032,2.962,7.987,3.994,1.622.974,2.953,2.305,3.994,3.994,1.845,1.614,4.242,2.496,7.191,2.646l1.795,1.348c1.654.968,3.054,2.373,3.994,3.994,1.654.968,3.054,2.374,3.994,3.994,1.009,3.098,2.34,5.76,3.994,7.987,1.689,1.041,3.02,2.372,3.994,3.994,1.032,2.955,2.363,5.617,3.994,7.987,2.054,5.211,2.705,10.72,1.312,16.155.666-2.007,1.464-1.043,2.682.818,2.06,8.227,2.082,16.263,1.331,24.641-.129,1.439-5.427,2.345-5.325-.679l1.997,1.138c.57,3.293.9,13.417-1.997,14.836-1.534,2.17-2.429,5.109-2.683,8.817-3.027.567-4.137,2.799-3.328,6.698-2.352,1.618-4.181,3.605-5.487,5.96l-2.48.61c.265,2.653-1.427,3.888-3.994,3.994.243,3.386-2.091,3.98-4.992,3.994.265,2.653-1.427,3.888-3.994,3.994.266,2.65-1.426,3.888-3.994,3.994-.238,3.295-2.9,4.626-7.987,3.994l-.024,1.473c-2.406,1.738-4.369,3.783-5.889,6.136l-10.062.378c-.588,2.903-3.25,4.466-7.987,4.691l-1.997,1.18c-1.645,3.271-14.04,3.128-15.974,0l1.997,1.144v17.395l-1.997,1.429c.002-2.922,3.336-2.798,3.994,0l1.997,1.144v17.395l-1.997,1.429-1.144,1.997h-17.395l-1.429-1.997c3.117-.958,1.979,5.126.738,5.321-5.805.911-11.132.64-16.712-1.327l-1.997-.903v-24.922c-3.267-.344-4.692-3.051-4.275-8.121-5.081.532-16.454.245-9.702-5.99-.095.778-.331,1.926-.903,1.997-4.388.54-21.491.698-25.593,0l-1.459-1.997c-2.814-2.002-6.65-2.674-11.508-2.017-1.927-.583-2.437-2.158-2.646-3.974-4.818.832-7.497-.499-8.037-3.994-5.407.918-8.367-.413-8.88-3.994-2.65.266-3.888-1.426-3.994-3.994-4.106-.002-5.516-4.236-1.877-5.99,6.173-4.745,8.998-1.198,11.981,3.994,1.627,1.612,3.426,2.282,5.398,2.009l3.588,1.985c1.02,2.267,1.985,2.947,2.893,2.041l5.095,1.953c1.591.306,2.922,1.638,3.994,3.994,2.767-2.449,5.22-2.449,7.987,0,3.53,2.913,11.063,2.745,16.448,1.977-1.894-.62-2.672-2.201-2.47-4.093-3.458.37-6.801-.597-9.984-1.877-1.26,1.943-2.735,1.944-3.994,0-2.521-1.107-5.183-2.438-7.987-3.994-1.02-2.267-1.985-2.947-2.893-2.041l-5.094-1.953c-1.591-.306-2.922-1.638-3.994-3.994-1.261,1.922-2.734,1.923-3.994,0-2.325-1.586-3.613-2.18-7.191-2.646l-1.795-1.348c-1.738-.612-3.07-1.943-3.994-3.994-3.53-1.75-6.192-4.412-7.987-7.987-2.024-2.052-7.247-3.637-3.994,0,2.922.002,2.798,3.336,0,3.994,2.517,1.471,2.514,2.523,0,3.994,3.028-5.135,9.128.966,3.994,3.994,3.028-5.135,9.129.966,3.994,3.994-3.497,4.962-8.949-1.056-3.994-3.994-2.937,4.955-8.955-.495-3.994-3.994-1.766,3.813-6.094,1.879-6.11-1.997-3.294-.235-4.625-2.898-3.994-7.987-2.653.265-3.888-1.427-3.994-3.994-6.904-1.714-4.689-12.264,2.117-13.978,3.482-1.954,7.346-2.746,11.105-1.296-1.949-.668-.935-1.528.876-2.698,3.666-1.482,7.366-2.642,11.154-1.31-2-.666-1.026-1.474.826-2.684,4.004-1.497,8.042-2.642,12.164-1.313-2.011-.667-1.046-1.461.815-2.681,1.825-1.2,3.862-1.822,5.99-2.117-.246-5.537,12.201-5.583,12.101.12,2.653-.266,3.888,1.427,3.994,3.994,3.296.24,4.627,2.902,3.994,7.987,2.606-.291,4.123,1.572,3.874,4.113,2.219-.52,4.288.404,5.99,1.877,2.361,1.74,5.023,3.072,7.987,3.994l2.547,2.002c12.923.018,25.868.017,38.836-.005l2.547-1.997,3.992-1.335c3.488-.113,5.783-.734,7.989-2.659,1.557-3.525,3.554-5.561,5.99-6.11-.271-2.692,1.436-3.81,3.994-4.05-.833-4.775.498-7.472,3.994-8.093v-7.079c-3.329-.964-4.719-3.835-4.17-8.613-4.868.827-7.53-.504-7.987-3.994-5.053,1.058-11.342-2.158-5.814-5.99-.096.774-.308,1.893-.895,1.997-5.107.907-23.92.548-29.606,0l-1.449-1.997c-2.922-.002-2.798-3.336,0-3.994-.21.782-.547,1.935-1.169,1.997-7.564.749-25.953.93-33.308,0l-1.466-1.997c-2.922-.002-2.798-3.336,0-3.994-1.645,3.271-14.04,3.128-15.974,0-1.483.096-2.242-.902-2.278-2.995-6.649,1.195-10.624-.137-11.925-3.994-5.34.927-8.319-.404-8.936-3.994-4.927.82-7.571-.511-7.931-3.994-2.651.267-3.889-1.428-3.994-3.994-2.653.266-3.888-1.428-3.994-3.994-3.297-.243-4.628-2.906-3.994-7.987l-1.473-.024c-1.738-2.406-3.783-4.369-6.136-5.889l-.378-10.062c-.795.073-3.179-.979-3.207-1.288-1.317-14.861-1.222-29.928,1.33-44.639,1.471-2.517,2.522-2.514,3.994,0,1.951,7.964,1.944,15.997,0,23.962,1.944,1.258,1.941,2.733,0,3.994.852,1.85,3.102,7.008,2.701,7.097-1.139.252-1.107-6,1.292-7.097l1.997-2.492.018-20.952c.56-1.952,2.144-2.48,3.976-2.691l.021-5.355c2.666-2.183,4.656-4.999,5.97-8.447.786-1.498,2.118-2.829,3.994-3.994-2.523-1.468-2.528-2.526,0-3.994.306-1.591,1.638-2.922,3.994-3.994,1.589-3.142,3.586-5.41,5.99-6.805v-2.032c-1.174,1.931-3.171,3.546-5.99,4.844-.306,1.591-1.638,2.922-3.994,3.994-2.091,3.871-4.334,6.081-7.987,7.987-.002,2.922-3.336,2.798-3.994,0,2.711,4.477,3.369,9.441-1.997,10.16.691,4.828-1.195,11.037-5.99,5.814-1.959-2.623-1.963-5.366,0-7.987-1.945-1.261-1.948-2.736,0-3.994.974-1.622,2.305-2.953,3.994-3.994.002-2.922,3.336-2.798,3.994,0-1.951-2.626-1.965-5.369,0-7.987.974-1.622,2.305-2.953,3.994-3.994.786-1.498,2.117-2.829,3.994-3.994l3.994-3.994c1.04-1.689,2.372-3.02,3.994-3.994,1.041-1.689,2.372-3.02,3.994-3.994,3.426-.94,6.421-2.271,8.986-3.994,1.556-1.047,3.266-1.621,5.094-1.953,3.763-.683.411,1.408.892-.039.308-.929,1.214-1.509,2.001-2.002,2.955-1.033,5.617-2.364,7.987-3.994,3.227-1.256,6.559-2.382,9.984-1.739v-21.143l-1.997-2.078c-1.468,2.521-2.526,2.527-3.994,0-.028-1.321-.01-2.672,0-3.994,1.62-1.199,2.528-2.827,2.724-4.883,3.531-.583,6.617-1.618,9.257-3.104,1.259-1.946,2.733-1.945,3.994,0Z"/>
      <path class="g" d="M123.861,80.871c2.528,1.467,2.534,2.528,0,3.994.002,2.922-3.333,2.791-3.994,0,.028-1.322-.018-2.671,0-3.994h3.994Z"/>
      <path class="g" d="M308.566,72.884h4.992c.018,1.323-.028,2.671,0,3.994-.074,2.977-4.458,2.754-4.992,0-2.526-1.459-2.52-2.534,0-3.994Z"/>
      <path class="g" d="M304.572,148.762c1.323.028,2.671-.018,3.994,0v3.994c-1.465,2.533-2.529,2.538-3.994,0-2.922.002-2.791-3.333,0-3.994Z"/>
      <path class="g" d="M139.835,60.903c2.528,1.459,2.534,2.536,0,3.994-1.464,2.532-2.529,2.526-3.994,0,2.525,1.465,2.531,2.53,0,3.994-1.466,2.534-2.527,2.528-3.994,0,.028-1.322-.018-2.671,0-3.994,1.323-.018,2.671.028,3.994,0,.028-1.323-.018-2.67,0-3.994,1.323-.018,2.671.028,3.994,0Z"/>
      <path class="g" d="M337.52,197.684h3.994c.015,1.323-.023,2.671,0,3.994-1.465,2.534-2.53,2.541-3.994,0-1.944-1.259-1.943-2.733,0-3.994Z"/>
      <path class="g" d="M156.808,225.64c1.972,1.257,1.972,2.736,0,3.994-1.601,1.956-3.387,1.951-4.992,0v-3.994c.074-2.977,4.458-2.754,4.992,0Z"/>
      <path class="g" d="M284.604,48.922c1.322.028,2.671-.018,3.994,0v3.994c-1.47,2.518-2.524,2.522-3.994,0-2.919.002-2.791-3.336,0-3.994Z"/>
      <path class="g" d="M417.392,273.563c3.097,2.831,8.324,3.168,11.981,0,1.323.023,2.671-.015,3.994,0,.018,1.323-.028,2.671,0,3.994,2.544,1.462,2.54,2.531,0,3.994-.144,1.595-.763,2.245-2.209,1.946.68,4.806.097,9.527-1.785,14.028-1.698,1.436-1.698,2.767,0,3.994,2.148,1.705,4.81,3.036,7.987,3.994,1.615,1.484,2.773,2.136,4.835,2.686,1.081,2.376,3.463,4.143,7.146,5.301,1.654.968,3.054,2.373,3.994,3.994,1.62.94,3.025,2.339,3.994,3.994,1.654.968,3.054,2.374,3.994,3.994,1.009,3.097,2.34,5.759,3.994,7.987,1.797,2.074,2.775,4.597,1.229,6.969,1.209-1.78,2.453-.701,3.763,1.018,1.95,1.258,1.948,2.734,0,3.994,3.203.952,3.067,11.747,0,12.979l-1.123,1.997h-18.44l-1.403-1.997c2.922.002,2.798,3.336,0,3.994-.212.776-.535,1.929-1.144,1.997-2.354.263-17.197.263-18.163-.666-.336-.323-.52-.805-.661-1.331l-1.997-1.09-.12-8.894c-3.406-.429-4.737-3.424-3.994-8.986-2.689.27-3.807-1.426-4.05-3.994-3.114.611-5.052-.054-5.814-1.997,2.878.506,2.629,13.281,1.997,15.574l-1.997,1.399c-1.759,2.142-2.431,4.807-2.016,7.994l-1.977,3.987c-3.875,3.484-2.544,6.147,3.994,7.987,1.828,1.897,4.337,2.57,7.528,2.017,1.618,2.352,3.605,4.181,5.96,5.487l.666,2.48c4.629-.939,7.898,1.058,9.808,5.99,1.629.721,2.96,2.053,3.994,3.994,1.62.94,3.025,2.339,3.994,3.994,1.009,3.098,2.34,5.76,3.994,7.987,1.033,2.955,2.364,5.617,3.994,7.987,2.503,10.656,2.495,21.292,0,31.949l-1.997,2.173c.824,4.878-.508,7.54-3.994,7.987.819,4.93-.513,7.574-3.994,7.931.266,2.65-1.426,3.888-3.994,3.994.265,2.653-1.427,3.888-3.994,3.994.265,2.653-1.427,3.888-3.994,3.994-.238,3.295-2.9,4.626-7.987,3.994-.971,3.718-4.756,5.01-11.355,3.874-.6.791-1.474,1.457-2.623,1.997-.21.78-.525,1.897-1.169,1.997-6.769,1.045-26.035.631-33.308,0l-1.466-1.997c3.702,1.351,2.782,10.274-1.997,10.264l-.02,10.234c-.585,1.883-2.126,2.499-3.973,2.585.087,6.96-22.485,4.709-13.978-2.117l-1.138,1.997c-3.293.57-13.417.9-14.836-1.997-5.444-1.949.642-11.097,3.994-4.992-3.271-1.645-3.128-14.04,0-15.974,3.241-3.575,2.738-6.077-1.507-7.504l-.666-2.48c-4.93.819-7.574-.512-7.931-3.994-4.106-.002-5.516-4.236-1.877-5.99-2.308,5.046-15.091.706-7.987-3.994-3.441,4.774-8.767-.551-3.994-3.994-3.442,4.773-8.767-.551-3.994-3.994-4.77,4.389-9.646-.192-4.992-3.994-3.442,4.774-8.768-.553-3.994-3.994-5.126,5.191-8.03-2.055-3.994-7.987.002-2.922,3.336-2.798,3.994,0,2.449,2.767,2.449,5.22,0,7.987,1.47-2.518,2.524-2.522,3.994,0,2.522,1.47,2.518,2.524,0,3.994,1.798-2.501,3.198-2.509,4.992,0,2.522,1.47,2.518,2.524,0,3.994.002-2.922,3.336-2.798,3.994,0,2.522,1.469,2.518,2.524,0,3.994,1.261-1.919,2.733-1.919,3.994,0,2.922.002,2.798,3.336,0,3.994,4.67-4.672,13.891-.73,7.987,3.994.392-1.928,2.249-2.552,5.573-1.874.384-1.037.909-2.292,1.614-.613.475,1.132-5.951.803-5.309-3.504-2.335-.372-4.292-2.369-5.871-5.99-1.497-.787-2.828-2.118-3.994-3.994-1.621-.974-2.953-2.305-3.994-3.994-1.781-1.043-3.112-2.374-3.994-3.994-2.522-1.47-2.518-2.524,0-3.994-1.655-1.355-3.319-2.686-4.992-3.994-2.725-1.307-4.722-2.992-5.989-5.055.632-7.575-.034-5.89-1.998,5.055-5.598,7.139-6.954-4.975-5.955-9.892-6.058,1.602-4.25-14.967-2.838-15.386,7.001-2.077,18.805-.983,25.766,1.317,1.042-1.782,2.374-3.113,3.994-3.994,1.323.004,2.67-.009,3.994,0-.018-1.323.028-2.671,0-3.994,1.759-5.582,9.915,1.237,3.994,3.994-1.47,2.518-2.524,2.522-3.994,0,2.528,1.468,2.523,2.525,0,3.994,2.688,2.066,6.23,2.731,10.626,1.997,2.963.616,4.08,3.115,3.352,7.497l1.997,2.487c1.925,1.262,1.929,2.735,0,3.994.887,4.244,2.499,6.47,4.835,6.68.697,2.455,1.613,3.564,2.748,3.328,4.522,6.146,6.004,5.937,8.391-2.02l2.001-2,.014-13.47c.582-1.627,1.907-2.555,3.975-2.783-.919-5.297-.083-9.197,2.509-11.699-3.436.213-6.449.261-6.622-3.994-2.693.271-3.81-1.437-4.05-3.994-4.929.819-7.573-.512-7.931-3.994-2.653.266-3.888-1.427-3.994-3.994-2.653.266-3.888-1.427-3.994-3.994-2.653.266-3.888-1.427-3.994-3.994-2.653.266-3.888-1.427-3.994-3.994-6.155-.942-3.948-8.357-1.877-13.978-.222,2.928-5.193,1.798-5.321.738-1.2-9.969-.983-19.905,1.327-29.692.002-2.922,3.336-2.798,3.994,0,1.945,1.26,1.947,2.735,0,3.994,1.935,8.299,1.938,16.662,0,24.96,1.365-3.097,4.35-2.54,5.99.252l-.12-6.242c-5.586.348-5.658-13.561.239-12.979-.37-3.463.598-6.803,1.877-9.984-1.939-1.259-1.938-2.733,0-3.994,1.592-2.323,2.782-4.314,3.994-7.987.306-1.591,1.638-2.922,3.994-3.994.612-1.738,1.944-3.07,3.994-3.994,1.531-2.716,3.216-4.712,5.055-5.99,3.007.589,5.316-.077,6.926-1.997,1.013-1.91,2.318-3.821,3.915-5.732,12.813.135,12.84-.617.078-2.255-2.922-.002-2.798-3.336,0-3.994,1.259-1.946,2.733-1.945,3.994,0,10.195-2.176,20.585-2.581,30.914-1.219-1.207-4.964-.603-9.92,1.035-14.755,3.581-6.874,7.664-7.472,15.974-3.994Z"/>
      <path class="g" d="M55.969,293.531c1.62.94,3.025,2.339,3.994,3.994,2.606,3.124,2.762,7.222.827,10.668,10.405-1.342,20.846-.834,31.122,1.312,2.098,1.959,5.094,2.844,8.988,2.655l2.993,1.339c3.421,1.566,5.457,3.563,6.11,5.99,2.381.284,4.338,2.281,5.871,5.99,3.04,3.905,3.251,9.625-1.997,10.104.267,2.651-1.427,3.889-3.994,3.994-.242,3.296-2.904,4.627-7.987,3.994.724,5.924-17.276,4.533-19.458,2.365-.319-2.096-2.762-3.153-7.33-3.171-1.508-3.989-2.481,6.548.657,5.817,2.135,2.786,2.952,6.733,2.451,11.842,3.456-.843,15.393-.014,11.563,5.815-2.029,3.087-8.29,2.292-7.851,2.292,10.041-.426,20.089-.255,29.952,1.877,1.809,1.171,2.823,2.029.876,2.698,3.759-1.45,7.623-.658,11.105,1.296,2.423,1.246,5.085,2.577,7.987,3.994,1.62.94,3.025,2.339,3.994,3.994,1.654.968,3.054,2.374,3.994,3.994,1.654.968,3.054,2.374,3.994,3.994,1.283,2.707,2.614,5.369,3.994,7.987,2.908,11.934,2.432,24.447,1.331,36.624-.062.686-2.43,1.396-3.328,1.492.824,4.876-.507,7.538-3.994,7.987.819,4.928-.512,7.572-3.994,7.931.266,2.65-1.427,3.888-3.994,3.994-.241,3.296-2.903,4.627-7.987,3.994.266,2.653-1.428,3.888-3.994,3.994-.241,3.296-2.903,4.627-7.987,3.994.244,2.016-.743,3.364-2.761,3.874,4.228,2.392,4.819,19.702-1.233,20.088.266,2.653-1.428,3.888-3.994,3.994.246,5.537-12.202,5.583-12.101-.12-2.653.266-3.888-1.428-3.994-3.994-5.23.513-5.299-12.133-1.877-13.978.001.775-.19,1.972-.673,1.997-11.701.603-26.382.595-38.089,0l-1.174-1.997c-1.62.153-2.076-.563-2.173-1.997-4.876.824-7.538-.507-7.987-3.994-4.928.82-7.572-.512-7.931-3.994-2.653.266-3.888-1.428-3.994-3.994-6.089-1.143-4.592-13.01-1.877-17.971,2.707-1.283,5.369-2.614,7.987-3.994,3.177-.958,5.839-2.289,7.987-3.994,5.002-2.917,10.989-2.958,15.974,0,1.497.786,2.829,2.117,3.994,3.994.837,2.621,13.116,2.486,13.921,1.997.456-.277.445-9.485-1.94-9.984-1.842-3.075-2.151-6.498-2.117-9.984-3.718-.972-5.01-4.756-3.874-11.355-12.227-.728-24.7-.943-37.42-.644-1.701-2.372-3.708-4.201-6.02-5.489l-.666-2.48c-4.918.823-7.562-.508-7.931-3.994-5.198-.481-4.845-6.176-1.877-9.984-1.811,5.222-9.375-.255-3.994-3.994.002-2.922,3.336-2.798,3.994,0,1.944,1.258,1.941,2.733,0,3.994-.111-1.229,2.37-3.311,2.614-3.211,2.075.85-1.94,2.673-2.614-.782-1.946-1.259-1.945-2.733,0-3.994-1.961-2.621-1.958-5.364,0-7.987-1.962-2.622-1.965-5.366,0-7.987-1.943-1.26-1.944-2.735,0-3.994-1.958-2.623-1.961-5.366,0-7.987,1.584-2.325,2.184-3.612,2.646-7.191l1.348-1.795,3.994-3.994c-2.514-1.471-2.517-2.522,0-3.994.603-1.559,1.934-2.891,3.994-3.994,1.271-2.494,2.857-4.491,4.758-5.99l-.764-1.997c-2.922-.002-2.798-3.336,0-3.994,3.177-.958,5.839-2.289,7.987-3.994,2.047-4.101,3.517-2.118,2.667-2.093-1.321.04-1.987-.627-2.667-1.901-1.469,2.521-2.525,2.527-3.994,0v-3.994c1.457-2.063,2.788-4.725,3.994-7.987,1.612-2.573,2.699-3.979,4.758-5.99.106-.103,1.781-1.376,1.906-1.454.399-.248.853-.408,1.323-.543,3.887-2.76,8.101-2.776,11.981,0Z"/>
      <path class="g" d="M71.944,434.306c2.536,1.459,2.54,2.536,0,3.994-1.746,5.551-9.774-1.179-3.994-3.994,1.463-2.54,2.532-2.544,3.994,0Z"/>
      <path class="g" d="M43.989,289.537c2.922.002,2.798,3.336,0,3.994-1.47,2.521-2.524,2.518-3.994,0v-3.994c1.323-.015,2.671.023,3.994,0Z"/>
      <path class="f" d="M119.867,92.852c-.007,2.654.003,5.333,0,7.987-1.322.028-2.671,0-3.994,0-.038,14.629.028,29.301,0,43.93h3.994v11.981h3.994v3.994h3.994v7.987h3.994v3.994h3.994v3.994h3.994v3.994h7.987v3.994h8.986v3.994h11.981v4.992h15.974v3.994h35.943v3.994h31.949v3.994h7.987v3.994h7.987v7.987h3.994v11.981h-3.994v7.987h-3.994v3.994h-3.994v3.994c-1.323.018-2.671-.028-3.994,0,0,.944.141,3.852,0,3.994-3.983.009-7.998-.013-11.981,0-2.521-1.468-2.527-2.526,0-3.994,2.542-2.75,5.433-2.724,7.987,0,1.47-2.522,2.524-2.518,3.994,0-1.591-.306-2.922-1.638-3.994-3.994-1.468,2.523-2.526,2.528-3.994,0-1.591-.306-2.922-1.638-3.994-3.994-1.47,2.518-2.524,2.521-3.994,0-11.372,3.066-24.625,3.282-35.943,0-1.591-.306-2.922-1.638-3.994-3.994-3.627,1.983-7.755,2.657-12.385,2.02,1.862.626,2.436,2.162,2.52,3.97,4.104.001,5.518,4.235,1.877,5.99,5.446-4.581,13.679-.57,7.987,3.994,13.241-2.673,26.7-2.713,39.936,0,1.259-1.944,2.733-1.943,3.994,0-.034,1.322.022,2.671,0,3.994h-43.93c-.036-1.321.057-2.675,0-3.994-2.652-.016-5.336.011-7.987,0-.036-1.321.057-2.675,0-3.994-2.651-.035-5.336.025-7.987,0v-3.994h-3.994v-7.987h-3.994v-3.994h-3.994v-3.994h-7.987v3.994c-2.652.012-5.336-.018-7.987,0,.028-1.319.028-2.674,0-3.994-1.659-1.352-3.323-2.683-4.992-3.994-1.323-.026-2.671.017-3.994,0v-3.994c-1.321-.036-2.674.057-3.994,0-1.588-.414-2.919-1.746-3.994-3.994-1.32-.057-2.672.036-3.994,0v-3.994h-3.994c-.036-1.322.057-2.674,0-3.994-1.763-1.012-3.094-2.343-3.994-3.994-.057-1.32.036-2.672,0-3.994h-3.994v-8.986h-3.994c-.032-2.652.046-5.336,0-7.987-1.782-1.042-3.113-2.374-3.994-3.994-.115-6.638.036-13.328,0-19.968-2.521-1.47-2.518-2.524,0-3.994-1.782-1.042-3.113-2.373-3.994-3.994-.086-15.936-.276-31.993,0-47.923.002-2.922,3.336-2.798,3.994,0-1.946-1.261-1.948-2.736,0-3.994.008-1.323-.028-2.672,0-3.994-.002-2.922,3.333-2.791,3.994,0Z"/>
      <path class="f" d="M313.558,76.877c.028,1.321.01,2.672,0,3.994,1.323.026,2.67-.017,3.994,0,.013,2.652-.019,5.335,0,7.987,2.523,1.47,2.519,2.524,0,3.994,1.782,1.042,3.113,2.373,3.994,3.994.043,7.973,0,15.989,0,23.962,2.922.002,2.798,3.336,0,3.994-1.323.028-2.671-.028-3.994,0-1.042,1.782-2.374,3.113-3.994,3.994-1.655.033-3.337-.033-4.992,0-1.042,1.782-2.374,3.113-3.994,3.994-2.651.046-5.336-.032-7.987,0v3.994h-7.987v3.994h3.994c.036,1.321-.057,2.674,0,3.994,2.652.016,5.336-.011,7.987,0,.036,1.321-.057,2.675,0,3.994,1.323.01,2.671-.028,3.994,0v3.994c-1.322-.028-2.671.018-3.994,0-.036-1.321.057-2.675,0-3.994-2.652-.019-5.335.013-7.987,0-.036-1.321.057-2.674,0-3.994-3.981-.024-7.999.017-11.981,0v-3.994h-19.968v-3.994h-39.936c-.141-.141,0-3.05,0-3.994.002-2.917,3.339-2.798,3.994,0,7.236-1.502,14.586-2.16,21.965-2.117-.307-.705.387-1.334.802-.808,1.185,1.503-10.375,2.199-8.789-3.186-11.676,1.006-22.991.381-33.946-1.877-1.46,1.29-1.46,2.704,0,3.994,2.565-2.696,5.432-2.72,7.987,0,2.922.002,2.798,3.336,0,3.994-6.639.115-13.328-.084-19.968,0v-3.994h-7.987v-3.994h-3.994v-7.987h-3.994v-11.981h3.994v-7.987h3.994v-3.994h7.987v-3.994h15.974v-3.994h23.962v3.994h7.987v3.994h7.987v3.994h3.994v3.994h3.994v3.994h3.994v3.994h7.987v-3.994h11.981v-3.994h7.987v-3.994h7.987v-3.994h7.987v-3.994h8.986c.013-2.652-.019-5.336,0-7.987-1.655-.033-3.337.022-4.992,0-.018-1.323.028-2.671,0-3.994h4.992Z"/>
      <path class="f" d="M341.513,201.678c.138,7.967-.043,15.992,0,23.962,2.521,1.47,2.518,2.524,0,3.994,1.782,1.042,3.113,2.373,3.994,3.994.05,9.291.161,18.667,0,27.955-.306,1.591-1.638,2.922-3.994,3.994-.046,2.651.046,5.336,0,7.987-.306,1.591-1.638,2.922-3.994,3.994-.046,2.651.032,5.336,0,7.987h-3.994c-.036,1.322.057,2.674,0,3.994-.414,1.588-1.746,2.919-3.994,3.994-.057,1.32.036,2.672,0,3.994h-3.994v3.994h-3.994c-.036,1.322.057,2.674,0,3.994-.613,1.738-1.944,3.07-3.994,3.994-1.32.057-2.672-.036-3.994,0v3.994h-4.992v3.994c-1.322.036-2.674-.057-3.994,0-1.012,1.763-2.343,3.094-3.994,3.994-1.32.057-2.672-.036-3.994,0v3.994h-7.987v3.994c-2.652.032-5.336-.046-7.987,0-1.042,1.782-2.374,3.113-3.994,3.994-3.98.069-8-.049-11.981,0v3.994h-3.994c-.013,2.652.018,5.335,0,7.987,2.496,1.797,2.492,3.193,0,4.992,1.782,1.042,3.113,2.374,3.994,3.994.03,6.643-.022,13.325,0,19.968-1.323.018-2.671-.028-3.994,0-1.464,2.532-2.529,2.526-3.994,0-1.042,1.782-2.373,3.113-3.994,3.994-7.971.043-15.991.043-23.962,0-1.459,2.536-2.536,2.54-3.994,0-1.763-1.012-3.094-2.343-3.994-3.994-.138-7.966.024-15.993,0-23.962-1.953-1.602-1.95-3.388,0-4.992-.003-1.326.002-2.668,0-3.994,5.313-.01,10.661.007,15.974,0v-3.994h19.968v-19.968h-3.994v-19.968h15.974v-3.994h7.987v-3.994h11.981v-3.994h3.994v-3.994h7.987v-3.994h3.994v-3.994h3.994v-3.994h4.992v-3.994h3.994v-3.994h3.994v-3.994h3.994v-7.987h3.994v-7.987h3.994v-15.974h3.994c-.009-7.975.012-15.987,0-23.962,1.322.034,2.671-.022,3.994,0Z"/>
      <path class="f" d="M288.598,52.915c1.323.028,2.67-.018,3.994,0,.018,1.323-.028,2.671,0,3.994,1.323.028,2.67-.018,3.994,0,.018,1.323-.028,2.671,0,3.994,1.323.028,2.67-.018,3.994,0,.018,1.323-.028,2.671,0,3.994,1.323.028,2.67-.018,3.994,0,.015,1.323-.023,2.671,0,3.994,1.323.028,2.67-.018,3.994,0,.018,1.323-.028,2.671,0,3.994s-.028,2.671,0,3.994c-1.323,0-2.671.028-3.994,0,.018-2.649.046-5.339,0-7.987-1.323-.028-2.671.028-3.994,0-.01-1.323.028-2.671,0-3.994-1.322-.028-2.671,0-3.994,0-.028-1.323.028-2.671,0-3.994-1.323-.028-2.671.028-3.994,0,0-1.323.028-2.671,0-3.994-1.323-.028-2.67.009-3.994,0-1.261,1.941-2.736,1.944-3.994,0,.028-1.322,0-2.671,0-3.994,1.323.009,2.671-.028,3.994,0Z"/>
      <path class="f" d="M272.623,44.928c2.652.018,5.335-.012,7.987,0,.018,1.323-.028,2.671,0,3.994,1.323.01,2.671-.028,3.994,0v3.994c-1.324-.009-2.67,0-3.994,0,0-1.323.028-2.672,0-3.994-2.652-.019-5.335.013-7.987,0-.036-1.321.057-2.674,0-3.994Z"/>
      <path class="f" d="M151.816,229.633c1.655-.005,3.337.011,4.992,0-.028,1.323.018,2.671,0,3.994-4.316.009-8.663-.013-12.979,0-.034,1.322.022,2.671,0,3.994-3.982.01-7.999-.014-11.981,0-.034,1.322.022,2.671,0,3.994-3.982.015-7.999-.021-11.981,0-.034,1.322.022,2.671,0,3.994h-3.994v7.987h3.994v3.994h3.994v7.987h3.994v3.994c1.321.036,2.674-.057,3.994,0,.028,1.322-.018,2.671,0,3.994,1.321.036,2.675-.057,3.994,0,.057,1.319-.036,2.672,0,3.994,1.323.015,2.671-.023,3.994,0,.057,1.319-.036,2.673,0,3.994h3.994v3.994h3.994v3.994h8.986v3.994h7.987v3.994h11.981v3.994h27.955v3.994h11.981v7.987h3.994v27.955c-1.326.003-2.668-.002-3.994,0-7.966.009-15.998.138-23.962,0-1.591-.306-2.922-1.638-3.994-3.994-3.98-.069-8.001.069-11.981,0-1.591-.306-2.922-1.638-3.994-3.994-2.651-.046-5.336.032-7.987,0v-3.994h-7.987v-3.994h-8.986v-3.994h-3.994v-3.994h-3.994v-3.994h-3.994v-3.994h-3.994v-3.994h-3.994v-3.994h-3.994v-7.987h-3.994c-.036-1.321.057-2.674,0-3.994-1.763-1.012-3.094-2.343-3.994-3.994-.046-2.651.016-5.336,0-7.987-2.522-1.47-2.518-2.524,0-3.994-1.782-1.042-3.113-2.373-3.994-3.994-.05-9.304.037-18.651,0-27.955,1.323-.018,2.671.028,3.994,0,1.456-2.538,2.536-2.534,3.994,0-2.521-1.469-2.527-2.526,0-3.994,2.65-.046,5.336.008,7.987,0,1.259-1.945,2.733-1.943,3.994,0-2.521-1.468-2.527-2.526,0-3.994,2.65-.046,5.336.008,7.987,0,1.259-1.945,2.733-1.944,3.994,0-2.521-1.469-2.527-2.526,0-3.994,2.65-.046,5.337.008,7.987,0Z"/>
      <path class="f" d="M308.566,152.756c1.654.024,3.337-.016,4.992,0,.036,1.321-.057,2.675,0,3.994,1.323.023,2.67-.015,3.994,0,.036,1.321-.057,2.674,0,3.994,1.319.057,2.673-.036,3.994,0,.015,1.323-.023,2.671,0,3.994,1.319.057,2.672-.036,3.994,0,.018,1.323-.028,2.671,0,3.994,2.532,1.464,2.526,2.529,0,3.994,1.468-2.521,2.526-2.527,3.994,0,.028,1.322-.01,2.671,0,3.994,1.319.057,2.672-.036,3.994,0,.011,2.652-.016,5.335,0,7.987,1.319.057,2.673-.036,3.994,0,.009,4.316-.012,8.664,0,12.979.004,1.326-.002,2.668,0,3.994-1.322-.034-2.671.022-3.994,0-.024-5.645.034-11.328,0-16.973-1.319-.057-2.673.036-3.994,0-.013-2.652.019-5.336,0-7.987-1.319-.057-2.672.036-3.994,0-.018-1.323.028-2.671,0-3.994-1.322-.034-2.671.022-3.994,0-.032-2.651.046-5.337,0-7.987-1.319-.057-2.672.036-3.994,0-.036-1.321.057-2.674,0-3.994-1.319-.057-2.673.036-3.994,0-.036-1.321.057-2.675,0-3.994-2.983-.052-6.002.037-8.986,0-.141-.141,0-3.049,0-3.994,1.322.028,2.671-.019,3.994,0Z"/>
      <path class="f" d="M409.405,366.415c-.069-3.98.049-8.001,0-11.981h3.994v-16.973h7.987v3.994h3.994v8.986h3.994v11.981h19.968v-3.994h20.967v-12.979c.002-2.918,3.339-2.798,3.994,0,.167,9.632-.123,19.32,0,28.954h-3.994v11.981h-32.947v3.994c1.319.057,2.673-.036,3.994,0,.036,1.321-.057,2.675,0,3.994,1.319.057,2.673-.036,3.994,0,.015,1.323-.023,2.671,0,3.994,1.319.057,2.673-.036,3.994,0,.018,1.323-.028,2.671,0,3.994,2.538,1.457,2.533,2.535,0,3.994,1.468-2.521,2.526-2.527,3.994,0,.046,2.649-.007,5.337,0,7.987,1.319.057,2.673-.036,3.994,0-.136,10.631.184,21.319,0,31.949-1.468,2.527-2.525,2.521-3.994,0,1.945,1.26,1.946,2.735,0,3.994-.008,2.65.046,5.338,0,7.987-.306,1.591-1.638,2.922-3.994,3.994-.069,3.98.049,8,0,11.981h-3.994v7.987h-3.994v3.994h-3.994c-.036,1.321.057,2.674,0,3.994-.613,1.738-1.944,3.07-3.994,3.994-1.32.057-2.672-.036-3.994,0v3.994h-3.994v3.994c-1.321.036-2.674-.057-3.994,0-1.134,2.192-2.465,3.856-3.994,4.992-2.65.046-5.336-.032-7.987,0v3.994c-6.644.006-13.324-.009-19.968,0-2.621,1.959-5.364,1.954-7.987,0-3.983.013-7.998-.009-11.981,0-.032,2.651.046,5.337,0,7.987-.306,1.591-1.638,2.922-3.994,3.994-.069,3.98.069,8.001,0,11.981-.612,1.738-1.943,3.07-3.994,3.994-1.32.028-2.674.028-3.994,0-1.591-.306-2.922-1.638-3.994-3.994-3.98-.069-8.001.049-11.981,0v-3.994h-11.981c.049-3.98-.069-8.001,0-11.981.306-1.591,1.638-2.922,3.994-3.994.098-5.642-.071-11.33,0-16.973h-7.987v-3.994h-7.987v-3.994h-3.994v-3.994c-1.655-.022-3.338.033-4.992,0-1.588-.414-2.919-1.746-3.994-3.994-1.654-.968-3.054-2.374-3.994-3.994-1.763-1.013-3.094-2.344-3.994-3.994-.057-1.319.036-2.672,0-3.994h-3.994c-.036-1.321.057-2.674,0-3.994-1.763-1.012-3.094-2.343-3.994-3.994-.046-2.651.046-5.336,0-7.987-1.782-1.042-3.113-2.374-3.994-3.994-.161-9.272-.161-18.684,0-27.955.306-1.591,1.638-2.922,3.994-3.994.069-3.98-.049-8.001,0-11.981,9.638.011,19.315-.015,28.954,0,2.922.002,2.798,3.336,0,3.994-8.301.144-16.657-.106-24.96,0v11.981h3.994c.141,3.469-.198,7.01,0,10.483.164,2.88,2.065,1.112,3.994,1.498,1.939,1.259,1.938,2.733,0,3.994.018,2.652-.012,5.335,0,7.987,1.323.018,2.671-.028,3.994,0,.023,1.323-.015,2.67,0,3.994,1.323.017,2.671-.026,3.994,0,.028,1.323-.018,2.671,0,3.994h4.992c.028,1.323-.018,2.67,0,3.994,1.323.018,2.671-.028,3.994,0,.028,1.322-.018,2.671,0,3.994,1.323.015,2.671-.023,3.994,0,0,.944-.141,3.852,0,3.994h7.987c.057,1.319-.036,2.673,0,3.994h3.994v3.994h7.987v3.994h3.994v7.987h-3.994v15.974h-3.994v4.992h15.974v3.994h11.981v-3.994h3.994v-12.979h3.994v-7.987h35.943v-3.994h11.981v-3.994h7.987v-3.994h3.994v-3.994h3.994v-3.994h3.994v-3.994h3.994v-7.987h3.994v-7.987c1.322-.022,2.672.034,3.994,0,.017-10.635.03-21.314,0-31.949-1.319-.057-2.673.036-3.994,0-.013-2.652.019-5.336,0-7.987-1.322-.034-2.671.022-3.994,0-.032-2.651.046-5.337,0-7.987-1.319-.057-2.673.036-3.994,0-.036-1.321.057-2.675,0-3.994-1.319-.057-2.673.036-3.994,0-.141-.141,0-3.05,0-3.994-1.319-.057-2.673.036-3.994,0v-3.994h-7.987v-3.994h-3.994v-3.994h-7.987c-.036-1.321.057-2.675,0-3.994,3.876-3.484,2.545-6.146-3.994-7.987,6.364,3.177,7.695,5.839,3.994,7.987-2.651.046-5.336-.032-7.987,0v-7.987c1.323-.015,2.671.023,3.994,0Z"/>
      <path class="f" d="M36.001,313.499c1.323.034,2.67-.022,3.994,0v3.994c-1.323.018-2.671-.028-3.994,0-.034,1.322.022,2.671,0,3.994-2.652.013-5.336-.019-7.987,0v3.994c-.786,1.498-2.117,2.829-3.994,3.994-.002,2.922-3.336,2.798-3.994,0-1.471,2.517-2.522,2.514-3.994,0,2.528,1.467,2.534,2.528,0,3.994,3.575,2.42,2.244,5.082-3.994,7.987-1.468,2.527-2.525,2.521-3.994,0,1.937,1.26,1.938,2.734,0,3.994,2.508,1.795,2.5,3.194,0,4.992-1.468,2.527-2.525,2.521-3.994,0,1.95,2.624,1.958,5.367,0,7.987,1.956,3.96,1.959,8.021,0,11.981,1.958,2.622,1.956,5.365,0,7.987,1.945,1.259,1.944,2.734,0,3.994-.002,2.922-3.336,2.798-3.994,0-.184-10.629.136-21.318,0-31.949,1.322-.022,2.672.034,3.994,0,.016-2.984-.011-6.001,0-8.986,1.322-.022,2.672.034,3.994,0,.018-2.652-.013-5.335,0-7.987h3.994v-3.994c1.323-.018,2.671.028,3.994,0,.028-1.322-.018-2.671,0-3.994h3.994v-3.994c1.323-.018,2.671.028,3.994,0,1.457-2.537,2.536-2.533,3.994,0-2.922-.002-2.798-3.336,0-3.994,1.323-.028,2.67.018,3.994,0,1.468-2.528,2.525-2.523,3.994,0-2.521-1.468-2.527-2.526,0-3.994Z"/>
      <path class="f" d="M39.995,293.531c1.322-.028,2.671.007,3.994,0,0,.944.141,3.852,0,3.994h-3.994v3.994c-1.323.022-2.671-.034-3.994,0-.019,2.652.013,5.335,0,7.987h-3.994c0-2.651-.046-5.337,0-7.987,1.468-2.527,2.525-2.521,3.994,0-2.533-1.458-2.538-2.536,0-3.994.028-1.322-.018-2.671,0-3.994,1.323-.018,2.671.028,3.994,0Z"/>
      <path class="f" d="M43.989,289.537c3.98-.069,8.001.049,11.981,0,.036,1.321-.057,2.675,0,3.994,1.323.023,2.671-.015,3.994,0,.015,1.323-.023,2.671,0,3.994,1.319.057,2.673-.036,3.994,0v7.987c9.301.119,18.656-.161,27.955,0,2.922.002,2.798,3.336,0,3.994,1.261-1.946,2.736-1.949,3.994,0,2.652.018,5.335-.012,7.987,0,.036,1.321-.057,2.674,0,3.994,2.652.016,5.336-.011,7.987,0v3.994h3.994c.018,1.323-.028,2.671,0,3.994,1.965,1.256,1.961,2.733,0,3.994,1.468-2.521,2.526-2.527,3.994,0,.069,3.98-.049,8.001,0,11.981h3.994v16.973h-3.994v3.994h-3.994v3.994h-3.994c-.018,1.323.028,2.671,0,3.994,1.919,1.261,1.919,2.733,0,3.994,1.26-1.945,2.735-1.946,3.994,0,2.651.008,5.338-.046,7.987,0,2.922.002,2.798,3.336,0,3.994,1.457-2.534,2.537-2.538,3.994,0,1.322.028,2.671-.018,3.994,0,.036,1.321-.057,2.674,0,3.994,1.323.023,2.67-.015,3.994,0,.036,1.321-.057,2.674,0,3.994,1.319.057,2.673-.036,3.994,0,.036,1.321-.057,2.674,0,3.994,1.319.057,2.672-.036,3.994,0,.015,1.323-.023,2.671,0,3.994,1.319.057,2.673-.036,3.994,0,.011,2.652-.016,5.336,0,7.987,1.319.057,2.672-.036,3.994,0,.049,3.981-.069,8.001,0,11.981,2.253,1.098,3.917,2.43,4.992,3.994.069,3.98-.069,8.001,0,11.981,1.782,1.042,3.113,2.374,3.994,3.994.046,2.649.016,5.338,0,7.987-.306,1.591-1.638,2.922-3.994,3.994,2.518,1.47,2.522,2.524,0,3.994-.016,2.652.046,5.337,0,7.987-.755,1.546-2.419,2.877-4.992,3.994-.028,1.323.028,2.671,0,3.994-.414,1.588-1.746,2.919-3.994,3.994-.057,1.32.036,2.672,0,3.994h-3.994v3.994h-3.994v3.994h-3.994v3.994c-1.322.036-2.674-.057-3.994,0-1.012,1.763-2.343,3.094-3.994,3.994-1.322.028-2.671-.028-3.994,0l-3.994,3.994c-.144,8.302.106,16.657,0,24.96-1.321.036-2.674-.057-3.994,0-1.012,1.763-2.343,3.094-3.994,3.994-5.31.092-10.664-.067-15.974,0v-3.994h-3.994c-.036-1.321.057-2.674,0-3.994-1.763-1.012-3.094-2.343-3.994-3.994-.052-2.983.037-6.002,0-8.986-1.323-.018-2.671.028-3.994,0-1.261,1.919-2.733,1.919-3.994,0-1.042,1.782-2.373,3.113-3.994,3.994-2.652.016-5.335.016-7.987,0-1.591-.306-2.922-1.638-3.994-3.994-1.47,2.518-2.524,2.521-3.994,0-3.981-.021-8.002.069-11.981,0-1.591-.306-2.922-1.638-3.994-3.994-1.323-.028-2.67.028-3.994,0-1.588-.414-2.919-1.746-3.994-3.994-1.32-.057-2.672.036-3.994,0v-3.994h-3.994v-3.994h-3.994c-.049-3.981.069-8.001,0-11.981-1.782-1.042-3.113-2.374-3.994-3.994-.115-6.639.084-13.328,0-19.968,1.323-.015,2.671.023,3.994,0,.023-1.323-.015-2.671,0-3.994,2.651-.025,5.336.035,7.987,0,.057-1.319-.036-2.673,0-3.994,1.323-.018,2.671.028,3.994,0,1.454-2.536,2.538-2.532,3.994,0-2.514-1.471-2.517-2.523,0-3.994,1.698-1.436,1.698-2.767,0-3.994-3.98-.069-8,.049-11.981,0v-3.994h-3.994v-3.994c-1.321-.036-2.674.057-3.994,0-1.738-.613-3.07-1.944-3.994-3.994-.057-1.32.036-2.672,0-3.994h-3.994c-.036-1.321.057-2.674,0-3.994-1.763-1.012-3.094-2.343-3.994-3.994-.046-2.651.032-5.336,0-7.987h-3.994c-.01-3.982.014-7.999,0-11.981-1.946-1.259-1.945-2.733,0-3.994.002-2.922,3.336-2.798,3.994,0,2.517,1.471,2.514,2.522,0,3.994.028,1.323-.018,2.67,0,3.994.141.141,3.049,0,3.994,0,.019,2.652-.013,5.336,0,7.987h3.994v3.994h7.987v3.994h3.994v3.994h39.936v11.981h3.994c-.015,3.982.021,7.999,0,11.981-1.322-.028-2.671.007-3.994,0-4.867.876-8.86,2.207-11.981,3.994,3.497-4.962,8.949,1.056,3.994,3.994,2.812-1.943,6.139-2.607,9.98-1.993l2-2.001c.028-1.322-.007-2.671,0-3.994,1.322.028,2.671-.018,3.994,0v11.981h-15.974c-.036-1.321.057-2.675,0-3.994-1.323-.023-2.671.015-3.994,0-.141-.141,0-3.05,0-3.994-5.303-.092-10.669-.029-15.974,0-.028,1.322.018,2.671,0,3.994-2.651.025-5.336-.035-7.987,0-.057,1.319.036,2.673,0,3.994-2.651.032-5.337-.046-7.987,0-.092,5.309.067,10.664,0,15.974h3.994v3.994h3.994v3.994h7.987v3.994h7.987v3.994h39.936v11.981h3.994v3.994h3.994v3.994h7.987v-3.994h3.994v-3.994h3.994v-15.974h-3.994v-3.994h3.994v-3.994h7.987v-3.994h3.994v-3.994h7.987v-3.994h3.994v-3.994h3.994v-7.987h3.994v-7.987h3.994c-.053-11.966.071-23.977,0-35.943-1.319-.057-2.672.036-3.994,0-.032-2.651.046-5.336,0-7.987-1.319-.057-2.673.036-3.994,0-.036-1.321.057-2.674,0-3.994-1.319-.057-2.672.036-3.994,0-.036-1.321.057-2.674,0-3.994-1.319-.057-2.673.036-3.994,0-.036-1.321.057-2.674,0-3.994-2.651-.046-5.336.032-7.987,0-.141-.141,0-3.049,0-3.994-3.982-.021-7.999.015-11.981,0-.018-1.323.028-2.671,0-3.994-10.636-.017-21.313.013-31.949,0v-3.994h7.987v-3.994h-11.981v-11.981h-3.994v-12.979h3.994v3.994h7.987v3.994h15.974v-3.994h7.987v-3.994h3.994v-3.994h3.994c.013-2.652-.019-5.336,0-7.987-1.322-.034-2.671.022-3.994,0v-3.994h-3.994v-3.994h-3.994c-.036-1.321.057-2.674,0-3.994-3.981-.024-7.999.017-11.981,0-.141-.141,0-3.05,0-3.994-10.636-.03-21.313.022-31.949,0-.049-3.98.069-8.001,0-11.981-1.319-.057-2.673.036-3.994,0-.036-1.321.057-2.675,0-3.994-3.976-.069-8.004-.021-11.981,0v-3.994Z"/>
      <path class="f" d="M353.494,297.525c1.258-1.949,2.733-1.946,3.994,0,2.517,1.471,2.514,2.523,0,3.994-.002,2.922-3.336,2.798-3.994,0-1.259,1.942-2.733,1.94-3.994,0,2.922.002,2.798,3.336,0,3.994-.974,1.622-2.305,2.953-3.994,3.994-.786,1.497-2.118,2.829-3.994,3.994-3.217,6.13-5.88,7.462-7.987,3.994,1.941,1.261,1.944,2.736,0,3.994-1.261,1.919-2.733,1.919-3.994,0,1.941,1.261,1.944,2.735,0,3.994,1.954,2.623,1.958,5.366,0,7.987h-3.994c-.027,9.637.02,19.316,0,28.954,1.321.036,2.675-.057,3.994,0,.012,3.984-.009,7.997,0,11.981h3.994v3.994h3.994v3.994h3.994v3.994h3.994v3.994h3.994v3.994h7.987v3.994h3.994v3.994h7.987v3.994h-3.994v11.981h-3.994v15.974c-1.323.018-2.671-.028-3.994,0-.019,2.652.013,5.335,0,7.987h-7.987v-3.994h-3.994v-3.994h-3.994c-.013-2.652.019-5.335,0-7.987.002-2.917,3.339-2.797,3.994,0,3.775,2.289,5.928,3.631,7.987,7.987,1.261-1.919,2.733-1.919,3.994,0-1.929-1.258-1.925-2.731,0-3.994-3.775-2.289-5.928-3.631-7.987-7.987-1.738-.612-3.07-1.944-3.994-3.994-.786,1.498-2.117,2.829-3.994,3.994-1.323-.028-2.671.018-3.994,0v-7.987h-11.981c-.018-1.323.028-2.671,0-3.994,1.468-2.527,2.525-2.521,3.994,0,.704-1.665,2.958-2.886,3.222-1.322.292,1.727-2.761-.967-3.222-2.671,0-.945.141-3.852,0-3.994h-3.994c-.028-1.323.018-2.671,0-3.994h-3.994c-.036-1.321.057-2.674,0-3.994-1.763-1.012-3.094-2.343-3.994-3.994-.046-2.651.016-5.336,0-7.987-2.522-1.47-2.518-2.524,0-3.994-1.782-1.042-3.113-2.373-3.994-3.994-.016-2.65-.046-5.339,0-7.987.306-1.591,1.638-2.922,3.994-3.994.069-3.98-.05-8,0-11.981.747-1.729,2.078-3.393,3.994-4.992.05-3.981-.069-8.001,0-11.981.002-2.922,3.336-2.798,3.994,0-1.946-1.261-1.949-2.736,0-3.994.018-2.652-.012-5.336,0-7.987,1.323-.018,2.671.028,3.994,0,.008-1.323-.028-2.671,0-3.994,1.468-2.527,2.525-2.521,3.994,0-2.533-1.458-2.538-2.537,0-3.994.028-1.323-.018-2.67,0-3.994h3.994v-3.994h3.994v-3.994c1.323-.018,2.671.028,3.994,0,1.457-2.538,2.536-2.533,3.994,0-2.922-.002-2.798-3.336,0-3.994,1.322-.028,2.671.009,3.994,0Z"/>
      <path class="f" d="M365.475,293.531v3.994c-1.26,1.943-2.735,1.944-3.994,0-1.259,1.942-2.734,1.941-3.994,0-2.922-.002-2.798-3.336,0-3.994,2.649-.046,5.337.008,7.987,0Z"/>
      <path class="f" d="M216.713,3.994c.002-2.922,3.336-2.798,3.994,0,.092,5.306,0,10.666,0,15.974,2.922,0,2.795,3.335,0,3.994-1.322-.034-2.671.022-3.994,0V7.987c-7.975.009-15.987-.013-23.962,0-2.916-.002-2.797-3.339,0-3.994,7.973-.043,15.989,0,23.962,0Z"/>
      <path class="f" d="M405.411,269.569c3.979,0,8.003-.069,11.981,0,2.922.002,2.798,3.336,0,3.994,1.259-1.949,2.734-1.949,3.994,0,2.651.008,5.338-.046,7.987,0-.386,1.927,1.382,3.829-1.498,3.994-3.473.198-7.014-.141-10.483,0-.141-.141,0-3.049,0-3.994-3.983.014-7.998-.01-11.981,0v3.994c-1.321.036-2.675-.057-3.994,0-.015,5.313.011,10.661,0,15.974-10.636.013-21.313-.017-31.949,0-2.922-.002-2.798-3.336,0-3.994,9.299-.161,18.654.119,27.955,0v-11.981c1.321-.036,2.675.057,3.994,0,.007-2.65-.046-5.338,0-7.987.002-2.922,3.336-2.798,3.994,0Z"/>
      <path class="f" d="M139.835,64.896c-.034,1.322.022,2.671,0,3.994-1.323.018-2.671-.028-3.994,0,.028-1.323-.028-2.671,0-3.994,1.322-.028,2.671.028,3.994,0Z"/>
      <path class="f" d="M135.842,68.89c-.028,1.323.018,2.67,0,3.994-.141.141-3.049,0-3.994,0-.028,1.322.018,2.671,0,3.994-1.321.036-2.675-.057-3.994,0-.016,2.652.018,5.335,0,7.987h-3.994c.028-1.322-.028-2.671,0-3.994s-.018-2.671,0-3.994c1.321-.036,2.675.057,3.994,0,.008-1.323-.028-2.671,0-3.994,0-2.922,3.335-2.795,3.994,0-2.526-1.465-2.532-2.53,0-3.994,1.323-.028,2.671.028,3.994,0Z"/>
      <path class="f" d="M123.861,84.864c-.028,1.322.018,2.671,0,3.994-1.321.036-2.675-.057-3.994,0,.008-1.323-.028-2.672,0-3.994h3.994Z"/>
      <path class="f" d="M180.77,19.968c1.322.034,2.671-.022,3.994,0v24.96c-3.983.01-7.998-.014-11.981,0-.057,1.319.036,2.673,0,3.994-2.652.013-5.335-.019-7.987,0-.034,1.322.022,2.671,0,3.994-2.652.013-5.335-.018-7.987,0-.034,1.322.022,2.671,0,3.994-2.983.037-6.003-.052-8.986,0-.057,1.32.036,2.672,0,3.994-1.323.018-2.671-.028-3.994,0-.057,1.319.036,2.673,0,3.994-1.323.018-2.671-.028-3.994,0,.034-1.322-.022-2.671,0-3.994,1.323-.028,2.671.028,3.994,0,.057-1.319-.036-2.673,0-3.994,1.323-.015,2.671.023,3.994,0,.057-1.32-.036-2.672,0-3.994,1.323-.017,2.671.026,3.994,0,1.783-2.529,3.204-2.519,4.992,0-2.521-1.468-2.527-2.526,0-3.994,1.323-.019,2.671.006,3.994,0,1.258-1.945,2.732-1.941,3.994,0-2.521-1.469-2.527-2.525,0-3.994,2.649-.046,5.337.009,7.987,0,.057-1.319-.036-2.673,0-3.994h7.987v-16.973c-2.922,0-2.795-3.335,0-3.994Z"/>
      <polygon class="f" points="256.649 478.236 256.649 486.223 260.642 486.223 260.642 490.217 256.649 490.217 256.649 498.204 252.655 498.204 252.655 490.217 248.662 490.217 248.662 486.223 252.655 486.223 252.655 478.236 256.649 478.236"/>
      <polygon class="f" points="51.976 217.652 51.976 225.64 55.969 225.64 55.969 229.633 51.976 229.633 51.976 237.62 47.982 237.62 47.982 229.633 43.989 229.633 43.989 225.64 47.982 225.64 47.982 217.652 51.976 217.652"/>
      <path class="f" d="M409.405,213.659c1.319-.057,2.672.036,3.994,0v-7.987h3.994v7.987h3.994v3.994h-3.994v7.987h-3.994v-7.987c-1.321-.036-2.674.057-3.994,0-2.922-.002-2.798-3.336,0-3.994Z"/>
      <polygon class="f" points="244.668 402.357 244.668 410.344 248.662 410.344 248.662 414.338 244.668 414.338 244.668 422.325 240.674 422.325 240.674 414.338 236.681 414.338 236.681 410.344 240.674 410.344 240.674 402.357 244.668 402.357"/>
      <path class="f" d="M365.475,96.845c-.046-2.651.032-5.336,0-7.987h-3.994v-3.994h3.994v-7.987h3.994v7.987h3.994v3.994h-3.994c-.032,2.651.046,5.336,0,7.987-.002,2.922-3.336,2.798-3.994,0Z"/>
      <polygon class="f" points="75.938 108.826 75.938 116.813 79.931 116.813 79.931 120.807 75.938 120.807 75.938 128.794 71.944 128.794 71.944 120.807 67.95 120.807 67.95 116.813 71.944 116.813 71.944 108.826 75.938 108.826"/>
      <path class="f" d="M381.45,132.788c.057-1.319-.036-2.672,0-3.994h3.994v11.981c-.72,1.63-2.052,2.961-3.994,3.994,4.954,2.938-.494,8.955-3.994,3.994,2.54,1.463,2.544,2.531,0,3.994-1.468,2.527-2.525,2.521-3.994,0,1.94,1.261,1.942,2.735,0,3.994-1.466,2.534-2.527,2.528-3.994,0,1.919,1.261,1.919,2.733,0,3.994,1.467-2.528,2.528-2.534,3.994,0,2.522,1.47,2.518,2.524,0,3.994.002-2.917,3.339-2.798,3.994,0,2.544,1.462,2.54,2.53,0,3.994,1.731-3.823,6.255-1.858,6.022,2.042,1.161-.241,1.654.76,1.965,1.952-4.496-6.266-.089-13.968,3.994-7.987-4.774-3.442.553-8.768,3.994-3.994-1.936-1.26-1.936-2.734,0-3.994-3.442,4.773-8.767-.551-3.994-3.994-5.385,6.392-8.643-5.529-3.994-7.987.002-2.922,3.336-2.798,3.994,0,.028,1.323-.018,2.67,0,3.994,2.528,1.468,2.523,2.525,0,3.994,1.467-2.528,2.528-2.534,3.994,0,2.54,1.459,2.535,2.534,0,3.994,1.465-2.526,2.53-2.532,3.994,0,1.323.028,2.67-.018,3.994,0v3.994c-2.652.032-5.336-.046-7.987,0-.009,1.323.028,2.671,0,3.994-.002,2.922-3.336,2.798-3.994,0,2.523,1.468,2.528,2.526,0,3.994-.018,1.323.028,2.671,0,3.994-.002,2.922-3.336,2.798-3.994,0,1.942,1.262,1.946,2.736,0,3.994-.017,2.652.046,5.337,0,7.987-.002,2.922-3.336,2.798-3.994,0-.028-1.323.028-2.671,0-3.994-1.782-1.042-3.113-2.373-3.994-3.994-.046-2.651.016-5.336,0-7.987-1.32-.057-2.672.036-3.994,0-.018-1.323.028-2.671,0-3.994-.944,0-3.852.141-3.994,0-.018-1.323.028-2.671,0-3.994-1.323-.028-2.67.018-3.994,0v-3.994c1.323-.018,2.671.028,3.994,0,.028-1.323-.018-2.67,0-3.994,1.323-.022,2.671.034,3.994,0,.009-1.323-.028-2.671,0-3.994,1.468-2.527,2.525-2.521,3.994,0-1.941-1.261-1.944-2.735,0-3.994.009-2.651-.046-5.337,0-7.987.414-1.588,1.746-2.919,3.994-3.994Z"/>
      <path class="f" d="M216.713,422.325c.944,0,3.852-.141,3.994,0,.015,3.982-.021,7.999,0,11.981.944,0,3.852-.141,3.994,0,.013,2.653-.019,5.335,0,7.987,1.319.057,2.672-.036,3.994,0v3.994c1.323,0,2.671-.028,3.994,0,2.922.002,2.798,3.336,0,3.994,0,.944.141,3.852,0,3.994h-3.994v3.994c-1.323.022-2.671-.034-3.994,0-.009,1.323.028,2.671,0,3.994-.002,2.922-3.336,2.798-3.994,0-2.54-1.463-2.544-2.531,0-3.994,1.468-2.527,2.525-2.521,3.994,0-1.941-1.261-1.944-2.736,0-3.994-1.941-1.26-1.942-2.734,0-3.994.656-1.73,1.987-3.061,3.994-3.994-.002,2.922-3.336,2.798-3.994,0-1.944-1.258-1.941-2.732,0-3.994-2.937,4.955-8.955-.495-3.994-3.994-2.54-1.458-2.536-2.535,0-3.994-.613,1.737-1.944,3.068-3.994,3.994-1.471,2.517-2.522,2.514-3.994,0,2.54,1.463,2.544,2.532,0,3.994-1.468,2.527-2.525,2.521-3.994,0,2.518,1.47,2.522,2.524,0,3.994,1.943,2.622,1.942,5.364,0,7.987,3.442-4.773,8.767.551,3.994,3.994,2.536,1.455,2.532,2.538,0,3.994,1.471-2.514,2.522-2.517,3.994,0,1.752,1.06,3.083,2.391,3.994,3.994-.014,3.982.01,7.998,0,11.981h-3.994c-.036-1.321.057-2.674,0-3.994-1.763-1.012-3.094-2.343-3.994-3.994-.046-2.651.016-5.336,0-7.987-1.323-.028-2.67.018-3.994,0-.012-2.652.018-5.335,0-7.987-1.323-.028-2.671.028-3.994,0-1.738-.612-3.07-1.944-3.994-3.994,0-.944-.141-3.852,0-3.994h3.994v-3.994c1.323-.022,2.671.034,3.994,0,.028-1.323-.018-2.67,0-3.994,1.323-.018,2.671.028,3.994,0,.021-3.981-.069-8.002,0-11.981.612-1.738,1.943-3.07,3.994-3.994Z"/>
      <path class="f" d="M8.046,201.678c.018-2.652-.012-5.335,0-7.987h3.994c.012,2.652-.018,5.335,0,7.987,1.95,1.258,1.948,2.733,0,3.994,0,2.65.046,5.338,0,7.987-.002,2.922-3.336,2.798-3.994,0-.046-2.65,0-5.337,0-7.987-1.948-1.26-1.95-2.736,0-3.994Z"/>
      <path class="f" d="M409.405,112.82c.018-2.652-.012-5.335,0-7.987h3.994c.012,2.652-.018,5.335,0,7.987,1.95,1.258,1.948,2.733,0,3.994,0,2.65.046,5.338,0,7.987-.002,2.922-3.336,2.798-3.994,0-.046-2.65,0-5.337,0-7.987-1.948-1.26-1.95-2.736,0-3.994Z"/>
      <path class="f" d="M188.757,414.338c.019-2.652-.013-5.335,0-7.987h3.994c.036,1.322-.057,2.674,0,3.994,1.654.968,3.054,2.373,3.994,3.994,2.538,1.461,2.532,2.531,0,3.994-1.32.057-2.672-.036-3.994,0-.036,1.322.057,2.674,0,3.994-.002,2.922-3.336,2.798-3.994,0-.028-1.323.008-2.67,0-3.994-1.953-1.259-1.953-2.735,0-3.994Z"/>
      <path class="f" d="M240.674,36.941c5.308,0,10.668-.092,15.974,0,2.922-.002,2.791,3.333,0,3.994-6.644-.011-13.324.008-19.968,0-.141-.141,0-3.05,0-3.994.002-2.917,3.339-2.798,3.994,0Z"/>
      <path class="f" d="M433.367,277.557h3.994c.141.141,0,3.049,0,3.994-.002,2.922-3.336,2.798-3.994,0,1.951,1.259,1.951,2.734,0,3.994-.014,3.982.01,7.999,0,11.981-1.321.036-2.675-.057-3.994,0,.007,1.323-.028,2.672,0,3.994,2.65.046,5.336-.032,7.987,0,.036,1.321-.057,2.675,0,3.994,2.651.035,5.336-.025,7.987,0v3.994h3.994c.036,1.321-.057,2.675,0,3.994,1.323.023,2.671-.015,3.994,0,.036,1.321-.057,2.675,0,3.994,1.319.057,2.673-.036,3.994,0,.036,1.321-.057,2.675,0,3.994,1.319.057,2.673-.036,3.994,0,.015,1.323-.023,2.671,0,3.994,1.319.057,2.673-.036,3.994,0,.025,2.651-.035,5.336,0,7.987,1.654.033,3.338-.022,4.992,0,.012,2.652-.018,5.336,0,7.987-1.654-.033-3.338.022-4.992,0-.025-2.651.035-5.336,0-7.987-1.322-.026-2.671.017-3.994,0-.032-2.651.046-5.337,0-7.987-1.319-.057-2.673.036-3.994,0-.036-1.321.057-2.675,0-3.994-1.319-.057-2.673.036-3.994,0-.036-1.321.057-2.675,0-3.994-1.319-.057-2.673.036-3.994,0-.036-1.321.057-2.675,0-3.994-2.65-.046-5.336.032-7.987,0v-3.994h-3.994c-.036-1.321.057-2.675,0-3.994-2.651-.035-5.336.025-7.987,0-.018-1.323.028-2.671,0-3.994-1.323-.023-2.671.015-3.994,0v-3.994c1.321-.036,2.675.057,3.994,0-.029-5.312.021-10.662,0-15.974.141-.141,3.05,0,3.994,0-.008-1.323.028-2.672,0-3.994Z"/>
      <path class="f" d="M184.764,7.987c1.258-1.949,2.733-1.946,3.994,0-.034,1.322.022,2.671,0,3.994h-7.987c.397,4.556.224,4.299-3.994,3.994.019-2.652-.013-5.336,0-7.987,2.652-.013,5.336.019,7.987,0Z"/>
      <path class="f" d="M224.7,27.955c.024,1.655-.016,3.336,0,4.992,1.323.018,2.671-.028,3.994,0,2.922.002,2.798,3.336,0,3.994-2.651.046-5.336-.032-7.987,0,.099-2.476-.142-5.006,0-7.488.164-2.88,2.066-1.112,3.994-1.498Z"/>
      <path class="f" d="M51.976,144.769c4.496,6.266.089,13.968-3.994,7.987,4.773,3.442-.551,8.767-3.994,3.994,1.936,1.26,1.936,2.734,0,3.994,2.522,1.47,2.518,2.524,0,3.994.002-2.922,3.336-2.798,3.994,0,2.544,1.462,2.54,2.53,0,3.994,4.487-5.513,8.274,1.872,3.994,7.987.002-2.922,3.336-2.798,3.994,0-4.494-6.266-.089-13.968,3.994-7.987-4.962-3.498,1.056-8.948,3.994-3.994-1.943-2.623-1.943-5.365,0-7.987-3.442,4.773-8.767-.551-3.994-3.994,1.467-2.528,2.528-2.534,3.994,0,2.54,1.458,2.536,2.534,0,3.994,1.465-2.526,2.53-2.532,3.994,0,1.323.028,2.67-.018,3.994,0v3.994h-3.994v3.994c-1.322.036-2.674-.057-3.994,0-.008,1.323.028,2.671,0,3.994-.002,2.922-3.336,2.798-3.994,0,2.523,1.468,2.528,2.526,0,3.994-.018,1.323.028,2.671,0,3.994-.002,2.922-3.336,2.798-3.994,0,1.942,1.262,1.947,2.736,0,3.994-.018,2.652.012,5.335,0,7.987h-3.994c-.012-2.652.018-5.335,0-7.987-1.947-1.258-1.942-2.732,0-3.994-.002,2.922-3.336,2.798-3.994,0-.046-2.651.016-5.336,0-7.987-1.319-.057-2.672.036-3.994,0-.018-1.323.028-2.671,0-3.994-.944,0-3.852.141-3.994,0-.022-1.323.034-2.671,0-3.994-2.538-1.461-2.532-2.531,0-3.994,1.323-.028,2.671.028,3.994,0,.009-1.323-.028-2.671,0-3.994.002-2.922,3.336-2.798,3.994,0-2.523-1.468-2.528-2.526,0-3.994.018-1.323-.028-2.671,0-3.994,0-2.922,3.335-2.795,3.994,0Z"/>
      <path class="f" d="M24.02,120.807c1.462-2.544,2.533-2.548,3.994,0,1.323.028,2.67-.018,3.994,0v3.994c-1.323.018-2.671-.028-3.994,0-1.461,2.548-2.532,2.544-3.994,0-1.462,2.544-2.533,2.548-3.994,0-1.953-1.259-1.953-2.735,0-3.994,1.461-2.548,2.532-2.544,3.994,0Z"/>
      <path class="g" d="M28.014,124.801v7.987h-3.994c-3.059-.401-2.918-7.325,0-7.987,1.323,0,2.671.028,3.994,0Z"/>
      <path class="f" d="M268.63,40.935c2.922-.002,2.791,3.333,0,3.994-2.652-.018-5.335.012-7.987,0-.036-1.321.057-2.674,0-3.994,2.651.008,5.337-.046,7.987,0Z"/>
      <path class="e" d="M389.437,511.183v3.994h-7.987v-3.994c2.654-.009,5.333.003,7.987,0Z"/>
      <path class="g" d="M385.443,140.775h3.994c.018,1.323-.028,2.671,0,3.994h-3.994c-.002,2.922-3.336,2.798-3.994,0,.057-1.32-.036-2.672,0-3.994.141-.141,3.049,0,3.994,0Z"/>
      <path class="f" d="M55.969,132.788c.046,2.65-.009,5.336,0,7.987,1.323.028,2.67-.018,3.994,0,.013,2.653-.019,5.335,0,7.987-.002,2.917-3.339,2.798-3.994,0-2.542-1.46-2.538-2.532,0-3.994-1.948-1.258-1.945-2.733,0-3.994-1.261,1.919-2.733,1.919-3.994,0,.017-2.651-.046-5.337,0-7.987.002-2.922,3.336-2.798,3.994,0Z"/>
      <path class="e" d="M24.02,124.801v7.987c-.944,0-3.852.141-3.994,0-.012-2.652.018-5.335,0-7.987,1.322.028,2.671,0,3.994,0Z"/>
      <path class="g" d="M24.02,112.82h3.994v7.987c-1.322-.028-2.671,0-3.994,0-3.054-.403-2.922-7.327,0-7.987Z"/>
      <path class="e" d="M24.02,112.82v7.987c-1.323,0-2.671-.028-3.994,0,.018-2.652-.012-5.335,0-7.987.141-.141,3.049,0,3.994,0Z"/>
      <path class="g" d="M156.808,454.274c-.023,1.323.015,2.67,0,3.994h-4.992c.028-1.323-.018-2.67,0-3.994h4.992Z"/>
      <path class="e" d="M220.706,345.448c.004,1.657-.005,3.335,0,4.992h-3.994c-.176-.176,0-3.984,0-4.992h3.994Z"/>
      <path class="d" d="M321.545,345.448c-.021,1.655.014,3.337,0,4.992h-3.994c.021-1.655-.014-3.337,0-4.992h3.994Z"/>
      <path class="e" d="M151.816,221.646c1.654.033,3.337-.022,4.992,0,.018,1.323-.028,2.671,0,3.994h-4.992v-3.994Z"/>
      <path class="e" d="M421.386,502.198v4.992c-1.323.015-2.671-.023-3.994,0v-4.992c1.321-.036,2.674.057,3.994,0Z"/>
      <path class="g" d="M151.816,410.344h4.992c.015,1.323-.023,2.671,0,3.994h-4.992c-.015-1.323.023-2.671,0-3.994Z"/>
      <path class="e" d="M156.808,48.922c-.022,1.322.034,2.672,0,3.994-1.655.011-3.338-.033-4.992,0v-3.994c1.655-.016,3.337.024,4.992,0Z"/>
      <path class="e" d="M260.642,345.448h3.994c.016,1.655-.024,3.337,0,4.992-.002,2.922-3.336,2.798-3.994,0-.033-1.653-.011-3.339,0-4.992Z"/>
      <path class="e" d="M131.848,233.627c-.022,1.322.034,2.672,0,3.994-1.326.005-2.668-.004-3.994,0v-3.994c1.323-.015,2.671.023,3.994,0Z"/>
      <path class="g" d="M345.507,229.633c.028,1.322-.007,2.671,0,3.994h-3.994c-.018-1.323.028-2.671,0-3.994.002-2.922,3.336-2.798,3.994,0Z"/>
      <path class="e" d="M119.867,237.62c-.022,1.323.034,2.671,0,3.994-1.323.007-2.672-.028-3.994,0v-3.994c1.323-.015,2.671.023,3.994,0Z"/>
      <path class="d" d="M321.545,92.852c.028,1.322-.007,2.671,0,3.994h-3.994c-.018-1.323.028-2.671,0-3.994.002-2.922,3.336-2.798,3.994,0Z"/>
      <path class="e" d="M317.552,88.858h3.994c.018,1.323-.028,2.671,0,3.994h-3.994c-.028-1.323.01-2.67,0-3.994Z"/>
      <path class="e" d="M143.829,229.633c-.022,1.323.034,2.672,0,3.994-1.326.004-2.668-.004-3.994,0v-3.994c1.323-.015,2.671.023,3.994,0Z"/>
      <path class="e" d="M341.513,225.64h3.994c.018,1.323-.028,2.671,0,3.994h-3.994c-.028-1.322.007-2.671,0-3.994Z"/>
      <path class="d" d="M119.867,88.858c-.008,1.326.004,2.668,0,3.994h-3.994c.028-1.322-.018-2.671,0-3.994,1.321-.036,2.675.057,3.994,0Z"/>
      <path class="e" d="M115.874,96.845c-.008,1.323.003,2.67,0,3.994h-3.994c.023-1.322-.015-2.671,0-3.994h3.994Z"/>
      <path class="e" d="M345.507,261.582c-.023,1.322.015,2.671,0,3.994h-3.994c.023-1.323-.015-2.67,0-3.994h3.994Z"/>
      <path class="g" d="M401.418,269.569c.023-1.322-.015-2.671,0-3.994h3.994v3.994h-3.994Z"/>
      <path class="g" d="M111.88,269.569h3.994c.018,1.323-.028,2.671,0,3.994-.002,2.922-3.336,2.798-3.994,0-.028-1.322.007-2.671,0-3.994Z"/>
      <path class="e" d="M417.392,269.569c1.323.023,2.67-.015,3.994,0v3.994c-1.323-.004-2.67-.005-3.994,0v-3.994Z"/>
      <path class="e" d="M115.874,273.563c.028,1.323-.008,2.67,0,3.994h-3.994c-.018-1.323.028-2.671,0-3.994h3.994Z"/>
      <path class="g" d="M341.513,273.563c-.023,1.323.015,2.67,0,3.994h-3.994c.023-1.323-.015-2.67,0-3.994h3.994Z"/>
      <path class="g" d="M409.405,213.659v3.994c-1.319-.057-2.672.036-3.994,0v-3.994c1.321-.036,2.674.057,3.994,0Z"/>
      <path class="d" d="M139.835,213.659c1.32.057,2.672-.036,3.994,0v3.994c-1.319-.057-2.672.036-3.994,0v-3.994Z"/>
      <path class="g" d="M12.04,213.659c-.023,1.323.015,2.67,0,3.994h-3.994c-.015-1.323.023-2.671,0-3.994h3.994Z"/>
      <path class="e" d="M369.469,96.845c-.023,1.323.015,2.67,0,3.994h-3.994c-.015-1.323.023-2.671,0-3.994h3.994Z"/>
      <path class="g" d="M127.855,201.678h3.994c.036,1.322-.057,2.674,0,3.994h-3.994c-.036-1.321.057-2.674,0-3.994Z"/>
      <path class="e" d="M437.36,281.55v3.994h-3.994c.005-1.323.008-2.671,0-3.994h3.994Z"/>
      <path class="e" d="M115.874,285.544h3.994c.036,1.321-.057,2.674,0,3.994h-3.994c-.015-1.323.023-2.67,0-3.994Z"/>
      <path class="g" d="M12.04,201.678h3.994v3.994h-3.994c0-1.323.009-2.67,0-3.994Z"/>
      <path class="d" d="M8.046,201.678c-.009,1.323,0,2.67,0,3.994h-3.994v-3.994h3.994Z"/>
      <path class="g" d="M333.526,289.537c-.057,1.32.036,2.672,0,3.994h-3.994c.057-1.32-.036-2.672,0-3.994h3.994Z"/>
      <path class="d" d="M369.469,289.537v3.994c-1.326.002-2.668-.004-3.994,0,0-.944-.141-3.852,0-3.994,1.323-.015,2.671.023,3.994,0Z"/>
      <path class="d" d="M385.443,184.705c-.023,1.323.015,2.67,0,3.994h-3.994c-.018-1.323.028-2.671,0-3.994h3.994Z"/>
      <path class="g" d="M361.481,297.525c2.922.002,2.798,3.336,0,3.994-.002,2.922-3.336,2.798-3.994,0-.028-1.322,0-2.671,0-3.994,1.324-.004,2.67-.003,3.994,0Z"/>
      <path class="g" d="M357.488,293.531v3.994c-1.324.004-2.67-.009-3.994,0v-3.994c1.323-.015,2.671.023,3.994,0Z"/>
      <path class="d" d="M409.405,112.82c-.009,1.323,0,2.67,0,3.994h-3.994v-3.994h3.994Z"/>
      <path class="e" d="M36.001,297.525c-.028,1.322.01,2.671,0,3.994-1.323.034-2.67-.022-3.994,0,.023-1.323-.015-2.67,0-3.994h3.994Z"/>
      <path class="e" d="M349.501,297.525v3.994c-1.323.009-2.671-.028-3.994,0v-3.994c1.323-.018,2.671.028,3.994,0Z"/>
      <path class="d" d="M377.456,176.718h3.994c.018,1.323-.028,2.671,0,3.994h-3.994c-.015-1.323.023-2.671,0-3.994Z"/>
      <path class="g" d="M115.874,176.718h3.994c.015,1.323-.023,2.671,0,3.994h-3.994c-.015-1.323.023-2.671,0-3.994Z"/>
      <path class="g" d="M59.963,176.718c-.028,1.323.018,2.67,0,3.994h-3.994c.009-1.326-.009-2.668,0-3.994h3.994Z"/>
      <path class="e" d="M51.976,176.718c.009,1.326-.009,2.668,0,3.994h-3.994c-.015-1.323.023-2.67,0-3.994h3.994Z"/>
      <path class="e" d="M389.437,172.724c-.028,1.323.018,2.67,0,3.994h-3.994c.009-1.326-.009-2.668,0-3.994h3.994Z"/>
      <path class="e" d="M91.912,305.512c1.323.023,2.671-.015,3.994,0v3.994c-1.323-.009-2.67.004-3.994,0v-3.994Z"/>
      <path class="e" d="M321.545,305.512c-.057,1.32.036,2.672,0,3.994-1.322.036-2.674-.057-3.994,0v-3.994h3.994Z"/>
      <path class="e" d="M131.848,68.89c-.028,1.322.028,2.671,0,3.994h-3.994c.028-1.323-.018-2.671,0-3.994,1.323-.018,2.671.028,3.994,0Z"/>
      <path class="d" d="M36.001,313.499c-.022,1.322.034,2.672,0,3.994-1.323.028-2.67-.018-3.994,0v-3.994c1.323.022,2.671-.034,3.994,0Z"/>
      <path class="g" d="M333.526,313.499c-.028,1.323.009,2.67,0,3.994-1.322.034-2.671-.022-3.994,0,.028-1.322-.018-2.671,0-3.994h3.994Z"/>
      <path class="d" d="M413.398,112.82h3.994v3.994h-3.994c0-1.323.009-2.67,0-3.994Z"/>
      <path class="e" d="M28.014,317.493v3.994c-1.323.01-2.672-.028-3.994,0v-3.994c1.323-.018,2.671.028,3.994,0Z"/>
      <path class="d" d="M325.539,168.73h3.994c.018,1.323-.028,2.672,0,3.994-1.322-.022-2.672.034-3.994,0-.028-1.323.028-2.671,0-3.994Z"/>
      <path class="g" d="M304.572,317.493v3.994c-1.321.036-2.674-.057-3.994,0v-3.994c1.322-.036,2.674.057,3.994,0Z"/>
      <path class="e" d="M115.874,321.486h3.994c.015,1.323-.023,2.671,0,3.994-1.322-.022-2.672.034-3.994,0,.01-1.322.028-2.673,0-3.994Z"/>
      <path class="e" d="M63.957,168.73c-.028,1.323.018,2.67,0,3.994h-3.994c.018-1.323-.028-2.671,0-3.994h3.994Z"/>
      <path class="e" d="M393.43,164.737c-.028,1.323.018,2.67,0,3.994h-3.994c.018-1.323-.028-2.671,0-3.994h3.994Z"/>
      <path class="e" d="M280.611,329.474v3.994c-1.323.015-2.671-.023-3.994,0v-3.994c1.323-.015,2.671.023,3.994,0Z"/>
      <path class="e" d="M325.539,329.474c-.009,1.323.004,2.67,0,3.994h-3.994c.023-1.323-.015-2.67,0-3.994h3.994Z"/>
      <path class="g" d="M172.783,333.467c1.323.023,2.67-.015,3.994,0v3.994c-1.323-.023-2.67.015-3.994,0v-3.994Z"/>
      <path class="g" d="M188.757,337.461c1.323.023,2.67-.015,3.994,0v3.994c-1.322-.023-2.671.015-3.994,0v-3.994Z"/>
      <path class="d" d="M470.308,341.455c1.322.026,2.671-.017,3.994,0,.015,1.323-.023,2.671,0,3.994h-3.994c0-1.323.009-2.671,0-3.994Z"/>
      <path class="d" d="M264.636,350.44c.019,1.323-.006,2.67,0,3.994h-3.994c-.017-1.323.026-2.671,0-3.994h3.994Z"/>
      <path class="d" d="M39.995,156.75c.022,1.323-.034,2.671,0,3.994h-3.994v-3.994c1.323-.018,2.671.028,3.994,0Z"/>
      <path class="g" d="M317.552,362.421c-.023,1.323.015,2.67,0,3.994h-3.994c.023-1.323-.015-2.67,0-3.994h3.994Z"/>
      <path class="e" d="M111.88,366.415h3.994v3.994c-1.326-.004-2.668.002-3.994,0-.028-1.319-.028-2.675,0-3.994Z"/>
      <path class="g" d="M389.437,148.762h3.994c.018,1.323-.028,2.671,0,3.994,1.323.028,2.67-.018,3.994,0v3.994c-1.323-.028-2.671.028-3.994,0-.009-1.323.028-2.671,0-3.994-1.323-.028-2.671.028-3.994,0-.028-1.323.018-2.67,0-3.994Z"/>
      <path class="e" d="M123.861,370.408c1.323.023,2.671-.015,3.994,0v3.994c-1.322-.028-2.671.007-3.994,0v-3.994Z"/>
      <path class="e" d="M115.874,152.756c.028,1.322-.007,2.671,0,3.994h-3.994c-.018-1.322.028-2.672,0-3.994.002-2.922,3.336-2.798,3.994,0Z"/>
      <path class="g" d="M220.706,374.402h3.994c.036,1.322-.057,2.674,0,3.994-1.322-.028-2.671.018-3.994,0-.015-1.323.023-2.671,0-3.994Z"/>
      <path class="d" d="M256.649,374.402c2.922.002,2.798,3.336,0,3.994-1.322.028-2.671-.007-3.994,0v-3.994c1.323-.018,2.671.028,3.994,0Z"/>
      <path class="e" d="M260.642,374.402v3.994c-1.323.018-2.672-.028-3.994,0v-3.994c1.322-.028,2.671.028,3.994,0Z"/>
      <path class="g" d="M313.558,374.402h3.994c.018,1.323-.028,2.671,0,3.994-.002,2.922-3.336,2.798-3.994,0-.028-1.323.008-2.67,0-3.994Z"/>
      <path class="e" d="M228.694,378.396v3.994h-3.994c-.036-1.322.057-2.674,0-3.994,1.322.028,2.671-.007,3.994,0Z"/>
      <path class="e" d="M317.552,378.396c.028,1.323-.008,2.67,0,3.994h-3.994c-.018-1.323.028-2.671,0-3.994h3.994Z"/>
      <path class="g" d="M4.052,382.389c.003,1.326-.005,2.668,0,3.994H.059c-.015-1.323.023-2.671,0-3.994h3.994Z"/>
      <path class="g" d="M8.046,378.396c2.514,1.471,2.517,2.522,0,3.994h-3.994c-.003-1.326.002-2.668,0-3.994.002-2.922,3.336-2.798,3.994,0Z"/>
      <path class="e" d="M63.957,152.756c1.323.028,2.671-.018,3.994,0v3.994c-1.323-.028-2.671.028-3.994,0-.008-1.323.028-2.671,0-3.994Z"/>
      <path class="g" d="M317.552,390.376h3.994c.036,1.321-.057,2.674,0,3.994h-3.994c-.015-1.323.023-2.67,0-3.994Z"/>
      <path class="e" d="M449.341,402.357h3.994c.015,1.323-.023,2.671,0,3.994-1.322-.022-2.672.034-3.994,0-.01-1.323.028-2.672,0-3.994Z"/>
      <path class="g" d="M8.046,406.351h3.994c.036,1.321-.057,2.674,0,3.994h-3.994c-.015-1.323.023-2.671,0-3.994Z"/>
      <path class="d" d="M321.545,406.351v3.994c-1.323.015-2.671-.023-3.994,0v-3.994c1.326.002,2.668-.004,3.994,0Z"/>
      <path class="e" d="M192.751,410.344h3.994c.022,1.323-.034,2.671,0,3.994,1.32.057,2.672-.036,3.994,0v3.994c-1.322.036-2.674-.057-3.994,0-.022-1.323.034-2.671,0-3.994-1.32-.057-2.672.036-3.994,0-.036-1.322.057-2.674,0-3.994Z"/>
      <path class="d" d="M188.757,414.338c-.01,1.323-.008,2.67,0,3.994h-3.994v-3.994h3.994Z"/>
      <path class="e" d="M16.033,418.332h3.994v3.994c-1.32-.057-2.672.036-3.994,0-.036-1.321.057-2.674,0-3.994Z"/>
      <path class="g" d="M288.598,418.332c-.023,1.323.015,2.671,0,3.994h-3.994c.023-1.322-.015-2.671,0-3.994h3.994Z"/>
      <path class="g" d="M192.751,422.325c-.057,1.32.036,2.672,0,3.994h-3.994c-.018-1.323.028-2.671,0-3.994h3.994Z"/>
      <path class="e" d="M216.713,422.325v3.994h-3.994c.023-1.323-.015-2.67,0-3.994h3.994Z"/>
      <path class="d" d="M111.88,148.762h3.994c.018,1.323-.028,2.671,0,3.994h-3.994c-.028-1.322.007-2.671,0-3.994Z"/>
      <path class="d" d="M59.963,148.762c.944,0,3.852-.141,3.994,0,.018,1.323-.028,2.671,0,3.994-1.323-.028-2.671.028-3.994,0-2.537-1.457-2.533-2.535,0-3.994Z"/>
      <path class="g" d="M156.808,426.319h3.994c.015,1.323-.023,2.67,0,3.994h-3.994c-.015-1.323.023-2.671,0-3.994Z"/>
      <path class="e" d="M164.796,44.928c-.022,1.323.034,2.671,0,3.994-1.326.01-2.668-.006-3.994,0v-3.994c1.323-.015,2.671.023,3.994,0Z"/>
      <path class="d" d="M39.995,430.313c1.323.023,2.67-.015,3.994,0v3.994c-1.321.036-2.674-.057-3.994,0v-3.994Z"/>
      <path class="e" d="M39.995,434.306c0,1.322.028,2.672,0,3.994-1.323.007-2.672-.028-3.994,0v-3.994c1.321-.036,2.674.057,3.994,0Z"/>
      <path class="d" d="M268.63,40.935c1.323.023,2.671-.015,3.994,0,.036,1.321-.057,2.674,0,3.994-1.326-.009-2.668.009-3.994,0v-3.994Z"/>
      <path class="e" d="M47.982,148.762c-.018,1.323.028,2.671,0,3.994h-3.994c.028-1.323-.018-2.671,0-3.994h3.994Z"/>
      <path class="d" d="M20.027,120.807c-.009,1.323-.009,2.671,0,3.994-1.323-.028-2.67.018-3.994,0v-3.994c1.323-.018,2.671.028,3.994,0Z"/>
      <path class="e" d="M377.456,144.769c-.005,1.326.008,2.668,0,3.994-1.322.034-2.671-.022-3.994,0,.028-1.323-.018-2.67,0-3.994h3.994Z"/>
      <path class="d" d="M160.802,438.3c-.008,1.323.028,2.671,0,3.994-.002,2.922-3.336,2.798-3.994,0,.028-1.323-.018-2.67,0-3.994h3.994Z"/>
      <path class="d" d="M256.649,36.941c1.323.023,2.671-.015,3.994,0,.036,1.321-.057,2.674,0,3.994-1.326-.004-2.668.002-3.994,0v-3.994Z"/>
      <path class="g" d="M51.976,140.775c1.943,1.262,1.947,2.736,0,3.994h-3.994c.028-1.323-.018-2.67,0-3.994,1.323-.018,2.671.028,3.994,0Z"/>
      <path class="e" d="M381.45,132.788c-.057,1.319.036,2.672,0,3.994h-3.994c.023-1.323-.015-2.67,0-3.994h3.994Z"/>
      <path class="e" d="M160.802,442.293c-.028,1.323.018,2.67,0,3.994h-3.994c.008-1.323-.028-2.671,0-3.994h3.994Z"/>
      <path class="e" d="M236.681,32.947c1.323.028,2.67-.018,3.994,0v3.994h-3.994v-3.994Z"/>
      <path class="d" d="M232.687,32.947v3.994c-1.323.015-2.671-.023-3.994,0v-3.994c1.323.028,2.67-.018,3.994,0Z"/>
      <path class="e" d="M232.687,446.287c1.323.028,2.67-.018,3.994,0v3.994h-3.994v-3.994Z"/>
      <path class="e" d="M321.545,120.807h3.994v3.994c-1.324.018-2.671-.028-3.994,0v-3.994Z"/>
      <path class="e" d="M220.706,19.968h3.994c.018,1.323-.028,2.671,0,3.994-1.322-.022-2.672.034-3.994,0v-3.994Z"/>
      <path class="e" d="M457.328,446.287c-.023,1.323.015,2.671,0,3.994h-3.994c.004-1.326-.002-2.668,0-3.994,1.322-.034,2.671.022,3.994,0Z"/>
      <path class="g" d="M200.738,450.281h3.994v3.994c-1.323-.028-2.67.018-3.994,0v-3.994Z"/>
      <path class="g" d="M284.604,450.281h3.994c.015,1.323-.023,2.67,0,3.994h-3.994c-.015-1.323.023-2.671,0-3.994Z"/>
      <path class="e" d="M308.566,128.794v3.994c-1.323.015-2.671-.023-3.994,0v-3.994c1.324-.017,2.67.026,3.994,0Z"/>
      <path class="e" d="M51.976,132.788c.023-1.323-.015-2.67,0-3.994h3.994c.015,1.323-.023,2.671,0,3.994h-3.994Z"/>
      <path class="e" d="M180.77,19.968v3.994h-3.994c-.018-1.323.028-2.671,0-3.994,1.322.022,2.672-.034,3.994,0Z"/>
      <path class="d" d="M453.335,458.268c-.023,1.322.015,2.671,0,3.994h-3.994c.023-1.323-.015-2.67,0-3.994h3.994Z"/>
      <path class="g" d="M151.816,462.262c-.028,1.323.018,2.67,0,3.994h-3.994c.057-1.32-.036-2.672,0-3.994h3.994Z"/>
      <path class="d" d="M192.751,3.994v3.994c-1.326.002-2.668-.004-3.994,0-2.521-1.469-2.527-2.525,0-3.994,1.322-.028,2.671.007,3.994,0Z"/>
      <path class="e" d="M224.7,462.262c-.028,1.323.018,2.67,0,3.994h-3.994c-1.945-1.261-1.947-2.736,0-3.994h3.994Z"/>
      <path class="e" d="M288.598,462.262h3.994c.036,1.321-.057,2.674,0,3.994h-3.994c-.015-1.323.023-2.67,0-3.994Z"/>
      <path class="g" d="M413.398,124.801c-.023,1.323.015,2.67,0,3.994h-3.994c-.015-1.323.023-2.671,0-3.994h3.994Z"/>
      <path class="g" d="M20.027,466.255h3.994c.015,1.323-.023,2.671,0,3.994h-3.994c-.015-1.323.023-2.671,0-3.994Z"/>
      <path class="g" d="M212.719,470.249h3.994c.036,1.321-.057,2.674,0,3.994h-3.994c-.015-1.323.023-2.67,0-3.994Z"/>
      <path class="e" d="M296.585,474.242h3.994c.036,1.322-.057,2.674,0,3.994-1.319-.057-2.672.036-3.994,0-.036-1.321.057-2.674,0-3.994Z"/>
      <path class="e" d="M188.757,3.994c-.022,1.323.034,2.671,0,3.994-1.323.004-2.671-.01-3.994,0v-3.994c1.323-.018,2.671.028,3.994,0Z"/>
      <path class="g" d="M300.579,478.236c1.319.057,2.672-.036,3.994,0,.036,1.321-.057,2.674,0,3.994,1.32.057,2.672-.036,3.994,0v3.994c-1.323-.026-2.671.017-3.994,0-.036-1.321.057-2.674,0-3.994-1.32-.057-2.672.036-3.994,0-.036-1.322.057-2.674,0-3.994Z"/>
      <path class="e" d="M131.848,482.23v3.994c-1.323.018-2.671-.028-3.994,0v-3.994c1.322-.036,2.674.057,3.994,0Z"/>
      <path class="g" d="M123.861,486.223v3.994h-3.994c.023-1.323-.015-2.671,0-3.994,1.323-.018,2.671.028,3.994,0Z"/>
      <path class="e" d="M36.001,490.217c1.32.057,2.672-.036,3.994,0v3.994c-1.323-.028-2.67.018-3.994,0v-3.994Z"/>
      <path class="e" d="M437.36,490.217c-.057,1.32.036,2.672,0,3.994-1.321.036-2.674-.057-3.994,0v-3.994h3.994Z"/>
      <path class="e" d="M43.989,494.211c1.323.028,2.67-.018,3.994,0v3.994c-1.323-.023-2.67.015-3.994,0v-3.994Z"/>
      <path class="e" d="M63.957,498.204c2.922.002,2.798,3.336,0,3.994-1.323-.028-2.67.018-3.994,0v-3.994c1.323.007,2.671-.028,3.994,0Z"/>
      <path class="g" d="M63.957,498.204c1.323.028,2.671-.018,3.994,0v3.994c-1.323-.008-2.671.028-3.994,0v-3.994Z"/>
      <path class="g" d="M79.931,498.204c2.922.002,2.798,3.336,0,3.994-1.323.028-2.67-.008-3.994,0v-3.994c1.323-.018,2.671.028,3.994,0Z"/>
      <path class="e" d="M83.925,498.204v3.994c-1.323.018-2.671-.028-3.994,0v-3.994c1.32-.028,2.674-.028,3.994,0Z"/>
      <path class="e" d="M216.713,3.994V0h3.994c.015,1.323-.023,2.671,0,3.994h-3.994Z"/>
      <path class="g" d="M317.552,124.801v3.994c-1.324.017-2.67-.026-3.994,0v-3.994c1.324-.018,2.671.028,3.994,0Z"/>
      <path class="e" d="M87.918,507.19h3.994c.036,1.321-.057,2.674,0,3.994h-3.994c-.015-1.323.023-2.671,0-3.994Z"/>
      <path class="d" d="M115.874,515.177v3.994c-1.323.015-2.671-.023-3.994,0v-3.994c1.321-.036,2.674.057,3.994,0Z"/>
      <path class="g" d="M333.526,515.177c-.023,1.323.015,2.67,0,3.994h-3.994c.023-1.323-.015-2.671,0-3.994h3.994Z"/>
      <path class="g" d="M369.469,519.171c-.023,1.322.015,2.671,0,3.994h-3.994c.023-1.323-.015-2.67,0-3.994h3.994Z"/>
      <path class="g" d="M353.494,535.145c1.323.023,2.671-.015,3.994,0v3.994c-1.323-.028-2.67.018-3.994,0v-3.994Z"/>
      <path class="e" d="M365.475,535.145c-.023,1.323.015,2.67,0,3.994-1.323.018-2.671-.028-3.994,0v-3.994h3.994Z"/>
      <path class="e" d="M131.848,84.864c1.742.827,3.073,2.158,3.994,3.994-5.22-3.554,1.713-9.092,3.994-3.994-.028,1.323.018,2.67,0,3.994-.141.141-3.049,0-3.994,0-.046,2.65.032,5.336,0,7.987h-3.994v7.987h-3.994v23.962c-1.322.022-2.672-.034-3.994,0,.046,2.65-.032,5.336,0,7.987h-3.994c-.012-2.652.018-5.336,0-7.987,1.468-2.527,2.525-2.521,3.994,0-1.781-1.043-3.113-2.374-3.994-3.994-.022-7.974-.009-15.988,0-23.962,1.323-.028,2.671.018,3.994,0v-7.987h3.994c.012-2.652-.018-5.335,0-7.987h3.994Z"/>
      <path class="e" d="M131.848,261.582c-1.323-.028-2.67.018-3.994,0v-3.994h7.987c.141.141,0,3.049,0,3.994,1.323.028,2.67-.018,3.994,0v3.994h3.994c.036,1.321-.057,2.674,0,3.994,1.622.974,2.953,2.305,3.994,3.994,2.983.052,6.002-.037,8.986,0v3.994c-1.661,1.518-3.325,2.849-4.992,3.994,2.901-2.693,6.096-2.722,8.986,0,2.517,1.471,2.514,2.523,0,3.994,1.189-1.694,2.52-3.025,3.994-3.994-1.261,1.941-2.736,1.944-3.994,0-2.922-.002-2.798-3.336,0-3.994,1.323.028,2.67-.018,3.994,0v3.994c2.652.018,5.335-.012,7.987,0,.018,1.323-.028,2.671,0,3.994,2.651-.046,5.336.032,7.987,0v3.994c-2.624,1.957-5.367,1.963-7.987,0-2.517-1.471-2.514-2.522,0-3.994-1.189,1.694-2.52,3.025-3.994,3.994,1.261-1.941,2.736-1.944,3.994,0,2.922.002,2.798,3.336,0,3.994-1.323-.023-2.67.015-3.994,0v-3.994c-2.652-.018-5.336.012-7.987,0-.018-1.323.028-2.671,0-3.994-2.983.052-6.002-.037-8.986,0-.141-.141,0-3.049,0-3.994-1.323-.023-2.67.015-3.994,0v-3.994c-2.651-.032-5.336.046-7.987,0-.057-1.319.036-2.673,0-3.994-1.321-.036-2.675.057-3.994,0-.057-1.319.036-2.672,0-3.994-1.321-.036-2.674.057-3.994,0-.028-1.321,0-2.671,0-3.994.613-1.738,1.944-3.069,3.994-3.994-1.467,2.528-2.528,2.534-3.994,0Z"/>
      <path class="e" d="M184.764,289.537c3.983.014,7.998-.01,11.981,0v3.994h11.981v3.994c-8.71-.364-17.786.495-26.458,0-2.88-.164-1.112-2.065-1.498-3.994,1.042-1.782,2.374-3.113,3.994-3.994Z"/>
      <path class="e" d="M288.598,56.909v3.994c1.323.018,2.671-.028,3.994,0,0,1.323.028,2.671,0,3.994,1.322-.028,2.671,0,3.994,0,.028,1.323-.018,2.67,0,3.994,1.323.018,2.671-.028,3.994,0,.019,2.652-.013,5.335,0,7.987,1.323.018,2.671-.028,3.994,0-.018,2.652.012,5.335,0,7.987h-3.994v-3.994h-3.994v-3.994h-3.994v-3.994h-3.994v-3.994c.786-1.498,2.117-2.829,3.994-3.994-1.189,1.694-2.52,3.025-3.994,3.994h-3.994v-3.994c-4.556.397-4.299.224-3.994-3.994l3.994-3.994c1.324.004,2.67-.009,3.994,0Z"/>
      <path class="e" d="M143.829,72.884c.028-1.323-.018-2.67,0-3.994h3.994v-3.994h3.994v7.987h-3.994v3.994c-1.323.018-2.671-.028-3.994,0-.028,1.323.018,2.67,0,3.994h-3.994c.018-1.323-.028-2.671,0-3.994,1.323-.028,2.671.028,3.994,0,.028-1.323-.028-2.671,0-3.994Z"/>
      <path class="e" d="M280.611,52.915v3.994c-1.324-.004-2.67.009-3.994,0v-3.994c1.324-.009,2.67,0,3.994,0Z"/>
      <path class="e" d="M272.623,52.915v3.994c1.323.028,2.67-.009,3.994,0v3.994c-1.323-.028-2.67.018-3.994,0-.141-.141,0-3.049,0-3.994-1.323-.028-2.67.018-3.994,0v-3.994c1.323-.018,2.671.028,3.994,0Z"/>
      <rect class="e" x="123.861" y="140.775" width="3.994" height="3.994"/>
      <path class="e" d="M220.706,128.794c1.322.028,2.671-.018,3.994,0v3.994h-3.994v-3.994Z"/>
      <path class="d" d="M216.713,128.794v3.994c-1.323.015-2.671-.023-3.994,0v-3.994c1.326.005,2.668-.008,3.994,0Z"/>
      <polygon class="f" points="389.437 422.325 393.43 422.325 393.43 418.332 397.424 418.332 397.424 422.325 401.418 422.325 401.418 426.319 405.411 426.319 405.411 442.293 401.418 442.293 401.418 446.287 397.424 446.287 397.424 450.281 385.443 450.281 385.443 438.3 389.437 438.3 389.437 422.325"/>
      <polygon class="f" points="385.443 350.44 381.45 350.44 381.45 358.427 377.456 358.427 377.456 354.434 373.462 354.434 373.462 333.467 377.456 333.467 377.456 329.474 385.443 329.474 385.443 325.48 389.437 325.48 389.437 333.467 385.443 333.467 385.443 350.44"/>
      <path class="e" d="M333.526,325.48c2.714,2.533,2.765,5.427,0,7.987-.002,2.922-3.336,2.798-3.994,0,.003-2.654-.008-5.333,0-7.987.002-2.922,3.336-2.798,3.994,0Z"/>
      <path class="e" d="M337.52,333.467c-.014,3.983.01,7.998,0,11.981h-3.994v8.986h3.994v11.981h-3.994v-3.994c-1.321-.036-2.675.057-3.994,0-.025-8.306-.029-16.654,0-24.96.306-1.591,1.638-2.922,3.994-3.994.002-2.922,3.336-2.798,3.994,0Z"/>
      <path class="e" d="M313.558,442.293h3.994c.018,1.323-.028,2.671,0,3.994,1.323.028,2.671-.018,3.994,0,.036,1.321-.057,2.674,0,3.994,1.323.028,2.67-.018,3.994,0,.141.141,0,3.049,0,3.994,1.319.057,2.672-.036,3.994,0v3.994h3.994v3.994h3.994v3.994c-.282.282-6.686,0-7.987,0-.057-1.319.036-2.673,0-3.994-2.651-.032-5.337.046-7.987,0v-3.994c1.042-1.782,2.373-3.113,3.994-3.994-3.028,5.133-9.129-.965-3.994-3.994-1.47,2.518-2.524,2.522-3.994,0-2.522-1.469-2.518-2.524,0-3.994-1.47,2.518-2.524,2.522-3.994,0-1.946-1.258-1.942-2.732,0-3.994Z"/>
      <path class="e" d="M300.579,434.306c.014-3.982-.01-7.999,0-11.981h3.994v7.987h3.994c.018,1.323-.028,2.671,0,3.994,1.655-.033,3.337.022,4.992,0,.018,1.323-.028,2.671,0,3.994-.074,2.984-4.455,2.753-4.992,0-2.522-1.47-2.518-2.524,0-3.994l-3.994,3.994c0-2.922,3.335-2.795,3.994,0,1.965,2.618,1.952,5.362,0,7.987,1.606-1.948,3.391-1.954,4.992,0,1.946,1.258,1.942,2.732,0,3.994,1.261-1.943,2.736-1.947,3.994,0,1.947,1.258,1.943,2.732,0,3.994h-3.994c-.028-1.323.009-2.67,0-3.994-1.655-.009-3.338.033-4.992,0-.028-1.322.008-2.671,0-3.994-1.323-.009-2.671.028-3.994,0-.046-2.645-.046-5.342,0-7.987h-3.994c-.009-1.323-.005-2.67,0-3.994Z"/>
      <path class="e" d="M365.475,297.525c3.982.014,7.999-.01,11.981,0v3.994h-11.981v3.994h-3.994c-.028,1.323.018,2.67,0,3.994h-7.987v3.994c-1.323.018-2.671-.028-3.994,0v3.994h-3.994c-2.523-1.469-2.528-2.526,0-3.994,1.468-2.528,2.525-2.523,3.994,0-1.741-.827-3.072-2.158-3.994-3.994,2.523,1.469,2.528,2.526,0,3.994-1.468,2.528-2.525,2.523-3.994,0,2.698,2.565,2.725,5.434,0,7.987-.018,2.652.012,5.335,0,7.987h-3.994c-1.047-1.556-1.621-3.266-1.953-5.095-.683-3.762,1.407-.412-.04-.892-.928-.308-1.507-1.215-2.001-2,.004-1.324-.009-2.67,0-3.994,1.322-.034,2.671.022,3.994,0v-3.994c1.323-.018,2.671.028,3.994,0,.023-1.323-.015-2.67,0-3.994.141-.141,3.049,0,3.994,0,.028-1.323-.018-2.67,0-3.994,1.322-.036,2.674.057,3.994,0,1.012-1.763,2.343-3.094,3.994-3.994h3.994c1.694,1.189,3.025,2.52,3.994,3.994-2.514-1.471-2.517-2.522,0-3.994v-3.994c1.326.003,2.668-.005,3.994,0Z"/>
      <path class="e" d="M329.532,406.351c2.922.002,2.798,3.336,0,3.994-1.322.034-2.671-.022-3.994,0-.028-1.323.018-2.671,0-3.994,1.323.009,2.672-.028,3.994,0Z"/>
      <path class="d" d="M345.507,422.325c2.517,1.471,2.514,2.523,0,3.994h-3.994c-.01-1.322-.028-2.672,0-3.994,1.468-2.523,2.526-2.528,3.994,0Z"/>
      <path class="d" d="M345.507,418.332h3.994v3.994c-1.468,2.523-2.526,2.528-3.994,0-2.917-.002-2.798-3.339,0-3.994Z"/>
      <polygon class="f" points="95.906 418.332 91.912 418.332 91.912 410.344 103.893 410.344 103.893 414.338 107.887 414.338 107.887 418.332 111.88 418.332 111.88 430.313 107.887 430.313 107.887 438.3 99.899 438.3 99.899 434.306 95.906 434.306 95.906 418.332"/>
      <polygon class="f" points="47.982 345.448 47.982 354.434 51.976 354.434 51.976 366.415 55.969 366.415 55.969 374.402 51.976 374.402 51.976 370.408 43.989 370.408 43.989 366.415 39.995 366.415 39.995 350.44 43.989 350.44 43.989 345.448 47.982 345.448"/>
      <path class="e" d="M12.04,341.455c-.028,1.322.008,2.671,0,3.994h-3.994c-.006-1.323-.009-2.67,0-3.994,1.322-.034,2.671.022,3.994,0Z"/>
      <path class="e" d="M20.027,341.455c-.028,1.323.018,2.67,0,3.994-1.323.018-2.671-.028-3.994,0-.052,2.983.037,6.002,0,8.986h-3.994c-.004,2.654.002,5.333,0,7.987-2.44,5.6-6.157-.777-7.987-3.994.004-2.652-.014-5.335,0-7.987,1.322-.034,2.671.022,3.994,0,.026,1.323-.017,2.67,0,3.994.141.141,3.049,0,3.994,0,.005-2.984-.018-6.002,0-8.986,1.323,0,2.671.028,3.994,0,.023-1.323-.015-2.67,0-3.994h3.994Z"/>
      <path class="e" d="M12.04,366.415c-.007,2.652-.002,5.335,0,7.987-.306,1.591-1.638,2.922-3.994,3.994h-3.994c-.003-2.654,0-5.333,0-7.987h3.994v-3.994h3.994Z"/>
      <path class="e" d="M28.014,325.48h3.994v3.994h-3.994v3.994c-1.323.018-2.671-.028-3.994,0-.028,1.323.018,2.67,0,3.994h-3.994v-3.994c1.323,0,2.671.028,3.994,0,.028-1.323-.028-2.671,0-3.994s-.018-2.67,0-3.994c.141-.141,3.049,0,3.994,0Z"/>
      <path class="e" d="M12.04,382.389c.002,1.326-.004,2.668,0,3.994h-3.994c-.028-1.322,0-2.671,0-3.994h3.994Z"/>
      <path class="e" d="M12.04,386.383c.944,0,3.852-.141,3.994,0v3.994h-3.994c-.01-1.323.004-2.67,0-3.994Z"/>
      <path class="g" d="M200.738,233.627c1.323.023,2.671-.015,3.994,0v3.994c-1.322-.023-2.671.015-3.994,0v-3.994Z"/>
      <path class="e" d="M244.668,237.62c2.922.002,2.798,3.336,0,3.994-1.322-.028-2.671.018-3.994,0v-3.994c1.322.007,2.672-.028,3.994,0Z"/>
      <path class="d" d="M244.668,237.62c1.322.028,2.671-.018,3.994,0v3.994c-1.323-.018-2.671.028-3.994,0v-3.994Z"/>
      <path class="d" d="M252.655,241.614c1.322.028,2.671-.018,3.994,0v3.994c-1.322.028-2.671-.008-3.994,0v-3.994Z"/>
      <path class="d" d="M204.732,124.801v3.994c-1.322-.023-2.671.015-3.994,0v-3.994c1.323-.015,2.671.023,3.994,0Z"/>
      <path class="e" d="M409.405,366.415c2.651-.046,5.336.032,7.987,0v7.987c-1.323.015-2.671-.023-3.994,0-.057-1.319.036-2.673,0-3.994h-3.994c-.015-1.323.023-2.671,0-3.994Z"/>
      <path class="d" d="M329.532,406.351c1.322.028,2.671-.018,3.994,0v3.994c-1.322.022-2.672-.034-3.994,0v-3.994Z"/>
      <path class="e" d="M357.488,430.313c.028,1.321.01,2.672,0,3.994-1.319.028-2.674.028-3.994,0v-3.994h3.994Z"/>
      <path class="g" d="M353.494,301.518v3.994c-1.322.036-2.674-.057-3.994,0v-3.994c1.324-.009,2.67,0,3.994,0Z"/>
      <path class="e" d="M220.706,434.306c.007,1.323-.028,2.671,0,3.994h-3.994v-3.994h3.994Z"/>
      <path class="e" d="M212.719,458.268h3.994c.036,1.322-.057,2.674,0,3.994-1.323,0-2.672.028-3.994,0-.008-1.323.028-2.671,0-3.994Z"/>
      <path class="g" d="M220.706,462.262c-.008,1.326.005,2.668,0,3.994-.944,0-3.852.141-3.994,0-.036-1.322.057-2.674,0-3.994h3.994Z"/>
      <path class="e" d="M228.694,446.287c0,.944.141,3.852,0,3.994h-3.994c-.003-1.326.005-2.668,0-3.994h3.994Z"/>
      <path class="g" d="M224.7,454.274c-.004,1.324.009,2.67,0,3.994-1.323.034-2.67-.022-3.994,0,.028-1.323-.018-2.67,0-3.994h3.994Z"/>
      <path class="d" d="M212.719,442.293c-.028,1.323.018,2.671,0,3.994h-3.994c.008-1.323-.028-2.671,0-3.994,1.322-.034,2.671.022,3.994,0Z"/>
      <path class="g" d="M20.027,329.474v3.994h-3.994c.028-1.322-.028-2.671,0-3.994,1.322-.028,2.671,0,3.994,0Z"/>
      <path class="g" d="M333.526,321.486c-.004,1.326.005,2.668,0,3.994h-3.994c.004-1.326-.008-2.668,0-3.994,1.319-.028,2.675-.028,3.994,0Z"/>
      <path class="e" d="M43.989,160.743h3.994c.018,1.323-.028,2.671,0,3.994h-3.994c-.028-1.322.009-2.671,0-3.994Z"/>
      <path class="g" d="M59.963,148.762c.01,1.323-.028,2.671,0,3.994-1.323-.028-2.671.018-3.994,0-.018-1.323.028-2.671,0-3.994h3.994Z"/>
      <path class="d" d="M55.969,140.775c.005,1.326-.008,2.668,0,3.994h-3.994c.009-1.326-.009-2.668,0-3.994,1.32-.028,2.674-.028,3.994,0Z"/>
      <path class="g" d="M373.462,156.75c0,1.324-.009,2.67,0,3.994,1.323.028,2.67-.018,3.994,0,.018,1.323-.028,2.671,0,3.994h-3.994c-.028-1.323.009-2.67,0-3.994-1.323-.028-2.671.028-3.994,0-.028-1.32-.028-2.674,0-3.994,1.323-.028,2.671.028,3.994,0Z"/>
      <path class="e" d="M377.456,152.756c-.028,1.323.018,2.67,0,3.994-1.323.018-2.671-.028-3.994,0,0-1.324-.009-2.67,0-3.994,1.323-.034,2.67.022,3.994,0Z"/>
      <path class="e" d="M244.668,245.608c-.022,1.322.034,2.672,0,3.994-1.326.004-2.668-.002-3.994,0v-3.994c1.323-.015,2.671.023,3.994,0Z"/>
    </g>
  </g>
</svg>