<?xml version="1.0" encoding="UTF-8"?>
<svg id="b" data-name="Layer 2" xmlns="http://www.w3.org/2000/svg" width="833.962" height="1428.636" viewBox="0 0 833.962 1428.636">
  <defs>
    <style>
      .d {
        fill: #aa1f65;
      }

      .e {
        fill: #d9d9d9;
      }

      .f {
        fill: #fe8042;
      }

      .g {
        fill: #717171;
      }

      .h {
        fill: #515151;
      }

      .i {
        fill: #94cb6f;
      }

      .j {
        fill: #10a44a;
      }

      .k {
        fill: #fed945;
      }

      .l {
        fill: #949494;
      }

      .m {
        fill: #b6b6b6;
      }
    </style>
  </defs>
  <g id="c" data-name="Layer 1">
    <g>
      <path class="h" d="M452.626,1353.049c.16,6.608-.11,13.236,0,19.846-5.26.282-10.601-.111-15.877,0,.347-6.555,0-13.268,0-19.846h15.877Z"/>
      <path class="h" d="M512.165,543.315v15.877h-19.846c.347,6.588-.291,13.287-.023,19.87l19.87-.023c.331,6.592-.287,13.285-.019,19.871,5.278.13,10.601-.144,15.896-.025,6.609.149,13.237-.139,19.846,0-.343-6.583.343-13.263,0-19.846h-19.846c0-6.558.429-13.324,0-19.846l19.87-.023c.265,6.583-.367,13.281-.023,19.87,6.579,0,13.29-.343,19.846,0v19.846c-6.61-.142-13.237.139-19.846,0,.343,6.589-.288,13.287-.023,19.87,6.594.18,13.263-.243,19.87-.023,4.312.143,19.139-.734,19.869-.021,1.743,1.703-1.812,33.945-.041,35.767.595.612,12.234-.1,15.896-.022.343-6.589-.288-13.286-.023-19.87,6.601-.03,13.253.023,19.87.023.143,6.61-.142,13.237,0,19.846-6.609,0-13.241.14-19.846,0-.336,6.461-.336,13.386,0,19.846.343,6.589-.288,13.286-.023,19.87,6.583.266,13.281-.368,19.87-.023-.149-6.609.139-13.237,0-19.846s.142-13.237,0-19.846h19.846c.344,6.574-.12,13.253,0,19.846.12,6.611-.084,13.234,0,19.846-6.579,0-13.29.343-19.846,0,.119,5.295-.155,10.619-.025,15.896,6.586.264,13.278-.345,19.871-.019-.096-5.289.067-10.587,0-15.877h19.846c.282,5.26-.111,10.601,0,15.877-6.597-.148-13.265.325-19.846,0,.12,6.593-.348,13.274,0,19.846.349,6.588-.292,13.287-.023,19.87,6.582.272,13.283-.377,19.87-.023.131,6.58-.43,13.299,0,19.846.346,5.263-.313,10.638-.02,15.897,5.259.294,10.634-.366,15.897-.02v19.846c0,6.608-.152,13.243,0,19.846.151,6.578-.448,13.302,0,19.846.311,4.543-2.143,15.271,2.321,15.95,5.326.81,11.91-.582,17.549-.055.129-5.277-.137-10.6-.023-15.895.142-6.61-.141-13.237,0-19.846.141-6.609-.068-13.235,0-19.846s.067-13.237,0-19.846h19.846c.641,31.66-.103,63.587,0,95.263-6.617,0-13.269-.054-19.87-.023-.266,6.583.369,13.281.023,19.87-.342,6.522-.152,13.307,0,19.846.276,11.872-.206,23.873-.023,35.745,6.583.266,13.28-.362,19.869-.021-.096-5.289.053-10.587,0-15.877h19.846v15.877c-6.596-.175-13.267.341-19.846,0,.12,6.593-.348,13.274,0,19.846.349,6.588-.292,13.288-.023,19.87,6.582.266,13.281-.368,19.87-.023l-.023,19.87c6.582.272,13.283-.377,19.87-.023,5.26.282,10.601-.111,15.877,0l-.025,15.896c6.587.265,13.278-.346,19.871-.019.182,19.797,0,39.74,0,59.539v15.877c-6.589.345-13.286-.289-19.87-.023l.023,19.87c.007,6.615-.005,13.231,0,19.846-5.295.119-10.619-.155-15.896-.025-.271,6.585.354,13.28.019,19.871-.267,5.263.105,10.6,0,15.877,5.267-.278,10.608.263,15.877,0v-15.877c6.578,0,13.291.347,19.846,0-.119,5.295.155,10.618.025,15.896-6.586.267-13.279-.349-19.871-.019,0,6.582.329,13.285,0,19.846h-15.877c.119-6.611-.131-13.236,0-19.846-6.588.347-13.287-.291-19.87-.023-.266,6.583.368,13.281.023,19.87-6.588.349-13.287-.292-19.87-.023-.265,6.583.367,13.281.023,19.87,6.611-.119,13.236.139,19.846,0v19.846c-6.574.344-13.253-.118-19.846,0,.148-6.595-.343-13.269,0-19.846-6.594.118-13.273-.344-19.846,0-6.589.345-13.286-.289-19.87-.023-.272,6.582.377,13.283.023,19.87,6.547-.43,13.267.131,19.846,0,6.611-.131,13.235.119,19.846,0-.119,5.295.155,10.619.025,15.896-6.586.268-13.279-.35-19.871-.019s-13.251-.112-19.846,0c0-5.264-.281-10.632,0-15.877-5.263.346-10.639-.313-15.897-.02-.294,5.258.366,10.635.02,15.897,5.289-.095,10.588.09,15.877,0v19.846c-5.292-.007-10.585.005-15.877,0,.343-6.578-.432-13.281,0-19.846-6.593.119-13.274-.348-19.846,0-6.588.349-13.287-.292-19.87-.023-.265,6.583.367,13.281.023,19.87h19.846v19.846c-6.574.344-13.253-.12-19.846,0,.343-6.583-.343-13.263,0-19.846-6.608,0-13.242-.148-19.846,0-5.295.119-10.619-.155-15.896-.025-.264,6.586.345,13.278.019,19.871,5.289-.093,10.587.065,15.877,0v19.846c-5.257.282-10.603-.087-15.877,0,.343-6.584-.325-13.26,0-19.846-6.594.116-13.272-.342-19.846,0-20.217,1.052-21.754-6.284-19.869,19.868,6.582.273,13.282-.374,19.869-.022v19.846c-6.556.343-13.267,0-19.846,0h-19.846c.009-6.618.055-13.269.019-19.871-5.278-.13-10.601.144-15.896.025-6.54-.147-13.325-.344-19.846,0-6.588.348-13.286-.291-19.869-.022-1.726,24.702-.988,19.891,19.869,19.868,6.615-.007,13.231.005,19.846,0v15.877c-13.188.243-26.5,0-39.693,0h-19.846c-.128-5.295.169-10.619.02-15.897-5.278-.149-10.602.147-15.897.02-6.609-.158-13.274.047-19.871-.019-.13,5.278.144,10.601.025,15.896l-19.87-.023c-.265,6.583.367,13.281.023,19.87,6.61-.136,13.236.136,19.846,0v19.846c-6.533.342-13.293.108-19.846,0,.343-6.583-.343-13.263,0-19.846-6.577.135-13.305-.447-19.846,0-4.543.311-15.271-2.143-15.95,2.321-.81,5.326.582,11.91.055,17.549,5.277.129,10.6-.137,15.895-.023v19.846c-11.795.558-23.896,0-35.724,0,.159-6.609-.055-13.274.023-19.87-6.583-.266-13.281.369-19.87.023-6.522-.342-13.307-.152-19.846,0-11.872.276-23.873-.206-35.745-.023.076,6.596-.137,13.261.021,19.869-6.565-.432-13.268.343-19.846,0l.023-19.87c-6.594-.184-13.264.248-19.87.023-.344-6.574.119-13.253,0-19.846,6.588-.348,13.287.291,19.869.022,1.885-26.152.348-18.817-19.869-19.868.139,6.61-.119,13.235,0,19.846-6.522.344-13.306.147-19.846,0-.348-6.573.119-13.253,0-19.846-5.278-.13-10.612.268-15.877,0-.264-5.263.097-10.599,0-15.877,5.292-.002,10.585,0,15.877,0,.051,5.291-.096,10.588,0,15.877,6.596.163,13.268-.342,19.846,0-.111-5.276.282-10.617,0-15.877-.353-6.587.295-13.287.023-19.87l-19.87.023c-.119-13.163.578-26.56,0-39.693-.29-6.598.259-13.282.019-19.871l-15.896.025c-.029-5.292,0-10.585,0-15.877,0-6.615,0-13.231,0-19.846v-95.263c5.295-.128,10.62.161,15.896.025.14-6.599-.162-13.257-.019-19.871,6.595-.114,13.269.33,19.846,0,6.592-.331,13.285.287,19.871.019l-.025-15.896c4.386-.225,19.083.79,19.869.021,1.779-1.74-1.833-37.954-.043-39.734,1.267-1.261,29.09.162,35.744.02,6.609-.141,13.235.063,19.846,0,18.35-.174,37.266-.839,55.57,0-.035,6.614.063,13.233,0,19.846-.063,6.612.138,13.237,0,19.846-5.233.458-10.657-.388-15.897-.02l.02,15.897h-19.846c-6.615,0-13.232-.019-19.846,0s-13.241-.152-19.846,0c-11.871.273-23.873-.205-35.744-.021l-.049,17.574c.613,4.268,29.245,2.149,35.792,2.293,6.604.146,13.238.005,19.846,0,6.609-.005,13.242.15,19.846,0,11.872-.27,23.874.202,35.745.023.272-6.581-.371-13.282-.021-19.869.279-5.26-.11-10.601,0-15.877,4.496-.394,19.001.892,19.87.023.703-.703-.023-15.925-.023-19.87,0-6.617.054-13.269.023-19.87-6.587-.237-13.274.326-19.87.023.035-6.614.029-13.233,0-19.846-.107-24.679,1.417-51.051,0-75.416-.307-5.271.288-10.635.02-15.897l-15.897.02c-.432-6.565.343-13.268,0-19.846s.288-13.287.023-19.87c-6.594-.18-13.263.242-19.87.023-6.606-.219-13.275.204-19.869.021l.023-39.714c6.593-.327,13.285.284,19.871.019.137-5.277-.153-10.602-.025-15.896.16-6.608-.11-13.236,0-19.846,6.589-.338,13.287.285,19.869.021-1.104-31.618,1.429-63.704-.023-95.284-.303-6.595.261-13.283.023-19.87-6.593-.184-13.264.248-19.87.023,0-5.264.281-10.632,0-15.877-.353-6.587.295-13.287.023-19.87l-19.87.023c-.259-13.19.087-26.497,0-39.693-.035-5.292,0-10.585,0-15.877v-19.846c6.588-.348,13.287.292,19.869.022,1.882-26.128.361-18.834-19.869-19.868v-19.846c6.574-.344,13.253.12,19.846,0s13.234.06,19.846,0c-.009,6.618-.055,13.269-.019,19.871,5.277.13,10.601-.144,15.896-.025,6.541.147,13.323.341,19.846,0,6.589-.344,13.287.289,19.87.023.268-6.583-.371-13.282-.023-19.87h75.416c-.278-5.267.278-10.611,0-15.877,6.579.123,13.3-.43,19.846,0ZM416.922,598.865h-19.885v19.885h19.885v-19.885ZM452.626,710.025c-5.276.108-10.616-.277-15.877,0-20.207,1.065-21.757-6.302-19.869,19.868,6.595-.076,13.261.137,19.869-.022,5.295-.127,10.619.16,15.896.025.14-6.599-.162-13.257-.019-19.871,6.607-.135,13.236.013,19.846,0,6.615-.013,13.231,0,19.846,0l-.023,19.87,19.87-.023c0,6.615,0,13.231,0,19.846,0,18.389.84,37.228,0,55.57-4.275.087-19.167-.726-19.87-.023s.167,15.565.023,19.87c-6.606.22-13.275-.205-19.869-.022.709,4.389-1.092,18.793.003,19.888,1.095,1.095,15.499-.706,19.888.003.183-6.593-.242-13.263-.022-19.869,6.606-.221,13.276.204,19.87.023.237-6.587-.326-13.274-.023-19.87,3.658-.075,15.309.629,15.896.022,1.242-1.285-.153-29.104-.018-35.746l19.917-2.303-.048-17.565c-6.601-.026-13.252.013-19.869.022,0-13.104.758-26.643,0-39.693-.306-5.271.287-10.634.02-15.897-5.258-.294-10.634.366-15.897.02-6.542-.43-13.27.099-19.846,0s-13.304-.324-19.846,0c-4.393.218-19.045-.804-19.871-.019-.602.572.104,12.236.025,15.896ZM603.459,785.441c-.447,6.534.09,13.276,0,19.846-5.296.11-10.618-.148-15.895-.023l.039,19.886,15.838.003c.16-6.599-.073-13.252.018-19.867,6.614-.137,13.271.147,19.87.023-.074-6.597.129-13.261-.023-19.87-.122-5.295.157-10.618.023-15.895-5.639.527-12.223-.865-17.549-.055-4.464.679-2.01,11.408-2.321,15.95ZM397.056,825.134c-6.617.002-13.269-.055-19.869-.022l-.048,17.565,19.917,2.303c.128,5.295-.161,10.62-.025,15.896,6.594.196,13.264-.244,19.871-.019.142,6.609-.067,13.235,0,19.846.133,13.176.26,26.521,0,39.693-.131,6.61.143,13.237,0,19.846-6.607.208-13.273-.223-19.867.018l.003,15.838,19.886.039c.128-5.277-.137-10.6-.023-15.895,6.608-.208,13.275.196,19.87.023.24-6.587-.33-13.275-.023-19.87.59-12.703.59-26.99,0-39.693-.306-6.595.263-13.283.023-19.87-6.594-.184-13.264.248-19.87.023-.255-11.873.191-23.872.023-35.745-6.6-.031-13.252.019-19.869.021ZM623.305,940.243c-.285,5.262.141,10.601,0,15.877-6.614.132-13.27-.144-19.87-.023l.023,19.87c-5.274-.087-10.621.284-15.877,0-.19-6.609.184-13.273.022-19.869-4.389.709-18.793-1.092-19.888.003s.706,15.499-.003,19.888c6.581.276,13.283-.378,19.869-.022.143,4.984-2.019,19.242,2.292,19.918l33.452-.049c.267-6.583-.364-13.281-.021-19.869,6.588-.349,13.287.292,19.87.023.268-6.583-.372-13.282-.023-19.87.274-5.173.268-10.703,0-15.877-1.049-20.219,6.28-21.754-19.868-19.869-.276,6.581.378,13.283.022,19.869ZM512.183,940.263h-19.881v15.836h19.881v-15.836ZM698.722,1051.383c-.131,20.902-4.692,21.585,19.868,19.869.061-6.601-.063-13.252-.022-19.869.131-20.902,4.692-21.585-19.868-19.869-.061,6.601.063,13.252.022,19.869ZM587.582,1071.229c-20.219,1.049-21.754-6.28-19.869,19.868,6.581.276,13.283-.378,19.869-.022,5.259.285,10.601-.112,15.877,0,6.61.141,13.235-.113,19.846,0,.079,3.66-.626,15.324-.025,15.896.72.684,15.68-.014,19.871-.019v19.846l-19.87-.023.023,19.87c.007,6.615-.005,13.231,0,19.846-6.593.326-13.285-.283-19.871-.019-.13,5.277.144,10.601.025,15.896-5.295.119-10.618-.155-15.896-.025l.019,19.871c-6.61.139-13.236-.136-19.846,0-6.61.136-13.236-.136-19.846,0-6.577.135-13.305-.447-19.846,0-4.543.311-15.271-2.143-15.95,2.321-.81,5.326.582,11.911.055,17.549,5.277.129,10.6-.137,15.895-.023,6.61.142,13.237-.141,19.846,0,6.589.14,13.257.139,19.846,0,6.61-.139,13.237.149,19.846,0,5.295-.119,10.619.155,15.896.025.264-6.586-.345-13.278-.019-19.871,6.587-.353,13.288.295,19.87.023l-.023-19.87c6.593-.326,13.285.283,19.871.019.13-5.278-.144-10.601-.025-15.896,6.589-.343,13.287.288,19.87.023.24-6.587-.33-13.275-.023-19.87.606-13.046.263-26.618,0-39.693-.106-5.296.147-10.618.025-15.896-6.586-.265-13.278.346-19.871.019-6.578-.326-13.251.112-19.846,0-.093-4.278.726-19.167.023-19.87-.761-.761-15.488.255-19.87.023-5.173-.274-10.703-.268-15.877,0ZM377.21,1182.369c-5.295.122-10.619-.157-15.895-.023.527,5.638-.865,12.223-.055,17.549.687,4.518,11.386,1.93,15.95,2.321,0,13.192.243,26.506,0,39.693-5.295.128-10.618-.169-15.897-.02l.02,15.897c-6.595.169-13.269-.348-19.846,0-6.588.349-13.287-.292-19.87-.023l.023,19.87c-13.196.181-26.5-.254-39.693,0-5.296.102-10.618-.144-15.895-.023.528,5.637-.865,12.223-.055,17.549.675,4.438,11.418,2.047,15.95,2.321,18.461,1.116,40.968.853,59.539,0,6.595-.303,13.283.261,19.87.023l-.023-19.87c5.295-.119,10.619.155,15.896.025.268-6.585-.35-13.279-.019-19.871,6.591-.335,13.286.29,19.871.019.122-5.278-.131-10.6-.025-15.896.263-13.075.606-26.647,0-39.693-.306-6.595.263-13.283.023-19.87-6.596.074-13.261-.129-19.87.023ZM492.339,1257.766h-19.885v19.885h19.885v-19.885Z"/>
      <path class="h" d="M416.903,543.315c-.278,5.267.278,10.611,0,15.877-6.615,0-13.232-.025-19.846,0-6.615.025-13.232-.038-19.846,0v-15.877c13.192-.243,26.496.074,39.693,0Z"/>
      <path class="h" d="M758.261,1202.216c-.119,6.594.344,13.273,0,19.846-6.609.149-13.237-.139-19.846,0,0-6.579-.343-13.29,0-19.846,6.555-.347,13.268,0,19.846,0Z"/>
      <path class="h" d="M190.653,729.871c-.025,6.615.037,13.232,0,19.846-.037,6.615.027,13.232,0,19.846-.021,5.292.03,10.585,0,15.877-.038,6.614.067,13.233,0,19.846-6.609-.15-13.274.049-19.87-.023-.268,6.582.372,13.282.023,19.87l-19.87-.023.023,19.87c-6.615.024-13.232-.037-19.846,0-.143-6.614.159-13.272.019-19.871-5.277-.136-10.601.152-15.896.025-.126,6.61.149,13.237,0,19.846-6.613.057-13.235-.114-19.846,0,.008,5.292-.005,10.585,0,15.877-6.562.325-13.264,0-19.846,0,.001,13.202-.006,26.513-.021,39.713l19.888.003c7.148-7.243-16.831-20.749,19.826-19.869v19.846c0,6.615,0,13.231,0,19.846,0,6.609.139,13.241,0,19.846-6.618-.01-13.268-.054-19.871-.019-.137,5.278.153,10.602.025,15.896-.16,6.608.11,13.236,0,19.846-6.617,0-13.268.054-19.87.023-.268-6.583.371-13.282.023-19.87-.278-5.267.278-10.611,0-15.877-.347-6.588.291-13.287.023-19.87l-19.87.023c.038-6.614-.071-13.233,0-19.846.142-13.197-.265-26.501,0-39.693h19.846v-15.877c6.578-.326,13.251.114,19.846,0-.01-6.617-.047-13.269-.023-19.87,6.596.078,13.261-.135,19.87.023.082-4.293-.751-19.183-.035-19.872,1.411-1.359,14.563,1.406,15.947.052,1.401-1.37-1.476-18.478-.057-19.895,1.442-1.441,18.327,1.507,19.894.041.59-.552-.101-12.238-.025-15.895l19.87.023c.266-6.583-.368-13.281-.023-19.87.344-6.573-.11-13.253,0-19.846h19.846Z"/>
      <path class="g" d="M587.582,598.885c3.66.079,15.341-.617,15.895-.025,1.467,1.567-1.481,18.453-.041,19.894,1.441,1.441,18.327-1.507,19.894-.041.592.554-.104,12.235-.025,15.895-6.617,0-13.269-.054-19.87-.023-.264,6.583.366,13.281.023,19.87-3.661-.078-15.301.634-15.896.022-1.771-1.821,1.785-34.064.041-35.767-.73-.713-15.558.164-19.869.021v-19.846c6.61.142,13.237-.143,19.846,0Z"/>
      <path class="h" d="M131.114,1241.909c.128,5.295-.161,10.618-.025,15.896,6.601.132,13.256-.151,19.871-.019v19.846c0,6.615-.037,13.232,0,19.846,6.614.041,13.232,0,19.846,0,.067,6.612-.139,13.237,0,19.846-6.615.005-13.231-.007-19.846,0-.343-6.563.037-13.261,0-19.846-6.611-.041-13.24.148-19.846,0-.147-4.326.756-19.095.019-19.871-.572-.602-12.236.104-15.896.025-.225-6.606.207-13.276.023-19.87-6.594-.184-13.264.248-19.87.023-.281-5.245,0-10.613,0-15.877,11.873.202,23.846,0,35.724,0Z"/>
      <path class="h" d="M39.821,1071.229c0,11.827.558,23.929,0,35.724-6.612.086-13.236-.125-19.846,0,.025,6.615-.039,13.232,0,19.846.079,13.196-.257,26.503,0,39.693,6.615.132,13.271-.151,19.871-.019.13,5.277-.144,10.601-.025,15.896,5.295.119,10.619-.155,15.896-.025.264,6.586-.345,13.278-.019,19.871,6.588.347,13.287-.291,19.87-.023.265,6.583-.367,13.281-.023,19.87,6.61.131,13.234-.09,19.846,0v19.846c-6.593-.112-13.273.344-19.846,0-.148-6.595.343-13.269,0-19.846-6.61-.131-13.237.149-19.846,0-.343-6.584.325-13.26,0-19.846-5.267-.278-10.611.278-15.877,0-.325-6.581.148-13.249,0-19.846-6.597-.148-13.265.325-19.846,0-.279-5.26.103-10.601,0-15.877-6.61-.132-13.234.091-19.846,0-.401-19.791.3-39.765-.023-59.56,6.598-.119,13.255.147,19.869.021-.045-11.883-.068-23.841,0-35.724,6.611-.11,13.238.16,19.846,0Z"/>
      <path class="h" d="M833.677,1031.537c.4,19.727.358,39.811,0,59.539h-19.846v-59.539h19.846Z"/>
      <path class="g" d="M301.793,1392.742v35.724c-6.576-.099-13.304.43-19.846,0l.02-15.897c-5.259-.294-10.635.366-15.897.02-.159-6.608.055-13.274-.021-19.869,11.872-.183,23.872.298,35.745.023Z"/>
      <path class="h" d="M55.698,956.12c-.11,19.802.171,39.739,0,59.539h-15.877v-19.846c0-13.201-.12-26.493,0-39.693h15.877Z"/>
      <path class="g" d="M512.165,543.315c5.263.346,10.639-.313,15.897-.02.294,5.258-.366,10.634-.02,15.897.429,6.523,0,13.288,0,19.846v19.846c-5.295-.119-10.619.155-15.896.025-.268-6.586.35-13.279.019-19.871-.329-6.561,0-13.265,0-19.846v-15.877Z"/>
      <path class="l" d="M662.998,1257.786c-.432,6.565.343,13.268,0,19.846-.344,6.589.288,13.287.023,19.87-6.583.266-13.281-.368-19.87-.023v-39.693c6.573-.348,13.253.119,19.846,0Z"/>
      <path class="g" d="M738.415,956.12c6.607.175,13.238-.148,19.846,0v19.846c-6.614-.041-13.232,0-19.846,0h-19.846c-.348-6.573.12-13.253,0-19.846,6.58.341,13.25-.175,19.846,0Z"/>
      <path class="e" d="M39.821,995.813v35.724h-19.846c.27-11.872-.202-23.873-.023-35.745l19.869.021Z"/>
      <path class="l" d="M321.64,1392.742v35.724c-6.542.324-13.286.099-19.846,0v-35.724c6.54-.152,13.325-.342,19.846,0Z"/>
      <path class="m" d="M472.473,523.468v19.846c-11.883-.108-23.84.035-35.724,0v-19.846c11.489-.544,24.234-.544,35.724,0Z"/>
      <path class="h" d="M774.138,975.967c6.587.353,13.288-.295,19.87-.023.268,6.582-.372,13.282-.023,19.87,6.594.312,13.284-.267,19.87-.023l-.023,19.87c-6.578-.326-13.251.112-19.846,0-.11-6.592.348-13.275,0-19.846-11.822-.56-23.873.197-35.724,0v-19.846c5.269.032,10.627-.281,15.877,0Z"/>
      <path class="m" d="M190.653,694.147c-.097,11.884.045,23.839,0,35.724h15.877v19.846c-5.292.008-10.585-.005-15.877,0,.037-6.615-.025-13.232,0-19.846h-19.846c.198-11.851-.56-23.901,0-35.724h19.846Z"/>
      <path class="l" d="M39.821,1031.537h15.877c-.104,6.595.33,13.271,0,19.846H19.974c.067-6.611-.15-13.239,0-19.846h19.846Z"/>
      <path class="l" d="M813.831,1015.659c6.592.327,13.285-.284,19.871-.019.123,5.278-.132,10.6-.025,15.896h-19.846c-6.583,0-13.284.325-19.846,0-.049-5.291.088-10.588,0-15.877,6.596.112,13.269-.326,19.846,0Z"/>
      <path class="g" d="M662.998,710.025c5.295.119,10.619-.155,15.896-.025.265,6.586-.346,13.278-.019,19.871s0,13.264,0,19.846c-5.264,0-10.632.281-15.877,0-.132-6.61.133-13.236,0-19.846s.139-13.236,0-19.846Z"/>
      <path class="h" d="M301.793,579.038c-.342,6.534-.107,13.293,0,19.846-6.611.121-13.236-.139-19.846,0,.007,6.615-.005,13.231,0,19.846-5.292,0-10.585,0-15.877,0-.121,5.295.156,10.619.022,15.896-13.198.096-26.515-.167-39.715-.019l.023,19.87c-6.602.024-13.253-.014-19.87-.023-.139,6.609.064,13.235,0,19.846-5.292-.005-10.585.007-15.877,0,.106-6.595-.326-13.269,0-19.846,5.292.005,10.585-.008,15.877,0,.139-6.61-.149-13.237,0-19.846,6.608-.149,13.235.074,19.846,0-.007-5.292.005-10.585,0-15.877,6.578-.326,13.251.114,19.846,0,6.609-.114,13.235-.001,19.846,0,.151-6.609-.104-13.235,0-19.846,5.26-.282,10.601.111,15.877,0l-.023-19.87c6.583-.265,13.281.367,19.87.023Z"/>
      <path class="l" d="M512.165,1317.325c5.295.119,10.618-.155,15.896-.025.036,6.602-.01,13.253-.019,19.871-.007,5.292.005,10.585,0,15.877-5.263.264-10.599-.097-15.877,0v-35.724Z"/>
      <path class="m" d="M678.875,729.871l19.87-.023c.269,6.583-.372,13.282-.023,19.87h-19.846c0-6.583.325-13.284,0-19.846Z"/>
      <path class="e" d="M170.807,749.717c-.344,6.589.289,13.287.023,19.87l-19.87-.023c.138-6.614-.148-13.271-.023-19.87l19.87.023Z"/>
      <path class="m" d="M377.21,1372.895v19.846c6.61.142,13.235-.109,19.846,0-.343,6.589.288,13.287.023,19.87-6.586.244-13.276-.336-19.87-.023v-19.846c-5.295-.114-10.618.152-15.895.023.527-5.638-.865-12.223-.055-17.549.679-4.464,11.408-2.01,15.95-2.321Z"/>
      <path class="h" d="M698.722,749.717c.348,6.573-.12,13.253,0,19.846-6.561-.329-13.265,0-19.846,0v-19.846h19.846Z"/>
      <path class="e" d="M436.749,523.468v19.846c-6.614-.02-13.233-.037-19.846,0,.347-6.588-.291-13.287-.023-19.87,6.587-.244,13.276.336,19.87.023Z"/>
      <path class="e" d="M226.377,1353.049c20.217,1.052,21.754-6.284,19.869,19.868-6.582.27-13.281-.369-19.869-.022.119,6.594-.344,13.273,0,19.846,6.606.225,13.276-.207,19.87-.023l-.023,19.87c-6.589-.344-13.286.288-19.87.023-.266-6.583.368-13.281.023-19.87-6.606-.225-13.276.207-19.87.023-.268-6.583.372-13.282.023-19.87,6.54.147,13.325.344,19.846,0-.119-6.611.139-13.236,0-19.846Z"/>
      <path class="l" d="M436.749,1372.895c-.349,6.588.292,13.287.023,19.87-6.583.266-13.281-.368-19.87-.023v-19.846c6.61-.136,13.237.139,19.846,0Z"/>
      <path class="e" d="M472.473,1353.049l.023,19.87c-6.582.272-13.283-.377-19.87-.023-.11-6.611.16-13.238,0-19.846h19.846Z"/>
      <path class="e" d="M436.749,1337.172c5.295.127,10.619-.169,15.897-.02.15,5.278-.148,10.602-.02,15.897h-15.877v-15.877Z"/>
      <path class="e" d="M623.305,654.455c.142,6.61-.139,13.237,0,19.846h-19.846c-.336-6.461-.336-13.386,0-19.846,6.605.14,13.237,0,19.846,0Z"/>
      <path class="e" d="M623.305,634.608c6.617,0,13.269-.054,19.87-.023.266,6.583-.368,13.281-.023,19.87h-19.846c-.142-6.61.143-13.237,0-19.846Z"/>
      <path class="g" d="M587.582,1317.325c-.343,6.589.288,13.286.023,19.87-6.583.266-13.281-.368-19.87-.023v-19.846c6.53.349,13.295.108,19.846,0Z"/>
      <path class="g" d="M170.807,1317.325c.139,6.61-.149,13.237,0,19.846,6.555.347,13.269.002,19.846,0,.097,5.278-.264,10.614,0,15.877-6.591-.335-13.286.29-19.871.019-.13-5.277.144-10.601.025-15.896-6.588-.349-13.287.292-19.87.023-.266-6.583.368-13.281.023-19.87,6.615-.007,13.231.005,19.846,0Z"/>
      <path class="g" d="M623.305,1297.479c-.343,6.589.288,13.287.023,19.87-6.582.272-13.283-.377-19.87-.023v-19.846c6.613-.082,13.235.12,19.846,0Z"/>
      <path class="m" d="M150.961,1297.479c.037,6.585-.343,13.284,0,19.846l-19.87.023c-.184-6.594.248-13.264.023-19.87,6.607.148,13.236-.041,19.846,0Z"/>
      <path class="m" d="M266.07,598.885c-.104,6.611.151,13.238,0,19.846-6.611-.001-13.238-.114-19.846,0l-.023-19.87c6.582-.272,13.283.377,19.87.023Z"/>
      <path class="l" d="M567.735,579.038c6.589.345,13.286-.289,19.87-.023l-.023,19.87c-6.61-.143-13.237.142-19.846,0v19.846c-6.606-.219-13.276.203-19.87.023-.265-6.583.367-13.281.023-19.87,6.61.139,13.237-.142,19.846,0v-19.846Z"/>
      <path class="e" d="M472.473,523.468c6.594.312,13.283-.267,19.87-.023.268,6.583-.371,13.282-.023,19.87-6.61-.124-13.234.06-19.846,0v-19.846Z"/>
      <path class="e" d="M718.568,880.704c6.617,0,13.269-.054,19.87-.023.266,6.583-.368,13.281-.023,19.87h-19.846c-.023-6.615.022-13.231,0-19.846Z"/>
      <path class="m" d="M738.415,900.55c.343,6.556.002,13.268,0,19.846h-19.846c-.036-6.615.023-13.232,0-19.846h19.846Z"/>
      <path class="m" d="M698.722,1257.786l.023,19.87-19.87-.023v-19.846c6.595-.112,13.27.33,19.846,0Z"/>
      <path class="g" d="M738.415,920.397c-.002,6.615,0,13.231,0,19.846h-19.846c-.067-6.614.036-13.232,0-19.846h19.846Z"/>
      <path class="m" d="M95.391,1257.786c6.606.225,13.276-.207,19.87-.023.184,6.594-.248,13.264-.023,19.87-4.278-.093-19.167.726-19.87.023-.763-.763.258-15.485.023-19.87Z"/>
      <path class="e" d="M190.653,674.301c-.106,6.612.054,13.233,0,19.846h-19.846c.312-6.594-.267-13.283-.023-19.87l19.87.023Z"/>
      <path class="e" d="M774.138,1202.216c-.331,6.592.287,13.285.019,19.871-5.278.13-10.601-.144-15.896-.025-.345,6.589.289,13.287.023,19.87-6.583.266-13.281-.368-19.87-.023v-19.846c6.61-.139,13.237.149,19.846,0,.344-6.574-.119-13.253,0-19.846h15.877Z"/>
      <path class="e" d="M738.415,1202.216c-.343,6.556,0,13.267,0,19.846-6.61.139-13.235-.119-19.846,0,.344-6.589-.288-13.287-.023-19.87,6.583-.269,13.282.372,19.87.023Z"/>
      <path class="e" d="M758.261,1182.369c-.131,6.611.119,13.235,0,19.846-6.578,0-13.291-.347-19.846,0,.345-6.589-.289-13.286-.023-19.87,6.583-.268,13.282.371,19.87.023Z"/>
      <path class="m" d="M55.698,1202.216c.325,6.586-.343,13.263,0,19.846,6.609.149,13.236-.131,19.846,0,.343,6.577-.148,13.251,0,19.846-6.588-.344-13.287.289-19.87.023-.265-6.583.367-13.281.023-19.87-5.295-.119-10.619.155-15.896.025-.264-6.586.345-13.278.019-19.871,5.267.278,10.611-.278,15.877,0Z"/>
      <path class="g" d="M39.821,1051.383v19.846c-6.608.16-13.236-.11-19.846,0,.038-6.614-.067-13.233,0-19.846h19.846Z"/>
      <path class="e" d="M39.821,1182.369c.148,6.597-.325,13.265,0,19.846-6.588-.347-13.287.291-19.87.023-.269-6.582.373-13.282.023-19.87,6.581.325,13.249-.148,19.846,0Z"/>
      <path class="l" d="M813.831,1146.646c-.345,6.588.289,13.287.023,19.87-6.582.268-13.282-.372-19.87-.023.148-6.604,0-13.238,0-19.846h19.846Z"/>
      <path class="m" d="M321.64,559.192v19.846c-6.464-.33-13.384-.337-19.846,0,.345-6.589-.289-13.287-.023-19.87,6.583-.266,13.281.368,19.87.023Z"/>
      <path class="e" d="M643.152,674.301l19.87-.023c.272,6.583-.377,13.283-.023,19.87h-19.846c-.084-6.613.12-13.235,0-19.846Z"/>
      <path class="e" d="M643.152,694.147c.067,5.29-.096,10.588,0,15.877-6.593-.326-13.285.283-19.871.019-.13-5.278.144-10.601.025-15.896,6.556.343,13.267,0,19.846,0Z"/>
      <path class="h" d="M813.831,1126.799c-.119,6.594.344,13.273,0,19.846h-19.846v-19.846c6.579,0,13.29.343,19.846,0Z"/>
      <path class="e" d="M833.677,1106.953c-.35,6.588.293,13.288.023,19.87-6.583.266-13.281-.368-19.87-.023.12-6.611-.055-13.234,0-19.846h19.846Z"/>
      <path class="g" d="M833.677,1091.076c-.096,5.276.279,10.618,0,15.877h-19.846c-.055,6.613.12,13.236,0,19.846-6.556.343-13.267,0-19.846,0h-19.846l-.023-19.87c6.584-.266,13.281.368,19.87.023,6.556-.343,13.267,0,19.846,0,.044-5.291,0-10.585,0-15.877h19.846Z"/>
      <path class="m" d="M19.974,1166.492c.103,5.276-.279,10.617,0,15.877-6.593-.326-13.285.283-19.871.019-.123-5.277.132-10.6.025-15.896,6.612.091,13.236-.132,19.846,0Z"/>
      <path class="e" d="M758.261,956.12c5.295.119,10.619-.155,15.896-.025l-.019,19.871c-5.25-.281-10.608.032-15.877,0v-19.846Z"/>
      <path class="e" d="M95.391,1241.909c0,5.264-.281,10.632,0,15.877-6.607-.225-13.277.215-19.871.019-.13-5.277.144-10.601.025-15.896,6.573.344,13.253-.112,19.846,0Z"/>
      <path class="e" d="M131.114,1222.062c.11,6.611-.16,13.238,0,19.846-11.877,0-23.85.202-35.724,0v-19.846c11.849.16,23.905-.56,35.724,0Z"/>
      <path class="g" d="M206.53,634.608c-.149,6.609.139,13.237,0,19.846-5.292-.008-10.585.005-15.877,0,.327-6.593-.284-13.285-.019-19.871,5.277-.131,10.601.144,15.896.025Z"/>
      <path class="m" d="M226.377,618.731c.005,5.292-.007,10.585,0,15.877-6.611.074-13.238-.149-19.846,0,.119-5.295-.155-10.619-.025-15.896,6.586-.265,13.278.346,19.871.019Z"/>
      <path class="m" d="M341.486,1412.588c-.127,5.295.16,10.619.025,15.896-6.586.265-13.278-.346-19.871-.019v-15.877h19.846Z"/>
      <path class="m" d="M698.722,769.564c6.592.331,13.286-.287,19.871-.019.123,5.277-.132,10.6-.025,15.896h-19.846c-.053-5.291.096-10.588,0-15.877Z"/>
      <path class="m" d="M55.698,920.397c-.038,6.615.025,13.232,0,19.846h-15.877c.106-6.595-.33-13.27,0-19.846,5.292-.005,10.585.007,15.877,0Z"/>
      <path class="l" d="M115.237,1277.632c3.66.079,15.324-.626,15.896-.025.737.776-.166,15.545-.019,19.871-5.295-.119-10.619.155-15.896.025-.196-6.594.244-13.264.019-19.871Z"/>
      <path class="e" d="M55.698,900.55c-.071,6.614.038,13.232,0,19.846-5.292.007-10.585-.005-15.877,0,.331-6.592-.287-13.285-.019-19.871l15.896.025Z"/>
      <path class="e" d="M361.333,543.315c-.005,5.292.007,10.585,0,15.877-6.613.06-13.236-.12-19.846,0l-.025-15.896c6.585-.268,13.279.35,19.871.019Z"/>
      <path class="e" d="M547.889,1337.172l.025,15.896c-6.586.268-13.279-.35-19.871-.019.005-5.292-.007-10.585,0-15.877h19.846Z"/>
      <path class="m" d="M206.53,1353.049c.119,6.593-.348,13.274,0,19.846-5.295-.119-10.619.155-15.896.025-.268-6.585.35-13.279.019-19.871,5.265.268,10.599-.13,15.877,0Z"/>
      <path class="m" d="M75.544,844.98v15.877h-19.846c.106-5.296-.147-10.619-.025-15.896,6.586-.265,13.278.346,19.871.019Z"/>
      <path class="g" d="M377.21,543.315v15.877c-5.292.03-10.586-.048-15.877,0,.007-5.292-.005-10.585,0-15.877,5.263-.264,10.599.097,15.877,0Z"/>
      <path class="g" d="M55.698,920.397l19.87-.023c.268,6.583-.371,13.282-.023,19.87h-19.846c-.02,5.292.029,10.585,0,15.877h-15.877c.048-5.291-.085-10.587,0-15.877h15.877c.025-6.615-.038-13.232,0-19.846Z"/>
      <path class="l" d="M266.07,1412.588c5.263.346,10.639-.314,15.897-.02l-.02,15.897c-5.263-.346-10.639.313-15.897.02-.149-5.278.147-10.602.02-15.897Z"/>
      <path class="e" d="M190.653,825.134c-.14,6.61.149,13.237,0,19.846-6.615.027-13.232-.035-19.846,0,0-6.578-.347-13.291,0-19.846,6.615.007,13.231-.005,19.846,0Z"/>
      <path class="e" d="M321.64,598.885v19.846h-19.846c-.149-6.609.108-13.235,0-19.846,6.593-.12,13.273.347,19.846,0Z"/>
      <path class="e" d="M281.947,618.731h19.846c.119,5.295-.155,10.619-.025,15.896l19.871-.019c.087,13.195-.259,26.503,0,39.693.13,6.61-.149,13.237,0,19.846h19.846c.281,5.245,0,10.613,0,15.877-6.606-.225-13.277.215-19.871.019-.131-5.277.144-10.601.025-15.896-6.608,0-13.243.156-19.846,0-.347-6.588.291-13.288.023-19.87-6.582-.268-13.282.371-19.87.023-.091-6.615.142-13.268-.018-19.867-21.047-2.746-15.992,2.843-15.859,19.867-6.588.343-13.287-.288-19.869-.021.249,31.704-.265,63.581.023,95.284.048,5.291-.096,10.588,0,15.877.239,13.193-.175,26.521-.023,39.714l19.869-.021c.071,6.613-.031,13.232,0,19.846h15.877v15.877c-5.291.046-10.585,0-15.877,0-.057,6.613.12,13.236,0,19.846h-19.846v-19.846c6.615,0,13.231,0,19.846,0,.046-5.29.025-10.587,0-15.877h-39.693c-6.615,0-13.231,0-19.846,0,.098,5.289-.064,10.587,0,15.877.08,6.612-.13,13.236,0,19.846.259,13.193-.189,26.521-.023,39.714,6.583.264,13.28-.358,19.869-.021l2.303,19.917,17.565-.048c.27-6.583-.37-13.281-.022-19.869,6.589-.343,13.287.288,19.87.023.266-6.583-.368-13.281-.023-19.87,5.295-.119,10.618.155,15.896.025.268-6.586-.35-13.279-.019-19.871s0-13.265,0-19.846c6.613-.057,13.235.114,19.846,0,6.596-.114,13.268.326,19.846,0l-.023,39.714c6.594.183,13.263-.24,19.869-.021l-.023,19.87,19.87-.023c.343,6.578-.432,13.281,0,19.846.346,5.263-.314,10.639-.02,15.897l15.897-.02c1.417,24.365-.107,50.738,0,75.416-18.432.599-37.162-.843-55.57,0-6.595.302-13.283-.26-19.87-.023l.023,19.87c-6.654.142-34.477-1.281-35.744-.02-1.79,1.781,1.822,37.995.043,39.734-.786.769-15.483-.246-19.869-.021-6.585.338-13.26-.325-19.846,0-4.392.217-19.045-.804-19.871-.019-.602.572.104,12.236.025,15.896-5.287.091-10.588,0-15.877,0v-15.877c0-6.578.347-13.291,0-19.846-.349-6.588.292-13.287.023-19.87l-19.87.023c-.345-6.589.289-13.287.023-19.87-6.583-.266-13.281.368-19.87.023-.114-5.295.152-10.618.023-15.895-5.638.528-12.223-.865-17.549-.055-4.537.69-1.903,11.381-2.321,15.95-5.295.119-10.619-.155-15.896-.025-.264,6.586.345,13.278.019,19.871-.325,6.586.343,13.263,0,19.846l-19.87-.023c-.128,6.599.167,13.256.023,19.87-6.607.225-13.276-.215-19.871-.019-.122,5.278.131,10.6.025,15.896-.263,13.074-.606,26.647,0,39.693.306,6.595-.263,13.283-.023,19.87l19.87-.023c.278,5.267-.274,10.61,0,15.877.343,6.588-.288,13.287-.021,19.869,18.484-.032,37.106-.021,55.591-.023h19.846c.023,6.615-.03,13.232,0,19.846.03,6.615-.019,13.231,0,19.846h19.846c0,5.292-.029,10.585,0,15.877.036,6.615-.025,13.232,0,19.846h15.877c.578,13.133-.119,26.53,0,39.693.06,6.614-.063,13.232,0,19.846h19.846c.282,5.26-.111,10.601,0,15.877-6.578-.342-13.251.163-19.846,0-.096-5.289.051-10.587,0-15.877-5.292,0-10.585-.002-15.877,0-.243-13.192.077-26.496,0-39.693-.039-6.615.025-13.232,0-19.846h-19.846c-.039-6.615.026-13.232,0-19.846-.021-5.292.015-10.585,0-15.877h-19.846l.023-19.87c-6.587-.244-13.276.336-19.87.023-11.819-.56-23.875.16-35.724,0-6.612-.09-13.236.131-19.846,0-.344-6.589.288-13.287.023-19.87-6.582-.268-13.282.371-19.87.023-.326-6.593.283-13.285.019-19.871-5.277-.13-10.601.144-15.896.025-.119-5.295.155-10.619.025-15.896-6.6-.132-13.256.151-19.871.019-.257-13.19.079-26.497,0-39.693l19.87.023c.244-6.586-.336-13.276-.023-19.87.558-11.795,0-23.896,0-35.724,5.295-.128,10.619.161,15.896.025.268-6.585-.35-13.279-.019-19.871.33-6.576-.104-13.252,0-19.846.083-5.29-.046-10.586,0-15.877.171-19.801-.11-39.737,0-59.539h19.846c.347,6.588-.291,13.287-.023,19.87,6.601.03,13.253-.023,19.87-.023s13.268.054,19.87.023c.272-6.582-.377-13.283-.023-19.87,5.295-.128,10.619.169,15.897.02.294-5.258-.366-10.634-.02-15.897.43-6.542-.099-13.27,0-19.846.099-6.561.324-13.304,0-19.846-.327-6.593.284-13.285.019-19.871-5.277-.136-10.601.152-15.896.025-36.657-.88-12.677,12.626-19.826,19.869l-19.888-.003c.015-13.199.022-26.511.021-39.713,6.583,0,13.284.325,19.846,0s13.285.284,19.871.019c.13-5.278-.144-10.601-.025-15.896,5.292-.046,10.585.03,15.877,0,.079,3.66-.626,15.324-.025,15.896.825.784,15.479-.236,19.871-.019,6.476.319,13.37.319,19.846,0,6.593-.325,13.285.283,19.871.019.13-5.277-.144-10.601-.025-15.896,5.292-.021,10.585,0,15.877,0-.244-13.194.183-26.521.019-39.715-5.277-.133-10.601.142-15.896.022.067-6.614-.038-13.232,0-19.846,5.292.005,10.585-.007,15.877,0,6.617.009,13.268.048,19.869.021l.049-33.452c-.659-4.204-15.028-2.299-19.918-2.292v-19.846c0-11.885-.068-23.839,0-35.724.038-6.614-.064-13.233,0-19.846s-.139-13.237,0-19.846c6.617.01,13.268.047,19.87.023l-.023-19.87c13.2-.148,26.517.115,39.715.019.134-5.277-.143-10.601-.022-15.896,5.292,0,10.585,0,15.877,0ZM190.653,1015.659c.237,4.519-2.085,15.257,2.31,15.951l53.282-.055c.133-5.276-.143-10.601-.022-15.896.151-6.609-.049-13.274.023-19.87-6.587-.239-13.275.328-19.87.023-11.834-.547-23.898.382-35.745-.023.203,6.578-.323,13.289.021,19.869Z"/>
      <path class="e" d="M341.486,729.871h19.846c1.452,31.58-1.081,63.666.023,95.284-6.583.264-13.28-.36-19.869-.021-6.584.338-13.263-.343-19.846,0v19.846h-19.846c.008,5.292-.005,10.585,0,15.877-6.611.114-13.233-.057-19.846,0,0,6.582.329,13.285,0,19.846h-15.877c-.12,6.594.344,13.273,0,19.846-6.541.147-13.323.341-19.846,0,.121-6.608,0-13.236,0-19.846h19.846c.12-6.611-.057-13.234,0-19.846,5.292,0,10.586.046,15.877,0v-15.877h19.846c-.01-6.617-.047-13.27-.023-19.87,6.582-.265,13.281.367,19.87.023v-39.693l19.871.019c.136-5.278-.152-10.601-.025-15.896.159-6.609-.055-13.273.023-19.87l-19.87.023v-19.846c6.556.343,13.267,0,19.846,0Z"/>
      <path class="e" d="M813.831,1031.537v59.539h-19.846c0-19.799.182-39.742,0-59.539,6.562.325,13.264,0,19.846,0Z"/>
      <path class="e" d="M397.056,1241.909c-.106,5.296.147,10.618.025,15.896-6.585.271-13.28-.354-19.871-.019-.331,6.592.287,13.286.019,19.871-5.277.13-10.601-.144-15.896-.025-6.609.149-13.236-.13-19.846,0v-19.846c6.577-.348,13.251.169,19.846,0,5.278-.135,10.612.268,15.877,0,.264-5.263-.097-10.599,0-15.877,6.608-.16,13.236.11,19.846,0Z"/>
      <path class="e" d="M321.64,1277.632c6.612-.09,13.236.13,19.846,0v19.846c-18.571.853-41.078,1.116-59.539,0v-19.846c13.193-.254,26.497.181,39.693,0Z"/>
      <path class="g" d="M377.21,1031.537c.029,6.614.035,13.233,0,19.846-18.304-.839-37.22-.174-55.57,0v-19.846c18.408-.843,37.138.599,55.57,0Z"/>
      <path class="e" d="M528.043,749.717c0,6.61.134,13.24,0,19.846-.135,6.641,1.26,34.461.018,35.746-.586.607-12.238-.097-15.896-.022-.302,6.596.26,13.283.023,19.87-6.594.181-13.264-.244-19.87-.023.144-4.305-.726-19.167-.023-19.87s15.595.111,19.87.023c.84-18.342,0-37.181,0-55.57,5.292-.005,10.585.007,15.877,0Z"/>
      <path class="e" d="M397.056,1202.216c.606,13.046.263,26.618,0,39.693-6.611.11-13.238-.16-19.846,0,.243-13.187,0-26.501,0-39.693,6.529.558,13.286-.384,19.846,0Z"/>
      <path class="e" d="M662.998,1106.953c.263,13.075.606,26.647,0,39.693h-19.846c-.14,6.61.149,13.237,0,19.846-6.584.343-13.26-.325-19.846,0-.005-6.615.007-13.231,0-19.846h19.846c.139-6.605,0-13.237,0-19.846v-19.846c6.615-.007,13.231.005,19.846,0Z"/>
      <path class="e" d="M436.749,880.704c.59,12.703.59,26.99,0,39.693h-19.846c.26-13.172.133-26.517,0-39.693h19.846Z"/>
      <path class="g" d="M436.749,1337.172v15.877c0,6.578.347,13.291,0,19.846-6.61.139-13.236-.136-19.846,0,0-6.608-.148-13.242,0-19.846.119-5.295-.155-10.618-.025-15.896,6.597.066,13.262-.139,19.871.019Z"/>
      <path class="l" d="M397.056,825.134c6.617-.002,13.269-.052,19.869-.021.168,11.872-.278,23.871-.023,35.745-6.607-.225-13.277.215-19.871.019-.137-5.277.153-10.602.025-15.896-.16-6.608.11-13.236,0-19.846Z"/>
      <path class="e" d="M718.568,920.397c.036,6.614-.067,13.233,0,19.846.053,5.291-.096,10.588,0,15.877-6.589-.341-13.286.287-19.869.021-.183-11.872.298-23.872.023-35.745h19.846Z"/>
      <path class="e" d="M603.459,975.967c6.552.108,13.315.346,19.846,0-.343,6.589.288,13.286.021,19.869l-33.452.049c-4.311-.676-2.149-14.934-2.292-19.918,5.257.284,10.603-.087,15.877,0Z"/>
      <path class="e" d="M793.985,995.813c.348,6.572-.11,13.254,0,19.846-6.611-.113-13.236.139-19.846,0-5.276-.111-10.617.282-15.877,0v-19.846c11.851.197,23.902-.56,35.724,0Z"/>
      <path class="g" d="M774.138,1146.646c6.604-.148,13.238,0,19.846,0,0,6.608.148,13.242,0,19.846-6.555.347-13.268,0-19.846,0h-15.877c.335-6.591-.29-13.286-.019-19.871,5.277-.13,10.601.144,15.896.025Z"/>
      <path class="e" d="M361.333,1106.953h15.877c-.35,6.587.293,13.288.021,19.869-11.871.179-23.873-.293-35.745-.023v-19.846h19.846Z"/>
      <path class="l" d="M301.793,1106.953v19.846c-6.548-.144-35.18,1.975-35.792-2.293l.049-17.574c11.87-.184,23.873.294,35.744.021Z"/>
      <path class="m" d="M190.653,1106.953c5.289,0,10.59.091,15.877,0-.143,6.614.159,13.272.019,19.871-5.277.137-10.602-.153-15.896-.025-6.608.16-13.236-.11-19.846,0-.026-6.615.039-13.232,0-19.846,6.615,0,13.231,0,19.846,0Z"/>
      <path class="e" d="M623.305,1166.492c6.586-.325,13.263.343,19.846,0-.119,5.295.155,10.618.025,15.896-6.586.264-13.278-.345-19.871-.019-6.581.325-13.249-.148-19.846,0,.119-5.295-.155-10.619-.025-15.896,6.586-.264,13.278.345,19.871.019Z"/>
      <path class="g" d="M321.64,844.98h19.846c-.128,5.295.161,10.619.025,15.896-6.586.265-13.278-.346-19.871-.019-6.578.326-13.251-.114-19.846,0-.005-5.292.008-10.585,0-15.877h19.846Z"/>
      <path class="e" d="M528.043,710.025c.758,13.05,0,26.589,0,39.693-5.292.007-10.585-.005-15.877,0,0-6.615,0-13.231,0-19.846v-19.846h15.877Z"/>
      <path class="l" d="M472.473,543.315v15.877h-35.724v-15.877c11.884.035,23.841-.108,35.724,0Z"/>
      <path class="g" d="M678.875,769.564c6.582,0,13.285-.329,19.846,0,.096,5.289-.053,10.587,0,15.877-6.558,0-13.324.429-19.846,0-5.263-.346-10.638.313-15.897.02-.294-5.259.366-10.634.02-15.897h15.877Z"/>
      <path class="m" d="M662.998,729.871c.133,6.61-.132,13.236,0,19.846-6.587-.353-13.288.295-19.87.023-.269-6.583.372-13.282.023-19.87h19.846Z"/>
      <path class="g" d="M321.64,1392.742c6.589.345,13.287-.289,19.87-.023-.078,6.596.135,13.261-.023,19.87h-19.846v-19.846Z"/>
      <rect class="m" x="397.037" y="598.865" width="19.885" height="19.885"/>
      <path class="g" d="M528.043,749.717c6.617-.009,13.267-.048,19.869-.022l.048,17.565-19.917,2.303c.134-6.606,0-13.237,0-19.846Z"/>
      <path class="g" d="M397.056,1372.895c-.343,6.583.343,13.263,0,19.846-6.611-.109-13.237.142-19.846,0v-19.846c6.542-.447,13.27.135,19.846,0Z"/>
      <path class="e" d="M623.305,785.441c.152,6.609-.05,13.273.023,19.87-6.599.124-13.256-.161-19.87-.023.09-6.571-.447-13.312,0-19.846h19.846Z"/>
      <path class="e" d="M698.722,785.441c.067,6.609.068,13.237,0,19.846h-19.846v-19.846c6.523.429,13.288,0,19.846,0Z"/>
      <path class="l" d="M662.998,710.025c.139,6.61-.133,13.236,0,19.846h-19.846c-.348-6.573.12-13.253,0-19.846,6.581.325,13.249-.148,19.846,0Z"/>
      <path class="e" d="M698.722,805.287c-.068,6.612.141,13.238,0,19.846h-19.846c-.152-6.604,0-13.238,0-19.846h19.846Z"/>
      <path class="e" d="M416.903,1353.049c-.148,6.604,0,13.238,0,19.846-6.61.136-13.236-.136-19.846,0,.343-6.589-.288-13.287-.023-19.87l19.87.023Z"/>
      <path class="l" d="M341.486,825.134c-.11,6.611.16,13.238,0,19.846h-19.846v-19.846c6.583-.343,13.262.338,19.846,0Z"/>
      <path class="m" d="M397.056,825.134c.11,6.611-.16,13.238,0,19.846l-19.917-2.303.048-17.565c6.6-.034,13.252.024,19.869.022Z"/>
      <polygon class="l" points="512.165 710.025 512.165 729.871 492.296 729.894 492.319 710.025 512.165 710.025"/>
      <path class="g" d="M492.319,825.134c-.22,6.606.205,13.275.022,19.869-4.389-.709-18.793,1.092-19.888-.003-1.095-1.095.706-15.499-.003-19.888,6.593-.183,13.263.242,19.869.022Z"/>
      <path class="m" d="M698.722,825.134c-.141,6.61.142,13.237,0,19.846h-19.846c-.448-6.544.151-13.268,0-19.846h19.846Z"/>
      <path class="m" d="M512.165,1317.325v19.846c-6.615.005-13.231-.007-19.846,0v-19.846c6.522-.344,13.306-.147,19.846,0Z"/>
      <path class="g" d="M492.319,1317.325v19.846c-20.857.023-21.595,4.834-19.869-19.868,6.583-.27,13.281.369,19.869.022Z"/>
      <path class="e" d="M206.53,1317.325l19.87-.023c.272,6.583-.377,13.283-.023,19.87h-19.846c-.063-6.614.06-13.232,0-19.846Z"/>
      <path class="m" d="M587.582,1297.479c-.325,6.586.343,13.263,0,19.846-6.551.108-13.316.349-19.846,0v-19.846c6.574-.342,13.253.116,19.846,0Z"/>
      <path class="e" d="M567.735,1297.479v19.846c-6.587-.352-13.287.294-19.869.022-1.885-26.152-.348-18.816,19.869-19.868Z"/>
      <path class="l" d="M623.305,1277.632c-.343,6.583.343,13.263,0,19.846-6.611.12-13.234-.082-19.846,0v-19.846c6.604-.148,13.238,0,19.846,0Z"/>
      <path class="g" d="M416.903,860.857c6.606.225,13.276-.207,19.87-.023.24,6.587-.33,13.275-.023,19.87h-19.846c-.067-6.612.142-13.238,0-19.846Z"/>
      <path class="g" d="M361.333,1277.632l.023,19.87c-6.587.237-13.275-.326-19.87-.023v-19.846c6.61-.13,13.237.149,19.846,0Z"/>
      <path class="g" d="M341.486,1257.786v19.846c-6.61.13-13.234-.09-19.846,0l-.023-19.87c6.583-.269,13.282.372,19.87.023Z"/>
      <path class="m" d="M547.889,579.038c.343,6.583-.343,13.263,0,19.846-6.61-.139-13.237.149-19.846,0v-19.846h19.846Z"/>
      <path class="g" d="M718.568,880.704c.022,6.615-.023,13.231,0,19.846h-19.846c.345-6.588-.289-13.287-.023-19.87,6.601-.03,13.253.023,19.87.023Z"/>
      <path class="g" d="M341.486,900.55c6.607.219,13.275-.203,19.87-.023.265,6.583-.367,13.281-.023,19.87l-19.87.023.023-19.87Z"/>
      <path class="l" d="M718.568,900.55c.023,6.615-.036,13.232,0,19.846h-19.846c-.152-6.54-.342-13.325,0-19.846h19.846Z"/>
      <path class="e" d="M643.152,1257.786v19.846h-19.846c.343-6.589-.288-13.287-.023-19.87,6.583-.269,13.282.372,19.87.023Z"/>
      <path class="m" d="M436.749,920.397c-.306,6.595.263,13.283.023,19.87-6.595.173-13.262-.232-19.87-.023-.114,5.295.151,10.619.023,15.895l-19.886-.039-.003-15.838c6.593-.241,13.26.19,19.867-.018.143-6.61-.131-13.236,0-19.846h19.846Z"/>
      <path class="m" d="M623.305,940.243c.356-6.586-.297-13.288-.022-19.869,26.148-1.885,18.819-.35,19.868,19.869h-19.846Z"/>
      <path class="l" d="M436.749,710.025v19.846c-6.608.159-13.274-.054-19.869.022-1.888-26.17-.338-18.803,19.869-19.868Z"/>
      <rect class="g" x="472.453" y="1257.766" width="19.885" height="19.885"/>
      <path class="m" d="M718.568,1222.062c-.343,6.577.148,13.251,0,19.846-6.611.119-13.236-.131-19.846,0v-19.846c6.574-.344,13.253.118,19.846,0Z"/>
      <path class="e" d="M321.64,579.038c20.23,1.034,21.751-6.26,19.869,19.868-6.582.27-13.281-.37-19.869-.022v-19.846Z"/>
      <path class="l" d="M587.582,975.967c-6.586-.356-13.288.298-19.869.022.709-4.389-1.092-18.793.003-19.888s15.499.706,19.888-.003c.162,6.596-.212,13.26-.022,19.869Z"/>
      <path class="m" d="M623.305,956.12c-.176,6.596.342,13.267,0,19.846-6.532.346-13.294.108-19.846,0l-.023-19.87c6.6-.121,13.256.156,19.87.023Z"/>
      <path class="e" d="M643.152,956.12c-.348,6.588.292,13.287.023,19.87-6.583.268-13.282-.372-19.87-.023.342-6.579-.176-13.251,0-19.846,6.61-.132,13.234.091,19.846,0Z"/>
      <path class="g" d="M698.722,1222.062v19.846c-6.58.131-13.299-.43-19.846,0,.353-6.587-.295-13.287-.023-19.87,6.583-.266,13.281.368,19.87.023Z"/>
      <path class="g" d="M341.486,710.025c6.606.225,13.277-.207,19.87-.023.237,6.587-.327,13.275-.023,19.87h-19.846v-19.846Z"/>
      <path class="l" d="M738.415,975.967c-.005,6.615.007,13.231,0,19.846-6.588-.344-13.287.289-19.87.023-.268-6.582.372-13.282.023-19.87h19.846Z"/>
      <path class="e" d="M190.653,1222.062c0,6.615,0,13.231,0,19.846h-19.846c-.019-6.615.03-13.232,0-19.846h19.846Z"/>
      <path class="g" d="M758.261,995.813v19.846c-6.587-.353-13.288.295-19.87.023l.023-19.87c6.573.344,13.253-.11,19.846,0Z"/>
      <path class="e" d="M587.582,1202.216c.007,6.615-.005,13.231,0,19.846-6.609.149-13.237-.139-19.846,0v-19.846c6.61-.136,13.237.139,19.846,0Z"/>
      <path class="m" d="M567.735,1202.216v19.846c-6.589.139-13.257.14-19.846,0v-19.846c6.61-.136,13.236.136,19.846,0Z"/>
      <path class="l" d="M547.889,1202.216v19.846c-6.61-.141-13.237.142-19.846,0v-19.846c6.542-.447,13.27.135,19.846,0Z"/>
      <path class="e" d="M321.64,1031.537v19.846c-6.612.063-13.238-.141-19.846,0l-.023-19.87c6.587-.237,13.274.326,19.87.023Z"/>
      <path class="m" d="M512.165,559.192c0,6.582-.329,13.285,0,19.846l-19.87.023c-.268-6.583.371-13.282.023-19.87h19.846Z"/>
      <path class="g" d="M698.722,1051.383c.041-6.617-.082-13.268-.022-19.869,24.56-1.716,19.999-1.033,19.868,19.869h-19.846Z"/>
      <path class="g" d="M416.903,559.192c-.347,6.588.291,13.287.023,19.87-6.583.266-13.281-.368-19.87-.023v-19.846c6.615-.025,13.232,0,19.846,0Z"/>
      <path class="g" d="M436.749,543.315v15.877h-19.846c.278-5.267-.278-10.611,0-15.877,6.614-.037,13.232-.02,19.846,0Z"/>
      <path class="l" d="M397.056,559.192v19.846c-6.523.341-13.305.147-19.846,0v-19.846c6.615-.038,13.232.025,19.846,0Z"/>
      <path class="m" d="M190.653,1202.216v19.846h-19.846c-.03-6.615.023-13.232,0-19.846,6.615,0,13.231,0,19.846,0Z"/>
      <path class="e" d="M377.21,1051.383c6.595.302,13.283-.26,19.87-.023.03,6.601-.023,13.253-.023,19.87h-19.846c.063-6.614-.035-13.232,0-19.846Z"/>
      <path class="e" d="M718.568,1051.383c-.041,6.617.082,13.268.022,19.869-24.56,1.716-19.999,1.033-19.868-19.869h19.846Z"/>
      <path class="e" d="M397.056,1071.229c0,3.945.726,19.167.023,19.87-.869.869-15.374-.417-19.87-.023.138-6.609-.063-13.234,0-19.846h19.846Z"/>
      <path class="g" d="M587.582,1071.229v19.846c-6.586-.356-13.288.297-19.869.022-1.885-26.148-.35-18.819,19.869-19.868Z"/>
      <path class="g" d="M603.459,1071.229c4.382.232,19.109-.784,19.87-.023.703.703-.116,15.591-.023,19.87-6.611-.113-13.237.141-19.846,0v-19.846Z"/>
      <path class="e" d="M623.305,1182.369l.023,19.87c-6.582.272-13.283-.377-19.87-.023.325-6.581-.148-13.249,0-19.846,6.597-.148,13.265.325,19.846,0Z"/>
      <path class="g" d="M377.21,1182.369c6.609-.152,13.274.05,19.87-.023.24,6.587-.33,13.275-.023,19.87-6.56-.384-13.318.558-19.846,0v-19.846Z"/>
      <path class="l" d="M190.653,1182.369v19.846c-6.615,0-13.231,0-19.846,0-.023-6.615.023-13.231,0-19.846h19.846Z"/>
      <path class="m" d="M321.64,674.301l19.87-.023c.272,6.583-.377,13.283-.023,19.87h-19.846c-.149-6.609.13-13.236,0-19.846Z"/>
      <path class="l" d="M623.305,674.301c.139,6.61-.149,13.237,0,19.846-6.589-.345-13.287.289-19.87.023-.264-6.583.366-13.281.023-19.87h19.846Z"/>
      <path class="g" d="M662.998,1146.646c-.306,6.595.263,13.283.023,19.87-6.583.265-13.281-.367-19.87-.023.149-6.609-.14-13.237,0-19.846h19.846Z"/>
      <path class="e" d="M170.807,1106.953c.039,6.615-.026,13.232,0,19.846s-.038,13.232,0,19.846h19.846v19.846h-19.846c-.029-6.615.038-13.232,0-19.846h-19.846c0-13.203.014-26.49,0-39.693h19.846Z"/>
      <path class="m" d="M321.64,1106.953v19.846c-6.608.005-13.242.146-19.846,0v-19.846c6.605-.152,13.237.019,19.846,0Z"/>
      <path class="e" d="M341.486,1106.953v19.846c-6.604.15-13.238-.005-19.846,0v-19.846c6.615-.019,13.231,0,19.846,0Z"/>
      <path class="e" d="M190.653,1126.799v19.846h-19.846c-.038-6.615.026-13.232,0-19.846,6.611-.11,13.238.16,19.846,0Z"/>
      <path class="e" d="M643.152,1126.799c0,6.609.139,13.241,0,19.846h-19.846l-.023-19.87,19.87.023Z"/>
      <path class="e" d="M793.985,1126.799v19.846c-6.608,0-13.242-.148-19.846,0-.005-6.615.007-13.231,0-19.846h19.846Z"/>
      <path class="g" d="M492.319,543.315c.278,5.267-.278,10.611,0,15.877h-19.846v-15.877c6.613.06,13.236-.124,19.846,0Z"/>
      <path class="m" d="M377.21,559.192v19.846c-5.295-.119-10.619.155-15.896.025-.036-6.602.01-13.253.019-19.871,5.292-.048,10.585.03,15.877,0Z"/>
      <path class="m" d="M813.831,1091.076c0,5.292.044,10.586,0,15.877-6.579,0-13.29-.343-19.846,0v-15.877h19.846Z"/>
      <path class="l" d="M643.152,1091.076c6.593.327,13.285-.284,19.871-.019.122,5.278-.131,10.6-.025,15.896-6.615.005-13.231-.007-19.846,0v-15.877Z"/>
      <path class="e" d="M643.152,1091.076v15.877c-4.191.005-19.151.703-19.871.019-.602-.572.104-12.236.025-15.896,6.596.112,13.269-.326,19.846,0Z"/>
      <path class="m" d="M190.653,1166.492v15.877h-19.846c-.019-5.292.023-10.585,0-15.877h19.846Z"/>
      <path class="g" d="M246.223,1091.076l.025,15.896c-6.586.268-13.279-.35-19.871-.019v-15.877c6.586-.325,13.262.338,19.846,0Z"/>
      <path class="e" d="M226.377,1091.076v15.877c-6.577.33-13.251-.114-19.846,0,.079-3.66-.626-15.324-.025-15.896.826-.785,15.479.236,19.871.019Z"/>
      <path class="e" d="M377.21,1182.369v19.846c-4.564-.39-15.263,2.198-15.95-2.321-.81-5.326.582-11.911.055-17.549,5.277-.134,10.601.145,15.895.023Z"/>
      <path class="l" d="M603.459,1182.369c-.148,6.597.325,13.265,0,19.846-5.26.282-10.601-.111-15.877,0l-.019-19.871c5.278-.13,10.601.144,15.896.025Z"/>
      <path class="l" d="M603.459,1071.229v19.846c-5.276-.112-10.618.285-15.877,0v-19.846c5.174-.268,10.704-.274,15.877,0Z"/>
      <path class="m" d="M472.473,694.147v15.877c-6.61.013-13.239-.135-19.846,0-.143,6.614.159,13.272.019,19.871-5.277.136-10.601-.152-15.896-.025v-19.846c5.261-.277,10.601.108,15.877,0,.079-3.66-.626-15.324-.025-15.896.826-.785,15.478.237,19.871.019Z"/>
      <path class="g" d="M528.043,1202.216v19.846c-5.295-.114-10.618.152-15.895.023.527-5.638-.865-12.223-.055-17.549.679-4.464,11.407-2.01,15.95-2.321Z"/>
      <path class="e" d="M492.319,694.147c-.005,5.292.007,10.585,0,15.877-6.615,0-13.231-.013-19.846,0v-15.877c6.542-.324,13.286-.099,19.846,0Z"/>
      <path class="m" d="M512.165,694.147v15.877h-19.846c.007-5.292-.005-10.585,0-15.877,6.576.099,13.304-.43,19.846,0Z"/>
      <path class="e" d="M603.459,1202.216c-.326,6.593.283,13.285.019,19.871-5.277.13-10.601-.144-15.896-.025-.005-6.615.007-13.231,0-19.846,5.276-.111,10.617.282,15.877,0Z"/>
      <path class="g" d="M793.985,1015.659c.088,5.29-.049,10.586,0,15.877-6.593-.327-13.284.284-19.871.019l.025-15.896c6.61.139,13.235-.113,19.846,0Z"/>
      <path class="e" d="M678.875,749.717v19.846h-15.877c-.43-6.547.131-13.267,0-19.846,5.245.281,10.613,0,15.877,0Z"/>
      <path class="e" d="M643.152,940.243c.268,5.174.274,10.704,0,15.877-6.612.091-13.236-.132-19.846,0,.141-5.276-.285-10.615,0-15.877h19.846Z"/>
      <rect class="m" x="492.302" y="940.263" width="19.881" height="15.836"/>
      <path class="e" d="M301.793,598.885c.108,6.611-.149,13.237,0,19.846h-19.846c-.005-6.615.007-13.231,0-19.846,6.61-.139,13.236.121,19.846,0Z"/>
      <path class="e" d="M321.64,618.731c0,5.292-.035,10.585,0,15.877l-19.871.019c-.13-5.277.144-10.601.025-15.896h19.846Z"/>
      <path class="l" d="M603.459,785.441c.311-4.542-2.143-15.271,2.321-15.95,5.326-.81,11.91.582,17.549.055.134,5.277-.145,10.601-.023,15.895h-19.846Z"/>
      <path class="l" d="M190.653,1257.786l15.896-.025c.24,6.589-.309,13.273-.019,19.871h-15.877c-.025-6.615.036-13.232,0-19.846Z"/>
      <path class="g" d="M281.947,1277.632v19.846c-4.532-.274-15.275,2.118-15.95-2.321-.81-5.326.582-11.911.055-17.549,5.277-.121,10.599.125,15.895.023Z"/>
      <path class="e" d="M603.459,1277.632v19.846c-5.291.065-10.588-.093-15.877,0,.326-6.593-.283-13.285-.019-19.871,5.278-.13,10.601.144,15.896.025Z"/>
      <path class="g" d="M698.722,844.98c-.114,5.295.152,10.618.023,15.895-5.638-.527-12.223.865-17.549.055-4.464-.679-2.01-11.408-2.321-15.95h19.846Z"/>
      <path class="g" d="M603.459,805.287c-.091,6.615.142,13.267-.018,19.867l-15.838-.003-.039-19.886c5.278-.125,10.6.133,15.895.023Z"/>
      <path class="g" d="M361.333,940.243l15.897-.02c.268,5.263-.326,10.626-.02,15.897l-15.897.02c-.294-5.258.366-10.635.02-15.897Z"/>
      <path class="e" d="M678.875,1241.909c-.281,5.245,0,10.613,0,15.877-5.29.09-10.588-.095-15.877,0,.346-5.263-.314-10.639-.02-15.897,5.258-.294,10.634.366,15.897.02Z"/>
      <path class="l" d="M377.21,1241.909c-.097,5.278.264,10.614,0,15.877-5.265.268-10.599-.135-15.877,0l-.02-15.897c5.279-.15,10.602.148,15.897.02Z"/>
      <path class="g" d="M512.165,694.147c5.263.346,10.639-.313,15.897-.02.267,5.263-.326,10.626-.02,15.897h-15.877v-15.877Z"/>
      <path class="m" d="M774.138,1166.492v15.877c-5.269.263-10.61-.278-15.877,0,.105-5.278-.267-10.614,0-15.877h15.877Z"/>
      <path class="m" d="M377.21,1091.076c-.11,5.276.279,10.617,0,15.877h-15.877l-.02-15.897c5.24-.368,10.664.478,15.897.02Z"/>
      <path class="l" d="M190.653,805.287c-.067,6.612.14,13.237,0,19.846-6.615-.005-13.231.007-19.846,0-.347,6.555,0,13.268,0,19.846-6.615.035-13.232-.024-19.846,0,.007,5.292-.005,10.585,0,15.877-4.391-.216-19.046.803-19.871.019-.602-.572.104-12.236.025-15.896,6.615-.037,13.232.024,19.846,0l-.023-19.87,19.87.023c.349-6.588-.292-13.288-.023-19.87,6.596.072,13.261-.127,19.87.023Z"/>
      <path class="l" d="M206.53,749.717v19.846h-15.877c.027-6.615-.037-13.232,0-19.846,5.292-.005,10.585.008,15.877,0Z"/>
      <path class="g" d="M115.237,825.134c5.295.127,10.619-.16,15.896-.025.14,6.599-.162,13.257-.019,19.871-5.292.03-10.585-.046-15.877,0,.149-6.609-.126-13.236,0-19.846Z"/>
      <path class="m" d="M206.53,769.564v15.877c-5.292-.007-10.585.005-15.877,0,.03-5.292-.021-10.585,0-15.877h15.877Z"/>
      <path class="e" d="M131.114,940.243c-.346,5.263.313,10.639.02,15.897-5.278.15-10.602-.148-15.897-.02-.353,6.587.295,13.287.023,19.87-6.601.03-13.253-.023-19.87-.023.11-6.611-.16-13.238,0-19.846,6.611-.11,13.238.16,19.846,0,.282-5.26-.111-10.601,0-15.877,5.292.008,10.585-.006,15.877,0Z"/>
      <path class="g" d="M115.237,940.243c-.111,5.276.282,10.617,0,15.877-6.608.16-13.236-.11-19.846,0,.128-5.295-.161-10.618-.025-15.896,6.603-.035,13.253.009,19.871.019Z"/>
      <path class="e" d="M75.544,940.243c.278,5.267-.278,10.611,0,15.877h-19.846c.029-5.292-.02-10.585,0-15.877h19.846Z"/>
      <path class="m" d="M131.114,920.397c-.099,6.576.43,13.304,0,19.846-5.292-.006-10.585.008-15.877,0,.139-6.606,0-13.237,0-19.846h15.877Z"/>
      <path class="l" d="M131.114,900.55c.324,6.542.099,13.286,0,19.846h-15.877c0-6.615,0-13.231,0-19.846h15.877Z"/>
      <path class="e" d="M115.237,880.704c5.295.127,10.619-.16,15.896-.025.265,6.586-.346,13.278-.019,19.871h-15.877v-19.846Z"/>
      <path class="m" d="M39.821,1106.953c-.312,6.594.267,13.283.023,19.87l-19.87-.023c-.039-6.615.025-13.232,0-19.846,6.611-.125,13.234.086,19.846,0Z"/>
      <path class="g" d="M55.698,1015.659c-.046,5.291.083,10.587,0,15.877h-15.877v-15.877h15.877Z"/>
      <path class="m" d="M758.261,975.967v19.846c-6.593-.11-13.274.344-19.846,0,.007-6.615-.005-13.231,0-19.846,6.615,0,13.232-.041,19.846,0Z"/>
      <path class="l" d="M206.53,694.147c-.068,11.884,0,23.839,0,35.724h-15.877c.045-11.884-.097-23.84,0-35.724h15.877Z"/>
      <path class="m" d="M55.698,1051.383c-.331,6.592.287,13.286.019,19.871-5.277.137-10.602-.153-15.896-.025v-19.846h15.877Z"/>
      <path class="e" d="M115.237,844.98c-.119,5.295.155,10.619.025,15.896-6.586.265-13.278-.346-19.871-.019-.005-5.292.008-10.585,0-15.877,6.611-.114,13.233.057,19.846,0Z"/>
      <path class="l" d="M170.807,1277.632c.039,6.614-.067,13.233,0,19.846h19.846c.077,13.197-.243,26.501,0,39.693-6.578.002-13.292.347-19.846,0-.149-6.609.139-13.237,0-19.846-.139-6.609.067-13.235,0-19.846-6.615,0-13.232.041-19.846,0-.037-6.614,0-13.232,0-19.846h19.846Z"/>
      <path class="g" d="M206.53,674.301c-.064,6.614.038,13.232,0,19.846h-15.877c.054-6.613-.106-13.235,0-19.846,5.292.007,10.585-.005,15.877,0Z"/>
      <path class="g" d="M321.64,579.038v19.846c-6.573.347-13.253-.12-19.846,0-.107-6.554-.342-13.313,0-19.846,6.463-.337,13.383-.33,19.846,0Z"/>
      <path class="h" d="M170.807,1166.492c.023,5.292-.019,10.585,0,15.877h-19.846v-15.877c6.607-.126,13.236,0,19.846,0Z"/>
      <path class="h" d="M150.961,1031.537c.142,6.61-.141,13.237,0,19.846s-.065,13.235,0,19.846-.039,13.232,0,19.846c.031,5.292-.006,10.585,0,15.877.014,13.203,0,26.49,0,39.693v19.846c-4.293.082-19.183-.751-19.872-.035-1.364,1.416,1.418,14.502.05,15.947-1.286,1.358-29.435-1.012-35.747-.035-.274-5.267.278-10.61,0-15.877-.347-6.588.291-13.288.023-19.87l-19.87.023c-.606-13.046-.263-26.618,0-39.693l19.871.019c.128-5.278-.14-10.601-.025-15.896,6.606-.225,13.276.207,19.87.023.265-6.583-.367-13.281-.023-19.87s-.325-13.26,0-19.846l15.896.025c.45-6.545-.616-13.344-.019-19.871,6.541-.147,13.323-.341,19.846,0Z"/>
      <path class="l" d="M150.961,1166.492v35.724c-18.485.001-37.107-.009-55.591.023-.267-6.583.364-13.281.021-19.869,6.312-.977,34.462,1.393,35.747.035,1.368-1.445-1.414-14.531-.05-15.947.689-.716,15.58.117,19.872.035Z"/>
      <path class="l" d="M170.807,1146.646c.038,6.615-.029,13.232,0,19.846-6.61,0-13.239-.126-19.846,0v-19.846h19.846Z"/>
      <path class="g" d="M226.377,880.704c.349,6.588-.292,13.287-.023,19.87,6.584.266,13.281-.368,19.87-.023-.121,6.593.347,13.273,0,19.846-6.463.336-13.383.331-19.846,0-6.589-.337-13.286.285-19.869.021-.166-13.193.281-26.521.023-39.714h19.846Z"/>
      <path class="e" d="M226.377,1015.659h19.846c-.121,5.295.156,10.619.022,15.896l-53.282.055c-4.395-.693-2.074-11.431-2.31-15.951h35.724Z"/>
      <path class="h" d="M226.377,995.813v19.846h-35.724c-.344-6.58.182-13.291-.021-19.869,11.846.405,23.911-.525,35.745.023Z"/>
      <path class="m" d="M150.961,1241.909h19.846c.015,5.292-.021,10.585,0,15.877-6.612-.091-13.236.132-19.846,0-6.615-.132-13.27.151-19.871.019-.137-5.278.153-10.602.025-15.896,6.615,0,13.231,0,19.846,0Z"/>
      <path class="e" d="M190.653,805.287c5.295.12,10.619-.155,15.896-.022.165,13.194-.263,26.52-.019,39.715-5.292,0-10.585-.021-15.877,0,.149-6.609-.14-13.237,0-19.846.14-6.609-.067-13.235,0-19.846Z"/>
      <path class="e" d="M190.653,844.98c-.119,5.295.155,10.619.025,15.896-6.586.264-13.278-.344-19.871-.019v-15.877c6.615-.035,13.232.027,19.846,0Z"/>
      <path class="l" d="M226.377,860.857c0,6.578-.347,13.291,0,19.846h-19.846c-.13-6.61.08-13.234,0-19.846h19.846Z"/>
      <path class="l" d="M266.07,900.55c-.345,6.588.289,13.287.023,19.87-6.583.265-13.281-.366-19.87-.023.347-6.573-.121-13.253,0-19.846,6.523.341,13.305.147,19.846,0Z"/>
      <path class="m" d="M246.223,920.397c-.348,6.588.292,13.286.022,19.869l-17.565.048-2.303-19.917c6.463.331,13.384.336,19.846,0Z"/>
      <path class="l" d="M131.114,1222.062c6.594.312,13.283-.267,19.87-.023l-.023,19.87c-6.615,0-13.231,0-19.846,0-.16-6.608.11-13.236,0-19.846Z"/>
      <path class="l" d="M226.377,995.813c6.595.305,13.283-.262,19.87-.023-.073,6.596.127,13.261-.023,19.87h-19.846v-19.846Z"/>
      <path class="e" d="M131.114,1031.537c.418-4.569-2.217-15.26,2.321-15.95,5.326-.81,11.911.582,17.549.055.129,5.277-.137,10.6-.023,15.895,6.589.344,13.287-.289,19.87-.023.266,6.583-.368,13.281-.023,19.87l19.87-.023c.269,6.583-.372,13.282-.023,19.87h-19.846c-.12-6.594.344-13.273,0-19.846-6.615.007-13.231-.005-19.846,0-.141-6.61.142-13.237,0-19.846-6.523-.341-13.305-.147-19.846,0-.597,6.527.469,13.326.019,19.871l-15.896-.025c.326-6.593-.283-13.285-.019-19.871,5.277-.13,10.601.144,15.896.025Z"/>
      <path class="g" d="M115.237,1071.229c-.343,6.589.288,13.287.023,19.87-6.594.184-13.264-.248-19.87-.023.144-6.613-.152-13.27-.023-19.87l19.87.023Z"/>
      <path class="l" d="M170.807,1051.383c.344,6.574-.12,13.253,0,19.846h19.846c.347,6.555,0,13.268,0,19.846h-19.846c-.06-6.613.12-13.236,0-19.846h-19.846c-.065-6.612.141-13.238,0-19.846,6.615-.005,13.231.007,19.846,0Z"/>
      <path class="l" d="M170.807,1091.076c.048,5.292-.031,10.585,0,15.877h-19.846c-.006-5.292.031-10.585,0-15.877h19.846Z"/>
      <path class="e" d="M170.807,1182.369c.023,6.615-.023,13.231,0,19.846h-19.846v-19.846h19.846Z"/>
      <path class="l" d="M75.544,1146.646l19.87-.023c.268,6.582-.371,13.282-.023,19.87l-19.87.023c-.24-6.587.33-13.275.023-19.87Z"/>
      <path class="g" d="M190.653,1091.076v15.877c-6.615,0-13.231,0-19.846,0-.031-5.292.048-10.586,0-15.877h19.846Z"/>
      <path class="g" d="M170.807,1071.229c.12,6.611-.06,13.234,0,19.846h-19.846c-.039-6.614.065-13.233,0-19.846h19.846Z"/>
      <path class="m" d="M95.391,1091.076c-.115,5.296.152,10.618.025,15.896l-19.871-.019c.106-5.296-.147-10.618-.025-15.896,6.595-.196,13.264.244,19.871.019Z"/>
      <path class="m" d="M281.947,880.704c-.331,6.592.287,13.285.019,19.871-5.278.13-10.601-.144-15.896-.025.344-6.574-.12-13.253,0-19.846h15.877Z"/>
      <path class="m" d="M226.377,844.98v15.877h-19.846c-.064-5.29.098-10.588,0-15.877,6.615,0,13.231,0,19.846,0Z"/>
      <path class="g" d="M170.807,844.98v15.877c-6.476.319-13.37.319-19.846,0-.005-5.292.007-10.585,0-15.877,6.615-.024,13.232.035,19.846,0Z"/>
      <path class="h" d="M266.07,674.301c.052,6.618-.096,13.269-.019,19.871,5.278.13,10.601-.144,15.896-.025.119,5.295-.155,10.618-.025,15.896l19.871-.019c.347,6.588-.291,13.288-.023,19.87,6.582.266,13.282-.368,19.87-.023v95.263c-6.589.343-13.287-.288-19.87-.023-.024,6.6.014,13.253.023,19.87h-35.724c-.031-6.614.071-13.233,0-19.846-.142-13.197.265-26.501,0-39.693-.106-5.296.147-10.619.025-15.896l-19.871.019c-.288-31.703.226-63.58-.023-95.284,6.582-.267,13.281.364,19.869.021Z"/>
      <path class="l" d="M281.947,674.301c6.588.348,13.288-.291,19.87-.023.268,6.582-.371,13.282-.023,19.87,6.603.156,13.239,0,19.846,0,.119,5.295-.155,10.619-.025,15.896,6.594.196,13.265-.244,19.871-.019v19.846c-6.579,0-13.29.343-19.846,0-6.588-.345-13.288.289-19.87.023-.268-6.582.371-13.282.023-19.87-.278-5.267.278-10.611,0-15.877-6.609-.156-13.237.149-19.846,0-.149-6.609.091-13.235,0-19.846Z"/>
      <path class="g" d="M266.07,785.441c.265,13.192-.142,26.496,0,39.693l-19.869.021c-.152-13.193.262-26.52.023-39.714h19.846Z"/>
      <path class="e" d="M206.53,749.717c4.889-.007,19.259-1.911,19.918,2.292l-.049,33.452c-6.601.027-13.252-.012-19.869-.021v-35.724Z"/>
      <path class="l" d="M246.223,769.564l19.871-.019c.122,5.278-.131,10.6-.025,15.896h-19.846c-.096-5.289.048-10.587,0-15.877Z"/>
      <path class="m" d="M266.07,674.301c-.133-17.024-5.188-22.613,15.859-19.867.161,6.599-.072,13.252.018,19.867-5.173-.273-10.703-.269-15.877,0Z"/>
      <path class="m" d="M266.07,844.98c.025,5.291.046,10.587,0,15.877-6.615,0-13.231,0-19.846,0v-15.877h19.846Z"/>
      <rect class="e" x="226.377" y="844.98" width="19.846" height="15.877"/>
      <path class="l" d="M321.64,749.717l19.87-.023c-.078,6.597.135,13.261-.023,19.87h-19.846v-19.846Z"/>
      <path class="m" d="M341.486,769.564c-.127,5.295.16,10.618.025,15.896l-19.871-.019v-15.877h19.846Z"/>
      <path class="m" d="M190.653,1277.632c.025,6.615-.039,13.232,0,19.846h-19.846c-.067-6.614.039-13.232,0-19.846h19.846Z"/>
      <path class="e" d="M170.807,1257.786c.026,6.615-.039,13.232,0,19.846h-19.846v-19.846c6.61.132,13.234-.091,19.846,0Z"/>
      <path class="h" d="M246.223,860.857v19.846c0,6.611.121,13.239,0,19.846-6.589-.344-13.286.289-19.87.023-.269-6.583.372-13.282.023-19.87-.347-6.555,0-13.268,0-19.846h19.846Z"/>
      <path class="g" d="M281.947,674.301c.091,6.611-.149,13.238,0,19.846,6.609.149,13.238-.156,19.846,0,.278,5.267-.278,10.611,0,15.877l-19.871.019c-.13-5.278.144-10.601.025-15.896-5.295-.119-10.618.155-15.896.025-.077-6.602.071-13.253.019-19.871,5.174-.269,10.704-.273,15.877,0Z"/>
    </g>
    <g>
      <g>
        <path class="i" d="M351.185,6.96c-.011-2.311.008-4.649,0-6.96h-7.731s0,6.96,0,6.96c2.569.007,5.162-.011,7.731,0,.034,6.948-.025,13.932,0,20.88h6.957v92.028h-6.957s0,63.415,0,63.415h6.957v28.614s6.957,0,6.957,0v20.88s6.957,0,6.957,0c.01,4.887-.014,9.807,0,14.694-2.31-.025-4.648.018-6.957,0v-7.733s-13.915,0-13.915,0v-6.96s-28.603,0-28.603,0v14.694c2.31.018,4.648-.025,6.957,0,.012,2.311-.009,4.649,0,6.96,2.31.018,4.648-.025,6.957,0,.025,2.311-.018,4.649,0,6.96,2.31.008,4.647-.011,6.957,0,.025,2.311-.018,4.649,0,6.96,4.886.005,9.802-.007,14.688,0,2.71.212,1.502-7.818.584-7.987-5.189-.956-10.289-.736-15.272,1.027,4.001-6.986.026-10.963-6.957-6.96,4.001-6.986.026-10.963-6.957-6.96,1.511-2.555,1.521-5.183,0-7.733.078.597.234,1.456.689,1.547.927.185,11.299.206,12.12,0l1.106-1.547c-2.417.441-2.31,7.084,0,7.733-.054.662.228,1.108.676,1.547.462.452,11.649.15,12.924,0l1.088-1.547c-2.727-.218-1.483,7.86-.569,7.988,4.991.703,9.648.493,14.484-1.028-3.499,7.626-.665,10.46,6.957,6.96,2.393-.369,2.286-6.386,0-6.96-2.289-1.524-4.665-1.518-6.957,0,1.511-2.294,1.519-4.67,0-6.96,1.611,1.34,3.505,1.626,5.521,1.672-.573,2.781-.094,4.544,1.437,5.289,2.276,1.133,4.566,1.954,6.927.943-1.238,2.131-.707,4.077.803,6.017-3.791,6.914-.852,9.31,5.478,8.507-.174,1.932.588,3.734,1.479,5.413,4.291,1.244,8.655,1.845,13.035.88-.965,4.382-.364,8.747.88,13.04,2.29,1.518,4.665,1.512,6.957,0,2.239,1.154,4.515,1.869,6.851.88-.988,2.337-.275,4.615.879,6.854,1.995,1.135,4.006,1.873,6.078.88-.993,2.073-.256,4.085.879,6.08l1.738,1.039c5.923.049,4.995,5.755-.703,4.374l-1.035,1.547c-1.514,2.291-1.509,4.667,0,6.96,1.558,1.322,3.466,1.578,5.411,1.721-.667,6.404.936,7.096,6.957,6.96-.773,6.689,1.381,7.282,7.469,6.785l1.035-1.547c1.515-4.617,1.52-9.304,0-13.92-.659-1.589-2.485-2.105-5.478-1.547.173-1.935-.59-3.736-1.479-5.413,1.799-4.734,1.927-9.529,1.028-14.487-.191-1.056-7.976-2.037-7.986.567.603-.073,1.496-.259,1.546-.699.375-3.289.558-16.901,0-19.824l-1.546-1.13c-.623-1.481-2.427-2.055-5.411-1.721.666-6.404-.935-7.096-6.957-6.96v-4.204c-.104-3.409-8.141-3.67-9.277-1.035,1.682-1.019,2.198-3.473,1.546-7.361.593-3.248.078-5.435-1.546-6.559-.623-1.467-2.427-2.049-5.411-1.746.552-6.523-.256-8.001-6.957-7.709.773-6.689-1.38-7.281-7.469-6.785l-1.035,1.547c.598-.078,1.465-.239,1.546-.689.169-.932.197-11.44,0-12.125l-1.546-1.107c-.369-2.394-6.384-2.287-6.957,0,.598-.078,1.465-.239,1.546-.689.169-.932.197-11.44,0-12.125l-1.546-1.107c-.441-2.418-7.082-2.311-7.731,0,.363.039.716.046,1.031-.06,1.321-.444.961-26.326.515-27.647l-1.546-.907c-.369-2.394-6.384-2.287-6.957,0l1.546-.537c0-44.094,0-88.196,0-132.306l-1.546-.947c.369,2.394,6.384,2.287,6.957,0-.604.07-1.513.267-1.546.695-.411,5.247-.403,13.807,0,19.063l1.546,1.123c.441,2.418,7.082,2.311,7.731,0-.597.078-1.456.234-1.546.689-.185.927-.206,11.304,0,12.125l1.546,1.107c.623,1.481,2.427,2.055,5.411,1.721-.768,6.684,1.363,7.281,7.469,6.785l1.035-1.547c-.602.073-1.492.256-1.546.699-.418,3.399-.541,16.647,0,19.824l1.546,1.13c.369,2.394,6.384,2.287,6.957,0-.597.078-1.456.234-1.546.689-.185.927-.206,11.304,0,12.125l1.546,1.107c.369,2.394,6.384,2.287,6.957,0-.601.075-1.494.255-1.546.689-.298,2.467-.292,9.627,0,12.125l1.546,1.107c.441,2.418,7.082,2.311,7.731,0-.594.077-1.438.22-1.546.677-.22.929-.209,11.827,0,12.928l1.546,1.088c.369,2.394,6.384,2.287,6.957,0-.597.078-1.456.234-1.546.689-.185.927-.206,11.304,0,12.125l1.546,1.107c.369,2.394,6.384,2.287,6.957,0-.363-.039-.716-.046-1.031.06-1.651.554-.867,31.139-.515,34.608l1.546.907c.369,2.394,6.384,2.287,6.957,0l-1.546.532c0,29.923,0,59.851,0,89.786l1.546.937c.666,1.591,2.492,2.106,5.478,1.547-.283,6.749-.166,13.509,1.479,20.107.369,2.394,6.384,2.287,6.957,0,.007-4.63-.005-9.29,0-13.92h7.731s0-7.733,0-7.733h6.957s0-13.92,0-13.92h6.957s0-6.96,0-6.96h6.957s0-13.92,0-13.92h6.957s0-28.614,0-28.614h7.731s0-56.454,0-56.454h-7.731v-20.88s-6.957,0-6.957,0v-21.654s-6.957,0-6.957,0v-13.92s-6.957,0-6.957,0v-6.96s-6.957,0-6.957,0v-13.92s-7.731,0-7.731,0v-7.733s-6.957,0-6.957,0v-6.96s-6.957,0-6.957,0v-6.96s-6.957,0-6.957,0v-6.96s-6.957,0-6.957,0v-6.96s-6.957,0-6.957,0v-6.96s-7.731,0-7.731,0v-6.96s-6.957,0-6.957,0v-7.733s-6.957,0-6.957,0v-6.96s-13.915,0-13.915,0v-6.96s-14.688,0-14.688,0v-6.96s-6.957,0-6.957,0v-6.96c-4.627-.014-9.288.019-13.915,0Z"/>
        <path class="i" d="M457.093,317.846c-1.085,4.094-1.949,8.279-1.227,12.481-2.952-.587-4.862-.107-5.731,1.44-1.519,2.294-1.525,4.67,0,6.96,4.606,1.209,9.264,1.987,13.952.981-.943,2.046-.458,4.066.736,5.979.659,1.589,2.485,2.105,5.478,1.547-.201,2.182.546,4.247,1.479,6.187-1.511,2.294-1.517,4.669,0,6.96.548,1.452,2.352,1.987,5.411,1.605v11.208c.731,2.46,3.073,3.344,7.024,2.653-.283,13.687-.205,27.38,1.479,40.987-1.518,2.291-1.513,4.667,0,6.96-1.522,2.291-1.517,4.667,0,6.96-1.074,4.06-1.932,8.211-1.25,12.374h-4.228c.28-4.179-.375-8.325-1.479-12.374,1.517-2.293,1.522-4.669,0-6.96,1.513-2.293,1.518-4.669,0-6.96,2.117-9.491,2.161-19.128,0-28.614-.346-2.378-6.357-2.304-6.957,0,.015,18.806-.011,37.648,0,56.454h-6.957s0,14.694,0,14.694h-7.731s0,6.96,0,6.96h-6.957s0,6.96,0,6.96h-6.957s0,6.96,0,6.96h-6.957s0,6.96,0,6.96h-6.957s0,6.96,0,6.96h-6.957s0,14.694,0,14.694h-7.731s0,6.96,0,6.96h-6.957s0,13.92,0,13.92h-6.957s0,13.92,0,13.92h-6.957s0,28.614,0,28.614h-6.957s0,42.534,0,42.534c1.674.998,3.54,1.385,5.411,1.721-1.202,2.069-.428,5.165,1.12,5.939,4.644,1.548,8.514-.774,13.158.774-.774,1.548-1.548,3.87-.774,4.644,3.87,3.096,9.288,2.322,13.932,2.322-2.322,3.096-4.644,7.74.774,7.74,6.192-.774,13.932,0,15.48-7.74.774,0,2.322.774,3.096.774,4.644-1.548,3.096-6.192,4.176-10.095.091-2.725.093-5.367.092-8.009-.004-15.855-.091-31.721-.033-47.565h6.957s0-21.654,0-21.654h6.957s0-13.92,0-13.92h7.731s0-13.92,0-13.92h6.957s0-6.96,0-6.96h6.957s0-14.694,0-14.694h6.957s0-6.96,0-6.96h6.957s0-13.92,0-13.92h7.731s0-92.028,0-92.028h-7.731v-20.88s-6.957,0-6.957,0v-14.694s-6.957,0-6.957,0v-13.92s-6.957,0-6.957,0v-6.96s-6.957,0-6.957,0v-6.96s-7.731,0-7.731,0Z"/>
        <path class="i" d="M386.746,275.312v6.96c2.31.018,4.648-.025,6.957,0,.012,2.311-.009,4.649,0,6.96,2.31.009,4.647-.012,6.957,0,.024,4.887-.017,9.807,0,14.694h-6.957v-6.96s-14.688,0-14.688,0v-7.733s-20.872,0-20.872,0v-6.96s-42.518,0-42.518,0v6.96h-21.645s0,7.733,0,7.733h-13.915s0,6.96,0,6.96h-14.688s0,6.96,0,6.96h-6.957s0,6.96,0,6.96h-6.957s0,6.96,0,6.96h-6.957s0,6.96,0,6.96h-6.957s0,6.96,0,6.96h-7.731s0,6.96,0,6.96h-6.957s0,7.733,0,7.733h-6.957s0,13.92,0,13.92h-6.957s0,13.92,0,13.92h-6.957s0,6.96,0,6.96h-7.731s0,6.96,0,6.96h21.645s0-6.96,0-6.96h127.554s0-6.96,0-6.96h21.645s0-6.96,0-6.96h6.957s0-6.96,0-6.96h14.688s0-6.96,0-6.96h6.957s0-6.96,0-6.96h6.957s0-7.733,0-7.733h6.957c-.017-4.629.023-9.291,0-13.92-1.536-.401-3.077-.77-4.636-1.029-9.279-1.54-11.252-1.202-11,6.443-6.429-.669-7.054.942-6.982,6.96-7.26-.73-7.89.879-7.706,7.733-6.686-.774-7.279,1.384-6.783,7.472l1.546,1.035c-1.019-1.683-3.472-2.199-7.359-1.547-3.247-.593-5.433-.078-6.556,1.547-1.481.624-2.054,2.428-1.721,5.413-6.681-.768-7.279,1.363-6.783,7.472l1.546,1.035c-.075-.598-.244-1.487-.676-1.547-1.154-.159-12.334-.264-12.924,0-.575.258-.858.939-1.088,1.547-2.393.369-2.286,6.386,0,6.96l-.535-1.547c-27.848,0-55.701,0-83.56,0l-.941,1.547c2.393-.369,2.286-6.386,0-6.96-1.019-1.683-3.472-2.199-7.359-1.547-3.247-.593-5.433-.078-6.556,1.547,1.481-.624,2.054-2.428,1.721-5.413,6.402.667,7.093-.936,6.957-6.96,6.402.667,7.093-.936,6.957-6.96,5.48,1.119,7.799-1.459,6.957-7.733,6.686.773,7.279-1.381,6.783-7.472l-1.546-1.035c.326,2.316,7.287,1.773,9.752,1.547,2.591.515,4.236,0,4.936-1.547,2.377-.346,2.303-6.36,0-6.96.161.603.392,1.439.905,1.547,4.103.86,20.873.372,25.79,0l1.135-1.547c2.393-.369,2.286-6.386,0-6.96l.714,1.547c13.879,0,27.763,0,41.652,0l.925-1.547c2.393-.369,2.286-6.386,0-6.96l.721,1.547c15.934,0,31.873,0,47.819,0l.935-1.547-1.546.835c-.52,6.37.14,8.461,7.024,7.671-.173,1.936.59,3.736,1.479,5.413,2.312-.004,4.646,0,6.957,0,1.564-.637,2.091-2.441,1.58-5.413h12.02c3.948-.953,2.876-5.052,1.088-8.507-1.577-1.326-3.45-1.576-5.411-1.721,1.118-5.482-1.459-7.802-7.731-6.96.682-6.272-.99-7.371-7.024-6.785.284-4.44-.365-8.84-1.479-13.147-2.29-1.517-4.664-1.51-6.957,0,3.74-7.518.038-10.753-6.957-6.96,1.512-2.295,1.523-4.671,0-6.96-2.291-1.52-4.666-1.518-6.957,0Z"/>
        <path class="i" d="M464.824,360.38c.012,2.311-.009,4.649,0,6.96h6.957c1.513-2.293,1.518-4.669,0-6.96-.346-2.378-6.357-2.304-6.957,0Z"/>
        <path class="j" d="M450.136,310.886c-.023-7.206.017-14.448,0-21.654h-6.957v-91.255s-6.957,0-6.957,0v-35.574s-6.957,0-6.957,0v-13.92s-6.957,0-6.957,0v-14.694s-7.731,0-7.731,0v-13.92s-6.957,0-6.957,0v-13.92s-6.957,0-6.957,0v-21.654s-6.957,0-6.957,0v-6.96s-6.957,0-6.957,0v-13.92s-7.731,0-7.731,0v-20.88s-6.957,0-6.957,0v133.789s6.957,0,6.957,0v28.614s7.731,0,7.731,0v13.92s6.957,0,6.957,0v13.92s6.957,0,6.957,0v6.96s6.957,0,6.957,0v7.733s6.957,0,6.957,0v13.92s7.731,0,7.731,0v6.96s6.957,0,6.957,0v6.96s6.957,0,6.957,0v21.654s6.957,0,6.957,0c.017,4.629-.023,9.291,0,13.92.369,2.394,6.384,2.287,6.957,0-1.513,2.293-1.517,4.669,0,6.96.004,4.63-.007,9.29,0,13.92,1.102,0,6.711.246,6.957,0,.005-4.63-.007-9.29,0-13.92.004-2.312-.004-4.648,0-6.96h-6.957Z"/>
        <path class="j" d="M471.781,360.38c.003,2.312-.007,4.648,0,6.96.014,4.629-.005,9.291,0,13.92.659,1.589,2.485,2.105,5.478,1.547-.173,1.935.59,3.736,1.479,5.413.047,9.526-.017,19.088,0,28.614.369,2.394,6.384,2.287,6.957,0,.025-14.166-.019-28.368,0-42.534h-6.957v-13.92c-.246-.246-5.856,0-6.957,0Z"/>
        <path class="j" d="M407.618,289.232c.007,4.888-.005,9.806,0,14.694h6.957v6.96s7.731,0,7.731,0v6.96c2.31.018,4.648-.025,6.957,0,.012-2.311,0-4.649,0-6.96,1.521-2.293,1.526-4.67,0-6.96-1.934-1.5-3.899-2.054-6.03-.824,1.01-2.09.192-4.11-.928-6.136-1.935-1.032-4.058-1.407-6.184-1.746.569-3.035.054-5.031-1.546-5.988-2.31-.01-4.647.003-6.957,0Z"/>
        <path class="j" d="M429.263,317.846c-.012,2.311.009,4.649,0,6.96h-14.688s0,6.96,0,6.96h21.645v6.96c4.629.005,9.286-.007,13.915,0,.012,2.311-.009,4.649,0,6.96h6.957v7.733c.273.273,6.535,0,7.731,0,.003,2.311-.012,4.649,0,6.96h6.957c-.003-2.311.01-4.649,0-6.96-.346-2.378-6.357-2.304-6.957,0,1.519-2.554,1.527-5.183,0-7.733-.012-2.311.009-4.649,0-6.96-4.886-.005-9.802.007-14.688,0-.012-2.311.003-4.649,0-6.96h-6.957v-6.96s-6.957,0-6.957,0v-6.96c-2.31-.018-4.648.025-6.957,0Z"/>
        <path class="j" d="M393.703,275.312c.012,2.311-.012,4.649,0,6.96,2.309.025,4.648-.018,6.957,0,.008,2.311-.011,4.649,0,6.96,2.31.012,4.647-.003,6.957,0-.007-4.63.005-9.29,0-13.92-4.629-.005-9.286.007-13.915,0Z"/>
        <path class="j" d="M372.058,254.432c-4.629-.007-9.286.005-13.915,0v-6.96s-14.688,0-14.688,0v-7.733s-13.915,0-13.915,0c.01,2.569-.013,5.165,0,7.733,2.31.025,4.648-.018,6.957,0,.018,2.311-.025,4.65,0,6.96,2.31.025,4.648-.018,6.957,0,.018,2.311-.025,4.649,0,6.96,4.885.024,9.803-.017,14.688,0v6.96c2.312.003,4.646-.004,6.957,0,4.057,1.074,8.203,1.933,12.369,1.25-.551,2.917-.036,4.82,1.546,5.71,2.569.004,5.162-.002,7.731,0,2.312.002,4.646-.004,6.957,0-.012-2.311.009-4.649,0-6.96h-6.957c-.018-2.311.025-4.649,0-6.96-2.642-1.932-5.084-1.921-7.731,0-2.31-.012-4.648.009-6.957,0-.009-2.311.012-4.649,0-6.96Z"/>
        <path class="i" d="M365.1,268.352v6.96c4.629.005,9.286-.007,13.915,0v-6.96c-4.629-.005-9.286.007-13.915,0Z"/>
        <path class="j" d="M471.781,381.261c.003,2.312-.002,4.648,0,6.96h6.957c-.011-2.311.008-4.649,0-6.96h-6.957Z"/>
        <path class="j" d="M443.178,310.886c.011,2.311-.008,4.649,0,6.96h6.957c-.002-2.312.007-4.648,0-6.96h-6.957Z"/>
        <path class="j" d="M471.781,466.329c2.31-.025,4.648.018,6.957,0v-13.92s-6.957,0-6.957,0c-.01,4.629.014,9.291,0,13.92-2.31.025-4.648-.018-6.957,0-.01,4.629.014,9.291,0,13.92-2.567.014-5.163-.01-7.731,0v6.96h-6.957s0,6.96,0,6.96h-6.957s0,7.733,0,7.733h-6.957s0,6.96,0,6.96h-6.957s0,13.92,0,13.92h-6.957s0,13.92,0,13.92h-7.731s0,21.654,0,21.654h-6.957s0,34.801,0,34.801h6.957s0-6.96,0-6.96h7.731s0-35.574,0-35.574h6.957s0-13.92,0-13.92h6.957s0-13.92,0-13.92h6.957s0-13.92,0-13.92h6.957s0-6.96,0-6.96h6.957s0-7.733,0-7.733h7.731c.01-4.629-.014-9.291,0-13.92,2.31-.012,4.647.009,6.957,0,.01-4.629-.014-9.291,0-13.92Z"/>
        <rect class="j" x="414.575" y="600.118" width="7.731" height="21.654"/>
        <path class="j" d="M478.739,430.755c.007,4.63-.005,9.29,0,13.92h6.957c.005-4.63-.007-9.29,0-13.92-.369-2.394-6.384-2.287-6.957,0Z"/>
        <path class="j" d="M464.824,345.687c.013,2.568-.004,5.165,0,7.733h6.957c-.011-2.568.008-5.165,0-7.733h-6.957Z"/>
        <path class="j" d="M478.739,416.835c.004,2.312-.007,4.648,0,6.96.369,2.394,6.384,2.287,6.957,0,.007-2.312-.004-4.648,0-6.96h-6.957Z"/>
        <path class="j" d="M478.739,423.795c.007,2.312-.004,4.648,0,6.96h6.957c.004-2.312-.007-4.648,0-6.96h-6.957Z"/>
        <path class="j" d="M407.618,331.766c-.011-2.311.008-4.649,0-6.96h-6.957v-6.96s-49.475,0-49.475,0v6.96h-43.291s0,6.96,0,6.96h-27.83s0,6.96,0,6.96h-14.688s0,6.96,0,6.96h-6.957s0,7.733,0,7.733h-6.957s0,6.96,0,6.96h-6.957s0,6.96,0,6.96h-6.957s0,6.96,0,6.96h13.915v6.96s85.036,0,85.036,0v-6.96h14.688s0-6.96,0-6.96h6.957s0-6.96,0-6.96h13.915s0-6.96,0-6.96h6.957s0-7.733,0-7.733h7.731s0-6.96,0-6.96h6.957s0-6.96,0-6.96c4.629-.005,9.286.007,13.915,0Z"/>
      </g>
      <path class="k" d="M395.427,622.265c-.603,2.529-.603,4.077-1.377,6.399-9.288-2.322-13.158,7.74-21.672,9.288,3.096.774,5.418,2.322,8.514,1.548-3.096.774-5.418,3.87-9.288,3.87,4.644,1.548,10.062,2.322,14.706,3.096-2.322,1.548-5.418,3.096-6.966,5.418,6.192,3.096,10.062-2.322,15.48-3.096,10.062-1.548,19.35,6.966,28.638,5.418,6.192-.774,12.384-6.966,16.254-13.932,1.548-1.548-3.096-.774-3.87-.774-5.418,0-12.384,7.74-13.158,2.322,0-4.644,12.384-4.644,13.932-12.384-6.966,0-13.158,0-20.484-.213l.939-6.96h-10.823c-2.706,0-5.411,0-7.441,0h-3.385Z"/>
      <path class="d" d="M359.87,586.691c.025,2.311-.018,4.649,0,6.96,2.31.018,4.648-.025,6.957,0v-6.96s-6.957,0-6.957,0Z"/>
      <path class="f" d="M452.368,643.189c-1.815,4.051-5.685,5.599-8.007,8.695,8.514,1.548,13.932-.774,16.855-8.631-3.152.097-6.185.126-8.847-.065Z"/>
      <path class="f" d="M508.95,643.169c-2.67.201-7.314-.573-7.314.201-2.322,5.418.774,8.514,7.348,6.749-.009-2.306-.041-4.64-.033-6.95Z"/>
    </g>
  </g>
</svg>