<?xml version="1.0" encoding="UTF-8"?>
<svg id="b" data-name="Layer 2" xmlns="http://www.w3.org/2000/svg" width="285.19" height="274.179" viewBox="0 0 285.19 274.179">
  <defs>
    <style>
      .d {
        fill: #aa1f65;
      }

      .e {
        fill: #2b0f54;
      }

      .f {
        fill: #fe8042;
      }

      .g {
        fill: #fe4f69;
      }

      .h {
        fill: #3368db;
      }

      .i {
        fill: #49e6eb;
      }

      .j {
        fill: #fed945;
      }
    </style>
  </defs>
  <g id="c" data-name="Layer 1">
    <g>
      <path class="e" d="M120.657,3.988c1.257-1.944,2.73-1.942,3.989,0,5.301-.01,10.656-.092,15.955,0,1.589.306,2.918,1.635,3.989,3.988,6.943.12,13.997.12,20.941,0,1.041-1.779,2.371-3.109,3.989-3.988,5.299-.092,10.654-.009,15.955,0,1.259-1.942,2.731-1.943,3.989,0,2.647.008,5.331-.046,7.977,0,1.736.611,3.066,1.941,3.989,3.988.028,1.32-.008,2.667,0,3.988,1.969,2.617,1.964,5.357,0,7.976-.011,5.638.008,11.311,0,16.949h-3.989v7.976h-3.989v3.988h-3.989v3.988c1.739.826,3.069,2.155,3.989,3.988.069,3.974-.021,7.989,0,11.964-1.187,1.691-1.187,3.02,0,3.988,1.687,1.039,3.016,2.368,3.989,3.988,1.318.056,2.669-.036,3.989,0v3.988c1.32.036,2.671-.056,3.989,0,1.586.414,2.916,1.743,3.989,3.988,1.317.056,2.67-.036,3.989,0v3.988h3.989v3.988h3.989v7.976h43.875c.015,1.321-.023,2.668,0,3.988,3.251,10.455,2.996,22.396,0,32.901-2.811,2.666-2.786,5.118,0,7.976,1.317.056,2.669-.036,3.989,0,.018,1.321-.028,2.668,0,3.988,2.535,1.454,2.531,2.533,0,3.988,2.498,4.06,2.484,7.899,0,11.964.002,1.324-.002,2.664,0,3.988-2.665,2.78-2.665,5.438,0,7.976.002,1.324-.004,2.664,0,3.988,2.716,2.551,2.692,5.414,0,7.976,1.78,1.041,3.109,2.37,3.989,3.988.026,4.308-.019,8.653,0,12.961h3.989v39.881c-1.319.036-2.671-.056-3.989,0-1.01,1.76-2.34,3.09-3.989,3.988,1.496.785,2.826,2.114,3.989,3.988,1.467-2.518,2.523-2.524,3.989,0,.069,3.973-.049,7.99,0,11.964h7.977v7.976H0v-7.976c3.974-.049,7.992.069,11.966,0,1.208-1.847,2.014-2.816,2.681-.835-1.727-13.348-1.291-26.363,1.307-39.046.023-1.32-.015-2.668,0-3.988,2.647-.032,5.331.046,7.977,0,2.852-2.364,2.718-5.478,0-7.976-2.646-.046-5.331.032-7.977,0-.015-1.32.023-2.668,0-3.988-1.983-7.205-2.778-14.844-2.385-22.918l-1.604-2.008c-1.723-1.162-3.053-2.492-3.989-3.988-.115-6.629.084-13.31,0-19.94,2.647-.032,5.331.046,7.977,0,1.865-1.993,2.53-4.61,1.995-7.853.379-4.661.811-12.966-1.995-16.076-2.484-4.065-2.498-7.904,0-11.964-2.531-1.455-2.535-2.534,0-3.988.028-1.32-.018-2.668,0-3.988h60.827v-8.973h3.989c.036-1.319-.056-2.671,0-3.988.414-1.586,1.744-2.915,3.989-3.988.057-1.318-.036-2.668,0-3.988h3.989v-3.988h3.989v-3.988h3.989v-3.988h3.989v-3.988c1.32-.036,2.67.056,3.989,0,1.011-1.76,2.34-3.09,3.989-3.988,1.318-.056,2.669.036,3.989,0v-3.988h3.989c-.101-7.96.138-15.97,0-23.928-1.78-1.041-3.109-2.37-3.989-3.988-.028-1.321.028-2.667,0-3.988-1.78-1.041-3.109-2.37-3.989-3.988-.046-2.647.033-5.328,0-7.976-1.539-1.619-2.868-3.28-3.989-4.985-.066-5.303.048-10.649,0-15.952h3.989v-3.988c3.978-.009,7.988.013,11.966,0Z"/>
      <path class="g" d="M15.955,226.322c-.23,13.27.17,26.608,0,39.881-1.32.015-2.668-.023-3.989,0,.531-12.63-.718-25.814,0-38.385.164-2.876,2.062-1.111,3.989-1.496Z"/>
      <path class="d" d="M265.246,104.687c1.926.385,3.824-1.38,3.989,1.496.587,10.289-.433,21.07,0,31.406-1.319.036-2.671-.056-3.989,0v7.976c-1.317-.056-2.669.036-3.989,0v-7.976c1.319-.036,2.671.056,3.989,0,0-10.943.19-21.962,0-32.901Z"/>
      <path class="g" d="M11.966,185.445c1.317.056,2.67-.036,3.989,0,.105,8.29-.144,16.636,0,24.925-1.926-.385-3.824,1.38-3.989-1.496-.435-7.628.133-15.727,0-23.43Z"/>
      <path class="d" d="M15.955,137.588c1.317.056,2.67-.036,3.989,0v23.928c-1.32.015-2.668-.023-3.989,0,.006-7.963-.009-15.965,0-23.928Z"/>
      <path class="i" d="M273.224,153.54c.069,3.975-.049,7.989,0,11.964h-3.989c-.005-3.976.021-7.988,0-11.964.002-2.918,3.332-2.794,3.989,0Z"/>
      <path class="g" d="M15.955,125.624c-.021,3.975.004,7.989,0,11.964-1.317-.056-2.67.036-3.989,0,.049-3.974-.069-7.991,0-11.964.002-2.918,3.332-2.794,3.989,0Z"/>
      <path class="g" d="M269.235,181.457h3.989c.012,2.648-.018,5.328,0,7.976-.002,2.918-3.332,2.794-3.989,0-.046-2.646.009-5.329,0-7.976Z"/>
      <path class="d" d="M201.428,11.964h3.989v7.976h-3.989c.005-2.648.016-5.328,0-7.976Z"/>
      <path class="d" d="M269.235,169.493c.005,2.65-.005,5.326,0,7.976h-3.989v-7.976h3.989Z"/>
      <path class="d" d="M23.932,214.358c1.32.023,2.668-.015,3.989,0v7.976c-1.32.015-2.668-.023-3.989,0v-7.976Z"/>
      <path class="d" d="M104.703,23.928h3.989c.014,1.653-.021,3.332,0,4.985h-3.989c-.014-1.653.021-3.333,0-4.985Z"/>
      <path class="d" d="M7.977,181.457h3.989c.015,1.321-.023,2.667,0,3.988-1.317-.056-2.67.036-3.989,0-.015-1.32.023-2.668,0-3.988Z"/>
      <path class="h" d="M15.955,121.636c-.028,1.32.007,2.668,0,3.988h-3.989c.023-1.32-.015-2.668,0-3.988h3.989Z"/>
      <path class="d" d="M273.224,189.433c.009,1.324-.008,2.664,0,3.988h-3.989c-.015-1.321.023-2.667,0-3.988h3.989Z"/>
      <path class="g" d="M84.759,100.699c-.057,1.318.036,2.668,0,3.988h-3.989c.056-1.317-.036-2.669,0-3.988h3.989Z"/>
      <path class="d" d="M205.416,80.758c1.318.056,2.669-.036,3.989,0v3.988c-1.317-.056-2.67.036-3.989,0v-3.988Z"/>
      <path class="d" d="M108.691,76.77v3.988c-1.32.036-2.67-.056-3.989,0v-3.988c1.319-.036,2.671.056,3.989,0Z"/>
      <path class="d" d="M193.45,68.794c.007,1.321-.028,2.667,0,3.988,1.318.057,2.669-.036,3.989,0v3.988c-1.318-.056-2.669.036-3.989,0-.018-1.321.028-2.667,0-3.988-1.318-.057-2.669.036-3.989,0v-3.988h3.989Z"/>
      <path class="g" d="M189.462,52.842h3.989c.015,1.321-.023,2.667,0,3.988h-3.989c-.141-.141,0-3.045,0-3.988Z"/>
      <path class="g" d="M112.68,44.866h3.989c.015,1.321-.023,2.667,0,3.988h-3.989c-.018-1.322.028-2.667,0-3.988Z"/>
      <path class="d" d="M108.691,36.89h3.989c.018,1.322-.028,2.667,0,3.988h-3.989c-.015-1.322.023-2.667,0-3.988Z"/>
      <path class="g" d="M269.235,149.552h3.989c.015,1.321-.023,2.667,0,3.988h-3.989c-.007-1.321.028-2.668,0-3.988Z"/>
      <path class="d" d="M197.439,3.988c1.321.023,2.667-.015,3.989,0,.018,1.321-.028,2.668,0,3.988h-3.989v-3.988Z"/>
      <path class="d" d="M169.518,3.988v3.988c-1.321.015-2.668-.023-3.989,0v-3.988c1.321-.015,2.668.023,3.989,0Z"/>
      <path class="g" d="M273.224,246.263v3.988c.943,0,3.848-.141,3.989,0,.015,1.32-.023,2.668,0,3.988-1.321-.022-2.669.034-3.989,0-2.919-.002-2.795-3.331,0-3.988-.002,2.912-3.335,2.793-3.989,0v-3.988c1.319-.036,2.671.056,3.989,0Z"/>
      <path class="d" d="M140.601,3.988c1.321.023,2.667-.015,3.989,0v3.988c-1.321-.023-2.667.015-3.989,0v-3.988Z"/>
      <path class="g" d="M185.473,3.988V0h3.989v3.988c-1.324-.004-2.665.002-3.989,0Z"/>
      <path class="g" d="M120.657,3.988V0h3.989v3.988c-1.324.002-2.665-.004-3.989,0Z"/>
      <polygon class="d" points="80.771 125.624 80.771 117.648 84.759 117.648 84.759 113.66 88.748 113.66 88.748 104.687 92.737 104.687 92.737 100.699 96.725 100.699 96.725 96.71 100.714 96.71 100.714 92.722 104.703 92.722 104.703 88.734 108.691 88.734 108.691 84.746 116.669 84.746 116.669 80.758 124.646 80.758 124.646 84.746 120.657 84.746 120.657 92.722 128.635 92.722 128.635 88.734 132.623 88.734 132.623 84.746 140.601 84.746 140.601 80.758 148.578 80.758 148.578 108.675 144.589 108.675 144.589 113.66 136.612 113.66 136.612 117.648 128.635 117.648 128.635 121.636 124.646 121.636 124.646 129.612 120.657 129.612 120.657 133.6 116.669 133.6 116.669 165.504 120.657 165.504 120.657 173.481 124.646 173.481 124.646 177.469 128.635 177.469 128.635 181.457 136.612 181.457 136.612 185.445 144.589 185.445 144.589 189.433 165.53 189.433 165.53 185.445 177.496 185.445 177.496 181.457 185.473 181.457 185.473 177.469 189.462 177.469 189.462 169.493 193.45 169.493 193.45 165.504 201.428 165.504 201.428 234.299 197.439 234.299 197.439 238.287 193.45 238.287 193.45 242.275 189.462 242.275 189.462 246.263 185.473 246.263 185.473 250.251 165.53 250.251 165.53 242.275 156.555 242.275 156.555 234.299 160.544 234.299 160.544 222.334 165.53 222.334 165.53 214.358 160.544 214.358 160.544 210.37 148.578 210.37 148.578 206.382 92.737 206.382 92.737 193.421 96.725 193.421 96.725 181.457 92.737 181.457 92.737 173.481 100.714 173.481 100.714 165.504 104.703 165.504 104.703 125.624 80.771 125.624"/>
      <path class="j" d="M165.53,121.636c1.586.414,2.916,1.743,3.989,3.988,1.318.056,2.669-.036,3.989,0v3.988h3.989v3.988h3.989c.025,2.648-.035,5.328,0,7.976,1.083,3.134,2.412,5.792,3.989,7.976.01,1.322.008,2.666,0,3.988-.306,1.589-1.636,2.918-3.989,3.988,2.52,1.466,2.524,2.522,0,3.988-.018,1.321.028,2.667,0,3.988-.414,1.586-1.744,2.915-3.989,3.988-.967,1.652-2.371,3.049-3.989,3.988-1.011,1.76-2.341,3.089-3.989,3.988-2.979.052-5.995-.008-8.975,0-3.955,1.969-8.012,1.969-11.966,0-1.259,1.943-2.732,1.945-3.989,0-1.321-.008-2.668.028-3.989,0-1.586-.414-2.916-1.743-3.989-3.988-1.318-.056-2.669.036-3.989,0v-3.988h-3.989c-.036-1.32.057-2.67,0-3.988-1.761-1.01-3.09-2.34-3.989-3.988-.138-7.958.101-15.969,0-23.928h3.989c.036-1.319-.056-2.671,0-3.988.414-1.586,1.744-2.915,3.989-3.988,1.011-1.76,2.341-3.089,3.989-3.988,1.318-.056,2.669.036,3.989,0v-3.988c8.293.105,16.638-.144,24.929,0Z"/>
      <polygon class="d" points="140.601 11.964 140.601 15.952 152.567 15.952 152.567 19.94 165.53 19.94 165.53 32.901 160.544 32.901 160.544 36.89 156.555 36.89 156.555 28.913 152.567 28.913 152.567 40.878 148.578 40.878 148.578 44.866 136.612 44.866 136.612 36.89 132.623 36.89 132.623 32.901 128.635 32.901 128.635 40.878 132.623 40.878 132.623 44.866 128.635 44.866 128.635 48.854 124.646 48.854 124.646 44.866 120.657 44.866 120.657 36.89 116.669 36.89 116.669 28.913 112.68 28.913 112.68 11.964 140.601 11.964"/>
      <path class="j" d="M72.793,222.334c1.589.306,2.919,1.635,3.989,3.988,1.321.028,2.668-.028,3.989,0,1.736.611,3.066,1.941,3.989,3.988.056,1.318-.036,2.669,0,3.988h3.989c.011,2.648-.016,5.328,0,7.976-2.103,2.6-2.764,6.283-1.982,11.05-.382,2.156-1.96,2.93-4.001,3.028.323,3.98-4.833,5.74-5.983,1.874l-3.989-3.988c-3.03-3.045-3.216-9.255,1.404-9.963l-1.404-2.001c-1.728-.655-3.057-1.984-3.989-3.988-1.304-1.162-2.685-1.162-3.989,0,5.128,3.023-.965,9.116-3.989,3.988-1.162,1.303-1.162,2.685,0,3.988,2.514,1.469,2.511,2.519,0,3.988l3.989,3.988c1.466-2.519,2.523-2.524,3.989,0,1.463-2.53,2.526-2.535,3.989,0,1.779,1.041,3.109,2.371,3.989,3.988,2.545,1.459,2.541,2.528,0,3.988-4.859.878-8.848,2.208-11.966,3.988-1.321-.007-2.668.028-3.989,0-1.589-.306-2.918-1.635-3.989-3.988-1.321-.028-2.667.028-3.989,0-1.736-.611-3.066-1.941-3.989-3.988-.028-1.321.028-2.667,0-3.988-1.78-1.041-3.109-2.37-3.989-3.988-.069-3.964-.069-8,0-11.964.414-1.586,1.744-2.915,3.989-3.988.057-1.318-.036-2.668,0-3.988h3.989v-3.988c1.32-.036,2.67.056,3.989,0,1.011-1.76,2.34-3.09,3.989-3.988,3.965-.069,8.001-.069,11.966,0Z"/>
      <polygon class="d" points="160.544 88.734 165.53 88.734 165.53 84.746 169.518 84.746 169.518 88.734 173.507 88.734 173.507 92.722 177.496 92.722 177.496 96.71 181.484 96.71 181.484 108.675 185.473 108.675 185.473 121.636 189.462 121.636 189.462 129.612 185.473 129.612 185.473 125.624 181.484 125.624 181.484 121.636 177.496 121.636 177.496 117.648 169.518 117.648 169.518 113.66 160.544 113.66 160.544 88.734"/>
      <path class="f" d="M181.484,258.227c1.736.611,3.066,1.941,3.989,3.988,0,.943.141,3.847,0,3.988h-24.929c-1.196-.693-2.219-1.383-3.071-2.069l-13.813.015-3.06-1.935c0-.943-.141-3.847,0-3.988,13.607.174,27.279-.236,40.884,0Z"/>
      <path class="f" d="M64.816,198.406c1.736.611,3.066,1.941,3.989,3.988,0,.943.141,3.847,0,3.988-6.635.006-13.308-.008-19.943,0-1.229-.81-2.342-1.503-3.337-2.081l-18.005.061c-1.381-.305-2.572-.97-3.588-1.968,2.919.002,2.795,3.331,0,3.988-1.32-.023-2.668.015-3.989,0-.141-.141,0-3.046,0-3.988,0-2.918,3.331-2.791,3.989,0-2.919-.002-2.795-3.331,0-3.988,13.563-.235,27.32-.235,40.884,0Z"/>
      <path class="j" d="M124.646,68.794c0-.942-.141-3.847,0-3.988h60.827v3.988c-1.32.015-2.669-.023-3.989,0-18.225,3.522-38.503,2.898-56.839,0Z"/>
      <rect class="j" x="124.646" y="56.83" width="60.827" height="3.988"/>
      <path class="d" d="M181.484,68.794c-.385,1.927,1.38,3.824-1.496,3.988-18.114,1.034-37.14-.769-55.343,0v-3.988c18.922-.244,37.92.328,56.839,0Z"/>
      <path class="f" d="M96.725,234.299c6.556-6.462,6.376,4.608,5.979,9.674.236-3.941,4.788-5.544,5.987-1.698.021,3.977-.015,7.987,0,11.964h-3.989c-.036,1.32.056,2.67,0,3.988-.612,1.736-1.941,3.065-3.989,3.988-1.318.056-2.669-.036-3.989,0v3.988h-3.989c-2.919-.002-2.795-3.331,0-3.988,0-.943-.141-3.847,0-3.988h3.989c-.101-7.959.138-15.97,0-23.928Z"/>
      <path class="f" d="M257.269,108.675c5.478,2.871-.274,7.123-3.989,8.973-6.634.04-13.309-.029-19.943,0-.018-1.321.027-2.668,0-3.988-2.525-1.785-2.513-3.195,0-4.985,7.936-.137,15.996-.137,23.932,0Z"/>
      <path class="j" d="M128.635,214.358c5.593,2.436-.776,6.149-3.989,7.976-6.635-.009-13.308.006-19.943,0v-3.988c-1.319-.036-2.671.056-3.989,0-2.919-.002-2.795-3.331,0-3.988,9.28-.161,18.637-.016,27.921,0Z"/>
      <path class="f" d="M68.805,137.588c1.736.611,3.066,1.941,3.989,3.988,0,.943.141,3.847,0,3.988-7.965.005-15.967-.007-23.932,0-6.418-3.066-7.748-5.725-3.989-7.976,7.956-.008,15.979-.138,23.932,0Z"/>
      <path class="j" d="M52.85,153.54c5.593,2.436-.776,6.148-3.989,7.976-6.96.006-13.983.121-20.941,0-3.032-.373-2.94-7.285,0-7.976,8.284-.144,16.642-.01,24.929,0Z"/>
      <path class="d" d="M48.861,189.433l1.143-1.994c5.788,0,11.579,0,17.373,0l1.427,1.994c0,.943.141,3.847,0,3.988H23.932c-.022-1.32.034-2.669,0-3.988,7.917-2.857,17.037-2.963,24.929,0Z"/>
      <path class="d" d="M23.932,125.624c.028-1.32-.018-2.668,0-3.988,11.648.489,23.805-.662,35.399,0,2.876.164,1.111,2.062,1.496,3.988-5.379,2.454-10.581,2.475-15.955,0-6.501,2.951-14.418,2.868-20.941,0,1.917,1.259,1.917,2.729,0,3.988,6.523-2.869,14.441-2.956,20.941,0,.214-.776.524-1.893,1.163-1.994,2.814-.447,18.619-.473,21.315,0l1.454,1.994c0,.942.141,3.847,0,3.988H23.932c-.018-1.32.028-2.668,0-3.988-1.32-.023-2.668.015-3.989,0v-3.988c1.321-.015,2.668.023,3.989,0Z"/>
      <path class="f" d="M44.873,169.493c5.306.01,10.648-.007,15.955,0v7.976h-27.921c-3.761-.826-2.397-5.453,1.296-5.966,4.386.701,7.942.031,10.67-2.01Z"/>
      <path class="f" d="M52.85,153.54c6.635.008,13.308-.006,19.943,0v7.976c-7.964.005-15.968-.007-23.932,0v-3.988h3.989v-3.988Z"/>
      <path class="j" d="M44.873,169.493c-.385,1.925,1.381,3.824-1.496,3.988-2.974.17-6.001-.17-8.975,0-2.876.164-1.11,2.063-1.496,3.988-1.655-.002-3.331.003-4.986,0-1.518-.751-2.848-.751-3.989,0-2.647-.009-5.332.046-7.977,0-3.054-.402-2.917-7.316,0-7.976,9.612-.167,19.303-.017,28.918,0Z"/>
      <path class="f" d="M132.623,238.287c-5.302.092-10.651-.067-15.955,0v-3.988h-3.989v-3.988h23.932c.141.141,0,3.045,0,3.988-.611,1.736-1.941,3.065-3.989,3.988Z"/>
      <path class="f" d="M128.635,258.227c1.736.611,3.066,1.941,3.989,3.988,0,.943.141,3.847,0,3.988h-23.932v-3.988h3.989v-3.988c5.303.067,10.652-.092,15.955,0Z"/>
      <path class="j" d="M96.725,226.322c1.321.028,2.667-.018,3.989,0v3.988h3.989c.036,1.32-.056,2.67,0,3.988,1.761,1.01,3.09,2.34,3.989,3.988.028,1.321-.007,2.667,0,3.988-1.925.385-3.824-1.38-3.989,1.496-.123,2.148.085,4.339,0,6.481h-3.989v-15.952c-1.319-.036-2.671.056-3.989,0-1.723-1.162-3.053-2.492-3.989-3.988-.034-1.32.022-2.667,0-3.988,1.465-2.524,2.525-2.53,3.989,0Z"/>
      <path class="j" d="M56.839,214.358c2.919.002,2.795,3.331,0,3.988-1.321.028-2.668-.028-3.989,0-1.041,1.779-2.371,3.109-3.989,3.988-3.965.069-8.001.069-11.966,0-3.054-.402-2.917-7.316,0-7.976,6.612-.115,13.331-.115,19.943,0Z"/>
      <path class="j" d="M23.932,230.31c5.635-.098,11.316.071,16.952,0,.141.141,0,3.045,0,3.988-.611,1.736-1.941,3.065-3.989,3.988-4.295.074-8.668.074-12.963,0-3.054-.402-2.917-7.316,0-7.976Z"/>
      <path class="j" d="M36.895,137.588c1.518.751,2.848.751,3.989,0,1.324-.002,2.665.001,3.989,0v3.988h3.989v3.988c-6.961.006-13.983.121-20.941,0-2.919-.002-2.795-3.331,0-3.988,1.197-1.617,2.859-2.946,4.986-3.988,1.324-.007,2.665.003,3.989,0Z"/>
      <path class="f" d="M140.601,214.358c3.054.402,2.917,7.316,0,7.976-5.299.092-10.654.007-15.955,0v-3.988h3.989v-3.988c3.974.007,7.993-.069,11.966,0Z"/>
      <polygon class="d" points="185.473 11.964 185.473 7.976 189.462 7.976 189.462 11.964 193.45 11.964 193.45 15.952 169.518 15.952 169.518 11.964 185.473 11.964"/>
      <path class="f" d="M88.748,242.275c.032,5.305-.023,10.647,0,15.952h-3.989v3.988c-1.321.018-2.668-.028-3.989,0-1.455,2.535-2.533,2.531-3.989,0,2.919.002,2.795,3.331,0,3.988-3.971.069-7.993.021-11.966,0v-3.988c3.977-.015,7.989.021,11.966,0,0-1.321.028-2.668,0-3.988h-3.989c-.015-1.321.023-2.667,0-3.988,1.321.028,2.667-.018,3.989,0,.018,1.322-.028,2.667,0,3.988.943,0,3.848.141,3.989,0v-3.988h3.989c.141-3.465-.198-7,0-10.469.164-2.876,2.064-1.11,3.989-1.496Z"/>
      <path class="d" d="M144.589,246.263c1.321.023,2.668-.015,3.989,0v3.988c-1.321.015-2.668-.023-3.989,0,0,.943.141,3.847,0,3.988h-27.921v-3.988c.401-3.054,7.316-2.914,7.977,0,.002-2.918,3.332-2.794,3.989,0,4.994-2.857,10.938-2.798,15.955,0-2.919-.002-2.795-3.331,0-3.988Z"/>
      <path class="j" d="M23.932,202.394c7.639,0,15.878-.431,23.433,0,2.876.164,1.111,2.062,1.496,3.988-8.288.01-16.644.144-24.929,0v-3.988Z"/>
      <path class="j" d="M27.921,185.445c1.599-1.953,3.383-1.949,4.986,0,5.305-.013,10.65-.007,15.955,0,2.919.002,2.795,3.331,0,3.988-8.289,0-16.644.144-24.929,0-2.535-1.459-2.529-2.528,0-3.988,1.32-.028,2.668.008,3.989,0Z"/>
      <path class="f" d="M249.292,262.215c6.121-3.061,13.776-2.901,19.943,0,0,.943.141,3.847,0,3.988h-23.932v-3.988c1.321-.015,2.668.023,3.989,0Z"/>
      <path class="f" d="M60.827,125.624c2.648.016,5.33-.011,7.977,0v3.988h-23.932c-2.919-.002-2.795-3.331,0-3.988,5.304.005,10.65-.032,15.955,0Z"/>
      <path class="j" d="M40.884,262.215c1.321.023,2.668-.015,3.989,0v3.988c-6.964-.088-13.978.121-20.941,0-2.919-.002-2.795-3.331,0-3.988,5.134-2.921,11.903-3.023,16.952,0Z"/>
      <path class="j" d="M140.601,262.215c5.939-.103,12.564-.336,18.448,0,2.876.164,1.111,2.062,1.496,3.988-6.629,0-13.317.115-19.943,0-2.919-.002-2.795-3.331,0-3.988Z"/>
      <path class="f" d="M48.861,185.445c6.635.008,13.308-.006,19.943,0v3.988h-19.943v-3.988Z"/>
      <path class="d" d="M249.292,262.215c.385-1.926-1.38-3.824,1.496-3.988,6.11-.349,12.338.254,18.448,0v3.988c-6.631.084-13.313-.115-19.943,0Z"/>
      <path class="f" d="M23.932,258.227c4.986-.086,10.516-.282,15.456,0,2.876.164,1.111,2.062,1.496,3.988-5.634-.098-11.317.071-16.952,0-2.919-.002-2.795-3.331,0-3.988Z"/>
      <path class="f" d="M261.258,153.54c3.054.402,2.917,7.316,0,7.976-2.647.046-5.33-.032-7.977,0v-7.976c2.648.032,5.33-.046,7.977,0Z"/>
      <path class="f" d="M257.269,125.624c2.919.002,2.795,3.331,0,3.988-1.32.028-2.668-.007-3.989,0-4.06,2.495-7.899,2.476-11.966,0,0-.943-.141-3.847,0-3.988,5.304.067,10.652-.092,15.955,0Z"/>
      <path class="d" d="M249.292,141.576c-1.318-.056-2.669.036-3.989,0v-3.988h11.966v7.976h-3.989c-1.588-.414-2.917-1.743-3.989-3.988Z"/>
      <path class="f" d="M144.589,246.263v3.988c-5.299.092-10.653,0-15.955,0-2.919-.002-2.795-3.331,0-3.988,5.3-.015,10.657-.092,15.955,0Z"/>
      <path class="d" d="M257.269,108.675c1.321.023,2.668-.015,3.989,0v8.973c-2.648.011-5.329-.016-7.977,0v-3.988h3.989v-4.985Z"/>
      <path class="j" d="M23.932,246.263c4.307-.075,8.655.054,12.963,0v3.988c0,2.918-3.331,2.791-3.989,0-.476,3.087-8.235,2.949-8.975,0-2.919-.002-2.795-3.331,0-3.988Z"/>
      <path class="f" d="M160.544,177.469v3.988c-3.976-.049-7.991.069-11.966,0-2.919-.002-2.795-3.331,0-3.988,3.977.011,7.989.01,11.966,0Z"/>
      <path class="f" d="M265.246,230.31c.943,0,3.848-.141,3.989,0v7.976h-7.977c-.141-.141,0-3.045,0-3.988.611-1.736,1.941-3.065,3.989-3.988Z"/>
      <path class="d" d="M253.28,129.612c-.385,1.925,1.38,3.824-1.496,3.988-3.469.198-7.006-.141-10.47,0v-3.988c3.977-.015,7.989.021,11.966,0Z"/>
      <polygon class="d" points="265.246 198.406 265.246 202.394 269.235 202.394 269.235 206.382 261.258 206.382 261.258 198.406 265.246 198.406"/>
      <path class="f" d="M23.932,246.263v3.988h8.975c2.919.002,2.795,3.331,0,3.988-2.972.051-6.002.051-8.975,0-2.919-.002-2.795-3.331,0-3.988-.002,2.914-3.334,2.794-3.989,0,0-.943-.141-3.847,0-3.988,1.322-.015,2.667.023,3.989,0Z"/>
      <path class="f" d="M181.484,141.576h3.989c.013,2.649-.019,5.327,0,7.976h-3.989c-.025-2.648.035-5.328,0-7.976Z"/>
      <path class="f" d="M124.646,246.263c2.919.002,2.795,3.331,0,3.988h-7.977c0-.943-.141-3.847,0-3.988,2.648-.012,5.329.018,7.977,0Z"/>
      <path class="f" d="M27.921,153.54v7.976c-1.32-.023-2.668.015-3.989,0v-7.976c1.321-.015,2.668.023,3.989,0Z"/>
      <path class="d" d="M23.932,258.227v7.976c-1.321-.023-2.668.015-3.989,0v-7.976c1.321-.015,2.668.023,3.989,0Z"/>
      <path class="d" d="M261.258,153.54c1.321.023,2.667-.015,3.989,0v7.976c-1.321.015-2.668-.023-3.989,0v-7.976Z"/>
      <path class="d" d="M23.932,230.31v7.976c-1.321-.023-2.667.015-3.989,0v-7.976c1.321-.015,2.668.023,3.989,0Z"/>
      <path class="f" d="M92.737,226.322c-1.321-.028-2.667.018-3.989,0v-3.988c2.143.085,4.333-.123,6.482,0,2.876.164,1.11,2.064,1.496,3.988-1.321-.028-2.667.028-3.989,0Z"/>
      <path class="f" d="M265.246,214.358h3.989v7.976c-.141.141-3.046,0-3.989,0-3.054-.402-2.917-7.316,0-7.976Z"/>
      <path class="d" d="M15.955,169.493v7.976c-1.32-.023-2.668.015-3.989,0v-7.976c1.321-.015,2.668.023,3.989,0Z"/>
      <path class="d" d="M265.246,214.358v7.976c-.943,0-3.848.141-3.989,0v-7.976c.141-.141,3.046,0,3.989,0Z"/>
      <path class="d" d="M140.601,214.358c1.321.023,2.668-.015,3.989,0v7.976c-1.321.015-2.668-.023-3.989,0v-7.976Z"/>
      <path class="f" d="M36.895,214.358v7.976c-1.321-.023-2.667.015-3.989,0v-7.976c1.321-.015,2.668.023,3.989,0Z"/>
      <rect class="d" x="257.269" y="169.493" width="3.989" height="7.976"/>
      <path class="d" d="M233.337,108.675c.023,1.652-.034,3.334,0,4.985h-3.989v-4.985c1.321-.015,2.668.023,3.989,0Z"/>
      <path class="f" d="M32.907,137.588v3.988c-.176.176-3.979,0-4.986,0v3.988c-1.321-.023-2.668.015-3.989,0-.141-.141,0-3.045,0-3.988,0-2.918,3.331-2.791,3.989,0-2.919-.002-2.795-3.331,0-3.988,1.651-.033,3.334.009,4.986,0Z"/>
      <path class="d" d="M27.921,185.445v-3.988h4.986v3.988c-1.653.004-3.333-.01-4.986,0Z"/>
      <path class="f" d="M165.53,121.636c1.321.023,2.667-.015,3.989,0v3.988c-1.318-.056-2.669.036-3.989,0v-3.988Z"/>
      <path class="f" d="M23.932,185.445c.022,1.32-.034,2.669,0,3.988-1.32-.023-2.668.015-3.989,0v-3.988c1.321-.018,2.669.028,3.989,0Z"/>
      <path class="f" d="M136.612,125.624v3.988c-1.319.036-2.671-.056-3.989,0-.056,1.317.036,2.669,0,3.988h-3.989c.056-1.317-.036-2.669,0-3.988,1.319-.036,2.671.056,3.989,0,.056-1.317-.036-2.669,0-3.988,1.319-.036,2.671.056,3.989,0Z"/>
      <rect class="d" x="261.258" y="185.445" width="3.989" height="3.988"/>
      <path class="d" d="M148.578,177.469v3.988c-1.321-.023-2.667.015-3.989,0v-3.988c1.322.008,2.667-.004,3.989,0Z"/>
      <path class="d" d="M23.932,198.406v3.988h-3.989c0-.943-.141-3.847,0-3.988,1.321-.015,2.668.023,3.989,0Z"/>
      <path class="d" d="M173.507,173.481c-.056,1.318.036,2.669,0,3.988-1.322.015-2.667-.023-3.989,0v-3.988c1.32-.036,2.67.057,3.989,0Z"/>
      <path class="d" d="M64.816,198.406c1.32.023,2.668-.015,3.989,0v3.988h-3.989v-3.988Z"/>
      <path class="f" d="M136.612,173.481c1.318.056,2.669-.036,3.989,0v3.988c-1.321-.028-2.667.018-3.989,0v-3.988Z"/>
      <path class="f" d="M23.932,177.469v-3.988h3.989v3.988c-1.324-.002-2.665.004-3.989,0Z"/>
      <path class="f" d="M177.496,169.493c-.057,1.318.036,2.668,0,3.988-1.32.036-2.67-.057-3.989,0,.056-1.318-.036-2.669,0-3.988,1.32-.036,2.671.056,3.989,0Z"/>
      <path class="d" d="M56.839,214.358c1.321.023,2.667-.015,3.989,0v3.988c-1.321.018-2.668-.028-3.989,0v-3.988Z"/>
      <path class="d" d="M181.484,165.504c-.028,1.321.018,2.667,0,3.988-1.32.036-2.671-.056-3.989,0,.057-1.318-.036-2.668,0-3.988h3.989Z"/>
      <path class="d" d="M52.85,218.346v3.988c-1.321.015-2.668-.023-3.989,0v-3.988c1.321-.018,2.668.028,3.989,0Z"/>
      <path class="f" d="M60.827,222.334v3.988c-1.32.036-2.67-.056-3.989,0v-3.988c1.322-.015,2.667.023,3.989,0Z"/>
      <path class="f" d="M72.793,222.334c1.321.023,2.667-.015,3.989,0v3.988c-1.321-.028-2.667.018-3.989,0v-3.988Z"/>
      <path class="d" d="M124.646,161.516h3.989c.036,1.32-.057,2.67,0,3.988h-3.989c-.015-1.321.023-2.667,0-3.988Z"/>
      <path class="d" d="M80.771,226.322c1.321.028,2.667-.018,3.989,0,.036,1.319-.056,2.671,0,3.988h-3.989v-3.988Z"/>
      <path class="d" d="M185.473,157.528c-.028,1.321.018,2.667,0,3.988h-3.989c.018-1.321-.028-2.667,0-3.988.002-2.918,3.332-2.794,3.989,0Z"/>
      <path class="d" d="M92.737,230.31h3.989c.015,1.321-.023,2.667,0,3.988-1.318-.056-2.669.036-3.989,0-.022-1.321.034-2.668,0-3.988Z"/>
      <path class="f" d="M185.473,153.54c-.008,1.321.028,2.667,0,3.988h-3.989c.028-1.321-.018-2.667,0-3.988h3.989Z"/>
      <path class="d" d="M265.246,230.31v3.988h-3.989c0-.943-.141-3.847,0-3.988h3.989Z"/>
      <path class="d" d="M40.884,234.299v3.988c-1.321.015-2.668-.023-3.989,0v-3.988h3.989Z"/>
      <path class="f" d="M48.861,234.299c-.057,1.318.036,2.668,0,3.988h-3.989c.023-1.321-.015-2.667,0-3.988h3.989Z"/>
      <path class="f" d="M104.703,234.299h3.989c.018,1.321-.028,2.667,0,3.988h-3.989c-.036-1.32.056-2.67,0-3.988Z"/>
      <path class="d" d="M136.612,234.299v3.988c-1.321.015-2.668-.023-3.989,0v-3.988h3.989Z"/>
      <path class="j" d="M128.635,246.263v3.988h-3.989v-3.988c1.321-.009,2.667.004,3.989,0Z"/>
      <path class="f" d="M249.292,141.576c1.318.056,2.669-.036,3.989,0v3.988c-.943,0-3.848.141-3.989,0v-3.988Z"/>
      <path class="f" d="M261.258,246.263c2.919.002,2.795,3.331,0,3.988-1.459,2.535-2.528,2.528-3.989,0,0-.943-.141-3.847,0-3.988h3.989Z"/>
      <path class="d" d="M261.258,246.263c.943,0,3.848-.141,3.989,0v3.988c-1.322.022-2.668-.034-3.989,0,0,.943.141,3.847,0,3.988h-3.989v-3.988c1.322-.022,2.668.034,3.989,0v-3.988Z"/>
      <path class="d" d="M23.932,250.251v3.988c-1.321-.023-2.667.015-3.989,0-.141-.141,0-3.045,0-3.988h3.989Z"/>
      <path class="d" d="M36.895,250.251c0,.943.141,3.847,0,3.988-1.322.015-2.667-.023-3.989,0v-3.988h3.989Z"/>
      <path class="f" d="M44.873,250.251h3.989c.018,1.322-.028,2.667,0,3.988h-3.989c-.015-1.321.023-2.667,0-3.988Z"/>
      <path class="d" d="M273.224,250.251v3.988c-1.32-.034-2.668.022-3.989,0-.141-.141,0-3.045,0-3.988h3.989Z"/>
      <path class="d" d="M68.805,137.588c1.321.023,2.668-.015,3.989,0v3.988h-3.989v-3.988Z"/>
      <path class="d" d="M48.861,258.227h3.989v3.988c-1.321-.028-2.667.018-3.989,0-.018-1.322.028-2.667,0-3.988Z"/>
      <path class="d" d="M104.703,258.227c-.056,1.318.036,2.668,0,3.988-1.32.036-2.671-.056-3.989,0v-3.988h3.989Z"/>
      <path class="d" d="M128.635,258.227c1.321.023,2.668-.015,3.989,0,.141.141,0,3.045,0,3.988h-3.989v-3.988Z"/>
      <path class="d" d="M181.484,258.227c1.321.023,2.668-.015,3.989,0v3.988h-3.989v-3.988Z"/>
      <path class="f" d="M40.884,137.588v3.988h-3.989v-3.988c1.324-.003,2.665.002,3.989,0Z"/>
      <path class="f" d="M56.839,262.215c1.321.028,2.667-.018,3.989,0v3.988c-1.321-.028-2.667.018-3.989,0v-3.988Z"/>
      <path class="d" d="M27.921,137.588v3.988h-3.989c0-.943-.141-3.847,0-3.988,1.321-.017,2.668.026,3.989,0Z"/>
      <path class="d" d="M80.771,262.215v3.988c-1.322.015-2.667-.023-3.989,0v-3.988c1.321-.007,2.668.028,3.989,0Z"/>
      <path class="d" d="M92.737,262.215v3.988c-.943,0-3.848.141-3.989,0v-3.988h3.989Z"/>
      <path class="d" d="M140.601,262.215v3.988c-1.321-.023-2.668.015-3.989,0v-3.988c1.321-.015,2.668.023,3.989,0Z"/>
      <path class="d" d="M257.269,125.624c1.321.023,2.667-.015,3.989,0v3.988c-1.321.018-2.668-.028-3.989,0v-3.988Z"/>
      <path class="f" d="M100.714,214.358v3.988c-1.317-.056-2.67.036-3.989,0v-3.988c1.321-.015,2.668.023,3.989,0Z"/>
      <path class="e" d="M152.567,129.612c1.257-1.95,2.731-1.95,3.989,0,1.873,1.919,4.419,2.584,7.64,1.994l1.335,1.994c.028,1.317.028,2.671,0,3.988l-1.12,1.994-13.806-.011-2.026,2.005c-1.458,1.288-1.458,2.7,0,3.988,3.975.069,7.99-.05,11.966,0,1.727.746,3.389,2.075,4.986,3.988,1.76,1.011,3.09,2.34,3.989,3.988.069,3.975-.049,7.989,0,11.964-1.321.017-2.668-.026-3.989,0-1.618,1.538-3.28,2.868-4.986,3.988-1.321.026-2.667-.017-3.989,0v3.988h-3.989c-1.589-.306-2.919-1.635-3.989-3.988-1.321-.028-2.668.028-3.989,0-3.054-.402-2.917-7.316,0-7.976,5.303-.092,10.651.067,15.955,0v-7.976c-5.304-.067-10.652.092-15.955,0-1.736-.611-3.066-1.941-3.989-3.988-.028-1.32.008-2.667,0-3.988-2.51-2.752-2.522-5.231,0-7.976.023-1.321-.015-2.667,0-3.988,1.319-.036,2.671.056,3.989,0,1.011-1.76,2.34-3.09,3.989-3.988,1.321-.028,2.667.008,3.989,0Z"/>
      <path class="f" d="M165.53,137.588c-.028,1.321.018,2.667,0,3.988-5.636.071-11.317-.098-16.952,0,.034-1.32-.022-2.667,0-3.988h16.952Z"/>
      <path class="d" d="M156.555,129.612c2.981.018,5.994-.013,8.975,0,.018,1.321-.028,2.667,0,3.988h-8.975c-.036-1.32.056-2.67,0-3.988Z"/>
      <path class="f" d="M140.601,137.588c-.046,2.644-.016,5.331,0,7.976h-3.989v-7.976h3.989Z"/>
      <path class="f" d="M144.589,161.516v7.976c-1.321-.028-2.668.018-3.989,0v-7.976c1.321-.015,2.668.023,3.989,0Z"/>
      <path class="d" d="M165.53,165.504v3.988c-1.653.022-3.333-.033-4.986,0v-3.988c1.653-.022,3.333.033,4.986,0Z"/>
      <path class="d" d="M160.544,145.564c1.653.021,3.333-.014,4.986,0,.036,1.319-.056,2.671,0,3.988,1.321.026,2.667-.017,3.989,0,.015,1.321-.023,2.667,0,3.988h-3.989c-.036-1.319.056-2.671,0-3.988-1.652-.033-3.333.022-4.986,0v-3.988Z"/>
      <path class="f" d="M148.578,129.612v3.988c-1.319.036-2.671-.056-3.989,0v-3.988c1.321-.018,2.668.028,3.989,0Z"/>
      <path class="f" d="M148.578,169.493c1.321.028,2.668-.018,3.989,0v3.988c-.943,0-3.848.141-3.989,0v-3.988Z"/>
      <path class="f" d="M140.601,149.552h3.989v3.988c-1.321-.023-2.667.015-3.989,0-.018-1.321.028-2.668,0-3.988Z"/>
      <path class="d" d="M148.578,141.576c-.034,1.32.022,2.667,0,3.988-1.321-.023-2.667.015-3.989,0v-3.988c1.321-.015,2.668.023,3.989,0Z"/>
      <path class="f" d="M152.567,129.612v-3.988h3.989c.036,1.32-.056,2.67,0,3.988-1.321-.008-2.667-.008-3.989,0Z"/>
      <path class="e" d="M68.805,238.287c1.618.939,3.024,2.333,3.989,3.988,1.318.056,2.669-.036,3.989,0v3.988h-3.989c.032,2.648-.046,5.329,0,7.976-1.321-.028-2.667.018-3.989,0-1.589-.306-2.919-1.636-3.989-3.988-1.627-.72-2.956-2.05-3.989-3.988-2.919-.002-2.795-3.331,0-3.988,1.318-.056,2.669.036,3.989,0,.036-1.32-.056-2.67,0-3.988.002-2.918,3.332-2.794,3.989,0Z"/>
      <path class="e" d="M64.816,250.251c2.919.002,2.795,3.331,0,3.988-1.321-.028-2.667.018-3.989,0-.018-1.322.028-2.667,0-3.988,1.457-2.524,2.533-2.531,3.989,0Z"/>
      <path class="d" d="M64.816,238.287c.056-1.318-.036-2.669,0-3.988h3.989c.036,1.32-.056,2.67,0,3.988h-3.989Z"/>
      <path class="f" d="M68.805,238.287c.943,0,3.848-.141,3.989,0v3.988c-1.318-.056-2.669.036-3.989,0-.036-1.32.056-2.67,0-3.988Z"/>
      <path class="f" d="M60.827,242.275v3.988c1.318.056,2.669-.036,3.989,0,.141.141,0,3.045,0,3.988-1.321-.034-2.667.022-3.989,0-.028-1.32,0-2.667,0-3.988-1.318-.056-2.669.036-3.989,0v-3.988c1.32-.036,2.671.056,3.989,0Z"/>
      <path class="f" d="M64.816,250.251c1.321.034,2.667-.022,3.989,0v3.988c-1.322-.018-2.667.028-3.989,0v-3.988Z"/>
      <path class="j" d="M44.873,125.624v3.988c-6.96,0-13.983.121-20.941,0-.028-1.317-.028-2.671,0-3.988,6.957-.121,13.981-.006,20.941,0Z"/>
    </g>
  </g>
</svg>