<?xml version="1.0" encoding="UTF-8"?>
<svg id="b" data-name="Layer 2" xmlns="http://www.w3.org/2000/svg" width="358.343" height="438.233" viewBox="0 0 358.343 438.233">
  <defs>
    <style>
      .d {
        fill: #aa1f65;
      }

      .e {
        fill: #2b0f54;
      }

      .f {
        fill: #fe8042;
      }

      .g {
        fill: #fe4f69;
      }

      .h {
        fill: #3368db;
      }

      .i {
        fill: #49e6eb;
      }

      .j {
        fill: #fed945;
      }

      .k {
        fill: #fef6f7;
      }
    </style>
  </defs>
  <g id="c" data-name="Layer 1">
    <g>
      <path class="e" d="M156.694,144.754c2.534,2.758,2.523,5.22,0,7.984-3.958,1.984-8.019,1.984-11.977,0-3.658-2.261-2.068-5.822,1.996-6.108.344-5.091,6.599-5.037,9.981-1.876Z"/>
      <path class="e" d="M156.694,120.801c2.724,1.306,4.72,2.99,5.988,5.053-.882,4.357.449,5.959,3.992,4.808.089-5.388,7.878-5.403,8.104.12,2.016-.243,3.364.744,3.873,2.76,2.316-2.759,6.308-3.719,11.977-2.879-.265-2.652,1.426-3.886,3.992-3.992.219-4.415,4.342-5.269,6.986-1.876,6.634-.083,13.326-.036,19.961,0,1.59.306,2.921,1.637,3.992,3.992,1.47-2.517,2.523-2.52,3.992,0,3.979.021,7.999-.069,11.977,0,1.59.306,2.921,1.637,3.992,3.992,2.65.046,5.334-.032,7.984,0v3.992h3.992v3.992h7.984v3.992h3.992v3.992h7.984v3.992h7.984v3.992c2.65.032,5.334-.046,7.984,0,1.588.414,2.918,1.745,3.992,3.992,1.319.057,2.671-.036,3.992,0v3.992h3.992v7.984h3.992v7.984h3.992c.017,1.323-.026,2.67,0,3.992,1.54,1.62,2.871,3.283,3.992,4.99.019,1.323-.028,2.67,0,3.992,1.781,1.042,3.112,2.373,3.992,3.992.046,2.65-.032,5.334,0,7.984h3.992v3.992h4.99v23.953h3.992c.032,2.65-.046,5.335,0,7.984,1.781,1.042,3.112,2.373,3.992,3.992.092,5.307-.067,10.661,0,15.969h3.992c.018,3.98-.026,7.997,0,11.977-5.63,1.965-11.334,1.956-16.967,0-3.876,2.715-8.049,2.691-11.977,0-1.042,1.781-2.373,3.112-3.992,3.992-3.581,2.89-8.313,2.831-11.977,0-1.042,1.781-2.373,3.112-3.992,3.992-2.547,2.746-5.42,2.706-7.984,0l-3.992,3.992c-1.511,1.57-3.507,2.33-5.988,2.278-1.035,5.021.21,8.227,3.734,9.621l.378,10.059c3.405.43,4.736,3.424,3.992,8.982,3.293.235,4.624,2.896,3.992,7.984,3.254.206,4.595,2.822,4.022,7.846,3.992.124,5.732,4.701,1.847,6.126-1.565,3.42-3.561,5.456-5.988,6.108-.002,4.104-4.234,5.515-5.988,1.876-.968,1.654-2.373,3.053-3.992,3.992-.968,1.654-2.373,3.053-3.992,3.992-2.901,1.29-5.562,2.62-7.984,3.992-1.257,1.946-2.731,1.942-3.992,0-3.096.962-5.758,2.293-7.984,3.992-1.469,2.522-2.523,2.518-3.992,0-1.646,3.539-3.673,5.547-6.081,6.023-4.029-.762-7.325-.108-9.888,1.961-5.386,2.46-10.592,2.492-15.969,0-1.282-2.901-2.613-5.562-3.992-7.984-1.59-.306-2.921-1.637-3.992-3.992-1.469,2.517-2.523,2.521-3.992,0l-3.992-3.992c-1.604,1.919-3.386,1.919-4.99,0-1.02-2.267-1.984-2.947-2.892-2.04l-5.093-1.952c-2.782,2.498-5.238,2.492-7.984,0-3.933,2.281-7.892,3.463-9.981-.764-1.374-2.78-4.644-1.459-5.093,2.053-3.096,1.168-6.501,1.3-8.88-1.29-1.042,1.781-2.373,3.112-3.992,3.992l-1.876,1.998c2.014-.244,3.362.737,3.873,2.758,1.61-3.946,7.115-3.625,9.981-.764,2.921.002,2.797,3.335,0,3.992-.612,1.738-1.942,3.069-3.992,3.992-1.257,1.948-2.732,1.945-3.992,0-1.258,1.945-2.732,1.944-3.992,0-1.259,1.945-2.733,1.944-3.992,0-2.62,1.959-5.362,1.955-7.984,0-2.322-1.591-4.313-2.78-7.984-3.992-1.261,1.94-2.735,1.943-3.992,0-2.624,1.957-5.367,1.968-7.984,0-2.063-1.457-4.724-2.788-7.984-3.992-3.943,3.037-9.519,3.259-10.157-1.996-4.774.844-8.042-1.152-9.804-5.988-1.59-.306-2.921-1.637-3.992-3.992-1.466,2.527-2.527,2.533-3.992,0-1.59-.306-2.921-1.637-3.992-3.992-3.51,3.207-9.516,3.193-10.206-1.996-6.153.601-7.957-.128-10.753-5.988-1.904-.576-2.61-2.572-2.116-5.988-7.816-2.491-3.456-9.574,4.112-8.104-.277-2.711,1.428-3.738,3.992-4.098-.988-6.022.675-8.999,4.99-8.933-1.057-5.052,2.158-11.337,5.988-5.812-3.269-1.645-3.127-14.035,0-15.969-3.321,5.758-7.248-.792-5.988-6.114-4.195.812-7.854.189-10.979-1.87l-3.992-3.992c-3.661,2.822-8.384,2.854-11.977,0-2.322-1.591-4.312-2.781-7.984-3.992-7.561,2.924-16.377,2.857-23.953,0-1.042,1.781-2.373,3.112-3.992,3.992-1.257,1.971-2.735,1.971-3.992,0-1.944-1.26-1.946-2.734,0-3.992.009-2.649-.046-5.336,0-7.984.306-1.59,1.637-2.921,3.992-3.992.069-3.979-.069-7.998,0-11.977.306-1.59,1.637-2.921,3.992-3.992.184-10.626-.136-21.31,0-31.938h3.992c.036-1.32-.057-2.674,0-3.992.306-1.59,1.637-2.921,3.992-3.992.046-2.65-.032-5.334,0-7.984h3.992v-8.982h3.992v-7.984h3.992v-3.992h3.992v-3.992c1.323-.015,2.67.023,3.992,0,2.901-1.29,5.562-2.62,7.984-3.992,2.65-.018,5.335.046,7.984,0,1.042-1.781,2.373-3.112,3.992-3.992,1.323-.028,2.67.028,3.992,0,1.042-1.781,2.373-3.112,3.992-3.992,1.654-.033,3.336.022,4.99,0v-3.992h3.992v-3.992h3.992v-3.992h15.969v-3.992c1.322-.022,2.671.034,3.992,0,1.463-2.54,2.528-2.533,3.992,0,3.133,1.445,5.129,3.244,5.988,5.397,2.436.344,4.433,1.207,5.988,2.587,1.828,1.896,4.336,2.569,7.525,2.017,1.679,1.575,3.162,3.564,4.452,5.968,1.402,1.999,2.233,3.995,2.491,5.988h19.342l.813-2.837c2.974-.697,4.74-3.078,5.299-7.143,4.13-.669,6.356-2.28,6.677-4.833,2.279-.153,2.05-1.458-.689-3.915-1.071,3.316-4.249,3.854-5.988.764l-2.172-1.996c-4.876.821-7.537-.509-7.984-3.992-4.928.819-7.571-.512-7.928-3.992-4.118-.123-5.394-3.842-1.876-5.988-2.537-1.451-2.534-2.54,0-3.992,1.258-1.947,2.732-1.944,3.992,0,4.879-.71,8.871-2.041,11.977-3.992.002-2.921,3.335-2.797,3.992,0Z"/>
      <path class="e" d="M160.686,273.503c2.168-5.624,9.646,1.244,3.992,3.992-1.257,1.971-2.735,1.971-3.992,0-1.971-1.257-1.971-2.735,0-3.992Z"/>
      <path class="f" d="M35.93,269.51c2.322,1.591,4.312,2.781,7.984,3.992,3.979.024,7.999-.069,11.977,0,1.59.306,2.921,1.637,3.992,3.992,2.515,4.892,2.593,11.6,1.975,17.146-.381,3.418-.685,4.508-3.971,5.092,1.186,6.752-.145,10.69-3.992,11.815.303,2.84-1.524,3.547-3.992,4.252-.36.609-.855,14.155,1.592,12.618,2.133,2.675,4.929,4.663,8.388,5.965,1.322.023,2.67-.015,3.992,0v3.992h8.982v3.992c2.65.032,5.335-.046,7.984,0,1.59.306,2.921,1.637,3.992,3.992,1.323.028,2.67-.028,3.992,0,1.588.414,2.918,1.745,3.992,3.992,1.319.057,2.671-.036,3.992,0v3.992h7.984v3.992c2.651.025,5.334-.035,7.984,0,2.322,1.591,4.313,2.78,7.984,3.992,2.651.018,5.333-.008,7.984,0,2.921.002,2.797,3.335,0,3.992,1.459-2.54,2.533-2.536,3.992,0,2.618-1.968,5.361-1.959,7.984,0,2.653-.005,5.331.003,7.984,0,1.519.752,2.85.752,3.992,0,1.325-.002,2.667.004,3.992,0,3.465,1.589,3.368,14.475-1.996,14.092.34,5.689-16.567,5.798-15.969-.239l-8.855.1-1.126-1.976c-2.518-1.469-2.521-2.523,0-3.992-1.939-1.26-1.941-2.734,0-3.992-2.916-.002-2.797-3.337,0-3.992l-3.992,3.992-3.992,3.992c-1.714,1.477-3.69,2.294-5.939,1.991-.173,5.511-7.612,5.586-8.315.005l-7.703.12c-.131,5.408-7.799,5.386-8.16-.12h-3.326c-1.067,5.157-7.753,5.936-8.651,0-4.593.839-7.362-.491-8.307-3.992-.328,4.97-9.537,5.419-12.195,2.097l-.562-6.089c-6.606,1.195-10.598-.136-11.977-3.992-6.754,1.186-10.692-.145-11.815-3.992-2.691.271-3.809-1.436-4.049-3.992-4.866.827-7.527-.504-7.984-3.992-4.928.819-7.571-.512-7.928-3.992-3.056.305-4.769-3.503-5.869-5.988-.043-14.955.032-29.957,0-44.912h-3.992c-.01-3.981.014-7.995,0-11.977,2.667-2.782,2.667-5.444,0-7.984-.002-1.325-.002-2.667,0-3.992,1.319.028,2.673.028,3.992,0,1.042-1.781,2.373-3.112,3.992-3.992,7.956-.138,15.994-.047,23.953,0Z"/>
      <path class="d" d="M100.803,23.99c1.255-1.964,2.732-1.96,3.992,0,4.772,3.441-.551,8.764-3.992,3.992-1.465,2.533-2.526,2.527-3.992,0,0-.944-.141-3.851,0-3.992,1.322-.018,2.67.028,3.992,0Z"/>
      <path class="d" d="M132.741.037c6.637-.115,13.323.084,19.961,0,.036,1.321-.057,2.673,0,3.992,1.654.968,3.053,2.373,3.992,3.992,2.921.002,2.797,3.335,0,3.992-1.471,2.516-2.522,2.513-3.992,0-1.04,1.688-2.371,3.019-3.992,3.992-1.459,2.535-2.534,2.539-3.992,0-2.53-2.745-2.53-5.239,0-7.984q2.435-3.75,0,0c-2.689,2.55-3.045,5.455,0,7.984,1.226,1.698,2.557,1.698,3.992,0,1.259-1.936,2.733-1.936,3.992,0,3.137-1.083,5.798-2.414,7.984-3.992-1.628-.721-2.959-2.052-3.992-3.992-2.921.002-2.79-3.332,0-3.992,1.301,0,7.702-.282,7.984,0v3.992h11.977c.018,1.322-.028,2.67,0,3.992-.415,1.588-1.745,2.919-3.992,3.992q-4.748,3.06,0,0c1.257-1.95,2.732-1.948,3.992,0,1.028,2.955,2.359,5.616,3.992,7.984,2.521,1.469,2.517,2.523,0,3.992,1.698-1.226,1.698-2.557,0-3.992-2.512-2.754-2.523-5.237,0-7.984.023-1.322-.015-2.67,0-3.992h3.992c.036,1.32-.057,2.674,0,3.992,1.545,1.48,2.331,1.062,3.992,0,.944,0,3.851-.141,3.992,0,.015,1.323-.023,2.67,0,3.992,1.289,2.901,2.619,5.562,3.992,7.984.023,1.322-.015,2.67,0,3.992h4.99c.209,16.279-.282,32.628,0,48.904l2.107,2.121c3.196-.674,5.155-.051,5.878,1.871,1.741.826,3.072,2.157,3.992,3.992,0,1.322.028,2.67,0,3.992-.306,1.59-1.637,2.921-3.992,3.992-.092,5.308.067,10.66,0,15.969h-3.992v3.992h-3.992v7.984c-1.654.021-3.336-.014-4.99,0v3.992h-3.992v3.992h-11.977v7.984h-3.992v7.984h-3.992v-11.977h3.992v-3.992h-3.992v-3.992h-3.992v3.992h-7.984v-7.984h-3.992c-.015-1.322.023-2.67,0-3.992-1.985-1.626-2.157-3.747-2.107-6.113-3.194.675-5.153.051-5.878-1.871-2.841-6.334-2.905-13.646,0-19.961,2.295-3.663,5.734-2.07,6.164,1.996l3.816-.176c-1.673-7.585,5.476-11.634,8.266-3.816l7.703-.176c-.611-3.113.054-5.05,1.996-5.812l-1.164,1.996h-21.334l-1.455-1.996c5.348,2.207-.176,6.103-3.992,7.984-1.469,2.517-2.523,2.521-3.992,0-2.368-2.861-5.481-2.725-7.984,0-1.258,1.944-2.732,1.941-3.992,0,2.539,1.458,2.534,2.533,0,3.992,1.948,1.257,1.945,2.732,0,3.992-1.463,2.531-2.528,2.524-3.992,0l-1.996,2.116c-.088,5.388-7.879,5.402-8.104-.12-4.104-.002-5.514-4.234-1.876-5.988.58-1.905,2.576-2.611,5.988-2.116.605-5.336,5.613-4.486,9.981-1.876l-2.445-2.235-12.296.219-1.228-1.976c-3.056-.402-2.92-7.324,0-7.984,2.954-1.032,5.615-2.363,7.984-3.992,1.258-1.945,2.732-1.944,3.992,0,2.169.835,5.106,2.452,5.988,4.756,1.657-1.977,3.653-3.562,5.988-4.756l3.99-1.334c3.487-.113,5.781-.734,7.986-2.658,6.067-3.744,18.878-1.852,11.977,3.992l-2.66,1.336c-9.985,1.529,2.702,1.94,6.652-1.336,4.993-1.818,11.676-4.027,13.973.764,1.384-4.358,8.203-3.619,8.104,1.232,5.692-.249,5.756,16.21-.12,16.089l-.024,1.473c-8.236,6.174-3.953,7.358,6.16,6.422l4.842,1.966c3.216-2.935,2.397-5.318,0-7.984-2.252-1.098-3.916-2.429-4.99-3.992-.779-.214-1.921-.54-1.996-1.164-.292-2.434-.446-19.704,0-21.334l1.996-1.455c.202,3.052-7.859,2.31-9.036,1.207-2.359-2.209-1.775-22.988,5.044-14.182l-1.996-1.144v-17.388l1.996-1.429c-1.249,3.69-10.528,2.778-10.1-1.996-4.118-.123-5.394-3.842-1.876-5.988-3.512,3.249-9.435,3.148-10.262-1.996-.58-.515-9.215-.214-9.699,1.996-.002,2.921-3.335,2.797-3.992,0l-2.13-1.996-17.795-.005c-3.491-.547-6.164.12-8.021,2.001-.002,2.921-3.335,2.797-3.992,0-2.618-2.955-5.262-2.664-7.984,0-1.85,3.783-6.176,2.047-5.988-2.116-2.213.52-4.283-.411-5.988-1.876-2.527-1.466-2.533-2.527,0-3.992.028-1.322-.018-2.67,0-3.992,1.323-.018,2.67.028,3.992,0,.84.128,1.731.411,2.026,1.143.732,1.82,9.774,1.559,1.966-1.143v-3.992c.612-1.738,1.942-3.069,3.992-3.992,1.319-.057,2.671.036,3.992,0v-3.992c2.651-.013,5.333.019,7.984,0,1.26-1.96,2.737-1.964,3.992,0,1.954,2.62,1.947,5.361,0,7.984-1.46,2.527-2.531,2.521-3.992,0-1.189,1.693-2.519,3.024-3.992,3.992,1.8,1.281,3.13,1.281,3.992,0,1.456-2.538,2.537-2.541,3.992,0q1.585,1.585,0,0c-2.537-1.456-2.532-2.535,0-3.992,2.854-2.366,2.72-5.483,0-7.984-2.921-.002-2.797-3.335,0-3.992Z"/>
      <path class="d" d="M209.591,80.879c1.323.023,2.669-.015,3.992,0,.018,1.323-.028,2.67,0,3.992-.002,2.921-3.335,2.797-3.992,0-2.921-.002-2.797-3.335,0-3.992Z"/>
      <path class="e" d="M124.756,378.298c.002-2.921,3.335-2.797,3.992,0,3.116,1.777,2.565,4.819-.764,5.988,2.073.351,2.788,2.005,2.879,3.992,2.688-.27,3.806,1.427,4.049,3.992,4.772-.833,7.468.497,8.09,3.992,6.687-1.193,10.644.138,11.871,3.992,4.005-.712,6.608.208,7.808,2.76.338-2.106,2.043-2.722,3.992-2.936-.978-7.315,2.871-10.377,9.981-5.812-4.772-3.441.551-8.764,3.992-3.992,2.914,0,2.793,3.338,0,3.992-1.257,1.943-2.732,1.94-3.992,0,2.527,1.466,2.533,2.527,0,3.992-1.04,1.688-2.371,3.019-3.992,3.992,3.811,1.777,1.883,6.011-1.996,6.164v2.67c.278-2.126,1.978-2.874,3.992-2.965.24-3.295,2.902-4.625,7.984-3.992,5.461-11.868,13.275,5.765,3.992,8.224l-.024,1.473c-9.765,5.536,1.568,11.463.044.863,2.517-1.622,4.26-3.548,5.229-5.778,7.305-1.272,14.626-.92,21.698,1.327,2.533,1.464,2.54,2.529,0,3.992-1.04,1.688-2.371,3.019-3.992,3.992-1.465,2.533-2.526,2.527-3.992,0-1.392,1.379-2.301,3.027-2.726,4.944-2.37.652-4.456,1.666-6.256,3.04-3.215,6.129-5.876,7.46-7.984,3.992-1.319.028-2.673.028-3.992,0-1.588-.414-2.918-1.745-3.992-3.992-1.319-.057-2.671.036-3.992,0v-3.992c-1.321-.036-2.673.057-3.992,0-1.59-.306-2.921-1.637-3.992-3.992-1.323-.028-2.67.028-3.992,0-1.588-.414-2.918-1.745-3.992-3.992-1.318-.057-2.672.036-3.992,0v-3.992h-31.938c-2.921-.002-2.797-3.335,0-3.992q2.805-2.344,0,0c-1.458,2.539-2.533,2.535-3.992,0-2.618,1.968-5.361,1.959-7.984,0-2.62,1.96-5.363,1.958-7.984,0-3.959,1.966-8.019,1.97-11.977,0-8.298-.025-16.656.144-24.951,0-1.59-.306-2.921-1.637-3.992-3.992-2.649-.046-5.335.032-7.984,0v-3.992h-7.984v-3.992H15.969c-.141-.141,0-3.049,0-3.992-6.294-3.259,3.123-9.897,5.988-3.229l1.996-.764c.214-.777.525-1.895,1.164-1.996,2.818-.447,18.634-.474,21.334,0l1.455,1.996c-6.68-3.842,4.6-10.41,6.27-1.996,5.074-.531,16.449-.247,9.699,5.988-.05-.469-.059-.924.077-1.331.573-1.705,32.136-1.111,35.68-.665l1.171,1.996c-2.559.432-2.579-3.394-1.307-4.833,3.538-4.003,11.115,1.954,5.299,4.833,1.645-3.269,14.035-3.127,15.969,0-2.478-4.071-2.497-7.913,0-11.977.002-2.921,3.335-2.797,3.992,0Z"/>
      <path class="e" d="M273.466,386.282l1.061-1.996c3.339.777,5.621-.467,6.845-3.734,5.114.447,9.132-.304,12.055-2.254,1.645-3.269,14.035-3.127,15.969,0-5.726-3.328.682-7.077,5.988-6.108-.11-1.611.327-3.022,1.913-3.612l11.061-.38c-.11-1.613.329-3.026,1.918-3.614l10.059-.378c-.241-5.54,12.202-5.577,12.096.12,2.262-1.816,4.218-2.481,5.869-1.996-.01,5.312.007,10.657,0,15.969h-3.992v3.992c-3.979.049-7.999-.069-11.977,0-1.042,1.781-2.373,3.112-3.992,3.992-2.65.046-5.334-.032-7.984,0v3.992h-8.982v3.992h-7.984v3.992c-2.65.032-5.335-.046-7.984,0-1.042,1.781-2.373,3.112-3.992,3.992-2.65.046-5.334-.046-7.984,0-1.042,1.781-2.373,3.112-3.992,3.992-6.637.115-13.324-.115-19.961,0-1.042,1.781-2.373,3.112-3.992,3.992-5.308.092-10.66-.067-15.969,0-.036,1.321.057,2.673,0,3.992-.414,1.588-1.745,2.918-3.992,3.992-.057,1.319.036,2.671,0,3.992h-3.992c-.028,1.322.018,2.669,0,3.992h-3.992v3.992h-7.984v3.992c-1.321.036-2.673-.057-3.992,0-1.012,1.762-2.342,3.093-3.992,3.992-3.969.069-8.008.069-11.977,0-1.59-.306-2.921-1.637-3.992-3.992-1.322-.028-2.669.008-3.992,0-1.605,1.948-3.39,1.954-4.99,0-2.547-1.46-2.543-2.531,0-3.992,1.792-2.517,3.193-2.505,4.99,0l1.996-2.116c.239-3.294,2.9-4.625,7.984-3.992-.265-2.652,1.426-3.886,3.992-3.992.285-2.381,2.281-4.337,5.988-5.869,2.62-1.964,5.362-1.96,7.984,0-6.916-8.779,11.7-7.139,3.992,0-.002,2.921-3.335,2.797-3.992,0,1.918,1.26,1.918,2.732,0,3.992,1.032,1.743,2.363,1.743,3.992,0,.002-2.921,3.335-2.797,3.992,0,1.693,1.188,3.024,2.519,3.992,3.992-2.518-1.469-2.521-2.523,0-3.992-1.939-1.26-1.941-2.734,0-3.992-2.921-.002-2.797-3.335,0-3.992.612-1.737,1.943-3.068,3.992-3.992.706-1.662,2.955-2.887,3.221-1.322.293,1.726-2.76-.966-3.221-2.67-3.686-1.173-2.803-10.802,2.116-9.981-.52-2.218.413-4.284,1.876-5.988.002-2.92,3.335-2.797,3.992,0-.128-1.391,2.636-3.136,2.992-2.753.771.829-2.471,1.125-2.992-1.239-1.958-2.621-1.958-5.363,0-7.984,1.042-1.781,2.373-3.112,3.992-3.992,1.461-2.543,2.532-2.547,3.992,0,1.56.602,2.89,1.933,3.992,3.992,6.149,3.093,7.48,5.755,3.992,7.984,2.491,1.074,2.372,7.538,1.327,7.25-1.579-.436,1.425-2.802,2.665-3.258Z"/>
      <path class="d" d="M342.331,273.503c.026,3.98-.018,7.997,0,11.977h3.992v15.969h3.992c.088,6.97-.121,13.99,0,20.959,1.781,1.042,3.112,2.373,3.992,3.992.092,5.308-.092,10.661,0,15.969,1.781,1.042,3.112,2.373,3.992,3.992.092,5.303.01,10.664,0,15.969l-3.992,3.992h-3.992v-3.992h-7.984v3.992h-11.977v3.992h-12.975v3.992h-7.984v3.992h-15.969v3.992h-11.977v3.992h-7.984c-1.741-.826-3.072-2.157-3.992-3.992-.023-1.323.015-2.669,0-3.992h-3.992c-.036-1.321.057-2.673,0-3.992-1.322-.023-2.67.015-3.992,0v-3.992c3.497-4.96,8.945,1.056,3.992,3.992,1.609-1.904,3.672-2.146,5.988-2.116-.154-4.803,6.537-5.449,7.984-1.113,2.302-2.761,6.295-3.721,11.977-2.879l.024-1.473c2.405-1.737,4.368-3.782,5.886-6.134l10.059-.378c-.265-2.652,1.426-3.886,3.992-3.992.238-3.294,2.899-4.625,7.984-3.992-.265-2.652,1.426-3.886,3.992-3.992-.243-3.385,2.091-3.978,4.99-3.992-.27-2.688,1.426-3.806,3.992-4.049-.764-7.118,1.234-8.219,7.984-7.984l.021-5.353c2.678-1.893,2.758-3.35.238-4.373.612-4.732-.719-7.726-3.992-8.983.447-5.113-.304-9.132-2.254-12.055l-1.996-1.144v-17.388l1.996-1.429c-.46,3.836-6.311,2.197-6.013-1.904-4.489.602-7.392-4.095-2.97-6.081,5.644-.011,11.323.008,16.967,0Z"/>
      <path class="d" d="M7.984,342.368l3.992,1.497v2.495h3.992v3.992h7.984v3.992h7.984v3.992h3.992v3.992h11.977v3.992h11.977v7.984h7.984v-3.992h4.99v3.992h7.984v3.992h3.992v-3.992h7.984v3.992h3.992v-3.992h11.977v3.992h3.992v-3.992c2.651-.014,5.333.02,7.984,0,.028-1.322-.018-2.67,0-3.992,1.322-.022,2.671.034,3.992,0,2.513,1.471,2.516,2.522,0,3.992.001-2.921,3.334-2.797,3.992,0-.009,1.323.028,2.67,0,3.992,1.784,0,11.553-.423,11.977,0v3.992h11.977v-3.992h3.992v-11.977c1.323-.004,2.669.009,3.992,0v-3.992h3.992c2.538,1.456,2.541,2.537,0,3.992-1.458,2.539-2.533,2.534-3.992,0,1.391-.132,3.134,2.64,2.753,2.992-.835.769-1.117-2.472,1.24-2.992,2.997-6.086,7.258-8.095,13.471-4.478.1,2.317,2.263,3.81,6.49,4.478-2.539-1.463-2.543-2.531,0-3.992.612-1.738,1.943-3.069,3.992-3.992,1.462-2.543,2.529-2.538,3.992,0,1.257-1.948,2.732-1.945,3.992,0,1.602-1.955,3.388-1.955,4.99,0-2.921-.002-2.797-3.335,0-3.992,1.322.026,2.669-.017,3.992,0,.018,1.323-.028,2.67,0,3.992-1.261,1.941-2.735,1.943-3.992,0,1.741.826,3.072,2.157,3.992,3.992,2.723,3.37,5.444,2.357,7.984,0h3.992c.032,2.65-.046,5.335,0,7.984,3.472,1.54,5.527,3.536,6.164,5.988,4.928-.819,7.571.512,7.928,3.992,2.691-.271,3.809,1.436,4.049,3.992,4.415-2.011,9.785,3.911,8.565,4.976-.979.855-2.589-19.807,5.232-10.965,1.944,1.26,1.946,2.734,0,3.992,1.945,1.26,1.948,2.735,0,3.992-.019,2.651.013,5.333,0,7.984h-3.992v7.984l-3.187,1.986c-1.679-.175-3.278.494-4.797,2.007,1.729.655,3.06,1.986,3.992,3.992-2.921-.002-2.797-3.335,0-3.992,1.471-2.516,2.522-2.513,3.992,0v3.992h-3.992v3.992c-.002,2.921-3.335,2.797-3.992,0-.002,2.921-3.335,2.797-3.992,0v-3.992h-3.992c-.018,1.323.028,2.67,0,3.992-2.652,0-5.333-.009-7.984,0-.028,1.322.018,2.67,0,3.992h-3.992v3.992h-3.992v3.992h-7.984v3.992c-1.322.018-2.67-.027-3.992,0-1.726-.747-3.389-2.078-4.99-3.992,2.513,1.471,2.516,2.521,0,3.992,0,1.323-.028,2.67,0,3.992-2.651-.018-5.333.013-7.984,0v-3.992c1.322-.028,2.669.018,3.992,0v-3.992c1.323-.017,2.67.026,3.992,0,.028-1.322-.018-2.669,0-3.992h4.99v-3.992c1.323-.018,2.67.028,3.992,0,1.693,1.188,3.023,1.188,3.992,0l3.992-3.992c2.751-2.52,5.222-2.499,7.984,0-2.522-1.468-2.527-2.525,0-3.992l1.996-2.116c2.452-4.356,3.153-5.799-1.996-1.876-.612,1.738-1.943,3.069-3.992,3.992-1.257,1.948-2.732,1.945-3.992,0-6.974.018-13.985-.013-20.959,0v3.992h-3.992v7.984h-7.984v-7.984h3.992v-3.992h3.992v-7.984h-3.992v3.992h-7.984v3.992h-3.992v3.992h-3.992v-7.984h3.992c.036-1.321-.057-2.673,0-3.992.306-1.59,1.637-2.921,3.992-3.992,2.546-2.743,5.422-2.705,7.984,0l3.992-3.992,3.992-3.992c1.043-1.78,2.374-3.111,3.992-3.992,1.794-2.508,3.193-2.5,4.99,0,1.189-1.693,2.519-3.024,3.992-3.992-2.921-.002-2.797-3.335,0-3.992,5.193-.757,7.095-2.753,5.707-5.988-6.946,1.2-10.844-.171-11.695-4.112-5.118.469-10.169.094-14.971-1.876,1.941,1.261,1.944,2.734,0,3.992-2.272,4.463-3.74,6.779-9.981,6.108l-.024,1.473c-2.676,2.135-4.665,4.931-5.965,8.388q-1.584,1.584,0,0c2.547-2.746,5.42-2.706,7.984,0,1.042-1.781,2.373-3.112,3.992-3.992,2.112-1.873,2.998-4.535,2.657-7.986l1.335-3.99c.935-3.909,6.262-2.201,6.108,1.996,5.192.479,4.846,6.169,1.876,9.981,1.953,1.258,1.952,2.734,0,3.992-1.469,2.521-2.523,2.517-3.992,0l-3.992,3.992c-1.469,2.521-2.523,2.518-3.992,0-1.323.028-2.669-.018-3.992,0-.018,1.323.028,2.67,0,3.992-2.651.019-5.333-.013-7.984,0v7.984h-3.992v3.992h-3.992v-3.992h-7.984v-3.992h-11.977v-3.992h-7.984v-3.992h-3.992v-3.992h-3.992v-3.992h3.992c.018-1.323-.028-2.67,0-3.992h-3.992c-2.921-.002-2.797-3.335,0-3.992-1.258,1.941-2.732,1.938-3.992,0,2.517,1.469,2.52,2.523,0,3.992-.021,3.98.015,7.997,0,11.977h-15.969v-3.992h-3.992v3.992h-36.928v-3.992h-11.977v-3.992h-3.992v3.992h-23.953v3.992h-3.992v-3.992h-3.992v3.992c-1.927-.386-3.828,1.382-3.992-1.497-.267-4.676-.013-9.748,0-14.472l1.061-1.996c5.705,1.349,7.4-3.315,2.09-4.681l-1.155-2.071c.499-2.516-.166-.93-1.996,4.756-1.928-.385-3.828,1.382-3.992-1.497-.487-8.537.025-17.816,0-26.448Z"/>
      <path class="j" d="M108.788,84.871c1.827-5.172,9.373.246,3.992,3.992-.002,2.921-3.335,2.797-3.992,0-2.921-.002-2.797-3.335,0-3.992Z"/>
      <path class="j" d="M136.733,96.848c4.772,3.441-.551,8.764-3.992,3.992,1.945,1.258,1.944,2.732,0,3.992-1.468,2.52-2.525,2.526-3.992,0-2.921-.002-2.797-3.335,0-3.992,1.322-.028,2.67.028,3.992,0-.004-1.323.009-2.669,0-3.992.002-2.921,3.335-2.797,3.992,0Z"/>
      <path class="j" d="M132.741,104.832c7.945-6.902,8.069,10.822,0,3.992-1.944-1.259-1.943-2.733,0-3.992Z"/>
      <path class="j" d="M96.811,55.928c-.052-3.14,4.468-2.532,5.735-.065l.251,15.004c1.233-.089,1.752.92,1.999,2.027-5.752-9.62,1.304-20.32,6.108-9.981,5.389.089,5.402,7.878-.12,8.104.272,3.946-4.77,5.666-5.988,1.876l1.952,5.093c-.906.908-.226,1.872,2.04,2.892,2.921.002,2.797,3.335,0,3.992-1.021,1.439-1.916,3.05-2.685,4.833-5.396,1.693-4.695,6.597,1.388,5.173l1.297,1.97c.002-2.921,3.335-2.797,3.992,0,1.35,4.589,2.519,9.256,1.583,13.973l4.405-.12c.476-5.185,6.155-4.852,9.981-1.876,1.469-2.522,2.523-2.518,3.992,0,1.945,1.259,1.945,2.733,0,3.992-1.56,1.638-2.836,3.504-3.829,5.598l-6.152.51c-.225,3.248-2.887,4.597-7.984,4.049.978,7.316-2.873,10.376-9.981,5.812-1.414-4.858-2.074-5.73-5.727-7.898.237-3.335-.516-6.025-2.258-8.071-2.517-1.469-2.521-2.523,0-3.992,3.382-1.678,6.709-2.206,9.981-1.583.85-3.944-.48-5.372-3.992-4.286-.123,4.116-3.841,5.395-5.988,1.876-.958-3.176-2.288-5.837-3.992-7.984v-3.992c.752-1.519.752-2.85,0-3.992v-7.984c-3.058-.401-2.916-7.322,0-7.984,2.429-.245,2.405-9.569,1.876-9.981-7.689-.64-2.846-14.084,2.116-6.986Z"/>
      <path class="f" d="M104.795,19.998c-.028,1.322.028,2.67,0,3.992-1.321-.01-2.672-.028-3.992,0v-3.992h3.992Z"/>
      <path class="f" d="M104.795,23.99c2.651.019,5.333-.013,7.984,0v3.992c1.321.036,2.673-.057,3.992,0,.057-1.319-.036-2.671,0-3.992h7.984c.018,1.322-.028,2.67,0,3.992,1.971,1.257,1.971,2.735,0,3.992-2.304,5.438-6.012-.344-7.984-3.992,6.425,6.488-4.368,6.381-9.354,5.988l-2.622,1.996c3.785,4.895-.75,8.57-3.992,3.992,2.539,1.463,2.543,2.53,0,3.992-.002,2.921-3.335,2.797-3.992,0,2.513,1.471,2.516,2.522,0,3.992,3.057.402,2.92,7.324,0,7.984-.944,0-3.851-.141-3.992,0v4.99h3.992v11.977c-1.322.022-2.671-.034-3.992,0-1.463,2.54-2.528,2.533-3.992,0-.01-1.325.008-2.667,0-3.992.752-1.519.752-2.85,0-3.992-.028-1.322.018-2.67,0-3.992h-3.992v-8.982c1.468-2.526,2.524-2.52,3.992,0l1.996-2.172c-1.071-5.066,2.189-11.48,5.988-5.812-4.96-3.497,1.056-8.945,3.992-3.992-1.947-2.623-1.954-5.365,0-7.984-2.921-.002-2.797-3.335,0-3.992,1.322-.028,2.67.018,3.992,0,.018-1.323-.028-2.67,0-3.992Z"/>
      <path class="d" d="M96.811,31.974c0-2.921,3.333-2.795,3.992,0,0,2.652.016,5.333,0,7.984-1.319.057-2.671-.036-3.992,0-.018,1.322.028,2.67,0,3.992-.944,0-3.851-.141-3.992,0v7.984c-1.323.022-2.67-.034-3.992,0-2.921-.002-2.797-3.335,0-3.992-1.948-1.26-1.95-2.735,0-3.992.02-2.651-.014-5.333,0-7.984h3.992c.036-1.321-.057-2.673,0-3.992,0-2.921,3.333-2.794,3.992,0Z"/>
      <path class="f" d="M96.811,108.824c-.008,1.322.028,2.67,0,3.992,1.322.028,2.67-.018,3.992,0v7.984h3.992c.012,2.651-.018,5.333,0,7.984,2.651-.02,5.333.014,7.984,0v-7.984h7.984v-3.992h7.984c-.397-4.555-.224-4.297,3.992-3.992,1.958,2.622,1.962,5.365,0,7.984,1.944,1.26,1.947,2.735,0,3.992,1.458-2.539,2.533-2.535,3.992,0-2.92-.002-2.797-3.336,0-3.992.002-2.921,3.335-2.797,3.992,0,2.52,1.468,2.526,2.525,0,3.992-1.325.005-2.667-.008-3.992,0,0,1.322-.028,2.671,0,3.992-.002,2.921-3.335,2.797-3.992,0-2.517-1.469-2.521-2.523,0-3.992-.688,3.004-4.171,3.624-3.239,2.061.304-.509,3.564.123,3.239,1.932,6.459,6.265-6.339,8.022-9.981,4.085l-.296,15.769c-1.235,2.812-4.246,2.88-5.692.107-3.42-1.565-5.456-3.561-6.108-5.988-2.381-.284-4.337-2.28-5.869-5.988-1.964-2.617-1.95-5.359,0-7.984-1.257,1.95-2.732,1.948-3.992,0-1.688-1.04-3.019-2.371-3.992-3.992-1.319-.057-2.671.036-3.992,0-.013-2.652.019-5.333,0-7.984h3.992c.018-1.322-.028-2.67,0-3.992-1.319-.028-2.673-.028-3.992,0v-3.992c1.26-1.938,2.733-1.938,3.992,0Z"/>
      <path class="f" d="M104.795,136.77c2.521,1.469,2.517,2.523,0,3.992-1.322.022-2.671-.034-3.992,0v-3.992c1.464-2.533,2.529-2.54,3.992,0Z"/>
      <path class="f" d="M92.819,96.848c1.322.028,2.67-.018,3.992,0,.013,2.651-.019,5.333,0,7.984-1.465,2.533-2.526,2.527-3.992,0-1.042,1.781-2.373,3.112-3.992,3.992-1.322-.028-2.67.018-3.992,0v-7.984h3.992v-3.992c1.322.028,2.67-.028,3.992,0Z"/>
      <path class="f" d="M11.977,370.314c.018-2.651-.012-5.333,0-7.984h3.992v3.992h3.992v7.984h-7.984c.004-1.323-.009-2.669,0-3.992Z"/>
      <path class="f" d="M112.78,16.006c2.651.019,5.333-.013,7.984,0v3.992c-3.468-.141-7.008.198-10.48,0-2.879-.164-1.111-2.066-1.497-3.992,1.321-.028,2.671-.01,3.992,0Z"/>
      <path class="d" d="M104.795,406.243c2.921.002,2.797,3.335,0,3.992-3.982-.013-7.995.009-11.977,0v-3.992c3.98.012,7.996.003,11.977,0Z"/>
      <path class="f" d="M192.624,19.998h3.992c.032,2.65-.046,5.335,0,7.984h-3.992c-.032-2.651.046-5.334,0-7.984Z"/>
      <path class="e" d="M180.647,23.99c1.319.057,2.672-.036,3.992,0v3.992c-1.323.015-2.67-.023-3.992,0-.028-1.321.008-2.67,0-3.992Z"/>
      <path class="e" d="M176.655,12.013c.028,1.322-.01,2.67,0,3.992h3.992c-.046,2.647-.016,5.337,0,7.984-1.319-.057-2.672.036-3.992,0-.013-2.651.019-5.333,0-7.984-1.323,0-2.669-.01-3.992,0-.057,1.319.036,2.671,0,3.992h-7.984v-3.992c2.651-.014,5.333.02,7.984,0,.057-1.319-.036-2.671,0-3.992h3.992Z"/>
      <path class="g" d="M112.78,406.243c2.921.002,2.797,3.335,0,3.992-2.653-.003-5.332.009-7.984,0v-3.992c2.653-.002,5.331.004,7.984,0Z"/>
      <path class="f" d="M120.764,406.243c2.921.002,2.797,3.335,0,3.992-2.653-.008-5.332.003-7.984,0v-3.992c2.651-.004,5.334.016,7.984,0Z"/>
      <path class="f" d="M213.583,84.871c.028,1.322,0,2.67,0,3.992h-3.992c-.141-.141,0-3.048,0-3.992h3.992Z"/>
      <path class="f" d="M209.591,80.879v3.992c-1.301,0-7.702.282-7.984,0-.015-1.322.023-2.67,0-3.992,2.651.032,5.334-.046,7.984,0Z"/>
      <path class="d" d="M3.992,277.495h3.992v7.984h-3.992c-.009-2.652.004-5.332,0-7.984Z"/>
      <path class="d" d="M92.819,72.894v7.984h-3.992c-.013-2.651.019-5.333,0-7.984,1.322-.022,2.671.034,3.992,0Z"/>
      <path class="h" d="M47.906,164.715v3.992c-2.65.032-5.334-.046-7.984,0v-3.992c2.651-.012,5.333.018,7.984,0Z"/>
      <path class="d" d="M116.772,148.746c1.322-.023,2.67.015,3.992,0v-19.961h3.992v3.992h7.984c.018-1.322-.028-2.67,0-3.992h3.992c.028,1.322-.018,2.67,0,3.992h3.992v3.992h7.984v3.992h7.984c.015,1.323-.023,2.67,0,3.992-2.65.046-5.334-.032-7.984,0v3.992h-3.992c-.015,1.323.023,2.67,0,3.992,3.979.024,7.997.024,11.977,0-.018,2.651.012,5.333,0,7.984h-3.992v3.992h-23.953c-.025-2.651.035-5.334,0-7.984,1.99-3.781,5.67-2.076,6.27,1.996h7.749c-.351-2.358.039-4.362,1.95-5.988-11.977,5.258-13.368-4.047-3.992-7.984-1.645,3.269-14.035,3.127-15.969,0,1.621-.127,2.125.526,2.116,1.996,5.196.479,4.843,6.161,1.876,9.981-1.319-.057-2.672.036-3.992,0v-3.992h-7.984c-.036-1.321.057-2.673,0-3.992-2.65.046-5.334-.032-7.984,0v-3.992h-3.992c-.018-1.322.028-2.67,0-3.992s.008-2.67,0-3.992c1.321.034,2.67-.022,3.992,0v3.992h3.992v3.992h3.992c.036,1.321-.057,2.673,0,3.992Z"/>
      <path class="d" d="M156.694,144.754c1.322-.023,2.67.015,3.992,0v-3.992h3.992v3.992h3.992v3.992h-3.992v3.992c-2.651.011-5.333-.016-7.984,0,.018-2.648.046-5.337,0-7.984Z"/>
      <path class="d" d="M96.811,124.793c1.319.057,2.671-.036,3.992,0,.018,1.323-.028,2.67,0,3.992,1.323,0,2.669.01,3.992,0,.018,2.651-.016,5.333,0,7.984-1.321-.034-2.67.022-3.992,0v-3.992c-2.516-1.471-2.513-2.522,0-3.992-.002,2.921-3.335,2.797-3.992,0-.034-1.322.022-2.669,0-3.992Z"/>
      <path class="d" d="M313.388,184.676h3.992c.016,1.655-.024,3.335,0,4.99h-3.992c-.022-1.654.033-3.336,0-4.99Z"/>
      <path class="f" d="M201.606,434.189v3.992h-4.99c-.018-1.323.028-2.67,0-3.992,1.655.011,3.335-.01,4.99,0Z"/>
      <path class="d" d="M67.867,156.731v3.992c-1.323.018-2.67-.028-3.992,0v-3.992c1.323-.017,2.67.026,3.992,0Z"/>
      <path class="d" d="M241.528,128.785c1.322.023,2.669-.015,3.992,0v3.992c-1.322-.023-2.669.015-3.992,0v-3.992Z"/>
      <path class="h" d="M293.427,156.731c1.322.023,2.669-.015,3.992,0v3.992c-1.319-.057-2.671.036-3.992,0v-3.992Z"/>
      <path class="d" d="M59.883,160.723v3.992c-1.323.015-2.67-.023-3.992,0v-3.992c1.323-.018,2.67.028,3.992,0Z"/>
      <path class="j" d="M100.803,128.785c.028,1.322,0,2.67,0,3.992h-3.992c-.022-1.323.034-2.67,0-3.992h3.992Z"/>
      <path class="h" d="M225.559,124.793c1.322.028,2.67-.018,3.992,0v3.992c-1.323-.007-2.67.028-3.992,0-2.921-.002-2.797-3.335,0-3.992Z"/>
      <path class="d" d="M317.38,193.659h3.992c.015,1.322-.023,2.67,0,3.992h-3.992c-.018-1.323.028-2.67,0-3.992Z"/>
      <path class="d" d="M19.961,201.643c-.023,1.322.015,2.669,0,3.992h-3.992c.057-1.319-.036-2.672,0-3.992h3.992Z"/>
      <path class="h" d="M11.977,241.565c-.023,1.322.015,2.67,0,3.992h-3.992c.023-1.322-.015-2.669,0-3.992h3.992Z"/>
      <path class="i" d="M334.347,241.565h3.992c.015,1.322-.023,2.67,0,3.992h-3.992c-.015-1.322.023-2.67,0-3.992Z"/>
      <path class="d" d="M7.984,257.534c-.023,1.322.015,2.669,0,3.992h-3.992c.023-1.322-.015-2.67,0-3.992h3.992Z"/>
      <path class="h" d="M3.992,269.51c-.004,1.325.002,2.667,0,3.992-1.323-.028-2.669.018-3.992,0v-3.992h3.992Z"/>
      <path class="d" d="M225.559,124.793v3.992c-1.322-.028-2.67.018-3.992,0v-3.992c1.322.007,2.671-.028,3.992,0Z"/>
      <path class="j" d="M92.819,112.817c0,1.323-.01,2.669,0,3.992-.944,0-3.851.141-3.992,0v-3.992c1.322-.018,2.67.028,3.992,0Z"/>
      <path class="g" d="M350.316,322.407h3.992c.015,1.323-.023,2.67,0,3.992h-3.992c-.015-1.322.023-2.67,0-3.992Z"/>
      <path class="f" d="M354.308,342.368h3.992c.015,1.322-.023,2.67,0,3.992h-3.992c-.015-1.323.023-2.67,0-3.992Z"/>
      <path class="j" d="M92.819,104.832c2.921.002,2.797,3.335,0,3.992-1.322-.008-2.67.028-3.992,0v-3.992c1.322-.018,2.67.028,3.992,0Z"/>
      <path class="j" d="M213.583,92.856c-.028,1.322.018,2.669,0,3.992h-3.992c.023-1.322-.015-2.67,0-3.992h3.992Z"/>
      <path class="j" d="M88.827,96.848c-1.322-.028-2.67.018-3.992,0v-3.992h3.992c.141.141,0,3.048,0,3.992Z"/>
      <rect class="f" x="92.819" y="88.863" width="3.992" height="3.992"/>
      <path class="j" d="M88.827,64.91h3.992v3.992h-3.992c-.008-1.323.028-2.67,0-3.992Z"/>
      <path class="j" d="M88.827,47.943v3.992c-1.322.034-2.67-.022-3.992,0,0-1.322-.028-2.671,0-3.992.002-2.921,3.335-2.797,3.992,0Z"/>
      <path class="f" d="M88.827,43.951c-.01,1.323,0,2.669,0,3.992h-3.992c.028-1.322-.018-2.67,0-3.992h3.992Z"/>
      <path class="d" d="M342.331,382.29v3.992c-1.323.015-2.67-.023-3.992,0v-3.992c1.322-.015,2.67.023,3.992,0Z"/>
      <path class="j" d="M96.811,27.982c2.921.002,2.797,3.335,0,3.992h-3.992c.057-1.319-.036-2.671,0-3.992,1.323-.018,2.67.028,3.992,0Z"/>
      <path class="f" d="M305.404,398.259v3.992c-1.323.015-2.67-.023-3.992,0v-3.992c1.323-.015,2.67.023,3.992,0Z"/>
      <path class="d" d="M63.875,402.251c1.322.023,2.67-.015,3.992,0v3.992c-1.322-.023-2.67.015-3.992,0v-3.992Z"/>
      <path class="e" d="M188.632,16.006v3.992h-3.992c-.036-1.32.057-2.674,0-3.992h3.992Z"/>
      <path class="d" d="M293.427,402.251v3.992c-1.322.015-2.67-.023-3.992,0v-3.992c1.323-.015,2.67.023,3.992,0Z"/>
      <path class="d" d="M124.756,406.243c0-.944-.141-3.851,0-3.992h3.992v3.992c-1.322.018-2.67-.028-3.992,0v3.992c-1.325-.002-2.667.004-3.992,0v-3.992c1.322-.008,2.671.028,3.992,0Z"/>
      <path class="d" d="M269.474,406.243v3.992c-1.323.015-2.67-.023-3.992,0v-3.992c1.322-.015,2.67.023,3.992,0Z"/>
      <path class="g" d="M160.686,414.228c1.318.057,2.672-.036,3.992,0v3.992c-1.323-.028-2.669.018-3.992,0v-3.992Z"/>
      <path class="d" d="M249.513,414.228c-.057,1.319.036,2.672,0,3.992h-3.992c.057-1.319-.036-2.671,0-3.992h3.992Z"/>
      <path class="d" d="M168.671,418.22c1.323.028,2.669-.018,3.992,0v3.992c-1.319-.057-2.671.036-3.992,0v-3.992Z"/>
      <path class="d" d="M180.647,426.204c1.319.057,2.671-.036,3.992,0v3.992c-1.322-.028-2.669.018-3.992,0v-3.992Z"/>
      <path class="e" d="M116.772,8.021v3.992h-3.992c0-.944-.141-3.851,0-3.992,1.321-.036,2.673.057,3.992,0Z"/>
      <path class="e" d="M156.694,4.029v3.992c1.319.057,2.671-.036,3.992,0,.141.141,0,3.048,0,3.992-.002,2.921-3.335,2.797-3.992,0v-3.992c-1.319-.057-2.671.036-3.992,0-.036-1.321.057-2.673,0-3.992h3.992Z"/>
      <path class="f" d="M132.741.037v3.992c-1.321-.028-2.671-.01-3.992,0V.037c1.323-.015,2.67.023,3.992,0Z"/>
      <path class="g" d="M205.598,434.189c1.322.028,2.669-.018,3.992,0v3.992c-1.322-.023-2.669.015-3.992,0v-3.992Z"/>
      <path class="d" d="M225.559,434.189v3.992c-1.323.015-2.67-.023-3.992,0v-3.992c1.321-.036,2.673.057,3.992,0Z"/>
      <path class="f" d="M325.365,273.503c-.682,5.17.528,4.056,4.99,3.992v3.992h3.992v19.961h3.992v11.977h3.992v8.982h3.992v3.992h-3.992v7.984h-7.984v7.984h-3.992v3.992h-4.99v3.992h-3.992v3.992h-7.984v3.992h-3.992v3.992h-11.977v3.992h-3.992v3.992h-11.977v3.992h-3.992v-3.992h-3.992v3.992c-2.65-.032-5.335.046-7.984,0-.057-1.319.036-2.671,0-3.992-1.323-.018-2.67.028-3.992,0s-2.67,0-3.992,0c0,2.921-3.333,2.794-3.992,0-.002,2.921-3.335,2.797-3.992,0-3.057-.402-2.92-7.324,0-7.984,1.322-.028,2.67.01,3.992,0,3.137-1.083,5.798-2.414,7.984-3.992,1.325-.009,2.667.009,3.992,0,2.963-.922,5.625-2.252,7.984-3.992,1.04-1.688,2.371-3.019,3.992-3.992,1.012-1.762,2.343-3.093,3.992-3.992,1.319-.057,2.671.036,3.992,0v-3.992h3.992v-3.992c1.321-.036,2.673.057,3.992,0,1.579-3.396,3.575-5.432,5.988-6.108l.024-1.473c3.482-2.599,7.018-5.419,1.131-7.081-.542-2.398-1.909-3.742-4.103-4.033-.447-3.09-1.741-4.74-3.881-4.949-.717-2.329-2.269-3.934-4.658-4.816l-.609-2.479c-3.293-.236-4.624-2.898-3.992-7.984-5.667-.649-4.793-9.842-1.876-13.973,1.042-1.781,2.373-3.112,3.992-3.992,2.65-.046,5.334.046,7.984,0,1.042-1.781,2.373-3.112,3.992-3.992,3.979-.069,7.998.069,11.977,0,1.042-1.781,2.373-3.112,3.992-3.992,3.976-.069,7.999.008,11.977,0Z"/>
      <path class="d" d="M55.891,273.503c1.322.023,2.67-.015,3.992,0,.015,1.322-.023,2.67,0,3.992,4.31.075,8.663-.054,12.975,0v7.984h3.992v15.969h-3.992v7.984h-4.99v8.982h-3.992v3.992h-7.984v3.992h3.992v7.984c-2.649-.046-5.334.032-7.984,0v-3.992h-3.992v-16.967h3.992v-3.992h3.992v-11.977h3.992c-.084-6.638.115-13.324,0-19.961-1.322-.023-2.67.015-3.992,0v-3.992Z"/>
      <path class="d" d="M285.442,281.487v3.992c-1.322.015-2.67-.023-3.992,0-.069,3.979.049,7.997,0,11.977h3.992v7.984h3.992v3.992h3.992v3.992h3.992v4.99h3.992v3.992h3.992v7.984h-3.992v3.992h-3.992v3.992c-1.321.036-2.673-.057-3.992,0,.305-4.216.562-4.389-3.992-3.992v-7.984h-3.992v-7.984h-3.992v-8.982h-3.992v-11.977h-3.992v-11.977c2.65-.032,5.335.046,7.984,0,.023-1.322-.015-2.669,0-3.992,1.323-.015,2.67.023,3.992,0Z"/>
      <path class="f" d="M156.694,350.353c2.65-.046,5.334.032,7.984,0v-3.992h7.984v3.992c2.651.012,5.333-.018,7.984,0,2.772,2.668,5.434,2.668,7.984,0,2.651.018,5.333-.012,7.984,0,.022,1.322-.034,2.671,0,3.992,1.65-.033,3.34-.033,4.99,0v3.992c-1.655-.005-3.335-.005-4.99,0-2.526-1.468-2.52-2.524,0-3.992-1.042,1.781-2.373,3.112-3.992,3.992-1.323.009-2.67-.028-3.992,0l-3.992,3.992c-.028,1.322.008,2.67,0,3.992-2.651-.016-5.333.011-7.984,0v-3.992h-7.984v3.992c-1.322.018-2.67-.028-3.992,0-.028,1.323.018,2.669,0,3.992h-3.992c-.141-.141,0-3.048,0-3.992,1.322-.009,2.671.028,3.992,0,.028-1.322,0-2.67,0-3.992v-3.992l1.996-2.116c-3.505.522-6.863-.115-9.981-1.876-2.921-.002-2.797-3.335,0-3.992Z"/>
      <path class="f" d="M233.544,370.314c4.473-2.77,9.869-3.296,9.981,2.116,2.22-.518,4.254.398,5.988,1.876,1.945,1.259,1.945,2.733,0,3.992-1.927.386-3.828-1.382-3.992,1.497-.198,3.472.141,7.011,0,10.48h-3.992v-3.992h-7.984v-3.992h-3.992v-3.992h-7.984v-3.992h-3.992c-.015-1.323.023-2.67,0-3.992,5.31.023,10.659-.032,15.969,0Z"/>
      <polygon class="d" points="116.772 164.715 112.78 164.715 112.78 156.731 116.772 156.731 116.772 160.723 120.764 160.723 120.764 168.707 124.756 168.707 124.756 180.684 128.749 180.684 128.749 189.666 120.764 189.666 120.764 180.684 116.772 180.684 116.772 164.715"/>
      <path class="d" d="M249.513,362.329v7.984c2.921.002,2.797,3.335,0,3.992-2.651-.019-5.334.013-7.984,0v-3.992c-2.651-.011-5.334.016-7.984,0,.386-1.927-1.382-3.828,1.497-3.992,3.472-.198,7.011.141,10.48,0v-3.992c1.322-.018,2.67.028,3.992,0Z"/>
      <path class="d" d="M152.702,354.345c1.456-2.538,2.535-2.533,3.992,0,3.981-.021,7.996.015,11.977,0v3.992c-1.323.015-2.67-.023-3.992,0-2.65.046-5.334-.032-7.984,0v3.992h-3.992v-3.992h-3.992v-3.992c1.323-.018,2.67.028,3.992,0Z"/>
      <path class="f" d="M136.733,92.856c.028-1.322-.018-2.67,0-3.992h7.984c.015,1.323-.023,2.67,0,3.992,1.322.008,2.671-.028,3.992,0-.115,6.633,0,13.326,0,19.961,1.301,0,7.702-.282,7.984,0,.032,2.65-.046,5.335,0,7.984h-3.992c-.002,2.921-3.335,2.797-3.992,0-3.034-.373-2.942-7.292,0-7.984-.002,2.921-3.335,2.797-3.992,0-2.627-6.591-2.627-13.37,0-19.961-2.622,1.945-5.364,1.948-7.984,0,2.527,1.466,2.533,2.527,0,3.992h-3.992c-.009-1.322.028-2.67,0-3.992,1.323-.009,2.67.004,3.992,0Z"/>
      <path class="d" d="M160.686,273.503c.028-1.322-.018-2.669,0-3.992h7.984v7.984c-1.323.018-2.67-.028-3.992,0v-3.992c-.141-.141-3.048,0-3.992,0Z"/>
      <path class="d" d="M164.678,277.495c0,.944.141,3.851,0,3.992h-3.992c-.018-1.323.028-2.67,0-3.992,1.319.028,2.673.028,3.992,0Z"/>
      <path class="d" d="M160.686,273.503c-.028,1.319-.028,2.673,0,3.992-1.322-.028-2.669.018-3.992,0v-3.992c.141-.141,3.048,0,3.992,0Z"/>
      <path class="d" d="M148.71,120.801h3.992v3.992c-3.981.01-7.996-.014-11.977,0,.022-1.322-.034-2.671,0-3.992.402-3.057,7.324-2.92,7.984,0Z"/>
      <path class="g" d="M205.598,358.337c2.533,1.465,2.527,2.526,0,3.992.826-1.74,2.157-3.071,3.992-3.992,1.322.028,2.67-.018,3.992,0v3.992c0,.944.141,3.851,0,3.992h-7.984c-.018-1.323.028-2.67,0-3.992h-3.992c-.141-.141,0-3.048,0-3.992,1.323.004,2.669-.009,3.992,0Z"/>
      <path class="d" d="M261.489,358.337v3.992c-2.651.013-5.333-.019-7.984,0v-3.992c2.651-.012,5.333.018,7.984,0Z"/>
      <path class="d" d="M112.78,358.337c2.651.035,5.334-.025,7.984,0v3.992c-2.651-.018-5.333.012-7.984,0v-3.992Z"/>
      <path class="d" d="M281.45,346.36v3.992c-1.321.036-2.673-.057-3.992,0-.057,1.319.036,2.671,0,3.992-1.323.015-2.67-.023-3.992,0-.057,1.319.036,2.671,0,3.992-2.651.012-5.333-.018-7.984,0v-3.992c2.651-.032,5.334.046,7.984,0,.057-1.319-.036-2.671,0-3.992,1.321-.036,2.673.057,3.992,0,.057-1.319-.036-2.671,0-3.992,1.321-.036,2.673.057,3.992,0Z"/>
      <path class="d" d="M132.741,362.329c2.651.018,5.333-.012,7.984,0v3.992c-2.651.005-5.334-.016-7.984,0-2.921-.002-2.797-3.335,0-3.992Z"/>
      <path class="d" d="M188.632,350.353v3.992h-7.984v-3.992c2.651.018,5.333-.018,7.984,0Z"/>
      <path class="d" d="M35.93,269.51c2.651.016,5.334-.011,7.984,0v3.992c-2.651-.016-5.334.011-7.984,0v-3.992Z"/>
      <rect class="d" x="201.606" y="164.715" width="3.992" height="3.992"/>
      <path class="d" d="M11.977,269.51v3.992c-1.323.018-2.67-.028-3.992,0v-3.992c1.322-.015,2.67.023,3.992,0Z"/>
      <path class="g" d="M313.388,273.503v3.992c-1.323.015-2.67-.023-3.992,0v-3.992c1.322-.015,2.67.023,3.992,0Z"/>
      <path class="d" d="M297.419,277.495v3.992c-1.323.015-2.67-.023-3.992,0v-3.992c1.323-.015,2.67.023,3.992,0Z"/>
      <path class="d" d="M80.842,342.368c1.322.023,2.67-.015,3.992,0v3.992c-1.323-.028-2.669.018-3.992,0v-3.992Z"/>
      <path class="d" d="M88.827,346.36c1.323.028,2.669-.018,3.992,0v3.992c-1.319-.057-2.671.036-3.992,0v-3.992Z"/>
      <path class="j" d="M156.694,350.353v3.992c-1.323.007-2.67-.028-3.992,0v-3.992c1.323-.015,2.67.023,3.992,0Z"/>
      <path class="k" d="M209.591,358.337v3.992c-.141.141-3.048,0-3.992,0-.028-1.322.028-2.67,0-3.992,1.323.009,2.67-.028,3.992,0Z"/>
      <path class="k" d="M132.741,362.329v3.992c-1.322.008-2.671-.028-3.992,0v-3.992c1.323.004,2.669-.009,3.992,0Z"/>
      <path class="j" d="M152.702,366.321v3.992h-3.992v-3.992c1.325-.002,2.667.002,3.992,0Z"/>
      <path class="g" d="M128.749,366.321v3.992c-1.467,2.526-2.524,2.52-3.992,0,.028-1.322-.018-2.67,0-3.992,1.322-.018,2.67.028,3.992,0Z"/>
      <path class="f" d="M160.686,27.982c.034-1.321-.022-2.67,0-3.992h11.977v3.992c2.65-.032,5.335.046,7.984,0,.028,1.322-.018,2.67,0,3.992h3.992v3.992h7.984v19.961h-3.992v12.975h7.984v23.953h4.99c.015,1.322-.023,2.67,0,3.992,2.746,2.545,2.715,5.426,0,7.984-5.64.098-11.326-.071-16.967,0v-7.984h3.992v-3.992h3.992v-11.977h-3.992v-3.992h-3.992v3.992h-3.992v-3.992c-3.982-.01-7.995.014-11.977,0-1.259,1.938-2.732,1.937-3.992,0v-3.992c-3.982-.01-7.995.014-11.977,0,0,.944.141,3.851,0,3.992-3.982.009-7.995-.013-11.977,0,0,.944.141,3.851,0,3.992h-3.992v3.992h-3.992v-3.992h-2.495l-1.497-3.992c3.957-1.962,8.016-1.953,11.977,0-2.921-.002-2.797-3.335,0-3.992,2.621-1.963,5.363-1.963,7.984,0,1.26-1.944,2.734-1.946,3.992,0-2.921-.002-2.797-3.335,0-3.992,1.462-2.542,2.529-2.538,3.992,0,1.939-1.396,3.887-2.054,5.843-1.976l.164-14.499c.581-1.907,2.132-2.522,3.973-2.607-.167-4.79,6.557-5.461,7.957-1.113.903-3.224,4.945-4.232,6.015-.764,2.516,1.471,2.513,2.522,0,3.992,4.106,2.054,2.114,3.515,2.09,2.665-.037-1.319.633-1.984,1.902-2.665-2.702-2.565-2.736-5.435,0-7.984,3.725-3.236-1.475-2.609-3.992,0-5.152,5.303-6.474-1.247-6.108-5.988-2.605.291-4.122-1.572-3.873-4.112-2.216.52-4.283-.412-5.988-1.876-1.261,1.94-2.735,1.943-3.992,0-2.529-1.46-2.535-2.534,0-3.992Z"/>
      <path class="e" d="M148.71,92.856c.023-1.322-.015-2.67,0-3.992h3.992v-3.992h23.953v7.984h-11.977v-3.992h-3.992v7.984h-7.984v-3.992c-1.322-.018-2.671.028-3.992,0Z"/>
      <polygon class="f" points="172.663 104.832 172.663 112.817 168.671 112.817 168.671 116.809 160.686 116.809 160.686 104.832 172.663 104.832"/>
      <path class="e" d="M116.772,88.863c2.357,0,15.404-.565,15.969,0,.018,1.322-.028,2.67,0,3.992-2.651.018-5.334-.012-7.984,0v3.992h-7.984c-1.762-1.011-3.093-2.342-3.992-3.992-2.521-1.469-2.517-2.523,0-3.992.002-2.921,3.335-2.797,3.992,0Z"/>
      <path class="j" d="M140.725,72.894v3.992c-3.981.013-7.996-.007-11.977,0-1.325.002-2.667-.004-3.992,0-6.631-6.893,7.349-7.284,15.969-3.992Z"/>
      <path class="e" d="M164.678,76.887c1.323-.009,2.67-.005,3.992,0-.386,1.927,1.382,3.828-1.497,3.992-3.472.198-7.012-.141-10.48,0v-3.992c2.651-.012,5.334.018,7.984,0Z"/>
      <path class="f" d="M124.756,76.887c-.057,1.319.036,2.672,0,3.992-2.651.013-5.334-.019-7.984,0v7.984h-3.992c-.028-1.322.018-2.67,0-3.992-.141-.141-3.048,0-3.992,0v-3.992c1.469-2.517,2.523-2.521,3.992,0,1.259-1.936,2.733-1.936,3.992,0-2.921-.002-2.797-3.335,0-3.992,2.743-2.516,5.202-2.515,7.984,0Z"/>
      <path class="f" d="M108.788,84.871v3.992c3.057.402,2.92,7.324,0,7.984-1.301,0-7.702.282-7.984,0v-7.984h3.992v-3.992h3.992Z"/>
      <path class="e" d="M201.606,96.848h3.992v7.984c-1.322.015-2.67-.023-3.992,0-.032-2.65.046-5.335,0-7.984Z"/>
      <path class="f" d="M205.598,378.298v3.992c-.612,1.738-1.942,3.069-3.992,3.992-1.654.033-3.336-.009-4.99,0-1.257,1.945-2.731,1.941-3.992,0,2.535,1.459,2.539,2.534,0,3.992-1.456,2.537-2.535,2.532-3.992,0,2.536,1.454,2.539,2.539,0,3.992-1.457,2.537-2.535,2.533-3.992,0,2.916.002,2.797,3.337,0,3.992-2.65.046-5.335-.046-7.984,0-.028,1.323.018,2.669,0,3.992h-3.992c.057-1.319-.036-2.671,0-3.992,1.323-.015,2.67.023,3.992,0,.028-1.323-.028-2.67,0-3.992,1.323-.01,2.669.005,3.992,0,1.258-1.944,2.732-1.941,3.992,0-2.538-1.456-2.541-2.537,0-3.992,1.257-1.946,2.731-1.942,3.992,0-2.916-.002-2.797-3.337,0-3.992,1.322-.028,2.669.009,3.992,0,.008-1.323.01-2.67,0-3.992,2.006-5.862,7.006-8.1,12.975-3.992Z"/>
      <path class="f" d="M221.567,406.243c.028-1.322-.018-2.67,0-3.992h7.984v3.992h-3.992v3.992c-1.322.018-2.67-.028-3.992,0-.018,1.322.028,2.67,0,3.992-2.65.009-5.335-.046-7.984,0,.034-1.322-.022-2.67,0-3.992,1.323-.003,2.669.008,3.992,0,1.469-2.521,2.523-2.517,3.992,0-2.531-1.463-2.536-2.531,0-3.992Z"/>
      <path class="i" d="M124.756,374.306v3.992h-3.992c.007-1.322-.028-2.671,0-3.992,1.323-.01,2.669,0,3.992,0Z"/>
      <rect class="d" x="120.764" y="394.267" width="3.992" height="3.992"/>
      <path class="j" d="M213.583,414.228c-.034,1.322.022,2.67,0,3.992-1.323.018-2.67-.028-3.992,0,.057-1.319-.036-2.671,0-3.992,1.323-.015,2.67.023,3.992,0Z"/>
      <path class="f" d="M209.591,418.22c-.057,1.319.036,2.671,0,3.992h-3.992v-3.992c1.322-.028,2.67.028,3.992,0Z"/>
      <path class="f" d="M245.52,402.251c1.323.023,2.669-.015,3.992,0v3.992c-1.323.018-2.67-.028-3.992,0s-2.67,0-3.992,0c-.002,2.921-3.335,2.797-3.992,0,0-.944-.141-3.851,0-3.992,2.651.032,5.334-.046,7.984,0Z"/>
      <path class="f" d="M269.474,382.29h3.992c.141.141,0,3.048,0,3.992v3.992h-3.992c-.032-2.651.046-5.334,0-7.984Z"/>
      <path class="d" d="M265.481,394.267c-1.323-.023-2.669.015-3.992,0v-3.992h3.992c.036,1.321-.057,2.673,0,3.992,2.65.046,5.334-.032,7.984,0v3.992h-7.984c-.036-1.321.057-2.673,0-3.992Z"/>
      <path class="k" d="M253.505,374.306v7.984c-1.468,2.52-2.524,2.526-3.992,0,.005-1.325-.003-2.667,0-3.992s0-2.667,0-3.992c1.258-1.929,2.73-1.925,3.992,0Z"/>
      <path class="d" d="M257.497,370.314v3.992c-1.322.018-2.67-.028-3.992,0-2.921-.002-2.797-3.335,0-3.992h3.992Z"/>
      <path class="f" d="M253.505,382.29c2.921.002,2.797,3.335,0,3.992h-3.992c.01-1.323-.005-2.669,0-3.992,1.323.022,2.67-.034,3.992,0Z"/>
      <path class="d" d="M253.505,382.29c1.322.034,2.669-.022,3.992,0v3.992c-.141.141-3.048,0-3.992,0v-3.992Z"/>
      <path class="f" d="M241.528,414.228c0,1.323.009,2.669,0,3.992-.002,2.921-3.335,2.797-3.992,0-2.54-1.463-2.533-2.528,0-3.992h3.992Z"/>
      <path class="d" d="M241.528,418.22c-.009,1.323.028,2.67,0,3.992-.944,0-3.851.141-3.992,0-.022-1.323.034-2.67,0-3.992h3.992Z"/>
      <path class="f" d="M128.749,27.982c.057-1.319-.036-2.672,0-3.992h27.945c.022,1.322-.034,2.671,0,3.992,2.535,1.458,2.529,2.533,0,3.992-1.26,1.942-2.734,1.945-3.992,0-1.26,1.945-2.735,1.948-3.992,0-2.36-1.74-5.021-3.071-7.984-3.992-3.961,1.943-8.02,1.955-11.977,0Z"/>
      <path class="e" d="M132.741,4.029c1.322.028,2.669-.018,3.992,0v7.984c-1.323.018-2.67-.028-3.992,0,.008,1.323-.028,2.67,0,3.992-1.322-.028-2.67,0-3.992,0-.034,1.322.022,2.67,0,3.992h-3.992v-3.992c0-2.921,3.333-2.794,3.992,0-2.52-1.468-2.526-2.525,0-3.992,1.322-.028,2.67.028,3.992,0-.016-2.651,0-5.333,0-7.984Z"/>
      <path class="f" d="M156.694,12.013h3.992v3.992c-2.651.013-5.333-.019-7.984,0-2.91-.003-2.796-3.341,0-3.992,1.321-.028,2.67,0,3.992,0Z"/>
      <path class="e" d="M144.717,8.021c-.046,2.644-.046,5.341,0,7.984,1.322.028,2.67-.008,3.992,0,.057-1.319-.036-2.671,0-3.992,1.323-.018,2.67.028,3.992,0v3.992c-1.323.01-2.67.008-3.992,0-.057,1.319.036,2.671,0,3.992h-3.992c-.015-1.323.023-2.67,0-3.992-1.322-.028-2.67.018-3.992,0v-7.984c1.321-.036,2.673.057,3.992,0Z"/>
      <path class="j" d="M160.686,27.982c-.034,1.321.022,2.67,0,3.992-1.26,1.943-2.734,1.945-3.992,0-.022-1.322.034-2.671,0-3.992h3.992Z"/>
      <path class="j" d="M116.772,27.982c1.319.057,2.672-.036,3.992,0v3.992h3.992c.028-1.319.028-2.673,0-3.992h3.992c5.414,3.162-1.645,9.383-3.992,3.992,3.831,4.854.505,6.89-9.981,6.108-1.285,6.81-9.692,4.435-9.981-2.116.057-1.319-.036-2.671,0-3.992h11.977c.036-1.321-.057-2.673,0-3.992Z"/>
      <path class="f" d="M132.741,16.006c1.322.028,2.669-.018,3.992,0v3.992h-3.992c-.018-1.323.028-2.67,0-3.992Z"/>
      <path class="f" d="M128.749,12.013c-.022,1.322.034,2.67,0,3.992h-3.992c0-.944-.141-3.851,0-3.992,1.323-.018,2.67.028,3.992,0Z"/>
      <path class="f" d="M144.717,8.021c.023-1.322-.015-2.669,0-3.992h3.992v3.992c-1.321.036-2.673-.057-3.992,0Z"/>
      <path class="k" d="M140.725,27.982c2.062,1.457,4.723,2.788,7.984,3.992,1.545,1.48,2.331,1.062,3.992,0,1.325.005,2.667-.005,3.992,0s2.667-.005,3.992,0,2.669-.01,3.992,0c3.504,1.604,3.342,14.401-1.996,14.149.831,4.817-.499,7.495-3.992,8.034l.12,4.765c6.837,1.319,4.409,9.558-2.116,9.981-1.323.01-2.67-.028-3.992,0-1.042,1.781-2.373,3.112-3.992,3.992-2.651-.005-5.333-.005-7.984,0-5.312.011-10.657-.008-15.969,0-.036,1.321.057,2.673,0,3.992-2.65.008-5.336-.046-7.984,0-1.042,1.781-2.373,3.112-3.992,3.992-1.322-.008-2.671.028-3.992,0s-2.67.018-3.992,0c-.011-2.651.016-5.334,0-7.984h3.992v-3.992h3.992v-3.992h-3.992v-3.992h-3.992c.017,3.98-.024,7.996,0,11.977-.944,0-3.851.141-3.992,0v-16.967h-3.992v-7.984c.306-1.59,1.637-2.921,3.992-3.992.028-1.322-.008-2.669,0-3.992,1.319-.057,2.671.036,3.992,0,.036-1.321-.057-2.673,0-3.992l3.992,3.992h3.992v-3.992h11.977c.018-1.322-.028-2.67,0-3.992.944,0,3.851.141,3.992,0,.036-1.321-.057-2.673,0-3.992,3.98,0,7.996-.024,11.977,0Z"/>
      <path class="k" d="M132.741,104.832c.002,1.325-.002,2.667,0,3.992-1.322.028-2.67-.01-3.992,0-2.921-.002-2.797-3.335,0-3.992,1.322.022,2.671-.034,3.992,0Z"/>
      <path class="k" d="M144.717,92.856c.115,6.619.115,13.342,0,19.961,3.574,2.419,2.244,5.08-3.992,7.984h-3.992c.002,2.92-3.334,2.792-3.992,0,.008-2.653-.003-5.331,0-7.984.002-1.325.002-2.667,0-3.992,1.322-.028,2.67.018,3.992,0v-3.992c-1.322-.022-2.671.034-3.992,0-.002-1.325.004-2.667,0-3.992,1.322-.028,2.67.018,3.992,0,.018-1.323-.028-2.67,0-3.992s-.028-2.67,0-3.992c2.65-.009,5.334-.016,7.984,0Z"/>
      <path class="f" d="M112.78,92.856h3.992c.036,1.321-.057,2.673,0,3.992s-.036,2.671,0,3.992h3.992v3.992h3.992v-3.992c1.323-.018,2.67.028,3.992,0v7.984c-2.651.019-5.333-.013-7.984,0v3.992h-7.984c-.01-5.312.014-10.657,0-15.969-1.943-1.258-1.941-2.732,0-3.992Z"/>
      <path class="k" d="M96.811,104.832c1.322-.028,2.67.018,3.992,0v-3.992h7.984v7.984c-3.981.01-7.996-.014-11.977,0-1.936-1.259-1.936-2.733,0-3.992Z"/>
      <path class="d" d="M112.78,88.863c.028,1.322-.008,2.67,0,3.992s-.003,2.669,0,3.992h-3.992v-7.984h3.992Z"/>
      <path class="g" d="M233.544,414.228h3.992c.022,1.323-.034,2.67,0,3.992h-3.992c-.002,2.921-3.335,2.797-3.992,0-.028-1.319-.028-2.673,0-3.992h3.992Z"/>
      <path class="g" d="M196.616,426.204c1.654-.033,3.336.022,4.99,0v3.992c-1.654.034-3.336-.023-4.99,0,0-1.323-.028-2.67,0-3.992Z"/>
      <path class="d" d="M233.544,418.22v3.992h-3.992c-.018-1.323.028-2.67,0-3.992h3.992Z"/>
      <path class="j" d="M100.803,43.951c-.028,1.322.018,2.669,0,3.992h-3.992c0-1.322-.028-2.671,0-3.992h3.992Z"/>
      <path class="e" d="M100.803,27.982v3.992h-3.992v-3.992c1.322-.028,2.67.028,3.992,0Z"/>
      <path class="d" d="M96.811,104.832c.01,1.323.008,2.67,0,3.992-1.323.005-2.669.008-3.992,0v-3.992c1.322-.028,2.67.028,3.992,0Z"/>
      <path class="j" d="M253.505,370.314v3.992c-1.321.028-2.671.01-3.992,0v-3.992h3.992Z"/>
      <path class="e" d="M184.639,366.321c5.643.034,11.324-.024,16.967,0v3.992h11.977v7.984c-2.651.012-5.334-.017-7.984,0-2.983.019-5.999-.014-8.982,0v2.495l-3.992,1.497c-.019-2.651.013-5.333,0-7.984h-3.992v-3.992c-.141-.141-3.048,0-3.992,0,.005-1.325-.008-2.667,0-3.992Z"/>
      <path class="f" d="M217.575,390.275c.057-1.319-.036-2.671,0-3.992h3.992v3.992c-1.323.015-2.67-.023-3.992,0-.057,1.319.036,2.671,0,3.992h-3.992v3.992c-1.323.018-2.67-.028-3.992,0-1.456,2.537-2.535,2.532-3.992,0,2.921.002,2.797,3.335,0,3.992-1.322.028-2.669-.009-3.992,0-2.527-1.466-2.533-2.527,0-3.992,1.255-1.953,2.73-1.946,3.992,0-2.916-.002-2.797-3.337,0-3.992,1.319-.057,2.671.036,3.992,0v-3.992c2.651-.032,5.334.046,7.984,0Z"/>
      <path class="k" d="M205.598,394.267v3.992c-1.323.009-2.669-.019-3.992,0-.028,1.322.028,2.67,0,3.992-1.794,2.509-3.193,2.5-4.99,0,.034-1.322-.022-2.67,0-3.992,1.655-.016,3.336.024,4.99,0,.028-1.322-.018-2.669,0-3.992,1.321-.036,2.673.057,3.992,0Z"/>
      <path class="g" d="M201.606,402.251c-.028,1.322.018,2.669,0,3.992-1.655-.022-3.336.033-4.99,0-2.531-1.462-2.537-2.532,0-3.992,1.654-.033,3.336.011,4.99,0Z"/>
      <path class="g" d="M196.616,354.345c.034,1.322-.022,2.67,0,3.992-1.323.004-2.669-.009-3.992,0v-3.992c1.323-.017,2.67.026,3.992,0Z"/>
      <path class="g" d="M188.632,358.337v3.992h-3.992c.028-1.322-.018-2.67,0-3.992,1.323-.018,2.67.028,3.992,0Z"/>
      <path class="g" d="M205.598,382.29c0,.944.141,3.851,0,3.992-1.323.017-2.67-.026-3.992,0v-3.992h3.992Z"/>
      <path class="g" d="M196.616,386.282v3.992c-1.323.018-2.67-.028-3.992,0-.028,1.322.018,2.67,0,3.992-1.323.018-2.67-.028-3.992,0-.028,1.322.018,2.67,0,3.992-1.323.015-2.67-.023-3.992,0v-3.992c1.323-.009,2.67.028,3.992,0,.028-1.321,0-2.67,0-3.992,1.323-.009,2.67.028,3.992,0,.028-1.322-.008-2.67,0-3.992,1.326-.009,2.667.007,3.992,0Z"/>
      <rect class="f" x="225.559" y="390.275" width="3.992" height="3.992"/>
      <path class="g" d="M209.591,398.259v3.992c-1.323.018-2.67-.028-3.992,0v-3.992c1.323-.009,2.67.028,3.992,0Z"/>
      <path class="j" d="M196.616,402.251c-.034,1.322.022,2.67,0,3.992-1.322-.026-2.669.017-3.992,0v-3.992c1.323-.017,2.67.026,3.992,0Z"/>
      <path class="j" d="M221.567,406.243c-.028,1.322.018,2.67,0,3.992-1.322.028-2.67-.008-3.992,0v-3.992h3.992Z"/>
      <path class="g" d="M241.528,406.243v3.992c-.944,0-3.851.141-3.992,0v-3.992h3.992Z"/>
      <path class="f" d="M184.639,370.314c-.014,3.981.01,7.996,0,11.977-1.321.036-2.673-.057-3.992,0-1.011,1.762-2.342,3.093-3.992,3.992-2.65.046-5.334-.046-7.984,0-.023,1.322.015,2.669,0,3.992h-3.992v-3.992c1.323-.015,2.67.023,3.992,0,.046-2.65-.032-5.334,0-7.984h3.992v-3.992h7.984v-3.992h3.992Z"/>
      <path class="g" d="M180.647,382.29v3.992c-1.323.015-2.67-.023-3.992,0v-3.992c1.321-.036,2.673.057,3.992,0Z"/>
      <path class="j" d="M188.632,386.282v3.992c-1.326.009-2.667-.009-3.992,0,.028-1.322-.018-2.669,0-3.992,1.323-.018,2.67.028,3.992,0Z"/>
      <path class="k" d="M184.639,390.275c-.028,1.322,0,2.67,0,3.992-1.323.009-2.669-.005-3.992,0v-3.992c1.322-.028,2.669.009,3.992,0Z"/>
      <path class="f" d="M128.749,156.731c-.035-2.65.025-5.334,0-7.984h-3.992v-3.992h15.969v3.992h-3.992v3.992c2.651.011,5.333-.016,7.984,0-.046,2.65.032,5.334,0,7.984h-11.977v-3.992c-1.321-.036-2.673.057-3.992,0Z"/>
      <path class="e" d="M128.749,370.314c0,1.323.009,2.669,0,3.992h-3.992c0-1.322-.028-2.671,0-3.992,1.321-.034,2.67.022,3.992,0Z"/>
      <path class="j" d="M148.71,112.817v7.984h-7.984c.034-1.322-.022-2.67,0-3.992h3.992c.015-1.323-.023-2.67,0-3.992h3.992Z"/>
      <path class="k" d="M132.741,124.793c-.008,1.322.028,2.67,0,3.992-.944,0-3.851.141-3.992,0v-3.992c1.323-.018,2.67.028,3.992,0Z"/>
      <path class="d" d="M136.733,120.801v3.992c-1.323.008-2.67-.028-3.992,0,.008-1.325-.004-2.667,0-3.992h3.992Z"/>
      <path class="j" d="M164.678,31.974c2.651.019,5.333-.013,7.984,0v3.992h3.992v7.984c1.323.018,2.67-.028,3.992,0,.028-1.322-.018-2.67,0-3.992h7.984v3.992c-1.323.018-2.67-.028-3.992,0-1.257,1.971-2.735,1.971-3.992,0,2.513,1.471,2.516,2.522,0,3.992-4.216-.305-4.389-.562-3.992,3.992h-3.992v-3.992h-3.992v3.992h-3.992v16.967c-2.651.013-5.333-.019-7.984,0l3.992-3.992v-3.992h-3.992v-8.982h3.992v-7.984h3.992v-11.977Z"/>
      <path class="k" d="M184.639,43.951c-.032,2.65.046,5.334,0,7.984-.002,2.921-3.335,2.797-3.992,0-.028-1.321,0-2.67,0-3.992s-.028-2.671,0-3.992c1.319.028,2.673.028,3.992,0Z"/>
      <rect class="j" x="168.671" y="68.902" width="7.984" height="3.992"/>
      <path class="j" d="M152.702,68.902v3.992c-1.325-.005-2.667.002-3.992,0v-3.992c1.322-.018,2.67.028,3.992,0Z"/>
      <path class="j" d="M184.639,51.935c-.023,1.322.015,2.669,0,3.992h-3.992c-.018-1.323.028-2.67,0-3.992h3.992Z"/>
      <path class="j" d="M116.772,76.887v3.992c-1.322.01-2.67.008-3.992,0v-3.992c1.323-.015,2.67.023,3.992,0Z"/>
      <path class="j" d="M140.725,27.982c2.651.016,5.333-.011,7.984,0,.036,1.321-.057,2.673,0,3.992,1.323.01,2.669-.005,3.992,0v3.992h-3.992c-.036-1.321.057-2.673,0-3.992-2.651-.019-5.333.013-7.984,0v-3.992Z"/>
    </g>
  </g>
</svg>