<?xml version="1.0" encoding="UTF-8"?>
<svg id="b" data-name="Layer 2" xmlns="http://www.w3.org/2000/svg" width="135.518" height="191.15" viewBox="0 0 135.518 191.15">
  <defs>
    <style>
      .d {
        fill: #aa1f65;
      }

      .e {
        fill: #2b0f54;
      }

      .f {
        fill: #fe8042;
      }

      .g {
        fill: #3368db;
      }

      .h {
        fill: #49e6eb;
      }

      .i {
        fill: #fed945;
      }

      .j {
        fill: #fef6f7;
      }
    </style>
  </defs>
  <g id="c" data-name="Layer 1">
    <g>
      <path class="j" d="M12.067,31.858c5.205,3.545-1.708,9.066-3.982,3.982-2.525-1.46-2.53-2.524,0-3.982,1.453-2.527,2.528-2.521,3.982,0Z"/>
      <path class="i" d="M47.908,3.982c7.951-.043,15.942.031,23.894,0,.036,1.317-.056,2.667,0,3.982,1.758,1.009,3.085,2.336,3.982,3.982.028,1.319-.01,2.663,0,3.982,1.356,2.008,2.935,6.343,1.326,7.262-1.176.672.857-3.465,2.656-3.279h7.965c.036,1.318-.056,2.667,0,3.982,1.65.965,3.045,2.367,3.982,3.982,1.316.056,2.665-.036,3.982,0v11.947c1.319.018,2.663-.028,3.982,0,1.466-2.511,2.517-2.515,3.982,0,1.541,1.476,2.326,1.059,3.982,0,1.319.009,2.664-.028,3.982,0,1.584.413,2.911,1.741,3.982,3.982,1.315.056,2.665-.036,3.982,0v35.841h-3.982v7.965h-3.982v7.965h-3.982v3.982h-3.982v3.982h-3.982v7.965h-3.982v7.965h-3.982v19.912h-3.982v3.982h-3.982c-.015,1.319.023,2.664,0,3.982-1.464,2.52-2.518,2.514-3.982,0-1.039,1.777-2.367,3.104-3.982,3.982-8.686,3.156-19.165,3.07-27.876,0-.116,2.943-3.334,2.759-3.982,0-1.587-.306-2.914-1.633-3.982-3.982-1.465,2.514-2.518,2.52-3.982,0-.028-1.319.018-2.663,0-3.982h-3.982v-15.929h-3.982v-11.947h-3.982v-7.965h-3.982v-3.982h-3.982v-7.965h-3.982c-.032-2.643.046-5.322,0-7.965-1.684-1.038-3.011-2.365-3.982-3.982-1.279-2.699-2.607-5.354-3.982-7.965-1.943-1.254-1.94-2.725,0-3.982-1.983-9.272-1.983-18.604,0-27.876.942,0,3.842.141,3.982,0,.018-1.32-.028-2.663,0-3.982-2.516-1.464-2.52-2.518,0-3.982h3.982c.018-1.319-.028-2.663,0-3.982-2.516-1.464-2.52-2.519,0-3.982.971-1.618,2.298-2.945,3.982-3.982.719-1.624,2.047-2.952,3.982-3.982,1.038-1.684,2.365-3.011,3.982-3.982,1.46-2.525,2.522-2.519,3.982,0,1.037-1.684,2.365-3.011,3.982-3.982,2.946-1.029,5.601-2.356,7.965-3.982,1.465-2.515,2.517-2.512,3.982,0,1.039-1.777,2.367-3.104,3.982-3.982Z"/>
      <path class="g" d="M39.943,147.345c2.914.002,2.79,3.326,0,3.982.002-2.908,3.33-2.789,3.982,0h3.982c1.261.893,2.45,1.589,3.568,2.089l28.293-.204c1.514.33,2.837,1.038,3.98,2.098-.012,3.97.021,7.977,0,11.947-.75,1.516-.75,2.843,0,3.982-.028,1.318.018,2.663,0,3.982h-3.982v3.982h-3.982c-.036,1.317.056,2.667,0,3.982.002,2.914-3.324,2.783-3.982,0l-2.125-1.991c-3.521-.291-23.289-.355-23.785.768-.305.689-1.19.988-1.966,1.223,8.745-2.9,19.166-3.023,27.876,0,2.527,1.453,2.521,2.528,0,3.982-1.315.056-2.665-.036-3.982,0v3.982h-15.929v-3.982h-7.965v-3.982c-1.319-.023-2.663.015-3.982,0-.036-1.317.056-2.667,0-3.982-1.758-1.009-3.085-2.336-3.982-3.982-.028-1.318.008-2.663,0-3.982.87-1.652,1.258-2.415,0-3.982-.011-3.972.011-7.975,0-11.947.654-1.725,1.981-3.052,3.982-3.982-.002,2.914-3.326,2.79-3.982,0-.008-1.319.028-2.664,0-3.982,1.32.022,2.663-.034,3.982,0Z"/>
      <path class="e" d="M83.748,147.345c-.046,2.642.008,5.322,0,7.965-11.302-.475-23.097.642-34.347,0-2.871-.164-1.109-2.059-1.493-3.982,9.27,0,18.609.161,27.876,0,1.039-1.777,2.367-3.104,3.982-3.982,1.319-.034,2.663.022,3.982,0Z"/>
      <path class="e" d="M4.102,43.805c-.026,9.278-.026,18.598,0,27.876-.003,2.903-3.333,2.789-3.982,0C-.04,62.436-.04,53.051.12,43.805c.002-2.914,3.326-2.79,3.982,0Z"/>
      <path class="e" d="M35.961,167.257h7.965v3.982h-7.965c-.008-1.322.004-2.66,0-3.982Z"/>
      <path class="e" d="M111.625,3.982c.046,2.643-.032,5.321,0,7.965h-3.982c.032-2.644-.046-5.321,0-7.965.002-2.914,3.326-2.79,3.982,0Z"/>
      <path class="e" d="M39.943,7.965c-.056,1.316.036,2.665,0,3.982-2.645.013-5.32-.019-7.965,0,.056-1.316-.036-2.665,0-3.982,2.645-.013,5.32.019,7.965,0Z"/>
      <path class="e" d="M75.784,15.929h3.982v3.982c0,.942.141,3.842,0,3.982h-3.982c-.013-2.645.019-5.32,0-7.965Z"/>
      <path class="e" d="M4.102,75.664c1.315.056,2.665-.036,3.982,0,.032,2.643-.046,5.322,0,7.965,1.315.056,2.665-.036,3.982,0,.015,1.319-.023,2.663,0,3.982h-3.982c-.015-1.319.023-2.663,0-3.982-1.315-.056-2.665.036-3.982,0-.012-2.644.018-5.32,0-7.965Z"/>
      <path class="e" d="M131.536,27.876c2.914.002,2.79,3.326,0,3.982-2.637.046-5.327.046-7.965,0-2.914-.002-2.79-3.326,0-3.982,2.637-.046,5.327-.046,7.965,0Z"/>
      <path class="e" d="M16.049,23.894c-.034,1.319.022,2.663,0,3.982-1.318.036-2.666-.056-3.982,0-.018,1.319.028,2.663,0,3.982-1.319.022-2.664-.034-3.982,0,.028-1.319-.018-2.663,0-3.982,1.318-.036,2.666.056,3.982,0,.018-1.319-.028-2.663,0-3.982,0-2.914,3.325-2.787,3.982,0Z"/>
      <path class="e" d="M8.085,31.858c-.028,1.319.018,2.663,0,3.982s.028,2.663,0,3.982h-3.982c.018-2.644-.012-5.32,0-7.965,1.319-.022,2.664.034,3.982,0Z"/>
      <path class="e" d="M111.625,39.823c1.319.028,2.663-.018,3.982,0v3.982c-1.315-.056-2.665.036-3.982,0v-3.982Z"/>
      <path class="e" d="M99.678,39.823v-3.982h3.982c.036,1.318-.056,2.666,0,3.982,1.322.009,2.66-.009,3.982,0v3.982h-3.982c-.036-1.318.056-2.666,0-3.982-1.319-.009-2.664.028-3.982,0Z"/>
      <path class="g" d="M4.102,39.823c-.009,1.319.004,2.663,0,3.982H.12c.023-1.319-.015-2.663,0-3.982.141-.141,3.041,0,3.982,0Z"/>
      <path class="d" d="M131.536,27.876c1.319.023,2.663-.015,3.982,0v3.982c-1.32.015-2.663-.023-3.982,0v-3.982Z"/>
      <path class="d" d="M123.571,27.876v3.982c-1.319-.023-2.663.015-3.982,0v-3.982c1.32-.015,2.663.023,3.982,0Z"/>
      <path class="f" d="M87.731,23.894h3.982v3.982c-1.316-.056-2.665.036-3.982,0-.036-1.318.056-2.667,0-3.982Z"/>
      <path class="d" d="M4.102,71.681c.004,1.319-.009,2.663,0,3.982-1.315-.056-2.665.036-3.982,0-.015-1.319.023-2.663,0-3.982h3.982Z"/>
      <path class="d" d="M20.032,19.912c-.056,1.316.036,2.665,0,3.982-.141.141-3.041,0-3.982,0-2.514-1.465-2.52-2.518,0-3.982,1.319-.028,2.663.028,3.982,0Z"/>
      <path class="g" d="M16.049,19.912c-.022,1.319.034,2.664,0,3.982h-3.982c.028-1.319-.018-2.663,0-3.982,1.319-.018,2.663.028,3.982,0Z"/>
      <path class="d" d="M119.589,15.929c-.056,1.316.036,2.664,0,3.982h-3.982v-3.982c1.318-.036,2.666.056,3.982,0Z"/>
      <path class="e" d="M27.996,11.947c2.903.003,2.789,3.333,0,3.982-1.319.028-2.663-.028-3.982,0-.056,1.316.036,2.665,0,3.982-1.319.018-2.663-.028-3.982,0,.056-1.316-.036-2.665,0-3.982,1.32-.018,2.663.028,3.982,0,.056-1.316-.036-2.665,0-3.982,1.319-.018,2.663.028,3.982,0Z"/>
      <path class="e" d="M123.571,11.947c-.056,1.316.036,2.664,0,3.982-1.318.036-2.666-.056-3.982,0,.056-1.316-.036-2.664,0-3.982,1.318-.036,2.666.056,3.982,0Z"/>
      <path class="f" d="M31.979,11.947c-.056,1.316.036,2.665,0,3.982-1.32.018-2.663-.028-3.982,0v-3.982c1.319-.028,2.663.009,3.982,0Z"/>
      <path class="h" d="M39.943,151.327c0,.942.141,3.842,0,3.982h-3.982c-.004-1.322.008-2.66,0-3.982h3.982Z"/>
      <path class="d" d="M123.571,11.947c.056-1.316-.036-2.664,0-3.982h3.982v3.982c-1.318.036-2.666-.056-3.982,0Z"/>
      <path class="d" d="M71.802,7.965h3.982c.018,1.32-.028,2.663,0,3.982h-3.982c-.036-1.317.056-2.667,0-3.982Z"/>
      <path class="e" d="M47.908,3.982v3.982c-1.32.018-2.663-.028-3.982,0-2.903-.003-2.789-3.333,0-3.982,1.319-.028,2.663.007,3.982,0Z"/>
      <path class="h" d="M83.748,167.257c-.007,1.319.028,2.664,0,3.982h-3.982v-3.982h3.982Z"/>
      <path class="e" d="M35.961,175.221h3.982c.036,1.317-.056,2.667,0,3.982h-3.982c-.018-1.319.028-2.664,0-3.982Z"/>
      <path class="h" d="M43.925,3.982v3.982c-1.319.028-2.663-.01-3.982,0,.056-1.316-.036-2.665,0-3.982,1.319-.018,2.663.028,3.982,0Z"/>
      <path class="d" d="M107.642,3.982c.023-1.319-.015-2.663,0-3.982h3.982c.015,1.32-.023,2.663,0,3.982h-3.982Z"/>
      <path class="h" d="M75.784,183.186c-.056,1.315.036,2.665,0,3.982-1.317.036-2.667-.056-3.982,0-.022-1.319.034-2.664,0-3.982h3.982Z"/>
      <path class="e" d="M47.908,83.628c.002-2.914,3.326-2.79,3.982,0,.138,7.938.043,15.953,0,23.894-.002,2.914-3.326,2.79-3.982,0-.036-6.624.026-13.287,0-19.912h-3.982c-.036-1.317.056-2.667,0-3.982,1.32.01,2.663,0,3.982,0Z"/>
      <rect class="f" x="67.819" y="91.593" width="3.982" height="23.894"/>
      <path class="e" d="M75.784,59.735c-.01,6.624.036,13.287,0,19.912,1.319,0,2.664.028,3.982,0,.056-1.316-.036-2.665,0-3.982,1.317-.036,2.667.056,3.982,0,.028-1.319-.028-2.663,0-3.982-.002-2.914,3.324-2.783,3.982,0-.028,1.319.018,2.663,0,3.982-1.317.036-2.667-.056-3.982,0-.028,1.319.018,2.663,0,3.982-1.319.018-2.664-.028-3.982,0-.056,1.316.036,2.665,0,3.982-1.319.018-2.664-.028-3.982,0-.028,1.319.018,2.663,0,3.982-2.645.012-5.32-.018-7.965,0-2.903-.003-2.789-3.333,0-3.982,1.319-.028,2.663.018,3.982,0,1.464-2.52,2.518-2.516,3.982,0-2.511-1.466-2.514-2.517,0-3.982-.002,2.914-3.326,2.79-3.982,0,0-6.619-.115-13.295,0-19.912-.002-2.914,3.324-2.783,3.982,0Z"/>
      <path class="e" d="M47.908,123.451c.069,3.968-.049,7.978,0,11.947h-3.982c.049-3.969-.069-7.978,0-11.947.002-2.914,3.326-2.79,3.982,0Z"/>
      <path class="e" d="M27.996,55.752c.028-1.319-.018-2.663,0-3.982h11.947c.036,1.317-.056,2.667,0,3.982,1.319.023,2.663-.015,3.982,0,.018,1.319-.028,2.664,0,3.982-1.316-.056-2.665.036-3.982,0-.036-1.317.056-2.667,0-3.982-3.958-.069-7.988-.069-11.947,0Z"/>
      <path class="f" d="M71.802,127.434c.019-2.645-.013-5.32,0-7.965h3.982c.013,2.645-.019,5.32,0,7.965-.002,2.914-3.326,2.79-3.982,0Z"/>
      <path class="e" d="M27.996,67.699c1.316.056,2.665-.036,3.982,0,.032,2.644-.046,5.321,0,7.965,1.316.056,2.665-.036,3.982,0,.036,1.317-.056,2.667,0,3.982,1.319.028,2.664-.028,3.982,0,2.914-.002,2.783,3.324,0,3.982-1.319-.028-2.663.018-3.982,0-.036-1.317.056-2.667,0-3.982-1.319-.028-2.663.018-3.982,0-.015-1.319.023-2.663,0-3.982-1.316-.056-2.665.036-3.982,0-.013-2.645.019-5.32,0-7.965Z"/>
      <path class="e" d="M47.908,63.717c.046,2.637.046,5.327,0,7.965-.002,2.914-3.326,2.79-3.982,0-.046-2.643.016-5.321,0-7.965.003-2.903,3.333-2.789,3.982,0Z"/>
      <path class="e" d="M91.713,59.735c-.018,2.645.012,5.32,0,7.965-1.317.036-2.667-.056-3.982,0,.016-2.644,0-5.32,0-7.965.002-2.914,3.326-2.79,3.982,0Z"/>
      <path class="d" d="M91.713,51.77c.016,2.644.018,5.321,0,7.965h-3.982v-7.965c.002-2.914,3.326-2.79,3.982,0Z"/>
      <path class="e" d="M87.731,43.805c2.914,0,2.787,3.325,0,3.982.002-2.91,3.329-2.79,3.982,0,.028,1.319-.008,2.663,0,3.982h-3.982v-3.982h-7.965c0,1.319.028,2.664,0,3.982.002,2.914-3.324,2.783-3.982,0,.009-1.319-.028-2.664,0-3.982,0-2.914,3.325-2.787,3.982,0-2.909-.002-2.79-3.329,0-3.982,2.637-.046,5.327-.046,7.965,0Z"/>
      <path class="f" d="M67.819,83.628v3.982c-1.322.009-2.66-.009-3.982,0-.056,1.316.036,2.665,0,3.982h-7.965v-3.982c2.645-.012,5.32.018,7.965,0,.056-1.316-.036-2.665,0-3.982,1.319-.018,2.664.028,3.982,0Z"/>
      <path class="f" d="M79.766,43.805v3.982h-3.982c.028-1.319-.018-2.663,0-3.982,1.319-.015,2.663.023,3.982,0Z"/>
      <path class="f" d="M87.731,43.805c1.319.023,2.663-.015,3.982,0,.018,1.319-.028,2.664,0,3.982h-3.982v-3.982Z"/>
      <path class="f" d="M75.784,55.752c-.004,1.322.002,2.66,0,3.982h-3.982c.023-1.319-.015-2.663,0-3.982,1.317-.036,2.667.056,3.982,0Z"/>
      <path class="f" d="M79.766,51.77c-.028,1.319.018,2.663,0,3.982-1.317.036-2.667-.056-3.982,0,.004-1.32-.009-2.663,0-3.982h3.982Z"/>
      <path class="f" d="M27.996,55.752c-.028,1.318.009,2.663,0,3.982-.002,2.914-3.326,2.79-3.982,0,.028-1.319-.018-2.663,0-3.982,1.319-.015,2.663.023,3.982,0Z"/>
      <path class="e" d="M27.996,59.735c-.009,1.319-.004,2.663,0,3.982-.003,2.903-3.333,2.789-3.982,0-.028-1.316-.028-2.667,0-3.982h3.982Z"/>
      <path class="d" d="M43.925,59.735c1.316.056,2.665-.036,3.982,0,.015,1.319-.023,2.663,0,3.982h-3.982c-.008-1.319.028-2.664,0-3.982Z"/>
      <path class="d" d="M27.996,63.717c.004,1.32-.01,2.663,0,3.982-1.316-.056-2.665.036-3.982,0-.018-1.319.028-2.664,0-3.982h3.982Z"/>
      <path class="f" d="M87.731,67.699c-.008,1.319.028,2.664,0,3.982h-3.982c.028-1.319-.018-2.663,0-3.982,1.317-.036,2.667.056,3.982,0Z"/>
      <path class="d" d="M47.908,71.681c-.023,1.319.015,2.663,0,3.982h-3.982c-.015-1.319.023-2.663,0-3.982h3.982Z"/>
      <path class="d" d="M39.943,79.646c1.319.028,2.663-.018,3.982,0,.036,1.317-.056,2.667,0,3.982-1.319-.01-2.664.028-3.982,0v-3.982Z"/>
      <path class="d" d="M47.908,83.628v-3.982h3.982c.015,1.319-.023,2.663,0,3.982h-3.982Z"/>
      <path class="d" d="M75.784,79.646c-.007,1.319.028,2.664,0,3.982-1.319.028-2.663-.018-3.982,0v-3.982h3.982Z"/>
      <path class="d" d="M51.89,107.522c-.007,1.319.028,2.664,0,3.982-.002,2.914-3.326,2.79-3.982,0-.028-1.318.007-2.663,0-3.982h3.982Z"/>
      <path class="f" d="M51.89,111.504c-.028,1.319.018,2.663,0,3.982h-3.982c-.018-1.319.028-2.664,0-3.982h3.982Z"/>
      <path class="f" d="M43.925,123.451c.023-1.319-.015-2.663,0-3.982h3.982c.015,1.319-.023,2.663,0,3.982h-3.982Z"/>
      <path class="e" d="M75.784,127.434c.009,1.318.028,2.665,0,3.982-.002,2.914-3.326,2.79-3.982,0-.028-1.318-.009-2.664,0-3.982h3.982Z"/>
      <path class="f" d="M75.784,131.416c-.028,1.319.018,2.663,0,3.982h-3.982c-.018-1.319.028-2.663,0-3.982h3.982Z"/>
      <path class="e" d="M39.943,147.345c1.319.034,2.663-.022,3.982,0v3.982h-3.982v-3.982Z"/>
      <path class="d" d="M79.766,147.345v3.982c-1.319.015-2.664-.023-3.982,0v-3.982c1.32-.022,2.663.034,3.982,0Z"/>
      <path class="e" d="M43.925,183.186c0-.941-.141-3.842,0-3.982h27.876c.022,1.319-.034,2.664,0,3.982-9.27,0-18.609.161-27.876,0Z"/>
      <rect class="e" x="39.943" y="159.292" width="19.912" height="3.982"/>
      <rect class="e" x="67.819" y="167.257" width="3.982" height="3.982"/>
    </g>
  </g>
</svg>