<?xml version="1.0" encoding="UTF-8"?>
<svg id="b" data-name="Layer 2" xmlns="http://www.w3.org/2000/svg" width="588.958" height="679.122" viewBox="0 0 588.958 679.122">
  <defs>
    <style>
      .d {
        fill: #aa1f65;
      }

      .e {
        fill: #3368db;
      }

      .f {
        fill: #49e6eb;
      }
    </style>
  </defs>
  <g id="c" data-name="Layer 1">
    <g>
      <path class="e" d="M286.946,15.092c4.763-7.349,10.336-7.355,15.094,0,15.055.049,30.226-.035,45.281,0v15.092h45.281v15.092c4.993.138,10.108-.214,15.094,0,6.57,2.315,11.601,7.345,15.094,15.092.261,15.039-.187,30.233,0,45.275h15.094c.138,4.992-.214,10.106,0,15.092,6.662,3.824,11.693,8.854,15.094,15.092.26,15.002.26,30.273,0,45.275-1.158,6.011-6.189,11.042-15.094,15.092-.348,20.063.252,40.3,0,60.366h15.094c-.252,20.067.348,40.303,0,60.366-1.566,6.002-6.598,11.032-15.094,15.092-.214,4.986.138,10.099,0,15.092-4.993.138-10.107-.214-15.094,0-3.68,6.129-8.712,11.159-15.094,15.092-.435,25.09.435,50.368,0,75.458-2.314,6.569-7.345,11.6-15.094,15.092,0,3.568-.534,14.558,0,15.092h30.187v45.275h30.187v15.092h45.281v15.092c10.02.122,20.17-.174,30.187,0,6.013,1.158,11.044,6.189,15.094,15.092,5,.105,10.093-.105,15.094,0,6.57,2.314,11.602,7.344,15.094,15.092.105,5-.105,10.092,0,15.092,6.735,3.939,11.766,8.969,15.094,15.092.435,25.083-.317,50.37,0,75.458H.167c.383-30.114-.522-60.44,0-90.55,1.567-6.001,6.598-11.032,15.094-15.092.214-4.987-.138-10.098,0-15.092,10.022-.122,20.167.174,30.187,0,3.94-6.733,8.971-11.764,15.094-15.092,10.019-.174,20.166.122,30.187,0v-15.092c10.021-.122,20.168.174,30.187,0,3.94-6.733,8.971-11.764,15.094-15.092,4.999-.105,10.095.105,15.094,0l15.094-15.092c.174-10.017-.122-20.164,0-30.183h30.187v-15.092h-15.094c-.058-15.048.081-30.227,0-45.275-9.529-5.555-9.515-9.536,0-15.092-6.735-3.939-11.766-8.969-15.094-15.092-.072-10.022.051-20.161,0-30.183h-15.094v-15.092h-15.094v-60.366c-11.045-.007-10.576-12.606,0-15.092,4.988-.214,10.099.138,15.094,0-.122-10.021.174-20.164,0-30.183-6.734-3.939-11.766-8.97-15.094-15.092-.522-30.116.383-60.429,0-90.55h15.094c.068-4.999-.105-10.094,0-15.092,1.158-6.012,6.19-11.042,15.094-15.092-9.535-5.549-9.553-9.544,0-15.092.067-5.001-.105-10.092,0-15.092,1.567-6.001,6.598-11.032,15.094-15.092,3.827-6.66,8.858-11.691,15.094-15.092,5.001-.105,10.093.105,15.094,0,3.939-6.734,8.971-11.764,15.094-15.092,20.052-.347,40.315-.036,60.375,0Z"/>
      <path class="f" d="M286.946,15.092V0h15.094v15.092c-5.01-.016-10.083.009-15.094,0Z"/>
      <path class="e" d="M226.572,15.092v15.092c-5.002.068-10.093-.105-15.094,0v-15.092c5-.056,10.095.087,15.094,0Z"/>
      <path class="d" d="M196.384,30.183v15.092c-4.995.138-10.105-.214-15.094,0-.214,4.988.138,10.097,0,15.092h-15.094c.105-5-.068-10.09,0-15.092,4.995-.138,10.105.214,15.094,0,.214-4.988-.138-10.097,0-15.092,5.002-.068,10.093.105,15.094,0Z"/>
      <path class="d" d="M407.695,45.275c4.986.214,10.101-.138,15.094,0,.056,4.999-.087,10.093,0,15.092h-15.094v-15.092Z"/>
      <path class="e" d="M166.197,75.458c-.067,5.001.105,10.092,0,15.092-.007,11.043-12.608,10.575-15.094,0,.105-4.997-.068-10.093,0-15.092h15.094Z"/>
      <path class="d" d="M166.197,90.55c-.105,5,.068,10.09,0,15.092h-15.094c.105-4.997-.105-10.094,0-15.092h15.094Z"/>
      <path class="f" d="M437.883,120.733h15.094c.056,5-.087,10.092,0,15.092h-15.094c-.138-4.992.214-10.106,0-15.092Z"/>
      <path class="e" d="M452.976,181.099c-.087,4.999.056,10.091,0,15.092h-15.094c.087-4.998-.056-10.093,0-15.092h15.094Z"/>
      <path class="d" d="M136.01,211.282h15.094c.056,5.001-.087,10.091,0,15.092h-15.094c-.056-4.999.087-10.093,0-15.092Z"/>
      <path class="e" d="M136.01,256.557v15.092h-15.094v-15.092c4.995-.138,10.106.214,15.094,0Z"/>
      <path class="d" d="M452.976,316.923c-.087,4.998.056,10.093,0,15.092h-15.094c.214-4.986-.138-10.099,0-15.092h15.094Z"/>
      <path class="d" d="M422.789,347.107v15.092h-15.094c.087-4.999-.056-10.092,0-15.092,4.993-.138,10.107.214,15.094,0Z"/>
      <path class="d" d="M166.197,377.29h15.094c.068,5-.105,10.094,0,15.092-.007,11.043-12.608,10.575-15.094,0-.105-4.997.036-10.092,0-15.092Z"/>
      <path class="e" d="M181.291,392.381c.105,4.997-.027,10.092,0,15.092h-15.094c-.068-4.999.105-10.094,0-15.092h15.094Z"/>
      <path class="d" d="M407.695,437.656c-.087,4.999.056,10.092,0,15.092h-15.094v-15.092h15.094Z"/>
      <path class="f" d="M166.197,498.023c-.087,4.999.056,10.091,0,15.092-5,.068-10.095-.105-15.094,0v-15.092h15.094Z"/>
      <path class="f" d="M136.01,513.114v15.092c-5.001.056-10.093-.087-15.094,0v-15.092c5-.068,10.095.105,15.094,0Z"/>
      <path class="d" d="M60.541,543.297v15.092c-5.002.056-10.093-.087-15.094,0v-15.092c5.001-.056,10.093.087,15.094,0Z"/>
      <path class="d" d="M528.445,543.297c4.999.087,10.094-.056,15.094,0v15.092c-5-.105-10.092.068-15.094,0v-15.092Z"/>
      <path class="d" d="M558.632,558.389c5,.105,10.092-.068,15.094,0,.068,5.001-.105,10.092,0,15.092h-15.094v-15.092Z"/>
      <path class="e" d="M15.26,573.48c-.214,4.987.138,10.098,0,15.092H.167c.087-4.994-.056-10.096,0-15.092h15.094Z"/>
      <path class="d" d="M573.726,588.572h15.094c.056,4.996-.087,10.097,0,15.092h-15.094c-.068-5.001.105-10.092,0-15.092Z"/>
    </g>
  </g>
</svg>