<?xml version="1.0" encoding="UTF-8"?>
<svg id="b" data-name="Layer 2" xmlns="http://www.w3.org/2000/svg" width="469.967" height="368.999" viewBox="0 0 469.967 368.999">
  <defs>
    <style>
      .d {
        fill: #cac2d4;
      }

      .e {
        fill: #aa1f65;
      }

      .f {
        fill: #2b0f54;
      }

      .g {
        fill: #fe8042;
      }

      .h {
        fill: #3368db;
      }

      .i {
        fill: #49e6eb;
      }

      .j {
        fill: #fed945;
      }

      .k {
        fill: #fef6f7;
      }
    </style>
  </defs>
  <g id="c" data-name="Layer 1">
    <g>
      <path class="f" d="M59.4,178.01c4.674,2.732,4.679,4.685,0,7.417-2.339,3.61-5.081,3.605-7.425,0,3.623,2.34,3.627,5.081,0,7.417-2.339,3.61-5.081,3.605-7.425,0-2.732,4.684-4.692,4.677-7.425,0,4.682,2.73,4.689,4.688,0,7.417-2.729,4.693-4.695,4.683-7.425,0,4.688,2.728,4.698,4.69,0,7.417-2.732,4.684-4.693,4.677-7.425,0,4.682,2.73,4.688,4.688,0,7.417,3.609,2.342,3.614,5.08,0,7.417-2.729,4.694-4.695,4.685-7.425,0,3.621,4.875,3.638,9.969,0,14.834-.003,5.427-6.202,5.197-7.425,0,.033-4.925-.023-9.909,0-14.834,2.459-.033,4.966.052,7.425,0,.033-4.925-.023-9.909,0-14.834,2.459-.033,4.967.052,7.425,0,.052-2.456-.033-4.96,0-7.417,2.459-.04,4.967.063,7.425,0,.063-2.456-.04-4.96,0-7.417,2.46-.033,4.966.052,7.425,0,.052-2.456-.033-4.96,0-7.417,2.459-.033,4.966.052,7.425,0,2.708-4.713,4.715-4.705,7.425,0-5.433-.003-5.203-6.196,0-7.417,2.459-.052,4.965.015,7.425,0Z"/>
      <path class="f" d="M59.4,192.844c5.424.004,5.201,6.201,0,7.417-2.716,4.732-4.707,4.725-7.425,0,8.875,6.393-1.025,16.282-7.425,7.417,8.875,6.393-1.025,16.282-7.425,7.417,8.875,6.393-1.025,16.282-7.425,7.417,8.999,3.455,2.892,27.025-7.425,14.834,3.644,7.356,3.657,14.899,0,22.251,3.631,4.87,3.632,9.964,0,14.834,3.65,7.351,3.63,14.893,0,22.251-2.733,4.678-4.693,4.685-7.425,0,5.433.003,5.203,6.196,0,7.417,5.433.003,5.202,6.195,0,7.417-.004,5.418-6.207,5.196-7.425,0-.085-4.921.014-9.911,0-14.834H0v-51.919c.003-5.427,6.202-5.197,7.425,0,3.603,17.271,3.603,34.649,0,51.919,2.343-3.618,5.086-3.623,7.425,0-3.657-19.732-3.675-39.607,0-59.337,2.735-4.674,4.69-4.669,7.425,0-3.641-4.872-3.649-9.967,0-14.834,2.729-4.694,4.695-4.685,7.425,0-5.433-.003-5.203-6.196,0-7.417,2.735-4.674,4.69-4.669,7.425,0-4.682-2.73-4.689-4.688,0-7.417,2.732-4.684,4.693-4.677,7.425,0-4.674-2.733-4.679-4.685,0-7.417.003-5.427,6.202-5.197,7.425,0-4.683-2.729-4.691-4.688,0-7.417,2.34-3.614,5.082-3.611,7.425,0Z"/>
      <path class="f" d="M356.4,0v7.417c-4.926-.085-9.922,0-14.85,0,0,1.754.263,7.155,0,7.417-2.457.068-4.971-.105-7.425,0v-7.417c.003-5.427,6.202-5.197,7.425,0-5.433-.003-5.203-6.196,0-7.417h14.85Z"/>
      <path class="f" d="M96.525,37.085c3.27.839,4.616,4.548,4.04,11.126,16.309-4.953,19.872,17.135,8.784,22.251-2.07.955-21.981.142-22.697-2.217-2.472-8.143-1.699-16.392,2.448-23.743-4.712-2.707-4.72-4.712,0-7.417,0-5.427,6.2-5.191,7.425,0Z"/>
      <path class="f" d="M452.925,0v7.417c-4.915-.085-9.935-.085-14.85,0V0h14.85Z"/>
      <path class="f" d="M341.55,44.502c3.46,3.445,8.262,4.757,14.406,3.936,10.278,10.744,2.683,30.853-14.406,18.315-3.232-1.137-5.707-3.609-7.425-7.417-4.729-2.716-4.721-4.7,0-7.417-3.632-2.338-3.632-5.079,0-7.417.003-5.427,6.202-5.197,7.425,0Z"/>
      <path class="f" d="M304.425,0c5.433.003,5.203,6.196,0,7.417.003-5.427,6.202-5.197,7.425,0v7.417c-2.454-.105-4.968.068-7.425,0-.263-.262,0-5.663,0-7.417-4.928,0-9.924-.085-14.85,0V0h14.85Z"/>
      <path class="f" d="M259.875,0v7.417c2.459.052,4.965-.033,7.425,0v14.834h14.85V7.417c2.46-.027,4.966.043,7.425,0,0,2.417-.525,14.31,0,14.834,7.403.019,14.872-.026,22.275,0,2.343-3.608,5.085-3.611,7.425,0,2.46.005,4.965.005,7.425,0,2.34-3.611,5.082-3.608,7.425,0,7.403-.026,14.872.019,22.275,0V7.417c2.459.043,4.965-.027,7.425,0v14.834h14.85V7.417c2.46-.033,4.966.052,7.425,0V0h22.275c-.06,4.924.085,9.911,0,14.834-2.453-.105-4.969.068-7.425,0v-7.417c-2.46-.033-4.966.052-7.425,0-2.344,3.564-5.081,3.564-7.425,0,4.679,2.732,4.674,4.685,0,7.417.052,2.456-.033,4.96,0,7.417h22.275c.027-2.457-.043-4.96,0-7.417,2.453.105,4.969-.068,7.425,0v7.417c4.931.023,9.919-.033,14.85,0,2.342-3.596,5.083-3.596,7.425,0,4.931-.033,9.919.023,14.85,0,.525-.524,0-12.417,0-14.834,2.458.043,4.967-.027,7.425,0v14.834h7.425v59.337c-.003,5.427-6.202,5.197-7.425,0-126.213,3.647-252.462,3.647-378.675,0-.003,5.427-6.202,5.197-7.425,0,.005-2.462-.007-4.955,0-7.417.003-5.427,6.202-5.197,7.425,0,22.233-3.646,44.592-3.646,66.825,0-.008-5.407,6.21-5.176,7.425,0l1.713-3.709c28.377.002,56.767.002,85.167,0l2.219,3.709c-.008-5.407,6.21-5.176,7.425,0l1.288-3.709c68.102.002,136.218.002,204.347,0l2.265,3.709c-1.448-.397-3.573-1.003-3.712-2.162-.543-4.523-.829-36.608,0-39.636l3.712-2.704-2.117,3.709h-23.765l-3.818,3.709c3.58,2.344,3.587,5.08,0,7.417.003-5.427,6.202-5.197,7.425,0,3.46,3.445,8.262,4.757,14.406,3.936,5.534.965,5.248,17.482,2.69,20.266-3.227,3.512-23.129,3.404-21.032-5.66-9.662-.893-9.009-11.469-3.49-18.543-8.23,13.198-16.969-9.689-7.425-14.834l-2.128,3.709h-32.34l-2.657-3.709c4.634,7.55,4.595,14.687,0,22.251,4.77-5.027,10.114-5.102,14.85,0,5.433.003,5.203,6.196,0,7.417,5.433.003,5.203,6.196,0,7.417-13.555,9.416-24.082.977-14.85-14.834-8.423,7.126-12.443.945-12.058-18.543h-35.974l-3.943,3.709c4.682,2.729,4.689,4.688,0,7.417-.003,5.427-6.202,5.197-7.425,0-2.752-2.815-4.263-6.523-4.531-11.126h-28.733c.173,6.475-.441,12.829-3.861,18.543,3.893-9.618,28.217-1.737,14.85,7.417,5.433.003,5.203,6.196,0,7.417-8.642,8.34-25.23,2.193-14.85-7.417-4.72-2.705-4.712-4.71,0-7.417-.003,5.427-6.202,5.197-7.425,0-5.382-6.654-5.295-15.454,0-22.251-.398,1.444-.981,3.529-2.165,3.709-5.256.796-34.806.901-39.679,0l-2.706-3.709c3.635,4.876,3.658,9.971,0,14.834,1.812-7.355,11.463-4.09,11.465,3.709,10.211-3.91,19.026,7.871,14.523,16.105-3.421,6.254-5.769,9.479-11.137,2.438-2.338,3.662-5.087,3.662-7.425,0-9.53,9.641-14.93-3.816-7.425-14.834-3.632-2.338-3.632-5.079,0-7.417-.003,5.427-6.202,5.197-7.425,0-2.752-2.814-4.262-6.522-4.531-11.126-.703-1.252-27.483-.707-28.733,0-.646.366-.071,12.461.179,14.834,11.407-2.794,18.067,5.693,14.523,16.105-2.901,8.521-12.16,8.109-18.562,2.438-3.232-1.137-5.707-3.609-7.425-7.417-5.375-6.653-5.266-15.445,0-22.251l-7.425-7.417c-10.72,5.238-23.595,4.779-35.05,2.142,2.392,4.329.6,8.524-2.075,12.692,3.6,2.34,3.6,5.077,0,7.417,2.732-4.678,4.693-4.685,7.425,0,4.807-4.144,10.469-4.855,16.357-2.443,5.124,2.099,2.661,31.484-8.932,17.277-2.338,3.662-5.087,3.662-7.425,0-9.53,9.641-14.93-3.816-7.425-14.834-9.244,7.064-12.956.854-11.137-18.628-11.982,1.498-23.119.291-33.412-3.623l-7.425,7.417c-1.463,2.78-3.938,5.253-7.425,7.417,5.002,7.297,5.038,15.048,0,22.251-.003,5.427-6.202,5.197-7.425,0V22.251h14.85V7.417c2.459-.027,4.966.043,7.425,0,0,2.417-.525,14.31,0,14.834h14.85V7.417c2.459.043,4.966-.027,7.425,0v14.834h14.85v-7.417c2.456-.068,4.973.105,7.425,0,.043,2.457-.027,4.96,0,7.417,6.45-.263,13.033.368,19.491,0,5.354-.305,2.067-3.837,2.784-7.417.004-5.418,6.207-5.196,7.425,0,.105,2.45-.068,4.964,0,7.417h14.85V7.417c2.459-.027,4.966.043,7.425,0v14.834c4.931.023,9.919-.033,14.85,0,2.342-3.596,5.083-3.596,7.425,0,4.931-.033,9.919.023,14.85,0v-7.417c2.457-.068,4.972.105,7.425,0,.052,2.457-.033,4.96,0,7.417h22.275c.033-2.457-.052-4.961,0-7.417-4.674-2.732-4.679-4.685,0-7.417-2.732,4.678-4.693,4.685-7.425,0-2.46-.018-4.965,0-7.425,0,0,1.754.263,7.155,0,7.417-2.457.068-4.972-.105-7.425,0-.052-2.455,0-4.96,0-7.417.003-5.427,6.202-5.197,7.425,0-5.433-.003-5.203-6.196,0-7.417h14.85Z"/>
      <path class="f" d="M111.375,0v7.417c-4.916-.085-9.934-.085-14.85,0V0h14.85Z"/>
      <path class="f" d="M163.35,0v7.417c-2.344,3.564-5.081,3.564-7.425,0-2.458.052-4.966-.033-7.425,0v7.417c-2.456.068-4.973-.105-7.425,0-.085-4.923.06-9.91,0-14.834h22.275Z"/>
      <path class="f" d="M207.9,7.417c2.459.043,4.966-.027,7.425,0,.04,2.456-.063,4.962,0,7.417-.003,5.427-6.202,5.197-7.425,0v-7.417Z"/>
      <path class="f" d="M438.075,7.417v7.417c-.003,5.427-6.202,5.197-7.425,0,.063-2.454-.04-4.962,0-7.417,2.458-.027,4.967.043,7.425,0Z"/>
      <path class="f" d="M207.9,0v7.417c-4.916-.085-9.934-.085-14.85,0V0h14.85Z"/>
      <path class="e" d="M7.425,237.346c3.609,2.342,3.614,5.08,0,7.417H0v-7.417h7.425Z"/>
      <rect class="e" x="334.125" width="7.425" height="7.417"/>
      <rect class="e" x="304.425" width="7.425" height="7.417"/>
      <rect class="e" x="237.6" width="7.425" height="7.417"/>
      <path class="f" d="M178.2,326.351c4.71,2.707,4.718,4.712,0,7.417-2.708,4.713-4.715,4.705-7.425,0,4.71,2.707,4.718,4.712,0,7.417-2.708,4.713-4.715,4.705-7.425,0,5.424.004,5.201,6.201,0,7.417-2.458.052-4.965-.016-7.425,0-.052,2.457.033,4.959,0,7.417h-7.425c-4.674-2.732-4.679-4.685,0-7.417,2.339-3.61,5.081-3.605,7.425,0-4.69-2.727-4.699-4.691,0-7.417,2.339-3.61,5.081-3.605,7.425,0-5.431-.004-5.203-6.196,0-7.417,2.339-3.611,5.08-3.605,7.425,0-3.611-2.343-3.619-5.082,0-7.417.003-5.427,6.202-5.197,7.425,0Z"/>
      <path class="f" d="M185.625,274.432c3.632,7.357,3.647,14.899,0,22.251,3.615,2.34,3.617,5.079,0,7.417,2.729-4.694,4.695-4.685,7.425,0,3.694,2.461,5.218,3.73,1.328,4.951,86.271-3.117,172.453-2.294,258.546,2.467,2.732-4.683,4.693-4.676,7.425,0-4.682-2.729-4.689-4.688,0-7.417-3.609-2.342-3.614-5.08,0-7.417.003-5.427,6.202-5.197,7.425,0v1.854c1.578,1.528,1.413,3.942,0,5.563-.632,1.342.408,5.336,0,7.417-2.458.033-4.968-.052-7.425,0-.052,2.454.033,4.962,0,7.417H185.625c-3.609-2.342-3.614-5.081,0-7.417-3.612-2.341-3.615-5.079,0-7.417-2.729,4.694-4.695,4.685-7.425,0,3.615,2.34,3.617,5.079,0,7.417,3.616,2.34,3.618,5.079,0,7.417.003-5.427,6.202-5.197,7.425,0-.016,2.457.052,4.961,0,7.417,0,5.427-6.2,5.19-7.425,0-3.609-2.342-3.614-5.081,0-7.417-.003,5.427-6.202,5.197-7.425,0,3.611,2.343,3.619,5.082,0,7.417-2.735,4.674-4.69,4.669-7.425,0,3.606,2.341,3.61,5.079,0,7.417-2.339,3.611-5.08,3.605-7.425,0,4.69,2.727,4.699,4.691,0,7.417-2.34,3.613-5.081,3.609-7.425,0-2.339,3.611-5.08,3.605-7.425,0,4.683,2.729,4.69,4.688,0,7.417-4.873,3.642-9.974,3.637-14.85,0,4.684,2.729,4.691,4.688,0,7.417.747-5.679,13.621-5.423,14.85,0,5.424.004,5.201,6.201,0,7.417-4.927.085-9.921-.015-14.85,0-4.671-2.732-4.68-4.685,0-7.417-.003,5.427-6.202,5.197-7.425,0-12.324,3.648-24.802,3.655-37.125,0-2.343,3.611-5.084,3.613-7.425,0,4.68,2.732,4.671,4.685,0,7.417-4.931-.033-9.919.023-14.85,0-.033-2.457.052-4.961,0-7.417-4.93-.033-9.92.023-14.85,0-.033-2.457.052-4.961,0-7.417-2.459-.043-4.965.027-7.425,0-.033-2.457.052-4.961,0-7.417-2.459-.015-4.967.052-7.425,0-5.433,0-5.196-6.193,0-7.417.003-5.425,6.203-5.197,7.425,0,4.689,2.729,4.682,4.687,0,7.417,2.344-3.605,5.085-3.61,7.425,0,4.689,2.729,4.682,4.688,0,7.417,5.178-4.598,9.742-4.601,14.85,0,4.699,2.726,4.69,4.69,0,7.417,4.88-3.618,9.979-3.635,14.85,0-4.691-2.729-4.684-4.688,0-7.417-4.877,3.638-9.978,3.646-14.85,0-4.699-2.726-4.69-4.69,0-7.417-4.881,3.619-9.98,3.638-14.85,0-3.619-2.335-3.612-5.074,0-7.417-2.344,3.602-5.085,3.606-7.425,0-3.619-2.335-3.612-5.074,0-7.417-2.346,3.608-5.087,3.615-7.425,0-5.433-.003-5.203-6.196,0-7.417-3.61-2.338-3.606-5.076,0-7.417-2.732,4.678-4.693,4.685-7.425,0-3.617-2.338-3.615-5.077,0-7.417.004-5.418,6.207-5.196,7.425,0,4.729,2.716,4.721,4.699,0,7.417,6.4-8.865,16.3,1.024,7.425,7.417,4.718,2.705,4.71,4.71,0,7.417,2.714-4.708,4.713-4.716,7.425,0,4.722,2.709,4.714,4.706,0,7.417,2.71-4.705,4.717-4.713,7.425,0,6.4-8.865,16.3,1.024,7.425,7.417,11.03-7.497,24.501-2.103,14.85,7.417,7.364-3.64,14.915-3.653,22.275,0,2.343-3.609,5.084-3.611,7.425,0,7.363-3.632,14.913-3.635,22.275,0-10.035-9.554,5.099-15.48,14.85-7.417-10.035-9.554,5.099-15.48,14.85-7.417-8.875-6.393,1.025-16.282,7.425-7.417-4.721-2.718-4.729-4.701,0-7.417.003-5.427,6.202-5.197,7.425,0-4.71-2.707-4.718-4.712,0-7.417-8.875-6.393,1.025-16.282,7.425-7.417-3.645-9.844-3.66-19.828,0-29.668.003-5.427,6.202-5.197,7.425,0Z"/>
      <path class="f" d="M22.275,318.934c3.615,2.336,3.609,5.075,0,7.417,2.733-4.677,4.692-4.684,7.425,0,5.433.003,5.202,6.195,0,7.417-.004,5.418-6.207,5.196-7.425,0-.052-2.456.016-4.96,0-7.417-2.46-.052-4.964.033-7.425,0v-7.417c2.735-4.669,4.69-4.674,7.425,0Z"/>
      <path class="e" d="M467.775,81.588v1.854c1.842,69.535,1.815,141.802,0,211.386v1.854h-7.425c-5.438-71.529-5.693-143.578,0-215.095h7.425Z"/>
      <path class="d" d="M467.775,294.829V83.442c3.198,1.206,1.834,7.298,1.856,10.198.481,63.623.413,127.366,0,190.99-.019,2.898,1.339,8.994-1.856,10.198Z"/>
      <path class="e" d="M81.675,363.436c12.325-3.614,24.801-3.622,37.125,0,2.341-3.611,5.082-3.608,7.425,0-.055,1.839.033,3.722,0,5.563h-51.975c-.033-1.84.055-3.724,0-5.563,2.344-3.605,5.086-3.61,7.425,0Z"/>
      <path class="e" d="M14.85,311.517c2.343-3.619,5.086-3.623,7.425,0,3.615,2.338,3.612,5.076,0,7.417-2.459,0-4.968.052-7.425,0s-4.966.033-7.425,0c-.027-2.457.043-4.96,0-7.417h7.425Z"/>
      <path class="e" d="M148.5,348.602c0,2.456.052,4.962,0,7.417s.033,4.96,0,7.417c-2.46.027-4.966-.043-7.425,0v-7.417c-3.622-2.341-3.627-5.081,0-7.417,2.341-3.611,5.082-3.608,7.425,0Z"/>
      <path class="i" d="M185.625,326.351c-.052,2.456.033,4.96,0,7.417-2.459.033-4.966-.052-7.425,0,.052-2.456-.016-4.96,0-7.417h7.425Z"/>
      <path class="i" d="M163.35,333.768v7.417c-2.46.016-4.965-.007-7.425,0,.033-2.458-.052-4.96,0-7.417,2.46-.018,4.965.008,7.425,0Z"/>
      <path class="i" d="M170.775,326.351c-.016,2.462.016,4.955,0,7.417-2.46.016-4.965-.008-7.425,0,0-2.459-.016-4.958,0-7.417,2.459-.052,4.965,0,7.425,0Z"/>
      <path class="i" d="M155.925,341.185c-.033,2.458.052,4.96,0,7.417-2.46.016-4.964-.007-7.425,0-5.433-.003-5.203-6.196,0-7.417,2.465-.008,4.96.007,7.425,0Z"/>
      <path class="i" d="M178.2,318.934c-.007,2.458.016,4.959,0,7.417h-7.425c.016-2.462-.016-4.955,0-7.417h7.425Z"/>
      <path class="i" d="M37.125,326.351c.016,2.462-.016,4.955,0,7.417h-7.425v-7.417c2.466.016,4.959-.016,7.425,0Z"/>
      <path class="i" d="M74.25,348.602c.052,2.456-.02,4.96,0,7.417-4.93-.009-9.92.033-14.85,0-.052-2.456.033-4.96,0-7.417,4.934.015,9.915-.006,14.85,0Z"/>
      <path class="i" d="M29.7,333.768v7.417c-2.459-.052-4.966.033-7.425,0-.033-2.457.052-4.961,0-7.417h7.425Z"/>
      <path class="i" d="M44.55,333.768c.016,2.462-.016,4.955,0,7.417-2.465-.007-4.96.015-7.425,0-.052-2.456.016-4.96,0-7.417,2.461,0,4.965-.016,7.425,0Z"/>
      <path class="i" d="M29.7,318.934v7.417c-2.461-.016-4.966.052-7.425,0-.016-2.458.008-4.959,0-7.417.003-5.427,6.202-5.197,7.425,0Z"/>
      <path class="i" d="M59.4,341.185c.052,2.456-.033,4.96,0,7.417-4.929-.015-9.923.085-14.85,0-.052-2.455.016-4.96,0-7.417,4.931.014,9.92-.033,14.85,0Z"/>
      <path class="e" d="M178.2,333.768c-.052,2.456.033,4.96,0,7.417-2.459.033-4.966-.052-7.425,0-.052,2.456.033,4.96,0,7.417-2.46.033-4.966-.052-7.425,0v-7.417c2.459-.016,4.967.052,7.425,0,.052-2.456-.016-4.96,0-7.417,2.459-.016,4.967.052,7.425,0Z"/>
      <path class="d" d="M467.775,304.1v-5.563l1.856.927c1.261,4.033-1.733,4.374-1.856,4.636Z"/>
      <path class="g" d="M81.675,81.588c.873-.094,1.719-.11,2.475.143,3.787,1.272,2.107,71.451,1.237,79.266l-3.712,2.178c-.002,5.427-6.202,5.195-7.425,0,0-27.169-.06-54.419,0-81.588h7.425Z"/>
      <path class="f" d="M74.25,170.593c2.339-3.617,5.081-3.612,7.425,0,4.872-3.646,9.973-3.638,14.85,0,4.319,2.956,8.021,5.166,14.85,7.417-4.699-2.726-4.69-4.69,0-7.417,16.256-5.657,40.98-6.401,29.7,7.417,2.72-4.717,4.707-4.724,7.425,0,5.433,0,5.196,6.193,0,7.417-.003,5.427-6.202,5.197-7.425,0,3.627,2.336,3.622,5.077,0,7.417,2.342-3.606,5.083-3.606,7.425,0,4.69,2.729,4.683,4.687,0,7.417,2.346-3.608,5.087-3.615,7.425,0,2.707-4.702,4.72-4.71,7.425,0,3.619,2.336,3.611,5.074,0,7.417,4.689,2.73,4.682,4.687,0,7.417,2.735-4.669,4.69-4.674,7.425,0,3.619,2.335,3.612,5.074,0,7.417,2.733-4.678,4.693-4.685,7.425,0-5.433-.003-5.202-6.195,0-7.417-5.431.003-5.192-6.194,0-7.417,2.341-3.608,5.082-3.606,7.425,0,7.358-3.657,14.909-3.635,22.275,0-6.081-3.056-5.816-26.076,0-29.668-9.852,3.644-19.848,3.644-29.7,0,5.908,1.5,5.652,20.237,0,22.251,5.433.003,5.203,6.196,0,7.417-.003,5.427-6.202,5.197-7.425,0l-7.425-7.417c-4.689-2.73-4.682-4.687,0-7.417-2.705,4.71-4.718,4.702-7.425,0-4.679-2.732-4.674-4.685,0-7.417,2.666-9.507,17.616.301,7.425,7.417,3.071-4.141,5.546-9.085,7.425-14.834,0-5.427,6.2-5.191,7.425,0-5.425-.003-5.201-6.2,0-7.417,11.397-5.684,25.651-5.417,37.125,0,1.448.397,3.568,1,3.712,2.162.587,4.725.873,36.202,0,39.636l-3.712,2.704c-6.67,5.34-15.463,5.253-22.275,0l-7.425,7.417c0-5.427,6.2-5.191,7.425,0,3.642,4.87,3.642,9.964,0,14.834,7.366-3.628,14.916-3.649,22.275,0,1.448.397,3.568,1,3.712,2.162.587,4.725.873,36.202,0,39.636l-3.712,2.704c-.918,3.615-4.327,4.851-10.226,3.709-.388,4.611-1.929,8.32-4.624,11.126,0,5.427-6.2,5.19-7.425,0-4.647-7.549-4.622-14.693,0-22.251-3.646-4.869-3.643-9.964,0-14.834-5.875-1.446-5.688-20.155,0-22.251-2.344,3.612-5.086,3.617-7.425,0,3.632,7.357,3.646,14.899,0,22.251-.003,5.427-6.202,5.197-7.425,0-3.639-7.355-3.643-14.898,0-22.251,2.733-4.677,4.692-4.683,7.425,0-3.617-2.342-3.622-5.081,0-7.417-4.714-2.71-4.722-4.709,0-7.417-2.343,3.618-5.086,3.623-7.425,0,5.421.001,5.198,6.202,0,7.417-.004,5.418-6.207,5.196-7.425,0-4.729-2.716-4.721-4.699,0-7.417-6.4,8.865-16.3-1.024-7.425-7.417-4.205,6.792-10.826,3.847-11.36-3.709-7.647-.223-10.039-7.134-3.49-11.126-2.721,4.716-4.706,4.724-7.425,0-5.433-.003-5.203-6.196,0-7.417-2.343,3.612-5.085,3.615-7.425,0-4.756,5.078-10.115,5.123-14.85,0-5.433,0-5.196-6.193,0-7.417.748-5.677,13.622-5.426,14.85,0,.003-5.427,6.202-5.197,7.425,0-4.69-2.729-4.683-4.688,0-7.417-2.344,3.605-5.086,3.61-7.425,0-4.878,3.632-9.979,3.644-14.85,0-2.344,3.613-5.087,3.619-7.425,0,4.699,2.726,4.69,4.69,0,7.417-7.361,3.637-14.911,3.626-22.275,0l-7.425-7.417c-4.77,5.007-10.1,5.051-14.85,0-5.424-.004-5.201-6.201,0-7.417,2.458-.052,4.965.015,7.425,0Z"/>
      <path class="h" d="M51.975,178.01v7.417c-2.459.016-4.967-.052-7.425,0v-7.417c2.46-.033,4.966.052,7.425,0Z"/>
      <path class="h" d="M66.825,170.593v7.417c-2.341,3.602-5.082,3.6-7.425,0,.052-2.456-.033-4.96,0-7.417,2.46-.033,4.966.052,7.425,0Z"/>
      <path class="e" d="M81.675,163.176c5.433.003,5.203,6.196,0,7.417-2.465.007-4.96-.015-7.425,0v-7.417h7.425Z"/>
      <path class="e" d="M81.675,66.754c5.433.003,5.203,6.196,0,7.417h-7.425c.007-2.462-.005-4.955,0-7.417h7.425Z"/>
      <path class="e" d="M438.075,14.834v7.417c-2.46.016-4.965.016-7.425,0,.04-2.455-.063-4.963,0-7.417h7.425Z"/>
      <path class="e" d="M215.325,14.834c.063,2.455-.04,4.961,0,7.417-2.46.016-4.965.016-7.425,0v-7.417h7.425Z"/>
      <path class="e" d="M163.35,7.417c2.458.052,4.966-.033,7.425,0,.068,2.453-.105,4.967,0,7.417h-7.425c-1.756,0-7.162.262-7.425,0v-7.417c2.452-.051,4.973-.051,7.425,0Z"/>
      <path class="i" d="M29.7,215.095v7.417c-2.459.052-4.966-.033-7.425,0,.007-2.462-.015-4.955,0-7.417.003-5.427,6.202-5.197,7.425,0Z"/>
      <path class="i" d="M22.275,222.512c-.014,4.929.006,9.905,0,14.834-2.458.052-4.965,0-7.425,0,.008-4.925-.033-9.909,0-14.834,2.459-.052,4.966.033,7.425,0Z"/>
      <path class="i" d="M14.85,237.346c-.034,19.753,0,39.583,0,59.337-2.461-.018-4.964,0-7.425,0-.048-17.28-.048-34.639,0-51.919.007-2.458-.016-4.959,0-7.417h7.425Z"/>
      <path class="e" d="M311.85,14.834c2.454.105,4.968-.068,7.425,0v7.417c-2.465-.005-4.96.009-7.425,0v-7.417Z"/>
      <path class="e" d="M334.125,14.834v7.417c-2.465.009-4.96-.005-7.425,0v-7.417c2.457-.068,4.971.105,7.425,0Z"/>
      <path class="h" d="M393.525,7.417v7.417h-7.425c-.052-2.455,0-4.961,0-7.417,2.453-.051,4.972-.051,7.425,0Z"/>
      <path class="i" d="M259.875,7.417c0,2.457.052,4.962,0,7.417h-7.425v-7.417c2.46.018,4.967-.052,7.425,0Z"/>
      <path class="k" d="M460.35,81.588c-.139,71.666.186,143.429,0,215.095-.006,2.461.015,4.956,0,7.417-1.138,3.229-3.613,5.701-7.425,7.417-86.589.466-173.284-.348-259.875,0-.033-2.455.052-4.963,0-7.417l7.425-7.417c.085-4.923-.06-9.91,0-14.834h14.85v-44.502c-7.404-.019-14.871.026-22.275,0v-14.834c-5.424-.004-5.201-6.201,0-7.417,7.399-.128,14.874.092,22.275,0v-44.502c-12.346.156-24.781-.214-37.125,0l-7.425,7.417c-.085,4.923.06,9.91,0,14.834-2.459.033-4.966-.052-7.425,0-.052-2.457.033-4.959,0-7.417h-7.425l-7.425-7.417c-2.458-.052-4.966.015-7.425,0-.052-2.456.033-4.96,0-7.417-9.88-.015-19.82.02-29.7,0-3.149-2.208-5.624-4.68-7.425-7.417-1.219,3.213-3.694,5.685-7.425,7.417-4.935.006-9.915-.015-14.85,0v-89.005h378.675Z"/>
      <path class="i" d="M237.6,44.502c.033-4.925-.023-9.909,0-14.834h44.55c.092,7.392-.128,14.86,0,22.251,3.313,1.936,5.788,4.408,7.425,7.417.052,2.456-.033,4.961,0,7.417,4.929-.06,9.922.085,14.85,0,3.241-1.917,3.241-4.389,0-7.417,0-1.754.263-7.155,0-7.417-.525-.524-12.43,0-14.85,0-.04-7.395.029-14.856,0-22.251h37.125c.06,4.923-.085,9.912,0,14.834,3.313,1.936,5.788,4.408,7.425,7.417.016,2.456-.052,4.962,0,7.417l7.425,7.417c4.928.085,9.921-.06,14.85,0v-14.834h-14.85c-.068-2.453.105-4.967,0-7.417-3.278-1.879-5.753-4.351-7.425-7.417.052-2.456-.033-4.961,0-7.417h44.55v22.251c2.459.027,4.966-.043,7.425,0,.029,4.925-.021,9.909,0,14.834,4.929-.06,9.922.085,14.85,0,1.938-3.309,4.413-5.782,7.425-7.417-2.784-1.46-5.259-3.932-7.425-7.417-4.928-.085-9.922.085-14.85,0-.044-7.395.032-14.856,0-22.251h37.125v14.834c.263.262,5.67,0,7.425,0,.035,4.923-.025,9.911,0,14.834h7.425v7.417h14.85v-14.834h-14.85c-.068-2.452.105-4.968,0-7.417-3.28-1.878-5.755-4.35-7.425-7.417.052-2.454-.033-4.962,0-7.417h29.7v44.502h-207.9c-5.433-.003-5.203-6.196,0-7.417,2.458-.052,4.966.033,7.425,0v-14.834h-14.85v-7.417c-.263-.262-5.67,0-7.425,0Z"/>
      <path class="i" d="M178.2,29.668c3.232,1.137,5.707,3.609,7.425,7.417.128,7.391-.128,14.861,0,22.251l7.425,7.417c4.927.085,9.922-.06,14.85,0v-14.834h-14.85v-22.251h37.125c.06,4.923-.085,9.912,0,14.834,3.313,1.936,5.788,4.408,7.425,7.417.033,4.925-.023,9.909,0,14.834,2.459.033,4.967-.052,7.425,0,5.433.003,5.203,6.196,0,7.417h-89.1c-5.433-.003-5.203-6.196,0-7.417,2.458-.052,4.966.033,7.425,0v-14.834c-4.93-.025-9.92.035-14.85,0-3.232-1.137-5.707-3.609-7.425-7.417.033-4.924-.023-9.91,0-14.834,12.345.156,24.782-.214,37.125,0Z"/>
      <path class="i" d="M96.525,29.668c12.343-.214,24.78.156,37.125,0v22.251c2.459.033,4.967-.052,7.425,0,.033,4.924-.023,9.91,0,14.834,2.459.033,4.967-.052,7.425,0,5.433.003,5.203,6.196,0,7.417h-66.825v-7.417c0-7.391-.128-14.863,0-22.251.003-5.427,6.202-5.197,7.425,0-.04,7.394.029,14.857,0,22.251h22.275v-14.834h-14.85c-.525-.524,0-12.417,0-14.834-5.424-.004-5.201-6.201,0-7.417Z"/>
      <path class="h" d="M334.125,37.085h7.425c.068,2.453-.105,4.967,0,7.417h-7.425c.016-2.456-.052-4.962,0-7.417Z"/>
      <path class="h" d="M334.125,44.502c-.016,2.457-.016,4.96,0,7.417h-7.425c-.027-2.457.043-4.961,0-7.417h7.425Z"/>
      <path class="h" d="M89.1,37.085c-.052,2.455.013,4.961,0,7.417h-7.425c.043-2.457-.027-4.96,0-7.417.263-.262,5.67,0,7.425,0Z"/>
      <path class="h" d="M96.525,29.668v7.417h-7.425c.052-2.455-.033-4.961,0-7.417,2.459-.027,4.966.043,7.425,0Z"/>
      <path class="h" d="M178.2,29.668c2.459.043,4.966-.027,7.425,0,.027,2.457-.043,4.961,0,7.417h-7.425v-7.417Z"/>
      <path class="e" d="M430.65,37.085h7.425c.068,2.452-.105,4.968,0,7.417h-7.425c-.018-2.453-.052-4.965,0-7.417Z"/>
      <path class="h" d="M252.45,66.754v7.417h-7.425v-7.417c2.452.051,4.973.051,7.425,0Z"/>
      <path class="h" d="M155.925,66.754v7.417h-7.425v-7.417c2.452.051,4.973.051,7.425,0Z"/>
      <path class="h" d="M185.625,59.337h7.425v7.417c-2.459-.043-4.966.027-7.425,0-.027-2.457.043-4.961,0-7.417Z"/>
      <path class="e" d="M289.575,51.919c.013,2.456-.052,4.962,0,7.417h-7.425c-.027-2.457.043-4.961,0-7.417h7.425Z"/>
      <path class="e" d="M141.075,44.502h7.425v7.417c-2.459-.018-4.967.052-7.425,0-.016-2.456-.016-4.961,0-7.417Z"/>
      <path class="e" d="M237.6,44.502c-.016,2.457-.016,4.96,0,7.417h-7.425c-.027-2.457.043-4.961,0-7.417h7.425Z"/>
      <path class="h" d="M193.05,296.683c4.688,2.729,4.681,4.688,0,7.417-2.459.052-4.965-.033-7.425,0,.004-2.462-.003-4.955,0-7.417.003-5.427,6.202-5.197,7.425,0Z"/>
      <path class="i" d="M185.625,304.1c-.004,2.462.007,4.955,0,7.417-.003,5.427-6.202,5.197-7.425,0,.004-2.462-.003-4.955,0-7.417,2.459-.052,4.965.033,7.425,0Z"/>
      <path class="g" d="M460.35,304.1c-.015,2.455.052,4.964,0,7.417-2.457.051-4.967-.013-7.425,0v-7.417h7.425Z"/>
      <path class="h" d="M185.625,311.517c-.007,2.458.016,4.959,0,7.417h-7.425c.007-2.462-.004-4.955,0-7.417h7.425Z"/>
      <path class="i" d="M118.8,356.019c5.433.003,5.203,6.196,0,7.417-12.351.02-24.774.034-37.125,0-5.433-.003-5.203-6.196,0-7.417,12.353.014,24.772,0,37.125,0Z"/>
      <path class="h" d="M81.675,356.019v7.417c-2.461-.007-4.965.016-7.425,0-.074-2.453.02-4.962,0-7.417,2.465.004,4.96-.003,7.425,0Z"/>
      <path class="h" d="M126.225,356.019c-.02,2.456.074,4.964,0,7.417-2.465.007-4.96-.004-7.425,0v-7.417h7.425Z"/>
      <path class="i" d="M141.075,348.602c-.018,2.457,0,4.959,0,7.417h-14.85c.02-2.457-.052-4.961,0-7.417,4.935-.004,9.915.008,14.85,0Z"/>
      <path class="h" d="M22.275,296.683c3.619,2.338,3.617,5.077,0,7.417-.002,5.423-6.204,5.194-7.425,0v-7.417c2.461.018,4.966-.052,7.425,0Z"/>
      <path class="i" d="M22.275,304.1c.003,2.462-.004,4.955,0,7.417-2.46-.018-4.965,0-7.425,0v-7.417h7.425Z"/>
      <path class="h" d="M29.7,311.517c.016,2.459,0,4.958,0,7.417h-7.425c-.008-2.462.004-4.955,0-7.417,2.46.018,4.967-.052,7.425,0Z"/>
      <path class="h" d="M148.5,341.185v7.417c-2.465.007-4.96-.004-7.425,0,.018-2.457-.052-4.961,0-7.417,2.46-.018,4.965.008,7.425,0Z"/>
      <path class="k" d="M111.375,185.427l7.425,7.417c4.927.085,9.921-.017,14.85,0,2.958.569,5.433,3.042,7.425,7.417,2.458.052,4.965-.016,7.425,0,.052,2.457-.033,4.959,0,7.417h7.425v7.417c2.461.033,4.965-.052,7.425,0,.052,2.457-.033,4.959,0,7.417,2.461.033,4.965-.052,7.425,0,.016,2.457-.052,4.961,0,7.417l7.425,7.417c0,7.398.01,14.853,0,22.251,3.64,4.872,3.646,9.966,0,14.834-.019,9.869.011,19.799,0,29.668-2.459.052-4.965-.033-7.425,0-.033,2.457.052,4.961,0,7.417-.57,2.955-3.045,5.427-7.425,7.417-.052,2.457.016,4.959,0,7.417-2.46.052-4.964-.033-7.425,0-.033,2.458.052,4.96,0,7.417-4.93.035-9.919-.025-14.85,0-.033,2.457.052,4.961,0,7.417-4.93.035-9.92-.025-14.85,0-.033,2.457.052,4.961,0,7.417-7.406.006-14.869.012-22.275,0l-1.655-1.843c11.579-12.478-4.49-14.449-2.057-.595l-3.712,2.438c-7.406-.018-14.868.009-22.275,0-.052-2.456.033-4.96,0-7.417-4.931-.023-9.92.033-14.85,0-.052-2.456.033-4.96,0-7.417-2.46-.033-4.966.052-7.425,0-2.957-.57-5.432-3.042-7.425-7.417-3.312-1.937-5.787-4.41-7.425-7.417-.052-2.456.033-4.96,0-7.417-2.46-.033-4.966.052-7.425,0-.016-2.458.052-4.96,0-7.417l-7.425-7.417c-.026-7.395.014-14.856,0-22.251l1.973-3.709c12.906,2.706,13.372-9.872.468-7.417l-2.441-3.709c.018-7.398-.008-14.853,0-22.251,2.459-.052,4.965.033,7.425,0,.525-.524,0-12.417,0-14.834,2.459-.052,4.966.033,7.425,0,.033-2.457-.052-4.961,0-7.417,2.46-.052,4.964.033,7.425,0,.033-2.458-.052-4.96,0-7.417,2.458-.052,4.966.033,7.425,0,.033-2.457-.052-4.961,0-7.417,2.46,0,4.966.052,7.425,0l7.425-7.417c4.877-3.637,9.978-3.647,14.85,0,2.344-3.613,5.087-3.619,7.425,0,4.344,2.38,8.056,5.169,11.137,8.368,1.356-4.141-2.357-6.931-11.137-8.368-4.711-2.722-4.7-4.693,0-7.417,7.403-.021,14.872,0,22.275,0Z"/>
      <path class="e" d="M103.95,170.593c2.343-3.611,5.084-3.613,7.425,0,.052,2.456-.033,4.96,0,7.417-4.93-.033-9.919.023-14.85,0v-7.417c2.342-3.614,5.083-3.614,7.425,0Z"/>
      <path class="i" d="M81.675,178.01c5.433,0,5.196,6.193,0,7.417-4.874,3.638-9.974,3.633-14.85,0-3.605-2.342-3.609-5.08,0-7.417,4.929.017,9.923-.085,14.85,0Z"/>
      <path class="h" d="M118.8,178.01c5.433.003,5.203,6.196,0,7.417-.003,5.42-6.206,5.196-7.425,0-.052-2.456.033-4.96,0-7.417,2.46.016,4.965-.008,7.425,0Z"/>
      <path class="h" d="M81.675,178.01c2.46.043,4.965-.027,7.425,0,.033,2.457-.052,4.961,0,7.417-2.341,3.615-5.082,3.613-7.425,0v-7.417Z"/>
      <path class="h" d="M44.55,192.844c5.433.003,5.203,6.196,0,7.417,0,2.457.052,4.961,0,7.417-2.458.052-4.966-.016-7.425,0-.016,2.457.052,4.961,0,7.417-2.459.052-4.965,0-7.425,0h-7.425c.015-2.457-.052-4.962,0-7.417,2.458-.052,4.966.016,7.425,0,2.338-3.615,5.079-3.608,7.425,0-3.612-2.343-3.619-5.082,0-7.417.016-2.457-.052-4.961,0-7.417,2.459-.052,4.965.016,7.425,0Z"/>
      <path class="i" d="M59.4,185.427c5.433.003,5.203,6.196,0,7.417-2.465.004-4.96-.007-7.425,0,.018-2.457,0-4.96,0-7.417,2.46-.016,4.965.007,7.425,0Z"/>
      <path class="i" d="M51.975,192.844c-.018,2.457.052,4.962,0,7.417h-7.425v-7.417c2.461-.016,4.964.007,7.425,0Z"/>
      <path class="i" d="M37.125,200.261c-.016,2.462.016,4.955,0,7.417-2.465.016-4.96-.016-7.425,0,.04-2.457-.063-4.961,0-7.417,2.458-.063,4.966.04,7.425,0Z"/>
      <path class="e" d="M66.825,178.01c0,2.459.018,4.958,0,7.417-2.341,3.611-5.082,3.609-7.425,0,0-2.457-.052-4.962,0-7.417,2.461-.015,4.964-.008,7.425,0Z"/>
      <path class="f" d="M319.275,207.678c-.214-12.329.156-24.754,0-37.085h44.55c-.156,12.331.214,24.756,0,37.085,0,5.427-6.2,5.191-7.425,0-3.648-9.842-3.648-19.826,0-29.668-3.059,6.074-26.103,5.81-29.7,0,4.5,3.115,4.366,21.051,3.647,27.289l-3.647,2.38c9.852-3.644,19.848-3.644,29.7,0,5.425.003,5.201,6.2,0,7.417-9.843.17-19.857.17-29.7,0-5.433,0-5.197-6.194,0-7.417-.003,5.42-6.206,5.196-7.425,0Z"/>
      <path class="f" d="M252.45,207.678c-2.458-.043-4.966.027-7.425,0v-37.085h44.55c-.156,12.331.214,24.756,0,37.085,0,5.427-6.2,5.191-7.425,0-3.648-9.842-3.648-19.826,0-29.668-3.059,6.074-26.103,5.81-29.7,0,5.562,8.742,5.392,20.769,0,29.668,9.339-5.204,20.403-5.313,29.7,0,5.425.003,5.201,6.2,0,7.417-9.87.171-19.829-.124-29.7,0-.027-2.456.043-4.962,0-7.417Z"/>
      <path class="f" d="M178.2,103.839c12.342-.214,24.781.156,37.125,0v44.502h-37.125c-.027-2.456.043-4.962,0-7.417,8.909-5.386,20.949-5.556,29.7,0-6.081-3.056-5.816-26.076,0-29.668-3.119,4.495-21.074,4.361-27.318,3.643l-2.382-3.643c5.318,9.287,5.209,20.339,0,29.668-2.458-.043-4.966.027-7.425,0,.124-9.861-.171-19.809,0-29.668,0-5.427,6.2-5.191,7.425,0-5.425-.003-5.201-6.2,0-7.417Z"/>
      <path class="f" d="M319.275,274.432c-.214-12.329.156-24.754,0-37.085h44.55c-.156,12.331.214,24.756,0,37.085,0,5.427-6.2,5.191-7.425,0-3.648-9.842-3.648-19.826,0-29.668-3.059,6.074-26.103,5.81-29.7,0,4.5,3.115,4.366,21.051,3.647,27.289l-3.647,2.38c9.852-3.644,19.848-3.644,29.7,0,5.425.003,5.201,6.2,0,7.417-9.843.17-19.857.17-29.7,0-5.433,0-5.197-6.194,0-7.417-.003,5.42-6.206,5.196-7.425,0Z"/>
      <path class="f" d="M252.45,140.924c-2.458-.043-4.966.027-7.425,0v-37.085h44.55c-.156,12.331.214,24.756,0,37.085,0,5.427-6.2,5.191-7.425,0-3.648-9.842-3.648-19.826,0-29.668-3.059,6.074-26.103,5.81-29.7,0,5.562,8.742,5.392,20.769,0,29.668,9.339-5.204,20.403-5.313,29.7,0,5.425.003,5.201,6.2,0,7.417-9.87.171-19.829-.124-29.7,0-.027-2.456.043-4.962,0-7.417Z"/>
      <path class="f" d="M430.65,237.346c5.433,0,5.197,6.194,0,7.417.003-5.42,6.206-5.196,7.425,0,.171,9.859-.124,19.807,0,29.668-2.459.027-4.967-.043-7.425,0-5.209-9.329-5.318-20.381,0-29.668-9.852,3.644-19.848,3.644-29.7,0,6.081,3.056,5.816,26.076,0,29.668,8.751-5.556,20.791-5.386,29.7,0-.043,2.455.027,4.961,0,7.417h-37.125v-44.502c12.344.156,24.783-.214,37.125,0Z"/>
      <path class="f" d="M319.275,140.924c-.214-12.329.156-24.754,0-37.085h44.55v37.085c-2.459.027-4.967-.043-7.425,0-5.392-8.899-5.562-20.926,0-29.668l-2.117,3.709c-6.122,1.058-24.945,1.672-27.583-3.709,3.648,9.842,3.648,19.826,0,29.668,9.297-5.313,20.361-5.204,29.7,0-.043,2.455.027,4.961,0,7.417-9.871-.124-19.83.171-29.7,0-5.433,0-5.197-6.194,0-7.417-.003,5.42-6.206,5.196-7.425,0Z"/>
      <path class="f" d="M430.65,103.839c5.433,0,5.197,6.194,0,7.417.003-5.42,6.206-5.196,7.425,0,.171,9.86-.124,19.807,0,29.668-2.459.027-4.967-.043-7.425,0-5.209-9.329-5.318-20.381,0-29.668l-1.731,3.684-25.07-.374c1.811,8.905-.344,17.702-2.899,26.358,9.297-5.313,20.361-5.204,29.7,0-.043,2.456.027,4.961,0,7.417-9.872-.124-19.83.171-29.7,0-5.433,0-5.197-6.194,0-7.417-.003,5.42-6.206,5.196-7.425,0-.214-12.329.156-24.754,0-37.085,12.345.156,24.782-.214,37.125,0Z"/>
      <path class="f" d="M430.65,170.593c5.433,0,5.197,6.194,0,7.417.003-5.42,6.206-5.196,7.425,0,.171,9.86-.124,19.807,0,29.668-2.459.027-4.967-.043-7.425,0-5.209-9.329-5.318-20.381,0-29.668-9.057,2.936-18.3,4.439-27.587,2.11,2.331,9.278.826,18.511-2.113,27.558,9.297-5.313,20.361-5.204,29.7,0-.043,2.456.027,4.961,0,7.417-9.872-.124-19.83.171-29.7,0-5.433,0-5.197-6.194,0-7.417-.003,5.42-6.206,5.196-7.425,0-.214-12.329.156-24.754,0-37.085,12.345.156,24.782-.214,37.125,0Z"/>
      <path class="f" d="M252.45,237.346c12.343-.214,24.78.156,37.125,0-.156,12.332.214,24.756,0,37.085,0,5.427-6.2,5.191-7.425,0l-3.688-1.729.374-25.043c-8.914,1.809-17.721-.343-26.386-2.896,5.318,9.287,5.209,20.339,0,29.668,9.339-5.204,20.403-5.313,29.7,0,5.425.003,5.201,6.2,0,7.417-9.87.171-19.828-.124-29.7,0-.027-2.456.043-4.961,0-7.417-2.458-.043-4.966.027-7.425,0,.124-9.861-.171-19.809,0-29.668,0-5.427,6.2-5.191,7.425,0-5.425-.003-5.201-6.2,0-7.417Z"/>
      <path class="f" d="M111.375,140.924c7.363-3.603,14.912-3.603,22.275,0,2.733-4.682,4.692-4.676,7.425,0-.052,2.455.033,4.961,0,7.417h-37.125c-.033-2.456.052-4.962,0-7.417,2.733-4.676,4.692-4.682,7.425,0Z"/>
      <path class="f" d="M103.95,111.256c.043-2.456-.027-4.96,0-7.417h37.125c.033,2.456-.052,4.962,0,7.417-2.733,4.676-4.692,4.682-7.425,0-7.363,3.603-14.912,3.603-22.275,0-2.733,4.682-4.692,4.676-7.425,0Z"/>
      <path class="e" d="M141.075,111.256c2.458.052,4.966-.033,7.425,0v29.668c-2.459.033-4.967-.052-7.425,0-4.682-2.73-4.688-4.688,0-7.417-3.613-4.871-3.613-9.963,0-14.834-4.688-2.729-4.682-4.687,0-7.417Z"/>
      <path class="e" d="M103.95,111.256c4.993,7.294,5.007,15.042,0,22.251.003-5.427,6.202-5.197,7.425,0,5.433.003,5.203,6.196,0,7.417-2.459-.013-4.967.052-7.425,0-4.72-2.705-4.712-4.71,0-7.417-.004,5.418-6.207,5.196-7.425,0-.128-7.391.092-14.859,0-22.251,2.459-.033,4.967.052,7.425,0Z"/>
      <path class="e" d="M148.5,178.01c2.459.052,4.966-.033,7.425,0,.033,2.457-.052,4.961,0,7.417s0,4.961,0,7.417c-2.338,3.619-5.081,3.614-7.425,0-3.627-2.336-3.622-5.076,0-7.417v-7.417Z"/>
      <path class="e" d="M289.575,207.678c-.043,2.455.027,4.961,0,7.417-2.459.027-4.967-.043-7.425,0v-7.417h7.425Z"/>
      <path class="j" d="M326.7,207.678v7.417c-2.458-.043-4.966.027-7.425,0-.027-2.456.043-4.962,0-7.417h7.425Z"/>
      <path class="j" d="M363.825,207.678c-.043,2.455.027,4.961,0,7.417-2.459.027-4.967-.043-7.425,0v-7.417h7.425Z"/>
      <path class="e" d="M400.95,207.678v7.417c-2.458-.043-4.966.027-7.425,0-.027-2.456.043-4.961,0-7.417h7.425Z"/>
      <path class="e" d="M193.05,215.095v7.417h-7.425c.052-2.456-.033-4.96,0-7.417,2.46-.027,4.966.043,7.425,0Z"/>
      <path class="e" d="M430.65,170.593c2.458.043,4.966-.027,7.425,0,.027,2.456-.043,4.961,0,7.417h-7.425v-7.417Z"/>
      <path class="e" d="M252.45,237.346v7.417h-7.425c.043-2.456-.027-4.961,0-7.417,2.459-.027,4.967.043,7.425,0Z"/>
      <path class="e" d="M430.65,237.346c2.458.043,4.966-.027,7.425,0,.027,2.456-.043,4.962,0,7.417h-7.425v-7.417Z"/>
      <path class="j" d="M178.2,170.593v7.417h-7.425c.043-2.457-.027-4.96,0-7.417,2.46-.027,4.966.043,7.425,0Z"/>
      <path class="j" d="M103.95,163.176c1.755,0,7.162-.262,7.425,0,.033,2.457-.052,4.961,0,7.417-2.465-.005-4.96.003-7.425,0-5.433-.003-5.203-6.196,0-7.417Z"/>
      <path class="g" d="M103.95,163.176v7.417c-2.465-.003-4.96-.003-7.425,0,0-1.753-.263-7.155,0-7.417h7.425Z"/>
      <path class="e" d="M400.95,140.924v7.417c-2.458-.043-4.966.027-7.425,0-.027-2.456.043-4.961,0-7.417h7.425Z"/>
      <path class="j" d="M326.7,140.924v7.417c-2.458-.043-4.966.027-7.425,0-.027-2.456.043-4.962,0-7.417h7.425Z"/>
      <path class="e" d="M289.575,140.924c-.043,2.455.027,4.961,0,7.417-2.459.027-4.967-.043-7.425,0v-7.417h7.425Z"/>
      <path class="g" d="M103.95,133.507c.013,2.456-.052,4.962,0,7.417-2.458-.052-4.966.033-7.425,0-.027-2.457.043-4.961,0-7.417h7.425Z"/>
      <path class="e" d="M289.575,274.432c-.043,2.456.027,4.961,0,7.417-2.459.027-4.967-.043-7.425,0v-7.417h7.425Z"/>
      <path class="g" d="M326.7,274.432v7.417c-2.458-.043-4.966.027-7.425,0-.027-2.456.043-4.962,0-7.417h7.425Z"/>
      <path class="e" d="M430.65,103.839c2.458.043,4.966-.027,7.425,0,.027,2.456-.043,4.961,0,7.417h-7.425v-7.417Z"/>
      <path class="j" d="M363.825,274.432c-.043,2.455.027,4.961,0,7.417-2.459.027-4.967-.043-7.425,0v-7.417h7.425Z"/>
      <path class="e" d="M200.475,296.683c-.043,2.457.027,4.96,0,7.417-2.46.033-4.966-.052-7.425,0-.052-2.454.013-4.962,0-7.417h7.425Z"/>
      <path class="g" d="M178.2,103.839v7.417h-7.425c.043-2.455-.027-4.961,0-7.417,2.459-.027,4.967.043,7.425,0Z"/>
      <path class="e" d="M408.375,59.337v7.417c-2.459.027-4.966-.043-7.425,0v-7.417c.003-5.42,6.206-5.196,7.425,0Z"/>
      <path class="h" d="M334.125,59.337h7.425v7.417c-2.459-.043-4.966.027-7.425,0-.033-2.456.052-4.961,0-7.417Z"/>
      <path class="h" d="M304.425,59.337h7.425v7.417c-2.459.027-4.966-.043-7.425,0v-7.417Z"/>
      <path class="h" d="M400.95,51.919c2.459.043,4.966-.027,7.425,0,.263.262,0,5.664,0,7.417h-7.425v-7.417Z"/>
      <path class="i" d="M193.05,274.432c.009,7.393-.04,14.858,0,22.251h-7.425c.008-7.396-.022-14.856,0-22.251.003-5.427,6.202-5.197,7.425,0Z"/>
      <path class="e" d="M22.275,296.683c2.46.052,4.964-.033,7.425,0,.033,2.458-.052,4.96,0,7.417h-7.425c-.003-2.462.009-4.955,0-7.417Z"/>
      <path class="f" d="M118.8,259.597c.052-2.457-.033-4.96,0-7.417h7.425v-7.417h7.425v-7.417h7.425v-7.417h7.425v14.834h-7.425v7.417h-7.425v7.417c-2.46.033-4.966-.052-7.425,0-2.722,4.702-4.701,4.691-7.425,0,4.7,2.724,4.711,4.695,0,7.417-2.712,4.717-4.711,4.708-7.425,0,4.696,2.721,4.707,4.698,0,7.417-.052,2.457.033,4.96,0,7.417h-14.85c-.263-.262,0-5.663,0-7.417-4.929.085-9.92-.06-14.85,0v-7.417c-2.457-.068-4.971.105-7.425,0-5.433-.003-5.203-6.196,0-7.417-2.708,4.701-4.719,4.709-7.425,0-5.433-.003-5.203-6.196,0-7.417h7.425c.263.262,0,5.663,0,7.417,4.931.035,9.918-.025,14.85,0v7.417c2.46.033,4.966-.052,7.425,0,5.433.003,5.203,6.196,0,7.417,1.938-3.309,4.413-5.782,7.425-7.417,2.461.016,4.964.016,7.425,0,.052-2.457-.033-4.96,0-7.417,2.46-.033,4.966.052,7.425,0Z"/>
      <path class="i" d="M22.275,259.597h14.85v14.834h-14.85c-.009-4.925-.012-9.909,0-14.834Z"/>
      <path class="i" d="M89.1,192.844c4.931.033,9.919-.023,14.85,0v14.834h-7.425v-7.417h-7.425c-.033-2.457.052-4.961,0-7.417Z"/>
      <polygon class="i" points="170.775 259.597 170.775 274.432 155.925 274.432 155.925 267.015 163.35 267.015 163.35 259.597 170.775 259.597"/>
      <path class="i" d="M96.525,348.602v-14.834h14.85v7.417l-7.425,7.417c-2.465-.004-4.96.006-7.425,0Z"/>
      <path class="e" d="M185.625,259.597c3.643,4.872,3.65,9.967,0,14.834h-7.425c.009-4.929-.006-9.905,0-14.834h7.425Z"/>
      <path class="f" d="M81.675,185.427c5.433.001,5.199,6.193,0,7.417-4.935-.016-9.915.007-14.85,0-4.683-2.73-4.69-4.688,0-7.417,4.934-.008,9.916.004,14.85,0Z"/>
      <path class="e" d="M66.825,192.844c-.052,2.457.033,4.959,0,7.417-2.461.033-4.965-.052-7.425,0v-7.417c2.341-3.615,5.083-3.615,7.425,0Z"/>
      <path class="e" d="M141.075,192.844v7.417c-2.459-.052-4.965.033-7.425,0v-7.417c2.465.008,4.96-.005,7.425,0Z"/>
      <path class="i" d="M133.65,178.01c5.433.003,5.203,6.196,0,7.417h-14.85v7.417c-2.459-.043-4.965.027-7.425,0-.033-2.457.052-4.961,0-7.417h7.425v-7.417c4.934.016,9.916-.015,14.85,0Z"/>
      <path class="e" d="M89.1,185.427c.052,2.457-.052,4.96,0,7.417-2.461-.016-4.964.008-7.425,0v-7.417c2.465-.002,4.96.007,7.425,0Z"/>
      <path class="e" d="M178.2,229.929c5.43.003,5.202,6.197,0,7.417-2.459-.052-4.965.033-7.425,0-.033-2.457.052-4.961,0-7.417h7.425Z"/>
      <path class="h" d="M66.825,252.18v7.417c-2.459-.052-4.965.033-7.425,0v-7.417c.263-.262,5.669,0,7.425,0Z"/>
      <path class="i" d="M74.25,259.597v7.417c-2.454-.105-4.968.068-7.425,0-.263-.262,0-5.663,0-7.417,2.459.052,4.965-.018,7.425,0Z"/>
      <path class="e" d="M126.225,259.597v7.417c-2.46.033-4.966-.052-7.425,0,.052-2.457-.052-4.96,0-7.417,2.459-.052,4.966.052,7.425,0Z"/>
      <path class="e" d="M103.95,267.015v7.417c-2.461.027-4.965-.043-7.425,0v-7.417c2.459.052,4.965-.016,7.425,0Z"/>
      <path class="i" d="M118.8,267.015c-.052,2.457.033,4.96,0,7.417h-7.425c.052-2.457-.052-4.96,0-7.417,2.46-.016,4.966.052,7.425,0Z"/>
      <path class="e" d="M170.775,311.517c-.052,2.456.016,4.96,0,7.417h-7.425c.052-2.457-.033-4.959,0-7.417h7.425Z"/>
      <path class="h" d="M37.125,318.934h7.425c.033,2.457-.052,4.961,0,7.417-2.459-.052-4.964.016-7.425,0-.016-2.457.052-4.961,0-7.417Z"/>
      <path class="e" d="M44.55,326.351c2.46.052,4.964-.033,7.425,0v7.417c-2.458-.052-4.965.016-7.425,0-.016-2.457.052-4.962,0-7.417Z"/>
      <path class="h" d="M66.825,185.427c-.018,2.458.052,4.96,0,7.417-2.465-.003-4.96-.004-7.425,0v-7.417c2.465-.007,4.96.004,7.425,0Z"/>
      <rect class="i" x="200.475" y="244.763" width="7.425" height="29.668"/>
      <path class="i" d="M193.05,237.346v22.251c-.003,5.427-6.202,5.197-7.425,0,.006-7.396-.021-14.856,0-22.251,2.465.015,4.96-.009,7.425,0Z"/>
      <path class="h" d="M193.05,259.597c0,4.928-.006,9.907,0,14.834h-7.425c.015-4.929-.004-9.905,0-14.834h7.425Z"/>
      <path class="i" d="M178.2,178.01h29.7v29.668c-7.406.019-14.87-.026-22.275,0-3.232-1.137-5.707-3.609-7.425-7.417v-22.251Z"/>
      <path class="h" d="M178.2,200.261h7.425v7.417c-2.464.009-4.961,0-7.425,0v-7.417Z"/>
      <path class="i" d="M163.35,192.844c.052,2.457-.016,4.959,0,7.417-2.458-.052-4.965.016-7.425,0-5.433-.003-5.203-6.196,0-7.417,2.459-.016,4.967.052,7.425,0Z"/>
      <path class="i" d="M163.35,200.261c2.459.052,4.965-.033,7.425,0,.033,2.457-.052,4.961,0,7.417h7.425v7.417c-.003,5.427-6.202,5.197-7.425,0-4.689-2.729-4.682-4.687,0-7.417-.003,5.427-6.202,5.197-7.425,0-.016-2.463.016-4.954,0-7.417Z"/>
      <path class="h" d="M178.2,215.095v7.417c-2.461-.018-4.966.052-7.425,0-.016-2.462.016-4.955,0-7.417h7.425Z"/>
      <path class="i" d="M185.625,222.512c-.052,2.456.015,4.96,0,7.417-.003,5.427-6.202,5.197-7.425,0v-7.417c2.461.018,4.964,0,7.425,0Z"/>
      <path class="i" d="M326.7,207.678c0-3.173-1.485-29.668,0-29.668h29.7v29.668h-29.7Z"/>
      <path class="i" d="M252.45,207.678c-.171-9.859.124-19.807,0-29.668h29.7v29.668c-9.868,0-19.836.171-29.7,0Z"/>
      <path class="i" d="M178.2,111.256c3.177,0,29.7-1.483,29.7,0v29.668c-9.871-.124-19.83.171-29.7,0-.171-9.853,0-19.811,0-29.668Z"/>
      <path class="i" d="M326.7,274.432c0-3.173-1.485-29.668,0-29.668h29.7v29.668h-29.7Z"/>
      <path class="i" d="M252.45,140.924c-.171-9.859.124-19.807,0-29.668h29.7v29.668c-9.868,0-19.836.171-29.7,0Z"/>
      <path class="i" d="M430.65,244.763c0,9.857.171,19.815,0,29.668-9.87.171-19.829-.124-29.7,0v-29.668h29.7Z"/>
      <path class="i" d="M326.7,140.924v-29.668h29.7c-.124,9.861.171,19.809,0,29.668-9.864.171-19.832,0-29.7,0Z"/>
      <path class="i" d="M430.65,111.256c0,9.857.171,19.814,0,29.668-9.864.171-19.832,0-29.7,0v-29.668c1.05-1.049,25.317,0,29.7,0Z"/>
      <path class="i" d="M430.65,178.01c0,9.857.171,19.814,0,29.668-9.864.171-19.832,0-29.7,0v-29.668h29.7Z"/>
      <path class="i" d="M252.45,244.763h29.7c1.05,1.049,0,25.29,0,29.668-9.868,0-19.836.171-29.7,0-.171-9.854,0-19.811,0-29.668Z"/>
      <path class="i" d="M133.65,111.256c3.232,1.137,5.707,3.609,7.425,7.417.029,4.923.029,9.911,0,14.834-1.138,3.229-3.613,5.701-7.425,7.417-7.401.04-14.874.04-22.275,0v-7.417c-5.908-1.5-5.652-20.237,0-22.251,7.401-.04,14.874-.04,22.275,0Z"/>
      <path class="h" d="M141.075,133.507c-.015,2.456.052,4.962,0,7.417-2.458.052-4.966-.013-7.425,0v-7.417h7.425Z"/>
      <path class="h" d="M111.375,111.256v22.251h-7.425c-.04-7.386-.128-14.868,0-22.251,2.458-.052,4.966.013,7.425,0Z"/>
      <path class="h" d="M141.075,111.256c.052,2.455-.015,4.961,0,7.417h-7.425v-7.417c2.459.013,4.967-.052,7.425,0Z"/>
      <path class="e" d="M141.075,178.01c.052,2.456-.018,4.96,0,7.417h-7.425v-7.417c2.465.007,4.96-.015,7.425,0Z"/>
      <path class="h" d="M185.625,229.929c-.015,2.462.007,4.955,0,7.417-2.46-.015-4.967.052-7.425,0v-7.417h7.425Z"/>
      <path class="i" d="M148.5,185.427c0,2.459-.018,4.959,0,7.417-2.46.007-4.965.005-7.425,0,0-2.458.018-4.959,0-7.417h7.425Z"/>
      <path class="h" d="M155.925,192.844v7.417c-2.465-.016-4.96.016-7.425,0-.052-2.457.018-4.959,0-7.417,2.46-.007,4.965.016,7.425,0Z"/>
      <path class="e" d="M170.775,207.678c.052,2.456-.016,4.96,0,7.417-2.46,0-4.966.052-7.425,0-.052-2.457.016-4.959,0-7.417h7.425Z"/>
    </g>
  </g>
</svg>