<?xml version="1.0" encoding="UTF-8"?>
<svg id="b" data-name="Layer 2" xmlns="http://www.w3.org/2000/svg" width="207.293" height="167.056" viewBox="0 0 207.293 167.056">
  <defs>
    <style>
      .d {
        fill: #aa1f65;
      }

      .e {
        fill: #2b0f54;
      }

      .f {
        fill: #fe8042;
      }

      .g {
        fill: #fe4f69;
      }

      .h {
        fill: #3368db;
      }

      .i {
        fill: #49e6eb;
      }

      .j {
        fill: #fef6f7;
      }
    </style>
  </defs>
  <g id="c" data-name="Layer 1">
    <g>
      <path class="g" d="M19.93,31.82c2.241-3.69,6.087-1.979,5.979,2.108,6.043-.385,12.051.413,17.937,1.87,4.063-2.477,7.9-2.49,11.958,0,1.32.007,2.667-.028,3.986,0,1.588.305,2.916,1.631,3.986,3.978,2.646.046,5.326-.032,7.972,0v3.978h3.986v3.978h7.972v3.978h2.491l1.495,3.978c-1.04,1.775-2.369,3.1-3.986,3.978-1.187,1.687-2.515,3.012-3.986,3.978,2.769,2.657,5.426,2.657,7.972,0,1.468-2.507,2.518-2.504,3.986,0,1.186-1.687,2.515-3.013,3.986-3.978h3.986c1.797,1.277,3.125,1.277,3.986,0,1.468-2.507,2.518-2.504,3.986,0,1.457-1.285,1.457-2.693,0-3.978-2.917-.002-2.793-3.322,0-3.978.306-1.585,1.635-2.911,3.986-3.978,1.255-1.939,2.727-1.935,3.986,0,1.467-2.512,2.519-2.508,3.986,0,.956,3.164,2.284,5.816,3.986,7.955,1.468-2.504,2.518-2.507,3.986,0,.002-2.911,3.33-2.787,3.986,0,.002-2.911,3.33-2.787,3.986,0,1.961,1.251,1.957,2.722,0,3.978,1.255-1.939,2.727-1.935,3.986,0,1.583.415,2.912,1.741,3.986,3.978,4.698-5.887,8.668,3.346,3.986,7.955-.611,1.731-1.94,3.057-3.986,3.978-8.288,4.876-18.442,1.724-11.958-7.955,1.589-2.314,2.776-4.297,3.986-7.955-1.553,1.044-3.26,1.614-5.085,1.945-3.755.681-.411-1.401-.891.04-.307.924-1.213,1.501-1.997,1.993,2.521,1.459,2.527,2.519,0,3.978-.414,1.582-1.742,2.908-3.986,3.978-1.253,1.957-2.728,1.953-3.986,0-6.186,4.435-13.803.094-7.972-3.978,1.036-1.684,2.365-3.01,3.986-3.978q2.502-3.65,0,0c-1.058,1.745-2.387,3.071-3.986,3.978-1.463,2.524-2.522,2.518-3.986,0-1.038,1.682-2.367,3.008-3.986,3.978-1.463,2.524-2.522,2.518-3.986,0-2.972,5.353-6.021,8.595-11.958,3.978-1.477,1.916-2.787,3.822-3.932,5.718l-13.486.248c3.809.46,5.277,4.815,1.474,5.966-6.616,1.943-13.314,1.945-19.93,0-2.778-2.658-5.436-2.658-7.972,0-5.288,1.961-10.654,1.95-15.944,0-2.917-.002-2.793-3.322,0-3.978,1.32-.028,2.665.018,3.986,0v-3.978c3.973-.049,7.985.069,11.958,0,1.04-1.775,2.369-3.1,3.986-3.978,3.973-.069,7.985.049,11.958,0v-3.978c1.32-.022,2.666.034,3.986,0,1.69,1.184,3.019,1.184,3.986,0,.056-1.315-.036-2.661,0-3.978,1.319-.036,2.669.056,3.986,0,1.161-1.3,1.161-2.678,0-3.978-1.626-.719-2.954-2.044-3.986-3.978-1.317-.056-2.667.036-3.986,0v-3.978c-1.319-.036-2.669.056-3.986,0-1.588-.305-2.917-1.631-3.986-3.978-1.619-.97-2.948-2.296-3.986-3.978-1.464,2.517-2.523,2.524-3.986,0-1.585-.413-2.914-1.739-3.986-3.978-1.845,3.767-6.165,2.043-5.979-2.108-3.234.672-5.227.048-5.979-1.87-.575,1.897-2.568,2.6-5.979,2.108.514,3.68-4.907,5.724-5.979,1.87-.028-1.317.018-2.66,0-3.978-3.975-.015-7.984.021-11.958,0-2.917-.002-2.793-3.322,0-3.978,1.04-1.775,2.369-3.101,3.986-3.978,2.639-.046,5.333-.046,7.972,0Z"/>
      <path class="g" d="M167.413,135.236c2.917.002,2.793,3.322,0,3.978-.002,2.911-3.33,2.787-3.986,0-2.531-1.454-2.535-2.525,0-3.978,1.456-2.529,2.529-2.525,3.986,0Z"/>
      <path class="g" d="M115.594,75.573c1.585.413,2.914,1.739,3.986,3.978,1.764-3.799,6.083-1.871,6.099,1.989,2.321.379,4.274,2.368,5.86,5.966,1.585.413,2.914,1.739,3.986,3.978,1.317.056,2.667-.036,3.986,0v3.978c1.319.036,2.669-.056,3.986,0,1.585.413,2.914,1.739,3.986,3.978,1.651.964,3.048,2.364,3.986,3.978,1.617.936,3.019,2.33,3.986,3.978,1.317.056,2.667-.036,3.986,0v3.978c1.319.036,2.669-.056,3.986,0,1.588.305,2.917,1.631,3.986,3.978,1.32.028,2.666-.028,3.986,0q3.828,2.314,0,0c0-.941-.141-3.837,0-3.978,1.319-.036,2.669.056,3.986,0,.938-1.614,2.335-3.013,3.986-3.978.056-1.314-.036-2.661,0-3.978h7.972v-3.978c1.32-.022,2.666.034,3.986,0,.023-1.318-.015-2.66,0-3.978h3.986c.015,1.318-.023,2.66,0,3.978-1.465,2.517-2.52,2.511-3.986,0,2.799,5.004,2.867,10.933,0,15.91-.966,1.648-2.368,3.042-3.986,3.978-1.45,2.525-2.537,2.528-3.986,0q-1.583-1.579,0,0c1.968,1.252,1.968,2.725,0,3.978-.967,1.648-2.369,3.041-3.986,3.978-.966,1.648-2.369,3.041-3.986,3.978-.457,3.466-5.444,2.442-5.979-.761-1.236,1.87-3.229,3.449-5.979,4.738-.688,2.993-4.164,3.61-3.234,2.053.303-.508,3.558.123,3.234,1.924,2.724,2.549,2.751,5.418,0,7.955-2.896,1.284-5.554,2.61-7.972,3.978l-3.986,3.978c-.002,2.911-3.33,2.787-3.986,0-.002,2.911-3.33,2.787-3.986,0-2.917-.002-2.793-3.322,0-3.978,1.317-.056,2.667.036,3.986,0v-3.978h3.986v-3.978h3.986v-7.955h-3.986c-.018-1.318.028-2.66,0-3.978-.131-1.385,2.634-3.124,2.987-2.743.769.831-2.468,1.115-2.987-1.235-1.03-1.736-2.359-1.736-3.986,0,1.464-2.518,2.523-2.524,3.986,0,2.529,1.46,2.523,2.517,0,3.978h-3.986c-.141-.141,0-3.037,0-3.978-1.32-.028-2.665.018-3.986,0v-3.978h-3.986v-3.978h-3.986v-3.978h-3.986v-3.978h-3.986c-.036-1.316.056-2.663,0-3.978-1.619-.97-2.947-2.296-3.986-3.978-1.663-1.85-3.884-2.515-6.662-1.993l-1.31-1.984c-2.512-1.465-2.509-2.512,0-3.978l-3.986-3.978c-1.462,2.515-2.525,2.521-3.986,0-1.619-.97-2.948-2.295-3.986-3.978-1.467,2.508-2.519,2.511-3.986,0-2.917-.002-2.793-3.322,0-3.978.576-1.898,2.569-2.6,5.979-2.108-.265-2.642,1.424-3.872,3.986-3.978.121-4.098,3.835-5.376,5.979-1.87Z"/>
      <path class="e" d="M163.427,35.798c2.539,1.456,2.543,2.523,0,3.978-1.258,1.936-2.73,1.937-3.986,0-1.257,1.935-2.729,1.935-3.986,0,2.917.002,2.793,3.322,0,3.978-2.549,2.714-5.411,2.687-7.972,0-2.917-.002-2.793-3.322,0-3.978,1.323-.004,2.663.003,3.986,0,1.256-1.938,2.728-1.936,3.986,0-2.534-1.45-2.537-2.528,0-3.978,2.746-2.51,5.215-2.489,7.972,0Z"/>
      <path class="e" d="M111.608,67.618v3.978c2.647.013,5.325-.019,7.972,0,2.905.003,2.792,3.329,0,3.978-1.459,2.52-2.526,2.514-3.986,0-1.32.028-2.665-.018-3.986,0v3.978h-3.986v3.978h-7.972c-2.187-1.987-5.347-2.635-9.481-1.946-4.337.26-6.666-4.524-2.477-6.009,2.646-.046,5.326.032,7.972,0v-3.978c1.32-.018,2.666.028,3.986,0,1.69,1.184,3.019,1.184,3.986,0,1.041-1.774,2.37-3.1,3.986-3.978,1.32-.028,2.666.028,3.986,0Z"/>
      <path class="e" d="M171.399,39.775c1.686,1.036,3.014,2.362,3.986,3.978,1.738-3.786,6.082-1.886,6.099,1.989,6.136.932,3.946,8.308,1.873,13.921,1.944,1.254,1.943,2.723,0,3.978,1.255-1.941,2.728-1.938,3.986,0,2.917.002,2.793,3.322,0,3.978-.002,2.911-3.33,2.787-3.986,0-2.917-.002-2.793-3.322,0-3.978-5.011,3.657-10.294,2.463-4.389,2.012,1.682,1.529,3.145,3.51,4.389,5.943,2.901-1.279,5.559-2.605,7.972-3.978.002-2.911,3.33-2.787,3.986,0,.002-2.911,3.33-2.787,3.986,0,2.917.002,2.793,3.322,0,3.978,2.543-2.74,5.414-2.706,7.972,0,.028,1.314.028,2.663,0,3.978-.611,1.731-1.94,3.057-3.986,3.978-1.32.028-2.665-.008-3.986,0-2.915-.002-2.793-3.323,0-3.978-2.911-.002-2.792-3.326,0-3.978l-3.986,3.978c2.516,1.463,2.522,2.515,0,3.978-2.646.009-5.327-.046-7.972,0-1.04,1.775-2.369,3.1-3.986,3.978-2.646.046-5.326-.032-7.972,0v7.955c-2.647.013-5.325-.019-7.972,0-1.588-.305-2.917-1.631-3.986-3.978-1.467,2.509-2.519,2.512-3.986,0-2.647-.019-5.325.013-7.972,0v-3.978h3.986v-3.978h-11.958v3.978h-11.958c-.141.141,0,3.037,0,3.978-1.317-.056-2.667.036-3.986,0v-3.978h-3.986v-3.978c-1.319-.036-2.669.056-3.986,0-2.917-.002-2.793-3.322,0-3.978,1.038-1.682,2.367-3.008,3.986-3.978l3.986-3.978c.028-1.317-.028-2.66,0-3.978,1.431-5.099,9.457.163,3.986,3.978.046,2.64-.032,5.314,0,7.955,3.973-.049,7.986.069,11.958,0l3.986-3.978c.046-2.64-.032-5.314,0-7.955-1.319-.036-2.669.056-3.986,0-2.527-1.457-2.533-2.522,0-3.978,1.041-1.774,2.369-3.1,3.986-3.978,1.455-2.528,2.53-2.523,3.986,0,1.767-1.418,3.822-2.187,6.165-2.31-.907-4.823-.305-8.031,1.807-9.623l3.986-3.978c2.618-1.947,5.356-1.951,7.972,0Z"/>
      <path class="e" d="M191.329,31.82c.023,1.317-.015,2.66,0,3.978h7.972c.036,1.316-.056,2.664,0,3.978,1.759,1.008,3.088,2.334,3.986,3.978.081,4.655.264,9.806,0,14.419-.164,2.868-2.062,1.107-3.986,1.492-1.94-1.253-1.937-2.722,0-3.978-2.517-1.464-2.514-2.514,0-3.978-6.351-3.166-7.68-5.817-3.986-7.955-1.619-.97-2.947-2.296-3.986-3.978-5.014,2.792-10.954,2.855-15.944,0-1.258,1.936-2.729,1.937-3.986,0-2.536-1.458-2.529-2.519,0-3.978,3.87-2.705,8.036-2.681,11.958,0,1.04-1.775,2.369-3.101,3.986-3.978,1.461-2.53,2.524-2.524,3.986,0Z"/>
      <path class="e" d="M43.846,87.506c2.616-1.954,5.354-1.95,7.972,0,6.63-.009,13.3-.012,19.93,0,9.24-2.725,18.67-2.771,27.902,0,1.32.007,2.667-.028,3.986,0,1.588.305,2.917,1.631,3.986,3.978,1.619.969,2.948,2.295,3.986,3.978,2.499,2.75,2.517,5.215,0,7.955-1.041,1.775-2.369,3.1-3.986,3.978-1.32.028-2.666-.028-3.986,0-1.04,1.775-2.369,3.101-3.986,3.978-1.317.028-2.669.028-3.986,0-1.588-.305-2.916-1.631-3.986-3.978-2.646-.046-5.326.032-7.972,0v3.978c-3.463-.141-6.997.197-10.463,0-2.874-.164-1.11-2.058-1.495-3.978,3.08-1.205,1.751-2.53-3.986-3.978q-2.842-1.225,0,0c2.917.002,2.793,3.322,0,3.978-5.302.028-10.642.009-15.944,0-3.915-.602-2.099-6.165,1.993-6.142-.61-3.101.054-5.032,1.993-5.791,2.645-.046,5.326.032,7.972,0v-3.978c-11.944-.016-23.931.021-35.874,0-2.917-.002-2.793-3.322,0-3.978,5.303-.009,10.641.012,15.944,0Z"/>
      <path class="e" d="M191.329,119.326c-.018,2.641.012,5.314,0,7.955h-3.986v7.955h-3.986c-.018,1.318.028,2.66,0,3.978-.306,1.585-1.635,2.91-3.986,3.978-1.454,2.529-2.533,2.532-3.986,0q-3.744-2.426,0,0c1.758,1.009,3.087,2.335,3.986,3.978-.028,1.318.018,2.66,0,3.978h-3.986v3.978h-3.986v3.978h-7.972c-2.475-2.235-6.087-2.905-10.834-2.008l-1.124-1.969c2.509,1.465,2.512,2.512,0,3.978-.002,2.911-3.329,2.787-3.986,0-2.917-.002-2.793-3.322,0-3.978h3.986c.028-1.317-.018-2.66,0-3.978,1.321-.015,2.666.023,3.986,0,3.091-1.004,5.748-2.33,7.972-3.978l2.118-2.099c-.673-3.184-.05-5.136,1.868-5.856v-3.978c2.959-.918,5.616-2.244,7.972-3.978.414-1.582,1.742-2.908,3.986-3.978.972-1.615,2.301-2.941,3.986-3.978.94-1.611,2.338-3.01,3.986-3.978-.002-2.91,3.327-2.779,3.986,0Z"/>
      <path class="e" d="M55.804,11.933c1.468-2.507,2.518-2.504,3.986,0-.032,2.641.046,5.315,0,7.955-.414,1.582-1.742,2.908-3.986,3.978-1.011,1.756-2.339,3.081-3.986,3.978,0,.941-.141,3.837,0,3.978h3.986v3.978c-3.974-.021-7.984.005-11.958,0-1.177-.585-2.134-1.267-2.873-2.047-11.108,1.523-22.826-1.752-9.085-9.885.391-1.92,2.245-2.542,5.562-1.866l2.41-2.112c3.171-.953,5.828-2.279,7.972-3.978l3.986-3.978c.002-2.911,3.33-2.787,3.986,0Z"/>
      <path class="e" d="M31.888,39.775c1.299,0,7.69-.281,7.972,0v3.978c1.319.036,2.669-.056,3.986,0,1.588.305,2.917,1.631,3.986,3.978,1.32.028,2.666-.028,3.986,0,2.917-.002,2.785,3.32,0,3.978,0,1.318.01,2.66,0,3.978.127,1.618-.528,2.117-1.996,2.108-.596,5.313-5.597,4.472-9.962,1.87-1.255,1.941-2.728,1.938-3.986,0-2.366-1.623-5.023-2.949-7.972-3.978-1.778-1.038-3.107-2.364-3.986-3.978-2.917-.002-2.793-3.322,0-3.978,1.724-3.34,3.753-5.479,6.088-6.416l1.884-1.539Z"/>
      <path class="g" d="M47.832,7.955c2.71,2.546,2.738,5.42,0,7.955-2.702,1.277-5.359,2.603-7.972,3.978-2.949,1.029-5.606,2.355-7.972,3.978-.401,3.045-7.312,2.909-7.972,0,.056-1.314-.036-2.661,0-3.978h3.986v-3.978h3.986v-3.978h3.986v-3.978c.423-.422,10.177,0,11.958,0Z"/>
      <path class="g" d="M163.427,31.82c5.302-.032,10.642.023,15.944,0v-3.978h3.986v-3.978h7.972c.032,2.64-.046,5.315,0,7.955-1.321.022-2.666-.034-3.986,0-1.04,1.775-2.369,3.101-3.986,3.978-3.971.069-7.986-.008-11.958,0-2.616,1.952-5.353,1.947-7.972,0-2.917-.002-2.793-3.322,0-3.978Z"/>
      <path class="d" d="M51.818,7.955c2.523,1.461,2.529,2.518,0,3.978-.028,1.317.018,2.66,0,3.978-1.321.015-2.666-.023-3.986,0-.023,1.317.015,2.66,0,3.978-2.646.025-5.326-.035-7.972,0-.056,1.314.036,2.662,0,3.978-.282.281-6.673,0-7.972,0-.056,1.314.036,2.662,0,3.978h-3.986v3.978c4.784.197,9.663-.273,14.449,0,2.874.164,1.11,2.057,1.495,3.978-6.632-.009-13.299.006-19.93,0v-3.978c-1.32-.015-2.666.023-3.986,0v-3.978h3.986c.036-1.316-.056-2.663,0-3.978h7.972c.056-1.314-.036-2.662,0-3.978,2.646-.025,5.326.035,7.972,0,.056-1.314-.036-2.662,0-3.978,2.646-.032,5.326.046,7.972,0,.046-2.64-.032-5.315,0-7.955h3.986Z"/>
      <path class="d" d="M151.469,155.124c1.781,0,11.535-.422,11.958,0v3.978c0,.94.141,3.837,0,3.978-1.321.018-2.666-.028-3.986,0-1.517-.749-2.846-.749-3.986,0-1.321.009-2.665-.004-3.986,0-2.917-.002-2.793-3.322,0-3.978,0-1.317-.028-2.661,0-3.978Z"/>
      <path class="d" d="M167.413,139.213c0,1.296.282,7.674,0,7.955-1.321.015-2.666-.023-3.986,0-.023,1.318.015,2.66,0,3.978-2.646.032-5.326-.046-7.972,0v-3.978c2.646-.032,5.326.046,7.972,0,.046-2.64-.016-5.314,0-7.955h3.986Z"/>
      <path class="d" d="M163.427,135.236c-.028,1.317.008,2.66,0,3.978-.943,0-3.845.141-3.986,0v-3.978c1.321-.018,2.666.028,3.986,0Z"/>
      <path class="d" d="M195.315,99.438c.092,5.288-.067,10.621,0,15.91-1.319.036-2.669-.056-3.986,0-.004,1.318.009,2.659,0,3.978h-3.986c-.056,1.314.036,2.662,0,3.978-1.319.036-2.669-.056-3.986,0-.028,1.318.018,2.66,0,3.978-1.319.036-2.669-.056-3.986,0-.056,1.314.036,2.662,0,3.978h-3.986c-.056,1.314.036,2.661,0,3.978-2.647.013-5.325-.019-7.972,0-1.321.009-2.666-.028-3.986,0,.028-1.317-.018-2.66,0-3.978h3.986v-3.978h3.986v3.978c.141.141,3.044,0,3.986,0,.056-1.314-.036-2.661,0-3.978,1.319-.036,2.669.056,3.986,0,.056-1.314-.036-2.662,0-3.978,1.319-.036,2.669.056,3.986,0,.028-1.314.028-2.663,0-3.978-1.32-.028-2.665.018-3.986,0v-3.978h3.986c.018,1.318-.028,2.66,0,3.978,1.32.028,2.666,0,3.986,0,.056-1.314-.036-2.662,0-3.978,1.319-.036,2.669.056,3.986,0,.015-5.288-.092-10.624,0-15.91,1.32-.034,2.666.022,3.986,0Z"/>
      <path class="d" d="M31.888,39.775c.304,4.2.562,4.373-3.986,3.978v3.978c-1.321.022-2.666-.034-3.986,0-1.461,2.53-2.524,2.524-3.986,0-.008-1.318.028-2.661,0-3.978h3.986v-3.978h7.972Z"/>
      <path class="d" d="M19.93,87.506c1.255-1.941,2.728-1.938,3.986,0,1.256-1.938,2.728-1.937,3.986,0v3.978c-5.303-.009-10.641.007-15.944,0v-3.978c2.646-.013,5.326.019,7.972,0Z"/>
      <path class="d" d="M171.399,35.798c.022,1.318-.034,2.661,0,3.978-2.649-.002-5.323.006-7.972,0,.028-1.317,0-2.66,0-3.978,2.649-.008,5.323.005,7.972,0Z"/>
      <path class="d" d="M175.385,39.775c2.917.002,2.793,3.322,0,3.978-1.317-.056-2.667.036-3.986,0-.022-1.318.034-2.661,0-3.978,1.323.001,2.663-.002,3.986,0Z"/>
      <path class="d" d="M147.483,39.775v3.978c2.646-.046,5.325.016,7.972,0,1.467-2.511,2.519-2.508,3.986,0-2.917-.002-2.793-3.322,0-3.978,1.323.003,2.663-.003,3.986,0-.028,1.318.018,2.66,0,3.978-1.321.018-2.666-.028-3.986,0,0,1.777.423,11.511,0,11.933-2.647.013-5.325-.019-7.972,0-1.588-.305-2.916-1.631-3.986-3.978-2.917-.002-2.793-3.322,0-3.978-2.917-.002-2.793-3.322,0-3.978-1.04,1.775-2.369,3.1-3.986,3.978-.002,2.911-3.33,2.787-3.986,0-1.621-.968-2.949-2.294-3.986-3.978-2.917-.002-2.793-3.322,0-3.978,3.975-.007,7.983.013,11.958,0Z"/>
      <path class="d" d="M87.692,55.685c2.646-.046,5.326.032,7.972,0v3.978c0,.94.141,3.837,0,3.978-1.321.018-2.666-.028-3.986,0-2.516-1.102-5.173-2.428-7.972-3.978v-3.978c1.321-.015,2.666.023,3.986,0Z"/>
      <path class="f" d="M143.497,151.146v3.978c2.917.002,2.793,3.322,0,3.978-.414,1.582-1.742,2.908-3.986,3.978-1.467,2.512-2.519,2.508-3.986,0v-7.955h3.986v-3.978c1.319-.036,2.669.056,3.986,0Z"/>
      <path class="d" d="M51.818,55.685c-.02,2.641.014,5.314,0,7.955-3.973-.049-7.986.069-11.958,0-2.917.002-2.785-3.32,0-3.978,2.647-.018,5.325.012,7.972,0v-3.978h3.986Z"/>
      <path class="g" d="M63.776,3.978c.028-1.317-.018-2.66,0-3.978h3.986v3.978c-1.321.015-2.666-.023-3.986,0-.028,1.317.028,2.66,0,3.978l-1.059,1.989c-3.276-.271-4.645-.117-6.913,1.989h-3.986c.028-1.317-.028-2.66,0-3.978s-.018-2.66,0-3.978c3.973-.049,7.986.069,11.958,0Z"/>
      <path class="g" d="M199.301,55.685c.009,1.318-.004,2.659,0,3.978s-.003,2.657,0,3.978c1.32.028,2.665-.018,3.986,0v3.978h3.986c.018,1.318-.028,2.66,0,3.978-2.647.032-5.326-.046-7.972,0v-3.978c-1.94-1.254-1.939-2.723,0-3.978-1.467,2.508-2.519,2.512-3.986,0,2.917.002,2.793,3.322,0,3.978h-3.986c0,2.906-3.332,2.784-3.986,0v-3.978c1.257-1.941,2.729-1.941,3.986,0,1.258-1.938,2.731-1.941,3.986,0-2.917-.002-2.793-3.322,0-3.978-2.917-.002-2.793-3.322,0-3.978.001-2.911,3.329-2.786,3.986,0Z"/>
      <path class="e" d="M107.622,47.73c2.509,1.465,2.512,2.512,0,3.978v3.978c-1.464,2.518-2.523,2.524-3.986,0-1.32-.028-2.665.018-3.986,0v-3.978h3.986v-3.978c1.321-.018,2.666.028,3.986,0Z"/>
      <path class="d" d="M135.524,163.079c1.32-.028,2.665.009,3.986,0-.056,1.314.036,2.661,0,3.978h-7.972v-3.978c1.321-.018,2.666.028,3.986,0Z"/>
      <path class="g" d="M23.916,47.73v3.978c2.917,0,2.788,3.321,0,3.978,1.258-1.941,2.73-1.943,3.986,0,2.536,1.458,2.529,2.518,0,3.978-1.32-.008-2.666.028-3.986,0-2.917,0-2.79-3.321,0-3.978-.002,2.906-3.332,2.786-3.986,0-.046-2.64.016-5.314,0-7.955,1.321-.022,2.666.034,3.986,0Z"/>
      <path class="d" d="M147.483,155.124v3.978c2.917.002,2.793,3.322,0,3.978-1.323.005-2.663-.004-3.986,0-2.905-.003-2.792-3.329,0-3.978v-3.978h3.986Z"/>
      <path class="d" d="M63.776,7.955c-.028,1.317.018,2.66,0,3.978-1.321.018-2.666-.028-3.986,0s-2.666,0-3.986,0v-3.978h7.972Z"/>
      <path class="d" d="M23.916,51.708h3.986c.022,1.318-.034,2.66,0,3.978,2.647.02,5.325-.014,7.972,0,.036,1.316-.056,2.663,0,3.978-2.647.009-5.325.016-7.972,0-.022-1.318.034-2.66,0-3.978-1.321-.01-2.665,0-3.986,0v-3.978Z"/>
      <path class="f" d="M163.427,31.82v3.978c-2.646.008-5.327-.046-7.972,0,.028-1.317-.018-2.66,0-3.978,2.647-.011,5.325.016,7.972,0Z"/>
      <path class="h" d="M67.762,103.416c-2.646-.035-5.326.025-7.972,0v-3.978h7.972c.141.141,0,3.037,0,3.978,2.646.035,5.326-.025,7.972,0v3.978c-1.32.018-2.666-.028-3.986,0s-2.666-.007-3.986,0v-3.978Z"/>
      <path class="f" d="M115.594,99.438h7.972c.036,1.316-.056,2.663,0,3.978,1.321.023,2.665-.015,3.986,0,.036,1.316-.056,2.663,0,3.978h-3.986c-.036-1.316.056-2.663,0-3.978-2.644-.046-5.328-.016-7.972,0-2.909.005-2.781-3.325,0-3.978Z"/>
      <path class="d" d="M103.636,87.506c1.32.028,2.666-.018,3.986,0,.036,1.315-.056,2.664,0,3.978,1.321.028,2.665-.028,3.986,0,2.917,0,2.789,3.321,0,3.978,1.466-2.511,2.521-2.517,3.986,0,.028,1.317,0,2.66,0,3.978v3.978c-1.321.008-2.666-.028-3.986,0-.023,1.318.015,2.659,0,3.978-1.321.018-2.666-.028-3.986,0v-3.978c1.321-.018,2.666.028,3.986,0,.046-2.639,0-5.315,0-7.955-1.319-.034-2.666.022-3.986,0-.036-1.315.056-2.664,0-3.978-1.321-.028-2.665.018-3.986,0v-3.978Z"/>
      <path class="e" d="M135.524,39.775v3.978c-2.561,2.685-5.422,2.709-7.972,0-2.911-.002-2.792-3.326,0-3.978,2.647-.016,5.325.005,7.972,0Z"/>
      <path class="d" d="M67.762,59.663c1.317.056,2.667-.036,3.986,0,.141.141,0,3.037,0,3.978,1.317.056,2.667-.036,3.986,0v3.978c-1.319.036-2.669-.056-3.986,0v-3.978c-1.317-.056-2.667.036-3.986,0v-3.978Z"/>
      <path class="d" d="M199.301,39.775h3.986c.015,1.318-.023,2.66,0,3.978h-3.986c-.036-1.316.056-2.664,0-3.978Z"/>
      <path class="f" d="M51.818,47.73c1.32.028,2.665-.018,3.986,0,.036,1.316-.056,2.663,0,3.978-1.32-.034-2.665.022-3.986,0v-3.978Z"/>
      <path class="i" d="M111.608,43.753c2.527,1.457,2.533,2.522,0,3.978-1.467,2.512-2.519,2.508-3.986,0,.028-1.317-.018-2.66,0-3.978,1.321-.018,2.666.028,3.986,0Z"/>
      <path class="f" d="M47.832,75.573v3.978c-1.321.015-2.666-.023-3.986,0v-3.978c1.321-.015,2.666.023,3.986,0Z"/>
      <path class="g" d="M199.301,75.573v3.978c-1.323.008-2.663-.005-3.986,0,.022-1.318-.034-2.66,0-3.978,0-2.911,3.329-2.784,3.986,0Z"/>
      <path class="g" d="M207.273,75.573c-.028,1.317.018,2.66,0,3.978-1.321.018-2.666-.028-3.986,0v-3.978h3.986Z"/>
      <path class="d" d="M187.343,79.551v3.978c-1.321.015-2.666-.023-3.986,0v-3.978c1.321-.015,2.665.023,3.986,0Z"/>
      <path class="g" d="M23.916,83.528c2.917.002,2.793,3.322,0,3.978-1.32.004-2.666-.009-3.986,0v-3.978c1.321-.018,2.666.028,3.986,0Z"/>
      <path class="f" d="M27.902,83.528v3.978c-1.323.002-2.663-.004-3.986,0v-3.978c1.32-.028,2.666.028,3.986,0Z"/>
      <path class="f" d="M103.636,59.663c-.034,1.317.022,2.66,0,3.978h-3.986v-3.978h3.986Z"/>
      <path class="d" d="M127.552,39.775v3.978c-1.258,1.935-2.73,1.937-3.986,0-2.516-1.463-2.522-2.515,0-3.978,1.32-.028,2.666.008,3.986,0Z"/>
      <path class="f" d="M123.566,39.775c-.022,1.318.034,2.66,0,3.978,1.323.003,2.663-.005,3.986,0,2.646.009,5.327-.046,7.972,0,1.321.023,2.665-.015,3.986,0,.036,1.316-.056,2.663,0,3.978,2.613,1.373,5.271,2.699,7.972,3.978,1.321.023,2.665-.015,3.986,0v3.978c-1.32.009-2.666-.028-3.986,0l-3.986,3.978c-1.452,2.526-2.533,2.522-3.986,0-1.323.008-2.663-.01-3.986,0,.01-1.317.028-2.661,0-3.978-1.03-1.736-2.359-1.736-3.986,0h-3.986c-1.517-.749-2.846-.749-3.986,0-1.32-.028-2.666.018-3.986,0-.013-2.641.019-5.314,0-7.955l3.986-3.978c-1.257,1.934-2.729,1.934-3.986,0,1.922,1.257,1.926,2.724,0,3.978-1.32.028-2.665-.009-3.986,0-2.911-.002-2.792-3.326,0-3.978,1.321-.009,2.665.004,3.986,0,.028-1.317-.018-2.66,0-3.978,1.32-.018,2.666.028,3.986,0Z"/>
      <path class="d" d="M131.538,87.506c1.317.056,2.667-.036,3.986,0v3.978c-1.317-.056-2.667.036-3.986,0v-3.978Z"/>
      <path class="g" d="M163.427,87.506c2.917.002,2.793,3.322,0,3.978-1.32-.028-2.666.018-3.986,0v-3.978c1.321.009,2.666-.028,3.986,0Z"/>
      <path class="d" d="M163.427,87.506c1.32.028,2.665-.018,3.986,0v3.978c-1.319.009-2.667.028-3.986,0v-3.978Z"/>
      <path class="d" d="M115.594,43.753v3.978c-1.324.009-2.663-.009-3.986,0-.034,1.317.022,2.659,0,3.978h-3.986c0-1.318-.028-2.661,0-3.978,1.32-.028,2.665.009,3.986,0,.034-1.317-.022-2.659,0-3.978,1.32-.028,2.665.009,3.986,0Z"/>
      <path class="d" d="M143.497,95.461c1.317.056,2.667-.036,3.986,0,.036,1.316-.056,2.663,0,3.978,1.317.056,2.667-.036,3.986,0,.036,1.316-.056,2.663,0,3.978,1.317.056,2.667-.036,3.986,0v3.978c-1.317-.056-2.667.036-3.986,0-.036-1.316.056-2.663,0-3.978-1.317-.056-2.667.036-3.986,0-.036-1.316.056-2.663,0-3.978-1.317-.056-2.667.036-3.986,0v-3.978Z"/>
      <path class="g" d="M39.86,59.663v3.978c-1.32-.023-2.665.015-3.986,0-.036-1.316.056-2.663,0-3.978,1.321-.004,2.665.009,3.986,0Z"/>
      <path class="d" d="M155.455,35.798c-.028,1.316,0,2.66,0,3.978-1.323.002-2.663-.003-3.986,0v-3.978c1.321-.015,2.666.023,3.986,0Z"/>
      <path class="d" d="M59.79,35.798c1.32.028,2.666-.018,3.986,0v3.978c-1.321-.023-2.665.015-3.986,0v-3.978Z"/>
      <path class="d" d="M7.972,35.798v3.978c-1.32-.007-2.666.028-3.986,0-2.917-.002-2.793-3.322,0-3.978,1.32-.028,2.666.028,3.986,0Z"/>
      <path class="g" d="M3.986,35.798v3.978c-1.32-.028-2.666.018-3.986,0v-3.978c1.321-.018,2.666.028,3.986,0Z"/>
      <path class="g" d="M91.678,107.393c1.32.023,2.665-.015,3.986,0v3.978c-1.321-.028-2.665.018-3.986,0v-3.978Z"/>
      <path class="d" d="M103.636,107.393v3.978c-1.321.018-2.665-.028-3.986,0v-3.978c1.321-.018,2.666.028,3.986,0Z"/>
      <path class="f" d="M179.371,107.393c-.056,1.314.036,2.661,0,3.978-1.319.036-2.669-.056-3.986,0v-3.978h3.986Z"/>
      <path class="d" d="M107.622,55.685c2.917.002,2.793,3.322,0,3.978-1.32.028-2.666,0-3.986,0,.034-1.317-.022-2.66,0-3.978,1.32.028,2.666-.028,3.986,0Z"/>
      <path class="f" d="M163.427,111.371c1.317.056,2.667-.036,3.986,0v3.978c-1.32-.028-2.665.018-3.986,0v-3.978Z"/>
      <path class="f" d="M11.958,31.82v3.978c-1.321.018-2.666-.028-3.986,0,0-.94-.141-3.837,0-3.978,1.32-.015,2.666.023,3.986,0Z"/>
      <path class="d" d="M55.804,23.865c-.056,1.315.036,2.661,0,3.978h-3.986v-3.978c1.319-.036,2.669.056,3.986,0Z"/>
      <path class="f" d="M59.79,19.888c-.023,1.318.015,2.659,0,3.978-1.319.036-2.669-.056-3.986,0,.056-1.315-.036-2.661,0-3.978h3.986Z"/>
      <path class="f" d="M23.916,55.685v3.978c-1.32-.028-2.666.018-3.986,0-.015-1.318.023-2.66,0-3.978h3.986Z"/>
      <path class="d" d="M175.385,143.191c-1.32-.028-2.666.018-3.986,0v-3.978h3.986c.036,1.316-.056,2.663,0,3.978,1.319.028,2.666,0,3.986,0,.028-1.318-.018-2.66,0-3.978h3.986c-.028,1.317.028,2.66,0,3.978-.002,2.911-3.33,2.787-3.986,0,2.521,1.459,2.527,2.519,0,3.978h-3.986c-.036-1.316.056-2.663,0-3.978Z"/>
      <path class="g" d="M183.357,143.191c-.028,1.317.018,2.66,0,3.978-.141.141-3.044,0-3.986,0,.028-1.318-.028-2.66,0-3.978h3.986Z"/>
      <path class="d" d="M55.804,51.708c1.32.034,2.665-.022,3.986,0v3.978c-1.317-.056-2.667.036-3.986,0-.036-1.316.056-2.663,0-3.978Z"/>
      <path class="e" d="M143.497,159.101v3.978c-1.321.004-2.665-.009-3.986,0,.056-1.314-.036-2.661,0-3.978h3.986Z"/>
      <path class="g" d="M151.469,159.101v3.978c-1.323.004-2.663-.005-3.986,0v-3.978h3.986Z"/>
      <path class="e" d="M155.455,163.079v-3.978h3.986v3.978c-1.32.028-2.665-.009-3.986,0Z"/>
      <path class="f" d="M67.762,71.596c-.056,1.315.036,2.661,0,3.978h-3.986v-3.978c1.32-.034,2.666.022,3.986,0Z"/>
      <path class="d" d="M87.692,75.573c.385,1.92-1.38,3.814,1.495,3.978,3.466.197,7-.141,10.463,0,.141.141,0,3.037,0,3.978v3.978c-9.286-.05-18.616.017-27.902,0-.385-1.92,1.38-3.814-1.495-3.978-2.147-.122-4.336.084-6.477,0v-3.978h19.93v-3.978c1.321-.015,2.666.023,3.986,0Z"/>
      <path class="d" d="M135.524,59.663c-.019,2.642.013,5.313,0,7.955h-3.986c-.023-1.317.015-2.66,0-3.978h-3.986c.028-1.317-.018-2.66,0-3.978,2.647-.013,5.325.019,7.972,0Z"/>
      <path class="e" d="M83.706,59.663c2.646-.046,5.326.032,7.972,0v3.978c-1.32.028-2.666,0-3.986,0-.401,3.045-7.312,2.909-7.972,0,0-.94-.141-3.837,0-3.978,1.321-.015,2.666.023,3.986,0Z"/>
      <path class="d" d="M43.846,87.506v-3.978h7.972v3.978c-2.649.004-5.323-.006-7.972,0Z"/>
      <rect class="d" x="79.72" y="63.64" width="7.972" height="3.978"/>
      <path class="d" d="M115.594,63.64c.056-1.314-.036-2.661,0-3.978h3.986v3.978c-1.319.036-2.669-.056-3.986,0-.056,1.314.036,2.661,0,3.978-1.321.018-2.666-.028-3.986,0,0-.94-.141-3.837,0-3.978,1.319-.036,2.669.056,3.986,0Z"/>
      <path class="d" d="M107.622,67.618v3.978c-1.32.018-2.666-.028-3.986,0,.056-1.314-.036-2.661,0-3.978,1.321-.018,2.666.028,3.986,0Z"/>
      <path class="d" d="M127.552,67.618c-.028,1.317.018,2.66,0,3.978-1.321.018-2.666-.028-3.986,0-.056,1.314.036,2.661,0,3.978-1.321.018-2.666-.028-3.986,0v-3.978c1.32.009,2.667.028,3.986,0,.056-1.314-.036-2.661,0-3.978h3.986Z"/>
      <path class="d" d="M119.58,75.573v3.978c-1.317-.056-2.667.036-3.986,0v-3.978c1.32-.028,2.666.028,3.986,0Z"/>
      <path class="d" d="M43.846,43.753c1.317.056,2.667-.036,3.986,0v3.978c-1.32-.028-2.665.018-3.986,0v-3.978Z"/>
      <path class="h" d="M103.636,71.596c-.056,1.314.036,2.661,0,3.978h-3.986v-3.978c1.32-.028,2.666.028,3.986,0Z"/>
      <path class="f" d="M107.622,55.685c1.32.028,2.665-.018,3.986,0v3.978c-1.321.018-2.666-.028-3.986,0v-3.978Z"/>
      <path class="d" d="M131.538,55.685v-3.978h3.986c.018,1.318-.028,2.66,0,3.978h-3.986Z"/>
      <path class="d" d="M123.566,55.685v-3.978h3.986v3.978c-1.32,0-2.667.028-3.986,0Z"/>
      <rect class="f" x="75.734" y="51.708" width="3.986" height="3.978"/>
      <path class="f" d="M111.608,91.483c1.321.028,2.665-.018,3.986,0,.018,1.318-.028,2.66,0,3.978-1.32-.022-2.667.034-3.986,0v-3.978Z"/>
      <path class="d" d="M171.399,115.348c1.32.028,2.665-.018,3.986,0v3.978h-3.986v-3.978Z"/>
      <rect class="d" x="163.427" y="119.326" width="3.986" height="3.978"/>
      <path class="f" d="M147.483,127.281v-3.978h3.986c.018,1.318-.028,2.66,0,3.978,1.32.028,2.665-.018,3.986,0v3.978c-.141.141-3.044,0-3.986,0-.028-1.317.028-2.66,0-3.978-1.32-.028-2.666.028-3.986,0Z"/>
      <path class="g" d="M191.329,39.775c1.735.61,3.064,1.936,3.986,3.978.056,1.314-.036,2.662,0,3.978h3.986c.018,1.318-.028,2.66,0,3.978-1.466,2.517-2.52,2.511-3.986,0-1.04,1.775-2.369,3.101-3.986,3.978l-3.986,3.978c0,2.91-3.329,2.786-3.986,0-.014-3.966.01-7.966,0-11.933h-3.986v-3.978c-1.319-.036-2.669.056-3.986,0v-3.978c5.299.007,10.647-.092,15.944,0Z"/>
      <polygon class="h" points="167.413 59.663 167.413 63.64 171.399 63.64 171.399 67.618 159.441 67.618 159.441 63.64 163.427 63.64 163.427 59.663 167.413 59.663"/>
      <path class="h" d="M183.357,63.64v3.978c2.917.002,2.793,3.322,0,3.978-1.321-.023-2.665.015-3.986,0v-3.978h-3.986v-3.978c2.647-.013,5.325.019,7.972,0Z"/>
      <path class="d" d="M187.343,67.618h3.986v3.978c-2.647-.032-5.326.046-7.972,0v-3.978h3.986Z"/>
      <path class="d" d="M187.343,59.663c2.509,1.465,2.512,2.512,0,3.978-1.321.004-2.665-.009-3.986,0,0-1.318.005-2.659,0-3.978h3.986Z"/>
      <path class="d" d="M143.497,59.663c-.034,1.317.022,2.66,0,3.978-1.317-.056-2.667.036-3.986,0v-3.978c1.321-.008,2.666.028,3.986,0Z"/>
      <path class="d" d="M199.301,63.64c.003,1.321,0,2.657,0,3.978h-3.986v-3.978c1.321.009,2.666-.028,3.986,0Z"/>
      <path class="d" d="M147.483,71.596c-.023,1.317.015,2.66,0,3.978-1.321.015-2.666-.023-3.986,0v-3.978h3.986Z"/>
      <path class="d" d="M199.301,71.596v3.978h-3.986c.034-1.317-.022-2.66,0-3.978,1.321-.015,2.665.023,3.986,0Z"/>
      <rect class="h" x="171.399" y="55.685" width="3.986" height="3.978"/>
      <path class="g" d="M147.483,55.685v3.978c-1.321.018-2.666-.028-3.986,0,.034-1.317-.022-2.66,0-3.978,1.32-.018,2.666.028,3.986,0Z"/>
      <rect class="d" x="95.664" y="91.483" width="3.986" height="7.955"/>
      <path class="d" d="M191.329,39.775c1.32.023,2.665-.015,3.986,0,.036,1.316-.056,2.663,0,3.978h-3.986v-3.978Z"/>
      <path class="d" d="M187.343,31.82v3.978c-1.321.015-2.666-.023-3.986,0v-3.978c1.321-.022,2.666.034,3.986,0Z"/>
      <path class="j" d="M199.301,51.708c.028,1.317-.009,2.66,0,3.978h-3.986v3.978c-.611,1.731-1.94,3.057-3.986,3.978-1.321-.004-2.665-.004-3.986,0,0-1.318-.028-2.66,0-3.978s-.018-2.659,0-3.978c1.321-.018,2.665.028,3.986,0,1.45-2.53,2.535-2.526,3.986,0-2.917-.002-2.793-3.322,0-3.978,1.32-.034,2.665.022,3.986,0Z"/>
      <path class="e" d="M143.497,47.73c0-2.911,3.329-2.784,3.986,0v3.978c-2.646-.046-5.325.032-7.972,0-.036-1.316.056-2.663,0-3.978h3.986Z"/>
      <path class="g" d="M147.483,43.753v3.978h-3.986v-3.978c1.321-.015,2.665.023,3.986,0Z"/>
      <path class="f" d="M195.315,59.663v3.978c-1.321-.009-2.665.004-3.986,0v-3.978h3.986Z"/>
      <path class="g" d="M159.441,39.775v3.978c-1.32.028-2.665-.008-3.986,0v-3.978c1.321-.002,2.665-.003,3.986,0Z"/>
      <path class="e" d="M123.566,43.753c-.034,1.317.022,2.66,0,3.978-1.321.018-2.666-.028-3.986,0-.009-1.317-.028-2.662,0-3.978,1.321-.004,2.665-.003,3.986,0Z"/>
      <path class="f" d="M195.315,51.708v3.978c-1.321,0-2.666-.028-3.986,0v-3.978c1.321-.022,2.666.034,3.986,0Z"/>
    </g>
  </g>
</svg>