<?xml version="1.0" encoding="UTF-8"?>
<svg id="b" data-name="Layer 2" xmlns="http://www.w3.org/2000/svg" width="977.048" height="1172.03" viewBox="0 0 977.048 1172.03">
  <defs>
    <style>
      .d {
        fill: #aa1f65;
      }

      .e {
        fill: #2b0f54;
      }

      .f {
        fill: #fe4f69;
      }

      .g {
        fill: #3368db;
      }

      .h {
        fill: #49e6eb;
      }

      .i {
        fill: #fefefe;
      }

      .j {
        fill: #fed945;
      }

      .k {
        fill: #fef6f7;
      }
    </style>
  </defs>
  <g id="c" data-name="Layer 1">
    <g>
      <polygon class="i" points="977.048 1171.03 977.048 1172.03 976.049 1172.03 977.048 1171.03"/>
      <path class="e" d="M394.615,321.736c1.302,0,7.71-.283,7.992,0v7.993h16.983v7.993h7.992v7.993h7.992v7.993h7.992v7.993h15.984v7.993h7.992v7.993h7.992v15.987h7.992c.035,7.979-.048,16.001,0,23.98.548,4.99,2.774,6.989,6.679,5.995l1.314,1.998c.24,40.273.093,80.625,0,120.9-.635,1.994-2.675,2.66-6.12,1.998.434,10.042.266,20.103-1.872,29.975-.08,34.621.06,69.293,0,103.914,5.314-.023,10.671.032,15.984,0,4.99-.548,6.988-2.775,5.994-6.68l1.998-1.314c59.251-.354,118.573.051,177.827,0,2.865,10.437,2.946,21.548,0,31.973-.622,1.991-2.662,2.657-6.12,1.998.258,2.184-.812,4.164-1.872,5.995,2.711,7.941,2.766,16.051,0,23.98-2.652.035-5.34-.025-7.992,0v15.987h-32.968v8.993h-39.961v7.993c-15.968.071-31.986-.095-47.953,0-4.99.548-6.988,2.775-5.994,6.68l-1.998,1.314c-29.619.177-59.293-.132-88.913,0v-7.993h-7.992c.071,15.97-.095,31.99,0,47.96.548,4.99,2.774,6.989,6.679,5.995l1.314,1.998c.238,39.944.015,79.955,0,119.9,1.964,10.633,1.972,21.342,0,31.973-.003,2.655.004,5.338,0,7.993l-1.062,1.998c-7.051-1.721-7.207,6.586-.252,4.996l1.314,1.998c-.026,10.643.019,21.331,0,31.973h-7.992v7.993h-7.992v7.993h-7.992v7.993h-7.992v7.993h-7.992v7.993h-8.991v7.993c-2.652.025-5.34-.035-7.992,0-1.691,1.462-3.636,2.295-5.855,1.977.446,3.219-.266,5.225-2.137,6.017-1.302,0-7.71.283-7.992,0-.106-23.963.143-47.978,0-71.94-2.135-8.474-6.117-8.451-7.992,0-.064,10.642.064,21.331,0,31.973-.622,1.991-2.662,2.657-6.12,1.998.258,2.184-.812,4.164-1.872,5.995-.064,10.642.047,21.331,0,31.973h-7.992v23.98h-15.984c.023-5.315-.032-10.672,0-15.987.57-1.871,2.568-2.596,5.994-2.175-.612-3.117.055-5.057,1.998-5.819,0-1.302.283-7.711,0-7.993-5.315.023-10.67-.032-15.984,0-2.255,1.432-4.517,2.429-6.856,1.137,1.292,2.339.296,4.601-1.136,6.857-.032,5.315.023,10.671,0,15.987h-7.992v15.987c-2.653.025-5.34-.035-7.992,0-1.691,1.462-3.636,2.295-5.855,1.977.446,3.219-.267,5.225-2.137,6.017-37.596.224-75.294.224-112.89,0-1.99-.622-2.656-2.663-1.998-6.121-2.183.258-4.164-.812-5.994-1.872-7.978-.048-15.999.035-23.977,0v-7.993c1.99-1.427,3.988-2.02,5.994-1.776v-20.747c.689-3.101,3.395-4.253,8.118-3.455-.258-2.186.812-4.165,1.872-5.995l1.062-1.998c6.952,1.457,7.192-5.321.252-3.997l-1.314-1.998c-1.348-4.592-2.522-9.262-1.584-13.988-7.201.689-8.941-.701-8.582-7.993-7.179.767-8.146-1.243-8.042-7.993-7.286.646-9.357-.415-8.942-7.993-7.052.791-8.497-1.34-7.816-8.119-2.184.258-4.164-.812-5.994-1.872-2.494-5.383-2.463-10.595,0-15.987l-2.406-5.995h-11.523c.551,3.199-.134,5.197-2.055,5.995l-.932,1.985-12.939-.218c.192,5.952-.358,9.91-8.901,8.205-13.702.523-27.72.692-41.166-1.978-2.652-.016-5.34.011-7.992,0-.036-8.311.05-16.668,0-24.979-.548-4.99-2.774-6.989-6.679-5.995l-1.314-1.998c-.079-13.306.079-26.661,0-39.967-.548-4.99-2.774-6.989-6.679-5.995l-1.314-1.998c-.079-13.306.059-26.661,0-39.967h-8.991c-.059-13.306.079-26.661,0-39.967-.548-4.99-2.774-6.989-6.679-5.995l-1.314-1.998c-.127-21.296.011-42.65,0-63.947-1.965-5.303-1.963-10.683,0-15.987-.014-42.947-.077-85.946,0-128.893.627-1.992,2.667-2.658,6.12-1.998-.42-4.746.484-9.434,1.872-13.988.043-23.962-.143-47.979,0-71.94.851-2.053,3.21-2.719,7.08-1.998-.169-2.181.829-4.163,1.912-5.995.081-13.639-.06-27.327,0-40.966h7.992v-31.973h7.992v-23.98h7.992v-15.987h7.992v-7.993h7.992v-7.993h7.992v-7.993h15.984v-7.993c5.314-.023,10.67.032,15.984,0,4.99-.548,6.988-2.775,5.994-6.68l1.998-1.314c2.653-.018,5.339.018,7.992,0,4.99-.548,6.988-2.775,5.994-6.68l1.998-1.314c5.315-.032,10.67.023,15.984,0v-7.993h16.983v-7.993h15.984v-7.993c2.653-.025,5.34.035,7.992,0,2.391,23.222,2.92,46.536,1.584,69.942,3.341-.659,5.477.007,6.408,1.998.779.092,1.936.331,1.998.895.665,6.004.829,23.847,0,29.628l-1.998,1.45c.402-3.06,7.331-2.923,7.992,0,.776.21,1.84.498,1.998,1.165.491,2.075.334,18.759,0,21.358l-1.998,1.457c.09-.785.353-1.953.922-1.998,12.358-.978,33.55-1.081,45.837,0l1.194,1.998c3.038-.217,2.328,7.826,1.209,9.045-1.231,1.342-9.059,1.955-9.201-1.052l1.998,1.139c.57,3.295.901,13.427-1.998,14.847-.402,3.06-7.331,2.923-7.992,0,.78.091,1.948.34,1.998.898.526,5.871.966,25.458,0,30.619l-1.998,1.455c4.273-4.916,11.656-1.824,10.166,5.995,7.731-1.823,10.595,5.61,5.818,9.992,1.646-3.273,14.049-3.131,15.984,0,1.871.571,2.596,2.569,2.174,5.995,7.18-.766,8.146,1.24,8.042,7.993,7.286-.645,9.357.412,8.942,7.993,7.125-.764,8.226,1.233,7.992,7.993,7.125-.764,8.226,1.233,7.992,7.993,7.125-.764,8.226,1.233,7.992,7.993,7.125-.764,8.226,1.233,7.992,7.993,7.125-.764,8.226,1.233,7.992,7.993,7.125-.764,8.226,1.233,7.992,7.993,7.125-.764,8.226,1.233,7.992,7.993,7.125-.764,8.226,1.233,7.992,7.993,3.116-.612,5.056.054,5.818,1.998,3.273,1.647,3.13,14.051,0,15.987.402-3.06,7.331-2.923,7.992,0,3.273,1.647,3.13,14.051,0,15.987l1.062-1.998c7.256-.59,9.557.211,9.105,7.993,3.117-.612,5.056.054,5.818,1.998l1.998,1.139c.57,3.295.901,13.427-1.998,14.847.402-3.06,7.331-2.923,7.992,0l1.998,1.165v21.358l-1.998,1.457c.635-1.994,2.675-2.66,6.12-1.998-.434-10.042-.267-20.103,1.872-29.975-1.956-2.625-1.961-5.371,0-7.993.575-1.905,2.573-2.612,5.994-2.121v-28.403c-.052-4.409,9.601-4.902,10.989-1.45-.772-.005-1.95-.174-1.998-.673-.899-9.338-.965-28.842,0-38.119l1.998-1.175c.402-3.06,7.331-2.923,7.992,0l-1.998-.93v-77.797l1.998-1.207c.402-3.06,7.331-2.923,7.992,0l-1.998-.925v-78.807l1.998-1.201-1.139,1.998c-3.295.57-13.426.901-14.845-1.998-3.06-.402-2.923-7.332,0-7.993-.507,2.88-13.29,2.631-15.583,1.998l-1.4-1.998-1.998-1.062c-.59-7.257.211-9.558,7.992-9.106-1.984-8.225,6.527-10.41,10.989-5.819-.778-.214-1.897-.525-1.998-1.165-.448-2.821-.474-18.655,0-21.358l1.998-1.457-1.079,1.998c-7.387.401-10.686.578-10.086-7.993-3.116.612-5.056-.054-5.818-1.998-3.273-1.647-3.13-14.051,0-15.987-4.274,4.917-11.657,1.822-10.166-5.995-7.125.765-8.227-1.235-7.992-7.993-7.328.979-10.385-2.88-5.818-9.992-2.497-2.749-2.504-5.209,0-7.993,1.691-1.462,3.636-2.295,5.855-1.977-.395-7.073,1.142-8.744,8.257-8.015-.531-2.219.399-4.291,1.872-5.995h7.992c.025-2.653-.035-5.341,0-7.993Z"/>
      <path class="e" d="M290.717.004c1.991.627,2.657,2.667,1.998,6.121,4.745-.42,9.432.484,13.986,1.872,10.641.019,21.328-.064,31.969,0,1.99.622,2.656,2.663,1.998,6.121,2.183-.258,4.164.812,5.994,1.872,5.315.032,10.67-.023,15.984,0v7.993h15.984v7.993h15.984v7.993c2.653.012,5.339-.017,7.992,0,1.99.622,2.656,2.663,1.998,6.121,2.558-.542,4.91.295,6.993,1.872,2.653.017,5.339-.012,7.992,0v7.993h7.992v7.993h7.992v8.993h7.992v15.987h7.992v39.967h-7.992v7.993h-7.992c-.012,2.653.018,5.34,0,7.993l-1.139,1.998h-12.79c.215,4.818.053,9.278-6.963,7.997-6.785.19-13.578.233-20.067-2.002-4.99.548-6.988,2.775-5.994,6.68l-1.998,1.314c-37.456,3.329-75.423,3.144-112.89,0-1.583-1.739-2.18-3.814-2.109-6.12-3.197.675-5.158.051-5.883-1.873-.636,1.994-2.677,2.66-6.12,1.998.928,12.872.304,25.528-1.872,37.968-2.749,2.495-5.208,2.501-7.992,0-2.255,1.433-4.517,2.428-6.856,1.137,1.292,2.339.296,4.601-1.136,6.857,2.849,10.439,2.929,21.546,0,31.973-1.621,3.26-13.999,3.145-15.984,0-.779-.214-1.923-.54-1.998-1.165-.292-2.437-.446-19.726,0-21.358l1.998-1.457c-2.627,1.957-5.372,1.968-7.992,0-1.948-.494-2.614-2.329-1.998-5.504-.528-.664-15.011-2.216-12.65,2.842l-1.337,2.663c2.688,10.59,2.719,21.388,0,31.973,7.6-4.696,10.686-1.321,10.166,5.995,7.301-.803,10.101,2.2,5.818,9.992,2.495,2.749,2.501,5.209,0,7.993.402-3.06,7.331-2.923,7.992,0,1.971,2.621,1.962,5.367,0,7.993h-7.992c-.012-2.653.018-5.34,0-7.993-1.302,0-7.71.283-7.992,0v-7.993h-7.992c-.007-5.317.01-10.67,0-15.987-2.652-.035-5.34.025-7.992,0v-15.987h-7.992c-.025-2.653.035-5.341,0-7.993-1.462-1.692-2.295-3.636-1.976-5.856-3.219.446-5.224-.267-6.016-2.138-.018-2.654.018-5.34,0-7.993-.548-4.99-2.774-6.989-6.679-5.995l-1.314-1.998c-.032-5.315.023-10.671,0-15.987h-7.992c-.023-5.316.032-10.671,0-15.987-.548-4.99-2.774-6.989-6.679-5.995l-1.314-1.998c-.127-21.299.095-42.648,0-63.947h7.992v-7.993h7.992v-7.993h7.992v-16.986h7.992v-7.993h7.992v-7.993h7.992v-7.993h7.992v-7.993h7.992v-7.993c5.315-.023,10.67.032,15.984,0,4.99-.548,6.988-2.775,5.994-6.68l1.998-1.314c7.977-.048,15.999.013,23.977,0,4.928-1.369,9.932-2.522,14.985-1.585-.653-3.368.013-5.505,1.998-6.409,2.655-.005,5.337-.005,7.992,0Z"/>
      <path class="k" d="M435.575,152.877c-.011,5.317.008,10.67,0,15.987h-7.992v23.98h-7.992v31.973h7.992v31.973h-7.992v23.98h-7.992v15.987h-8.991v16.986h-7.992c-.025,2.653.035,5.341,0,7.993h-7.992c-.025,2.653.035,5.341,0,7.993s.025,5.34,0,7.993h-7.992v7.993c-2.653.025-5.34-.035-7.992,0-1.691,1.462-3.636,2.295-5.855,1.977.446,3.219-.267,5.225-2.137,6.017-.402,3.06-7.331,2.923-7.992,0-.088.782-.35,1.966-.895,1.998-4.047.241-30.694.4-32.109-.778-1.341-1.116-1.985-9.12,1.035-9.214-1.646,3.273-14.049,3.131-15.984,0-1.871-.571-2.596-2.569-2.174-5.995-7.731,1.823-10.595-5.61-5.818-9.992-1.646,3.273-14.049,3.131-15.984,0-3.26-1.622-3.145-14.001,0-15.987l-1.079,1.998c-7.375.404-10.69.573-10.086-7.993-7.997.938-8.076-2.083-7.992-8.993-3.116.612-5.056-.054-5.818-1.998-3.273-1.647-3.13-14.051,0-15.987.389,3.55-9.319,1.821-9.324.682-1.3-26.887-.329-53.766,1.332-80.615.521-1.96,2.578-2.584,6.172-1.873-.411-2.188.732-4.203,1.821-6.121,1.826-1.199,3.862-1.825,5.994-2.121v-28.403l1.998-1.45c.373-3.038,7.299-2.946,7.992,0,2.505,2.746,2.501,5.207,0,7.993l.69-1.998h126.97l1.214,1.998c-3.06-.402-2.923-7.332,0-7.993.208-.779.541-1.947,1.14-1.998,5.896-.5,16.515-.494,22.409,0l1.426,1.998c-6.519-5.608,1.932-14.625,7.992-7.993Z"/>
      <path class="g" d="M201.803,337.723c1.801,4.473,2.682,9.243,1.584,13.988,3.37-.652,5.506.014,6.408,1.998.776.21,1.84.498,1.998,1.165.491,2.075.334,18.759,0,21.358l-1.998,1.457,1.062-1.998c7.256-.59,9.557.211,9.105,7.993,3.117-.612,5.056.054,5.818,1.998,3.273,1.647,3.13,14.051,0,15.987l1.062-1.998c7.256-.59,9.557.211,9.105,7.993,3.117-.612,5.056.054,5.818,1.998l1.998,1.139c.57,3.295.901,13.427-1.998,14.847l1.062-1.998c7.256-.59,9.557.211,9.105,7.993,3.117-.612,5.056.054,5.818,1.998,3.273,1.647,3.13,14.051,0,15.987,4.273-4.916,11.656-1.824,10.166,5.995,7.18-.766,8.146,1.24,8.042,7.993,3.527-.677,5.782-.011,6.767,1.998l1.998,1.139c.57,3.295.901,13.427-1.998,14.847,4.273-4.916,11.656-1.824,10.166,5.995,7.125-.764,8.226,1.233,7.992,7.993,3.116-.612,5.056.054,5.818,1.998l1.998,1.139c.57,3.295.901,13.427-1.998,14.847l1.062-1.998c7.256-.59,9.557.211,9.105,7.993,3.117-.612,5.056.054,5.818,1.998,2.88.507,2.631,13.291,1.998,15.586l-1.998,1.4,1.062-1.998c7.256-.59,9.557.211,9.105,7.993,3.117-.612,5.056.054,5.818,1.998l1.998,1.139c.57,3.295.901,13.427-1.998,14.847.402-3.06,7.331-2.923,7.992,0,1.348,4.595,2.522,9.267,1.584,13.988,7.366-.945,11.253,2.198,6.408,9.992,1.462,1.692,2.295,3.636,1.976,5.856,3.219-.446,5.224.266,6.016,2.138,1.844,4.466,2.663,9.24,1.584,13.988,3.37-.652,5.506.014,6.408,1.998l1.998,1.139c.594,3.161.876,13.514-1.998,14.847.402-3.06,7.331-2.923,7.992,0,.779.214,1.92.539,1.998,1.165.316,2.546.47,19.507,0,21.358l-1.998,1.457c-.35-3.499,9.204-1.885,9.322-.718.852,8.392.657,16.455-1.33,24.698,1.348,4.594,2.522,9.266,1.584,13.988,3.369-.653,5.505.013,6.408,1.998-.026,10.643.019,21.331,0,31.973h-7.992v-23.98h-7.992v-15.987h-7.992v-7.993h-7.992v-15.987h-7.992v-15.987h-7.992v-7.993h-7.992v-7.993h-7.992v-7.993h-7.992v-7.993h-7.992v-7.993h-7.992v-7.993h-7.992v-7.993h-7.992v-7.993h-7.992v-7.993h-8.991v-7.993h-7.992v-7.993h-15.984v-7.993h-7.992v-7.993h-7.992v-32.973h7.992v-15.987h7.992v-7.993h-47.953v-23.98h-7.992v-31.973h-7.992c.106-23.963-.143-47.978,0-71.94,2.156-1.852,4.44-2.725,6.856-1.136-1.588-2.417-.715-4.701,1.136-6.857.035-2.653-.025-5.34,0-7.993h7.992Z"/>
      <path class="k" d="M225.78,296.757c2.115,12.894,2.53,25.943,1.584,38.968,7.199-.69,8.942.703,8.582,7.993,7.125-.766,8.228,1.239,7.992,7.993,7.125-.766,8.228,1.239,7.992,7.993,7.125-.766,8.228,1.239,7.992,7.993,7.731-1.824,10.595,5.612,5.818,9.992.186-.774.438-1.717,1.123-1.998,1.307-.538,15.596-.864,15.861,1.998,3.06.402,2.923,7.332,0,7.993,1.69-3.286,14.073-3.119,15.984,0,3.06.402,2.923,7.332,0,7.993,1.646-3.273,14.049-3.131,15.984,0,1.991.627,2.657,2.667,1.998,6.121,4.745-.42,9.433.484,13.986,1.872,3.038-.217,2.328,7.826,1.209,9.045-1.231,1.342-9.059,1.955-9.201-1.052l1.998,1.165v21.358l-1.998,1.457c.402-3.06,7.331-2.923,7.992,0l1.998,1.139c.57,3.295.901,13.427-1.998,14.847.402-3.06,7.331-2.923,7.992,0l1.998.932v61.806l-1.998,1.209c-.365-3.519,9.25-1.861,9.323-.7,1.053,16.601,1.046,33.164-1.331,49.66h-7.992v-15.987h-7.992v-7.993h-7.992v-16.986h-7.992v-7.993h-7.992v-15.987h-7.992v-7.993h-7.992v-7.993h-7.992v-15.987h-8.991v-7.993h-7.992v-7.993h-7.992v-15.987h-7.992v-7.993h-7.992v-15.987h-7.992v-7.993h-7.992v-15.987h-7.992v-7.993h-7.992v-23.98h-7.992c.023-5.315-.032-10.671,0-15.987.016-2.653-.011-5.34,0-7.993h7.992v-15.987h7.992v-16.986h7.992Z"/>
      <path class="j" d="M265.741,152.877c3.06.402,2.923,7.332,0,7.993v31.973c-2.653.012-5.34-.018-7.992,0-.016,2.653.011,5.341,0,7.993-.283.283-6.69,0-7.992,0v79.934h7.992v15.987h7.992v8.993h7.992v7.993h8.991v15.987h15.984v7.993h7.992v7.993h15.984v7.993h31.969c3.06.402,2.923,7.332,0,7.993,2,5.584,2.199,10.898,1.33,16.708-.203,1.356-9.389,2.609-9.322-.721l1.998,1.139c.594,3.161.876,13.514-1.998,14.847-.57,1.871-2.568,2.596-5.994,2.175.612,3.117-.055,5.057-1.998,5.819-2.625,1.958-5.37,1.962-7.992,0-5.316-.01-10.668.007-15.984,0v-7.993h-15.984v-7.993h-15.984v-7.993h-16.983v-7.993h-7.992v-7.993h-7.992v-7.993h-7.992v-7.993h-7.992v-7.993h-7.992c-.019-13.64.026-27.326,0-40.966-.015-7.98.014-16,0-23.98-.005-2.653.018-5.341,0-7.993-.548-4.99-2.774-6.989-6.679-5.995l-1.314-1.998c-.018-2.653.012-5.34,0-7.993h-7.992v-7.993c-2.653-.025-5.34.035-7.992,0-.019-10.641-.063-21.333,0-31.973,5.391-2.472,10.602-2.503,15.984,0,2.653.016,5.34-.011,7.992,0v23.98h15.984c.047-10.642-.064-21.331,0-31.973.402-3.06,7.331-2.923,7.992,0-3.037-.374-2.945-7.3,0-7.993,2.653-.018,5.34.018,7.992,0,.079-13.306-.059-26.661,0-39.967h7.992Z"/>
      <path class="k" d="M685.332,674.443c7.978-.007,15.998.005,23.977,0v-7.993h47.953v7.993h23.977v7.993h32.968v7.993h-7.992v7.993h-16.983v7.993c5.647.025,11.337-.034,16.983,0,1.99.622,2.656,2.663,1.998,6.121,2.183-.258,4.164.812,5.994,1.872,21.295.127,42.642-.095,63.938,0v-7.993h15.984c-.023,5.315.032,10.672,0,15.987-.622,1.99-2.662,2.657-6.12,1.998.531,2.221-.399,4.292-1.872,5.995-7.078,2.44-14.634,2.478-21.979,1.585.653,3.366-.013,5.502-1.998,6.409.001.775-.19,1.973-.673,1.998-11.708.603-26.399.596-38.113,0l-1.175-1.998c3.06.402,2.923,7.332,0,7.993-.088.782-.349,1.963-.898,1.998-3.799.246-30.253.414-31.403-.666-.34-.319-.525-.802-.667-1.332-3.037-.374-2.945-7.3,0-7.993-.092.779-.331,1.936-.895,1.998-6.004.665-23.843.829-29.624,0l-1.45-1.998c-3.06-.402-2.923-7.332,0-7.993-.214.78-.547,1.934-1.165,1.998-2.227.231-20.373.419-21.355,0-.763-.326-1.15-1.204-1.457-1.998-1.871-.571-2.596-2.569-2.174-5.995-7.731,1.823-10.595-5.61-5.818-9.992-1.646,3.273-14.049,3.131-15.984,0l-1.998-1.062c.873-4.412-.459-5.998-3.996-4.757.82,7.516-1.484,7.838-7.992,8.226v12.16l-1.998,1.42c-1.302,0-7.71-.283-7.992,0v7.993c-2.652.025-5.34-.035-7.992,0,.035-7.979-.048-16.001,0-23.98.622-1.991,2.662-2.657,6.12-1.998-.258-2.184.812-4.164,1.872-5.995.064-10.642-.047-21.331,0-31.973Z"/>
      <path class="j" d="M128.874,1020.156c2.653.016,5.339-.011,7.992,0v7.993h7.992v7.993h8.991v7.993h7.992v7.993h7.992c.008,5.317-.011,10.67,0,15.987,1.969,2.625,1.974,5.371,0,7.993-.018,2.653.012,5.34,0,7.993h-7.992v23.98c-2.653.012-5.34-.017-7.992,0-2.985.019-6.006-.014-8.991,0v7.993h-15.984v7.993h-39.961v-7.993h-7.992v-15.987h-7.992v-23.98h-7.992v-31.973h-7.992v-7.993h7.992v-7.993c15.197-2.357,30.515-2.885,45.955-1.585-1.693-11.076,7.839-9.695,17.982-6.409Z"/>
      <path class="j" d="M693.324,730.397v-15.987h7.992v-7.993h7.992v7.993h15.984v7.993h7.992v7.993h23.977v7.993h31.969v7.993h32.968v-7.993h39.961v-7.993c7.977-.035,16,.048,23.977,0,.035-2.652-.025-5.341,0-7.993h7.992c-.016,2.653.011,5.34,0,7.993-2.653.011-5.34-.016-7.992,0-.035,2.652.025,5.341,0,7.993h-7.992v7.993h-7.992v7.993h-23.977v8.993h-96.906v-8.993h-23.977v-7.993h-7.992v-7.993h-15.984v-7.993h-7.992Z"/>
      <path class="j" d="M435.575,144.883c-.018,2.653.005,5.34,0,7.993h-7.992v7.993h-24.976v7.993h-128.874c-.025-2.652.035-5.341,0-7.993,37.609,0,75.282.225,112.89,0,4.99-.548,6.988-2.775,5.994-6.68l1.998-1.314c8.31-.05,16.665.036,24.976,0v-7.993h15.984Z"/>
      <path class="k" d="M112.89,1004.169c1.646-3.273,14.049-3.131,15.984,0,.032,5.315-.023,10.671,0,15.987-5.314-.032-10.67.023-15.984,0v7.993c-15.968-.071-31.985.095-47.953,0-2.653-.016-5.339.011-7.992,0v-7.993h-7.992v-7.993c15.968.095,31.985-.071,47.953,0v-7.993c.565-.565,13.626,0,15.984,0Z"/>
      <path class="d" d="M451.56,947.216h7.992v31.973h-7.992c.011-10.644-.004-21.33,0-31.973Z"/>
      <path class="d" d="M491.521,546.549c-.025,10.642.018,21.331,0,31.973h-7.992c.025-10.642-.018-21.331,0-31.973h7.992Z"/>
      <path class="d" d="M282.724.004v7.993c-5.649.007-11.334-.009-16.983,0V.004c5.649-.007,11.334.01,16.983,0Z"/>
      <path class="d" d="M7.992,763.369c.002,5.316-.003,10.67,0,15.987H0v-15.987h7.992Z"/>
      <path class="d" d="M15.984,618.49c-.01,5.317.007,10.67,0,15.987h-7.992c.01-5.316-.007-10.67,0-15.987h7.992Z"/>
      <path class="d" d="M290.717.004c5.316.01,10.668-.007,15.984,0v7.993c-5.316-.01-10.668.007-15.984,0V.004Z"/>
      <path class="d" d="M402.608,39.97c2.985.019,6.006-.014,8.991,0v7.993c-2.985-.019-6.006.014-8.991,0v-7.993Z"/>
      <path class="d" d="M451.56,987.183c-.004,2.988.007,6.005,0,8.993h-7.992v-8.993h7.992Z"/>
      <path class="d" d="M24.976,538.556c-.016,2.653.011,5.34,0,7.993h-8.991c.016-2.653-.011-5.341,0-7.993h8.991Z"/>
      <path class="d" d="M193.811,345.716c-.035,2.653.025,5.34,0,7.993-2.653.025-5.34-.035-7.992,0,.016-2.653-.011-5.34,0-7.993h7.992Z"/>
      <path class="d" d="M128.874,377.69v7.993c-2.653.012-5.339-.018-7.992,0v-7.993c2.653-.011,5.339.016,7.992,0Z"/>
      <path class="d" d="M112.89,385.683v7.993c-2.653.011-5.34-.016-7.992,0v-7.993c2.653-.012,5.339.018,7.992,0Z"/>
      <path class="d" d="M483.529,417.656h7.992c.011,2.653-.016,5.341,0,7.993h-7.992c-.011-2.653.016-5.34,0-7.993Z"/>
      <path class="d" d="M177.827,208.83h7.992c.025,2.653-.035,5.341,0,7.993h-7.992c-.012-2.654.018-5.34,0-7.993Z"/>
      <path class="d" d="M169.834,192.843h7.992c.012,2.654-.018,5.34,0,7.993h-7.992c-.011-2.653.016-5.34,0-7.993Z"/>
      <path class="d" d="M507.505,674.443v7.993c-2.652.011-5.34-.016-7.992,0v-7.993c2.652-.011,5.34.016,7.992,0Z"/>
      <path class="j" d="M806.214,706.416c2.652.016,5.34-.011,7.992,0v7.993c-2.652-.016-5.34.011-7.992,0v-7.993Z"/>
      <path class="d" d="M153.85,152.877h7.992c.011,2.653-.016,5.34,0,7.993h-7.992c-.011-2.653.016-5.34,0-7.993Z"/>
      <path class="d" d="M548.465,771.363v7.993c-2.652.011-5.34-.016-7.992,0v-7.993c2.653-.011,5.34.016,7.992,0Z"/>
      <path class="d" d="M443.568,819.323h7.992c.011,2.653-.016,5.34,0,7.993h-7.992c-.011-2.653.016-5.341,0-7.993Z"/>
      <path class="d" d="M7.992,843.303h7.992c.011,2.653-.016,5.34,0,7.993h-7.992c-.011-2.653.016-5.341,0-7.993Z"/>
      <path class="d" d="M24.976,931.23h7.992c.011,2.653-.016,5.34,0,7.993h-7.992c-.011-2.653.016-5.34,0-7.993Z"/>
      <path class="d" d="M32.968,979.19h7.992c.011,2.653-.016,5.34,0,7.993h-7.992c-.011-2.653.016-5.34,0-7.993Z"/>
      <path class="d" d="M370.639,1012.162c.016-2.653-.011-5.34,0-7.993h7.992c.011,2.653-.016,5.34,0,7.993h-7.992Z"/>
      <path class="d" d="M338.67,7.997c2.653.016,5.339-.011,7.992,0v7.993c-2.653-.016-5.339.011-7.992,0v-7.993Z"/>
      <path class="d" d="M370.639,1044.136c-.016,2.653.011,5.34,0,7.993h-7.992c.016-2.653-.011-5.34,0-7.993h7.992Z"/>
      <path class="d" d="M241.764,7.997v7.993c-2.653.011-5.339-.016-7.992,0v-7.993c2.653-.011,5.339.016,7.992,0Z"/>
      <path class="d" d="M330.678,1076.109v7.993h-7.992c.016-2.653-.011-5.34,0-7.993,2.653-.011,5.339.016,7.992,0Z"/>
      <path class="d" d="M394.615,1076.109v7.993h-7.992v-7.993c2.652-.025,5.34.035,7.992,0Z"/>
      <path class="d" d="M346.662,1084.103v7.993h-7.992c.016-2.653-.011-5.34,0-7.993h7.992Z"/>
      <path class="d" d="M177.827,1116.076c2.653.016,5.339-.011,7.992,0v7.993c-2.652-.016-5.34.011-7.992,0v-7.993Z"/>
      <path class="d" d="M306.701,1116.076v7.993c-2.652.011-5.34-.016-7.992,0v-7.993c2.653-.025,5.34.035,7.992,0Z"/>
      <path class="g" d="M362.647,353.71c.402-3.06,7.331-2.923,7.992,0,.02,2.653-.014,5.341,0,7.993h7.992v7.993h7.992v7.993h7.992v15.987h7.992v7.993h8.991v23.98h-8.991v7.993h-7.992v7.993h16.983v7.993h15.984v80.933h-7.992v79.934h-7.992v39.967h-8.991v31.973h-7.992c-1.958-2.625-1.961-5.37,0-7.993-2.445-31.958-2.45-63.962,0-95.92-2.904-15.833-2.836-32.121,0-47.96-1.266-2.164-1.843-4.552-2.174-6.994-3.113.613-5.052-.054-5.818-1.998-2.162-20.59-2.505-41.284-1.584-61.949-3.336.66-5.472-.006-6.408-1.998-.787-.087-1.972-.365-1.998-.922-.582-12.354-.938-29.345,0-41.497-.623-3.056.043-4.903,1.998-5.541-.402,3.06-7.331,2.923-7.992,0-.781-.09-1.954-.343-1.998-.895-.331-4.153-.774-26.953,0-29.628l1.998-1.45c-.847,3.498-9.805,2.763-9.99-1.139v-12.792c-3.201.551-5.199-.134-5.994-2.055v-7.993h7.992Z"/>
      <path class="f" d="M104.898,746.383v-7.993h7.992v-7.993h7.992c.048,10.976-.065,21.997,0,32.973.548,4.99,2.774,6.989,6.679,5.995l1.314,1.998c.143,23.962-.106,47.978,0,71.94h-7.992v-55.953h-7.992c-.048-10.975.065-21.998,0-32.973-.548-4.99-2.774-6.989-6.679-5.995l-1.314-1.998Z"/>
      <path class="g" d="M112.89,1004.169v-7.993h15.984c.011,2.653-.016,5.34,0,7.993h-15.984Z"/>
      <path class="d" d="M394.615,674.443c-.003,2.655.004,5.338,0,7.993s.007,5.338,0,7.993h-7.992c-.007-5.317.01-10.67,0-15.987.402-3.06,7.331-2.923,7.992,0Z"/>
      <path class="j" d="M370.639,345.716c.014,2.653-.02,5.341,0,7.993h-7.992v-7.993c2.653-.025,5.34.035,7.992,0Z"/>
      <path class="h" d="M685.332,706.416c-.016,2.653.011,5.34,0,7.993h-7.992c.016-2.653-.011-5.34,0-7.993h7.992Z"/>
      <path class="d" d="M104.898,746.383h7.992c.011,2.653-.016,5.341,0,7.993h-7.992c-.283-.283,0-6.691,0-7.993Z"/>
      <path class="d" d="M120.882,763.369h7.992c.011,2.653-.016,5.341,0,7.993h-7.992c-.011-2.653.016-5.34,0-7.993Z"/>
      <path class="d" d="M169.834,1068.116h7.992v7.993h-7.992c.018-2.653.005-5.341,0-7.993Z"/>
      <path class="f" d="M201.803,208.83c.016-2.653-.011-5.34,0-7.993h15.984v7.993c-5.314-.032-10.67.023-15.984,0Z"/>
      <path class="d" d="M249.757,192.843v7.993h-7.992c.016-2.653-.011-5.34,0-7.993,2.653-.012,5.34.018,7.992,0Z"/>
      <path class="d" d="M394.615,152.877v7.993c-2.652.011-5.34-.016-7.992,0v-7.993c2.653-.011,5.339.016,7.992,0Z"/>
      <path class="f" d="M265.741,152.877c1.302,0,7.71-.283,7.992,0,.025,2.652-.035,5.341,0,7.993h-7.992v-7.993Z"/>
      <path class="f" d="M338.67,401.67c1.761-.518,3.53-.995,5.325-1.329,10.278-1.916,13.227-1.346,12.833,7.324,3.11-.613,5.05.053,5.818,1.998.774.002,1.96.181,1.998.673.687,8.961,1.206,29.713,0,38.119l-1.998,1.175c.402-3.06,7.331-2.923,7.992,0,.775,0,1.968.187,1.998.673.374,6.151,1.163,33.967,0,38.119l-1.998,1.175c.402-3.06,7.331-2.923,7.992,0,.772.005,1.95.175,1.998.673.931,9.721.964,29.427,0,39.118l-1.998,1.175c.774-2.776,7.186-2.829,7.992,0,2.132,15.241,2.521,30.619,1.584,45.962,3.347-.658,5.483.008,6.408,1.998.025,31.957.033,63.963,0,95.92h-7.992c-.014-7.98.011-16,0-23.98h-7.992v-23.98h-7.992v-15.987h-7.992c-.023-5.315.032-10.672,0-15.987-.548-4.99-2.774-6.989-6.679-5.995l-1.314-1.998c-.035-2.652.025-5.341,0-7.993h-7.992c-.007-5.317.01-10.67,0-15.987-.029-16.304.022-32.655,0-48.959h-7.992v-63.947h-7.992v-15.987h-7.992v-23.98h7.992v-7.993c2.655.005,5.337-.005,7.992,0Z"/>
      <path class="d" d="M354.654,586.516h7.992c.011,2.653-.016,5.34,0,7.993h-7.992c-.025-2.652.035-5.341,0-7.993Z"/>
      <path class="k" d="M354.654,361.703h7.992v15.987h7.992v31.973h7.992v47.96h7.992c.012,21.3-.016,42.647,0,63.947,1.962,2.961,1.959,6.031,0,8.993.373-3.038,7.299-2.946,7.992,0,.078,15.97-.012,31.99,0,47.96h-7.992c-.013-15.971.018-31.989,0-47.96-1.114,0-7.992.4-7.992,0v-40.966h-7.992v-39.967h-7.992v-39.967h-7.992v-7.993c-5.316-.007-10.668.01-15.984,0v-7.993h7.992v-15.987h7.992v-15.987Z"/>
      <path class="d" d="M217.788,256.79h7.992c.012,2.653-.018,5.34,0,7.993h-7.992c-.018-2.653.018-5.34,0-7.993Z"/>
      <path class="h" d="M386.623,521.57h7.992c.01,2.986-.015,6.007,0,8.993h-7.992c-.003-2.988.002-6.005,0-8.993Z"/>
    </g>
  </g>
</svg>