<?xml version="1.0" encoding="UTF-8"?>
<svg id="b" data-name="Layer 2" xmlns="http://www.w3.org/2000/svg" width="987.614" height="1643.343" viewBox="0 0 987.614 1643.343">
  <defs>
    <style>
      .d {
        fill: #477ae0;
      }

      .e {
        fill: #2c1155;
      }

      .f {
        fill: #49e7eb;
      }

      .g {
        fill: #fd4f69;
      }

      .h {
        fill: #346adb;
      }

      .i {
        fill: #7ff0ec;
      }

      .j {
        fill: #fdf6f7;
      }

      .k {
        fill: #ab1f65;
      }
    </style>
  </defs>
  <g id="c" data-name="Layer 1">
    <g>
      <path class="h" d="M117.791,412.778c5.852.004,5.603,6.68,0,7.997-7.798,6.5-.62,8.513,21.531,6.037l2.459,3.959c3.606,2.566,6.272,2.566,7.997,0-5.017-3.6-5.041-6.407,0-9.996,2.65.008,5.347-.018,7.997,0,3.035,1.842,5.701,5.174,7.997,9.996,4.966,4.494,12.211,5.84,21.735,4.038l2.255,3.959c3.605,2.567,6.27,2.567,7.997,0-5.048-2.941-5.06-5.057,0-7.997.53.249,7.467.249,7.997,0,5.06,2.94,5.049,5.056,0,7.997,7.524,6.094,25.608,6.405,31.987,0,3.432-.051,14.434.734,15.994,0,5.718.129,5.463,4.646,0,5.998l3.961,1.971c-1.334,3.837,5.343,6.513,20.03,8.025,3.044,1.507,5.709,1.507,7.997,0,2.523-3.893,5.476-3.895,7.997,0,2.524-3.894,5.477-3.897,7.997,0,3.548,2.267,5.653,4.094,1.848,5.438,7.424-2.841,15.523-2.1,22.142,2.559,4.39,2.27,7.722,4.936,9.996,7.997,4.3,16.347,5.713,33.674,4.238,51.979,9.901.776,10.005,11.023,3.759,17.993-3.69,3.932-3.69,7.264,0,9.996l2.674,10.658c-.467,8.897,1.307,16.007,5.323,21.329,1.563.179,3.914.688,3.998,1.791.545,7.143,1.217,55.757,0,59.282l-3.998,2.901c2.871-10.251,18.972.325,7.997,7.997,3.948,2.518,3.948,5.479,0,7.997-.613,3.185-3.279,5.851-7.997,7.997,3.995,8.261,5.408,17.59,4.238,27.989,4.761.561,8.68,4.559,11.755,11.995,5.718.129,5.463,4.646,0,5.998-9.595,5.807-22.562,5.99-31.987,0-3.459-.921-6.9-1.898-10.324-2.931l-69.095.886c-3.804-.528-7.315-1.857-10.546-3.953-45.216,4.348-90.731,4.378-135.946,0-5.092-3.576-5.068-6.408,0-9.996,3.189-5.692,10.191-1.244,12.368,3.998h88.55l-1.198-5.998c-5.213.532-7.594-2.68-8.056-7.72-8.001-.298-11.651-9.471-3.699-12.272-5.602-1.715-2.63-5.596,2.352-5.998l92.561.035c5.789,2.035,7.693,10.295,1.048,11.96.401-1.548.934-3.594,2.282-3.998,2.998-.9,39.939-.535,44.845,0l2.854,3.998c-1.555-.425-3.835-1.06-3.998-2.307-.602-4.587-.85-37.494,0-40.791l3.998-2.883c-.004,5.852-6.68,5.603-7.997,0-1.561-.181-3.9-.679-3.998-1.791-.915-10.367-1.835-50.722,0-59.282l3.998-2.901c-.147,5.974-8.922,5.514-9.996,0-1.556-.427-3.772-1.039-3.998-2.332-.959-5.466-.886-37.153,0-42.734l3.998-2.915c-3.488,11.134-19.573-2.365-7.997-7.997-.179,1.563-.688,3.914-1.791,3.998-7.143.545-55.757,1.217-59.282,0l-2.901-3.998c-3.234.258-4.251-1.043-4.243-3.998h-56.831l-2.901-3.998c-5.437-7.764-5.39-16.122,0-23.99-3.568-2.087-6.234-4.753-7.997-7.997-5.796-7.174-5.703-16.662,0-23.99l-2.199-1c-8.77.9-23.463-.084-11.796-8.996-.926,5.523-8.342,5.698-10.364,1-12.771.452-25.31.119-37.617-1-6.829-5.749-15.266-9.396-25.99-5.998,6.232,14.626,5.874,33.234,0,47.981,3.568,2.087,6.234,4.753,7.997,7.997,6.563,19.549,5.971,44.25,0,63.974,3.568,2.087,6.234,4.753,7.997,7.997,8.345,4.721,1.094,5.413,1.553,5.35,15.544-2.14,31.387-2.675,46.427,2.647,1.918,2.91,5.27,4.105,10.057,3.585,2.891,2.393,2.443,62.662,1.939,71.449l-3.998,2.935-3.209,3.067c-2.532.266-18.124-10.64-17.022-15.062-5.312.532-7.784-2.857-7.997-7.997-5.312.532-7.784-2.857-7.997-7.997-5.391.542-7.63-2.877-8.11-7.997-9.386,1.522-14.901-1.216-16.545-8.215l-3.094-3.781c-3.863-1.823-3.854-4.166,0-5.998-5.08-2.928-5.069-5.067,0-7.997-12.801-1.354-15.467-4.02-7.997-7.997-6.569-14.449-6.034-35.225,0-49.98-12.301-7.029-14.966-11.694-7.997-13.994-5.49-15.78-5.373-32.179,0-47.981-2.205-3.794-3.719-7.847-4.543-12.16-8.349-1.961-11.072-16.561-3.454-19.827-5.092-2.912-5.085-5.083,0-7.997-5.974-.147-5.514-8.922,0-9.996-.254-1.745.258-3.097,1.704-3.972,9.989,1.937,17.418.596,22.287-4.025,5.307.016,10.688-.092,15.994,0Z"/>
      <path class="h" d="M82.782,410.497c5.852.004,5.603,6.68,0,7.997-.004,5.852-6.68,5.603-7.997,0-5.851-.004-5.603-6.68,0-7.997,2.647-.056,5.349.014,7.997,0Z"/>
      <path class="e" d="M101.798,670.674c1.484.179,3.622.63,3.735,1.68.774,7.252.943,28.171.231,35.476l-3.966,2.827c5.852.003,5.602,6.68,0,7.997,46.346-.705,92.733-.995,139.161-.872,30.731-5.283,63.787-5.746,94.746-1.128,10.631.134,21.358-.184,31.987,0,2.001-4.135,6.019-4.164,7.997,0l2.528-2.578c10.77-1.87,20.326,1.216,29.459,4.577,6.7-5.724,17.376-5.958,23.99,0,.046,2.649-.03,5.347,0,7.997h7.997v7.997c4.295.17,8.687-.246,12.995,0,5.767.329,2.226,4.137,2.999,7.997-21.941,3.94-44.031,3.92-65.974,0-7.049-1.327-4.249-8.94.459-12.33-88.795.943-177.657.696-266.586-.74l-13.761-2.923c-2.644-.056-5.358.114-7.997,0v-7.997c-2.647-.046-5.349.03-7.997,0-.017-10.638.023-21.349,0-31.987-3.91-3.209-3.906-6.784,0-9.996-3.872-1.827-3.871-4.17,0-5.998.004-5.852,6.68-5.603,7.997,0Z"/>
      <path class="g" d="M301.718,452.762h33.986v7.997h7.997v47.981h7.997v63.974h7.997v55.978h4.998l2.999,2.999c.083,2.329-.127,4.696,0,6.997,5.539,2.385,5.466,5.646,0,7.997-.056,2.647.036,5.349,0,7.997h-7.997c-.056-2.647.036-5.349,0-7.997h-7.997v-63.974h-7.997c-.021-10.639.03-21.348,0-31.987-3.903-3.206-3.893-6.781,0-9.996-.039-4.644.027-9.351,0-13.994h-7.997c-.237-18.623.323-37.357,0-55.978-3.321-2.709-6.653-5.374-9.996-7.997-3.751-4.23-9.084-6.005-15.998-5.323l-7.993-2.674c-1.788-.369-1.716-1.048,0-1.999Z"/>
      <path class="e" d="M90.779,538.446l3.977,6.484c-2.118,13.603-.778,25.436,4.019,35.499.051,1.984-.03,4.013,0,5.998h6.997l1,1.999c-.004,5.852-6.68,5.603-7.997,0-.155,2.899-1.35,4.082-3.998,4.238.544,7.906-9.556,11.348-11.995,3.759-.044-15.967.078-32.014,0-47.981-3.885-2.516-3.872-5.468,0-7.997-1.784-.37-1.712-1.048,0-1.999.004-5.852,6.68-5.603,7.997,0Z"/>
      <path class="e" d="M74.785,460.477c2.871-10.251,18.973.327,7.997,7.997,6.145,15.065,5.966,32.87,0,47.981,5.852.004,5.603,6.68,0,7.997-2.941,5.049-5.057,5.06-7.997,0-.035-13.302.033-26.682,0-39.984-3.931-5.249-3.925-10.742,0-15.994-5.852-.004-5.603-6.68,0-7.997Z"/>
      <path class="k" d="M263.733,444.765h36.985l1,1.999c-1.227,3.48-3.893,6.146-7.997,7.997-2.655-.005-5.342.005-7.997,0-2.524,3.894-5.477,3.897-7.997,0-7.974-.028-16.017.02-23.99,0-.353-.353,0-7.978,0-9.996.008-6.024,8.935-5.318,9.996,0Z"/>
      <path class="k" d="M122.766,418.494c2.916-5.083,5.078-5.075,7.997,0,7.972-.043,16.018-.024,23.99,0-.046,3.315.069,6.682,0,9.996-.004,5.852-6.68,5.603-7.997,0-4.72,0-30.856,1.131-31.987,0v-9.996c2.649-.036,5.349.056,7.997,0Z"/>
      <path class="e" d="M98.775,610.417c1.551.415,3.877,1.055,3.998,2.249.87,8.523.856,28.418,0,36.925l-3.998,2.809c3.869,1.827,3.868,4.17,0,5.998-.004,5.852-6.68,5.603-7.997,0-.031-12.635.068-25.35,0-37.985-5.014-3.594-4.993-6.393,0-9.996.004-5.852,6.68-5.603,7.997,0Z"/>
      <path class="e" d="M74.785,410.497v7.997c5.926.069,5.545,8.93,0,9.996,5.843-.005,5.588,6.681,0,7.997,6.02.74,5.802,14.75,0,15.994-.004,5.852-6.68,5.603-7.997,0-.024-13.97.017-28.013,0-41.983,2.648-.036,5.349.056,7.997,0Z"/>
      <path class="k" d="M178.743,426.49c8.438-.305,17.558-1.026,23.99,1.999-.044,2.65.068,5.348,0,7.997-.004,5.852-6.68,5.603-7.997,0-3.574,0-23.142.848-23.99,0v-7.997c-.906-6.546,5.624-8.188,7.997-1.999Z"/>
      <path class="h" d="M98.775,588.426c5.852,0,5.596,6.677,0,7.997,6.05.694,5.784,12.794,0,13.994h-7.997c-4.272-1.026-6.938-3.025-7.997-5.998-.018-2.65.007-5.347,0-7.997h7.997v-7.997c.283-.283,6.106,0,7.997,0Z"/>
      <path class="i" d="M210.731,428.49c.101-.048-.364-1.666,1-1.999,3.728-.911,9.807.638,13.994,0l2.999,2.999v4.998c3.218.681,13.386-1.843,13.994,1.999-9.983,5.845-21.944,5.696-31.987,0-.068-2.647.044-5.349,0-7.997Z"/>
      <path class="k" d="M82.782,418.494v9.996c-.004,5.852-6.68,5.603-7.997,0v-9.996h7.997Z"/>
      <path class="k" d="M106.772,410.497v7.997c-.848.848-20.417,0-23.99,0v-7.997c7.971-.043,16.019-.024,23.99,0Z"/>
      <path class="h" d="M82.782,524.451c4.937-9.13,17.247,2.032,7.997,5.998,5.108,2.922,5.096,5.071,0,7.997h-7.997c-2.175-.752-4.84-.752-7.997,0-.056-4.643.012-9.35,0-13.994,2.648.044,5.35-.068,7.997,0Z"/>
      <path class="i" d="M162.75,418.494c5.31.035,10.684-.025,15.994,0v7.997c-5.296.191-4.792.492-7.997,1.999-1.447.68-5.752-.439-7.997,0v-9.996Z"/>
      <path class="i" d="M82.782,604.419h7.997c.032,1.984-.053,4.014,0,5.998.088,3.309-.018,6.685,0,9.996h-7.997c-.025-5.31.035-10.683,0-15.994Z"/>
      <path class="h" d="M98.775,658.398c3.911,3.209,3.908,6.784,0,9.996.002,1.989-.002,4.008,0,5.998-.004,5.852-6.68,5.603-7.997,0-.066-5.308.013-10.685,0-15.994h7.997Z"/>
      <path class="i" d="M74.785,468.474c0,5.314-.013,10.679,0,15.994h-7.997c-.025-5.31.035-10.684,0-15.994.004-5.852,6.68-5.603,7.997,0Z"/>
      <path class="h" d="M74.785,452.48c5.852.004,5.603,6.68,0,7.997v7.997h-7.997c-.035-5.309.009-10.684,0-15.994h7.997Z"/>
      <path class="i" d="M98.775,674.391c.004,3.318-.007,6.678,0,9.996h-7.997c-.028-3.314.041-6.682,0-9.996h7.997Z"/>
      <path class="i" d="M263.733,444.765h-9.996v-5.998c.101-.048-.364-1.666,1-1.999,6.171-1.509,10.149,1.74,8.996,7.997Z"/>
      <path class="i" d="M82.782,540.445c.046,2.648-.013,5.348,0,7.997h-7.997c-.036-2.649.056-5.349,0-7.997,2.938-5.099,5.913-6.062,7.997,0Z"/>
      <path class="j" d="M301.718,446.764c.03,1.984-.051,4.015,0,5.998.017.666-.016,1.333,0,1.999-2.655-.009-5.342.005-7.997,0v-7.997h7.997Z"/>
      <path class="i" d="M122.766,410.497c2.648.046,5.348-.03,7.997,0v7.997c-2.649.014-5.35-.056-7.997,0v-7.997Z"/>
      <path class="d" d="M74.785,538.446l1.999-1v-4.998h5.998c.038,1.984-.065,4.015,0,5.998.022.665-.012,1.333,0,1.999h-7.997c-.014-.666.008-1.333,0-1.999Z"/>
      <path class="j" d="M389.683,742.646c21.963-.019,44.01.018,65.974,0,34.622-.028,69.336.043,103.958,0,6.506,4.563,15.411,5.93,26.717,4.101l5.27,3.895,7.997,7.997v7.997c-15.968.02-32.013-.027-47.981,0-2.263-.275-6.592-4.952-6.312-5.379,2.559-3.904,4.554,4.541-1.685,5.379-6.375,2.692-13.121,4.056-19.992,4.238-.241,8.233-7.689,10.815-11.995,3.759-7.965.138-16.023-.014-23.99,0-4.651-3.187-8.638-5.571-15.994-7.997-15.887,5.418-32.112,5.5-47.981,0-10.637-.019-21.35.014-31.987,0v-7.997c-18.629-.041-37.349.055-55.978,0-5.852-.004-5.603-6.68,0-7.997,2.528-3.876,5.48-3.887,7.997,0,9.745-1.755,17.741-4.421,23.99-7.997,7.254-3.941,14.732-3.927,21.991,0Z"/>
      <path class="f" d="M189.763,510.738h63.974v7.997h63.974v7.997h7.997v47.981h9.996v63.974h7.997v45.982h-49.98v-7.997h-94.962c-1.364.334-.898,1.952-1,1.999.57,5.833-14.318,5.142-18.269,4.042-9.476-2.637-10.564-7.972-9.72-17.055-5.66-2.27-10.284-9.171-3.998-12.977v-71.971c-6.326.025-9.268,2.139-7.997-5.998,9.013-5.407,18.513-6.797,20.556,3.998h15.521l-.052-17.737,3.959-2.255c4.192-5.068,4.192-7.734,0-7.997,1.848,6.452-10.342,3.699-10.625,1.477-1.81-14.212-1.329-27.609,2.628-41.461Z"/>
      <path class="j" d="M98.775,436.486c8.356-2.863,28.965-1.647,15.994,7.997.927-5.518,8.323-5.705,10.364-1,12.771-.452,25.31-.119,37.617,1,6.308,5.279,13.881,7.611,22.719,6.997l1.271,1c.099,7.969-.138,16.023,0,23.99,3.568,2.087,6.234,4.753,7.997,7.997.138,7.965-.014,16.022,0,23.99.023,13.304-.016,26.68,0,39.984,2.245-.439,6.55.68,7.997,0,5.852.004,5.603,6.68,0,7.997,0,3.573.848,23.142,0,23.99h-23.99v-7.997c-5.309-.022-10.684.032-15.994,0-15.965-.095-32.015.07-47.981,0-.073-2.645.113-5.356,0-7.997-3.53-2.026-6.195-4.692-7.997-7.997-.369-21.284.369-42.691,0-63.974-3.568-2.087-6.234-4.753-7.997-7.997-.276-15.957.203-32.022,0-47.981Z"/>
      <path class="e" d="M106.772,602.42c8.445-.611,8.793-1.127,7.997,7.997h15.994v7.997h7.997v7.997h7.997v7.997h7.997v7.997h7.997v4.998l7.997,2.999,1.999,7.997h5.998v15.994c3.211-1.099,4.215,1.861,4.998,1.999,2.196.387,18.133.404,18.992,0-.611,8.446-1.126,8.792,7.997,7.997v7.997h7.997v7.997h7.997v5.998h-103.958v-4.998l-7.997-2.999c-5.015-12.755-4.961-25.217,0-37.985-3.893-2.521-3.89-5.473,0-7.997-1.423-9.773-4.088-17.77-7.997-23.99-4.96-8.799-4.93-17.18,0-25.99Z"/>
      <path class="k" d="M109.795,710.658c3.983,2.026,5.664,3.332,1.534,3.354l130.551-.368,3.86-2.986c27.847.028,57.332-1.311,84.966,0,6.266.297.484,4.618,4.998,5.998-75.344,2.64-156.499,3.34-233.906,1.999v-7.997c.004-5.852,6.68-5.603,7.997,0Z"/>
      <path class="g" d="M109.795,662.678c.022,12.633-.068,25.352,0,37.985.018,3.31-.088,6.689,0,9.996,45.282,0,90.663-.046,135.946,0,.277,6.727,1.253,5.822-4.998,5.998-43.577,1.227-87.376-.913-130.948,0-.032-1.983.053-4.015,0-5.998h-7.997c0-6.161-1.063-37.724,0-39.984-4.945-5.364,2.046-18.777,7.997-7.997Z"/>
      <path class="g" d="M106.772,596.422c.042,1.984-.013,4.012,0,5.998.057,8.638,0,17.351,0,25.99,6.364,1.617,6.083,21.818,0,23.99-.004,5.852-6.68,5.603-7.997,0v-55.978c.004-5.852,6.68-5.603,7.997,0Z"/>
      <path class="g" d="M98.775,530.449c.288,16.619-.425,33.368,0,49.98-3.86-.772-7.668,2.768-7.997-2.999-.721-12.636.084-26.214,0-38.984-.018-2.647.08-5.352,0-7.997.004-5.852,6.68-5.603,7.997,0Z"/>
      <path class="g" d="M90.779,468.474c.095,15.965-.07,32.015,0,47.981-.005,5.849-6.681,5.604-7.997,0,0-15.953.276-32.034,0-47.981.004-5.852,6.68-5.603,7.997,0Z"/>
      <path class="d" d="M98.775,436.486c1.304-3.445,7.87-1.975,10.996-1.999,4.998-.039,10.018.027,14.994,0v7.997h47.981v7.997h12.995l1,1.999h-23.99v-7.997h-47.981v-7.997h-15.994Z"/>
      <path class="k" d="M82.782,436.486c.183,8.089-2.663,17.319,7.997,15.994.022,5.31-.032,10.684,0,15.994h-7.997c-.046-2.648.03-5.348,0-7.997h-7.997v-23.99c.004-5.852,6.68-5.603,7.997,0Z"/>
      <path class="k" d="M242.718,436.486v7.997h-31.987c-.044-2.648.068-5.35,0-7.997,10.634-.115,21.354.159,31.987,0Z"/>
      <path class="k" d="M301.718,454.761c7.974.028,16.017-.02,23.99,0,.073,2.645-.113,5.355,0,7.997,3.313.041,6.683-.028,9.996,0,.03,2.648-.046,5.349,0,7.997h-9.996c-.073-2.645.113-5.355,0-7.997-7.97-.1-16.019.072-23.99,0-.042-2.648.065-5.35,0-7.997Z"/>
      <path class="k" d="M90.779,516.454v5.998h7.997c.03,2.649-.046,5.348,0,7.997h-7.997c-.06-1.983.036-4.013,0-5.998-2.648-.044-5.35.068-7.997,0v-7.997h7.997Z"/>
      <path class="f" d="M343.701,540.726c.028,3.313-.009,6.682,0,9.996h-7.997v-9.996h7.997Z"/>
      <path class="k" d="M106.772,588.426c.036,2.649-.056,5.349,0,7.997h-7.997v-7.997h7.997Z"/>
      <path class="f" d="M106.772,556.438h7.997c.073,2.645-.113,5.356,0,7.997h-7.997c-.03-2.648.046-5.349,0-7.997Z"/>
      <path class="f" d="M98.775,484.467h7.997c.03,2.648-.046,5.349,0,7.997h-7.997c-.03-2.648.046-5.349,0-7.997Z"/>
      <path class="f" d="M186.74,476.47h7.997c.03,2.649-.046,5.348,0,7.997h-7.997c-.03-2.648.046-5.349,0-7.997Z"/>
      <path class="f" d="M285.724,454.761v7.997h-7.997v-7.997c2.655.009,5.342-.005,7.997,0Z"/>
      <path class="f" d="M202.734,436.486c-.068,2.649.044,5.347,0,7.997h-7.997v-7.997h7.997Z"/>
      <path class="f" d="M154.753,428.49c-.055,2.649.035,5.347,0,7.997h-7.997v-7.997h7.997Z"/>
      <path class="g" d="M82.782,428.49c0,2.647-.06,5.351,0,7.997h-7.997v-7.997h7.997Z"/>
      <path class="i" d="M203.757,734.649c.666-1.294,1.332-1.294,1.999,0,3.41-.212,4.503,1.18,3.998,4.238l94.168-.392c7.426.509,14.688,1.896,21.786,4.151,3.462,1.496,6.794,4.162,9.996,7.997v7.997c-51.279-.152-102.659.029-153.938,0v-23.99c1.264-5.597,20.727-5.64,21.991,0Z"/>
      <path class="h" d="M109.795,726.652c101.168,2.152,202.686-1.609,303.878,0v5.998c-9.924,1.33-26.536-5.449-23.99,9.996-7.306.006-14.685-.024-21.991,0-9.773,1.423-17.77,4.088-23.99,7.997-2.65-.012-5.348.039-7.997,0-3.431-1.959-6.763-4.624-9.996-7.997-39.94-.5-80.008.372-119.952,0v-7.997c-.799-.943-1.466-.943-1.999,0-4.784-.385-19.695,1.08-21.991,0-9.939-4.675-51.43-1.562-66.973-1.999-6.251-.176-5.275.729-4.998-5.998Z"/>
      <path class="k" d="M106.772,652.4c.004-5.852,6.68-5.603,7.997,0,.009,2.654-.005,5.343,0,7.997h-5.998c-.3,2.205.474,5.06,0,6.997-.333,1.364-1.952.898-1.999,1h-7.997c-.003-3.318.009-6.678,0-9.996-.006-1.989,0-4.008,0-5.998h7.997Z"/>
      <path class="e" d="M293.721,638.687c-.186-10.754-1.362-26.955,0-36.985.363-2.673.941-3.346,2.999-4.998h11.995l2.999,2.999v4.998h4.998l2.999,2.999v4.998h5.998v33.986h-7.997v7.997h-15.994c-.073-2.645.113-5.355,0-7.997-3.53-2.026-6.195-4.692-7.997-7.997Z"/>
      <rect class="d" x="253.737" y="556.72" width="31.987" height="9.996"/>
      <rect class="d" x="194.737" y="626.41" width="23.99" height="9.996"/>
      <path class="d" d="M237.743,606.7c.101-.048-.364-1.666,1-1.999,3.983-.974,10.54.683,14.994,0v9.996c-5.31.025-10.684-.035-15.994,0-5.852-.004-5.603-6.68,0-7.997Z"/>
      <path class="d" d="M218.727,524.451c.101-.048-.364-1.666,1-1.999,3.984-.974,10.539.683,14.994,0v9.996c-5.311.027-10.683-.038-15.994,0-5.852-.004-5.603-6.68,0-7.997Z"/>
      <path class="d" d="M226.724,604.419c5.852.004,5.603,6.68,0,7.997-5.31-.035-10.684.025-15.994,0v-9.996c4.454.683,11.011-.974,14.994,0,1.364.333.898,1.952,1,1.999Z"/>
      <path class="d" d="M253.737,582.71c5.852.004,5.603,6.68,0,7.997-5.311-.038-10.683.027-15.994,0v-9.996c4.455.683,11.01-.974,14.994,0,1.364.333.898,1.952,1,1.999Z"/>
      <path class="e" d="M242.718,604.419v7.997c-5.308.035-10.686.035-15.994,0v-7.997c.724.34,15.27.34,15.994,0Z"/>
      <path class="d" d="M210.731,524.451c5.852.004,5.603,6.68,0,7.997-2.648-.056-5.347.036-7.997,0v-9.996c2.205.3,5.06-.473,6.997,0,1.364.333.898,1.952,1,1.999Z"/>
      <path class="d" d="M261.734,582.71c.101-.048-.364-1.666,1-1.999,1.937-.473,4.792.3,6.997,0v9.996c-2.649.036-5.348-.056-7.997,0-5.852-.004-5.603-6.68,0-7.997Z"/>
      <path class="d" d="M277.727,534.729c5.852.004,5.603,6.68,0,7.997-2.649-.056-5.347.036-7.997,0v-9.996c2.206.299,5.06-.473,6.997,0,1.364.333.898,1.952,1,1.999Z"/>
      <path class="d" d="M285.724,534.729c.101-.048-.364-1.666,1-1.999,1.937-.473,4.791.299,6.997,0v9.996c-2.65.036-5.348-.056-7.997,0-5.852-.004-5.603-6.68,0-7.997Z"/>
      <path class="d" d="M202.734,548.442c.101-.048-.364-1.666,1-1.999,1.937-.474,4.793.3,6.997,0v9.996h-7.997v-7.997Z"/>
      <path class="e" d="M261.734,582.71v7.997c-2.646.056-5.35.019-7.997,0v-7.997c.53.249,7.467.249,7.997,0Z"/>
      <path class="h" d="M293.721,638.687h7.997c.073,2.645-.113,5.355,0,7.997h-7.997c-.03-2.649.046-5.348,0-7.997Z"/>
      <path class="e" d="M285.724,534.729v7.997c-2.643.055-5.354.055-7.997,0v-7.997c.53.249,7.467.249,7.997,0Z"/>
      <path class="e" d="M218.727,524.451v7.997c-2.647.019-5.351.056-7.997,0v-7.997c.53.249,7.467.249,7.997,0Z"/>
      <rect class="h" x="122.766" y="540.445" width="23.99" height="7.997"/>
      <path class="d" d="M130.763,484.467c3.002,1.414,5.668,1.414,7.997,0,2.648.056,5.347-.036,7.997,0v7.997h-23.99v-7.997c2.649-.036,5.348.056,7.997,0Z"/>
      <path class="f" d="M154.753,460.477c3.558,2.794,6.89,2.794,9.996,0,1.984.053,4.013-.032,5.998,0v7.997h-23.99v-7.997c2.649-.034,5.348.052,7.997,0Z"/>
      <rect class="d" x="106.772" y="452.48" width="15.994" height="7.997"/>
      <rect class="d" x="154.753" y="516.454" width="7.997" height="7.997"/>
      <path class="e" d="M164.749,460.477v5.998h-9.996v-5.998c3.302-.065,6.696-.088,9.996,0Z"/>
      <path class="e" d="M138.759,484.467v5.998h-7.997v-5.998c2.642-.055,5.355-.055,7.997,0Z"/>
      <path class="h" d="M106.772,628.41h7.997c.018,7.975-.026,16.016,0,23.99h-7.997v-23.99Z"/>
      <path class="d" d="M325.708,742.646c3.312.041,6.683-.028,9.996,0,.283.283,0,6.107,0,7.997-3.314-.049-6.682.033-9.996,0v-7.997Z"/>
      <path class="f" d="M210.731,732.368c-.664-.04-1.338.053-1.999,0l1-1.999,1,1.999Z"/>
      <path class="f" d="M309.715,614.697c1.891,0,7.714-.283,7.997,0v21.991h-15.994c.956-6.086-1.334-15.534,0-20.992.333-1.364,1.952-.898,1.999-1,.129-5.718,4.646-5.463,5.998,0Z"/>
      <path class="d" d="M303.717,614.697c.681-1.447-.439-5.752,0-7.997h5.998v7.997h-5.998Z"/>
      <path class="e" d="M729.717,537.785c3.872-1.967,7.959-3.197,12.266-3.667l85.729-.47c6.649-.52,10.393,2.525,9.962,8.375,12.779-.864,25.494.834,37.985,3.759,15.706-4.187,35.255-9.276,36.851,5.16l3.133.837c1.446-.68,5.753.439,7.997,0v15.994h7.997v409.836c-1.507,3.044-1.507,5.709,0,7.997.038,21.294-.052,42.68,0,63.974,3.905,3.207,3.896,6.782,0,9.996,1.927,6.202,4.593,11.534,7.997,15.994.044,17.965-.027,36.014,0,53.978,3.92,5.92,3.9,12.062,0,17.993,1.927,6.202,4.593,11.534,7.997,15.994.023,15.302-.023,30.68,0,45.982,3.92,5.92,3.9,12.062,0,17.993,1.927,6.202,4.593,11.534,7.997,15.994.023,15.302-.017,30.68,0,45.982,3.924,5.923,3.912,12.065,0,17.993,1.423,9.773,4.088,17.77,7.997,23.99.015,13.303-.016,26.681,0,39.984,3.921,5.248,3.912,10.74,0,15.994,1.423,9.773,4.088,17.77,7.997,23.99.016,13.833,1.905,35.333,0,47.981,2.659,6.469,5.045,12.22,7.997,17.993.127,25.958-.094,52.01,0,77.969h7.997v23.99c-7.967-.116-16.025.161-23.99,0-2.063-1.356-4.062-1.356-5.998,0l-1.999-1c-.064-23.654.087-47.342,0-70.972-4.978-5.502-4.993-10.422,0-15.994l-3.977-5.81c1.817-10.349.477-19.075-4.02-26.178-.009-10.636.041-21.351,0-31.987-4.979-5.502-4.993-10.422,0-15.994l-3.977-5.81c1.817-10.349.477-19.074-4.02-26.177-.009-10.636.038-21.351,0-31.987-4.991-6.18-4.961-11.798,0-17.993-3.992-6.983-5.281-15.65-3.867-26l-4.13-5.987c.139-12.625.061-25.359,0-37.985-3.908-3.205-3.895-6.78,0-9.996l-3.977-5.81c1.817-10.349.477-19.074-4.02-26.177-.017-15.302.023-30.68,0-45.982-3.893-2.521-3.891-5.473,0-7.997-1.33-10.611-3.995-19.274-7.997-25.99-.023-12.634.061-25.351,0-37.985-3.908-3.205-3.895-6.78,0-9.996-3.992-6.983-5.281-15.65-3.867-26l-4.13-5.987c.139-12.63-.036-25.353,0-37.985-3.915-5.928-3.928-12.071,0-17.993-4.893-39.936-4.951-80.019,0-119.952-3.921-5.251-3.922-10.744,0-15.994-3.925-21.274-3.922-42.7,0-63.974-3.871-1.827-3.871-4.17,0-5.998v-1.999c-1.557-.428-3.795-1.051-3.998-2.332-.896-5.644-.949-37.326,0-42.734l3.998-2.915-3.998-1.853-.24-162.081c-5.217.583-8.257-3.149-7.757-8.237-10.251.982-20.356.095-29.988-3.759-2.903.281-4.71-1.719-5.424-5.998l-97.465-.034c-3.674-6.056-7.527-8.71-11.559-7.962-2.872,6.79-8.596,9.565-17.171,8.325-1.045,6.455-6.376,9.121-15.994,7.997,1.085,10.557-1.82,15.776-8.716,15.654,1.027,28.745.897,57.508-3.607,85.976,4.935,21.341,4.982,42.639,0,63.974,3.924,7.933,3.947,16.065,0,23.99-1.568,2.446-2.956,4.628-4.165,6.546l.135,34.543-3.967,6.892c5.322,47.875,5.357,96.07,0,143.942,5.444,5.116,5.397,10.857,0,15.994,1.93,4.623,3.87,5.922,5.818,3.898,42.285,1.195,84.324.82,126.117-1.127l4.011-2.772c.176-1.563.686-3.9,1.797-3.987,9.42-.74,54.596-1.78,61.265-.011l2.911,3.998c3.926,7.927,3.911,16.059,0,23.99l-2.125,3.998c-6.574-.532-9.316-.243-13.869,3.998h-33.986c-1.683-.257-3.468-.824-4.058-2.29-1.395-3.468-31.351-4.056-35.926,2.29h-111.955c-.015,10.638.021,21.349,0,31.987,3.899,3.21,3.898,6.785,0,9.996,1.423,9.773,4.088,17.77,7.997,23.99.035,20.629-.07,41.346,0,61.975,4.991,6.181,4.961,11.798,0,17.993l3.977,5.81c-1.817,10.349-.477,19.074,4.02,26.177.019,23.293-.114,46.679,0,69.972,1.729,7.025,4.394,13.022,7.997,17.993.175,29.289-.148,58.675,0,87.965,3.894,2.518,3.886,5.47,0,7.997l3.977,5.81c-1.817,10.349-.477,19.075,4.02,26.178.024,21.295-.078,42.68,0,63.974,4.978,5.503,4.993,10.422,0,15.994l3.977,5.81c-1.817,10.349-.477,19.074,4.02,26.178.017,21.295-.059,42.679,0,63.974,5.444,5.116,5.397,10.857,0,15.994,3.568,2.087,6.234,4.753,7.997,7.997.037,13.302-.027,26.682,0,39.984-.828.828-11.949-.744-14.994,0-1.364.333-.898,1.952-1,1.999-.544,2.668-2.544,4.668-5.998,5.998l-1.999-1c-.036-7.663.051-15.351,0-22.991-4.267-4.71-4.23-11.266,0-15.994l-3.977-5.81c1.817-10.348.477-19.074-4.02-26.177-.007-13.3.03-26.684,0-39.984-5.486-10.494-5.418-21.471,0-31.987l-3.977-5.81c1.817-10.349.477-19.075-4.02-26.178-.036-15.965.046-32.016,0-47.981-4.978-8.139-4.932-15.835,0-23.99l-3.977-5.81c1.817-10.349.477-19.075-4.02-26.178-.062-21.295.07-42.679,0-63.974-3.894-2.52-3.889-5.472,0-7.997-3.894-2.518-3.886-5.471,0-7.997l-3.981-5.637c1.903-11.152.564-20.602-4.016-28.349-.054-15.299.032-30.683,0-45.982-4.98-8.142-4.95-15.838,0-23.99l-3.971-6.483c2.118-13.603.776-25.436-4.026-35.5-.028-12.636.027-25.348,0-37.985-4.969-10.771-4.911-21.2,0-31.987l-3.979-5.637c1.902-11.152.563-20.602-4.018-28.349-.02-10.638.014-21.349,0-31.987-34.621.046-69.337-.061-103.958,0-7.927,3.935-16.06,3.925-23.99,0-7.927,3.926-16.058,3.91-23.99,0-9.773,1.423-17.77,4.088-23.99,7.997-5.314-.006-10.68.017-15.994,0q-3.554-.424,0,0c0,1.89.283,7.714,0,7.997h-7.997c.15,4.286.817,7.46-2.999,9.996h-4.998c-.064,5.308.092,10.686,0,15.994-.613,3.185-3.279,5.851-7.997,7.997-.784,45.229.037,90.7,0,135.946-4.378,5.999-5.689,14.374-3.934,25.123l-4.063,4.865c5.52,2.764,3.369,13.784,0,17.993-.051,47.949.069,95.994,0,143.942-1.405,2.4-2.786,4.46-4.145,6.18l.122,27.651-3.974,6.153c4.909,13.429,4.965,26.567,0,39.984-.05,34.621.037,69.338,0,103.958h-23.99c.026-39.953-.035-79.999,0-119.952,1.899-2.626,3.303-5.082,4.211-7.369l-.173-56.06c.57-3.183,1.905-6.024,3.958-8.542-3.917-10.613-3.932-21.378,0-31.987.029-31.957-.024-64.005,0-95.962,1.899-2.626,3.303-5.082,4.211-7.369l-.173-56.06c.57-3.183,1.905-6.024,3.958-8.542-3.914-13.944-3.936-28.043,0-41.983.028-25.958-.127-52.012,0-77.969,3.074-3.461,4.843-7.96,5.308-13.497l2.689-4.496c.024-1.986-.029-4.012,0-5.998,1.497-3.458,4.163-6.79,7.997-9.996-.052-2.647.034-5.349,0-7.997-47.949.064-95.993-.086-143.942,0-9.087,2.854-18.487,4.201-27.989,4.238-.491,6.603-5.822,9.268-15.994,7.997-.563,4.763-4.561,8.681-11.995,11.755l-1.562,3.998c-3.339-.744-6.15,1.255-8.434,5.998l4.759,3.998,28.243.038c3.242,1.174,5.091,3.827,5.546,7.959,13.486-2.385,21.374.28,23.666,7.997,5.577.913,9.496,4.912,11.755,11.995.052,18.629.052,37.349,0,55.978-3.187,4.651-5.57,8.639-7.997,15.994,3.887,2.525,3.893,5.478,0,7.997-.017,5.311.032,10.683,0,15.994-.614,3.186-3.279,5.851-7.997,7.997,5.042,2.944,5.049,5.054,0,7.997-.032,5.31.092,10.686,0,15.994-.613,3.185-3.279,5.851-7.997,7.997-.092,5.309.092,10.685,0,15.994-.613,3.185-3.279,5.851-7.997,7.997-.092,5.309.092,10.685,0,15.994-.613,3.185-3.279,5.851-7.997,7.997-.092,5.309.092,10.685,0,15.994-.613,3.185-3.279,5.851-7.997,7.997-.092,5.308.032,10.684,0,15.994-.614,3.186-3.279,5.851-7.997,7.997,5.042,2.944,5.049,5.054,0,7.997-.032,5.31.092,10.686,0,15.994-.613,3.185-3.279,5.851-7.997,7.997-.092,5.309.092,10.685,0,15.994-1.513,3.096-4.845,5.761-9.996,7.997-.092,5.307.017,10.685,0,15.994-1.507,3.044-1.507,5.709,0,7.997-.005,2.655.005,5.342,0,7.997-5.343,5.555-5.343,10.887,0,15.994-.016,2.649.056,5.349,0,7.997-.614,3.186-3.279,5.851-7.997,7.997-.055,2.643-.055,5.354,0,7.997,3.568,2.087,6.234,4.753,7.997,7.997.138,7.968-.048,16.02,0,23.99,1.766,7.015,5.098,12.346,9.996,15.994.035,5.304.092,10.691,0,15.994-1.276,3.473-3.941,6.139-7.997,7.997-.048.101-1.666-.364-1.999,1-.474,1.937.3,4.793,0,6.997h9.996c-.237,18.623.323,37.357,0,55.978,8.388,5.669,2.47,12.829-5.998,12.235.324,4.426-1.59,7.304-6.181,7.757h-17.902c.701,7.064-.258,13.773-3.907,19.992-.052,7.972.037,16.018,0,23.99h-23.99c-.018-7.976.026-16.015,0-23.99-5.446-7.762-5.393-16.122,0-23.99-3.568-2.087-6.234-4.753-7.997-7.997-5.074-2.936-5.061-5.059,0-7.997-3.568-2.087-6.234-4.753-7.997-7.997l-4.015-2.363c-.037,4.717-3.72,6.269-7.981,6.714,1.88,9.268-2.119,15.815-11.995,19.639-1.227,3.481-3.892,6.147-7.997,7.997-7.111,5.581-14.858,5.534-21.991,0-8.068,4.208-18.436,7.099-21.991-1.53l-3.998,1.53c-.384,1.558-1.035,3.752-2.292,3.893-4.846.541-34.317.745-36.369-1.227-.673-.647-1.042-1.611-1.324-2.666l-3.998-2.125c-2.924,9.062-12.069,6.823-19.992,2.125-5.538,5.054-10.468,5.076-15.994,0-3.186-.614-5.852-3.28-7.997-7.997-3.53-2.027-6.195-4.692-7.997-7.997-.027-15.967.02-32.013,0-47.981,5.307-.064,10.687.092,15.994,0,2.087-3.568,4.753-6.234,7.997-7.997,2.649-.056,5.347.056,7.997,0,2.087-3.568,4.753-6.234,7.997-7.997,5.309-.092,10.684.064,15.994,0v-7.997c2.646-.073,5.354.113,7.997,0,1.882-3.244,4.684-6.058,7.997-7.997,1.939-3.312,4.753-6.114,7.997-7.997,1.882-3.244,4.684-6.058,7.997-7.997.113-2.643-.073-5.351,0-7.997h7.997v-7.997h7.997c.073-2.646-.113-5.354,0-7.997.83-3.18,3.496-5.846,7.997-7.997.113-2.643-.073-5.35,0-7.997h7.997c.073-2.647-.113-5.354,0-7.997.83-3.18,3.496-5.846,7.997-7.997.113-2.642-.073-5.351,0-7.997h7.997v-15.994h7.997c.078-9.971-.108-20.018,0-29.988,1.498-3.457,4.163-6.789,7.997-9.996l-4.816-3.998-26.162-.037c-2.757-.756-4.313-2.748-5.008-5.491-7.529,12.177-15.094,3.385-19.992-6.467-3.186-.614-5.851-3.279-7.997-7.997-2.94,5.052-5.057,5.061-7.997,0-3.186-.614-5.851-3.279-7.997-7.997-2.933,5.057-5.065,5.07-7.997,0-5.495-5.1-5.419-10.861,0-15.994l-7.997-7.997c-1.927-6.202-4.593-11.534-7.997-15.994-1.783-.37-1.71-1.049,0-1.999.086-6.974-.061-13.996,0-20.992l2.999-2.999h4.998v-5.998c2.65-.03,5.347.046,7.997,0,5.494-5.039,10.42-5.037,15.994,0,2.517-3.883,5.468-3.871,7.997,0,4.254-.071,20.156.863,21.991,0,3.108-1.045,4.041-.746,1.999,1.999,4.311,2.577,5.79,2.26,9.996,0-.938-.613-.912-1.281,0-1.999,1.935.198,4.036.002,5.998,0,2.217-2.894,4.882-4.893,7.997-5.998l1.999-1.999c4.51.298,9.438.079,13.994,0,2.2-4.512,4.865-7.844,7.997-9.996,2.64-.113,5.354.073,7.997,0v-239.904c.258-1.684.825-3.468,2.29-4.058,2.93-1.179,3.513-39.352,1.843-46.29l-4.133-5.63v-39.984c2.933-5.074,5.066-5.087,7.997,0,4.603-7.338,11.486-4.146,12.348,3.998,6.233-1.225,10.114.108,11.643,3.998,5.74,15.176,5.979,32.862,0,47.981,4.928,16.078,4.973,31.911,0,47.981-3.187,4.651-5.57,8.638-7.997,15.994,3.888,5.927,3.889,12.067,0,17.993,5.049,2.943,5.042,5.053,0,7.997l4.507,4.147c3.953-4.586,7.782-5.968,11.487-4.147l3.978,2.332c-1.197,11.164.142,10.387,4.018-2.332-5.569-1.897-5.625-6.117,0-7.997-8.758-4.912-1.716-16.492,3.998-20.992-.729-5.84,2.05-9,7.997-9.236-.535-5.31,2.867-7.789,7.997-7.997-.486-6.811,4.241-7.969,9.996-7.997.507-6.608,5.838-9.273,15.994-7.997l2.617-6.423c43.142-2.613,86.338-1.743,129.33,2.665,10.609-3.939,21.375-3.926,31.987,0,10.774-4.962,21.202-4.92,31.987,0,8.277-1.333,12.739-4.572,13.385-9.715l3.989-2.28h193.202l5.337-3.998c-5.397-5.137-5.444-10.878,0-15.994-5.41-37.178-5.503-74.783,0-111.955.355-3.942,3.839-8.009,4.864-4.283-1.908-38.599-.127-77.177,3.133-115.669-4.951-24.671-4.994-49.304,0-73.97-5.275-23.706-4.022-47.336-2.665-71.329.073-1.297,4.858-2.92,6.664-2.881-.386-5.38,2.916-8.061,9.908-8.042-1.34-13.071,2.902-16.776,15.754-16.037,1.175-4.778,6.236-8.757,10.324-11.667,2.466-5.436,5.539-5.468,7.997,0Z"/>
      <path class="k" d="M521.8,375.85c3.132-3.28,4.375-5.87,5.624-10.164,2.568-2.598,41.316-5.841,38.711,6.165,9.873-1.64,15.166,1.026,15.881,7.997,5.307-.533,7.785,2.855,7.997,7.997,5.346-.392,8.015,2.907,8.007,9.896,5.19.232,7.373,2.561,8.076,7.768,7.276.485,11.332,7.962,3.67,10.324,3.326,2.025,7.797,1.842,10.016-1.979l5.978,3.978,4.562,3.998c13.397-2.388,21.323.277,23.779,7.997,9.747-1.656,15.078,1.01,15.994,7.997,9.553-1.671,14.955.995,16.205,7.997,13.396-2.388,21.323.277,23.779,7.997l10.722.041c7.573,9.86,9.92,12.4,16.74.483l12.169-.764c.469-6.596,5.8-9.261,15.994-7.997.469-6.596,5.8-9.261,15.994-7.997-.531-5.312,2.856-7.784,7.997-7.997.476-6.598,5.807-9.263,15.994-7.997.572-4.77,4.57-8.689,11.995-11.755,1.155-3.815,5.153-5.228,11.995-4.238,1.782-4.696,5.781-9.281,11.995-13.755,2.114-5.429,12.277-18.303,15.994-7.997h7.997c.282,10.01-3.339,20.021,9.996,17.993v15.994h7.997v12.995l-2.999,2.999h-4.998c1.003,7.495-3.09,8.797-9.996,7.997v7.997h-7.997v12.995l2.999,2.999h4.998v15.994h-7.997v5.998c-2.276,3.667-4.941,6.999-7.997,9.996-.437,9.535-.37,20.431,0,29.988,1.823.204,1.718.898,0,1.999-1.459,6.998-9.202,4.503-7.997-1.999-3.002-1.414-5.668-1.414-7.997,0,4.569,9.142-10.506,7.635-12.002-1.954l-63.668-.045c-.615,5.442-2.556,8.361-8.481,8.067-8.073-1.526-14.675-.217-19.808,3.928-2.642-.102-5.352.066-7.997,0-3.534,2.605-6.599,5.937-9.196,9.996-6.598-.437-10.011-.434-14.794,3.998-2.572,6.485-25.846,6.204-28.988,0,1.188,1.863,1.601,3.862,1.239,5.998,15.001,1.394,5.969,24.82-4.238,11.995-3.485,4.727-6.151,10.058-7.997,15.994,5.306,33.838,5.368,68.126,0,101.959,3.943,8.596,3.916,17.385,0,25.99-2.528,7.371-20.881,5.606-20.345-3.998-9.742,1.658-15.073-1.008-15.994-7.997-9.742,1.658-15.073-1.008-15.994-7.997-8.016,1.427-13.23-.416-15.641-5.528-.703,4.154-4.019,5.584-7.997,5.768.532,5.313-2.859,7.785-7.997,7.997.532,5.313-2.859,7.785-7.997,7.997.139,1.595-1.931,6.357-2.569,6.421-16.79,1.669-32.917,1.343-49.41-2.662-13.271,3.935-26.71,3.92-39.984,0-34.593,4.985-69.363,4.939-103.958,0-2.241-.084-3.821-1.44-4.741-4.066-9.801,1.683-14.964-.96-15.49-7.93-8.237-.241-10.811-7.696-3.759-11.995-2.423-6.378-5.088-12.376-7.997-17.993-6.878.56-4.295-29.653-2.627-31.64s4.254-2.381,6.625-2.586c-.002-5.413,2.609-8.101,8.181-7.827,8.072,1.526,14.674.217,19.808-3.928,2.676-.589,5.342-1.255,7.997-1.999-.312-1.773.517-4.898,0-5.998,4.347-8.803,12.508-17.194,23.99-7.997,1.254-1.447,2.678-1.484,3.998,0,1.126-3.828,2.872-3.827,3.998,0,6.321-2.137,11.652-4.802,15.994-7.997.666.011,1.333-.012,1.999,0,16.515-1.548,33.476-1.664,49.98,0h3.998c8.447,4.408,4.116,7.403,4.133,4.946.021-3.135.937-5.097,3.864-6.946-3.864-1.832-3.874-4.176,0-5.998-1.784-.37-1.711-1.048,0-1.999-5.088-2.261-5.088-3.723,0-5.998,2.621-.609,5.287-1.275,7.997-1.999v-45.982c5.371-5.523,5.371-10.854,0-15.994-4.432-11.692-8.438-27.431,4.238-27.989-.912-17.411.762-34.781,3.759-51.979-3.893-2.521-3.891-5.473,0-7.997-4.96-5.501-4.957-10.417,0-15.994-3.568-2.087-6.234-4.753-7.997-7.997.017-5.973-.103-12.022,0-17.993,1.226-3.481,3.892-6.147,7.997-7.997,2.648-.056,5.349.056,7.997,0l7.997-7.997Z"/>
      <path class="j" d="M409.845,761.695c5.684,3.176,1.257,10.207-3.998,12.348,1.657,9.744-1.009,15.075-7.997,15.994,1.627,10.272-1.119,15.486-8.237,15.641,1.805,10.516.552,19.846-3.759,27.989-.613,3.185-3.279,5.851-7.997,7.997,4.839,8.149,4.839,15.842,0,23.99,3.568,2.087,6.234,4.753,7.997,7.997,5.788,7.174,5.672,16.652,0,23.99,3.568,2.087,6.234,4.753,7.997,7.997,5.501,5.101,5.42,10.856,0,15.994,3.568,2.087,6.234,4.753,7.997,7.997,3.907,3.195,4.304,7.341,4.238,11.995,9.389-1.178,10.946,17.051,3.759,19.992-5.821,2.572-11.152,5.238-15.994,7.997-.19,1.558-.662,3.857-1.808,3.998-8.611,1.06-43.199,1.37-51.247,0l-2.922-3.998c2.749-.453,4.277,1.071,4.584,4.57l48.05-.322c6.656,1.799,11.043,9.545,3.344,11.745-42.618.062-85.331-.046-127.949,0v7.997h-15.994v7.997h-9.996v7.997h-7.997v7.997h-7.997v9.996h-5.998c1.52,3.655-1.889,6.338-1.999,6.997-.444,2.666.16,6.095,0,8.996-.807,6.016-7.796,7.447-13.654,7.45-2.288,5.799-7.669,6.574-10.336.547-.056-2.648.016-5.347,0-7.997,3.266-4.545,5.932-10.543,7.997-17.993-3.905-5.255-3.92-10.747,0-15.994.024-15.965-.047-32.016,0-47.981.258-1.686.826-3.469,2.29-4.058,3.365-1.354,2.035-36.677,1.626-44.951-.079-1.594-2.402-1.133-3.916,1.028h-15.994v-7.997c-2.649-.044-5.349.068-7.997,0l-3.998-2.125c.532-6.574.243-9.316-3.998-13.869v-111.955c6.361-12.744,11.692-15.409,15.994-7.997,2.026-3.53,4.691-6.195,7.997-7.997l12.783-2.85c59.645-2.25,119.706-1.578,179.484-.849,8.661.106,17.203,1.91,25.646,3.699Z"/>
      <path class="g" d="M721.72,255.898c.046,2.649-.03,5.347,0,7.997h22.991l1,1.999c-2.044,2.538-2.044,4.538,0,5.998,2.646.08,5.349-.051,7.997,0v7.997h7.997c.073,2.646-.113,5.355,0,7.997,3.313,1.939,6.115,4.752,7.997,7.997,5.788,7.174,5.672,16.652,0,23.99,3.568,2.087,6.234,4.753,7.997,7.997,5.788,7.174,5.672,16.652,0,23.99l7.997,7.997c2.057-2.071,4.436-3.962,7.391-3.948-6.838-9.561-3.46-24.594.606-36.036,8.446-.611,8.792-1.126,7.997,7.997h7.997c.03,2.649-.046,5.348,0,7.997,4.183,7.894,5.504,17.002,3.962,27.324,6.187,1.851,6.996,2.656,7.963,9.626,1.576,11.357,1.152,27.017-3.928,37.02-.046,2.648.03,5.348,0,7.997h-7.997v7.997h-15.994v7.997h-7.997v7.997h-15.994v7.997h-15.994v7.997h-15.994v7.997h-15.994v-7.997h-15.994v-7.997h-23.99v-7.997h-15.994v-7.997h-15.994v-7.997h-23.99c-.03-2.649.046-5.348,0-7.997l3.998-4.26v-57.454c-3.135-.315-6.321-.723-7.479-4.103l-.757-20.149c-5.312.532-7.784-2.857-7.997-7.997-5.312.532-7.784-2.857-7.997-7.997-5.391.542-7.63-2.877-8.11-7.997-10.275,1.626-15.489-1.119-15.641-8.237-10.365,1.74-19.694.487-27.989-3.759v-7.997c5.31-.025,10.683.035,15.994,0,2.519-3.902,5.472-3.896,7.997,0,11.165-4.113,21.744-4.244,33.36-2.665,1.404.191,2.755,4.772,2.978,6.663,9.84-1.651,15.133,1.015,15.881,7.997,8.217.002,11.049,8.479,3.759,11.995,3.53,2.026,6.195,4.692,7.997,7.997l4.02,6.403c-.794,3.527,1.692,6.672,7.458,9.434l1.081,20.149c9.37-1.663,15.847-.331,19.428,3.998-6.642-1.921-6.126-26.885,0-29.988-7.227,11.944-14.221-5.352-12.235-13.994-6.596-.47-9.262-5.801-7.997-15.994-5.312.532-7.784-2.857-7.997-7.997l-2.95-.047c-4.278-5.362-9.878-9.345-16.802-11.948-5.852,0-5.596-6.677,0-7.997-5.852-.004-5.603-6.68,0-7.997,8.501-1.77,12.962-5.006,13.383-9.71l3.957-2.285h76.27l2.351,3.998Z"/>
      <path class="e" d="M609.765,0h87.965v5.998h15.994v7.997h7.997c.034,2.648-.052,5.349,0,7.997,3.087,3.244,5.752,6.576,7.997,9.996-.441.939.112,4.184,0,5.998,3.137,2.875,5.803,6.207,7.997,9.996.039,2.65-.017,5.346,0,7.997,5.05,2.943,5.043,5.053,0,7.997,3.568,2.087,6.234,4.753,7.997,7.997.032,5.31-.092,10.686,0,15.994,3.568,2.087,6.234,4.753,7.997,7.997.092,5.309-.092,10.685,0,15.994,3.568,2.087,6.234,4.753,7.997,7.997.092,5.307-.035,10.684,0,15.994,1.927,6.203,4.593,11.534,7.997,15.994.035,5.311-.032,10.683,0,15.994,5.049,2.943,5.042,5.053,0,7.997,3.568,2.087,6.234,4.753,7.997,7.997.032,5.31-.092,10.686,0,15.994,3.568,2.087,6.234,4.753,7.997,7.997.138,7.969-.099,16.02,0,23.99h-15.994v7.997h-23.99c-.073-2.645.113-5.355,0-7.997-1.833-2.363-3.832-2.363-5.998,0-.048.101-1.666-.364-1.999,1-.474,1.937.3,4.793,0,6.997-5.308-.064-10.686.092-15.994,0-10.202,10.718-13.005-2.499-12.235-11.995-11.956-1.742-8.71-17.923-3.759-27.989-5.048-2.943-5.041-5.053,0-7.997-2.043-4.539-3.974-5.901-5.792-4.086l-10.201-3.911c-2.525,3.887-5.478,3.893-7.997,0-2.105-9.149-7.436-9.149-15.994,0-8.511,3.945-16.371,4.52-25.472,2.657-3.025-.619-6.7-34.16,5.72-30.646-1.352-6.479-.099-10.478,3.759-11.995-5.852-.004-5.603-6.68,0-7.997,3.342-4.445,5.133-10.33,5.372-17.655l6.623-2.901c-1.663-9.372-.33-15.848,3.998-19.428l-2.279,3.998c-6.593,1.141-26.867,1.803-29.708-3.998-3.183-.829-5.849-3.495-7.997-7.997-3.454.465-4.888-1.433-4.301-5.692-4.516-3.674-8.414-7.774-11.692-12.301-3.568-2.087-6.234-4.753-7.997-7.997-5.718-.129-5.463-4.646,0-5.998,6.123-1.984,11.454-4.65,15.994-7.997l1.629-4.233c13.613.898,15.519-9.772,1-7.762l-2.629-3.998-3.587,1.957c-1.486,11.482-14.568,8.888-20.404,6.04-.542,6.042-6.341,5.388-7.997,0-5.074-2.936-5.061-5.059,0-7.997-3.568-2.087-6.234-4.753-7.997-7.997.08-2.647-.051-5.348,0-7.997,2.647-.073,5.354.113,7.997,0,2.025-3.532,4.69-6.198,7.997-7.997.975.458,5.956.052,7.997,0,2.442-2.653,5.107-5.319,7.997-7.997Z"/>
      <path class="j" d="M585.774,31.987c.056,2.649-.056,5.347,0,7.997,3.373,2.293,6.039,4.959,7.997,7.997l7.997,7.997v5.998c3.242,2.401,5.908,5.733,7.997,9.996,7.227,4.584,11.394,8.329,15.994,15.994,2.642.113,5.351-.073,7.997,0v7.997h31.987v23.99h-7.997v15.994c-2.646.073-5.355-.113-7.997,0-2.964,3.094-2.126,4.67,0,7.997,0,2.606.565,15.428,0,15.994h-7.997v23.99c7.976.02,16.014-.027,23.99,0,5.254-3.914,10.747-3.928,15.994,0l7.997,7.997c2.946-5.034,5.051-5.04,7.997,0,3.481,1.225,6.147,3.891,7.997,7.997.043,7.973-.031,16.017,0,23.99h7.997v15.994c2.649.03,5.348-.046,7.997,0,.064,5.309-.092,10.686,0,15.994h-79.968v7.997c-5.309.028-10.685-.039-15.994,0-2.519,3.906-5.473,3.902-7.997,0,5.048,2.943,5.041,5.053,0,7.997-2.52,3.887-5.472,3.883-7.997,0v-7.997c.004-5.852,6.68-5.603,7.997,0l-3.966-5.809c1.815-10.349.471-19.075-4.031-26.178v-31.987l4.249-4.22c-1.35-6.402-.101-10.327,3.748-11.774,1.377-6.017,8.354-7.261,6.488-4.128-.608,1.021-7.139-.247-6.488-3.869-1.225,3.481-3.891,6.147-7.997,7.997-3.63,7.844-8.962,13.175-15.994,15.994-7.969.024-16.024-.138-23.99,0-2.087,3.568-4.753,6.234-7.997,7.997-1.891,0-7.714.283-7.997,0v-7.997h-7.997c-.03-2.65.046-5.348,0-7.997,3.507-4.274,5.29-10.275,5.346-18.001l2.65-5.989c-1.927-6.203-4.593-11.534-7.997-15.994-2.169-6.284-4.834-11.615-7.997-15.994-.009-2.65-.016-5.347,0-7.997-5.077-2.922-5.086-5.077,0-7.997,1.882-3.244,4.684-6.057,7.997-7.997,2.028-3.528,4.694-6.194,7.997-7.997,2.514-3.926,5.47-3.913,7.997,0,.567-1.746,1.235-1.72,1.999,0,1.744.832,3.743.832,5.998,0-5.061-2.94-5.051-5.056,0-7.997-8.213-4.098-4.242-7.043-4.19-5.341.08,2.645-1.256,3.979-3.806,5.341.003,5.844-6.681,5.591-7.997,0,.51-1.085.51-22.905,0-23.99,1.495-3.463,4.161-6.795,7.997-9.996.06-4.645-.06-9.35,0-13.994,1.496-3.464,4.161-6.796,7.997-9.996.046-1.985-.027-4.012,0-5.998,4.539-1.637,8.994-2.969,13.365-3.998l2.629,3.998Z"/>
      <path class="j" d="M553.787,295.882c10.632-.184,21.354.134,31.987,0v7.997h15.994v7.997h7.997v7.997h7.997v7.997h7.997v23.99h7.997v65.974c-2.649.03-5.348-.046-7.997,0l-4.021-4.671c-.727,4.961-8.236,4.599-11.973,2.672v-5.998h-4.998l-2.999-2.999v-4.998c-7.495,1.003-8.797-3.09-7.997-9.996h-7.997v-7.997h-7.997v-7.997h-15.994v-7.997h-31.987v7.997c-2.645.073-5.355-.113-7.997,0,.23-13.292-.079-26.688,0-39.984,2.919-4.13,5.584-9.461,7.997-15.994.019-2.649-.056-5.349,0-7.997,1.864-5.163,7.195-7.829,15.994-7.997v-7.997c2.649-.03,5.348.046,7.997,0Z"/>
      <path class="j" d="M305.886,601.759c3.508-.145,7.506,1.108,11.995,3.759-1.373-6.775,17.19-6.392,11.995-1.759,6.736,2.86,14.309,4.526,22.719,4.998l1.271,1c.027,1.985-.046,4.014,0,5.998,4.523,5.774,7.883,9.215,15.994,9.996-.772,3.861,2.768,7.668-2.999,7.997-6.954.397-14.046-.283-20.992,0v7.997h-7.997v29.988c1.039.15,1.963.4,2.481,1,5.486,6.354-33.631,9.09-30.991-2.872-5.108.181-7.65-2.511-3.476-6.125-3.362-.904-6.027-2.903-7.997-5.998q-4.626-5.434,0,0c3.895,1.821,3.888,4.169,0,5.998,6.123.805,5.849,14.67,0,15.994,2.856,6.131-6.125,7.259-7.997,1.999-1.205,4.316-6.759,4.29-7.997,0-2.649-.056-5.347.036-7.997,0v-7.997h-7.997c.134-10.634-.184-21.355,0-31.987.614-3.186,3.279-5.851,7.997-7.997.055-2.641.055-5.356,0-7.997.614-3.186,3.279-5.851,7.997-7.997,1.232-3.47,3.898-6.136,7.997-7.997.666,0,1.333.008,1.999,0,4.175-.349,8.173-1.016,11.995-1.999.079-.079,1.65.345,1.999-1v-4.998Z"/>
      <path class="g" d="M156.922,1585.084c.113-2.642-.073-5.352,0-7.997h7.997v-15.994h7.997v-7.997h7.997c.073,2.645-.113,5.355,0,7.997,3.53,2.026,6.195,4.692,7.997,7.997.056,2.649-.056,5.347,0,7.997,3.568,2.087,6.234,4.753,7.997,7.997.138,7.965-.026,16.022,0,23.99h-23.99v-15.994h-7.997v7.997h-7.997v7.997h-7.997v7.997H36.97v-7.997H4.983c-.018-7.975.026-16.015,0-23.99,2.929-5.07,5.071-5.082,7.997,0,3.248,1.95,5.913,4.615,7.997,7.997,5.302.092,10.69.035,15.994,0,1.687.259,3.469.827,4.058,2.29,1.529,3.801,68.836,2.37,80.32,1.22.701-2.082,2.563-3.252,5.587-3.51,7.299.037,14.695.126,21.991,0,2.084-3.381,4.749-6.047,7.997-7.997Z"/>
      <path class="j" d="M305.886,1009.596v7.997c3.487,1.656,6.153,4.321,7.997,7.997.288,16.615-.046,33.359,0,49.98l-7.997-2.999v-4.998h-7.997v-7.997h-23.99v-7.997h-33.986c-.034-2.649.052-5.349,0-7.997l1.562-3.998c3.328.742,6.139-1.257,8.434-5.998.052-2.647-.034-5.349,0-7.997h7.997v-7.997h15.994v-7.997c10.639-.014,21.349.019,31.987,0Z"/>
      <path class="e" d="M609.765,271.891c2.65-.02,5.347,0,7.997,0l7.997,7.997c5.307.092,10.685-.064,15.994,0v7.997h7.997v7.997h7.997v15.994h7.997v14.994l2.999,2.999h4.998v29.988h-23.99v-23.99h-7.997c-.064-5.308.092-10.686,0-15.994-3.568-2.087-6.234-4.753-7.997-7.997-.113-2.642.073-5.351,0-7.997h-7.997v-7.997h-15.994v-7.997c-10.638.021-21.349-.03-31.987,0-5.852-.004-5.603-6.68,0-7.997,5.308-.092,10.684.064,15.994,0v-7.997c5.311-.028,10.683.039,15.994,0Z"/>
      <path class="j" d="M809.685,335.866c8.445-.611,8.793-1.126,7.997,7.997h7.997v7.997h7.997c.073,2.646-.113,5.355,0,7.997,3.313,1.939,6.115,4.752,7.997,7.997,5.609,7.787,5.588,16.194,0,23.99-.041,3.314.028,6.682,0,9.996h-7.997v7.997h-15.994c.242-13.96-.177-28.021,0-41.983h-7.997c-.134-10.633.184-21.356,0-31.987Z"/>
      <path class="g" d="M505.806,441.823c.03,18.634-.022,37.344,0,55.978h-7.997c-.02,7.974.028,16.017,0,23.99-2.941,5.049-5.057,5.06-7.997,0,1.198-2.547-.848-12.152,0-15.994h-7.997v-41.983h7.997v-5.998c1.495-3.463,4.161-6.795,7.997-9.996.029-1.985-.012-4.012,0-5.998.004-5.852,6.68-5.603,7.997,0Z"/>
      <path class="g" d="M249.909,1571.371c3.861.772,7.668-2.768,7.997,2.999.548,9.602-.396,19.391,0,28.988h-17.993v7.997h-23.99c.052-7.972-.037-16.018,0-23.99h23.99v-7.997h9.996c.03-2.648-.046-5.349,0-7.997Z"/>
      <path class="g" d="M60.961,1305.196c3.898,2.518,3.89,5.471,0,7.997.004-5.839,6.686-5.601,7.997,0,.092,5.309-.092,10.685,0,15.994,2.649.056,5.348-.056,7.997,0,5.06,2.94,5.049,5.056,0,7.997,2.94-5.052,5.057-5.061,7.997,0,2.65.035,5.348-.056,7.997,0,3.18.83,5.846,3.496,7.997,7.997,2.642.113,5.351-.073,7.997,0v7.997h7.997v-7.997h7.997v7.997h31.987c.034,2.649-.052,5.348,0,7.997-.614,3.186-3.279,5.851-7.997,7.997h-23.99v-7.997h-23.99v-7.997h-15.994v-7.997h-7.997c-.044-2.648.068-5.35,0-7.997-2.649-.056-5.347.036-7.997,0-.03-2.65.046-5.347,0-7.997-2.649-.056-5.347.036-7.997,0-.025-5.311.035-10.683,0-15.994-1.891,0-7.714.283-7.997,0-.036-2.65.056-5.348,0-7.997,2.933-5.074,5.066-5.087,7.997,0Z"/>
      <path class="e" d="M769.701,295.882c2.642.113,5.351-.073,7.997,0v7.997c2.646.073,5.355-.113,7.997,0,3.481,1.227,6.147,3.892,7.997,7.997.056,2.648-.014,5.348,0,7.997.055,10.306-.04,20.66,0,30.988l2.999,2.999h4.998v5.998c-5.309-.064-10.685.092-15.994,0-3.481-1.226-6.147-3.892-7.997-7.997-.138-7.97.138-16.021,0-23.99-3.568-2.087-6.234-4.753-7.997-7.997-.138-7.97.138-16.021,0-23.99Z"/>
      <path class="f" d="M849.669,527.789h57.977v7.997h7.997v15.994c-.101.048.364,1.665-1,1.999-1.937.474-4.794-.3-6.997,0v-7.997c-10.638-.014-21.349.019-31.987,0-4.92-4.152-11.866-5.476-20.838-3.97-7.195-.306-12.952-8.126-5.152-12.023-.055-.659.026-1.335,0-1.999Z"/>
      <path class="h" d="M425.838,1371.451c-.041,22.471,1.268,46.755,0,68.972-.329,5.766-4.133,2.227-7.997,2.999.021-23.956-.188-48.017,0-71.971.004-5.852,6.68-5.603,7.997,0Z"/>
      <path class="h" d="M433.835,1171.531c-.041,22.471,1.268,46.755,0,68.972-.329,5.766-4.133,2.227-7.997,2.999.018-23.958-.116-48.014,0-71.971.004-5.852,6.68-5.603,7.997,0Z"/>
      <path class="h" d="M172.916,943.341c3.862.772,7.668-2.767,7.997,2.999.865,15.159.865,34.821,0,49.98-.329,5.766-4.135,2.227-7.997,2.999v-55.978Z"/>
      <path class="f" d="M409.845,601.759c5.852.004,5.603,6.68,0,7.997-1.323.01-2.675-.012-3.998,0-1.722-1.221-2.266-1.301-3.998,0-5.311.04-10.682-.028-15.994,0v7.997h-7.997c-.048-.101-1.666.364-1.999-1-.869-3.554-.014-6.977,2.999-8.996h4.998v-4.998l2.999-2.999c6.371,1.001,16.296-1.392,21.991,0,1.364.333.898,1.952,1,1.999Z"/>
      <path class="i" d="M433.835,1129.548c-.015,13.968.026,28.015,0,41.983h-7.997c.062-12.756-.721-26.361,0-38.984.329-5.766,4.133-2.227,7.997-2.999Z"/>
      <path class="h" d="M681.736,1137.545c3.862.772,7.668-2.767,7.997,2.999.721,12.625-.065,26.226,0,38.984-.004,5.852-6.68,5.603-7.997,0-.042-13.966.031-28.017,0-41.983Z"/>
      <path class="k" d="M449.829,1379.448c-.019,13.299.074,26.686,0,39.984-.004,5.852-6.68,5.603-7.997,0,.067-12.109-.684-25,0-36.985.329-5.766,4.133-2.227,7.997-2.999Z"/>
      <path class="g" d="M449.829,1419.432c-.067,12.11.684,25,0,36.985-.329,5.766-4.133,2.227-7.997,2.999.019-13.298-.074-26.686,0-39.984h7.997Z"/>
      <path class="f" d="M617.762,175.93c1.891,0,7.714-.283,7.997,0v7.997c-2.65.036-5.348-.056-7.997,0,0,2.606.565,15.428,0,15.994-2.649.03-5.348-.046-7.997,0-5.306.092-10.686-.016-15.994,0l2.999-7.997h4.998v-7.997c2.65-.036,5.348.056,7.997,0,2.935-5.074,5.06-5.061,7.997,0-5.852-.004-5.603-6.68,0-7.997Z"/>
      <path class="k" d="M809.685,1001.599c.772-3.861-2.768-7.668,2.999-7.997,10.409-.594,23.578-.594,33.986,0,5.766.329,2.227,4.136,2.999,7.997h-39.984Z"/>
      <path class="h" d="M713.723,1571.371c3.861.772,7.668-2.768,7.997,2.999.54,9.453-.079,19.461,0,28.988-2.59,4.005-3.701,8.92-3.332,14.745l-2.666,1.249c-3.445-1.303-1.976-7.87-1.999-10.996-.093-12.324.007-24.684,0-36.985Z"/>
      <path class="h" d="M689.733,1249.5c3.862.772,7.668-2.767,7.997,2.999.575,10.066-.08,20.821,0,30.988-.588,3.585-4.359,8.237-7.997,5.998-.143-13.296.047-26.686,0-39.984Z"/>
      <path class="h" d="M673.739,1033.587c3.863.772,7.668-2.767,7.997,2.999.575,10.064-.076,20.823,0,30.988-.004,5.852-6.68,5.603-7.997,0-.094-11.299.021-22.686,0-33.986Z"/>
      <path class="e" d="M841.672,367.853c2.642.113,5.351-.073,7.997,0v7.997h7.997v7.997h-4.998l-2.999,2.999v4.998h-7.997c.1-7.956.138-16.036,0-23.99Z"/>
      <path class="k" d="M737.714,1475.41c.063,10.635-.009,21.352,0,31.987-3.862-.772-7.668,2.767-7.997-2.999-.54-9.454.079-19.462,0-28.988.004-5.852,6.68-5.603,7.997,0Z"/>
      <path class="k" d="M713.723,1147.541c.063,10.635-.009,21.352,0,31.987-3.862-.772-7.668,2.767-7.997-2.999-.54-9.453.079-19.462,0-28.988.004-5.852,6.68-5.603,7.997,0Z"/>
      <path class="h" d="M939.633,1379.448c3.862.772,7.668-2.767,7.997,2.999.54,9.453-.079,19.462,0,28.988-.004,5.852-6.68,5.603-7.997,0-.063-10.635.009-21.352,0-31.987Z"/>
      <path class="f" d="M609.765,231.907c3.861.772,7.668-2.768,7.997,2.999.537,9.41-.051,19.484,0,28.988h-7.997v-31.987Z"/>
      <path class="h" d="M907.646,1057.577c3.862.772,7.668-2.767,7.997,2.999.54,9.453-.079,19.462,0,28.988-.004,5.852-6.68,5.603-7.997,0,1.009-2.146-.06-26.565,0-31.987Z"/>
      <path class="h" d="M697.73,1363.455c3.863.772,7.668-2.767,7.997,2.999.54,9.454-.079,19.462,0,28.988-.004,5.852-6.68,5.603-7.997,0-.032-10.638.031-21.349,0-31.987Z"/>
      <path class="k" d="M729.717,1363.455c.184,10.625-.012,21.359,0,31.987-3.862-.772-7.668,2.767-7.997-2.999-.54-9.454.079-19.462,0-28.988.004-5.852,6.68-5.603,7.997,0Z"/>
      <path class="i" d="M713.723,1499.4c.088,10.633-.024,21.353,0,31.987-3.863-.772-7.668,2.767-7.997-2.999-.54-9.453.079-19.462,0-28.988.004-5.852,6.68-5.603,7.997,0Z"/>
      <path class="h" d="M923.639,1217.513c3.862.772,7.668-2.767,7.997,2.999.54,9.453-.079,19.462,0,28.988-.004,5.852-6.68,5.603-7.997,0-.133-10.631.011-21.355,0-31.987Z"/>
      <path class="h" d="M931.636,1297.481c3.862.772,7.668-2.767,7.997,2.999.54,9.453-.079,19.462,0,28.988-.004,5.852-6.68,5.603-7.997,0,1.009-2.146-.06-26.565,0-31.987Z"/>
      <path class="i" d="M681.736,1067.573c.079,10.634-.023,21.352,0,31.987-3.863-.772-7.668,2.767-7.997-2.999-.54-9.454.079-19.462,0-28.988h7.997Z"/>
      <path class="h" d="M705.726,1467.413c3.863.772,7.668-2.767,7.997,2.999.54,9.454-.079,19.462,0,28.988h-7.997c-.088-10.634.024-21.353,0-31.987Z"/>
      <path class="h" d="M947.63,1459.416c3.863.772,7.668-2.767,7.997,2.999.54,9.454-.079,19.462,0,28.988-.004,5.852-6.68,5.603-7.997,0-.063-10.635.009-21.352,0-31.987Z"/>
      <path class="i" d="M425.838,1339.464c-.01,10.638.02,21.35,0,31.987h-7.997c.075-9.524-.54-19.537,0-28.988.329-5.766,4.133-2.227,7.997-2.999Z"/>
      <path class="k" d="M457.826,1187.525c-.008,9.969.049,20.02,0,29.988-.004,5.852-6.68,5.603-7.997,0,.433-8.928-.51-18.048,0-26.989.329-5.766,4.133-2.227,7.997-2.999Z"/>
      <path class="h" d="M915.642,1137.545h7.997c.017,8.641-.024,17.348,0,25.99-.588,3.585-4.359,8.237-7.997,5.998-.014-10.639.02-21.348,0-31.987Z"/>
      <path class="k" d="M521.8,1001.599c5.852.004,5.603,6.68,0,7.997-7.976.007-16.014.01-23.99,0v-7.997c7.975-.018,16.016.026,23.99,0Z"/>
      <path class="g" d="M545.79,1001.599c5.852.004,5.603,6.68,0,7.997-7.973.026-16.017-.007-23.99,0v-7.997c7.971-.026,16.019.007,23.99,0Z"/>
      <path class="j" d="M569.781,1001.599v7.997c-7.976.018-16.014-.026-23.99,0v-7.997c7.975-.007,16.016.014,23.99,0Z"/>
      <path class="k" d="M705.726,1043.583c.138,7.964-.014,16.023,0,23.99h-7.997c-.018-7.975.026-16.016,0-23.99.004-5.852,6.68-5.603,7.997,0Z"/>
      <path class="i" d="M689.733,1179.528c.04,7.972-.017,16.019,0,23.99h-7.997c-.017-7.975.024-16.015,0-23.99h7.997Z"/>
      <path class="f" d="M68.957,1257.215l1-9.996h22.991c.034,1.32-.073,2.682,0,3.998-.684,2.57-3.349,4.569-7.997,5.998-5.309.016-10.687-.092-15.994,0Z"/>
      <path class="f" d="M553.787,167.933c.048,7.973-.034,16.017,0,23.99h-7.997c-.138-7.967.016-16.021,0-23.99.004-5.852,6.68-5.603,7.997,0Z"/>
      <path class="k" d="M963.623,1307.477c.039,7.972-.009,16.018,0,23.99h-7.997c-.018-7.976.026-16.015,0-23.99.004-5.852,6.68-5.603,7.997,0Z"/>
      <path class="k" d="M971.62,1387.445c.048,7.972-.009,16.018,0,23.99h-7.997c-.018-7.976.026-16.015,0-23.99.004-5.852,6.68-5.603,7.997,0Z"/>
      <path class="f" d="M537.794,135.946h7.997c.027,5.311-.038,10.683,0,15.994,3.903,2.518,3.896,5.472,0,7.997h-7.997c-.02-7.974.028-16.016,0-23.99Z"/>
      <path class="i" d="M705.726,1395.442c.066,7.97-.023,16.019,0,23.99h-7.997c-.017-7.975.024-16.015,0-23.99h7.997Z"/>
      <path class="i" d="M939.633,1329.468c.05,5.974-.021,12.018,0,17.993h-9.996c.775-5-1.095-12.516,0-16.993.334-1.364,1.952-.898,1.999-1h7.997Z"/>
      <path class="f" d="M305.886,601.759l1-1.999h38.984c.074,1.309-.158,2.709,0,3.998-1.578,4.401-15.443,5.075-15.994,0-.101-.048.364-1.666-1-1.999-1.937-.473-4.792.299-6.997,0v7.997h-7.997l-7.997-7.997Z"/>
      <path class="g" d="M457.826,1217.513c-.029,5.974.021,12.019,0,17.993h-7.997c-3.501-2.855-.311-11.58,0-17.993h7.997Z"/>
      <path class="k" d="M239.913,1467.413h9.996c.025,5.311-.035,10.683,0,15.994h-9.996c-.022-5.31.032-10.683,0-15.994Z"/>
      <path class="g" d="M971.62,1459.416h7.997c.021,5.974-.029,12.019,0,17.993l-7.997-1.999c-.266-2.234.42-4.955,0-6.997-.142-.692-3.08-1.912-1.999-5.998.162-.612,1.694-.972,1.999-2.999Z"/>
      <path class="g" d="M955.626,1289.484h7.997c.021,5.975-.029,12.018,0,17.993h-7.997c-.019-5.979.006-12.014,0-17.993Z"/>
      <path class="h" d="M441.832,1033.587c-.072,5.976.051,12.017,0,17.993h-7.997c.029-5.974-.021-12.019,0-17.993h7.997Z"/>
      <path class="g" d="M947.63,1209.516h7.997c.023,5.975-.032,12.018,0,17.993-.004,5.852-6.68,5.603-7.997,0-.038-5.974.009-12.018,0-17.993Z"/>
      <path class="g" d="M939.633,1129.548h7.997c.023,5.975-.032,12.018,0,17.993-.004,5.852-6.68,5.603-7.997,0-.038-5.974.009-12.018,0-17.993Z"/>
      <path class="g" d="M705.726,1129.548l7.997,1.999c.022,5.309-.032,10.685,0,15.994h-7.997c-.05-5.974.02-12.019,0-17.993Z"/>
      <path class="i" d="M907.646,1001.599c-.011,5.978.017,12.015,0,17.993l-7.997-1.999c-.025-5.309.035-10.685,0-15.994.004-5.852,6.68-5.603,7.997,0Z"/>
      <path class="g" d="M713.723,1249.5l7.997,1.999c.022,5.309-.032,10.685,0,15.994h-7.997c-.021-5.974.029-12.018,0-17.993Z"/>
      <path class="g" d="M729.717,1459.416h7.997c.022,5.309-.032,10.685,0,15.994h-7.997c-.044-5.308.019-10.685,0-15.994Z"/>
      <path class="g" d="M737.714,1571.371h7.997c.025,5.31-.035,10.684,0,15.994-.004,5.852-6.68,5.603-7.997,0-.092-5.305.015-10.687,0-15.994Z"/>
      <path class="k" d="M955.626,1227.509c.029,5.309-.008,10.684,0,15.994h-7.997c-.024-5.309.034-10.684,0-15.994h7.997Z"/>
      <path class="i" d="M947.63,1411.435c.044,5.309-.02,10.685,0,15.994h-7.997c-.022-5.309.032-10.685,0-15.994h7.997Z"/>
      <path class="k" d="M239.913,1395.442c-.01,5.311.032,10.683,0,15.994h-7.997v-15.994h7.997Z"/>
      <path class="g" d="M761.704,135.946h7.997c.025,5.311-.035,10.683,0,15.994h-7.997c-.025-5.311.035-10.683,0-15.994Z"/>
      <path class="k" d="M947.63,1147.541c.029,5.309-.008,10.684,0,15.994h-7.997c-.024-5.309.034-10.684,0-15.994h7.997Z"/>
      <path class="k" d="M313.883,1131.547c-.015,5.306.092,10.689,0,15.994-.004,5.852-6.68,5.603-7.997,0,.035-5.311-.025-10.683,0-15.994h7.997Z"/>
      <path class="e" d="M425.838,601.759v7.997c-5.311.028-10.682-.04-15.994,0v-7.997c1.568.737,12.551-.057,15.994,0Z"/>
      <path class="e" d="M497.81,521.791c2.648.068,5.348-.044,7.997,0v15.994h-7.997c.003-2.655-.005-5.342,0-7.997-3.894-2.524-3.897-5.476,0-7.997Z"/>
      <path class="k" d="M939.633,1059.576c.066,5.307-.013,10.685,0,15.994h-7.997c-.025-5.308.035-10.686,0-15.994.004-5.852,6.68-5.603,7.997,0Z"/>
      <path class="i" d="M955.626,1491.403c.044,5.308-.019,10.685,0,15.994h-7.997c-.022-5.309.032-10.685,0-15.994h7.997Z"/>
      <path class="g" d="M963.623,1371.451h7.997c.022,5.31-.032,10.684,0,15.994h-7.997c-.017-5.313.006-10.68,0-15.994Z"/>
      <path class="d" d="M899.649,993.603c3.893,2.519,3.887,5.472,0,7.997h-15.994v-7.997h15.994Z"/>
      <path class="k" d="M52.964,1289.203h7.997c.025,5.311-.035,10.683,0,15.994,2.648.068,5.348-.044,7.997,0,.03,2.65-.046,5.347,0,7.997h-7.997c-.018-2.655.018-5.342,0-7.997-2.648-.068-5.348.044-7.997,0-.056-2.648.018-5.347,0-7.997-3.914-2.521-3.916-5.477,0-7.997Z"/>
      <path class="f" d="M172.916,887.363h7.997v15.994c-2.648-.068-5.348.044-7.997,0v-15.994Z"/>
      <path class="d" d="M505.806,417.833c.092,5.306-.016,10.686,0,15.994-.004,5.852-6.68,5.603-7.997,0,.016-5.314-.009-10.679,0-15.994.004-5.852,6.68-5.603,7.997,0Z"/>
      <path class="d" d="M545.79,151.939h7.997c.022,5.31-.032,10.683,0,15.994h-7.997c-.005-2.655.008-5.342,0-7.997s.019-5.347,0-7.997Z"/>
      <path class="f" d="M529.797,319.872c-.038,5.311.027,10.683,0,15.994h-7.997c.032-5.31-.022-10.683,0-15.994h7.997Z"/>
      <path class="f" d="M353.867,615.754h7.997v7.997h15.994l-1,1.999c-2.333.055-4.688-.083-6.997,0-5.298.191-10.691-.134-15.994,0-.051-3.313.077-6.684,0-9.996Z"/>
      <path class="i" d="M345.87,603.758c.158,1.289-.074,2.689,0,3.998h6.997l1,1.999h-23.99v-5.998c2.547,1.198,12.151-.848,15.994,0Z"/>
      <path class="f" d="M477.818,601.759c-16.619,0-33.368.297-49.98,0,1.303-3.445,7.87-1.976,10.996-1.999,9.325-.07,18.664-.06,27.989,0,3.122.02,9.694-1.443,10.996,1.999Z"/>
      <path class="f" d="M561.308,69.501c-.043,3.315.029,6.681,0,9.996h-7.997c-.048-.101-1.666.364-1.999-1-1.852-7.578,2.986-10.152,9.996-8.996Z"/>
      <path class="i" d="M915.642,1089.564c.028,3.313-.016,6.683,0,9.996-7.008,1.156-11.85-1.419-9.996-8.996.334-1.364,1.952-.898,1.999-1h7.997Z"/>
      <path class="k" d="M729.241,39.513h-7.997c-.044-3.313.066-6.684,0-9.996,7.012-1.155,11.847,1.418,9.996,8.996-.333,1.364-1.952.898-1.999,1Z"/>
      <path class="d" d="M721.72,1603.359c.044,5.309-.035,10.684,0,15.994h-5.998v-15.994h5.998Z"/>
      <path class="i" d="M609.289,7.525l1.999,4.998c-2.64,4.035-5.712,2.89-9.996,2.999V5.526c3.079.303,7.768-1.359,7.997,1.999Z"/>
      <path class="i" d="M140.929,1249.219c1.255.592,1.228,1.26,0,1.999-.511,1.257.306,4.183,0,5.998-2.655.002-5.342-.003-7.997,0v-9.996c2.206.299,5.06-.473,6.997,0,1.375.336.89,1.977,1,1.999Z"/>
      <path class="d" d="M577.301,31.516h7.997c.036,2.65-.056,5.347,0,7.997h-15.994l1-1.999h6.997c.036-1.985-.06-4.014,0-5.998Z"/>
      <path class="h" d="M164.919,1239.223v9.996c-2.65.03-5.347-.046-7.997,0v-9.996c2.643-.073,5.357.113,7.997,0Z"/>
      <path class="i" d="M931.636,1249.5c.028,3.313-.016,6.683,0,9.996h-7.997c-.028-3.313.041-6.683,0-9.996h7.997Z"/>
      <path class="i" d="M545.79,303.878l-1,1.999h-6.997v5.998h-7.997c.056-2.648-.036-5.348,0-7.997h15.994Z"/>
      <path class="k" d="M249.909,1355.458c-.046,2.649.03,5.347,0,7.997h-9.996c.046-2.649-.03-5.347,0-7.997h9.996Z"/>
      <path class="g" d="M52.964,1287.203c-.008.666.006,1.333,0,1.999-.025,2.649-.018,5.347,0,7.997h-7.997v-9.996h7.997Z"/>
      <path class="k" d="M156.922,1361.174c.066,3.313-.044,6.682,0,9.996h-7.997c.007-.666-.014-1.333,0-1.999.056-2.648-.036-5.348,0-7.997h7.997Z"/>
      <path class="k" d="M729.241,45.51h7.997c.033,3.315-.049,6.681,0,9.996h-7.997c.137-3.303-.204-6.702,0-9.996Z"/>
      <path class="k" d="M497.81,447.821c-.049,3.313.033,6.682,0,9.996h-7.997v-9.996h7.997Z"/>
      <path class="h" d="M449.829,1017.593c.066,3.311-.044,6.684,0,9.996h-7.997c.049-3.314-.033-6.681,0-9.996h7.997Z"/>
      <path class="h" d="M593.295,15.522v7.997c-2.647.073-5.354-.113-7.997,0v-9.996c2.206.299,5.06-.473,6.997,0,1.364.333.898,1.952,1,1.999Z"/>
      <path class="e" d="M489.813,599.76c-.058,3.313.039,6.682,0,9.996h-7.997c-.041-2.648.064-5.349,0-7.997-.016-.666.01-1.333,0-1.999-.504-4.569,7.44-4.275,7.997,0Z"/>
      <path class="i" d="M569.305,45.51c-.077,3.313.051,6.682,0,9.996h-7.997c.043-3.315-.029-6.681,0-9.996h7.997Z"/>
      <path class="j" d="M931.636,1049.58h7.997c.028,3.313-.041,6.683,0,9.996h-7.997c-.022-3.313.008-6.683,0-9.996Z"/>
      <path class="f" d="M561.308,103.487c.068-2.649-.044-5.347,0-7.997h7.997c.037,2.65-.058,5.347,0,7.997-.004,5.852-6.68,5.603-7.997,0,5.048,2.941,5.06,5.057,0,7.997-2.65,0-5.348-.052-7.997,0-.37,1.785-1.048,1.713-1.999,0,.3-2.205-.473-5.06,0-6.997.333-1.364,1.952-.898,1.999-1h7.997Z"/>
      <path class="d" d="M497.81,521.791c-.009,2.655.005,5.342,0,7.997-3.255.288-9.016.396-9.996-2.999-1.401-4.853,1.867-4.716,1.999-4.998,2.649.044,5.349-.068,7.997,0Z"/>
      <path class="g" d="M857.666,487.805v9.996h-7.997c.106-2.306-.07-4.666,0-6.997l2.999-2.999h4.998Z"/>
      <path class="g" d="M697.73,1033.587l7.997,1.999c.03,2.648-.046,5.349,0,7.997h-7.997c-.011-3.313-.006-6.683,0-9.996Z"/>
      <path class="i" d="M44.967,1513.113v7.997c-2.65.036-5.347-.056-7.997,0v-7.997c2.65-.03,5.347.046,7.997,0Z"/>
      <path class="g" d="M737.238,63.503h7.997c.036,2.65-.056,5.348,0,7.997-.004,5.852-6.68,5.603-7.997,0-.056-2.649.017-5.347,0-7.997Z"/>
      <path class="i" d="M289.893,609.756v7.997h-7.997c.055-2.625.144-5.381,0-7.997h7.997Z"/>
      <path class="d" d="M249.909,1499.4c-.046,2.649.03,5.347,0,7.997h-7.997c.68-1.447-.439-5.752,0-7.997h7.997Z"/>
      <path class="i" d="M84.951,1489.123c-.113,2.643.073,5.35,0,7.997-2.647.073-5.354-.113-7.997,0-.113,2.643.073,5.351,0,7.997-2.646.073-5.354-.113-7.997,0v-7.997c2.647-.073,5.354.113,7.997,0,.113-2.643-.073-5.351,0-7.997,2.646-.073,5.354.113,7.997,0Z"/>
      <path class="k" d="M745.71,1587.365c.018,2.65-.007,5.347,0,7.997h-7.997c-.03-2.648.046-5.349,0-7.997h7.997Z"/>
      <path class="h" d="M505.806,433.826c.008,2.655-.004,5.342,0,7.997h-7.997c.016-2.654-.008-5.342,0-7.997h7.997Z"/>
      <path class="d" d="M92.948,1481.126c-.113,2.643.073,5.351,0,7.997-2.646.073-5.354-.113-7.997,0,.113-2.643-.073-5.35,0-7.997h7.997Z"/>
      <path class="i" d="M551.788,103.958c.665-.022,1.333.013,1.999,0v7.997c-2.646.073-5.355-.113-7.997,0-.113,2.643.073,5.35,0,7.997-2.647.073-5.353-.113-7.997,0-.056,2.648.016,5.347,0,7.997h-7.997v-7.997c2.647-.073,5.353.113,7.997,0,.056-2.649-.036-5.347,0-7.997,2.646-.073,5.355.113,7.997,0,.113-2.643-.073-5.35,0-7.997,1.986-.038,4.014.065,5.998,0Z"/>
      <path class="e" d="M497.81,409.836h7.997c.03,2.649-.046,5.348,0,7.997h-7.997c.005-2.655-.007-5.342,0-7.997Z"/>
      <path class="k" d="M4.983,1577.088h7.997c.073,2.645-.113,5.355,0,7.997,2.649.068,5.347-.044,7.997,0v7.997c-2.649-.046-5.348.03-7.997,0-.073-2.645.113-5.355,0-7.997-2.649-.068-5.347.044-7.997,0-.009-2.654.005-5.343,0-7.997Z"/>
      <path class="h" d="M505.806,383.846v7.997h-7.997c.046-2.648-.03-5.348,0-7.997,2.649-.036,5.349.056,7.997,0Z"/>
      <path class="k" d="M745.234,71.5c.056,2.648-.016,5.347,0,7.997h-7.997c-.036-2.65.056-5.348,0-7.997h7.997Z"/>
      <path class="e" d="M521.8,375.85c-.046,2.648.03,5.348,0,7.997-2.649.036-5.349-.056-7.997,0v-7.997c2.645-.073,5.355.113,7.997,0Z"/>
      <path class="g" d="M833.675,359.856h7.997c.03,2.649-.046,5.348,0,7.997-2.642-.113-5.351.073-7.997,0-.073-2.646.113-5.355,0-7.997Z"/>
      <path class="g" d="M785.694,303.878c2.642.113,5.351-.073,7.997,0,.036,2.649-.056,5.348,0,7.997h-7.997v-7.997Z"/>
      <path class="k" d="M761.704,287.885h7.997c.03,2.65-.046,5.348,0,7.997-2.642-.113-5.351.073-7.997,0-.073-2.646.113-5.355,0-7.997Z"/>
      <rect class="k" x="923.639" y="977.609" width="7.997" height="7.997"/>
      <path class="f" d="M577.778,279.888v7.997c-2.65.007-5.347-.018-7.997,0v-7.997c2.65-.03,5.348.046,7.997,0Z"/>
      <path class="g" d="M305.886,1017.593h7.997c.03,2.648-.046,5.349,0,7.997h-7.997c-.283-.283,0-6.106,0-7.997Z"/>
      <path class="k" d="M753.707,111.955h7.997c.03,2.65-.046,5.348,0,7.997h-7.997c-.03-2.65.046-5.347,0-7.997Z"/>
      <path class="g" d="M465.822,1043.583c-.046,2.648.03,5.348,0,7.997h-7.997c.046-2.647-.03-5.349,0-7.997h7.997Z"/>
      <path class="d" d="M28.973,1521.11v7.997c-2.648.03-5.349-.046-7.997,0v-7.997c2.65-.036,5.347.056,7.997,0Z"/>
      <path class="g" d="M313.883,1147.541c-.046,2.648.03,5.349,0,7.997h-7.997c.009-2.65-.018-5.347,0-7.997h7.997Z"/>
      <path class="k" d="M305.886,1171.531c-.016,2.649.056,5.349,0,7.997-.004,5.852-6.68,5.603-7.997,0,.056-2.649-.036-5.347,0-7.997h7.997Z"/>
      <path class="g" d="M305.886,1179.528c-.056,2.649.036,5.347,0,7.997h-7.997c.016-2.65-.056-5.349,0-7.997h7.997Z"/>
      <path class="g" d="M297.89,1203.519c-.046,2.649.03,5.347,0,7.997h-7.997c.046-2.649-.03-5.347,0-7.997h7.997Z"/>
      <path class="g" d="M777.698,199.92h7.997c.03,2.649-.046,5.348,0,7.997h-7.997c-.03-2.65.046-5.347,0-7.997Z"/>
      <path class="k" d="M289.893,1227.509c-.046,2.649.03,5.347,0,7.997h-7.997c.046-2.649-.03-5.347,0-7.997h7.997Z"/>
      <path class="g" d="M569.781,199.92v7.997h-7.997v-7.997c2.649-.03,5.348.046,7.997,0Z"/>
      <path class="k" d="M281.896,1251.499c-.046,2.649.03,5.347,0,7.997h-7.997c.046-2.649-.03-5.347,0-7.997h7.997Z"/>
      <path class="k" d="M777.698,175.93c.056,2.648-.016,5.347,0,7.997h-7.997c-.036-2.649.056-5.348,0-7.997.004-5.852,6.68-5.603,7.997,0Z"/>
      <path class="d" d="M116.938,1449.139c-.113,2.643.073,5.35,0,7.997h-7.997c.113-2.643-.073-5.351,0-7.997h7.997Z"/>
      <path class="k" d="M273.899,1275.49c-.046,2.649.03,5.347,0,7.997h-7.997c.046-2.649-.03-5.347,0-7.997h7.997Z"/>
      <path class="g" d="M769.701,167.933h7.997c.036,2.65-.056,5.348,0,7.997h-7.997c-.056-2.648.016-5.348,0-7.997Z"/>
      <path class="i" d="M697.73,1291.483c.013,2.654-.009,5.343,0,7.997h-7.997c-.036-2.648.056-5.35,0-7.997,2.938-5.099,5.913-6.062,7.997,0Z"/>
      <path class="k" d="M265.902,1299.48c-.016,2.65.056,5.349,0,7.997-.004,5.852-6.68,5.603-7.997,0,.056-2.649-.036-5.347,0-7.997h7.997Z"/>
      <path class="g" d="M265.902,1307.477c-.056,2.649.036,5.347,0,7.997h-7.997c.016-2.65-.056-5.349,0-7.997h7.997Z"/>
      <path class="k" d="M257.906,1331.467c-.046,2.649.03,5.347,0,7.997h-7.997c.046-2.649-.03-5.347,0-7.997h7.997Z"/>
      <path class="g" d="M721.72,1355.458h7.997c.03,2.648-.046,5.349,0,7.997h-7.997c-.022-2.654.013-5.343,0-7.997Z"/>
      <path class="k" d="M239.913,1379.448c-.009,2.655.005,5.342,0,7.997h-7.997v-7.997h7.997Z"/>
      <path class="g" d="M239.913,1419.432c-.056,2.649.036,5.347,0,7.997h-7.997c.056-2.649-.036-5.347,0-7.997h7.997Z"/>
      <path class="f" d="M132.932,1425.148c-.113,2.642.073,5.351,0,7.997h-7.997c.113-2.643-.073-5.35,0-7.997h7.997Z"/>
      <path class="k" d="M745.234,95.49h7.997c.03,2.65-.046,5.347,0,7.997h-7.997c-.03-2.65.046-5.347,0-7.997Z"/>
      <path class="k" d="M231.916,1435.426h7.997c.03,2.649-.046,5.348,0,7.997h-7.997c-.036-2.65.056-5.347,0-7.997Z"/>
      <path class="d" d="M697.73,1283.487c.021,2.654-.013,5.343,0,7.997h-7.997c-.014-.666.007-1.333,0-1.999l1.999-1v-4.998h5.998Z"/>
      <path class="d" d="M923.639,1163.535c.007,2.654-.004,5.343,0,7.997h-6.997l-1-1.999,1.999-1v-4.998h5.998Z"/>
      <path class="d" d="M739.713,231.907c.68-1.447-.439-5.752,0-7.997h5.998c.073,2.645-.113,5.355,0,7.997h-5.998Z"/>
      <path class="i" d="M489.813,585.766c-.034,1.984.057,4.015,0,5.998-1.105,1.757-6.093,1.49-7.997,0,.068-1.982-.04-4.014,0-5.998,2.639-.113,5.367.175,7.997,0Z"/>
      <path class="d" d="M957.626,1579.368v-7.997h5.998v7.997c-1.983-.04-4.014.024-5.998,0Z"/>
      <path class="i" d="M92.948,1251.218c.11,1.976-.065,4.016,0,5.998-2.649.044-5.347-.008-7.997,0v-5.998h7.997Z"/>
      <path class="h" d="M489.813,593.762c-.029,1.985.035,4.013,0,5.998h-7.997c-.029-1.982-.042-4.016,0-5.998,1.105-1.757,6.093-1.49,7.997,0Z"/>
      <path class="j" d="M745.71,265.894v5.998c-1.983-.06-4.013.036-5.998,0v-5.998h5.998Z"/>
      <path class="d" d="M729.717,1637.345v5.998h-5.998v-5.998c1.772-.312,4.898.517,5.998,0Z"/>
      <path class="f" d="M126.934,1257.215v1.999c-2.542,3.436-6.928,2.252-9.996,0-.189-1.498-.223-2.206-1.999-1.999,7.942-3.735,6.763-.535,11.995,0Z"/>
      <path class="g" d="M303.887,607.757c-.079.079.337,1.68-1,1.999-2.639.63-7.749-.04-10.996,0l1-1.999h10.996Z"/>
      <path class="f" d="M489.813,591.763c-.019.666.01,1.333,0,1.999h-7.997c.014-.666-.023-1.334,0-1.999h7.997Z"/>
      <path class="d" d="M497.81,583.766l-1,1.999c-2.326.101-4.7-.153-6.997,0l1-1.999h6.997Z"/>
      <path class="h" d="M140.929,1251.218v-1.999c.595.119,1.317-.045,1.999,0,.355,2.311-1.946,1.868-1.999,1.999Z"/>
      <path class="g" d="M457.826,753.699c10.282,6.062-1.934,18.279-7.997,7.997-9.922-5.882.995-17.933,7.997-7.997Z"/>
      <path class="g" d="M513.803,713.715c15.967-.014,32.013.01,47.981,0v-7.997h7.997v-7.997h7.997v-7.997h7.997v-7.997h7.997v7.997h15.994v7.997h15.994v7.997h15.994v7.997h15.994c3.892,2.519,3.886,5.472,0,7.997,1.904,6.367,4.569,11.698,7.997,15.994.004-5.852,6.68-5.603,7.997,0,5.634,34.384,5.807,69.59,0,103.958-.027,37.286.104,74.669,0,111.955-21.273,3.937-42.7,3.92-63.974,0-10.774,4.962-21.202,4.92-31.987,0-6.203,1.927-11.534,4.593-15.994,7.997-3.298,1.052-6.613,2.022-9.986,2.702-3.346.675-6.672,1.291-9.998,1.331-26.592.317-53.38.187-79.97-.258-3.329-.056-6.654-.62-9.992-1.25-3.374-.637-6.697-1.542-10.006-2.525-3.815-1.154-5.227-5.152-4.238-11.995-6.595-.468-9.261-5.799-7.997-15.994-7.445-1.943-10.031-9.522-7.757-22.736-1.585-1.202-2.918-2.953-3.998-5.252-6.549-3.295-6.264-28.114,0-31.987-.004,5.852-6.68,5.603-7.997,0-1.557-.186-3.862-.656-3.998-1.791-1.444-12.049-1.555-47.375,0-59.282l3.998-2.901c-.308-3.24,1.122-4.158,3.998-4.351-1.649-9.767,1.016-15.098,7.997-15.994-1.64-9.872,1.026-15.166,7.997-15.881.004-8.221,8.482-11.046,11.995-3.759,6.449,7.125,6.374,18.878-3.998,20.556,1.063,10.156.497,32.951-11.995,19.428,1.558.185,3.873.662,3.998,1.791,1.331,12.014,1.659,47.714,0,59.282l-3.998,2.901c6.663-11.467,14.176,1.358,12.235,11.995,5.315-.532,7.777,2.855,8.001,7.997h55.489l4.243-3.998c5.107-5.481,10.856-5.412,15.994,0,2.616-5.455,5.99-9.454,10.122-11.995,14.161,1.989,13.07-6.421,2.391-11.839l-.757-20.149c-11.287.278-10.395-27.6-2.733-31.987-11.331,1.687-15.751-6.31-13.261-23.99l-6.161-1.856c-.384-7.373-2.248-13.419-5.594-18.136-5.006-5.532-5.048-10.483,0-15.994q3.173-3.175,0,0c-2.927,5.095-5.068,5.086-7.997,0-12.312,5.984-27.611,5.767-39.984,0-7.3-4.485-4.635-9.816,7.997-15.994,14.487-3.023,29.208-4.318,43.982-4.238-3.623-4.5-4.956-8.419-3.998-11.755,2.087-3.568,4.753-6.234,7.997-7.997Z"/>
      <path class="g" d="M449.829,761.695c10.282,6.062-1.934,18.279-7.997,7.997-9.936-7.002,2.115-17.919,7.997-7.997Z"/>
      <path class="f" d="M865.662,569.772c11.301-.067,22.685.049,33.986,0v7.997h7.997v167.933c-40.414,5.734-81.553,5.929-121.951,0-5.571,5.019-10.493,5.004-15.994,0-6.35-4.516-15.076-5.863-26.178-4.043l-5.809-3.954c-10.614,3.917-21.378,3.936-31.987,0,.038-21.296-.035-42.678,0-63.974,1.314-3.678,4.763-9.492,7.87-11.515l20.119-.72c.47-6.596,5.801-9.262,15.994-7.997l.047-2.95c4.818-3.48,8.749-7.576,11.791-12.287l20.149-.757c-.323-4.43,1.593-7.304,6.181-7.757l17.81-.24c-.532-5.312,2.857-7.784,7.997-7.997.477-6.598,5.808-9.264,15.994-7.997.543-6.139,5.875-9.019,15.994-8.638v-32.243c2.195-9.874,11.691-7.763,19.992-2.862Z"/>
      <path class="g" d="M737.714,737.705c2.53.383,4.566,1.352,3.893,3.679,11.1-1.063,20.465.376,28.094,4.317,5.307.044,10.686-.019,15.994,0,3.815,1.154,5.227,5.152,4.238,11.995,7.445,1.943,10.031,9.522,7.757,22.736,1.586,1.202,2.918,2.953,3.998,5.252l3.998,2.292v34.831l-3.998,2.862c.004-5.852,6.68-5.603,7.997,0l3.998,1.828v99.761l-3.998,2.369c-3.072,4.346-4.863,10.231-5.372,17.655-4.842,1.144-7.738,4.076-8.688,8.797-5.215.672-6.613,1.999-9.93,5.536-5.254,3.911-10.746,3.923-15.994,0-3.185-.613-5.851-3.279-7.997-7.997-7.868,5.39-16.227,5.437-23.99,0-13.275,3.916-26.713,3.937-39.984,0-.133-47.942-.183-96.001,0-143.942,1.568-2.446,2.956-4.628,4.165-6.546l-.136-34.543,3.967-6.892c.032-7.971-.014-16.019,0-23.99,10.639.015,21.348-.021,31.987,0Z"/>
      <path class="h" d="M705.726,673.731c.048-28.961-.036-57.98,0-86.965l2.999-2.999h4.998v-12.995l2.999-2.999h12.995v-4.998l2.999-2.999h12.995v-4.998l2.999-2.999h12.995v7.997h102.959l1,9.996c-5.308.032-10.685-.022-15.994,0v39.984h-15.994v7.997h-15.994v7.997h-7.997v7.997h-23.99v7.997h-23.99v7.997h-7.997v7.997h-15.994v7.997h-23.99v4.998l-7.997,2.999Z"/>
      <path class="h" d="M609.765,953.619c3.811,1.151,5.225,5.149,4.243,11.995h56.831l2.901,3.998c-.046,2.647.03,5.349,0,7.997h-199.92v7.997c-5.308.022-10.686-.032-15.994,0-6.342-4.494-15.069-5.825-26.182-3.991l-5.806-4.006c-7.002,9.936-17.919-2.115-7.997-7.997,1.156-3.815,5.155-5.228,11.995-4.238.247-8.247,7.699-10.807,11.995-3.759,39.92-.692,80.02.238,119.952,0,6.203-1.927,11.534-4.593,15.994-7.997,10.634-.063,21.352.009,31.987,0Z"/>
      <path class="h" d="M721.72,537.785c-.057,6.05,2.347,9.284-5.998,7.997v4.998l-2.999,2.999h-12.995v12.995c-2.535,3.815-5.71,3.149-9.996,2.999v7.997h-7.997c-.035,23.294.047,46.678,0,69.972-2.932,2.888-6.122,1.386-9.569-4.508l-2.775.516c1.783,15.231.567,29.89-3.649,43.977-.004,5.852-6.68,5.603-7.997,0-.115-33.946-.203-68.014,0-101.959,3.354-3.619,4.687-8.074,3.998-13.365l3.998-2.629c2.64-.113,5.353.073,7.997,0v-7.997h-7.997c-.643-2.821.307-9.996,2.999-9.996h28.988v-4.998l2.999-2.999h12.995c-1.506-6.162,4.633-11.328,7.997-5.998Z"/>
      <path class="f" d="M737.714,953.619c4.056,3.314,9.388,5.089,15.998,5.323l7.993,2.673c2.524-3.89,5.476-3.893,7.997,0,5.313.01,10.681-.019,15.994,0,37.952.138,76.002-.103,113.954,0,3.897,2.521,3.895,5.474,0,7.997h-65.974c-45.277,3.932-90.669,3.932-135.946,0-.092-5.303.015-10.688,0-15.994,13.303.016,26.681-.023,39.984,0Z"/>
      <path class="h" d="M729.717,537.785c.772-3.861-2.768-7.668,2.999-7.997,6.954-.397,14.046.283,20.992,0v-7.997h71.971c-1.506,6.161,4.632,11.328,7.997,5.998,1.323-4.175,6.875-4.411,7.997,0,2.244.385,4.201,3.289,7.997,1.999.137,1.632-.09,3.337,0,4.998l2.999,2.999c6.637.269,13.368-.378,19.992,0,5.767.329,2.226,4.137,2.999,7.997-13.968-.025-28.015.018-41.983,0v-7.997c-34.548-.992-69.439,1.337-103.958,0Z"/>
      <path class="f" d="M665.742,687.725c.076-14.968-.056-29.991,0-44.982,2.194-3.089,4.336-3.451,7.997-2.999l7.997,7.997c-.049,24.626.017,49.344,0,73.97-3.187,4.651-5.571,8.638-7.997,15.994h-7.997c-6.124-.803-5.842-14.668,0-15.994-4.973-11.439-5.007-22.556,0-33.986Z"/>
      <path class="f" d="M409.845,961.615c7.002-9.936,17.919,2.115,7.997,7.997.113,2.641-.073,5.352,0,7.997,2.648.03,5.349-.046,7.997,0,5.852.004,5.603,6.68,0,7.997-10.638.009-21.349-.016-31.987,0,.478-4.21.124-7.287-4.998-7.997-7.891-1.093-49.177,1.802-50.98,0v-7.997h55.978v-7.997c5.307.064,10.687-.092,15.994,0Z"/>
      <path class="h" d="M833.675,969.612c-.772,3.864,2.767,7.668-2.999,7.997-43.506,2.484-89.224-1.849-132.947,0-.03-2.647.046-5.35,0-7.997h135.946Z"/>
      <path class="f" d="M673.739,953.619c-.015,5.306.092,10.69,0,15.994h-63.974v-15.994c21.297-.017,42.678.013,63.974,0Z"/>
      <path class="h" d="M907.646,881.647c-.011,39.952.077,80,0,119.952h-7.997c-.018-2.649.008-5.348,0-7.997-.024-7.972.007-16.018,0-23.99-.002-2.654.007-5.343,0-7.997-.072-26.625-.034-53.343,0-79.968.004-5.852,6.68-5.603,7.997,0Z"/>
      <path class="h" d="M681.736,721.711c-.027,38.957.02,77.972,0,116.953l-7.997,2.999c.025-34.618-.207-69.342,0-103.958.032-5.308-.022-10.685,0-15.994h7.997Z"/>
      <path class="k" d="M36.97,1593.081c5.31-.035,10.683.025,15.994,0v-15.994h7.997v15.994h39.984v-7.997h7.997v7.997c5.976.021,12.017-.03,17.993,0l-2.999,7.997c-27.649-1.163-56.471,1.57-83.966,0-5.766-.329-2.227-4.134-2.999-7.997Z"/>
      <rect class="h" x="196.906" y="1441.142" width="7.997" height="103.958"/>
      <rect class="h" x="204.903" y="1223.229" width="7.997" height="89.964"/>
      <path class="k" d="M220.897,1537.104c-.072-23.961.053-48.01,0-71.971h7.997c.307,23.951-.415,48.024,0,71.971,1.89,0,7.714-.283,7.997,0,.036,2.648-.056,5.35,0,7.997-2.871,10.252-18.973-.328-7.997-7.997-.004,5.852-6.68,5.603-7.997,0Z"/>
      <path class="d" d="M907.646,801.679c.01,21.297.005,42.678,0,63.974-.004,5.852-6.68,5.603-7.997,0,.04-21.281-.369-42.702,0-63.974.004-5.852,6.68-5.603,7.997,0Z"/>
      <path class="f" d="M204.903,911.354c.046-2.647-.03-5.349,0-7.997h7.997c-.729,17.439.991,35.615,0,52.979-.329,5.766-4.134,2.227-7.997,2.999.047-15.955-.276-32.031,0-47.981Z"/>
      <path class="k" d="M705.726,761.695c-.058,14.702.83,30.438,0,44.982-.329,5.766-4.134,2.227-7.997,2.999.056-14.7-.83-30.439,0-44.982.329-5.766,4.133-2.227,7.997-2.999Z"/>
      <rect class="k" x="231.916" y="1067.573" width="7.997" height="47.981"/>
      <path class="h" d="M220.897,1049.299c-.382,15.947.28,32.029,0,47.981h-7.997v-47.981c2.461-5.452,5.535-5.431,7.997,0Z"/>
      <path class="g" d="M228.893,1537.104c.046,2.648-.03,5.349,0,7.997h7.997c.055,2.641.055,5.356,0,7.997-1.226,3.481-3.892,6.147-7.997,7.997-1.89,0-7.714.283-7.997,0-.017-7.976.024-16.015,0-23.99h7.997Z"/>
      <path class="k" d="M425.838,977.609c9.563.166,19.474-.543,28.988,0,5.766.329,2.227,4.135,2.999,7.997-10.634.063-21.353-.009-31.987,0v-7.997Z"/>
      <path class="k" d="M481.816,1009.596c-7.976-.026-16.014.018-23.99,0v-7.997h23.99v7.997Z"/>
      <path class="f" d="M204.903,1023.309c-.032,5.974.023,12.019,0,17.993h-7.997c-.036-5.975-.038-12.018,0-17.993.004-5.852,6.68-5.603,7.997,0Z"/>
      <path class="h" d="M164.919,1303.197v16.993c.01,1.707-3.959,1.306-4.998,1-1.735-.512-2.731-3.026-2.999-4.998-.974-7.169-.797-14.387,7.997-12.995Z"/>
      <path class="h" d="M204.903,1007.315c-.008,5.309.029,10.685,0,15.994h-7.997c.034-5.311-.024-10.683,0-15.994h7.997Z"/>
      <path class="f" d="M907.646,865.654c-.001,5.313.001,10.681,0,15.994h-7.997c.007-5.313-.01-10.68,0-15.994h7.997Z"/>
      <path class="f" d="M249.909,1033.587c-.066,3.311.044,6.684,0,9.996h-9.996c-.066-3.312.044-6.683,0-9.996h9.996Z"/>
      <path class="f" d="M220.897,1041.302c-.145,2.633.063,5.356,0,7.997-2.648.054-5.351-.084-7.997,0-1.983.063-4.013-.038-5.998,0,1.003,7.495-3.09,8.797-9.996,7.997-.036-2.649.056-5.348,0-7.997,6.153,1.194,10.414-2.029,15.994-1.999v-5.998h7.997Z"/>
      <path class="i" d="M126.934,1259.215c.416,6.205-4.505,6.542-9.996,5.998-.145-1.963.244-4.06,0-5.998,4.052-2.723,5.944-2.723,9.996,0Z"/>
      <path class="k" d="M156.922,1585.084c-.113,2.642.073,5.352,0,7.997-2.649.03-5.348-.046-7.997,0v-7.997h7.997Z"/>
      <path class="k" d="M188.909,1577.088h7.997c.03,2.648-.046,5.349,0,7.997h-7.997c-.036-2.65.056-5.347,0-7.997Z"/>
      <path class="k" d="M180.913,1561.094h7.997c.036,2.65-.056,5.347,0,7.997h-7.997c-.073-2.645.113-5.355,0-7.997Z"/>
      <path class="k" d="M236.89,1553.097c-.056,2.647.036,5.349,0,7.997h-7.997v-7.997h7.997Z"/>
      <path class="k" d="M76.954,1329.187c2.649.056,5.347-.036,7.997,0v7.997c-2.65-.035-5.348.056-7.997,0-.068-2.647.044-5.349,0-7.997Z"/>
      <path class="k" d="M92.948,1337.183c2.649.056,5.347-.036,7.997,0v7.997c-2.642-.113-5.351.073-7.997,0v-7.997Z"/>
      <path class="i" d="M905.646,793.683c1.175.263,1.995.66,1.999,1.999.001,1.99,0,4.008,0,5.998h-7.997c.046-2.648-.03-5.349,0-7.997h5.998Z"/>
      <path class="d" d="M907.646,795.682l-1.999-1.999h1.999c0,.666,0,1.333,0,1.999Z"/>
      <path class="i" d="M513.803,713.715v7.997c-2.649.03-5.348-.046-7.997,0-9.359.162-19.714.529-28.988,0-5.767-.329-2.226-4.137-2.999-7.997,13.303-.017,26.681.012,39.984,0Z"/>
      <path class="e" d="M665.742,687.725c-.058,11.301,0,22.685,0,33.986-.004,5.852-6.68,5.603-7.997,0-.018-2.653.008-5.343,0-7.997-.026-8.64.029-17.349,0-25.99h7.997Z"/>
      <path class="h" d="M689.733,529.788c2.246-.395,4.232-3.288,7.997-1.999v9.996h-7.997v7.997h-15.994c-.628-8.717.187-9.389,7.997-9.996,1.471-2.636,4.136-4.635,7.997-5.998Z"/>
      <path class="f" d="M609.765,415.834c3.86-.772,7.668,2.768,7.997-2.999.208-3.646-.141-7.364,0-10.996h7.997c.064,5.308-.092,10.686,0,15.994-4.974.086-9.997-.06-14.994,0l-1-1.999Z"/>
      <path class="e" d="M665.742,569.772v15.994h-7.997c.032-5.308-.022-10.685,0-15.994,2.644-.073,5.357.113,7.997,0Z"/>
      <rect class="e" x="545.79" y="465.814" width="15.994" height="7.997"/>
      <path class="h" d="M705.726,529.788v-9.996c13.414-2.021,14.028,11.802,0,9.996Z"/>
      <rect class="e" x="489.813" y="625.75" width="7.997" height="7.997"/>
      <rect class="e" x="569.781" y="473.81" width="7.997" height="7.997"/>
      <rect class="e" x="521.8" y="473.81" width="7.997" height="7.997"/>
      <rect class="e" x="841.672" y="465.814" width="7.997" height="7.997"/>
      <path class="e" d="M833.675,527.789v-5.998h7.997v5.998c-2.44-.418-5.421.269-7.997,0Z"/>
      <path class="e" d="M689.733,529.788v5.998c-2.636.132-5.373-.204-7.997,0v-5.998c2.572-.275,5.567.427,7.997,0Z"/>
      <path class="e" d="M405.846,609.756c-1.323.012-2.675-.01-3.998,0l1-1.999h1.999l1,1.999Z"/>
      <path class="k" d="M457.826,737.705c2.52-3.897,5.473-3.894,7.997,0v7.997h-7.997c-.073,2.645.113,5.356,0,7.997-2.648.046-5.348-.03-7.997,0-.073,2.645.113,5.356,0,7.997-2.641.113-5.352-.073-7.997,0-.03,2.648.046,5.349,0,7.997-2.641.113-5.352-.073-7.997,0v7.997h-7.997v15.994h-7.997v15.994h-7.997v63.974h7.997v31.987h7.997v23.99h7.997v15.994h7.997v15.994c-2.647.046-5.349-.03-7.997,0v7.997h-15.994c-.113-2.641.073-5.352,0-7.997-2.648-.03-5.349.046-7.997,0v-15.994h-7.997c-.064-5.309.092-10.685,0-15.994-3.568-2.087-6.234-4.753-7.997-7.997-.092-5.309.092-10.685,0-15.994-3.568-2.087-6.234-4.753-7.997-7.997-.138-7.97.138-16.021,0-23.99-3.568-2.087-6.234-4.753-7.997-7.997-.138-7.949-.138-16.041,0-23.99.613-3.185,3.279-5.851,7.997-7.997.184-10.632-.134-21.354,0-31.987h7.997v-15.994h7.997v-15.994h4.998l2.999-7.997c2.647-.046,5.349.03,7.997,0v-7.997h4.998l2.999-7.997c2.648-.046,5.348.03,7.997,0v-7.997c7.976-.018,16.015.026,23.99,0Z"/>
      <path class="k" d="M497.81,753.699c9.018,4.579,4.236,39.761-7.997,23.99,1.564.183,3.91.695,3.998,1.808.459,5.752,1.451,49.135,0,51.247-1.007,1.466-2.217,2.506-3.998,2.922.8-7.354,9.033-3.552,11.433,1.401l.562,34.464c8.646,1.95,12.169,16.657,3.998,20.112-.046,2.648.03,5.348,0,7.997h-63.974v-7.997h-7.997v-15.994h-7.997v-63.974h7.997v-23.99h7.997c.064-5.308-.092-10.687,0-15.994,2.641-.113,5.352.073,7.997,0,.073-2.645-.113-5.356,0-7.997,2.641-.113,5.352.073,7.997,0,.073-2.645-.113-5.356,0-7.997,13.29-.23,26.689.072,39.984,0Z"/>
      <rect class="f" x="321.88" y="905.638" width="15.994" height="7.997"/>
      <path class="f" d="M196.906,759.415v7.997c-2.643.073-5.357-.113-7.997,0v-7.997c2.647-.03,5.35.046,7.997,0Z"/>
      <path class="g" d="M385.854,833.667c-.046,2.649.03,5.348,0,7.997h-7.997c.046-2.649-.03-5.347,0-7.997h7.997Z"/>
      <path class="g" d="M377.858,865.654h7.997c.03,2.65-.046,5.348,0,7.997h-7.997c-.03-2.65.046-5.348,0-7.997Z"/>
      <rect class="f" x="228.893" y="879.367" width="7.997" height="7.997"/>
      <rect class="f" x="249.909" y="881.647" width="7.997" height="7.997"/>
      <rect class="d" x="212.9" y="887.363" width="7.997" height="7.997"/>
      <rect class="d" x="273.899" y="889.644" width="7.997" height="7.997"/>
      <rect class="d" x="297.89" y="897.641" width="7.997" height="7.997"/>
      <path class="g" d="M385.854,897.641h7.997c.03,2.65-.046,5.347,0,7.997h-7.997c-.03-2.65.046-5.348,0-7.997Z"/>
      <rect class="d" x="353.867" y="913.635" width="7.997" height="7.997"/>
      <rect class="d" x="377.858" y="921.631" width="7.997" height="7.997"/>
      <path class="g" d="M393.851,921.631h7.997c.03,2.65-.046,5.348,0,7.997h-7.997c-.03-2.65.046-5.347,0-7.997Z"/>
      <path class="k" d="M777.698,351.859h7.997v7.997c-2.649-.046-5.347.03-7.997,0-.03-2.65.046-5.348,0-7.997Z"/>
      <path class="k" d="M769.701,319.872h7.997c.03,2.65-.046,5.348,0,7.997h-7.997c-.03-2.65.046-5.348,0-7.997Z"/>
      <path class="k" d="M633.755,311.875h7.997c.03,2.649-.046,5.348,0,7.997h-7.997c-.073-2.645.113-5.355,0-7.997Z"/>
      <path class="k" d="M625.758,271.891v7.997c-2.648-.046-5.348.03-7.997,0-.036-2.649.056-5.349,0-7.997.001-5.849,6.68-5.599,7.997,0Z"/>
      <path class="d" d="M625.758,263.894v7.997h-7.997c-.056-2.647.014-5.348,0-7.997,2.649,0,5.348.02,7.997,0Z"/>
      <path class="h" d="M617.285,39.513c5.44,5.132,5.51,10.893,0,15.994-.046,2.649.03,5.347,0,7.997-5.309-.064-10.685.092-15.994,0-2.649-.046-5.347.03-7.997,0-.044-2.649.068-5.349,0-7.997-5.079-2.922-5.066-5.072,0-7.997.101-.048-.364-1.666,1-1.999,3.045-.744,14.166.828,14.994,0-1.506-6.161,4.632-11.328,7.997-5.998Z"/>
      <path class="k" d="M665.742,183.926c-.611-8.445-1.127-8.793,7.997-7.997v-15.994h7.997c.099,7.971-.138,16.021,0,23.99-5.314-.016-10.68.018-15.994,0Z"/>
      <path class="f" d="M617.285,39.513h15.994v13.994l-15.994,1.999c.092-5.308-.064-10.684,0-15.994Z"/>
      <path class="d" d="M609.289,77.497c8.445-.61,8.793-1.127,7.997,7.997h6.997l1,9.996c-2.642-.113-5.351.073-7.997,0v-7.997h-7.997c-.037-2.649.058-5.349,0-7.997-1.788-.369-1.716-1.048,0-1.999Z"/>
      <path class="k" d="M689.733,183.926c5.31.035,10.684-.025,15.994,0,.036,2.649-.056,5.349,0,7.997-.004,5.852-6.68,5.603-7.997,0-2.649,0-5.35.056-7.997,0-5.852,0-5.597-6.678,0-7.997Z"/>
      <path class="f" d="M601.292,69.501h7.997c.037,2.649-.058,5.349,0,7.997.015.666-.015,1.333,0,1.999h-7.997c-.353-.353,0-7.978,0-9.996Z"/>
      <path class="f" d="M593.295,47.509c.044,2.649-.068,5.349,0,7.997h-7.997c-.036-2.65.056-5.347,0-7.997,2.245-.439,6.55.681,7.997,0Z"/>
      <rect class="k" x="761.704" y="199.92" width="7.997" height="7.997"/>
      <rect class="k" x="737.714" y="191.923" width="7.997" height="7.997"/>
      <path class="g" d="M705.726,191.923c.056,2.647-.014,5.348,0,7.997h-7.997v-7.997h7.997Z"/>
      <path class="g" d="M689.733,183.926v7.997c-2.648-.056-5.348.036-7.997,0-.03-2.65.046-5.348,0-7.997,2.65.008,5.347-.018,7.997,0Z"/>
      <rect class="k" x="721.72" y="167.933" width="7.997" height="7.997"/>
      <path class="g" d="M649.749,135.946v7.997h-7.997v-7.997c2.646-.073,5.355.113,7.997,0Z"/>
      <path class="f" d="M273.899,633.747c-.056,2.647.036,5.349,0,7.997h-7.997c.046-2.649-.03-5.347,0-7.997h7.997Z"/>
      <path class="f" d="M289.893,681.727c5.718.129,5.463,4.646,0,5.998-2.645-.076-5.35.046-7.997,0v-5.998c2.62.055,5.39.172,7.997,0Z"/>
      <path class="d" d="M577.301,77.497v9.996h-7.997c-.757-6.563.238-11.003,7.997-9.996Z"/>
      <path class="e" d="M569.305,103.487c.058,2.649-.037,5.346,0,7.997-2.622,1.029-4.622,1.029-5.998,0h-1.999c.044-2.65-.068-5.348,0-7.997h7.997Z"/>
      <rect class="f" x="641.752" y="103.958" width="7.997" height="7.997"/>
      <path class="g" d="M617.762,175.93v7.997c-2.649.056-5.348-.056-7.997,0v-7.997h7.997Z"/>
      <polygon class="i" points="569.305 111.484 564.307 113.483 563.307 111.484 569.305 111.484"/>
      <path class="k" d="M385.854,737.705c5.852.004,5.603,6.68,0,7.997-14.705-.062-30.435.83-44.982,0-5.766-.329-2.227-4.135-2.999-7.997,15.963.029,32.018-.095,47.981,0Z"/>
      <path class="g" d="M385.854,737.705c5.308.032,10.686-.022,15.994,0v7.997c-5.309.01-10.685.023-15.994,0v-7.997Z"/>
      <path class="d" d="M313.883,681.727c3.232.743,6.399,3.325,7.997,5.998v1.999c-11.349-.296-20.637-1.674-31.987-1.999v-5.998c3.376-.223,4.932.255,7.997-1.999,2.082,3.529,10.961,1.912,15.994,1.999Z"/>
      <rect class="f" x="289.893" y="633.747" width="7.997" height="7.997"/>
      <rect class="f" x="273.899" y="649.74" width="7.997" height="7.997"/>
      <path class="f" d="M297.89,657.737c-2.643-.113-5.35.073-7.997,0v-7.997h7.997c.036,2.65-.056,5.348,0,7.997,2.643.113,5.35-.073,7.997,0v5.998c-1.447-.681-5.752.439-7.997,0,0-1.986.042-4.013,0-5.998Z"/>
      <path class="k" d="M505.806,769.692c3.861.772,7.668-2.768,7.997,2.999.246,4.307-.17,8.7,0,12.995h7.997v23.99h15.994v7.997h-7.997v23.99h7.997v23.99h7.997v15.994h-15.994v7.997c-2.649.03-5.348-.046-7.997,0l-3.998-2.182c1.45-9.277.117-16.547-3.998-21.808-6.549-3.295-6.264-28.114,0-31.987,1.957,6.359-10.423,3.801-10.659,1.429-2.186-22-2.104-43.747,2.662-65.403Z"/>
      <path class="e" d="M505.806,753.699c-.092,5.305.015,10.687,0,15.994-.059,21.296.044,42.678,0,63.974h7.997v31.987h7.997v23.99c-5.307.092-10.685-.064-15.994,0,.14-8.073,2.341-17.413-7.997-15.994v-36.985l-2.999-2.999h-4.998v-55.978h7.997v-23.99c2.648-.014,5.35.056,7.997,0Z"/>
      <path class="k" d="M577.778,953.619v7.997c-5.308.022-10.685-.032-15.994,0v-7.997c5.309-.022,10.685.032,15.994,0Z"/>
      <path class="h" d="M665.742,721.711v15.994c-1.89,0-7.714.283-7.997,0-.025-5.308.035-10.686,0-15.994h7.997Z"/>
      <path class="k" d="M505.806,753.699c.046-2.648-.03-5.348,0-7.997h7.997v7.997c-2.648.036-5.35-.056-7.997,0Z"/>
      <path class="h" d="M737.714,737.705c9.488.019,19.596-.536,28.988,0,5.766.329,2.227,4.135,2.999,7.997-9.526-.079-19.535.54-28.988,0-5.766-.329-2.227-4.133-2.999-7.997Z"/>
      <path class="h" d="M761.704,953.619c5.852.004,5.603,6.68,0,7.997-7.975-.027-16.016.02-23.99,0v-7.997c7.968.014,16.026-.138,23.99,0Z"/>
      <path class="k" d="M761.704,953.619c2.648.046,5.348-.03,7.997,0v7.997c-2.654-.005-5.343.009-7.997,0v-7.997Z"/>
      <path class="d" d="M281.896,713.715v7.997c-7.974-.026-16.017.036-23.99,0v-7.997c7.975-.018,16.015.026,23.99,0Z"/>
      <path class="i" d="M457.826,737.705v-7.997h7.997c.283.283,0,6.107,0,7.997-2.654.005-5.343-.009-7.997,0Z"/>
      <path class="i" d="M313.883,681.727c2.649.046,5.347-.03,7.997,0v5.998h-7.997v-5.998Z"/>
    </g>
  </g>
</svg>