<?xml version="1.0" encoding="UTF-8"?>
<svg id="b" data-name="Layer 2" xmlns="http://www.w3.org/2000/svg" width="2141.247" height="2669.11" viewBox="0 0 2141.247 2669.11">
  <defs>
    <style>
      .d {
        fill: #4ae6eb;
      }

      .e {
        fill: #3368dc;
      }

      .f {
        fill: #fc4f6a;
      }

      .g {
        fill: #2c1055;
      }

      .h {
        fill: #fef7f7;
      }

      .i {
        fill: #fe5069;
      }

      .j {
        fill: #fcdb47;
      }

      .k {
        fill: #ab2065;
      }
    </style>
  </defs>
  <g id="c" data-name="Layer 1">
    <g>
      <path class="h" d="M1201.577,265.911c3.074,25.256,5.235,50.626,2.815,75.975,3.024-.577,4.318.745,5.182,3.999,1.567.421,3.875,1.096,3.999,2.342,1.501,15.147,1.862,51.972,0,66.699l-3.999,2.935c.004-5.852,6.68-5.604,7.997,0,6.549,3.295,6.264,28.116,0,31.989.392-7.118,11.463-4.748,11.996,2.182l.24,17.811c5.313-.532,7.785,2.857,7.997,7.997,6.598.477,9.264,5.808,7.997,15.995,5.313-.532,7.785,2.857,7.997,7.997,5.313-.532,7.785,2.857,7.997,7.997,5.313-.532,7.785,2.857,7.997,7.997l2.95.047c3.652,4.827,7.92,8.978,12.805,12.453-2.142-11.512.523-18.76,7.997-21.743-1.527-11.819.614-30.369,13.995-18.747,7.057,3.118,11.135,7.116,12.236,11.996,5.312-.531,7.784,2.856,7.997,7.997,5.312-.531,7.784,2.856,7.997,7.997,5.153-.58,8.035,2.979,7.867,7.997,1.842,1.357,42.359,1.235,43.875-3.999.638-5.801,7.282-5.502,10.643-1.368,4.439,5.46,2.668,63.18-2.646,73.344,3.568,2.087,6.234,4.753,7.997,7.997,6.147,12.283,5.953,27.652,0,39.987,4.96,5.501,4.957,10.418,0,15.995,3.568,2.087,6.234,4.753,7.997,7.997,3.943,7.927,3.928,16.06,0,23.992,4.362,39.32,5.282,78.863,2.636,118.32,19.847-3.272,42.224-5.111,61.341,1.64,3.185.613,5.851,3.279,7.997,7.997,11.954-5.911,28.256-6.218,39.986,0,3.185.613,5.851,3.279,7.997,7.997,10.087-5.31,35.23-8.736,35.987,4.238,7.757-1.575,14.421-.322,19.993,3.759,3.186.613,5.851,3.279,7.997,7.997,7.086-6.483,19.29-6.303,20.346,3.999,9.741-1.658,15.073,1.008,15.994,7.997,9.847-1.648,15.141,1.017,15.882,7.997-1.688-41.455-.435-82.774,3.759-123.959,3.188-4.652,5.57-8.639,7.997-15.995-3.9-5.256-3.919-10.749,0-15.995-4.939-21.343-5.001-42.643,0-63.979.613-3.185,3.279-5.851,7.997-7.997-5.675-7.332-5.772-16.816,0-23.992.613-3.185,3.279-5.851,7.997-7.997-5.42-5.138-5.501-10.893,0-15.995.613-3.185,3.279-5.851,7.997-7.997-6.025-6.197-6.507-18.539,2.815-19.993.655-4.928,2.382-8.926,5.182-11.996l2.06-3.775c3.911.439,5.568-1.72,5.937-4.223-5.959-1.446-5.759-6.646,0-7.997l2.06-3.775c3.911.439,5.568-1.72,5.937-4.223-5.959-1.446-5.759-6.646,0-7.997l2.06-3.775c3.911.439,5.568-1.72,5.937-4.223-5.959-1.446-5.759-6.646,0-7.997l2.06-3.775c3.911.438,5.568-1.72,5.937-4.223-7.835-1.417-4.053-12.118,3.999-12.349-1.874-9.279,2.124-15.826,11.996-19.641l2.06-3.775c3.911.438,5.568-1.72,5.937-4.223-10.952-4.735,1.512-12.483,7.997-15.995,4.229-2.298,6.895-5.63,7.997-9.997-7.719-2.455-5.053-7.12,7.997-13.995.83-3.18,3.496-5.846,7.997-7.997-7.637-3.538-3.761-12.204,3.999-12.236.744-4.675,4.743-8.594,11.996-11.756.83-3.18,3.496-5.846,7.997-7.997-7.637-3.538-3.762-12.204,3.999-12.236-.532-5.313,2.858-7.785,7.997-7.997-.476-5.526,7.326-10.813,11.996-11.756,1.447.681,5.752-.439,7.997,0v4.998l2.999,2.999h4.998v4.998l2.999,2.999h4.998v4.998l2.999,2.999h4.998v12.996l2.999,2.999h4.998v20.993l2.999,2.999h4.998v20.993l2.999,2.999h4.998v20.993l2.999,2.999h4.998c.357,4.538-.514,9.577,0,13.995,4.355.377,5.768,5.042,4.238,13.995,7.624.027,10.996,6.89,3.759,9.997,4.316,8.489,5.631,18.367,3.945,29.631,2.354.313,3.425,1.851,4.052,4.357l3.999,2.28c1.141,6.593,1.803,26.868-3.999,29.71,9.413-13.97,17.54,11.068,7.997,21.993,3.085,3.246,5.75,6.578,7.997,9.997l2.697,4.792c-.223,8.321,1.544,14.721,5.3,19.2,1.554.425,3.862,1.071,3.999,2.292.526,4.714.527,34.437-1.333,36.371-.647.673-1.611,1.042-2.666,1.324.004-5.852,6.68-5.604,7.997,0,1.56.417,3.72,1.013,3.999,2.342,2.222,10.612.961,53.984,0,66.699l-3.999,2.935c4.737-9.447,11.173-3.419,11.893,9.856,1.939,35.732,1.916,75.235-3.896,110.104-.613,3.186-3.279,5.851-7.997,7.997,5.939,17.207,6.442,38.933,0,55.981-.613,3.186-3.279,5.851-7.997,7.997,4.662,12.188,9.735,42.105-4.238,43.985,1.025,7.04-.167,13.739-3.759,19.993,5.555,8.97,6.594,19.774-4.238,19.993,1.807,10.496.554,19.826-3.759,27.991-.613,3.185-3.279,5.851-7.997,7.997,5.782,8.712,7.737,26.848-3.999,28.343l.564,7.645c13.915-2.404,21.724.342,23.428,8.237,10.512-1.806,19.842-.553,27.99,3.759,3.186.614,5.852,3.279,7.997,7.997,2.943-5.042,5.054-5.049,7.997,0,15.261-7.416,46.838-5.326,31.989,7.997.415-1.551,1.055-3.877,2.249-3.999,8.524-.87,28.419-.856,36.927,0l2.81,3.999c3.374-.217,4.506,1.147,3.999,4.238,10.504-1.806,19.834-.553,27.99,3.759,7.117-10.454,18.207,3.43,7.997,7.997,3.295-6.55,28.115-6.265,31.989,0,5.065,2.205,10.397,4.87,15.994,7.997,2.648.046,5.348-.03,7.997,0v47.984c-2.645.073-5.356-.113-7.997,0-1.946,3.252-4.612,5.918-7.997,7.997-2.959,4.361-9.205,5.694-18.739,3.999-1.268,8.564-7.101,11.896-17.501,9.997.799,78.663.76,157.347-3.747,235.921-.127,298.204.095,596.473,0,894.702l-2.999,2.999h-44.984v-7.997h-7.997c-.029-69.944.039-139.986,0-209.93-5.588-211.236-5.45-422.551,0-633.789-3.935-20.607-3.928-41.372,0-61.979-3.222-65.277-4.993-130.604-3.233-195.935l-10.762.24c-.377,10-13.885,10.347-19.993,3.759-3.524,12.112-8.851,12.58-19.993,12.236.22,3.232-.659,6.062-3.842,7.24l-20.15.757c-.475,6.598-5.807,9.264-15.994,7.997.22,3.232-.659,6.062-3.842,7.24l-20.15.757c.323,4.43-1.593,7.305-6.181,7.758l-17.811.24c-.475,6.598-5.807,9.264-15.994,7.997.22,3.232-.659,6.062-3.842,7.24l-20.15.757c-1.487,7.273-8.407,9.859-20.76,7.758-3.571,6.855-9.98,9.601-19.226,8.237.22,3.232-.659,6.062-3.842,7.24l-20.15.757c-.475,6.598-5.807,9.264-15.994,7.997.22,3.232-.659,6.062-3.842,7.24l-20.15.757c.22,3.232-.659,6.062-3.842,7.24l-20.15.757c-.336,6.682-5.34,9.268-15.012,7.758l-4.981,1.999c-4.958,1.208-10.194,1.541-15.707,1-4.193,7.233-11.868,9.899-23.025,7.997l-1.548,2.999c-3.694-.827-6.343.839-7.947,4.998-5.574-.517-10.824-.184-15.75,1,5.718.129,5.464,4.646,0,5.998l-1.703,1c-9.289-.687-18.481.599-22.533,7.997-5.572-.517-10.822-.184-15.75,1,11.627,9.682-9.094,14.511-18.743,11.853l-5.249,2.142-1.703,1c-9.289-.687-18.481.599-22.533,7.997-5.572-.517-10.822-.184-15.75,1,3.875,1.832,3.885,4.177,0,5.998l-2.182,3.999-17.811.24c-.475,6.598-5.806,9.264-15.994,7.997.22,3.232-.659,6.062-3.842,7.24l-20.15.757c-.432,6.423-5.763,9.16-15.994,8.211v113.099l-3.999,2.409c1.746.568,1.72,1.235,0,1.999,3.929,23.947,3.935,48.03,0,71.976-.096,346.188.072,692.441,0,1038.654l-2.999,2.999h-4.998v4.998l-2.999,2.999h-36.987v-7.997h-7.997v-705.765l-3.999-1.394v-396.015l3.999-2.458c-.242-2.057,1.091-3.676,3.999-4.857l.034-122.025c3.317-7.636,15.171-7.14,15.96,1.74,1.854,1.591,14.186,1.852,15.666.855,1.382-.931.981-31.985,0-33.332-5.932-.305-6.973-3.15-8.373-8.326-12.819,2.298-20.993-.367-24.522-7.997l-25.955-.096c-2.952-1.098-4.786-3.731-5.503-7.902-12.819,2.298-20.993-.367-24.522-7.997l-25.955-.096c-2.952-1.098-4.786-3.731-5.503-7.902-9.566.724-35.305,1.433-21.289-11.996-3.295,6.55-28.115,6.265-31.989,0-5.852-.004-5.604-6.68,0-7.997-3.295,6.55-28.115,6.265-31.989,0-3.178.504-4.047-1.44-4.563-3.999-10.167,1.064-32.951.493-19.429-11.996-3.295,6.55-28.115,6.265-31.989,0-3.178.504-4.047-1.44-4.563-3.999-10.167,1.064-32.951.493-19.429-11.996-3.295,6.55-28.115,6.265-31.989,0-5.852-.004-5.604-6.68,0-7.997-3.295,6.55-28.115,6.265-31.989,0-3.178.504-4.047-1.44-4.563-3.999-10.167,1.064-32.951.493-19.429-11.996-3.295,6.55-28.115,6.265-31.989,0-3.178.504-4.047-1.44-4.563-3.999-10.167,1.064-32.951.493-19.429-11.996-3.295,6.55-28.115,6.265-31.989,0-5.852-.004-5.604-6.68,0-7.997-3.295,6.55-28.115,6.265-31.989,0-5.64-4.181-13.38-5.547-23.219-4.097-2.686-1.48-4.688-4.113-6.005-7.899l-25.955-.096c-2.7-1.465-4.711-4.099-6.034-7.902l-25.955-.096c-2.7-1.465-4.711-4.099-6.034-7.902l-25.955-.096c-2.952-1.098-4.786-3.732-5.503-7.902-12.819,2.298-20.993-.367-24.522-7.997l-25.955-.096c-2.952-1.098-4.786-3.732-5.503-7.902-18.068,2.431-25.498-1.568-22.288-11.996-2.572,6.485-25.847,6.205-28.99,0-5.852-.004-5.604-6.68,0-7.997-3.295,6.55-28.115,6.265-31.989,0-3.178.504-4.047-1.44-4.563-3.999-10.167,1.064-32.951.493-19.429-11.996-3.295,6.55-28.115,6.265-31.989,0-3.178.504-4.047-1.44-4.563-3.999-10.167,1.064-32.951.493-19.429-11.996-1.014,5.763-26.596,5.264-31.186,3.999l-2.802-3.999c-3.178.504-4.047-1.44-4.563-3.999-10.167,1.064-32.951.493-19.429-11.996-3.295,6.55-28.115,6.265-31.989,0-5.852-.004-5.604-6.68,0-7.997-3.295,6.55-28.115,6.265-31.989,0-3.178.504-4.047-1.44-4.563-3.999-10.167,1.064-32.951.493-19.429-11.996-3.295,6.55-28.115,6.265-31.989,0-3.178.504-4.047-1.44-4.563-3.999-10.167,1.064-32.951.493-19.429-11.996-3.295,6.55-28.115,6.265-31.989,0-5.852-.004-5.604-6.68,0-7.997-3.295,6.55-28.115,6.265-31.989,0-3.178.504-4.047-1.44-4.563-3.999-10.167,1.064-32.951.493-19.429-11.996-3.295,6.55-28.115,6.265-31.989,0-3.178.504-4.047-1.44-4.563-3.999-10.167,1.064-32.951.493-19.429-11.996-3.295,6.55-28.115,6.265-31.989,0-3.178.504-4.047-1.44-4.563-3.999-10.167,1.064-32.951.493-19.429-11.996-3.295,6.55-28.115,6.265-31.989,0-5.852-.004-5.604-6.68,0-7.997-3.295,6.55-28.115,6.265-31.989,0-3.178.504-4.047-1.44-4.563-3.999-10.167,1.064-32.951.493-19.429-11.996-3.295,6.55-28.115,6.265-31.989,0-3.179.504-4.047-1.44-4.563-3.999-13.046,2.395-21.128-.27-24.245-7.997l-26.163-.037c-5.76-2.069-7.641-10.302-1.01-11.959,0-1.89-.283-7.715,0-7.997h31.989v-7.997h31.989v-7.997h39.986v-7.997h31.989v-7.997h39.986v-7.997h31.989v-7.997h31.989v-7.997h39.986v-7.997h31.989v-7.997h31.989v-7.997h39.986c10.624,4.358,14.702,13.689,12.236,27.991,3.231-.22,6.062.659,7.24,3.842l.757,20.15c4.43-.323,7.305,1.593,7.757,6.181l.24,17.811c3.231-.22,6.062.659,7.24,3.842l.757,20.15c3.231-.22,6.062.659,7.24,3.842l.757,20.15c6.596.469,9.262,5.801,7.997,15.995,5.312-.532,7.785,2.857,7.997,7.997,7.907-.544,11.349,9.557,3.759,11.996,3.295-6.55,28.115-6.265,31.989,0,5.852.004,5.604,6.68,0,7.997l2.292-3.999h34.832l2.862,3.999c5.852.004,5.604,6.68,0,7.997,3.295-6.55,28.115-6.265,31.989,0,5.852.004,5.604,6.68,0,7.997l2.247-3.999c5.867-1.341,29.249-1.685,31.741,3.999,5.852.004,5.604,6.68,0,7.997,3.383-6.576,28.164-6.241,31.989,0,5.852.004,5.604,6.68,0,7.997,3.295-6.55,28.115-6.265,31.989,0,5.852.004,5.604,6.68,0,7.997,1.223-3.998,5.229-5.331,12.017-3.999,7.484-.614,24.747-1.865,27.969,3.999,2.474-.404,4.079.929,4.816,3.999h24.332l2.841,3.999,4.816,3.999,26.163.037c5.761,2.07,7.641,10.302,1.01,11.959,3.295-6.55,28.115-6.265,31.989,0-6.549-3.295-6.264-28.116,0-31.989,1.814-3.341,1.1-5.209-2.142-5.605-2.875-6.047-4.131-20.232,3.671-22.386l-1.53-3.999c-6.549-3.295-6.264-28.116,0-31.989,4.877-5.815,4.546-11.241,3.759-19.993-14.504-.447-7.838-35.437,4.238-19.993-1.557-.428-3.795-1.051-3.999-2.332-.896-5.644-.949-37.328,0-42.737l3.999-2.915c.865,5.126-6.798,5.167-9.682,2.618-8.02-7.088,3.915-22.266,9.682-10.616l-3.999-1.381v-196.125l3.999-2.427c1.507-3.044,1.507-5.71,0-7.997-3.998-1.223-5.331-5.229-3.999-12.017-.614-7.484-1.865-24.748,3.999-27.97.004-5.852,6.68-5.604,7.997,0-6.549-3.295-6.264-28.116,0-31.989-7.679,13.378-20.864-9.197-3.999-12.56v-16.716c2.459-13.116,35.115-6.414,19.993,5.284.001-1.034.111-1.988.603-2.666,1.786-2.462,53.097-1.795,60.474-1.312l2.901,3.978c5.852.004,5.604,6.68,0,7.997,3.295-6.55,28.115-6.265,31.989,0,4.455,3.058,10.488,4.917,18.098,5.577l1.895,4.545c-1.558,6.689.935,11.26,7.48,13.713l.757,20.15c3.231-.22,6.062.659,7.24,3.842l.757,20.15c3.231-.22,6.062.659,7.24,3.842l.757,20.15c3.231-.22,6.062.659,7.24,3.842l.757,20.15c3.231-.22,6.062.659,7.24,3.842l.757,20.15c3.231-.22,6.062.659,7.24,3.842l.757,20.15c3.231-.22,6.062.659,7.24,3.842l.757,20.15c3.231-.22,6.062.659,7.24,3.842l.757,20.15c3.231-.22,6.062.659,7.24,3.842l.757,20.15c3.231-.22,6.062.659,7.24,3.842l.757,20.15c3.231-.22,6.062.659,7.24,3.842l.757,20.15c3.231-.22,6.062.659,7.24,3.842l.757,20.15c3.231-.22,6.062.659,7.24,3.842l.757,20.15c3.231-.22,6.062.659,7.24,3.842l.757,20.15c3.231-.22,6.062.659,7.24,3.842l.757,20.15c3.231-.22,6.062.659,7.24,3.842l.757,20.15c3.231-.22,6.062.659,7.24,3.842l.757,20.15c3.231-.22,6.062.659,7.24,3.842l.757,20.15c3.231-.22,6.062.659,7.24,3.842l.757,20.15c3.231-.22,6.062.659,7.24,3.842l.757,20.15c4.43-.323,7.305,1.593,7.757,6.181l.24,17.811c12.37,1.598,10.086,25.278-.24,27.627l-3.999,2.363c3.295-6.55,28.115-6.265,31.989,0-5.852-.004-5.604-6.68,0-7.997,3.295-6.55,28.115-6.265,31.989,0-5.975-.147-5.514-8.922,0-9.997l2.292-3.999h34.832l2.862,3.999c-5.852-.004-5.604-6.68,0-7.997,3.295-6.55,28.115-6.265,31.989,0-5.852-.004-5.604-6.68,0-7.997,3.295-6.55,28.115-6.265,31.989,0-5.852-.004-5.604-6.68,0-7.997l2.249-3.999h36.927l2.81,3.999c-5.852-.004-5.604-6.68,0-7.997,3.295-6.55,28.115-6.265,31.989,0-5.852-.004-5.604-6.68,0-7.997l2.292-3.999h34.832l2.862,3.999c-5.852-.004-5.604-6.68,0-7.997,3.295-6.55,28.115-6.265,31.989,0-6.276.109-5.08-8.915-.157-11.479l20.241-.517c-1.371-12.397-.069-24.393,3.907-35.988-2.456-3.649-3.529-7.783-4.351-11.996-10.095,2.12-22.719-4.315-11.643-11.996-.331,1.579-.881,3.309-2.292,3.999-1.786.873-37.873,1.481-37.694-3.999-5.852-.004-5.604-6.68,0-7.997-3.295,6.55-28.115,6.265-31.989,0-5.852-.004-5.604-6.68,0-7.997l-2.292,3.999h-34.832l-2.862-3.999c-5.852-.004-5.604-6.68,0-7.997-.416,1.55-1.045,3.86-2.249,3.999-3.687.424-35.313.897-36.927,0-1.518-.844-2.305-2.406-2.81-3.999-5.852-.004-5.604-6.68,0-7.997l-2.292,3.999h-34.832l-2.862-3.999c-3.374.217-4.506-1.147-3.999-4.238-10.504,1.806-19.834.554-27.99-3.759-3.185-.613-5.851-3.279-7.997-7.997-11.65,7.873-47.414,5.558-31.989-7.997l-2.292,3.999h-34.832l-2.862-3.999c-5.852-.004-5.604-6.68,0-7.997-.425,1.555-1.074,3.868-2.292,3.999-7.725.832-27.126.818-34.832,0l-2.862-3.999c-3.478-1.229-6.144-3.894-7.997-7.997-4.032-2.635-7.858-5.248-11.478-7.841l-.757-20.15c-4.428.323-7.304-1.592-7.757-6.181l-.24-17.811c-3.229.22-6.061-.657-7.24-3.842l-.757-20.15c-10.415-.966-9.698-12.342-3.759-19.993h23.992v-7.997h7.997v-39.987h7.997v-31.989h7.997v-23.992h7.997v-31.989h7.997v-31.989h7.997v-31.989h7.997v-31.989h7.997v-23.992h7.997v-15.995h7.997v-23.992h7.997v-15.995h7.997v-15.995h7.997v-15.995h7.997v-15.995h7.997v-15.995h7.997v-15.995h7.997v-7.997h-4.998l-2.999-2.999v-20.993h-4.998l-2.999-2.999v-36.988h-4.998l-2.999-2.999v-76.974h7.997c1.177-27.956-1.588-57.149,0-84.972.329-5.767,4.135-2.227,7.997-2.999Z"/>
      <path class="i" d="M15.994,993.669v7.997h31.989v7.997h23.992v7.997h31.989v7.997h23.992v7.997h31.989v7.997h31.989v7.997h23.992v7.997h31.989v7.997h23.992v7.997h31.989v7.997h23.992v7.997h31.989v7.997h31.989v7.997h23.992v7.997h31.989v7.997h23.992v7.997h31.989v7.997h31.989v7.997h23.992v7.997h33.988v7.997h23.992v7.997h31.989v7.997h23.992v7.997h31.989v7.997h28.99l2.999,2.999v4.998h20.993l2.999,2.999v4.998h28.99l2.999,2.999v4.998h20.993l2.999,2.999v4.998h28.99l2.999,2.999v4.998h28.99l2.999,2.999v4.998h28.99l2.999,2.999v4.998h20.993l2.999,2.999v4.998h31.989v7.997h31.989v7.997h23.992v7.997h31.989v7.997h23.992v7.997h31.989v7.997h31.989v7.997h23.992v7.997h31.989v7.997h23.992v7.997h31.989v7.997h31.989v7.997h22.992l2.999,2.999v4.998h28.99l2.999,2.999v4.998h20.993l2.999,2.999v4.998h28.99l2.999,2.999v4.998h20.993l2.999,2.999v4.998h4.998l2.999,2.999v35.988l-2.999,2.999h-20.993v-7.997h-7.997v124.958c-2.41,3.674-4.365,2.757-7.997,2.999-1.513,1.121-3.06,2.169-4.73,2.958-1.641.775-3.241,1.477-4.866,1.576-35.493,2.17-72.184.179-107.432-1.869l-4.929-2.665c-7.976.024-16.016-.017-23.992,0-.153,34.623.207,69.343,0,103.965-2.924,4.704-3.463,7.839-2.999,14.045l-4.998,1.949c-2.038,25.743,1.51,53.951,0,79.973h-7.997v39.987h-7.997v23.992c-2.645.073-5.356-.113-7.997,0-4.36,10.623-13.69,14.701-27.99,12.236-1.944,7.446-9.524,10.032-22.738,7.758-1.202,1.585-2.953,2.918-5.253,3.999-.174,1.576-.731,3.947-1.845,3.999-23.561,1.096-61.611,2.505-84.14,0-5.531,1.167-8.858-.166-9.98-3.999-5.634-4.009-13.316-5.355-23.044-4.038-3.34-4.779-7.327-8.442-11.963-10.988l-1.333-4.966c-9.873,1.64-15.166-1.026-15.882-7.997-5.312.532-7.785-2.857-7.997-7.997-5.312.532-7.785-2.857-7.997-7.997-5.581-.916-9.5-4.914-11.756-11.996-7.414-15.263-5.327-46.839,7.997-31.989l-3.999-2.292v-34.833l3.999-2.862c.004-5.852,6.68-5.604,7.997,0-3.998-1.223-5.331-5.229-3.999-12.017-.614-7.484-1.865-24.748,3.999-27.97.004-5.852,6.68-5.604,7.997,0l-3.999-2.292v-34.833l3.999-2.862c-.216-3.383,1.156-4.505,4.238-3.999l-.245-73.626c1.125-2.897,3.171-3.768,6.003-2.349,3.23,2.532,5.229,2.532,5.998,0-6.341-.158-6.027-14.583,0-15.995-4.952-12.302-7.148-70.706-1.014-74.685,3.754-2.435,8.039-2.139,9.012,2.709-1.557-.428-3.795-1.051-3.999-2.332-.896-5.644-.949-37.328,0-42.737l3.999-2.915c4.009-5.634,5.355-13.316,4.038-23.044,1.188-3.221,3.841-5.057,7.957-5.51l.04-18.482c4.454-3.151,7.122-5.863,8.005-8.136,4.742-4.085,9.234-8.353,13.478-12.805,8.231-6.509,8.074-9.444-.472-8.805-5.305-6.736-11.709-12.678-14.434-1.506-4.748,1.075-7.413,3.741-7.997,7.997-4.748,1.075-7.413,3.741-7.997,7.997l-6.617,2.878c1.064,10.167.493,32.952-11.996,19.429,6.549,3.295,6.264,28.116,0,31.989-.004,5.852-6.68,5.604-7.997,0,1.554.425,3.862,1.071,3.999,2.292.526,4.714.527,34.437-1.333,36.371-.647.673-1.611,1.042-2.666,1.324-.004,5.852-6.68,5.604-7.997,0,1.562.185,3.892.683,3.999,1.808.619,6.54,1.213,47.077,0,51.251l-3.999,2.923c-.004,5.852-6.68,5.604-7.997,0,1.562.185,3.892.683,3.999,1.808.619,6.54,1.213,47.077,0,51.251l-3.999,2.923c.216,3.382-1.154,4.505-4.238,3.999.956,9.587.133,19.048-3.759,27.991,5.087,2.929,5.095,5.07,0,7.997-.83,3.18-3.496,5.846-7.997,7.997,7.631,3.556,3.778,12.039-3.999,12.349,1.656,9.748-1.01,15.079-7.997,15.995,1.656,9.748-1.01,15.079-7.997,15.995,1.656,9.748-1.01,15.079-7.997,15.995,1.656,9.748-1.01,15.079-7.997,15.995,1.663,9.093-1.003,14.711-7.997,16.854,2.226,11.836-.44,19.66-7.997,23.473.535,7.184.085,13.401-7.997,15.654,1.656,9.748-1.01,15.079-7.997,15.995,1.656,9.748-1.01,15.079-7.997,15.995,1.389,9.723-2.423,22.088-11.996,11.643-9.855,9.853-28.341.377-15.994-7.997-.425,1.555-1.074,3.868-2.292,3.999-7.725.832-27.126.818-34.832,0l-2.862-3.999c-3.241.308-4.158-1.123-4.351-3.999-9.767,1.65-15.098-1.016-15.994-7.997-9.872,1.64-15.166-1.026-15.882-7.997-5.392.542-7.63-2.877-8.11-7.997-9.872,1.64-15.166-1.026-15.882-7.997-5.307.533-7.786-2.856-7.997-7.997-6.599-.478-9.265-5.809-7.997-15.995-5.313.532-7.785-2.857-7.997-7.997-5.313.532-7.785-2.857-7.997-7.997-6.599-.478-9.265-5.809-7.997-15.995-5.313.532-7.785-2.857-7.997-7.997-10.695-1.216-8.981-11.255-3.759-19.993-.048-7.972.034-16.02,0-23.992h4.998l2.999-2.999v-388.87h-7.997v-7.997h-31.989v-7.997h-23.992v-7.997h-31.989v-7.997c-10.968-.841-21.631-1.508-31.989-1.999v-5.998h-25.991v-7.997c-8.512-1.124-17.381-1.512-26.605-1.165-1.956-2.179-3.751-4.456-5.383-6.833-.101-.048.364-1.665-1-1.999-3.926-.961-21.958,1.034-22.992,0v-7.997c-7.967-.116-16.027.161-23.992,0-2.021-1.275-4.02-1.275-5.998,0l-1.999-1v-6.998h-23.992v-7.997h-31.989v-7.997h-23.992v-7.997h-31.989v-7.997h-23.992v-7.997h-31.989v-7.997h-23.992v-7.997h-31.989v-7.997c-7.967-.116-16.027.161-23.992,0-2.021-1.275-4.02-1.275-5.998,0l-1.999-1v-6.998h-23.992v-7.997c-7.967-.116-16.027.161-23.992,0-2.021-1.275-4.02-1.275-5.998,0l-1.999-1v-6.998h-23.992v-7.997h-15.994v1089.637h-7.997v7.997c-10.63-.152-21.362.209-31.989,0-2.021-1.275-4.02-1.275-5.998,0l-1.999-1113.629h-23.992v-7.997h-23.992v-7.997H7.997v-7.997H0v-39.987h15.994ZM801.718,1265.578v-5.998c-4.451.683-11.012-.975-14.995,0-1.364.334-.899,1.952-1,1.999-1.099.517-4.226-.312-5.998,0v259.913h5.998c.024-4.643-.034-9.353,0-13.995,3.858-.773,7.668,2.768,7.997-2.999.246-4.308-.17-8.699,0-12.996h7.997v-7.997h7.997c.059-3.313-.089-6.685,0-9.997l7.997,1.999c.073-2.647-.113-5.354,0-7.997s-.073-5.35,0-7.997h7.997c.059-3.314-.089-6.684,0-9.997l7.997,1.999c.073-2.646-.113-5.355,0-7.997s-.073-5.351,0-7.997h7.997v-15.995h7.997v-15.995h7.997v-15.995h7.997v-7.997h7.997v-15.995h7.997v-15.995h7.997v-7.997h7.997v-15.995h7.997v-7.997h7.997v-17.994l7.997,1.999v-7.997l-7.997,1.999c.198-.852-.107-1.789-1-1.999-3.93-.925-21.981,1.011-22.992,0v-7.997l-1-1.999h-22.992v-5.998l-7.997,5.998v-5.998h-23.992v-7.997c-1.308-3.448-7.871-1.973-10.996-1.999-4.332-.036-8.684.025-12.995,0v-7.997l-7.997,7.997ZM993.65,1757.414h-5.998v5.998h5.998v-5.998Z"/>
      <path class="e" d="M319.887,567.811c10.408-4.04,22.279-3.49,33.43-2.6l3.363,8.598,58.314.09c2.712,1.475,4.757,4.111,6.134,7.907l49.887.094c2.877,1.095,4.752,3.73,5.622,7.903l58.314.09c5.105,1.831,6.241,7.399,3.858,11.906.192-1.556.644-3.824,1.813-3.999,11.013-1.649,46.664-1.275,58.23,0l2.935,3.999c5.852.004,5.604,6.68,0,7.997.003-1.035.116-1.99.61-2.666,1.558-2.132,46.105-1.811,52.448-1.333l2.922,3.999c5.852.004,5.604,6.68,0,7.997.184-1.559.668-3.883,1.791-3.999,11.795-1.216,48.264-1.75,59.285,0l2.901,3.999c5.852.004,5.604,6.68,0,7.997,3.295-6.55,28.115-6.265,31.989,0,6.549,3.295,6.264,28.116,0,31.989.258,1.692-.195,3.051-1.53,3.999,8.755,3.165,7.331,15.752-2.469,16.559v14.177c14.179,1.957,8.878,36.19-3.999,21.247,1.538.164,3.453.496,3.999,1.791,1.151,2.732.498,52.497,0,59.286l-3.999,2.901c-.215-5.95,7.787-5.167,11.015-.968,5.809,7.557-6.774,19.731-11.015,8.965l3.999,1.869v139.659l-3.999,2.424c-4.879,5.818-4.545,11.244-3.759,19.993,10.566-.736,10.688,21.138,2.229,23.992,7.651,2.303,7.829,13.643,0,15.995,7.955,2.351,8.101,21.415,0,23.992,8.647,3.245,7.573,15.77-2.469,16.347v6.663c10.752.975,12.202,24.832-.24,24.974,1.973,20.749.72,40.743-3.759,59.98h-31.989v-7.997h-39.986v-7.997h-31.989v-7.997h-31.989v-7.997h-33.988v-7.997h-31.989v-7.997h-39.986v-7.997h-31.989v-7.997h-7.997v-7.997h-7.997v-15.995h-7.997v-23.992h-7.997v-23.992h-7.997v-23.992h-7.997v-23.992h-7.997v-23.992h-7.997c-.073-2.644.113-5.356,0-7.997s.073-5.353,0-7.997h-7.997v-23.992h-7.997v-23.992h-7.997v-23.992h-7.997v-23.992h-7.997v-23.992h-7.997v-23.992h-7.997v-23.992h-7.997v-23.992h-7.997v-23.992h-7.997v-23.992h-7.997v-23.992h-7.997v-23.992h-7.997v-25.991h7.997v-15.995c5.309-.022,10.685.032,15.994,0Z"/>
      <path class="h" d="M535.812,2123.292c3.24-.256,4.256,1.047,4.238,3.999,8.221.004,11.047,8.482,3.759,11.996,3.53,2.026,6.196,4.692,7.997,7.997,5.074,2.936,5.062,5.06,0,7.997,2.067,3.491,4.733,3.491,7.997,0,.158-2.914,1.364-4.084,3.999-4.238.96-10.407,12.343-9.702,19.993-3.759,3.246-3.085,6.578-5.751,9.996-7.997,12.358-5.145,27.694-5.113,41.192-3.962,7.442.635,10.152.913,11.354,7.961,13.481-2.386,21.37.279,23.667,7.997,5.314-.532,7.786,2.861,7.997,7.997,5.314-.532,7.786,2.861,7.997,7.997,6.124-.613,9.543,7.016,11.756,11.996,4.998,10.232,8.253,26.714-3.999,28.23.557,7.876-9.533,11.368-11.996,3.759,1.559.428,3.843,1.078,3.999,2.332.632,5.094.94,39.034,0,42.737l-3.999,2.915c.004-5.852,6.68-5.604,7.997,0,6.549,3.295,6.264,28.116,0,31.989.004-5.852,6.68-5.604,7.997,0l3.999,2.249c1.364,9.209,1.203,33.659-3.999,39.737,3.508-9.876,7.79-13.167,19.665-12.324.911-6.039,6.304-8.723,16.181-8.053.473-5.791,1.562-9.564,8.139-9.852-.533-5.307,2.856-7.786,7.997-7.997.477-6.599,5.808-9.264,15.994-7.997-.532-5.313,2.857-7.785,7.997-7.997.47-6.596,5.801-9.262,15.994-7.997-.532-5.313,2.857-7.785,7.997-7.997-.532-5.313,2.857-7.785,7.997-7.997.477-6.599,5.808-9.264,15.994-7.997-.532-5.313,2.857-7.785,7.997-7.997-.532-5.313,2.857-7.785,7.997-7.997-.532-5.313,2.857-7.785,7.997-7.997,1.217-10.696,11.257-8.981,19.993-3.759,10.504-5.573,21.51-5.647,31.989,0,3.186.614,5.851,3.279,7.997,7.997,2.937-5.062,5.062-5.074,7.997,0,3.18.83,5.846,3.496,7.997,7.997,3.538-7.637,12.204-3.761,12.236,3.999,5.313-.532,7.785,2.858,7.997,7.997,4.675.744,8.594,4.743,11.756,11.996,3.481,1.227,6.147,3.893,7.997,7.997,6.851,3.136,10.93,7.135,12.236,11.996,5.313-.532,7.785,2.859,7.997,7.997,6.598.475,9.264,5.806,7.997,15.995,10.412.965,9.7,12.341,3.759,19.993,5.029,8.27,12.559,8.491,16.668,1,2.831.465,5.273.132,7.323-1-8.121-1.428-3.497-9.299,3.999-10.996-.761-8.808,7.85-12.853,11.996-4.998,1.882-3.244,4.684-6.058,7.997-7.997,1.939-3.313,4.753-6.115,7.997-7.997,1.939-3.313,4.753-6.115,7.997-7.997,2.028-3.529,4.693-6.195,7.997-7.997,2.93-5.088,5.064-5.075,7.997,0-.061,39.627.045,79.311,0,118.96l2.999,2.999h4.998v15.995h-7.997v31.989h-15.994v7.997h-15.994v7.997h-15.994v7.997h-15.994v7.997h-15.994v7.997h-15.994v7.997h-15.994v7.997h-15.994v7.997h-15.994v7.997h-15.994v7.997h-15.994v7.997h-23.992v7.997h-23.992v7.997h-39.986v7.997h-63.977v7.997h-63.977v-7.997h-55.98v-7.997h-23.992v-7.997h-25.991v-7.997h-15.994v-7.997h-7.997v-7.997h-15.994v-7.997h-7.997c.134-10.633-.184-21.358,0-31.989-10.454-7.117,3.43-18.207,7.997-7.997-1.553-.426-3.848-1.063-3.999-2.292-.418-3.42-.837-33.306,0-34.833s2.396-2.344,3.999-2.862c4.195-5.463,5.411-12.794,3.646-21.993-9.561,1.669-14.963-.997-16.206-7.997-13.397,2.389-21.324-.277-23.78-7.997-9.873,1.64-15.167-1.026-15.882-7.997-5.307.533-7.786-2.855-7.997-7.997-5.312.532-7.785-2.856-7.997-7.997-5.312.532-7.785-2.856-7.997-7.997-6.598-.476-9.264-5.807-7.997-15.995-6.596-.469-9.262-5.8-7.997-15.995-6.596-.469-9.262-5.8-7.997-15.995-9.622,1.392-11.178-17.251-3.759-19.993v-15.995h7.997v-23.992h7.997v-15.995h7.997v-15.995h7.997v-15.995h7.997v-7.997h7.997v-15.995h7.997v-7.997h7.997v-7.997h7.997v-7.997h7.997v-7.997h7.997v-7.997h7.997c.17-4.294-.246-8.688,0-12.996.329-5.767,4.136-2.227,7.997-2.999Z"/>
      <path class="k" d="M985.653,1787.404l7.997,2.999v4.998h7.997v7.997h7.997v7.997h7.997v7.997h15.994v7.997h7.997v7.997h23.992v7.997h95.966v-7.997h23.992v-7.997h23.992v-7.997c2.645-.073,5.356.113,7.997,0-.099,7.972.138,16.022,0,23.992-.613,3.186-3.279,5.851-7.997,7.997-.092,5.306.064,10.688,0,15.995h-7.997v23.992h-7.997v23.992h-7.997c-.022,5.309.032,10.686,0,15.995-4.211,5.219-5.55,12.604-4.016,22.157-.59,4.498-4.11,5.499-7.98,6.398,2.389,13.395-.277,21.322-7.997,23.781,1.672,9.551-.994,14.953-7.997,16.206,2.403,13.918-.343,21.728-8.237,23.428.744,6.896-1.181,13.563-3.759,19.993-3.859.773-7.668-2.768-7.997,2.999-.246,4.308.17,8.7,0,12.996h-7.997c-.064,5.31.092,10.686,0,15.995-.613,3.185-3.279,5.851-7.997,7.997-.092,5.309.064,10.685,0,15.995h-7.997c-.064,5.31.092,10.686,0,15.995-.613,3.185-3.279,5.851-7.997,7.997-.092,5.309.064,10.685,0,15.995h-7.997v15.995h-7.997c-.108,5.972.153,12.024,0,17.994-.77,2.396-2.77,4.395-5.998,5.998-.048.101-1.666-.364-1.999,1-.745,3.045.828,14.167,0,14.995h-7.997c-.03,26.629.041,53.345,0,79.973-2.649.044-5.349-.068-7.997,0-2.083,3.382-4.748,6.048-7.997,7.997-1.882,3.244-4.685,6.058-7.997,7.997-1.939,3.313-4.753,6.115-7.997,7.997-2.028,3.53-4.693,6.195-7.997,7.997-2.643.113-5.351-.073-7.997,0v9.997h-7.997v5.998c-3.749,1.529-17.003,6.542-21.278,3.999-1.466-.872-2.216-2.431-2.713-3.999-.066-5.31.047-10.684,0-15.995h-7.997v-15.995h-7.997v-7.997h-7.997v-7.997h-7.997c-.073-2.646.113-5.355,0-7.997-3.313-1.939-6.115-4.753-7.997-7.997-2.643-.113-5.351.073-7.997,0v-7.997h-7.997v-7.997h-7.997v-7.997c-2.646-.073-5.355.113-7.997,0-3.186-.614-5.851-3.279-7.997-7.997-2.65-.056-5.348.056-7.997,0-3.185-.613-5.851-3.279-7.997-7.997-10.62-.184-21.366-.063-31.989,0-5.675-3.157-1.249-10.35,3.999-12.236-.532-5.313,2.857-7.785,7.997-7.997-.532-5.313,2.857-7.785,7.997-7.997-.532-5.313,2.857-7.785,7.997-7.997-.532-5.313,2.857-7.785,7.997-7.997-.532-5.313,2.857-7.785,7.997-7.997-.542-5.392,2.877-7.63,7.997-8.11-2.118-10.113,4.318-22.713,11.996-11.643-6.549-3.295-6.264-28.116,0-31.989.004-5.852,6.68-5.604,7.997,0-1.557-.428-3.795-1.051-3.999-2.332-.896-5.644-.949-37.328,0-42.737l3.999-2.915c.004-5.852,6.68-5.604,7.997,0-1.557-.428-3.795-1.051-3.999-2.332-.896-5.644-.949-37.328,0-42.737l3.999-2.915c.004-5.852,6.68-5.604,7.997,0-1.564-.182-3.913-.696-3.999-1.808-.501-6.478-.631-50.735,1.333-52.83.639-.682,1.605-1.056,2.666-1.343.004-5.852,6.68-5.604,7.997,0-1.56-.428-3.849-1.081-3.999-2.332-.584-4.877-.893-39.472,0-42.737l3.999-2.915c.004-5.852,6.68-5.604,7.997,0-1.559-.188-3.869-.669-3.999-1.808-.971-8.502-1.442-43.693,0-51.251l3.999-2.923c.004-5.852,6.68-5.604,7.997,0-1.559-.188-3.869-.669-3.999-1.808-.971-8.502-1.442-43.693,0-51.251l3.999-2.923c3.187-4.652,5.571-8.639,7.997-15.995Z"/>
      <path class="k" d="M1611.433,383.872c3.907,3.213,3.911,6.788,0,9.997-.004,5.852-6.68,5.604-7.997,0-10.29-8.399,2.503-20.63,7.997-9.997Z"/>
      <path class="k" d="M1675.411,289.903v4.998l2.999,2.999h28.99v4.998l2.999,2.999h44.984v4.998l2.999,2.999c7.657.14,15.361-.195,22.992,0,2.519.465,4.519,3.131,5.998,7.997,13.777-5.817,17.533,9.493,3.999,12.236.532,5.313-2.857,7.785-7.997,7.997.532,5.313-2.857,7.785-7.997,7.997.532,5.313-2.857,7.785-7.997,7.997.532,5.313-2.857,7.785-7.997,7.997.532,5.313-2.857,7.785-7.997,7.997.542,5.391-2.877,7.63-7.997,8.11,1.64,9.873-1.026,15.167-7.997,15.882.542,5.391-2.877,7.63-7.997,8.11,1.656,9.747-1.01,15.079-7.997,15.995,1.671,9.554-.995,14.956-7.997,16.206,2.389,13.397-.277,21.324-7.997,23.781,1.671,9.554-.995,14.956-7.997,16.206,2.393,13.234-.273,21.231-7.997,23.992,2.393,13.234-.273,21.231-7.997,23.992,1.064,10.166.493,32.952-11.996,19.429,1.554.425,3.862,1.071,3.999,2.292.526,4.714.526,34.437-1.333,36.371-.647.673-1.611,1.042-2.666,1.324.213,3.401-1.171,4.504-4.238,3.999.883,14.764-.787,29.476-3.759,43.985,3.895,2.523,3.898,5.476,0,7.997-.062,21.298.036,42.681,0,63.979-3.188,4.652-5.57,8.639-7.997,15.995,3.9,5.256,3.919,10.749,0,15.995-.072,42.622.054,85.336,0,127.957h-7.997v-7.997h-15.994v-7.997h-15.994v-7.997c-5.308-.064-10.688.092-15.994,0-3.185-.613-5.851-3.279-7.997-7.997-7.969-.138-16.021.099-23.992,0v-7.997c-10.634-.134-21.357.184-31.989,0-3.185-.613-5.851-3.279-7.997-7.997-13.295-.23-26.691.23-39.986,0-3.186-.613-5.851-3.279-7.997-7.997-21.283-.369-42.691.272-63.977,0-.023-39.956.032-80.004,0-119.96,3.872-7.476,10.175-2.681,12.348,3.999l7.645-.24c-.532-5.313,2.857-7.785,7.997-7.997-.532-5.313,2.857-7.785,7.997-7.997-.532-5.313,2.857-7.785,7.997-7.997-.532-5.313,2.857-7.785,7.997-7.997-.532-5.313,2.857-7.785,7.997-7.997-.542-5.392,2.877-7.63,7.997-8.11-1.64-9.872,1.026-15.166,7.997-15.882-.532-5.313,2.857-7.785,7.997-7.997-.532-5.313,2.857-7.785,7.997-7.997-.542-5.392,2.877-7.63,7.997-8.11-1.64-9.872,1.026-15.166,7.997-15.882-.542-5.392,2.877-7.63,7.997-8.11-1.64-9.872,1.026-15.166,7.997-15.882-.542-5.392,2.877-7.63,7.997-8.11-1.656-9.747,1.01-15.078,7.997-15.995-1.656-9.747,1.01-15.078,7.997-15.995-1.656-9.747,1.01-15.078,7.997-15.995-1.656-9.747,1.01-15.078,7.997-15.995-1.656-9.747,1.01-15.078,7.997-15.995-1.671-9.553.994-14.955,7.997-16.206-2.393-13.233.273-21.23,7.997-23.992-2.4-13.919.346-21.728,8.237-23.428-.741-6.938,1.199-13.624,3.759-19.993-.174-2.937,1.785-3.75,4-4.563-1.055-10.165-.489-32.953,11.995-19.429-6.549-3.295-6.264-28.116,0-31.989.004-5.852,6.68-5.604,7.997,0-6.549-3.295-6.264-28.116,0-31.989-.219-3.361,1.136-4.507,4.238-3.999-1.349-6.493-.096-10.492,3.759-11.996.906-5.174,6.373-5.821,8.005-1,8.198-.598,16.192-.265,23.984,1Z"/>
      <path class="k" d="M721.746,1659.447c.032,5.309-.022,10.685,0,15.995h7.997v7.997h7.997v15.995h7.997v7.997h7.997v7.997h7.997v15.995h7.997v7.997h7.997v7.997h15.994v7.997h7.997v7.997h15.994v7.997h15.994v7.997h39.986v7.997c5.308-.064,10.688.092,15.994,0,7.374,2.532,5.602,20.886-3.999,20.346,1.656,9.748-1.01,15.079-7.997,15.995l-.041,10.723c-3.852,3.649-7.837,7.288-11.955,10.917-.77,2.396-2.77,4.395-5.998,5.998,2.706,4.456,3.888,11.213-5.998,12.349,1.656,9.748-1.01,15.08-7.997,15.995,1.656,9.748-1.01,15.08-7.997,15.995,1.656,9.748-1.01,15.08-7.997,15.995,1.656,9.748-1.01,15.08-7.997,15.995,1.656,9.748-1.01,15.08-7.997,15.995,1.649,9.769-1.017,15.1-7.997,15.995l-.041,10.723c-3.852,3.649-7.837,7.288-11.955,10.917-.77,2.396-2.77,4.395-5.998,5.998,2.704,4.454,3.89,11.213-5.998,12.349,1.656,9.747-1.01,15.079-7.997,15.995,1.656,9.747-1.01,15.079-7.997,15.995,1.656,9.747-1.01,15.079-7.997,15.995,1.656,9.747-1.01,15.079-7.997,15.995,1.656,9.747-1.01,15.079-7.997,15.995,1.656,9.747-1.01,15.079-7.997,15.995,1.64,9.873-1.026,15.167-7.997,15.882.571,5.524-2.917,7.344-7.997,8.321,2.389,13.397-.277,21.324-7.997,23.781,1.626,10.276-1.12,15.49-8.237,15.642,1.026,7.052-.177,13.775-3.759,19.993l-7.997-2.999v-4.998h-7.997v-7.997h-7.997v-7.997h-7.997v-7.997h-23.992v-7.997c-15.964.147-32.02-.2-47.983,0-3.246,3.085-6.578,5.751-9.996,7.997-5.31.066-10.684-.047-15.994,0v7.997c-.283.283-6.106,0-7.997,0-.004,5.852-6.68,5.604-7.997,0-.056-2.65.056-5.348,0-7.997-3.568-2.087-6.234-4.753-7.997-7.997-.113-2.642.073-5.352,0-7.997h-7.997v-7.997c0-1.89-.283-7.715,0-7.997h7.997v-7.997h7.997v-7.997h7.997v-15.995h7.997v-7.997h7.997v-15.995h7.997v-15.995h9.996v-15.995h7.997v-23.992h7.997v-23.992h7.997v-23.992h7.997v-31.989h7.997v-23.992h7.997v-31.989h7.997v-23.992h7.997v-31.989h7.997v-23.992h7.997v-23.992h7.997c.108-5.971-.153-12.025,0-17.994,2.51-1.627,4.509-3.627,5.998-5.998,3.282-4.722,1.706-10.305,1.999-15.995h4.998l2.999-2.999v-20.993h4.998l2.999-2.999v-20.993c10.146,1.018,7.57-5.503,7.997-12.996.329-5.767,4.137-2.227,7.997-2.999Z"/>
      <path class="d" d="M1201.577,239.92c-.034-4.644.024-9.351,0-13.995h-4.998l-2.999-2.999v-115.961l2.999-2.999h4.998v-12.996l2.999-2.999h4.998v-12.996l2.999-2.999h4.998v-4.998l2.999-2.999h4.998v-7.997h7.997v-7.997h7.997v-7.997h15.994v-7.997h15.994v-7.997h15.994v-7.997h17.994v-7.997h23.992V0h87.969v7.997h15.994v7.997h15.994v7.997h15.994v7.997h15.994v7.997h7.997v7.997h7.997v7.997h7.997v7.997h4.998l2.999,2.999v4.998h4.998l2.999,2.999v4.998h4.998l2.999,2.999v4.998h4.998l2.999,2.999v12.996h4.998l2.999,2.999v4.998h4.998l2.999,2.999v12.996h4.998l2.999,2.999v20.993h4.998l2.999,2.999v20.993h4.998l2.999,2.999v36.988h4.998l2.999,2.999v36.988h4.998l2.999,2.999c.06,4.331-.087,8.688,0,12.996,6.406,2.166,6.954,24.297,0,25.991.434,3.303,2.049,4.433,5.454,4.131l2.543,3.866c5.899,9.98,5.729,21.943,0,31.989,2.141,5.329,4.807,9.994,7.997,13.995,5.035,10.774,4.999,21.205,0,31.989h-7.997c-.028,3.315.042,6.682,0,9.997,8.001,2.462,4.645,18.797-4.144,20.069.742,3.877-1.11,7.118-3.853,9.921-1.496,3.463-4.162,6.795-7.997,9.997,3.868,1.832,3.877,4.176,0,5.998-.004,5.852-6.68,5.604-7.997,0-3.877-1.822-3.868-4.166,0-5.998-3.903-8.769-13.837-7.792-11.975,2.663l-4.019,5.335c8.624,4.118,3.94,22.429-4.057,26.335.652,4.418-1.034,8.282-3.94,11.653-1.496,3.463-4.162,6.795-7.997,9.997,3.867,1.832,3.876,4.176,0,5.998-1.496,3.462-4.162,6.795-7.997,9.997,3.867,1.832,3.876,4.176,0,5.998-.004,5.852-6.68,5.604-7.997,0-6.76-16.655-6.6-53.553,7.997-37.987l-3.999-1.846v-107.724l3.999-2.393c-.004,5.852-6.68,5.604-7.997,0l-3.999-2.292v-34.833l3.999-2.862c-.004,5.852-6.68,5.604-7.997,0-6.549-3.295-6.264-28.116,0-31.989.106,6.281-8.923,5.075-11.478.157l-.757-20.15c-4.43.323-7.305-1.593-7.757-6.181l-.24-17.811c-8.12.231-11.037-7.963-3.759-11.996-7.696-1.074-4.388-12.215,3.67-12.324-1.161-9.452,1.614-14.942,8.325-16.472v-54.903c-5.497-.092-8.034-2.855-8.237-8.27-7.907.544-11.348-9.557-3.759-11.996-10.111-1.141-20.482-1.474-31.115-1-5.164,4.782-10.787,10.447-16.869,16.994,5.972,9.064,6.213,23.164,0,31.989-.013,1.369-.13,2.476-.61,2.666-3.389,1.343-51.943,2.613-54.334,1.297-3.833-2.109-5.031-3.487-5.387-7.962-9.872,1.64-15.166-1.026-15.882-7.997-5.307.533-7.786-2.856-7.997-7.997-5.313.532-7.785-2.857-7.997-7.997-5.313.532-7.785-2.857-7.997-7.997-5.313.532-7.785-2.857-7.997-7.997-5.313.532-7.785-2.857-7.997-7.997-5.313.532-7.785-2.857-7.997-7.997-6.599-.477-9.264-5.809-7.997-15.995-5.313.532-7.785-2.857-7.997-7.997.806,8.849-1.021,17.558-3.759,25.991,2.942,12.468,4.301,25.186,4.238,37.987,11.466-.519,11.344,30.827-.24,31.942-1.919,6.926-7.917,9.687-17.993,8.285.533,5.215-2.684,7.595-7.72,8.057-.297,8-9.471,11.652-12.272,3.699-2.638-6.676-6.448-12.473-11.431-17.392l-.565-17.384c-3.034-1.665-5.512-3.869-7.435-6.612l-.562-34.467c-4.676-.931-6.782-2.711-3.999-7.117-1.53-.167-3.428-.485-3.999-1.765-.845-1.896-1.524-35.428,3.999-35.222-.217-3.375,1.149-4.506,4.238-3.999-1.81-11.112-.557-21.109,3.759-29.99q4.878-7.511,0,0c-3.455,4.997-5.246,11.548-5.372,19.651l-6.624,2.905c2.404,13.913-.341,21.722-8.237,23.428.034,32.015.092,64.061.171,96.137,2.206-.669,3.232,1.492,4.067,3.829,3.66,5.542,5.102,12.097,4.327,19.665,15.51,5.882,6.811,19.337-8.325,16.563.065,4.896-3.933,8.149-11.996,9.757-8.227,14.425-20.934,19.71-19.927-3.279-2.078-.897-3.484-2.458-4.064-4.718Z"/>
      <path class="d" d="M323.886,561.813c6.219-.308,31.347,1.242,33.988,0l4.421.401c.714,3.168,5.239,3.034,13.573-.401-.452,3.723-.082,5.795,2.999,7.997h60.979v4.998l2.999,2.999h52.981v5.998c1.011,1.47,2.289,1.739,3.999,1.999h41.985l4.421.401c.76,3.148,5.284,3.014,13.573-.401v5.998c1.011,1.47,2.289,1.739,3.999,1.999h41.985l4.29-.361c.859,4.583,6.093,4.703,15.703.361v5.998h55.98v7.997l1.999,1.999h41.985l4.29-.361c.859,4.583,6.093,4.703,15.703.361v5.998h46.983c1.364.334.899,1.952,1,1.999,3.044,1.507,5.71,1.507,7.997,0,.101-.048-.364-1.666,1-1.999,1.937-.474,4.794.3,6.998,0v9.997c15.96.203,32.026-.276,47.983,0,3.185.613,5.851,3.279,7.997,7.997,15.954.276,32.024-.086,47.983,0,3.044,1.507,5.71,1.507,7.997,0,2.648.056,5.349-.036,7.997,0v7.997h23.992v7.997h15.994c.064,5.309-.092,10.687,0,15.995,3.568,2.087,6.234,4.753,7.997,7.997.092,5.308-.064,10.685,0,15.995h7.997c.099,7.972-.138,16.022,0,23.992,3.568,2.088,6.234,4.753,7.997,7.997.092,5.308-.064,10.685,0,15.995h7.997c.099,7.972-.138,16.022,0,23.992,3.568,2.088,6.234,4.753,7.997,7.997.092,5.308-.064,10.686,0,15.995h7.997v23.992h7.997c.099,7.971-.138,16.022,0,23.992,3.568,2.087,6.234,4.753,7.997,7.997.092,5.307-.064,10.687,0,15.995h7.997v23.992h7.997c.05,5.309-.071,10.687,0,15.995s-.05,10.686,0,15.995h7.997v23.992h7.997v23.992h7.997v23.992h7.997c.03,2.648-.046,5.349,0,7.997l4.009,6.404c-.78,3.531,1.71,6.676,7.469,9.434l.757,20.15c3.231-.22,6.062.659,7.24,3.842l.757,20.15c3.231-.22,6.062.659,7.24,3.842l.757,20.15c3.231-.22,6.062.659,7.24,3.842l.757,20.15c3.231-.22,6.062.659,7.24,3.842l.757,20.15c3.231-.22,6.062.659,7.24,3.842-1.636,20.198,2.535,25.582,12.513,16.151l2.292-3.999h34.832l2.862,3.999c-5.852-.004-5.604-6.68,0-7.997l2.292-3.999h34.832l2.862,3.999c-5.852-.004-5.604-6.68,0-7.997l2.292-3.999h34.832l2.862,3.999c-5.852-.004-5.604-6.68,0-7.997.417-1.549,1.04-3.852,2.249-3.999,3.607-.437,35.24-.751,36.927,0,1.488.663,2.218,2.428,2.81,3.999-5.852-.004-5.604-6.68,0-7.997l2.292-3.999h34.832l2.862,3.999c-5.852-.004-5.604-6.68,0-7.997l2.292-3.999h34.832l2.862,3.999c-5.852-.004-5.604-6.68,0-7.997l2.292-3.999h34.832l2.862,3.999c-15.998-11.471,18.203-17.38,23.992-7.997.079,13.301-.058,26.686,0,39.987h-23.992v7.997h-31.989v7.997h-39.986v7.997h-31.989v7.997h-41.985v7.997h-31.989v7.997h-31.989v7.997h-39.986v9.997h-31.989v7.997h-31.989v-7.997h7.997v-17.994h-7.997v-23.992h-7.997v-23.992h-7.997v-23.992h-7.997v-23.992h-7.997v-23.992h-7.997v-23.992h-7.997v-23.992h-7.997v-23.992h-7.997v-23.992h-7.997v-23.992h-7.997v-23.992h-7.997v-23.992h-7.997v-23.992h-7.997v-23.992h-7.997v-23.992h-7.997v-23.992h-7.997v-23.992h-7.997v-23.992h-7.997v-23.992h-7.997v-23.992h-7.997v-23.992h-7.997v-15.995h-15.994v-7.997h-31.989v-7.997h-63.977v-7.997h-15.994v23.992h-7.997v7.997h7.997v31.989h-7.997v39.987h7.997v7.997h-7.997v199.933h-7.997v7.997h7.997v47.984h-7.997v15.995h7.997v23.992h-7.997v31.989h7.997v7.997h-7.997v15.995h7.997v7.997h-7.997v31.989h-31.989v-7.997h-31.989c-.03-2.648.046-5.35,0-7.997-.369-21.285.272-42.69,0-63.979h7.997v-15.995h-7.997v-15.995h7.997v-7.997h-7.997v-7.997h7.997v-15.995h-7.997v-7.997h7.997v-7.997h-7.997v-7.997h7.997v-15.995h-7.997v-23.992h7.997v-143.952h7.997v-7.997h-7.997v-63.979h7.997v-15.995h-7.997v-23.992h7.997v-7.997h-7.997v-7.997h7.997v-31.989h-31.989v-7.997h-63.977v-7.997h-55.98v-7.997h-62.978l-2.999-2.999v-4.998h-60.979l-2.999-2.999v-4.998h-52.981l-2.999-2.999v-4.998h-60.979c-3.815-2.536-3.149-5.71-2.999-9.997-10.636.046-21.353-.063-31.989,0v-4.998c.3-1.291,1.282-.82,1.999-1,.633-1.264,1.3-1.252,1.999,0Z"/>
      <path class="e" d="M1995.298,1219.593c5.302-.136,10.691.095,15.994,0v-7.997h17.994c.013,66.612-.018,133.322,0,199.933-1.628,3.955-6.293,5.368-13.995,4.238.532,5.313-2.857,7.785-7.997,7.997-.47,6.597-5.802,9.262-15.994,7.997-.47,6.597-5.802,9.262-15.994,7.997-.47,6.597-5.802,9.262-15.994,7.997-.47,6.597-5.802,9.262-15.994,7.997-.47,6.597-5.802,9.262-15.994,7.997-.47,6.597-5.802,9.262-15.994,7.997-.47,6.597-5.802,9.262-15.994,7.997-.47,6.597-5.802,9.262-15.994,7.997-.47,6.597-5.802,9.262-15.994,7.997-.47,6.597-5.802,9.262-15.994,7.997-.47,6.597-5.802,9.262-15.994,7.997-.47,6.597-5.802,9.262-15.994,7.997-.47,6.597-5.802,9.262-15.994,7.997-.47,6.597-5.802,9.262-15.994,7.997-.47,6.597-5.802,9.262-15.994,7.997-.47,6.597-5.802,9.262-15.994,7.997-.477,6.599-5.809,9.265-15.994,7.997-.47,6.597-5.802,9.262-15.994,7.997-.47,6.597-5.802,9.262-15.994,7.997.22,3.231-.658,6.062-3.842,7.24l-20.15.757c-.345,6.685-5.349,9.271-15.012,7.758-4.214,7.541-12.134,10.207-23.761,7.997-4.791,7.647-13.229,10.313-25.313,7.997.604,20.112.423,40.231-3.89,59.98,7.997-3.997,17.217-5.439,27.662-4.327-.055-10.413,24.439-10.506,28.318-3.67-2.206,127.342,0,258.574,1.999,383.872,3.372,8.089,4.375,17.467,3.008,28.132l2.989,3.857c.549,83.266-.41,166.649,0,249.917-1.225,3.481-3.891,6.147-7.997,7.997-4.864.223-12.471.667-16.994,0-.584-.086-3.373-3.524-6.998-1.999v-5.998h-7.997c-.09-40.621.122-81.339,0-121.959-2.363-4.782-3.389-9.804-2.946-15.088.859,9.038-.825,11.401-5.051,7.091-1.651-71.844,2.212-144.12,0-215.928-1.724-4.36-3.724-4.36-5.998,0-3.442-1.3-1.979-7.873-1.999-10.996-.442-68.283,1.011-136.687,0-204.932-2.629-2.622-5.295-5.288-7.997-7.997.05-29.294-.068-58.677,0-87.971-5.718-.109-13.886.899-18.993,0-.783-.138-1.787-3.098-4.998-1.999v-5.998h-23.992v-7.997h-23.992v-7.997h-23.992v-7.997h-23.992v-7.997h-23.992v-7.997h-15.994c.007-23.962-.005-48.014,0-71.976,15.172-1.198,30.495-1.487,45.971-.868l10.009-7.13,2.155-3.994,27.254.34,2.58,3.654c7.54,6.175,19.666,7.488,23.889-3.527l27.764-.8c.502-4.355,1.759-7.315,6.561-7.669l25.428-.328c2.673-7.276,10.67-9.942,23.992-7.997.149-3.648,1.549-6.045,4.2-7.188l20.12-.72c-.22-3.232.659-6.062,3.842-7.24l20.15-.757c-.22-3.232.659-6.062,3.842-7.24l20.15-.757c.476-6.598,5.807-9.264,15.994-7.997-.22-3.232.659-6.062,3.842-7.24l20.15-.757c.476-6.598,5.807-9.264,15.994-7.997-.22-3.232.659-6.062,3.842-7.24l20.15-.757c.469-6.596,5.8-9.262,15.994-7.997.476-6.598,5.807-9.264,15.994-7.997.469-6.596,5.8-9.262,15.994-7.997.469-6.596,5.8-9.262,15.994-7.997-.22-3.232.659-6.062,3.842-7.24l20.15-.757c-.532-5.312,2.856-7.785,7.997-7.997.469-6.596,5.8-9.262,15.994-7.997.469-6.596,5.8-9.262,15.994-7.997.469-6.596,5.8-9.262,15.994-7.997-.532-5.312,2.856-7.785,7.997-7.997-.542-5.391,2.876-7.63,7.997-8.11-1.64-9.873,1.026-15.167,7.997-15.882-.571-5.524,2.917-7.344,7.997-8.321-1.064-10.168-.493-32.951,11.996-19.429-6.549-3.295-6.264-28.116,0-31.989-.339-2.308.994-4.006,3.999-5.096l.097-68.073c.281-3.817,1.582-6.085,3.902-6.804Z"/>
      <path class="d" d="M1891.335,463.845h15.994v7.997h39.986v7.997h23.992v7.997h22.992l1,1.999c.315,6.549-10.633,4.35-3.999,1.53.196,2.376,1.948,4.694,3.999,4.468,2.547-1.198,12.152.848,15.994,0v7.997c4.287-.15,7.46-.817,9.996,2.999v4.998h15.994v7.997h7.997v7.997h4.998l2.999,2.999v4.998h4.998l2.999,2.999v4.998h4.998l2.999,2.999v4.998c7.537-.707,7.562,1.745,7.997,7.997,3.128,2.843,5.793,6.175,7.997,9.997v5.998h4.998l2.999,2.999v4.998h4.998l2.999,2.999v12.996c10.581-1.346,7.894,7.902,7.997,15.995,3.085,3.246,5.75,6.578,7.997,9.997.066,5.31-.047,10.684,0,15.995h7.997c.099,7.971-.138,16.022,0,23.992,3.568,2.088,6.234,4.753,7.997,7.997v447.851c-5.307-.092-10.686.064-15.994,0v-7.997h-31.989v-7.997c-2.649-.03-5.349.046-7.997,0l-3.999-1.403v-432.966c-1.394-1.348-2.727-3.176-3.999-5.484-6.549-3.295-6.264-28.116,0-31.989-8.163,12.163-13.854-3.174-12.324-13.667-6.454-1.04-9.12-6.372-7.997-15.995-6.454-1.04-9.12-6.372-7.997-15.995-5.331-.356-7.438-2.686-7.997-7.997-6.454-1.04-9.12-6.372-7.997-15.995-5.564-.51-7.379-2.739-7.812-8.117-5.838-.419-9.819-1.427-10.093-8.206-5.307.533-7.786-2.855-7.997-7.997-5.384.54-7.624-2.856-8.11-7.997-9.874,1.639-15.168-1.026-15.882-7.997-5.391.542-7.63-2.876-8.11-7.997-9.749,1.656-15.08-1.01-15.994-7.997-9.749,1.656-15.08-1.01-15.994-7.997-9.555,1.671-14.957-.995-16.206-7.997-9.373,1.663-15.85.33-19.429-3.999-.051-1.984.03-4.013,0-5.998h-7.997c.377-2.808-.569-6.458,0-8.997,1.258-5.617.669-3.248,0-8.997Z"/>
      <path class="d" d="M2029.286,1411.529c.006,20.631-.007,41.349,0,61.979-3.079,3.957-6.157,7.955-9.233,11.996l-12.431.328c-.467,6.799-7.956,10.414-12.324,5.67-2.425.431-5.428-.278-7.997,0v7.997h-15.994v7.997h-15.994v7.997h-15.994v7.997h-15.994v7.997h-15.994v7.997h-15.994v7.997h-15.994v7.997h-15.994v7.997h-15.994v7.997h-15.994v7.997h-15.994v7.997h-15.994v7.997h-15.994v7.997h-15.994v7.997h-15.994v7.997h-15.994v7.997h-15.994v7.997h-15.994v7.997h-15.994v7.997h-15.994c-.03,2.648.046,5.35,0,7.997h-23.992v4.998l-2.999,2.999c-9.657-.132-19.357.183-28.99,0,.049-21.298-.036-42.681,0-63.979h20.993l2.999-2.999v-4.998h20.993l2.999-2.999v-4.998h15.994v-7.997h23.992v-7.997h15.994v-7.997h15.994v-7.997h15.994v-7.997h15.994v-7.997h15.994v-7.997h15.994v-7.997h15.994v-7.997h15.994v-7.997h15.994v-7.997h15.994v-7.997h15.994v-7.997h15.994v-7.997h15.994v-7.997h15.994v-7.997h15.994v-7.997h15.994v-7.997h15.994v-7.997h15.994v-7.997h15.994v-7.997h7.997v-7.997h17.994Z"/>
      <path class="e" d="M2029.286,1473.509c.076,211.229-.117,422.56,0,633.789h-17.994v-7.997h-7.997v-311.896h-7.997v-295.901c2.264-.403,4.198-3.281,7.997-1.999v-4.998l2.999-2.999h14.995c-.796-9.123-.449-8.608,7.997-7.997Z"/>
      <path class="e" d="M1201.577,239.92c3.858.773,7.668-2.768,7.997,2.999.246,4.308-.17,8.699,0,12.996h7.997c-.869-6.094,1.841-8.868,7.997-7.997,3.551,3.473,4.964,8.138,4.238,13.995,6.787.526,9.376,5.861,7.766,16.002l3.99,3.991c5.769.153,5.408,4.688,0,5.998,5.104,9.614,7.277,20.785-3.999,22.345,1.67,9.558-.996,14.96-7.997,16.206,1.063,10.157.497,32.953-11.996,19.429,1.555.425,3.867,1.074,3.999,2.292.832,7.725.818,27.126,0,34.833l-3.999,2.862c6.668-11.471,14.177,1.367,12.236,11.996,5.384-.54,7.624,2.857,8.11,7.997,9.748-1.656,15.079,1.01,15.994,7.997,9.554-1.671,14.956.995,16.206,7.997,13.237-2.393,21.233.273,23.988,7.997h18.729c8.764-1.002,8.125,34.133,6.701,39.698-4.248,6.564-8.246,13.325-11.996,20.282l-9.996,1v22.992h-7.997v23.992h-7.997v-7.997h-7.997v-7.997h-7.997v-7.997h-7.997v-7.997h-7.997v-7.997h-7.997v-15.995h-7.997v-7.997h-7.997v-23.992h-7.997v-31.989h-7.997v-71.976h-7.997c-.022-26.63.03-53.343,0-79.973-.01-8.638.064-17.354,0-25.991Z"/>
      <path class="j" d="M431.848,2291.236c0,2.606-.565,15.429,0,15.995h7.997v15.995h7.997v15.995h7.997v15.995h7.997v7.997h7.997v7.997h7.997v7.997h7.997v7.997h15.994v7.997h23.992v7.997h15.994v25.991h-7.997v39.987h-7.997c-.03,2.649.046,5.349,0,7.997-8.446.611-8.793,1.126-7.997-7.997h-23.992v-7.997h-15.994v-7.997h-15.994v-7.997h-7.997v-7.997h-7.997v-7.997h-7.997v-15.995h-7.997v-15.995h-7.997v-15.995h-7.997v-63.979h7.997c.311-7.61-.435-15.376,0-22.992.329-5.767,4.136-2.227,7.997-2.999Z"/>
      <path class="g" d="M1787.371,319.893h15.994v7.997h15.994v7.997c2.205.3,5.06-.474,6.998,0,1.364.333.899,1.952,1,1.999l-2.999,7.997h-4.998v7.997h-7.997v7.997h-7.997c-.073,2.647.113,5.354,0,7.997-.83,3.18-3.496,5.846-7.997,7.997-.113,2.643.073,5.351,0,7.997h-7.997v7.997h-7.997c-.073,2.647.113,5.354,0,7.997-.83,3.18-3.496,5.846-7.997,7.997-.113,2.643.073,5.351,0,7.997h-7.997v5.998c-2.289,3.795-4.955,7.128-7.997,9.997-.201,2.625.129,5.361,0,7.997h-7.997c.439,2.245-.681,6.55,0,7.997-.905,3.213-3.571,5.879-7.997,7.997-.113,2.643.073,5.351,0,7.997h-7.997v15.995h-7.997c.439,2.245-.681,6.55,0,7.997-1.156,2.773-3.821,5.439-7.997,7.997-.011,2.105-.479,6.978,0,7.997-1.156,2.773-3.821,5.439-7.997,7.997-.011,2.105-.479,6.978,0,7.997-1.156,2.773-3.821,5.439-7.997,7.997-.011,2.105-.479,6.978,0,7.997-.672,3.188-3.338,5.854-7.997,7.997-.092,5.309.064,10.685,0,15.995h-7.997c-.064,5.31.092,10.686,0,15.995-.613,3.185-3.279,5.851-7.997,7.997-.092,5.309.092,10.685,0,15.995-.613,3.185-3.279,5.851-7.997,7.997-.138,7.97.138,16.022,0,23.992-.004,5.852-6.68,5.604-7.997,0,.014-15.97-.01-32.014,0-47.984h7.997v-39.987h7.997v-23.992h7.997v-23.992h7.997v-23.992h7.997v-15.995h7.997v-23.992h7.997v-15.995h7.997v-15.995h7.997v-7.997h7.997v-15.995h7.997v-7.997h7.997v-7.997h7.997v-7.997h7.997v-7.997h7.997v-7.997h7.997v-7.997h7.997v-7.997c-2.647-.051-5.352.08-7.997,0-1.746-.568-1.72-1.235,0-1.999Z"/>
      <path class="e" d="M1395.509,1555.482v399.867h-15.994c-.539-69.266.723-138.668,0-207.931-1.067-2.113-2.044-4.253-2.706-6.487-2.223-7.5,1.999,1.293-.294,4.918-.595.941-3.386.091-4.998-.431v-157.947h-23.992v-7.997h-23.992v-7.997h-25.991v-7.997c-6.945-.283-14.038.397-20.993,0-5.766-.329-2.227-4.134-2.999-7.997,39.351-.118,83.268,2.579,121.957,0Z"/>
      <path class="d" d="M2125.252,1177.607c3.083,3.252,5.749,6.584,7.997,9.997v5.998c-3.69,3.932-3.69,7.264,0,9.997v13.995c-5.911,6.209-6.456,16.799,0,23.992-.017,13.97.012,28.016,0,41.986h-7.997v103.965h-7.997v5.998c-1.769,3.682-4.208,7.274-7.997,9.997-.252,3.624.684,5.586-2.999,7.997h-4.998v4.998l-2.999,2.999h-4.998c.869,6.094-1.842,8.868-7.997,7.997.034-79.94-.025-159.98,0-239.92h15.994v-9.997h23.992Z"/>
      <path class="e" d="M1185.583,1931.356c-.398,66.608.297,133.324,0,199.933h-7.997v7.997h-31.989c.071-31.958-.096-64.01,0-95.968.024-7.975-.017-16.017,0-23.992h7.997v-23.992h7.997v-15.995h7.997v-23.992h7.997c.283-6.945-.397-14.038,0-20.993.329-5.766,4.134-2.227,7.997-2.999Z"/>
      <path class="g" d="M1595.439,271.909h20.993l2.999,2.999v4.998c7.97.099,16.023-.138,23.992,0,5.975.147,5.514,8.922,0,9.997,0,2.606.565,15.429,0,15.995h-7.997v31.989h-7.997v31.989h-7.997v23.992c-.283.283-6.107,0-7.997,0,.011-3.32-.005-6.677,0-9.997.017-10.636.079-21.354,0-31.989-2.142-5.329-4.807-9.994-7.997-13.995-.079-10.634.184-21.359,0-31.989-3.555-2.092-6.221-4.758-7.997-7.997.796-1.692.087-21.665,0-25.991Z"/>
      <path class="g" d="M1411.504,393.869c8.976-3.584,17.477-.427,7.997,7.997,5.083,2.916,5.075,5.079,0,7.997,6.171,38.933,5.879,79,0,117.961,3.888,2.517,3.876,5.469,0,7.997,3.085,3.245,5.751,6.578,7.997,9.997,4.967,7.484,4.916,14.489,0,21.993,3.085,3.246,5.751,6.578,7.997,9.997,2.339,3.674,4.432,7.669,3.771,12.136.402-5.17,2.309-7.814,7.897-8.466.355-5.329,2.685-7.439,7.997-7.997,1.542-4.592,5.65-8.481,12.324-11.668,2.419-1.535,5.568-1.506,7.997,0,8.068,1.89,4.486,18.309-3.987,21.341.467,4.393-.187,7.939-4.011,10.649-.614,3.186-3.28,5.852-7.997,7.997,5.09,2.264,5.09,3.723,0,5.998,1.746.568,1.72,1.235,0,1.999-4.334,3.55-5.532,13.333-2.618,6.312,4.094-2.002,7.506-4.187,10.237-6.556,5.03-6.682,9.989-12.388,16.373-17.751-7.771-.901-3.901-10.044,3.67-10.325,2.271-4.797,6.379-8.686,12.324-11.668,1.495-3.617,4.417-8.045,7.997-9.997-7.788-.911-3.87-10.06,3.67-10.325.505-5.373,2.587-7.475,7.947-7.744-.379-6.241,1.08-10.215,4.377-11.921.614-3.186,3.279-5.852,7.997-7.997,1.496-3.462,4.162-6.794,7.997-9.997.029-1.986-.029-4.012,0-5.998,1.496-3.462,4.162-6.795,7.997-9.997.029-1.986-.029-4.012,0-5.998,1.496-3.462,4.162-6.794,7.997-9.997.066-5.31-.047-10.684,0-15.995h5.998c-1.525-3.625,1.913-6.414,1.999-6.998.648-4.391-.126-10.261,0-14.995-.258-3.249,1.056-4.259,4.019-4.238-.584-7.907,9.54-11.348,11.975-3.759.029,1.986-.029,4.012,0,5.998,2.542,3.643,5.455,3.643,7.997,0,.029-1.986-.029-4.012,0-5.998,1.496-3.462,4.162-6.794,7.997-9.997.06-4.645-.042-9.35,0-13.995,10.581,1.346,7.894-7.902,7.997-15.995h7.997c-.026,7.977.018,16.015,0,23.992h-7.997v23.992h-7.997v23.992h-7.997v15.995h-7.997v15.995h-7.997v15.995h-7.997v15.995h-7.997v15.995h-7.997v15.995h-7.997v7.997h-7.997v15.995h-7.997v7.997h-7.997v15.995h-7.997v7.997h-7.997v7.997h-7.997v7.997h-7.997v15.995h-7.997v7.997h-7.997v7.997h-7.997v7.997h-7.997v7.997h-7.997v7.997h-7.997v7.997h-15.994c.869-6.094-1.842-8.868-7.997-7.997-.006-7.975.024-16.017,0-23.992-3.892-2.52-3.886-5.472,0-7.997-1.927-6.203-4.593-11.534-7.997-15.995-.037-13.295.23-26.697,0-39.987-3.568-2.087-6.234-4.753-7.997-7.997-.393-22.655,1.28-46.553,0-68.977-.329-5.767-4.135-2.227-7.997-2.999l-3.538-8.563-.415-78.849,3.953-8.557c-6.363-1.618-6.088-21.821,0-23.992,9.745-1.756,17.742-4.421,23.992-7.997Z"/>
      <path class="d" d="M1371.518,1745.418l1.999-1c.501-13.95-.685-28.056,0-41.986.159-3.241,1.677-5.712,3.999-2.999l1.999,8.997c.099,12.992-.135,26.021,0,38.987h-6.998l-1-1.999Z"/>
      <path class="d" d="M1669.413,2043.319c6.727-.277,5.822-1.253,5.998,4.998.253,8.975-.059,18.031,0,26.991-6.727.277-5.822,1.253-5.998-4.998-.253-8.982.182-18.027,0-26.991Z"/>
      <path class="e" d="M2133.25,1217.594c0,7.976.01,16.016,0,23.992-3.86-.772-7.668,2.768-7.997-2.999-.321-5.62-.321-12.374,0-17.994.329-5.767,4.138-2.227,7.997-2.999Z"/>
      <path class="d" d="M1619.43,1763.412h-7.997c.439-2.244-.68-6.551,0-7.997.048-.101,1.665.364,1.999-1,.826-3.375-.921-15.989,0-16.994,2.142-.651,5.557,1.351,5.998,2.999,1.196,4.471-.087,17.101,0,22.992Z"/>
      <path class="d" d="M1627.428,2195.268c.048-.101,1.665.364,1.999-1,.745-3.046-.828-14.167,0-14.995h5.998c.017,7.975-.024,16.017,0,23.992h-7.997c.439-2.244-.681-6.551,0-7.997Z"/>
      <path class="e" d="M2133.25,1169.61v17.994h-7.997c.044-3.313-.066-6.685,0-9.997.052-2.648-.034-5.349,0-7.997,2.645-.073,5.356.113,7.997,0Z"/>
      <path class="d" d="M1621.43,1979.34c.244-6.952-.342-14.027,0-20.993.159-3.241,1.677-5.712,3.999-2.999l1.999,8.997c.107,4.994-.153,10.029,0,14.995h-5.998Z"/>
      <path class="f" d="M1643.422,279.907c2.648.046,5.348-.03,7.997,0v7.997c4.309.059,8.665-.086,12.995,0,3.156.063,9.672-1.475,10.996,1.999h-31.989v-9.997Z"/>
      <path class="j" d="M543.809,1187.604c1.446.681,5.753-.439,7.997,0v5.998h22.992l1,1.999c-9.599-.396-19.387.548-28.99,0-5.767-.329-2.227-4.136-2.999-7.997Z"/>
      <path class="e" d="M625.78,593.802l-7.997,7.997h-7.997l-3.999-7.997c-.198-.854.106-1.781,1-1.999,4.717-1.154,12.708.821,17.994,0l1,1.999Z"/>
      <path class="e" d="M745.738,609.797l-7.997,7.997h-7.997l-3.999-7.997c-.198-.854.106-1.781,1-1.999,4.717-1.154,12.708.821,17.994,0l1,1.999Z"/>
      <polygon class="j" points="601.788 1209.597 609.786 1203.599 609.786 1209.597 632.777 1209.597 633.777 1211.596 602.788 1211.596 601.788 1209.597"/>
      <path class="e" d="M559.803,585.805l-7.997,7.997h-6.998l-2.999-7.997c2.531-4.123,11.653-1.141,16.994-1.999l1,1.999Z"/>
      <path class="f" d="M1249.56,1659.447c-.032,5.309.022,10.686,0,15.995h-7.997c.159-2.005,1.937-2.466,1.999-2.999.484-4.115-.334-8.787,0-12.996h5.998Z"/>
      <path class="e" d="M375.868,561.813l-7.997,7.997h-6.998l-2.999-7.997c.101-.048-.364-1.666,1-1.999,4.224-1.033,11.256.73,15.994,0l1,1.999Z"/>
      <rect class="e" x="2125.252" y="1193.602" width="7.997" height="9.997"/>
      <path class="e" d="M2109.258,615.795h7.997c.028,3.315-.041,6.682,0,9.997h-7.997c-.028-3.315.042-6.682,0-9.997Z"/>
      <path class="e" d="M2117.255,1393.535v9.997h-7.997c.229-3.286-.153-6.699,0-9.997h7.997Z"/>
      <path class="e" d="M2077.269,559.813h7.997v9.997h-7.997c-.153-3.299.229-6.709,0-9.997Z"/>
      <path class="d" d="M1675.411,2325.225c3.976.937,2.142,5.934-1,7.997-2.332.07-4.693-.106-6.998,0v-7.997h7.997Z"/>
      <path class="e" d="M969.659,665.778h7.997c.03,2.65-.046,5.348,0,7.997h-7.997c-.03-2.649.046-5.349,0-7.997Z"/>
      <path class="e" d="M921.676,633.789v7.997h-7.997v-7.997c2.649.014,5.35-.056,7.997,0Z"/>
      <path class="e" d="M1001.648,761.746h7.997c.03,2.649-.046,5.349,0,7.997h-7.997c-.03-2.65.046-5.348,0-7.997Z"/>
      <path class="e" d="M801.718,617.794v7.997h-7.997v-7.997c.53.249,7.467.249,7.997,0Z"/>
      <path class="e" d="M1025.639,833.722h7.997c.03,2.648-.046,5.349,0,7.997h-7.997c-.03-2.649.046-5.349,0-7.997Z"/>
      <path class="e" d="M2125.252,665.778h7.997v7.997h-7.997c-.03-2.65.046-5.348,0-7.997Z"/>
      <path class="e" d="M1995.298,489.837v5.998c-.101.048.364,1.666-1,1.999-1.937.473-4.792-.3-6.998,0v-7.997h7.997Z"/>
      <path class="e" d="M857.698,625.791c2.648.046,5.349-.03,7.997,0v7.997c-2.648-.046-5.348.03-7.997,0v-7.997Z"/>
      <path class="e" d="M985.653,713.762h7.997c.03,2.65-.046,5.348,0,7.997h-7.997c-.03-2.65.046-5.348,0-7.997Z"/>
      <path class="f" d="M1113.608,2115.295c-.046,2.649.03,5.347,0,7.997h-7.997c.046-2.649-.03-5.348,0-7.997h7.997Z"/>
      <path class="f" d="M1129.603,2075.308c-.046,2.649.03,5.347,0,7.997h-7.997c.046-2.649-.03-5.347,0-7.997h7.997Z"/>
      <path class="f" d="M1217.572,1843.386c-.046,2.649.03,5.348,0,7.997h-7.997c.046-2.647-.03-5.349,0-7.997h7.997Z"/>
      <path class="f" d="M687.758,1739.42c3.359.229,1.696,4.918,1.999,7.997l-7.997-1.999c.051-1.984-.03-4.013,0-5.998h5.998Z"/>
      <path class="f" d="M1781.373,313.895c1.983.051,4.014-.03,5.998,0v7.997c-1.983-.06-4.014.036-5.998,0v-7.997Z"/>
      <path class="h" d="M89.968,2171.276v-5.998h5.998v5.998c-1.983-.039-4.014.023-5.998,0Z"/>
      <path class="f" d="M1089.617,2173.276c-.051,1.984.03,4.013,0,5.998h-5.998c.517-1.1-.312-4.226,0-5.998h5.998Z"/>
      <path class="f" d="M489.828,1177.607v-5.998h5.998v5.998c-1.983-.04-4.014.024-5.998,0Z"/>
      <path class="h" d="M233.918,1105.631v-5.998h5.998v5.998c-1.983-.04-4.014.024-5.998,0Z"/>
      <path class="f" d="M177.937,1089.637v-5.998h5.998v5.998c-1.983-.04-4.014.024-5.998,0Z"/>
      <polygon class="e" points="499.824 585.805 496.825 585.805 495.826 583.805 499.824 585.805"/>
      <polygon class="e" points="563.802 593.802 560.803 593.802 559.803 591.803 563.802 593.802"/>
      <path class="e" d="M323.886,561.813c-.687.034-1.448-.138-1.999,0l1-1.999,1,1.999Z"/>
      <path class="e" d="M683.759,609.797l-1.999-1.999,1.999,1.999Z"/>
      <path class="e" d="M1899.332,487.837h23.992v7.997h15.994v7.997h15.994v7.997h15.994v7.997h7.997v7.997h15.994v7.997h7.997v7.997h7.997v7.997c6.907-.8,11,.502,9.996,7.997h4.998l2.999,2.999v12.996h4.998l2.999,2.999v4.998h4.998l2.999,2.999v12.996h4.998l2.999,2.999v12.996h4.998l2.999,2.999v14.995h7.997v31.989h7.997v439.853c-10.631-.184-21.356.134-31.989,0v-7.997h-41.985v-7.997c-10.637-.042-21.352.057-31.989,0l-3.999-2.125c1.558-6.689-.935-11.26-7.48-13.713l-.757-20.15c-6.598-.476-9.264-5.807-7.997-15.995-6.596-.469-9.262-5.8-7.997-15.995-3.231.22-6.062-.659-7.24-3.842l-.757-20.15-6.162-1.856c-.381-7.373-2.246-13.419-5.594-18.138.048-7.973-.034-16.019,0-23.992h7.997c.168-13.297-.23-26.692,0-39.987.613-3.186,3.279-5.851,7.997-7.997.323-18.622-.323-37.36,0-55.981.613-3.186,3.279-5.851,7.997-7.997.692-39.932-.514-80.022,0-119.96h-7.997v-71.976h-7.997v-39.987h-7.997c-.072-7.97.1-16.022,0-23.992-3.085-3.246-5.751-6.578-7.997-9.997-.091-7.306.065-14.686,0-21.993h-7.997v-31.989h-7.997c-.21-11.295.289-22.698,0-33.989Z"/>
      <path class="g" d="M1995.298,1219.593v79.973h-7.997v31.989h-7.997v23.992h-7.997v7.997h-7.997v15.995h-7.997v7.997h-7.997v7.997h-15.994v7.997h-15.994v7.997h-15.994v7.997h-7.997v7.997h-23.992v7.997h-15.994v7.997h-15.994v7.997h-15.994v7.997h-15.994v7.997h-23.992v7.997h-15.994v7.997h-23.992v7.997h-15.994v7.997h-23.992v7.997h-23.992v7.997h-23.992v4.998l-2.999,2.999h-20.993v4.998l-2.999,2.999h-28.99v4.998l-2.999,2.999h-28.99v4.998l-2.999,2.999c-5.974-.241-12.032.34-17.994,0-5.767-.329-2.227-4.136-2.999-7.997-2.012-2.671-.571-6.122,4.324-10.353,4.31-10.48,1.68-65.038-4.324-77.618-6.549-3.295-6.264-28.116,0-31.989-7.891,13.319-18.368-8.346-7.997-17.994.04-1.984-.024-4.014,0-5.998l.898-.898c8.868.427,17.69-1.06,21.328-8.099,6.241.522,12.161.188,17.76-1v-5.998c9.101-1.301,25.605,4.808,23.992-7.997l.898-.898c8.868.427,17.69-1.06,21.328-8.099,6.241.522,12.161.188,17.76-1v-5.998c10.4-.154,18.027-3.153,22.881-8.997,11.852,1.962,19.631-.703,23.337-7.997,6.243.522,12.163.188,17.76-1v-5.998h15.994v-7.997h23.992v-7.997h23.992v-7.997h15.994v-7.997h23.992v-7.997h14.995l2.999-2.999v-4.998h21.992v-7.997h23.992v-7.997h15.994v-7.997h23.992v-7.997h23.992v-7.997h15.994v-7.997h23.992v-7.997h14.995l2.999-2.999v-4.998c1.983-.03,4.016.051,5.998,0Z"/>
      <path class="f" d="M1307.54,119.96c5.375-10.335,14.4,2.683,12.096,11.457,7.853,2.687,8.493,8.469,7.897,15.84,5.608,4.258,10.746,8.945,15.414,14.06,6.109,5.517,11.917,11.916,17.423,19.197,6.37-.443,10.086,1.365,11.147,5.423-2.437,2.878-2.437,4.877,0,5.998-.263-7.208,20.48-4.928,24.598-2.05,5.193,9.994,19.707,8.529,23.229-1.431l20.15-.757c-.007-4.533,3.991-7.785,11.996-9.757.272-10.622-.133-21.361,0-31.989,4.953-6.11,9.92-11.775,14.9-16.994,11.343-.518,22.37-.185,33.083,1v7.997h7.997v7.997h7.997v60.98l-2.999,2.999h-4.998v12.996l-2.999,2.999h-4.998v7.997c-2.338,5.275-5.3,11.672-11.996,12.546v12.213c5.335,1.736,6.668,4.146,3.999,7.23-4.216,5.213-5.539,12.599-3.971,22.159-.644,4.478-4.147,5.498-8.025,6.395,2.389,13.397-.277,21.324-7.997,23.781,1.656,9.747-1.01,15.079-7.997,15.995l-.041,10.723c-4.71,3.24-8.372,7.219-10.987,11.935-13.946,6.121,1.301,8.329,10.313,6.979l2.714,3.999c3.853,9.309-14.873,7.38-21.992,1.999l-4.64,4.771c-.4,7.782-2.552,16.206-11.355,11.223-2.564,7.28-6.872,7.893-14.404,6.998l-1.59,1v7.997c-7.974-.034-16.017.048-23.992,0-8.956,5.424-18.902,6.754-20.346-3.999-9.743,1.657-15.075-1.008-15.994-7.997-9.69,1.386-22.096-2.403-11.643-11.996,6.363-1.916,11.695-4.582,15.994-7.997,5.936-1.846,11.267-4.512,15.994-7.997,2.084-3.381,4.75-6.047,7.997-7.997-9.275-5.567-.497-11.343,2.863-13.322l-6.618.827c-1.681,8.377-8.487,7.1-12.24,4.498-.268,4.191-4.111,5.465-11.528,3.821-1.408,4.91-5.563,8.967-12.463,12.174-2.381,3.391-5.047,6.057-7.997,7.997,5.844-.004,5.59,6.681,0,7.997-4.55,7.346-11.679,4.105-12.236-3.999-5.313.532-7.785-2.857-7.997-7.997-5.431.556-7.489-2.861-8.209-7.997-10.827,1.839-16.754-.827-17.782-7.997-5.307.533-7.786-2.856-7.997-7.997-5.313.532-7.785-2.857-7.997-7.997-6.528-.131-9.114-4.697-7.757-13.698-1.442,6.492-10.164,8.506-11.996,1.702,6.524,3.245,6.293,28.016,0,31.989,2.532-7.375,20.886-5.602,20.346,3.999,9.748-1.656,15.079,1.01,15.994,7.997,9.649-1.666,15.013,1,16.094,7.997,10.828-1.839,16.756.827,17.782,7.997,5.312-.532,7.785,2.856,7.997,7.997,5.312-.532,7.785,2.856,7.997,7.997,5.312-.532,7.785,2.856,7.997,7.997,5.312-.532,7.785,2.856,7.997,7.997,5.391-.542,7.63,2.876,8.11,7.997,9.85-1.647,15.144,1.018,15.882,7.997,4.531-3.638,8.449-4.97,11.756-3.999,0,30.914,2.025,65.575,0,95.968-.242,3.632.675,5.587-2.999,7.997h-44.984v-7.997h-7.997v-7.997h-7.997v-7.997h-7.997v-7.997h-7.997c-.03-2.649.046-5.349,0-7.997-.092-5.307.064-10.687,0-15.995h4.998l2.999-2.999v-36.988h-25.991v-7.997h-23.992v-7.997h-15.994v-7.997h-15.994v-7.997h-7.997v-15.995h-7.997v-39.987h7.997v-23.992h7.997v-15.995h7.997v-17.994c1.492-5.928,14.336-4.66,7.997,1.999,3.161.871,5.827,3.536,7.997,7.997,3.556-7.631,12.038-3.779,12.348,3.999h6.663c1.692-9.443,13.934-11.956,16.962-1.707l.007,33.69,4.005,4.005q12.028,6.812,0,0c-1.962-4.564-3.941-9.337-4.064-14.371l-.175-53.606c-6.796.486-7.969-4.214-7.997-9.997-4.892.616-6.678-2.393-8.606-6.573l-10.69-1.371c-3.988-4.742-9.472-8.092-16.452-10.05l-5.611,8.147c-3.237-1.413-7.382-1.986-10.384-.15,3.464,1.313,6.13,3.979,7.997,7.997,1.313-3.464,3.979-6.13,7.997-7.997,1.316-8.172,11.817-4.377,12.204,3.797,20.26-3.723,20.958,19.188,3.79,12.197-1.661,5.85-4.327,8.516-7.997,7.997-.675,2.581-3.341,4.581-7.997,5.998,1.507,6.094-5.85,6.944-7.997,1.999-2.648.056-5.349-.036-7.997,0v-15.995h-7.997c.108-5.971-.153-12.025,0-17.994.051-1.983-.03-4.014,0-5.998h7.997v-7.997h15.994v-7.997h-4.998l-2.999-2.999c.077-6.995-.108-14.021,0-20.993-6.244.345-5.047-14.746-2.287-17.906,13.235-15.15,16.147,9.469,14.522,19.906,10.568-2.991,8.225,19.597,6.383,18.332-3.61-2.481,8.592-11.523,13.37-12.334,8.446.611,8.793,1.126,7.997-7.997h7.997v-7.997h14.995l2.999-2.999v-4.998h4.998l2.999-2.999v-20.993h-7.997c.021-13.971-.028-28.015,0-41.986Z"/>
      <path class="e" d="M1081.62,993.669h7.997v7.997h39.986v7.997h39.986v7.997c10.633.134,21.358-.184,31.989,0,3.186.613,5.851,3.279,7.997,7.997,10.631.184,21.356-.134,31.989,0v7.997h39.986v7.997h41.985v7.997h39.986v7.997h31.989v7.997h39.986v7.997h15.994c.022,5.309-.032,10.685,0,15.995h-23.992v7.997h-39.986v7.997h-39.986v7.997h-39.986v7.997h-41.985v7.997h-39.986v7.997h-39.986v7.997h-39.986v7.997h-15.994v-23.992h-7.997v-23.992h-7.997v-23.992h-7.997v-23.992h-7.997v-23.992h-7.997v-23.992h-7.997c-.064-5.308.092-10.688,0-15.995Z"/>
      <path class="f" d="M1531.461,1401.533c-.121,5.971.086,12.022,0,17.994h7.997v31.989h5.998c-1.525,3.625,1.913,6.414,1.999,6.998,1.782,12.077,1.782,59.899,0,71.976-.086.584-3.524,3.373-1.999,6.998-4.484-1.542-5.671,1.845-5.998,1.999-2.211,1.04-26.476-.096-31.989,0-2.046,2.948-4.335,5.302-6.866,7.062-16.633.443-33.005.088-49.114-1.064v-119.96h15.994v-7.997h23.992v-7.997h15.994v-7.997h23.992Z"/>
      <path class="g" d="M1923.323,977.674c3.861.772,7.668-2.768,7.997,2.999.246,4.308-.17,8.701,0,12.996h7.997v23.992h7.997v15.995h7.997v15.995h7.997v23.992h7.997v15.995c-2.648-.014-5.35.056-7.997,0-3.185-.613-5.851-3.279-7.997-7.997-10.632-.184-21.355.134-31.989,0v-7.997h-23.992v-15.995h7.997c.099-7.971-.138-16.023,0-23.992.613-3.186,3.279-5.851,7.997-7.997.184-10.632-.134-21.356,0-31.989h7.997c.022-5.31-.032-10.685,0-15.995Z"/>
      <path class="j" d="M1177.586,649.783c.071-5.309-.05-10.685,0-15.995h7.997v-7.997h15.994v-9.997h7.997v-7.997h7.997v-7.997h7.997v-15.995h7.997v-7.997h7.997v-7.997h7.997v-7.997h7.997v-7.997h7.997v-7.997c6.246.349,12.762-.492,18.993,0,2.419.191,6.142.032,6.998,2.999,3.068,10.634-17.706,6.187-23.992,6.998v4.998l-2.999,2.999h-4.998v4.998l-2.999,2.999h-4.998v4.998l-2.999,2.999h-4.998v12.996c-2.536,3.816-5.71,3.149-9.996,2.999v7.997h-5.998v4.998l-2.999,2.999h-4.998v4.998l-2.999,2.999h-4.998v7.997h-7.997v7.997h-9.996v7.997h-7.997v7.997c-2.645.073-5.355-.113-7.997,0-.071,5.309.05,10.685,0,15.995-2.645.073-5.355-.113-7.997,0-.048,7.973.034,16.018,0,23.992-2.645.073-5.355-.113-7.997,0-.032,10.638.023,21.351,0,31.989-2.645.073-5.355-.113-7.997,0-.024,7.977.017,16.015,0,23.992-2.645.073-5.355-.113-7.997,0-.052,7.973.037,16.018,0,23.992-2.645.073-5.355-.113-7.997,0-.032,5.31.022,10.684,0,15.995-2.645.073-5.355-.113-7.997,0-.048,7.973.034,16.018,0,23.992-2.645.073-5.355-.113-7.997,0-.032,5.31.022,10.684,0,15.995-2.645.073-5.355-.113-7.997,0-.048,7.973.034,16.018,0,23.992h-7.997v-23.992c2.645-.073,5.355.113,7.997,0,.032-5.31-.022-10.684,0-15.995,2.645-.073,5.355.113,7.997,0,.048-7.973-.034-16.018,0-23.992,2.645-.073,5.355.113,7.997,0,.032-5.31-.022-10.684,0-15.995,2.645-.073,5.355.113,7.997,0,.048-7.973-.034-16.018,0-23.992,2.645-.073,5.355.113,7.997,0,.052-7.973-.037-16.018,0-23.992,2.645-.073,5.355.113,7.997,0,.032-10.638-.023-21.351,0-31.989,2.645-.073,5.355.113,7.997,0,.024-7.977-.017-16.015,0-23.992,2.645-.073,5.355.113,7.997,0,.032-5.31-.022-10.684,0-15.995,2.645-.073,5.355.113,7.997,0Z"/>
      <polygon class="f" points="1699.402 1337.554 1698.403 1339.553 1683.408 1339.553 1683.408 1347.551 1659.416 1347.551 1659.416 1355.548 1635.425 1355.548 1636.424 1353.549 1649.42 1353.549 1649.42 1348.55 1652.419 1345.551 1675.411 1345.551 1675.411 1337.554 1699.402 1337.554"/>
      <path class="k" d="M1507.47,1539.487c-.772,3.863,2.767,7.668-2.999,7.997-17.364.991-35.541-.729-52.981,0v-1.999h47.983v-5.998c2.648-.03,5.349.046,7.997,0Z"/>
      <polygon class="f" points="1571.447 1385.538 1570.448 1387.537 1555.453 1387.537 1555.453 1395.535 1531.461 1395.535 1532.461 1393.535 1545.456 1393.535 1545.456 1388.537 1548.455 1385.538 1571.447 1385.538"/>
      <polygon class="k" points="1635.425 1361.546 1634.425 1363.545 1619.43 1363.545 1619.43 1371.543 1595.439 1371.543 1596.438 1369.543 1609.434 1369.543 1609.434 1364.545 1612.433 1361.546 1635.425 1361.546"/>
      <path class="j" d="M1659.416,721.759c-.035,5.31.025,10.685,0,15.995h-7.997c.009-5.309-.035-10.686,0-15.995.004-5.852,6.68-5.604,7.997,0Z"/>
      <path class="i" d="M1659.416,705.765c-.009,5.31.035,10.685,0,15.995h-7.997c.035-5.309-.025-10.685,0-15.995h7.997Z"/>
      <path class="k" d="M1403.506,641.786h7.997c.025,5.309-.035,10.686,0,15.995-.004,5.852-6.68,5.604-7.997,0-.092-5.306.015-10.687,0-15.995Z"/>
      <path class="j" d="M1763.38,423.859l1.999,1c1.079,8.043-2.323,9.922-9.996,8.997.175-2.293-.115-4.675,0-6.998l2.999-2.999h4.998Z"/>
      <path class="d" d="M1915.326,575.808h7.997c.028,3.313-.041,6.684,0,9.997h-7.997c-.028-3.314.041-6.683,0-9.997Z"/>
      <path class="k" d="M1747.385,449.85c.048.101,1.65-.368,1.999,1,1.622,6.34-4.485,7.924-9.996,6.998.113-2.643-.073-5.351,0-7.997h7.997Z"/>
      <path class="k" d="M1723.394,489.837c.048.101,1.649-.368,1.999,1,1.622,6.34-4.486,7.924-9.996,6.998.013-2.656-.009-5.342,0-7.997h7.997Z"/>
      <path class="k" d="M1715.397,505.831c.048.101,1.65-.368,1.999,1,1.621,6.34-4.485,7.924-9.996,6.998.013-2.656-.009-5.342,0-7.997h7.997Z"/>
      <path class="k" d="M1707.399,521.826c.048.101,1.65-.368,1.999,1,1.621,6.34-4.485,7.924-9.996,6.998.013-2.656-.009-5.342,0-7.997h7.997Z"/>
      <path class="k" d="M1699.402,537.821c.048.101,1.65-.368,1.999,1,1.621,6.34-4.485,7.924-9.996,6.998.046-2.649-.03-5.347,0-7.997h7.997Z"/>
      <path class="d" d="M1939.318,905.698c-.046,2.648.03,5.349,0,7.997h-7.997c.046-2.648-.03-5.349,0-7.997h7.997Z"/>
      <path class="j" d="M1411.504,657.781c.018,2.654-.008,5.344,0,7.997h-7.997c-.03-2.649.046-5.349,0-7.997h7.997Z"/>
      <path class="j" d="M1667.414,633.789c-.046,2.649.03,5.348,0,7.997h-7.997c.008-2.655-.002-5.343,0-7.997h7.997Z"/>
      <path class="f" d="M1201.577,1017.661c2.648.046,5.349-.03,7.997,0v7.997c-2.648-.046-5.349.03-7.997,0v-7.997Z"/>
      <path class="i" d="M1915.326,1025.658c-.046,2.648.03,5.349,0,7.997h-7.997c.046-2.648-.03-5.348,0-7.997h7.997Z"/>
      <path class="f" d="M1955.312,1081.639c2.648.046,5.348-.03,7.997,0v7.997c-2.647-.056-5.349.036-7.997,0v-7.997Z"/>
      <path class="i" d="M1675.411,601.799c-.046,2.65.03,5.347,0,7.997h-7.997c.046-2.649-.03-5.348,0-7.997h7.997Z"/>
      <path class="i" d="M1395.509,593.802h7.997c.03,2.649-.046,5.349,0,7.997h-7.997c-.03-2.648.046-5.35,0-7.997Z"/>
      <path class="i" d="M1683.408,577.807c-.046,2.649.03,5.347,0,7.997h-7.997c.046-2.65-.03-5.347,0-7.997h7.997Z"/>
      <path class="d" d="M1947.315,841.719c-.046,2.647.03,5.349,0,7.997h-7.997c.046-2.648-.03-5.349,0-7.997h7.997Z"/>
      <path class="i" d="M1587.442,833.722c2.649.046,5.348-.03,7.997,0v7.997c-2.648-.046-5.349.03-7.997,0v-7.997Z"/>
      <path class="i" d="M1523.464,817.727c2.649.046,5.348-.03,7.997,0v7.997c-2.649-.046-5.348.03-7.997,0v-7.997Z"/>
      <path class="i" d="M1475.481,809.73c2.647.046,5.349-.03,7.997,0v7.997c-2.649-.046-5.348.03-7.997,0v-7.997Z"/>
      <path class="i" d="M1779.374,401.866c-.113,2.643.073,5.351,0,7.997h-7.997c.113-2.643-.073-5.351,0-7.997h7.997Z"/>
      <path class="i" d="M1803.366,369.877c-.113,2.643.073,5.351,0,7.997h-7.997c.113-2.643-.073-5.351,0-7.997h7.997Z"/>
      <path class="k" d="M985.653,1595.468c.057-10.637-.042-21.352,0-31.989h7.997v-55.981h7.997v-55.981h7.997v-39.987h7.997v-31.989h7.997v-23.992h7.997v-7.997h7.997v-7.997h7.997v-7.997h15.994v4.998l2.999,2.999h12.995v7.997h-7.997v7.997h-7.997v7.997h-7.997v7.997h-7.997v23.992h-7.997v23.992h-7.997v47.984h-7.997c.264,23.956-.357,48.023,0,71.976-3.859.772-7.668-2.768-7.997,2.999-.208,3.646.141,7.363,0,10.996h-4.998l-2.999,2.999v14.995h-7.997v7.997h-7.997c-.17,4.296.246,8.688,0,12.996-.329,5.767-4.138,2.227-7.997,2.999Z"/>
      <path class="j" d="M785.724,1261.579c-.454,81.933.608,163.988,0,245.918-.034,4.642.024,9.353,0,13.995h-5.998v-259.913c1.772-.312,4.899.517,5.998,0Z"/>
      <path class="j" d="M801.718,1265.578l7.997-7.997v7.997c4.312.025,8.663-.036,12.995,0,3.125.026,9.688-1.448,10.996,1.999h-30.989l-1-1.999Z"/>
      <path class="f" d="M1025.639,1555.482c2.818,5.991.692,3.262,0,6.998-.495,2.674.328,6.138,0,8.997h-5.998v-15.995h5.998Z"/>
      <polygon class="j" points="857.698 1281.573 865.695 1275.575 865.695 1281.573 888.687 1281.573 889.687 1283.572 858.698 1283.572 857.698 1281.573"/>
      <path class="k" d="M985.653,1603.466c-.056,2.647.036,5.349,0,7.997h-7.997c.113-2.641-.073-5.353,0-7.997h7.997Z"/>
      <path class="f" d="M817.712,1467.511c-.113,2.643.073,5.35,0,7.997l-7.997-1.999c.053-1.984-.032-4.013,0-5.998h7.997Z"/>
      <path class="f" d="M833.707,1443.519c-.113,2.642.073,5.351,0,7.997l-7.997-1.999c.053-1.985-.032-4.012,0-5.998h7.997Z"/>
      <polygon class="f" points="913.679 1293.569 921.676 1291.569 921.676 1299.567 913.679 1297.567 913.679 1293.569"/>
      <rect class="h" x="987.653" y="1757.414" width="5.998" height="5.998"/>
      <rect class="d" x="305.892" y="571.809" width="5.998" height="5.998"/>
      <path class="j" d="M1017.642,2323.226l-1,1.999h-4.998v4.998l-2.999,2.999h-14.995c-.028-3.315.041-6.682,0-9.997h23.992Z"/>
      <path class="j" d="M593.791,2139.287v7.997c-3.315.028-6.682-.041-9.996,0v-7.997c3.314-.028,6.683.041,9.996,0Z"/>
      <path class="j" d="M1041.634,2299.234c-.113,2.643.073,5.351,0,7.997-2.646.073-5.355-.113-7.997,0v-7.997c2.647-.073,5.354.113,7.997,0Z"/>
      <path class="i" d="M1065.625,2275.242v7.997c-2.647.073-5.354-.113-7.997,0-.113,2.643.073,5.351,0,7.997-2.646.073-5.355-.113-7.997,0-.113,2.643.073,5.351,0,7.997-2.647.073-5.354-.113-7.997,0,.113-2.643-.073-5.351,0-7.997,2.646-.073,5.355.113,7.997,0,.113-2.643-.073-5.351,0-7.997,2.647-.073,5.354.113,7.997,0,.113-2.643-.073-5.351,0-7.997,2.649-.044,5.349.068,7.997,0Z"/>
      <path class="i" d="M953.665,2259.247c2.643.113,5.351-.073,7.997,0,.073,2.646-.113,5.355,0,7.997h-7.997v-7.997Z"/>
      <path class="i" d="M913.679,2227.258c2.65.056,5.347-.036,7.997,0v7.997c-2.643-.113-5.351.073-7.997,0v-7.997Z"/>
      <path class="i" d="M897.684,2219.26c2.649.046,5.348-.03,7.997,0v7.997c-2.65-.056-5.347.036-7.997,0v-7.997Z"/>
      <path class="i" d="M559.803,2155.282v7.997h-7.997c-.036-2.65.056-5.348,0-7.997h7.997Z"/>
      <path class="j" d="M543.809,2139.287h7.997c.036,2.65-.056,5.348,0,7.997h-7.997c-.073-2.645.113-5.356,0-7.997Z"/>
      <rect class="f" x="979.655" y="1805.398" width="5.998" height="5.998"/>
      <rect class="f" x="955.664" y="1965.345" width="5.998" height="5.998"/>
      <rect class="f" x="659.768" y="1813.396" width="5.998" height="5.998"/>
      <path class="f" d="M865.695,1845.385c-.053,1.984.032,4.013,0,5.998h-5.998c.517-1.1-.312-4.225,0-5.998h5.998Z"/>
      <rect class="f" x="667.765" y="1789.404" width="5.998" height="5.998"/>
      <path class="f" d="M793.721,1981.34c-.053,1.984.032,4.013,0,5.998h-5.998c.517-1.1-.312-4.225,0-5.998h5.998Z"/>
      <rect class="f" x="603.788" y="2005.332" width="5.998" height="5.998"/>
      <rect class="f" x="675.762" y="1765.412" width="5.998" height="5.998"/>
      <rect class="f" x="537.811" y="2117.294" width="5.998" height="5.998"/>
      <path class="h" d="M1499.473,233.922c0,1.89-.283,7.715,0,7.997h7.997v23.992h7.997v23.992h7.997v31.989h7.997v39.987h7.997v111.963h-7.997c-.038,12.635.052,25.352,0,37.987,1.784.37,1.711,1.049,0,1.999-2.208,5.064-4.874,10.396-7.997,15.995-.177,8.089,2.657,17.321-7.997,15.995v4.998l-2.999,2.999h-4.998v5.998c-1.768,3.682-4.208,7.273-7.997,9.997-.435,6.252-.46,8.704-7.997,7.997v4.998l-2.999,2.999h-4.998v5.998c-.429,2.769-2.396,4.185-5.898,4.248-2.224,14.353-20.179,3.881-10.096-2.249-.136-5.305.095-10.687,0-15.995h4.998l2.999-2.999v-12.996c5.249-4.142,6.536-16.569,0-9.997l-2.06,3.775c-3.91-.437-5.57,1.718-5.937,4.223,1.786.618,1.774,1.284,0,1.999.113,1.638-.074,3.334,0,4.998l-2.999,2.999h-4.998v4.998l-2.999,2.999h-4.998v4.998l-2.999,2.999h-4.998c.528,2.688-.281,7.196-2.999,7.997-1.039.306-5.008.707-4.998-1-.024-4.999.034-10.017,0-14.995-3.918-3.206-3.909-6.782,0-9.997l-2.673-10.659c.516-9.13-1.259-16.24-5.324-21.33-3.895-2.522-3.894-5.475,0-7.997-1.57-.417-3.929-1.129-3.999-2.337-.492-8.56-.812-66.569,1.369-69.28,2.917-3.626,9.953-3.67,10.627,1.64-6.549-3.295-6.264-28.116,0-31.989,1.971-4.579,5.146-8.578,9.527-11.996l2.469-.24c-.457-4.453,2.208-7.372,7.997-8.757-6.77-1.63-9.515-7.295-8.237-16.994-9.071,1.109-11.041-15.231-3.759-17.994,6.972-.121,13.998.086,20.993,0l1-1.999c-2.53-3.263-1.863-5.262,1.999-5.998,1.916-1.615,6.007-1.498,7.997,0,2.676-5.571,6.565-9.679,11.667-12.324-1.113-10.4,1.806-15.677,8.756-15.832,1.083-5.827.467-39.183-2.169-41.994l-2.261-3.826c-5.44-7.193-5.481-14.91,0-21.993l-1-1.999h-6.998v-21.993h7.997v-4.998l7.997-2.999Z"/>
      <path class="h" d="M1307.54,119.96c.02-9.975-.015-20.015,0-29.99h7.997v7.997h7.997v15.995h7.997v7.997h7.997v7.997h7.997v7.997h7.997v7.997h7.997v7.997h7.997v7.997h7.997v7.997h15.994v7.997h55.98c-.051,1.983.03,4.014,0,5.998h-7.997v7.997h-23.992v7.997h-23.992v-4.998l-2.999-2.999c-1.663-.458-20.043-.447-20.993,0-5.718-.129-5.464-4.646,0-5.998l-15.994-1.999v-4.998l-2.999-2.999h-4.998v-4.998l-2.999-2.999h-4.998v-4.998l-2.999-2.999h-4.998v-4.998l-2.999-2.999h-4.998v-12.996l-2.999-2.999h-4.998c-.363-7.023,3.073-17.32-7.997-15.995Z"/>
      <path class="h" d="M1257.558,55.981c.046-2.648-.03-5.348,0-7.997h7.997v7.997c-2.645.073-5.356-.113-7.997,0-.196,11.297.142,22.689,0,33.989h-7.997v36.988l2.999,2.999h4.998v36.988l2.999,2.999h4.998v20.993l2.999,2.999h4.998c-.095,5.306.136,10.691,0,15.995-.051,1.983.03,4.014,0,5.998h-4.998l-2.999,2.999v4.998h-7.997v-15.995h-7.997v-23.992c-11.027-1.528-7.872,9.88-7.997,17.994-3.861-.772-7.668,2.768-7.997-2.999-1.887-33.052,1.401-67.753,0-100.966h7.997v-23.992h7.997v-17.994c2.645-.073,5.356.113,7.997,0Z"/>
      <path class="e" d="M1499.473,129.957h-31.989v7.997h-7.997c.796,9.124.449,8.608-7.997,7.997.041-3.313-.028-6.683,0-9.997h7.997v-7.997h38.986l1,1.999Z"/>
      <path class="k" d="M1563.45,441.853c.141-5.305-.099-10.688,0-15.995,5.579.03,9.842-3.194,15.994-1.999.033,3.315-.049,6.683,0,9.997h-7.997v7.997h-7.997Z"/>
      <path class="k" d="M1603.436,337.887h7.997c.024,4.645-.034,9.35,0,13.995h-7.997c-.024-4.645.034-9.351,0-13.995Z"/>
      <path class="e" d="M1587.442,439.853c-.049,3.314.033,6.682,0,9.997h-7.997c-.033-3.315.049-6.683,0-9.997h7.997Z"/>
      <path class="k" d="M1595.439,423.859c-.043,3.314.029,6.682,0,9.997h-7.997c.049-3.314-.033-6.682,0-9.997h7.997Z"/>
      <path class="k" d="M1555.453,479.84c-.041,3.314.028,6.682,0,9.997h-7.997c.049-3.315-.033-6.681,0-9.997h7.997Z"/>
      <path class="e" d="M1547.456,495.835c-.049,3.315.033,6.681,0,9.997h-7.997c.049-3.315-.033-6.681,0-9.997h7.997Z"/>
      <path class="k" d="M1539.459,511.829c-.049,3.315.033,6.681,0,9.997h-7.997c-5.041-2.943-5.049-5.054,0-7.997.004-.666-.003-1.333,0-1.999h7.997Z"/>
      <path class="k" d="M1595.439,297.901h7.997c.03,2.649-.046,5.349,0,7.997-3.255.288-9.017.396-9.996-2.999-1.401-4.853,1.867-4.716,1.999-4.998Z"/>
      <path class="d" d="M1265.555,265.911c4.948-3,6.501,10.79,5.581,13.565-.836,2.52-12.232,16.163-13.578,10.427-1.091,5.66-6.726,5.711-7.997,0-.101-.048.364-1.666-1-1.999-1.937-.473-4.791.299-6.998,0v-5.998c5.353-.114,4.882-.534,7.997-1.999.966-2.521,3.632-4.521,7.997-5.998.53-2.395,3.22-4.187,1.999-7.997,1.934-.226,4.274.382,5.998,0Z"/>
      <path class="k" d="M1387.512,425.858l-7.997,7.997h-7.997v-7.997h-15.994v-7.997h-7.997v-7.997h-7.997v-7.997h-7.997v-7.997h-7.997v-7.997h-7.997v-7.997h-17.994v-7.997h-15.994v-7.997h-15.994v-7.997h-15.994v-31.989h7.997v-7.997h7.997v15.995h7.997v7.997h7.997v7.997h7.997v7.997h17.994v7.997h7.997v7.997h7.997v7.997c2.649.036,5.349-.056,7.997,0,2.528-3.855,5.477-3.863,7.997,0-5.091-2.914-5.084-5.081,0-7.997,5.247-3.912,10.739-3.898,15.994,0-5.062-2.937-5.074-5.062,0-7.997,5.113-5.458,10.857-5.403,15.994,0-10.788-6.261,3.195-18.529,7.997-7.997-.113,2.642.073,5.351,0,7.997-2.65.03-5.348-.046-7.997,0-.113,2.642.073,5.351,0,7.997-5.311.025-10.683-.035-15.994,0-.056,2.648.036,5.348,0,7.997-5.311.027-10.684-.038-15.994,0,.056,2.649-.036,5.348,0,7.997h15.994v7.997h15.994v7.997c5.311.022,10.683-.032,15.994,0v23.992Z"/>
      <path class="k" d="M1363.52,345.885c10.712,4.421-.351,12.228-7.997,15.995-5.113,5.458-10.857,5.403-15.994,0,5.035,2.946,5.04,5.051,0,7.997-.004,5.852-6.68,5.604-7.997,0,0-1.891-.283-7.715,0-7.997,2.65-.03,5.348.046,7.997,0,.056-2.649-.036-5.348,0-7.997h7.997v-7.997c1.041-1.041,13.583,1.134,15.994,0Z"/>
      <path class="j" d="M1443.492,369.877v13.995h7.997v15.995h7.997v9.997h-7.997v7.997h-7.997v7.997h-7.997v31.989h-7.997v69.977c-.004,5.852-6.68,5.604-7.997,0-.176-39.288.212-78.673,0-117.961.613-3.185,3.279-5.851,7.997-7.997-5.412-5.138-5.481-10.887,0-15.995.327-.154,1.514-3.541,5.998-1.999l1.999-13.995c2.65-.03,5.348.046,7.997,0Z"/>
      <path class="g" d="M1249.56,241.919c2.028-.347,2.412-1.844,2.999-1.999,4.086-1.081,5.306,1.857,5.998,1.999,2.042.42,4.763-.266,6.998,0v5.998l15.994,1.999v5.998h7.997v9.997h7.997c.307,23.954-.415,48.026,0,71.976,13.961.242,28.022-.177,41.985,0v7.997h-41.985c-.03-2.649.046-5.349,0-7.997-2.648-.046-5.348.03-7.997,0v-39.987h-7.997v7.997h-15.994v-7.997c-2.645-.073-5.356.113-7.997,0-5.662-1.095-5.715-6.722,0-7.997.048-.101,1.666.364,1.999-1,.473-1.937-.299-4.792,0-6.998h4.998l2.999-2.999-1.999-12.996c2.395-.53,4.187-3.22,7.997-1.999v-5.998c-5.508-.392-15.994,2.327-15.994-4.998,0-5.823-4.959-2.156-7.997-2.999-5.852-.004-5.604-6.68,0-7.997Z"/>
      <path class="k" d="M1491.475,265.911c-.065,7.306.091,14.687,0,21.993,10.29,8.399-2.503,20.63-7.997,9.997,1.554.425,3.862,1.071,3.999,2.292.526,4.714.527,34.437-1.333,36.371-.647.673-1.611,1.042-2.666,1.324-3.836,4.763-5.169,11.189-3.999,19.279l-3.999,2.714c-2.545.624-5.21,1.29-7.997,1.999v4.998l-1.999,1h-21.992v-13.995h7.997v-7.997h7.997v-15.995h7.997v-15.995h7.997v-23.992h7.997c.283-6.947-.397-14.038,0-20.993.329-5.767,4.137-2.227,7.997-2.999Z"/>
      <path class="g" d="M1355.523,225.925v-7.997h23.992c.283.283,0,6.107,0,7.997-8.14,4.991-15.836,4.949-23.992,0,10.744,5.979,13.158,8.868,12.035,23.992-.101,1.356-.661,2.682-1.331,4.009-.718,1.422-1.678,2.723-2.707,3.989-.046,2.649.03,5.348,0,7.997h-7.997v7.997c-5.31.027-10.684-.038-15.994,0-3.186-.614-5.852-3.28-7.997-7.997-2.941,5.049-5.057,5.06-7.997,0-.138-7.97.099-16.021,0-23.992h7.997v-7.997h7.997v-7.997c5.31-.022,10.684.032,15.994,0Z"/>
      <path class="g" d="M1355.523,361.879c-.056,2.649.056,5.349,0,7.997-5.311.035-10.683,0-15.994,0,0-2.649-.056-5.35,0-7.997,5.308-.092,10.685.034,15.994,0Z"/>
      <path class="g" d="M1339.529,369.877c0,2.649-.056,5.35,0,7.997-2.647.019-5.351.056-7.997,0v-7.997h7.997Z"/>
      <path class="g" d="M1363.52,345.885c.101-.048-.364-1.666,1-1.999,1.937-.473,4.792.3,6.998,0v-5.998l15.994-1.999v-5.998h7.997v7.997h-7.997v7.997h-7.997c-.073,2.646.113,5.355,0,7.997h-7.997c-.073,2.646.113,5.355,0,7.997-5.308.092-10.685-.034-15.994,0,.056-2.648-.036-5.348,0-7.997h7.997v-7.997Z"/>
      <polygon class="g" points="1475.481 169.943 1483.478 169.943 1483.478 193.935 1499.473 193.935 1499.473 201.933 1475.481 201.933 1475.481 169.943"/>
      <path class="h" d="M1379.515,225.925v7.997h-7.997c-.283,6.947.397,14.038,0,20.993-.329,5.767-4.137,2.227-7.997,2.999.138-7.97-.099-16.021,0-23.992h-7.997c-.283-.283,0-6.107,0-7.997,7.973-.048,16.018.034,23.992,0Z"/>
      <path class="g" d="M1371.518,185.938v5.998c-5.608,2.638-25.037,3.147-32.988,1.999-.64-.092-3.503-3.566-6.998-1.999v-5.998h39.986Z"/>
      <path class="g" d="M1491.475,145.951c-.465,4.779.665,10.387,0,14.995-.092.64-3.566,3.503-1.999,6.998h-5.998v-21.993h7.997Z"/>
      <path class="k" d="M1427.498,385.871c-.064,5.31.092,10.686,0,15.995-.004,5.852-6.68,5.604-7.997,0-.056-2.647.036-5.35,0-7.997h-7.997l1-1.999h6.998v-5.998c2.245-.439,6.55.681,7.997,0Z"/>
      <path class="k" d="M1249.56,241.919v7.997c0,1.89.283,7.715,0,7.997h-7.997c-3.481-1.225-6.147-3.891-7.997-7.997l1-1.999h6.998v-5.998c2.576-.269,5.556.418,7.997,0Z"/>
      <path class="g" d="M1315.537,201.933c.068-2.648-.044-5.348,0-7.997h15.994v7.997c-2.65.036-5.348-.056-7.997,0-2.932,5.07-5.064,5.058-7.997,0,5.049,2.941,5.06,5.057,0,7.997-2.649.056-5.347-.039-7.997,0-.056,2.649.056,5.348,0,7.997-3.589,5.041-6.397,5.017-9.996,0,5.852.004,5.604,6.68,0,7.997-2.649-.052-5.347.034-7.997,0v-7.997c2.65-.035,5.348.055,7.997,0,0-1.891-.283-7.715,0-7.997,3.315-.033,6.682.049,9.996,0,.056-2.649-.036-5.348,0-7.997,2.65-.036,5.348.056,7.997,0Z"/>
      <path class="k" d="M1307.54,217.927c-.056,2.649.036,5.348,0,7.997-3.314-.044-6.683.066-9.996,0v-7.997c3.313-.069,6.682.046,9.996,0Z"/>
      <path class="k" d="M1323.534,201.933v7.997c-2.65.036-5.348-.056-7.997,0,.044-2.649-.068-5.349,0-7.997,2.649-.056,5.348.056,7.997,0Z"/>
      <path class="g" d="M1233.566,249.917h7.997v7.997c-1.89,0-7.714.283-7.997,0v-7.997Z"/>
      <path class="h" d="M1257.558,289.903c-.681,1.447.439,5.752,0,7.997-2.641-.113-5.352.073-7.997,0v-7.997c1.448.681,5.752-.439,7.997,0Z"/>
      <path class="k" d="M1331.532,265.911c5.852.004,5.604,6.68,0,7.997-2.648-.056-5.348.036-7.997,0-.03-2.649.046-5.349,0-7.997,2.65.044,5.348-.068,7.997,0Z"/>
      <path class="h" d="M1331.532,265.911c2.649.068,5.347-.044,7.997,0v7.997c-2.647.019-5.352.056-7.997,0v-7.997Z"/>
      <path class="g" d="M1257.558,273.909c-.382,1.724.226,4.064,0,5.998-2.245.439-6.55-.681-7.997,0v-5.998h7.997Z"/>
      <path class="j" d="M1427.498,535.821c1.891,0,7.714-.283,7.997,0,.019,10.642-.026,21.348,0,31.989-.004,5.852-6.68,5.604-7.997,0-.091-7.304.014-14.687,0-21.993-3.909-3.21-3.906-6.785,0-9.997Z"/>
      <path class="k" d="M1483.478,591.803l-1,9.997h-6.998v7.997h-7.997v7.997h-7.997v7.997h-7.997v-15.995c2.64-.113,5.366.175,7.997,0,2.622-.609,5.287-1.275,7.997-1.999-3.231-.743-6.4-3.326-7.997-5.998.068-2.65-.044-5.346,0-7.997h7.997c.051,1.984-.03,4.013,0,5.998h5.998c-1.004-7.496,3.09-8.797,9.996-7.997Z"/>
      <path class="k" d="M1475.481,551.816c.113-2.643-.073-5.351,0-7.997h7.997v17.994c-2.649.044-5.349-.068-7.997,0s-5.348-.044-7.997,0c-.048-.692.148-1.457,0-1.999.905-3.213,3.571-5.879,7.997-7.997Z"/>
      <path class="d" d="M1531.461,513.829c-.016,2.648.058,5.351,0,7.997s.037,5.349,0,7.997h-7.997c.116-5.307-.081-10.686,0-15.995h7.997Z"/>
      <path class="k" d="M1427.498,535.821c.003,3.319-.006,6.678,0,9.997h-7.997c-.033-3.313.049-6.684,0-9.997.004-5.852,6.68-5.604,7.997,0Z"/>
      <path class="i" d="M1435.495,567.811c.008,3.315-.022,6.682,0,9.997h-7.997c-.028-3.314.041-6.683,0-9.997h7.997Z"/>
      <path class="f" d="M1507.47,559.813v9.997h-7.997c.229-3.288-.153-6.698,0-9.997h7.997Z"/>
      <path class="i" d="M1427.498,527.824c.002,2.655-.003,5.343,0,7.997h-7.997c-.039-2.648.012-5.349,0-7.997h7.997Z"/>
      <path class="i" d="M1427.498,401.866c-.046,2.65.03,5.347,0,7.997h-7.997c-.014-2.648.056-5.351,0-7.997h7.997Z"/>
      <path class="h" d="M1459.487,601.799h7.997v5.998c-2.214,1.569-6.015,1.574-7.997,0,.03-1.987-.051-4.012,0-5.998Z"/>
      <path class="f" d="M1467.484,607.797l-1,1.999c-2.326.101-4.699-.153-6.998,0v-1.999h7.997Z"/>
      <path class="i" d="M1491.475,287.904c4.21-.478,7.287-.125,7.997,4.998,1.762,12.722-1.292,28.821,0,41.986l-2.999,2.999h-4.998v12.996l-2.999,2.999h-4.998c.714,7.631-1.784,7.487-7.997,7.997-1.746-.568-1.72-1.235,0-1.999v-21.993h7.997v-39.987h7.997c.028-3.314-.041-6.683,0-9.997Z"/>
      <path class="j" d="M1475.481,551.816c-.113,2.643.073,5.351,0,7.997h-7.997c-.029-.108-1.647.376-1.999-1-1.622-6.34,4.486-7.924,9.996-6.998Z"/>
      <path class="f" d="M1475.481,359.88v1.999c-2.62.215-5.364-.139-7.997,0l1-1.999h6.998Z"/>
      <rect class="e" x="1281.549" y="279.907" width="7.997" height="9.997"/>
      <rect class="f" x="1273.552" y="265.911" width="7.997" height="7.997"/>
    </g>
  </g>
</svg>