<?xml version="1.0" encoding="UTF-8"?>
<svg id="b" data-name="Layer 2" xmlns="http://www.w3.org/2000/svg" width="717.229" height="1012.133" viewBox="0 0 717.229 1012.133">
  <defs>
    <style>
      .d {
        fill: #aa1f65;
      }

      .e {
        fill: #fe8042;
      }

      .f {
        fill: #fe4f69;
      }

      .g {
        fill: #3368db;
      }

      .h {
        fill: #49e6eb;
      }

      .i {
        fill: #fed945;
      }

      .j {
        fill: #46d4e9;
      }

      .k {
        fill: #fef6f7;
      }

      .l {
        fill: #2c1054;
      }
    </style>
  </defs>
  <g id="c" data-name="Layer 1">
    <g>
      <path class="e" d="M7.991,441.622c-.039-72.255.029-144.56,0-216.814h7.991v-63.945h7.991v-39.966h7.991v-15.986h7.991v-15.986h7.991v-15.986h7.991v-7.993h7.991v-7.993h7.991v-7.993h7.991v-7.993h7.991v-7.993h7.991v-7.993h16.982v-7.993h15.983V7.993h23.974V0h63.931v7.993h24.973v8.992h15.983v7.993h15.983v7.993h7.991v7.993h15.983v7.993h7.991v7.993h7.991v15.986h7.991c.013,15.971-.017,31.988,0,47.959-.571,1.871-2.568,2.596-5.994,2.175.764,7.126-1.233,8.227-7.991,7.993.764,7.126-1.233,8.227-7.991,7.993.612,3.117-.054,5.057-1.998,5.819-1.646,3.273-14.047,3.131-15.983,0,3.059.402,2.923,7.332,0,7.993-1.646,3.273-14.047,3.131-15.983,0,3.059.402,2.923,7.332,0,7.993-1.646,3.273-14.047,3.131-15.983,0,6.518,5.608-1.931,14.625-7.991,7.993,3.272,1.647,3.13,14.05,0,15.986-.402,3.06-7.33,2.923-7.991,0,.775-.001,1.973.19,1.998.673.603,11.71.596,26.402,0,38.118l-1.998,1.175c-.477,3.093-8.249,2.955-8.99,0,.779.208,1.947.541,1.998,1.14.5,5.896.494,16.517,0,22.412l-1.998,1.426c.447-3.072,8.215-2.977,8.99,0,.787.087,1.972.365,1.998.922.562,12.086,1.145,30.349,0,42.049.583,2.764-.083,4.427-1.998,4.988.402-3.06,7.33-2.923,7.991,0,.781.089,1.956.344,1.998.895.272,3.57.608,27.866,0,29.628l-1.998,1.45c.847-3.498,9.804-2.763,9.989,1.139v12.792c3.2-.551,5.198.134,5.994,2.055v15.986h7.991v15.986h7.991v7.993h7.991v15.986h7.991v7.993h7.991v15.986h7.991v7.993h7.991v24.979h7.991v23.979h7.991v55.952h-7.991c-2.439-7.079-2.477-14.636-1.584-21.981-3.365.653-5.501-.013-6.407-1.998-3.286-1.69-3.118-14.075,0-15.986-.402,3.06-7.33,2.923-7.991,0-3.272-1.647-3.13-14.05,0-15.986-.402,3.06-7.33,2.923-7.991,0-3.272-1.647-3.13-14.05,0-15.986-4.273,4.916-11.655,1.824-10.165-5.995-7.125.764-8.226-1.234-7.991-7.993-7.991.933-8.074-2.064-7.991-8.992-7.125.764-8.226-1.234-7.991-7.993-7.125.764-8.226-1.234-7.991-7.993-7.052.79-8.496-1.338-7.815-8.119-2.186.258-4.164-.813-5.994-1.872-9.977,2.936-20.76,5.197-18.98-6.121-4.8.506-9.498.032-13.985-1.872-4.989.548-6.987,2.775-5.994,6.679l-1.998,1.314c-1.691,1.462-3.635,2.295-5.854,1.977.368,7.144-1.036,8.468-8.131,8.191.79,7.053-1.339,8.498-8.117,7.817.258,2.185-.811,4.165-1.872,5.995-.622,1.99-2.662,2.657-6.12,1.998.542,2.558-.295,4.911-1.872,6.994,5.892,8.774-2.952,13.354-7.991,7.993.776.21,1.84.498,1.998,1.165.491,2.075.334,18.759,0,21.357l-1.998,1.457c-.402,3.06-7.33,2.923-7.991,0,.781.089,1.956.344,1.998.895.272,3.57.608,27.866,0,29.628l-1.998,1.45c-.402,3.06-7.33,2.923-7.991,0,.787.087,1.97.364,1.998.922.61,12.212.471,26.793,0,39.062.718,4.11.052,6.768-1.998,7.975-.665,2.001-2.705,2.667-6.12,1.998l.209,110.005c-.244,8.33-.938,16.624-2.081,24.879-.622,1.99-2.661,2.656-6.12,1.998.53,2.221-.399,4.292-1.872,5.995,4.686,7.581,1.343,10.688-5.994,10.168.612,3.114-.054,5.054-1.998,5.819-.086.788-.366,1.975-.92,1.998-14.767.618-32.057.615-46.835,0l-1.192-1.998c-3.059-.402-2.923-7.332,0-7.993-1.646,3.273-14.047,3.131-15.983,0-1.871-.57-2.595-2.569-2.174-5.995-3.117.612-5.056-.055-5.817-1.998-.016-2.653.011-5.34,0-7.993h-7.991v-7.993h-7.991v-15.986h-7.991v-24.979h-7.991c-.039-34.621.052-69.291,0-103.911-2.748-10.583-2.693-21.382,0-31.973-.548-4.99-2.774-6.988-6.678-5.995l-1.313-1.998c-.012-7.98.005-16,0-23.979-1.969-13.635-1.961-27.33,0-40.965Z"/>
      <path class="l" d="M55.94,731.374c.064-.814.316-1.943.934-2.016,7.462-.89,9.628.06,9.232,8.011,7.125-.764,8.226,1.233,7.991,7.993,7.73-1.823,10.594,5.61,5.817,9.991,1.646-3.273,14.047-3.131,15.983,0,1.871.571,2.596,2.569,2.174,5.995,7.73-1.823,10.594,5.61,5.817,9.991.186-.774.438-1.716,1.122-1.998,1.307-.538,15.595-.864,15.859,1.998,3.059.402,2.923,7.332,0,7.993.214-.778.525-1.897,1.165-1.998,2.82-.448,18.65-.474,21.353,0l1.456,1.998c1.992.632,2.658,2.672,1.998,6.121,7.381-.449,14.729.384,21.976,1.872,1.99.622,2.656,2.662,1.998,6.121,2.219-.531,4.288.407,5.994,1.872,2.784-2.498,5.242-2.491,7.991,0,1.462,1.692,2.295,3.636,1.976,5.856,7.14-.369,8.467,1.037,8.189,8.132,7.051-.791,8.497,1.341,7.815,8.119,4.798-.487,9.521-.072,13.985,1.872,1.99.622,2.656,2.662,1.998,6.121,2.183-.258,4.163.812,5.994,1.872,16.173-2.815,32.779-2.866,48.947,0,4.593-1.348,9.263-2.523,13.985-1.585-.653-3.369.013-5.505,1.998-6.409,9.873-2.067,19.945-2.556,29.968-1.585-.069-1.404-.21-7.481,1.248-7.735,8.476-1.479,17.49-1.08,25.723,1.327,4.989-.548,6.987-2.775,5.994-6.679l1.998-1.314c5.381-2.501,10.592-2.465,15.983,0,4.989-.548,6.987-2.775,5.994-6.679l1.998-1.314c2.749-2.495,5.207-2.501,7.991,0,3.059.402,2.923,7.332,0,7.993,1.646-3.273,14.047-3.131,15.983,0,1.871.571,2.596,2.569,2.174,5.995,7.73-1.823,10.594,5.61,5.817,9.991,1.646-3.273,14.047-3.131,15.983,0,3.059.402,2.923,7.332,0,7.993,1.646-3.273,14.047-3.131,15.983,0,1.871.571,2.596,2.569,2.174,5.995,7.73-1.823,10.594,5.61,5.817,9.991l1.122-1.998c2.931-.67,14.614-.842,15.859,1.998,1.709.675,2.54,2.673,2.493,5.995h20.024l1.456,1.998c-.048,7.978.035,16.001,0,23.979h-7.991v16.985h-7.991v7.993h-7.991v7.993h-16.982v7.993h-7.991v7.993h-7.991v7.993h-15.983v7.993h-7.991v7.993h-15.983v7.993h-7.991v7.993h-15.983v7.993h-15.983v7.993h-16.982v7.993h-15.983v7.993h-23.974v7.993h-31.966v7.993h-80.913v-7.993h-23.974v-7.993h-23.974v-7.993h-7.991v-7.993h-15.983v-7.993h-8.99v-7.993h-15.983v-7.993h-7.991v-7.993h-7.991v-7.993h-7.991v-15.986h-7.991v-7.993h-7.991v-15.986h-7.991v-16.985h-7.991v-23.979h-7.991v-71.938h7.991v-31.973h7.991v-15.986h7.991v-7.993h7.991Z"/>
      <path class="k" d="M321.654,538.539c.016,2.653-.011,5.34,0,7.993h7.991v31.973h7.991v-7.993h16.982v-7.993h15.983v-7.993h7.991v-7.993h23.974v-7.993h-7.991v-39.966h7.991v-192.835h7.991v-7.993h7.991v-7.993h7.991v7.993h15.983v7.993h15.983v7.993h8.99v7.993h15.983v7.993h15.983v7.993h7.991v7.993h15.983v7.993h15.983v7.993h7.991v7.993h15.983v7.993h16.982v7.993h7.991v7.993h15.983v7.993h15.983v7.993h7.991v7.993h15.983v7.993h15.983v7.993h7.991v7.993h15.983v8.992h16.982v7.993h7.991v7.993h7.991v63.945h-7.991v176.849h-16.982v23.979h-7.991v7.993h-7.991v7.993h-15.983v7.993h-15.983v7.993h-15.983v7.993h-7.991v7.993h-15.983v7.993h-15.983v7.993h-7.991v7.993h-16.982v7.993h-15.983v7.993h-15.983v7.993h-7.991v7.993h-15.983v7.993h-15.983c-.011,2.653.016,5.34,0,7.993h-23.974v-7.993h-16.982v-7.993h-7.991v-7.993h-15.983v-7.993h-15.983v-7.993h-7.991v-7.993h-15.983v-7.993c4.989-.548,6.987-2.775,5.994-6.679l1.998-1.314c.214-.778.525-1.897,1.165-1.998,2.82-.448,18.65-.474,21.353,0l1.456,1.998c-3.059-.402-2.923-7.332,0-7.993.214-.778.525-1.897,1.165-1.998,2.82-.448,18.65-.474,21.353,0l1.456,1.998c-3.059-.402-2.923-7.332,0-7.993.209-.776.523-1.919,1.14-1.998,3.076-.397,19.807-.547,22.407,0l1.426,1.998c-3.059-.402-2.923-7.332,0-7.993.214-.778.525-1.897,1.165-1.998,2.82-.448,18.65-.474,21.353,0l1.456,1.998c-3.372-.687-2.43-8.07-.285-9.782.885-.706,16.314-1.56,16.268,1.789,1.991.626,2.657,2.666,1.998,6.121,4.795-.487,9.519-.073,13.985,1.872,1.433,2.255,2.428,4.518,1.136,6.857,2.339-1.292,4.6-.297,6.855,1.136,2.784-2.501,5.243-2.495,7.991,0,1.99.622,2.656,2.662,1.998,6.121,2.183-.258,4.163.812,5.994,1.872,4.471-1.8,9.239-2.683,13.985-1.585-.719-7.134.808-9.223,8.117-8.407-.528-2.23.387-4.264,1.872-5.995l1.122-1.998h13.83c-.584-3.197.092-5.195,2.029-5.995,4.964-1.531,9.999-2.603,15.084-1.289-1.708-2.416-1.073-4.459.899-6.704,2.749-2.492,5.207-2.498,7.991,0,1.692-1.454,3.632-2.292,5.846-1.978l.147-12.589c.719-3.075,3.425-4.214,8.117-3.418-.258-2.183.811-4.164,1.872-5.995.402-3.06,7.33-2.923,7.991,0l1.998,1.062c-1.46,6.94,5.316,7.205,3.996.252l1.998-1.314c5.086-.703,7.025-2.701,5.817-5.995-7.166.788-8.317-1.334-7.926-8.118-3.198.675-5.159.051-5.883-1.873-.402,3.06-7.33,2.923-7.991,0-1.129-1.99-2.279-4.041-1.803-6.217l-12.951.202-1.229-1.978c-1.654-.596-2.456-2.595-2.406-5.995h-12.157c-2.927-.652-4.124-3.317-3.594-7.993-3.116.612-5.055-.054-5.817-1.998-1.97-5.636-1.959-11.346,0-16.985l1.062-1.998c6.938,1.46,7.203-5.317.252-3.997l-1.313-1.998c-.714-5.093-2.712-7.033-5.994-5.819,1.488,8.585-4.839,10.525-18.98,5.819-5.301,1.969-10.68,1.962-15.983,0-3.336-.674-2.551-8.189-.1-9.711,5.192.578,7.224-.89,6.094-4.403-10.045.434-20.099.268-29.968-1.872-1.991-.627-2.657-2.667-1.998-6.121-4.745.42-9.432-.484-13.985-1.872-1.96-.526-2.584-2.584-1.872-6.172-4.785.518-9.514-.424-14.111-1.821-.481-5.009-3.066-7.048-7.753-6.118-2.933-1.331-3.529-8.795-.239-9.869-1.646,3.273-14.047,3.131-15.983,0-1.989-.62-2.655-2.66-1.998-6.121-3.659.727-5.99.103-6.992-1.872-.402,3.06-7.33,2.923-7.991,0-1.229-1.831-1.763-3.886-2.174-5.995-7.05.793-8.498-1.345-7.815-8.119-4.746.42-9.432-.484-13.985-1.872-1.871-.57-2.595-2.569-2.174-5.995-3.117.612-5.056-.055-5.817-1.998l-2.406-5.995h-12.157c-4.256.042-4.893-8.714-1.42-9.991-.214.778-.531,1.906-1.165,1.998-2.814.408-18.836.493-21.353,0l-1.456-1.998,1.998,1.062c.589,7.257-.211,9.558-7.991,9.106.612,3.117-.054,5.056-1.998,5.819l-1.139,1.998c-3.294.57-13.424.901-14.844-1.998,3.059.402,2.923,7.332,0,7.993-.049.877-.481,1.459-1.122,1.998-.647.544-15.753.843-15.859-1.998l1.998,1.062c.589,7.257-.211,9.558-7.991,9.106.612,3.117-.054,5.056-1.998,5.819l-1.139,1.998c-3.294.57-13.424.901-14.844-1.998l1.998,1.062c.589,7.257-.211,9.558-7.991,9.106.612,3.117-.054,5.056-1.998,5.819l-1.139,1.998c-3.294.57-13.424.901-14.844-1.998,1.99.622,2.656,2.662,1.998,6.121,2.183-.258,4.164.811,5.994,1.872l1.998,1.062c-1.46,6.94,5.316,7.205,3.996.252l1.998-1.314c2.622-1.955,5.366-1.948,7.991,0,1.943,2.625,1.943,5.369,0,7.993.548,4.99,2.774,6.988,6.678,5.995l1.313,1.998c1.937,2.216,2.637,4.321.964,6.732,5.089-1.414,10.151-.796,15.019,1.261,1.84.567,2.582,2.566,2.224,5.995,3.527-.677,5.782-.011,6.767,1.998,1.884,2.176,2.687,4.383,1.064,6.794,2.36-1.313,4.632-.217,6.927,1.199,2.784-2.501,5.243-2.495,7.991,0,1.698,2.098,2.162,4.51,2.108,7.119,3.196-.676,5.157-.051,5.883,1.873.402-3.06,7.33-2.923,7.991,0,.548,4.99,2.774,6.988,6.678,5.995l1.313,1.998c1.471,2.202,2.293,4.459,1.035,6.774,5.085-1.423,10.108-.853,14.947,1.219,1.99.622,2.656,2.662,1.998,6.121,2.183-.258,4.164.811,5.994,1.872,2.784-2.501,5.243-2.495,7.991,0,1.99.622,2.656,2.662,1.998,6.121,2.22-.531,4.291.399,5.994,1.872,3.059.402,2.923,7.332,0,7.993-4.593,1.349-9.263,2.523-13.985,1.585.653,3.369-.013,5.505-1.998,6.409l-.922,1.998h-45.832l-1.194-1.998c3.484-.351,1.901,9.178.729,9.322-13.631,1.681-28.209,1.125-41.684-1.329-4.989.548-6.987,2.775-5.994,6.679l-1.998,1.314c-10.594,2.799-21.365,2.755-31.966,0l-1.998-1.062c1.509-5.051-3.383-7.538-3.992-2.937-.201,1.519-1.06,2.824-2.002,3.999,2.214,2.58,2.634,5.657,1.314,8.812-.814,1.946-18.419,1.623-18.626-.091-1.896-15.739-1.177-33.089,1.329-48.687.622-1.99,2.662-2.657,6.12-1.998-.258-2.183.812-4.164,1.872-5.995-2.97-21.435-3.176-43.529,0-64.944.622-1.99,2.662-2.657,6.12-1.998-.258-2.183.812-4.164,1.872-5.995-2.787-37.214-2.787-74.691,0-111.904.639-1.751,2.637-2.553,5.994-2.407v-11.524c-3.201.551-5.199-.134-5.994-2.055-3.272-1.647-3.13-14.05,0-15.986-.402,3.06-7.33,2.923-7.991,0-3.272-1.647-3.13-14.05,0-15.986.217,3.039-7.824,2.328-9.043,1.209-1.342-1.232-1.955-9.06,1.051-9.203-.214.778-.531,1.906-1.165,1.998-2.814.408-18.836.493-21.353,0l-1.456-1.998c-2.054-.86-2.72-3.22-1.998-7.081-7.713.392-15.392-.425-22.975-1.912-1.951-2.627-1.963-5.372,0-7.993,1.646-3.273,14.047-3.131,15.983,0-3.493-.844-2.763-9.786,1.122-9.991h13.83c-.584-3.197.092-5.195,2.029-5.995,2.652.016,5.339-.011,7.991,0v7.993h7.991v7.993h7.991v7.993h7.991v8.992h7.991v7.993h7.991v7.993h7.991v15.986h7.991v15.986h7.991v15.986h7.991c.035,7.978-.048,16.001,0,23.979Z"/>
      <path class="k" d="M208.776,441.622c2.629,3.776,3.525,9.574-1.139,10.991h-12.789c1.674,7.801-5.442,10.853-10.046,5.995,3.272,1.647,3.13,14.05,0,15.986-.627,1.992-2.667,2.658-6.12,1.998.42,4.746-.484,9.434-1.872,13.988-7.397,1.273-8.974,6.998-1.313,5.995l1.313,1.998c2.747,10.604,2.797,21.377,0,31.973-.622,1.99-2.662,2.657-6.12,1.998.258,2.183-.812,4.164-1.872,5.995,2.983,18.403,3.16,37.569,0,55.952-.622,1.99-2.662,2.657-6.12,1.998.258,2.183-.812,4.164-1.872,5.995,2.754,42.888,2.754,86.001,0,128.89.548,4.99,2.774,6.988,6.678,5.995l1.313,1.998c2.851,9.717,2.281,19.986,1.584,29.974,10.718-2.44,9.575,8.891,8.424,16.844l-2.017,1.141c8.6-4.748,12.817.062,7.991,7.993-2.653-.014-5.338.02-7.991,0-3.059-.402-2.923-7.332,0-7.993-2.626,1.949-5.37,1.958-7.991,0-7.978-.014-15.996.01-23.974,0v-7.993h-23.974v-7.993h-16.982v-7.993h-7.991v-7.993h-15.983v-7.993h-7.991v-7.993h-7.991v-7.993c-.283-.283-6.69,0-7.991,0v-7.993h-7.991c-.023-5.315.032-10.672,0-15.986h7.991v7.993h15.983v7.993h48.947v-7.993h7.991c.025-2.653-.035-5.341,0-7.993.622-1.99,2.662-2.657,6.12-1.998-.258-2.183.812-4.164,1.872-5.995.272-45.608-.203-91.274,0-136.883h7.991v-47.959h7.991v-31.973h7.991v-23.979h7.991c.012-2.653-.017-5.341,0-7.993,2.749-2.492,5.207-2.498,7.991,0,1.696-1.457,3.638-2.292,5.852-1.979-.159-6.712.171-11.048,10.076-9.01,5.399.236,10.746.902,16.038,1.997Z"/>
      <path class="i" d="M321.654,120.896c.053,48.275-.039,96.601,0,144.876h-7.991v15.986h-7.991v15.986h-7.991v15.986h-7.991v7.993h-7.991v7.993h-7.991v7.993h-7.991v7.993c-.283.283-6.69,0-7.991,0h-7.991v-15.986h-7.991v-31.973h-7.991v-47.959h-8.99v-24.979h8.99v-39.966h7.991v-15.986h7.991v-7.993h15.983v-7.993h15.983v-7.993h15.983v-7.993h7.991v-7.993h7.991v-7.993h7.991Z"/>
      <path class="k" d="M7.991,441.622c.007,13.64-.008,27.325,0,40.965H0v-40.965h7.991Z"/>
      <path class="k" d="M15.983,514.559c.063,10.641-.016,21.331,0,31.973h-7.991c-.019-10.642.026-21.33,0-31.973.402-3.06,7.33-2.923,7.991,0Z"/>
      <path class="e" d="M7.991,506.566h7.991c.011,2.653-.016,5.34,0,7.993h-7.991c-.007-2.655.004-5.338,0-7.993Z"/>
      <path class="h" d="M208.776,441.622c8.311-.007,16.662.005,24.973,0v8.992h23.974v7.993h7.991v15.986h7.991v15.986h7.991v15.986h-7.991c-.481-5.009-3.066-7.049-7.753-6.118-2.933-1.331-3.529-8.795-.239-9.869l-1.139,1.998c-3.294.57-13.424.901-14.844-1.998-3.059-.402-2.923-7.332,0-7.993l-1.139,1.998c-3.294.57-13.424.901-14.844-1.998-1.991-.627-2.657-2.667-1.998-6.121-5.118.501-10.169.054-14.984-1.872-4.989.548-6.987,2.775-5.994,6.679l-1.998,1.314c-4.467,1.845-9.243,2.663-13.985,1.585,1.684,11.185-7.95,9.626-17.981,6.409,1.957,2.625,1.96,5.37,0,7.993h-7.991v-7.993c2.653-.011,5.339.016,7.991,0,.01-5.317-.007-10.669,0-15.986h7.991v-15.986h7.991v-7.993h15.983c.014-2.986-.019-6.007,0-8.992Z"/>
      <path class="h" d="M208.776,409.649c5.314-.032,10.669.023,15.983,0v7.993c5.647.024,11.335-.034,16.982,0v7.993h-16.982v7.993h-15.983c-.012,2.653.017,5.34,0,7.993-7.978.007-15.996-.005-23.974,0v8.992c-2.652.014-5.339-.02-7.991,0-2.489-3.095-2.504-5.904,0-8.992.018-2.653-.012-5.34,0-7.993h7.991v-7.993h7.991v-7.993c2.653-.025,5.339.035,7.991,0,1.691-1.462,3.635-2.295,5.854-1.977-.446-3.219.267-5.225,2.137-6.017Z"/>
      <path class="g" d="M176.81,441.622c-.02,2.986.014,6.006,0,8.992-2.652.02-5.339-.014-7.991,0,.019-2.985-.014-6.007,0-8.992h7.991Z"/>
      <path class="e" d="M208.776,409.649v7.993c-2.653.025-5.339-.035-7.991,0v-7.993c2.652-.011,5.339.016,7.991,0Z"/>
      <path class="h" d="M136.853,699.401c-.016,2.653.011,5.341,0,7.993h-7.991c.035-2.652-.025-5.341,0-7.993h7.991Z"/>
      <path class="i" d="M216.767,474.594c5.646-.034,11.335.025,16.982,0v7.993h15.983v7.993h15.983v7.993h7.991c.011,2.653-.016,5.34,0,7.993.222,37.268.222,74.636,0,111.904-.622,1.99-2.662,2.657-6.12,1.998.258,2.183-.812,4.164-1.872,5.995-.129,21.631.129,43.314,0,64.944-.622,1.99-2.662,2.657-6.12,1.998.258,2.183-.812,4.164-1.872,5.995-.095,15.97.071,31.989,0,47.959h15.983c.025-2.653-.035-5.341,0-7.993.402-3.06,7.33-2.923,7.991,0,10.639,0,21.327.064,31.966,0,4.989-.548,6.987-2.775,5.994-6.679l1.998-1.314c13.636-.081,27.32.06,40.956,0v-7.993h47.948v-7.993c5.316-.007,10.667.01,15.983,0,2.622-1.962,5.367-1.958,7.991,0,4.594-1.349,9.265-2.523,13.985-1.585-.762-7.347,1.551-10.955,9.989-6.409,2.494-1.917,5.062-2.673,7.816-1.095-1.304-2.352-.247-4.619,1.175-6.898-1.95-2.627-1.962-5.372,0-7.993,2.255-1.432,4.517-2.429,6.855-1.136-1.291-2.339-.296-4.601,1.136-6.857-1.952-2.628-1.965-5.373,0-7.993,2.186-1.899,4.362-2.672,6.772-1.035-1.313-2.711-.222-5.326,1.22-7.958-1.948-2.625-1.952-5.37,0-7.993.57-1.871,2.568-2.596,5.994-2.175-.611-3.117.055-5.057,1.998-5.819,4.989-.548,6.987-2.775,5.994-6.679l1.998-1.314c2.626-1.949,5.37-1.959,7.991,0,5.303-1.96,10.682-1.972,15.983,0,10.64.027,21.325-.02,31.966,0v7.993h-7.991v7.993c-2.623,1.961-5.367,1.959-7.991,0-2.623,1.96-5.367,1.957-7.991,0-4.941,1.539-9.958,2.564-15.019,1.261,1.234,2.31.538,4.574-.964,6.732-.521,1.96-2.578,2.584-6.171,1.873.663,2.574-.257,5.013-1.82,7.12,1.432,2.255,2.428,4.518,1.136,6.857,2.339-1.292,4.6-.297,6.855,1.136,2.626-1.948,5.37-1.955,7.991,0,2.622-1.955,5.366-1.948,7.991,0,2.255-1.433,4.517-2.428,6.855-1.136-1.292-2.339-.296-4.601,1.136-6.857.402-3.06,7.33-2.923,7.991,0,.514-1.745,2.512-2.487,5.994-2.224-.645-7.287.411-9.358,7.991-8.943-.612-3.117.054-5.057,1.998-5.819,5.648-.01,11.333.007,16.982,0v-7.993h7.991c.012,2.653-.018,5.34,0,7.993,1.971,2.621,1.961,5.367,0,7.993.01,5.65-.012,11.336,0,16.985,2.774,10.601,2.802,21.376,0,31.973-.57,1.871-2.568,2.596-5.994,2.175.611,3.117-.055,5.057-1.998,5.819-2.043,1.68-4.436,2.095-6.992,2.175.765,7.126-1.235,8.228-7.991,7.993.612,3.116-.054,5.055-1.998,5.819-1.646,3.273-14.047,3.131-15.983,0,3.059.402,2.923,7.332,0,7.993-.214.778-.531,1.906-1.165,1.998-2.814.408-18.836.493-21.353,0l-1.456-1.998c1.956,2.627,1.969,5.373,0,7.993-1.646,3.273-14.047,3.131-15.983,0-2.358,0-15.418-.565-15.983,0v7.993h-23.974v7.993h-24.973v7.993h-23.974v7.993h-23.974v7.993c-2.652.012-5.339-.018-7.991,0s-5.339-.018-7.991,0c-4.989.548-6.987,2.775-5.994,6.679l-1.998,1.314c-5.314.032-10.668-.032-15.983,0-4.989.548-6.987,2.775-5.994,6.679l-1.998,1.314c-8.309.05-16.664-.036-24.973,0v7.993c-10.64.014-21.325-.019-31.966,0-4.593,1.348-9.263,2.523-13.985,1.585.653,3.369-.013,5.505-1.998,6.409-16.297.029-32.651.097-48.947,0-1.99-.622-2.656-2.662-1.998-6.121-2.183.258-4.163-.812-5.994-1.872-5.314-.032-10.669.023-15.983,0v-7.993h-7.991v-7.993h-7.991c-.025-2.653.035-5.341,0-7.993s.025-5.341,0-7.993c-2.652-.012-5.339.018-7.991,0,0-2.359.565-15.421,0-15.986h-7.991c-.047-10.642.063-21.331,0-31.973-.548-4.99-2.774-6.988-6.678-5.995l-1.313-1.998c-.256-42.927-.256-85.963,0-128.89.622-1.99,2.662-2.657,6.12-1.998-.258-2.183.812-4.164,1.872-5.995.111-18.634-.111-37.318,0-55.952.622-1.99,2.662-2.657,6.12-1.998-.258-2.183.812-4.164,1.872-5.995.063-10.641-.009-21.331,0-31.973.002-2.655-.005-5.338,0-7.993,5.314-.032,10.668.023,15.983,0v-7.993c5.314-.023,10.669.032,15.983,0,4.989-.548,6.987-2.775,5.994-6.679l1.998-1.314Z"/>
      <path class="f" d="M289.689,819.299v7.993c-5.315.007-10.667-.01-15.983,0v-7.993c5.316-.007,10.667.01,15.983,0Z"/>
      <path class="f" d="M176.81,787.326v7.993c-2.653-.02-5.338.014-7.991,0v-7.993c2.652.005,5.339-.018,7.991,0Z"/>
      <path class="f" d="M378.593,795.319v7.993c-2.653.011-5.339-.016-7.991,0v-7.993c2.652-.012,5.339.018,7.991,0Z"/>
      <path class="f" d="M354.619,803.312v7.993c-2.652.011-5.339-.016-7.991,0v-7.993c2.653-.011,5.339.016,7.991,0Z"/>
      <path class="f" d="M216.767,819.299c2.652.016,5.339-.011,7.991,0v7.993c-2.652-.016-5.339.011-7.991,0v-7.993Z"/>
      <path class="g" d="M442.524,538.539c-2.652-.035-5.34.025-7.991,0v-7.993h-15.983v-7.993h-7.991v-192.835h7.991v-7.993h7.991v7.993h15.983v7.993h7.991v7.993h16.982v7.993h15.983v7.993h7.991v7.993h15.983v7.993h15.983v7.993h7.991v7.993h15.983v7.993h15.983v7.993h7.991v7.993h16.982v7.993h15.983v7.993h7.991v7.993h15.983v8.992h15.983v7.993h7.991v7.993h15.983v7.993h15.983v7.993h7.991c-.054,39.949.072,79.948,0,119.897-.627,1.992-2.667,2.658-6.12,1.998.42,4.746-.484,9.434-1.872,13.988-.039,21.632.029,43.312,0,64.944h-7.991v-7.993h-15.983v-8.992h-15.983v-7.993h-7.991v-7.993h-15.983v-7.993h-15.983v-7.993h-7.991v-7.993h-15.983v-7.993h-16.982v-7.993h-7.991v-7.993h-15.983v-7.993c-2.652-.025-5.34.035-7.991,0-1.99-.622-2.656-2.662-1.998-6.121-2.22.531-4.291-.399-5.994-1.872-2.652-.035-5.339.025-7.991,0v-7.993h-15.983v-7.993c-2.652-.025-5.339.035-7.991,0-1.99-.622-2.656-2.662-1.998-6.121-2.22.531-4.291-.399-5.994-1.872-2.652-.035-5.339.025-7.991,0v-7.993h-16.982v-7.993c-2.652-.025-5.339.035-7.991,0-1.99-.622-2.656-2.662-1.998-6.121-2.22.531-4.291-.399-5.994-1.872Z"/>
      <path class="h" d="M297.68,626.464c-2.653-.018-5.339.012-7.991,0v-7.993h15.983v-7.993h7.991v-7.993h15.983v-7.993h7.991v-7.993h16.982v-7.993h15.983v-7.993h7.991v-7.993h23.974v7.993h15.983c.012,2.653-.018,5.34,0,7.993,1.969,2.621,1.958,5.366,0,7.993-8.472,2.136-8.449,6.118,0,7.993,1.472,2.201,2.292,4.458,1.035,6.774,5.085-1.423,10.108-.853,14.947,1.219,2.494,2.749,2.501,5.208,0,7.993-4.465,1.844-9.237,2.664-13.985,1.585l.176,4.41c7.28-.802,10.107,2.183,5.817,9.991-8.472,2.135-8.449,6.118,0,7.993,1.472,2.201,2.292,4.458,1.035,6.774,5.085-1.423,10.108-.853,14.947,1.219,1.969,2.621,1.958,5.366,0,7.993-4.467,1.845-9.243,2.663-13.985,1.585v4.536c4.789-.487,9.517-.074,13.985,1.872,1.416,2.295,2.511,4.568,1.198,6.929,2.411-1.623,4.617-.82,6.793,1.065,1.367,8.148,6.722,10.713,5.994,1.912-2.251.446-4.25-.409-5.994-1.912-1.432-2.255-2.428-4.518-1.136-6.857-2.338,1.292-4.6.296-6.855-1.136-1.969-2.621-1.958-5.366,0-7.993,8.472-2.135,8.449-6.118,0-7.993-1.472-2.201-2.292-4.458-1.035-6.774-5.085,1.423-10.108.853-14.947-1.219-2.494-2.749-2.501-5.208,0-7.993,4.465-1.844,9.237-2.664,13.985-1.585l-.176-4.41c-7.28.802-10.107-2.183-5.817-9.991,8.472-2.135,8.449-6.118,0-7.993-1.472-2.201-2.292-4.458-1.035-6.774-5.085,1.423-10.108.853-14.947-1.219-1.969-2.621-1.958-5.366,0-7.993,2.621-1.974,5.367-1.969,7.991,0,5.316.011,10.667-.008,15.983,0v7.993h7.991c.011,2.653-.016,5.34,0,7.993,1.843,4.464,2.663,9.237,1.584,13.988.018.227,4.141.116,4.409-.408v-12.16l1.998-1.42c1.424,0,8.672-.318,8.99,0v7.993h15.983v7.993h7.991c.012,2.653-.018,5.34,0,7.993,5.315.01,10.667-.007,15.983,0,.283.283,0,6.691,0,7.993,5.315.01,10.667-.007,15.983,0v7.993c-5.316-.013-10.667.01-15.983,0-3.059-.402-2.923-7.332,0-7.993-5.303,1.959-10.682,1.969-15.983,0-2.494-2.749-2.501-5.208,0-7.993-7.639,1.563-15.366,2.611-23.098,1.298,1.204,2.302.673,4.565-.876,6.696-2.315,1.475-4.646,2.067-6.992,1.776-.97.281-.592,19.611.226,20.205.196.143,4.848.243,4.855,0-.765-7.505-.128-14.832,1.911-21.981,8.03-2.514,15.942-2.499,23.974,0,1.433,2.255,2.428,4.518,1.136,6.857,2.339-1.292,4.6-.297,6.855,1.136v7.993c-2.653.012-5.339-.018-7.991,0-2.623,1.977-5.369,1.977-7.991,0,.168-3.176-3.983-8.358-5.994-5.819-2.309,2.916,3.102,5.501,5.994,5.819,1.971,2.621,1.961,5.367,0,7.993.005,2.653.014,5.34,0,7.993-.623,1.991-2.662,2.657-6.12,1.998.309,2.503-.74,4.827-1.872,6.994-2.176,1.885-4.382,2.687-6.793,1.065,1.312,2.361.217,4.633-1.198,6.929l-.955,1.985-13.859-.23c-.201,1.441-.258,2.896-.17,4.366,5.122-.501,10.171-.053,14.984,1.872-1.958-2.627-1.969-5.373,0-7.993.402-3.06,7.33-2.923,7.991,0-.018,2.653.012,5.34,0,7.993-2.653.011-5.339-.016-7.991,0-.01,2.653.018,5.34,0,7.993-.807,1.943-3.138,2.668-6.992,2.175.611,3.117-.054,5.057-1.998,5.819-2.652.017-5.339-.012-7.991,0v7.993c-5.316.007-10.667-.01-15.983,0-1.99-.622-2.656-2.662-1.998-6.121-2.22.531-4.291-.399-5.994-1.872-1.959-.521-2.583-2.579-1.872-6.172-2.187.411-4.202-.731-6.119-1.821-2.653-.018-5.338.018-7.991,0-1.99-.622-2.656-2.662-1.998-6.121-2.183.258-4.163-.812-5.994-1.872-5.314-.032-10.669.023-15.983,0-.011-2.653.016-5.34,0-7.993-1.875-4.809-2.649-9.909-1.584-14.987h-4.535c.548,2.534-.318,4.915-1.872,6.994h-7.991c-2.053-.851-2.718-3.211-1.998-7.081-2.18.168-4.162-.828-5.994-1.912-1.273-7.399-6.997-8.975-5.994-1.314l-1.998,1.314c-2.653-.018-5.339.012-7.991,0-.025-2.653.035-5.34,0-7.993-1.899-2.187-2.672-4.363-1.034-6.773-2.71,1.313-5.324.222-7.956-1.22-5.314-.026-10.668.019-15.983,0-.025-2.653.035-5.34,0-7.993-1.462-1.692-2.295-3.636-1.976-5.855-3.218.446-5.224-.267-6.015-2.138-.018-2.652-.018-5.341,0-7.993,2.295-1.416,4.567-2.511,6.927-1.199-1.622-2.411-.82-4.618,1.064-6.794,4.867-2.061,9.93-2.673,15.019-1.261-1.673-2.411-.973-4.516.964-6.732,5.304-1.539,10.676-2.607,16.095-1.294-1.715-2.417-1.093-4.448.887-6.699,4.593-1.349,9.263-2.523,13.985-1.585-.653-3.369.013-5.505,1.998-6.409-1.646,3.273-14.047,3.131-15.983,0,2.501,2.787,2.505,5.247,0,7.993-5.304,1.539-10.676,2.607-16.095,1.294,1.715,2.417,1.093,4.448-.887,6.699-4.964,1.531-9.999,2.603-15.084,1.289,1.708,2.416,1.073,4.459-.899,6.704-2.255,1.432-4.517,2.429-6.855,1.136,1.291,2.339.296,4.601-1.136,6.857-2.652.018-5.339,0-7.991,0-2.625,1.965-5.37,1.973-7.991,0Z"/>
      <path class="j" d="M588.367,683.415h7.991v7.993h15.983c.283.283,0,6.691,0,7.993l-1.139,1.998h-12.789c.551,3.201-.134,5.199-2.055,5.995,1.646-3.273,14.047-3.131,15.983,0-3.059-.402-2.923-7.332,0-7.993,2.358,0,15.418-.565,15.983,0,.012,2.653-.018,5.34,0,7.993,1.972,2.622,1.965,5.367,0,7.993,1.965,2.626,1.972,5.372,0,7.993-.018,2.653.012,5.34,0,7.993h-7.991v15.986c-2.653.014-5.339-.02-7.991,0l-1.998-1.062c1.509-5.051-3.383-7.538-3.992-2.937-.201,1.519-1.06,2.824-2.002,3.999-.035,2.653.025,5.34,0,7.993-5.316.007-10.667-.01-15.983,0-5.304,1.539-10.676,2.607-16.095,1.294,1.715,2.417,1.092,4.448-.887,6.699-.035,2.653.025,5.34,0,7.993h-7.991v7.993c-5.314-.023-10.669.032-15.983,0-1.99-.622-2.656-2.662-1.998-6.121-2.183.258-4.164-.811-5.994-1.872-2.652-.018-5.339.018-7.991,0-1.99-.622-2.656-2.662-1.998-6.121-2.183.258-4.163-.812-5.994-1.872-1.977-2.623-1.977-5.37,0-7.993.018-2.653-.012-5.34,0-7.993h23.974v-7.993h15.983v-7.993h7.991v-7.993c2.985-.014,6.005.019,8.99,0,2.255-1.433,4.517-2.428,6.855-1.137-1.292-2.339-.296-4.601,1.136-6.857.063-10.641.023-21.332,0-31.973Z"/>
      <path class="h" d="M523.437,675.422c3.059.402,2.923,7.332,0,7.993-2.653,0-5.339.018-7.991,0-3.059-.402-2.923-7.332,0-7.993,2.625-1.965,5.37-1.972,7.991,0Z"/>
      <path class="h" d="M531.429,658.436c1.99.622,2.656,2.662,1.998,6.121,2.22-.531,4.291.399,5.994,1.872,1.966,2.963,1.975,6.034,0,8.992-.017,2.653.012,5.34,0,7.993-2.653.012-5.339-.018-7.991,0-1.99-.622-2.656-2.662-1.998-6.121-2.183.258-4.164-.811-5.994-1.872-1.825-.748-2.55-3.079-2.174-6.994-3.116.612-5.056-.054-5.817-1.998.017-2.653-.012-5.34,0-7.993,5.316-.008,10.667.011,15.983,0Z"/>
      <path class="h" d="M547.411,658.436c5.316-.005,10.667.009,15.983,0v7.993h-7.991v8.992c-.283.283-6.689,0-7.991,0-2.052-.85-2.718-3.21-1.998-7.081-2.253.446-4.251-.41-5.994-1.912-3.037-.373-2.945-7.3,0-7.993,2.655-.002,5.337.003,7.991,0Z"/>
      <path class="h" d="M636.316,707.394c1.302,0,7.709-.283,7.991,0v7.993h7.991v7.993c-2.653.012-5.338-.018-7.991,0-2.621,1.972-5.366,1.965-7.991,0h-7.991c.018-2.653,0-5.34,0-7.993.57-1.871,2.568-2.596,5.994-2.175-.611-3.117.055-5.057,1.998-5.819Z"/>
      <path class="g" d="M588.367,755.353v7.993h-16.982c.035-2.653-.025-5.34,0-7.993,5.649-.008,11.333.011,16.982,0Z"/>
      <path class="g" d="M378.593,675.422c-.019-2.986.014-6.006,0-8.992h7.991c.024,5.648-.034,11.337,0,16.985h-7.991c-.012-2.653.017-5.34,0-7.993Z"/>
      <path class="g" d="M458.507,602.484v15.986h-7.991c-.023-5.315.032-10.671,0-15.986h7.991Z"/>
      <path class="h" d="M692.256,602.484c-.01,5.317.007,10.67,0,15.986h-7.991c.01-5.317-.007-10.67,0-15.986h7.991Z"/>
      <path class="g" d="M523.437,755.353c-.018,2.652-.018,5.341,0,7.993,2.653.016,5.339-.011,7.991,0v7.993c-2.652-.018-5.339.012-7.991,0-.012-2.653.018-5.34,0-7.993-5.314-.032-10.668.023-15.983,0v-7.993h15.983Z"/>
      <path class="g" d="M354.619,666.429v-7.993h7.991c.012,2.654-.017,5.34,0,7.993,2.653.018,5.339-.012,7.991,0v8.992c-1.302,0-7.709.283-7.991,0-.014-2.986.019-6.006,0-8.992-2.653-.018-5.339.018-7.991,0Z"/>
      <path class="g" d="M337.637,650.443c2.985.015,6.005-.01,8.99,0,.025,2.653-.035,5.34,0,7.993h-8.99v-7.993Z"/>
      <path class="g" d="M313.663,634.457h7.991c.025,2.653-.035,5.34,0,7.993h-7.991c-.012-2.653.018-5.34,0-7.993Z"/>
      <path class="i" d="M588.367,658.436h7.991v7.993h-7.991c-.005-2.653.018-5.34,0-7.993Z"/>
      <path class="g" d="M305.671,626.464v7.993h-7.991v-7.993c2.652.018,5.339,0,7.991,0Z"/>
      <path class="i" d="M273.706,618.47c-.016,2.653.011,5.34,0,7.993h-7.991c.016-2.653-.011-5.34,0-7.993h7.991Z"/>
      <path class="h" d="M523.437,586.498c2.652.035,5.339-.025,7.991,0v7.993c-2.652-.035-5.339.025-7.991,0v-7.993Z"/>
      <path class="i" d="M265.714,691.408c-.016,2.653.011,5.34,0,7.993h-7.991c.016-2.653-.011-5.34,0-7.993h7.991Z"/>
      <path class="g" d="M402.567,691.408c2.653.016,5.339-.011,7.991,0v7.993c-2.653-.018-5.338.012-7.991,0v-7.993Z"/>
      <path class="g" d="M418.55,699.401c2.653.018,5.338-.012,7.991,0,.283.283,0,6.691,0,7.993,2.652.035,5.339-.025,7.991,0v7.993c-2.655.005-5.337-.005-7.991,0v-7.993c-2.652-.035-5.339.025-7.991,0v-7.993Z"/>
      <path class="g" d="M418.55,578.505h7.991v7.993c-2.652-.005-5.339-.018-7.991,0,.01,2.653-.018,5.34,0,7.993,5.314.032,10.669-.023,15.983,0,.012,2.653-.018,5.34,0,7.993,2.653.016,5.339-.011,7.991,0v7.993c-2.653.011-5.339-.016-7.991,0,.018,2.653-.012,5.34,0,7.993h7.991v7.993c-5.314.023-10.669-.032-15.983,0,.018,2.653-.018,5.34,0,7.993,5.314.032,10.669-.023,15.983,0,.012,2.653-.018,5.34,0,7.993,2.653.016,5.339-.011,7.991,0v7.993c-2.653.011-5.339-.016-7.991,0,.01,2.653-.018,5.34,0,7.993,2.653.016,5.339-.011,7.991,0,.012,2.653-.017,5.34,0,7.993,2.652.035,5.339-.025,7.991,0v8.992h-7.991c-.014-2.986.019-6.007,0-8.992-2.652-.035-5.339.025-7.991,0-.012-2.653.018-5.34,0-7.993-5.314-.032-10.669.023-15.983,0v-7.993c5.314-.023,10.669.032,15.983,0-.01-2.653.018-5.34,0-7.993-5.314-.032-10.669.023-15.983,0-.012-2.653.018-5.34,0-7.993-2.653-.016-5.339.011-7.991,0v-7.993c2.653-.011,5.339.016,7.991,0-.018-2.653.012-5.34,0-7.993h-7.991v-7.993c5.314-.023,10.669.032,15.983,0-.018-2.653.018-5.34,0-7.993-5.314-.032-10.669.023-15.983,0-.012-2.653.018-5.34,0-7.993-2.653-.016-5.339.011-7.991,0v-7.993c2.653-.012,5.339.018,7.991,0-.01-2.653.018-5.34,0-7.993Z"/>
      <path class="g" d="M636.316,707.394v7.993h-7.991c0-2.653.018-5.34,0-7.993h7.991Z"/>
      <path class="g" d="M644.307,723.381v7.993h-7.991v-7.993c2.653,0,5.339.018,7.991,0Z"/>
      <path class="d" d="M273.706,739.367c.035-2.652-.025-5.341,0-7.993h7.991v7.993h-7.991Z"/>
      <path class="i" d="M321.654,731.374v7.993c-2.653.011-5.339-.016-7.991,0v-7.993c2.653-.011,5.339.016,7.991,0Z"/>
      <path class="h" d="M483.48,562.518c2.652.035,5.339-.025,7.991,0v7.993c-2.652-.035-5.339.025-7.991,0v-7.993Z"/>
      <path class="h" d="M442.524,538.539c2.652.035,5.34-.025,7.991,0v7.993c-2.652-.035-5.339.025-7.991,0v-7.993Z"/>
      <path class="g" d="M604.35,747.36c.035-2.653-.025-5.34,0-7.993h7.991v7.993c-2.653.02-5.339-.014-7.991,0Z"/>
      <path class="g" d="M539.42,771.34c2.652.018,5.339-.012,7.991,0v7.993c-2.653-.016-5.339.011-7.991,0v-7.993Z"/>
      <path class="i" d="M168.818,594.491c-.016,2.653.011,5.34,0,7.993h-7.991c.016-2.652-.011-5.341,0-7.993h7.991Z"/>
      <path class="i" d="M160.827,731.374h7.991c.011,2.653-.016,5.34,0,7.993h-7.991c-.011-2.653.016-5.341,0-7.993Z"/>
      <path class="i" d="M176.81,530.546c-.016,2.653.011,5.34,0,7.993h-7.991c.016-2.653-.011-5.34,0-7.993h7.991Z"/>
      <path class="g" d="M491.472,626.464c.018,2.653-.018,5.34,0,7.993,5.315.01,10.667-.01,15.983,0v7.993c-2.653-.005-5.339.018-7.991,0s-5.339.012-7.991,0c-.012-2.653.018-5.34,0-7.993-7.976-.015-15.998-.039-23.974,0-.048,7.978.035,16.001,0,23.979h-8.99v-23.979c2.985-.01,6.005.015,8.99,0,.016-2.653-.011-5.34,0-7.993,7.978.011,15.996-.014,23.974,0Z"/>
      <path class="g" d="M467.497,683.415c-.018,2.653.01,5.34,0,7.993-5.647.034-11.335-.024-16.982,0v-7.993c.6-.601,14.503,0,16.982,0Z"/>
      <path class="g" d="M483.48,666.429c-.016,2.986.011,6.007,0,8.992-2.652.025-5.34-.035-7.991,0-.014,2.653.018,5.34,0,7.993h-7.991c.018-2.653-.012-5.34,0-7.993,2.652-.025,5.34.035,7.991,0,.016-2.986-.011-6.006,0-8.992h7.991Z"/>
      <path class="k" d="M515.446,666.429c1.947,2.964,1.956,6.033,0,8.992-.402,3.06-7.33,2.923-7.991,0-.019-2.986.014-6.006,0-8.992.283-.283,6.689,0,7.991,0Z"/>
      <path class="g" d="M539.42,658.436v7.993c-2.652-.035-5.339.025-7.991,0v-7.993c2.655-.005,5.337.002,7.991,0Z"/>
      <path class="g" d="M539.42,666.429c2.652.035,5.339-.025,7.991,0v8.992h-7.991c.019-2.986,0-6.006,0-8.992Z"/>
      <path class="g" d="M467.497,699.401c-.018,2.653.012,5.34,0,7.993-2.985.014-6.005-.019-8.99,0v-7.993h8.99Z"/>
      <path class="g" d="M483.48,650.443c-2.652-.018-5.339.012-7.991,0v-7.993h7.991c.012,2.653-.018,5.34,0,7.993,2.652.018,5.34.018,7.991,0v7.993h-7.991c-.005-2.653.018-5.34,0-7.993Z"/>
      <path class="g" d="M523.437,675.422c2.653.018,5.338-.012,7.991,0v7.993c-2.653.018-5.339,0-7.991,0v-7.993Z"/>
      <path class="g" d="M515.446,666.429h7.991c.318.318,0,7.568,0,8.992-2.653-.018-5.338,0-7.991,0v7.993c-2.653-.018-5.339.012-7.991,0-.012-2.653.017-5.34,0-7.993h7.991c0-2.986-.019-6.007,0-8.992Z"/>
      <path class="g" d="M588.367,715.388c-.016,2.653.011,5.34,0,7.993-2.653.012-5.339-.017-7.991,0v-7.993h7.991Z"/>
      <path class="f" d="M216.767,474.594v7.993c-2.653.011-5.339-.016-7.991,0v-7.993c2.652-.011,5.339.016,7.991,0Z"/>
      <path class="g" d="M410.559,666.429c.01-5.317-.007-10.669,0-15.986h7.991v15.986c-2.653.011-5.339-.016-7.991,0-.006,2.986-.019,6.007,0,8.992,2.653.016,5.339-.011,7.991,0,.025,2.653-.035,5.341,0,7.993,2.652.018,5.339.005,7.991,0,.034-5.648-.024-11.337,0-16.985h7.991v8.992h7.991v7.993c-5.316.008-10.667-.011-15.983,0-.016,2.653.011,5.34,0,7.993h-7.991c-.025-2.653.035-5.341,0-7.993-2.653-.018-5.339.012-7.991,0-.012-2.653.017-5.34,0-7.993-5.314-.032-10.669.023-15.983,0v-8.992c5.314-.023,10.669.032,15.983,0Z"/>
      <rect class="g" x="402.567" y="618.47" width="7.991" height="23.979"/>
      <path class="g" d="M354.619,602.484c.035-2.652-.025-5.34,0-7.993h15.983v7.993c-5.316.007-10.667-.01-15.983,0-.035,2.652.025,5.34,0,7.993-5.649.008-11.333-.011-16.982,0-.035,2.652.025,5.34,0,7.993-5.314.023-10.669-.032-15.983,0-.035,2.652.025,5.34,0,7.993-2.653.012-5.339-.018-7.991,0,.018-2.653-.012-5.34,0-7.993,2.653-.011,5.339.016,7.991,0,.035-2.652-.025-5.34,0-7.993,5.316-.007,10.667.01,15.983,0,.035-2.652-.025-5.34,0-7.993,5.649-.008,11.333.011,16.982,0Z"/>
      <path class="g" d="M394.576,602.484c.035-2.653-.025-5.34,0-7.993h7.991v7.993c-2.653.011-5.339-.016-7.991,0-.035,2.653.025,5.34,0,7.993-5.316.008-10.667-.011-15.983,0,.035-2.653-.025-5.34,0-7.993,5.314-.023,10.669.032,15.983,0Z"/>
      <rect class="g" x="329.646" y="626.464" width="7.991" height="15.986"/>
      <path class="g" d="M378.593,634.457c.035-2.653-.025-5.34,0-7.993h15.983v7.993c-5.314.023-10.669-.032-15.983,0-.035,2.653.025,5.34,0,7.993h-7.991v-7.993c2.653-.011,5.339.016,7.991,0Z"/>
      <path class="g" d="M394.576,650.443c-2.652-.035-5.339.025-7.991,0v-7.993h7.991c.025,2.653-.035,5.34,0,7.993,2.652.035,5.339-.025,7.991,0v7.993h-7.991c-.025-2.653.035-5.34,0-7.993Z"/>
      <path class="g" d="M354.619,642.45c-2.652-.035-5.339.025-7.991,0v-7.993h7.991c.025,2.653-.035,5.34,0,7.993,2.652.035,5.339-.025,7.991,0v7.993h-7.991c-.025-2.653.035-5.34,0-7.993Z"/>
      <rect class="g" x="346.627" y="618.47" width="7.991" height="7.993"/>
      <path class="k" d="M378.593,610.477c-.035,2.653.025,5.34,0,7.993-.283.283-6.689,0-7.991,0-3.059-.402-2.923-7.332,0-7.993,2.653-.018,5.339.005,7.991,0Z"/>
      <path class="g" d="M370.602,610.477v7.993h-7.991v-7.993c2.653-.012,5.339.018,7.991,0Z"/>
      <rect class="g" x="434.533" y="691.408" width="7.991" height="7.993"/>
      <rect class="g" x="378.593" y="586.498" width="7.991" height="7.993"/>
      <rect class="g" x="394.576" y="578.505" width="7.991" height="7.993"/>
      <rect class="g" x="370.602" y="650.443" width="7.991" height="7.993"/>
      <rect class="g" x="596.359" y="699.401" width="15.983" height="7.993"/>
      <path class="g" d="M580.376,739.367c.035-2.653-.025-5.34,0-7.993h15.983v7.993c-5.314.019-10.669-.026-15.983,0-.035,2.653.025,5.34,0,7.993h-8.99v-7.993c2.985-.01,6.005.015,8.99,0Z"/>
      <rect class="g" x="555.403" y="747.36" width="7.991" height="7.993"/>
      <rect class="g" x="539.42" y="755.353" width="7.991" height="7.993"/>
    </g>
  </g>
</svg>