<?xml version="1.0" encoding="UTF-8"?>
<svg id="b" data-name="Layer 2" xmlns="http://www.w3.org/2000/svg" width="1171.98" height="1236.326" viewBox="0 0 1171.98 1236.326">
  <defs>
    <style>
      .d {
        fill: #aa1f65;
      }

      .e {
        fill: #2b0f54;
      }

      .f {
        fill: #fe8042;
      }

      .g {
        fill: #fe4f69;
      }

      .h {
        fill: #3368db;
      }

      .i {
        fill: #49e6eb;
      }

      .j {
        fill: #fed945;
      }
    </style>
  </defs>
  <g id="c" data-name="Layer 1">
    <g>
      <path class="i" d="M995.106,826.498c-.023,13.641.081,27.331,0,40.972-.622,1.991-2.663,2.657-6.121,1.999.258,2.184-.812,4.165-1.872,5.996-.222,37.274-.222,74.649,0,111.924.548,4.991,2.775,6.99,6.68,5.996l1.314,1.999c.079,13.308-.079,26.665,0,39.973.548,4.991,2.775,6.99,6.68,5.996l1.314,1.999c.048,7.98-.048,16.004,0,23.984.548,4.991,2.775,6.99,6.68,5.996l1.314,1.999c.032,5.316-.032,10.673,0,15.989.548,4.991,2.775,6.99,6.68,5.996l1.314,1.999c.05,8.313-.036,16.67,0,24.983h7.994v39.973h-7.994v15.989h-7.994v15.989h-7.994v7.995c-2.653.025-5.341-.035-7.994,0-1.692,1.463-3.637,2.295-5.856,1.977.446,3.22-.267,5.226-2.138,6.018-2.653.035-5.341-.025-7.994,0v7.995h-24.981v7.995c-13.307.059-26.662-.079-39.969,0-4.991.548-6.989,2.775-5.995,6.681l-1.998,1.314c-23.955.143-47.99.143-71.945,0-1.991-.622-2.657-2.663-1.998-6.122-2.184.258-4.165-.812-5.995-1.873-13.64-.081-27.328.081-40.968,0-1.991-.622-2.657-2.663-1.998-6.122-2.184.258-4.165-.812-5.995-1.873-7.979-.048-16.002.048-23.982,0-1.991-.622-2.657-2.663-1.998-6.122-2.184.258-4.165-.812-5.995-1.873-5.316-.032-10.672.032-15.988,0-1.991-.622-2.657-2.663-1.998-6.122-2.184.258-4.165-.812-5.995-1.873-5.316-.032-10.672.023-15.988,0v-7.995h-15.988v-7.995h-15.988v-7.995h-7.994v-7.995c-2.653-.025-5.341.035-7.994,0-1.991-.622-2.657-2.662-1.998-6.122-2.221.531-4.292-.399-5.995-1.873-2.652-.035-5.341.025-7.994,0v-7.995h-7.994v-7.995h-8.993v-7.995c0-1.302-.283-7.712,0-7.995h8.993v-7.995h15.988v-8.994h15.988v-7.995h15.988v-7.995h7.994v-7.995h15.988v-7.995h7.994v-23.984h-7.994v-7.995h-15.988v-7.995h-15.988v-7.995h-15.988c-.025-2.653.035-5.342,0-7.995-2.653-.016-5.341.011-7.994,0v-7.995h7.994c.025,2.653-.035,5.342,0,7.995,10.643.064,21.332-.047,31.975,0v7.995h47.963v7.995h120.907v-7.995h23.982v-15.989h7.994v-7.995h7.994v-15.989h7.994v-7.995h7.994v-15.989h7.994v-15.989h7.994v-15.989h7.994v-15.989h7.994v-15.989h7.994v-15.989h8.993v-15.989h7.994v-15.989h7.994v-16.988h7.994v-15.989c2.653-.025,5.341.035,7.994,0Z"/>
      <path class="h" d="M1059.057,594.656v-15.989h-7.994v-7.995h-7.994v-8.994c-4.557-1.389-9.248-2.293-13.989-1.873,1.551-11.041-7.264-9.005-17.986-6.122-10.825-2.366-21.7-2.442-32.693-1.33-.873.088-1.994,5.45-1.044,8.006-4.037-1.762-12.855-1.406-14.226,1.319-2.009.985-2.675,3.242-1.999,6.77-7.221-.87-10.219,1.812-8.993,8.044-6.761-.234-8.758.867-7.994,7.995-6.761-.234-8.758.867-7.994,7.995-3.426-.422-5.425.303-5.995,2.175-2.62,1.62-3.146,10.566-1.33,14.411-2.215-1.229-6.355-.769-6.664,1.579l-1.998,1.457c-.442,2.52-.449,16.445-.085,20.61-2.289-.776-5.634-.182-5.91,1.917-2.62,1.62-3.145,10.566-1.33,14.41-2.215-1.229-6.355-.769-6.663,1.579l-1.999,1.457c-.442,2.52-.449,16.445-.085,20.61-2.289-.776-5.634-.182-5.91,1.917-2.62,1.62-3.146,10.566-1.33,14.411-2.215-1.229-6.355-.769-6.664,1.578l-1.998,1.457c-.414,1.516-.311,16.533-.06,20.618-2.289-.789-5.658-.198-5.935,1.909-2.62,1.62-3.145,10.566-1.33,14.411-2.215-1.229-6.355-.769-6.663,1.579l-1.999,1.457c-.442,2.52-.449,16.444-.085,20.609-2.289-.776-5.634-.182-5.91,1.917-2.62,1.62-3.146,10.566-1.33,14.411-2.215-1.229-6.355-.769-6.664,1.579l-1.998,1.457c-.442,2.52-.449,16.445-.085,20.61-2.289-.776-5.634-.182-5.91,1.917l-1.998,1.457c-.442,2.52-.449,16.445-.085,20.61-2.289-.776-5.634-.182-5.91,1.917-2.62,1.62-3.145,10.566-1.33,14.411-2.215-1.229-6.355-.769-6.663,1.579l-1.999,1.426c-.505,2.702-.454,17.181-.082,21.641-2.289-.778-5.638-.184-5.914,1.916l-1.999,1.457c-.442,2.52-.449,16.445-.085,20.61-2.289-.776-5.634-.182-5.91,1.917l-1.998,1.457c-.442,2.52-.449,16.445-.085,20.61-2.289-.776-5.634-.182-5.91,1.917l-1.998,1.457c-.48,2.167-.37,17.718-.03,21.094-3.316-1.305-9.391-1.31-12.38.102,1.228-2.215.769-6.355-1.578-6.664l-1.215-1.999h-125.649c.556-11.579.551-25.859-.039-37.301-.025-.483-1.223-.675-1.998-.673-.446-1.971-3.735-2.669-5.958-1.981.218-3.7.594-20.05-.037-20.836-.532-.664-1.109-1.112-1.998-1.166-.443-1.958-3.693-2.659-5.915-1.994.295-3.393.151-19.664-.08-21.849-.064-.608-1.221-.932-1.999-1.14-.762-1.944-2.702-2.611-5.819-1.999.452-7.783-1.849-8.584-9.107-7.994l-1.062,1.999c.177,29.628-.132,59.311,0,88.939h-40.968v-7.995h-39.969v-7.995h-15.988v-7.995h-7.994v-7.995h-15.988v-7.994h-15.988v-7.995h-7.994v-7.995h-24.981v-7.995h-7.821c.22.529.421,1.081.579,1.681,6.665,25.309,13.733,51.296,13.822,77.65,15.479,9.81,32.76,16.485,50.065,22.316,19.237,6.481,38.843,11.764,58.437,17.038,1.03.277,1.941.659,2.764,1.109.402.055.81.125,1.226.221,15.495,3.582,30.267,10.985,44.14,18.582,13.747,7.527,27.085,15.902,39.747,25.143,4.583,3.345,7.049,8.818,4.883,14.167,5.256.372,10.583.33,15.985-.153-.661,3.448.005,5.489,1.999,6.122.561,1.916,2.224,2.582,4.988,1.999,10.959,1.218,29.245.584,41.073.044-.797,2.29-.209,5.673,1.902,5.951l1.223,1.999h118.988l.695-1.999c1.959-.443,2.66-3.698,1.992-5.92,3.699.407,18.163.311,20.824-.075.635-.092.951-1.22,1.165-1.999,2.805-1.734,3.209-11.868.909-15.144,4.419,3.527,10.786.556,9.083-6.665,3.426.422,5.425-.303,5.995-2.175,2.805-1.735,3.209-11.868.909-15.144,4.419,3.527,10.786.556,9.083-6.665,3.426.421,5.425-.304,5.995-2.175,2.699-1.322,2.599-10.184,2.112-14.064,2.288.762,5.607.166,5.882-1.925,2.699-1.322,2.598-10.185,2.112-14.064,2.288.762,5.607.166,5.882-1.925,2.698-1.322,2.598-10.185,2.112-14.064,2.296.768,5.626.156,5.882-1.925,2.62-1.62,3.145-10.566,1.33-14.411,2.215,1.229,6.355.769,6.663-1.579,2.699-1.321,2.599-10.184,2.112-14.064,2.288.762,5.607.166,5.882-1.925,2.714-1.33,2.598-10.293,2.104-14.137,2.568.9,6.552.337,6.889-1.852,2.67-1.239,2.616-10.25,2.119-14.062,2.288.759,5.6.162,5.875-1.926,2.62-1.62,3.145-10.566,1.33-14.411,2.215,1.229,6.355.769,6.663-1.578l1.998-1.4c.512-1.857.772-10.587-.675-14.116,2.822,1.652,8.704.601,8.668-2.892l.146-12.594c2.217.32,4.159-.515,5.849-1.975,1.959-2.622,1.949-5.368,0-7.995,1.061-1.831,2.131-3.812,1.872-5.996,3.459.659,5.499-.008,6.121-1.999.01-5.317-.008-10.671,0-15.989h7.994v-15.989h7.994v-23.984h7.994v-15.989h7.994v-15.989h7.994v-23.984h7.994v-15.989h7.994v-23.983h7.994v-63.957h-7.994Z"/>
      <path class="g" d="M740.445,1043.745c-.762-1.944-2.701-2.61-5.819-1.999.422-3.427-.303-5.426-2.175-5.996-1.62-2.62-10.565-3.146-14.409-1.331,1.229-2.215.769-6.355-1.578-6.664-1.62-2.62-10.565-3.146-14.409-1.331,1.229-2.215.769-6.355-1.578-6.664-.641-1.038-2.439-1.741-4.606-2.106-3.609,3.436-9.704,4.878-13.882,1.83-12.25-8.94-25.135-17.06-38.402-24.402-12.975-7.181-25.625-13.683-39.991-17.003-1.124-.26-2.11-.646-2.99-1.113-.33-.062-.661-.126-1-.217-20.106-5.412-40.227-10.833-59.946-17.549-19.747-6.726-39.804-14.47-57.195-26.176-.213-.143-.413-.299-.615-.453-4.438-1.619-7.948-5.922-7.741-10.807,1.128-26.632-6.172-52.571-12.891-78.083-1.555-5.906,1.291-10.403,5.439-12.66v-4.128c-2.653-.025-5.341.035-7.994,0-1.175-.942-2.48-1.802-4-2.003-4.601-.608-2.114-5.503,2.938-3.993l1.062-1.999v-31.979h-7.994v-7.995h-7.994v-7.994h-7.994v-7.995h-15.988v-7.995c-.283-.283-6.692,0-7.994,0l-1.999,1.314c.798,7.93-4.539,5.901-5.995-1.314-.035-2.653.025-5.341,0-7.995-.283-.283-6.691,0-7.994,0v-7.995h-15.988v-7.995h-15.988v-7.995c-.283-.282-6.691,0-7.994,0l-1.998,1.314c.798,7.93-4.539,5.901-5.995-1.314-.036-2.653.025-5.341,0-7.994-2.654-.012-5.34.017-7.994,0-1.906.748-2.543,2.746-1.912,5.996-8.81.73-6.224-4.639,1.912-5.996v-7.995h-16.987v-7.995c-.283-.283-6.692,0-7.994,0l-1.999,1.314c.798,7.93-4.539,5.901-5.995-1.314-.035-2.653.025-5.341,0-7.995-.283-.283-6.691,0-7.994,0l-1.998,1.314c.798,7.93-4.539,5.901-5.995-1.314-.036-2.653.025-5.341,0-7.995h-7.994v-7.995h-15.988v-7.995c-.283-.282-6.691,0-7.994,0l-1.998,1.314c.798,7.93-4.539,5.901-5.995-1.314-.036-2.653.025-5.341,0-7.994-.283-.283-6.692,0-7.994,0v-7.995h-15.988v-7.995h-15.988v-7.995c-.283-.283-6.692,0-7.994,0l-1.999,1.314c.798,7.93-4.539,5.901-5.995-1.314-.035-2.653.025-5.341,0-7.995-.283-.282-6.691,0-7.994,0v-7.994h-15.988v-7.995h-16.987v-7.995c-.283-.283-6.692,0-7.994,0l-1.998,1.314c.798,7.93-4.539,5.901-5.995-1.314-.036-2.653.025-5.341,0-7.995-.283-.283-6.691,0-7.994,0v-7.995h-15.988v-7.995c-.283-.283-6.692,0-7.994,0l-1.999,1.314c.798,7.93-4.539,5.901-5.995-1.314-.035-2.653.025-5.341,0-7.995-.283-.282-6.691,0-7.994,0l-1.998,1.314c.798,7.93-4.539,5.901-5.995-1.314-.036-2.653.025-5.341,0-7.994h-7.994v-7.995h-15.988v-8.994c-.283-.283-6.691,0-7.994,0l-1.998,1.337c.916,9.108-4.367,7.44-5.995-1.337-.017-2.654.012-5.341,0-7.995h-7.994v-7.994h-15.988v-7.995h-7.994v7.995H.016c.036,8.313-.05,16.67,0,24.983l1.337,1.999c4.604-1.102,7.156.896,7.656,5.996.032,5.316-.032,10.672,0,15.989l1.314,1.999c3.905-.994,6.132,1.005,6.68,5.996.048,7.98-.035,16.004,0,23.984h7.994c.035,7.98-.048,16.003,0,23.983l1.314,1.999c3.905-.994,6.132,1.005,6.68,5.996.032,5.316-.032,10.673,0,15.989l1.314,1.999c3.905-.994,6.132,1.005,6.68,5.996.048,7.98-.048,16.004,0,23.984l1.314,1.999c3.905-.994,6.132,1.005,6.68,5.996.032,5.316-.032,10.673,0,15.989l1.314,1.999c3.905-.994,6.132,1.005,6.68,5.996.048,7.98-.035,16.004,0,23.984h7.994c.035,7.98-.048,16.004,0,23.984l1.314,1.999c3.905-.994,6.132,1.005,6.68,5.996.032,5.316-.032,10.673,0,15.989l1.314,1.999c3.905-.994,6.132,1.005,6.68,5.996.048,7.98-.039,16.003,0,23.984.766,1.945,2.705,2.611,5.819,1.999.331,2.442.909,4.831,2.175,6.995.026,5.316-.032,10.673,0,15.989l1.314,1.999c3.905-.994,6.132,1.005,6.68,5.996.048,7.979-.035,16.003,0,23.983h7.994c.035,7.98-.048,16.004,0,23.983l1.314,1.999c3.905-.994,6.132,1.005,6.68,5.996.064,10.644-.047,21.334,0,31.979h7.994v7.995h7.994v7.994h7.994v7.995h15.988v7.995h16.987v7.995h15.988v7.995c-18.969.084-37.988-.113-56.956,0-3.476,1.279-2.836,10.038,1.42,9.993h12.161c-.147,3.358.656,5.356,2.407,5.996,1.62,2.62,10.566,3.146,14.409,1.33-1.229,2.216-.768,6.355,1.578,6.664,1.756,2.83,10.742,2.549,15.068,2.091-.773,2.289-.178,5.627,1.919,5.903l1.45,1.999c1.642.567,22.848.314,28.619.057-.791,2.29-.201,5.662,1.907,5.939l1.45,1.999c1.642.567,22.854.314,28.621.056-.798,2.298-.194,5.682,1.904,5.94l1.175,1.999c3.919,1.099,28.92.457,36.883.066-.786,2.29-.193,5.653,1.911,5.93,1.734,2.805,11.867,3.209,15.142.909-3.527,4.419-.556,10.787,6.664,9.084-.31,3.548.415,5.546,2.175,5.996h15.988v7.994h16.987v7.995h15.988v7.995h15.988v7.995c2.653.025,5.341-.036,7.994,0,1.743,1.502,3.742,2.358,5.995,1.912-.721,3.871-.055,6.231,1.998,7.082,2.653.036,5.341-.025,7.994,0v7.995h15.988v7.995h15.988v7.995h15.988v7.995h7.994v7.995h15.988v7.994h15.988v7.995h16.987v7.995c2.653.025,5.341-.036,7.994,0,1.703,1.473,3.775,2.403,5.995,1.873-.658,3.459.008,5.5,1.999,6.122,2.653.036,5.341-.025,7.994,0v7.995h15.988v-7.995h15.988v-7.995c2.653-.025,5.341.036,7.994,0,1.871-.792,2.584-2.798,2.138-6.018,2.219.318,4.164-.515,5.856-1.977,2.653-.035,5.341.025,7.994,0v-7.995h15.988v-7.994c2.653-.025,5.341.035,7.994,0,1.871-.792,2.584-2.798,2.138-6.018,2.219.319,4.164-.514,5.856-1.977,2.653-.036,5.341.025,7.994,0v-7.995h15.988v-7.995h15.988c1.905-.746,2.543-2.745,1.912-5.996,7.879.798,9.847-.814,9.112-8.56,4.148,1.632,12.617,1.231,13.957-1.434,2.305-.578,2.887-5.424,1.568-7.76,3.942,1.859,13.027,1.534,14.42-1.234,2.209-.5,2.824-4.575,1.674-6.713,3.996,1.805,12.933,1.462,14.314-1.282,1.944-.762,2.61-2.702,1.999-5.82,7.645.444,8.549-1.78,8.02-8.738,4.146,1.635,12.622,1.235,13.963-1.431,1.944-.762,2.61-2.702,1.998-5.819,3.427.421,5.425-.304,5.995-2.175l1.999-1.457c.47-1.851.316-18.815,0-21.361-.078-.627-1.219-.952-1.999-1.166Z"/>
      <path class="i" d="M906.175,481.733c1.971,2.622,1.962,5.368,0,7.995,2.785-2.501,5.244-2.495,7.994,0,8.775-5.894,13.355,2.954,7.994,7.995,1.647-3.274,14.052-3.131,15.988,0,3.06.403,2.923,7.333,0,7.995,1.622-3.261,14.002-3.146,15.988,0,3.06.403,2.923,7.333,0,7.995-.223-2.92,14.909-2.491,15.587-1.999.705.513,1.202,1.125,1.4,1.999,1.871.571,2.596,2.569,2.175,5.996,7.732-1.824,10.597,5.611,5.819,9.993,1.647-3.274,14.052-3.131,15.988,0,1.871.571,2.596,2.57,2.175,5.996,7.127-.764,8.228,1.233,7.994,7.995,7.736-1.824,10.595,5.616,5.819,9.993-10.643-.019-21.332.014-31.975,0v7.995h-15.988v8.994h-8.993v7.995h-7.994v7.995h-7.994v7.995h-7.994v15.989h-7.994v23.984h-7.994v15.989h-7.994v23.984h-7.994v15.989h-7.994v23.984h-7.994v15.989h-7.994v23.984h-7.994v15.989h-7.994v23.984h-7.994v23.984h-7.994v15.989h-7.994v24.983h-7.994v23.984h-7.994v23.984h-7.994v23.984h-15.988v-7.995h-128.901v-39.973h-7.994v-23.984h-7.994v-24.983h-7.994v-7.995h-7.994c-.016-2.653.011-5.341,0-7.995h-8.993v-7.995h-7.994c-.025-2.653.035-5.342,0-7.995-1.462-1.692-2.295-3.637-1.977-5.857-3.219.446-5.225-.266-6.017-2.138-.035-2.653.025-5.341,0-7.995h-7.994v-15.989h-7.994c-.035-7.98.048-16.004,0-23.984-.548-4.991-2.775-6.99-6.68-5.996l-1.314-1.999c-.032-5.316.023-10.673,0-15.989h7.994v-31.978h7.994v-15.989h7.994v-15.989h7.994v-7.995h7.994v-15.989h8.993v-7.995h7.994v-7.995h7.994v-7.995h7.994c.015-5.316-.02-10.673,0-15.989.571-1.872,2.569-2.597,5.995-2.175-.764-7.127,1.233-8.229,7.994-7.995-1.824-7.737,5.616-10.596,9.992-5.82l-1.998-1.123c-.67-2.933-.842-14.62,1.998-15.866.571-1.872,2.569-2.597,5.995-2.175-1.823-7.733,5.61-10.598,9.992-5.82-3.273-1.647-3.131-14.053,0-15.989.626-1.992,2.667-2.658,6.121-1.999-.507-4.794-.03-9.515,1.872-13.99,8.258-4.406,10.505-1.335,10.169,5.996,7.053-.791,8.5,1.342,7.818,8.121,2.183-.259,4.164.812,5.995,1.873,3.039-.217,2.329,7.827,1.209,9.046-1.232,1.342-9.061,1.956-9.203-1.052.781.091,1.948.34,1.998.898.526,5.872.966,25.462,0,30.624l-1.998,1.455c4.278-4.92,11.659-1.818,10.169,5.996,7.126-.767,8.229,1.24,7.994,7.995,7.053-.792,8.5,1.343,7.818,8.121,10.049-.434,20.106-.267,29.977,1.873l1.998,1.062c-1.46,6.941,5.318,7.206,3.997.252l1.998-1.314.673-1.999h37.747c.012-2.981.861-4.979,2.549-5.996,1.647-3.274,14.052-3.131,15.988,0-4.917-4.274-1.824-11.66,5.995-10.169-.764-7.127,1.233-8.229,7.994-7.995-.766-7.182,1.24-8.148,7.994-8.044-.645-7.288.412-9.359,7.994-8.944-.763-7.129,1.231-8.228,7.994-7.995-.764-7.127,1.233-8.229,7.994-7.995-1.824-7.737,5.616-10.596,9.992-5.82-.78-.214-1.924-.541-1.998-1.165-.292-2.437-.446-19.729,0-21.361l1.998-1.457c.632-1.993,2.672-2.659,6.121-1.999-.457-7.384.401-14.733,1.872-21.985-8.775,5.894-13.355-2.954-7.994-7.995,2.785-2.501,5.244-2.495,7.994,0Z"/>
      <path class="h" d="M818.242,8.055c2.015.696,2.681,2.844,1.998,6.443,3.715.651,7.693.835,11.934.552-.15-2.572.405-4.928,2.055-6.995,26.824-2.235,53.732-2.618,80.619-1.332,1.314.029,2.773,10.333-.681,10.326.214-.778.525-1.897,1.165-1.999,2.821-.448,18.656-.474,21.359,0l1.457,1.999c3.06.403,2.923,7.333,0,7.995.209-.776.517-1.908,1.14-1.999,3.194-.466,19.42-.53,22.414,0l1.426,1.999c1.871.571,2.596,2.569,2.175,5.996,7.732-1.824,10.597,5.611,5.819,9.993,1.691-3.287,14.076-3.119,15.988,0,1.871.571,2.596,2.57,2.175,5.996,7.127-.764,8.228,1.233,7.994,7.995,7.127-.764,8.228,1.233,7.994,7.995,7.127-.764,8.228,1.233,7.994,7.995,7.127-.764,8.228,1.233,7.994,7.995,7.127-.764,8.228,1.233,7.994,7.995,7.127-.764,8.228,1.233,7.994,7.995,3.117-.612,5.057.054,5.819,1.999,3.273,1.647,3.131,14.053,0,15.989.403-3.061,7.332-2.924,7.994,0l1.998,1.139c.57,3.296.901,13.429-1.998,14.85.403-3.061,7.332-2.924,7.994,0,.777.209,1.828.493,1.998,1.165.476,1.873.31,18.86,0,21.361l-1.998,1.457c.403-3.061,7.332-2.924,7.994,0,.777.21,1.841.499,1.998,1.165.491,2.075.334,18.762,0,21.361l-1.998,1.457c.403-3.061,7.332-2.924,7.994,0l1.998.695v166.966l-1.998,1.224c-.403,3.061-7.332,2.924-7.994,0,.775.096,1.894.308,1.998.895.908,5.112.549,23.942,0,29.633l-1.998,1.45c.403-3.061,7.332-2.924,7.994,0l1.998.923v53.843l-1.998,1.196c.403-3.061,7.332-2.924,7.994,0,.778.214,1.906.531,1.998,1.165.408,2.815.493,18.844,0,21.361l-1.998,1.457,1.062-1.999c7.257-.59,9.559.211,9.107,7.995,3.117-.612,5.057.054,5.819,1.999,3.273,1.647,3.131,14.053,0,15.989,4.244-4.949,11.958-1.75,9.992,6.122,5.077-.426,10.097.467,14.988,1.873,1.46,1.689,2.295,3.631,1.975,5.848,6.62.171,13.249.22,19.884.148-.463-3.212.244-5.21,2.123-5.996,7.98.007,16.001-.005,23.982,0-.023,5.316.032,10.673,0,15.989-.622,1.991-2.662,2.657-6.121,1.999.531,2.221-.399,4.292-1.872,5.996-.035,2.653.025,5.342,0,7.995h-7.994v7.995h-7.994v7.995h-7.994v7.995h-15.988v7.995h-24.981v7.995c-18.636-.025-37.32.033-55.957,0-5.317-.01-10.671.007-15.988,0v-7.995c-5.317-.007-10.671.01-15.988,0v-7.995h-7.994v-7.995h-7.994v-7.995h-15.988v-7.995h-7.994v-7.995h-16.987v-7.995h-15.988v-7.995h-15.988v-7.995c-2.653-.012-5.34.018-7.994,0-1.991-.622-2.657-2.663-1.998-6.122-2.184.258-4.165-.811-5.995-1.873-.548-4.991-2.775-6.99-6.68-5.996l-1.314-1.999c-3.273-1.647-3.131-14.053,0-15.989-4.606,5.56-14.361.361-7.994-7.995-1.462-1.692-2.295-3.637-1.977-5.857-3.219.446-5.225-.267-6.017-2.138-1.968-7.971-1.959-16.012,0-23.984-1.963-2.624-1.963-5.37,0-7.995l1.139-1.999h12.793c-.814-7.349,2.663-10.655,10.049-5.996,2.156-1.852,4.44-2.725,6.857-1.137-1.588-2.417-.716-4.701,1.137-6.858-4.685-7.577-1.35-10.69,5.995-10.169-1.824-7.735,5.614-10.597,9.992-5.82l-1.998-.923v-53.843l1.998-1.196-1.062,1.999c-7.257.59-9.559-.211-9.107-7.995-3.117.612-5.057-.054-5.819-1.999-2.314-5.438-2.51-10.965-1.328-16.729.288-1.403,9.505-2.518,9.322.74l-1.998-1.141v-22.416l1.998-1.426c.403-3.061,7.332-2.924,7.994,0l-1.998-.693v-110.011l1.998-1.219c-.403,3.061-7.332,2.924-7.994,0-.778-.214-1.897-.526-1.998-1.165-.448-2.821-.474-18.658,0-21.361l1.998-1.457c-4.274,4.917-11.659,1.824-10.169-5.996-7.127.764-8.228-1.234-7.994-7.995-7.127.764-8.228-1.234-7.994-7.995-7.127.764-8.228-1.234-7.994-7.995-7.054.79-8.499-1.338-7.818-8.121-2.224.53-4.293-.4-5.995-1.873-1.991-.622-2.657-2.663-1.998-6.122-2.184.258-4.165-.812-5.995-1.873-2.495-2.75-2.501-5.209,0-7.995-1.416-2.295-2.512-4.568-1.199-6.93-2.411,1.623-4.619.82-6.795-1.065-8.382,6.219-13.502-2.952-7.994-7.995l-1.139,1.999c-3.295.57-13.428.901-14.848-1.999-1.993-.633-2.659-2.673-1.998-6.122-10.237.896-20.229.272-29.977-1.873-4.991.548-6.989,2.775-5.995,6.681l-1.998,1.314c-3.088,2.503-5.897,2.486-8.993,0-4.991.548-6.989,2.775-5.995,6.681l-1.998,1.314c-8.035,2.455-15.949,2.464-23.982,0v-7.995h7.994v-15.989h7.994v-7.995h7.994v-7.995h7.994v-7.995h8.993v-7.995h15.988v-8.994c2.653-.011,5.341.016,7.994,0Z"/>
      <path class="i" d="M737.305,81.006c2.623-1.964,5.369-1.959,7.994,0,16.304-1.987,32.659-1.984,48.962,0,2.625-1.96,5.37-1.962,7.994,0,2.625-1.959,5.371-1.964,7.994,0,1.991.622,2.657,2.663,1.998,6.122,2.184-.258,4.165.812,5.995,1.873,7.94-2.707,16.05-2.744,23.982,0,1.46,1.69,2.295,3.632,1.975,5.85l12.593.146c4.257-.043,4.895,8.715,1.42,9.993,1.647-3.274,14.052-3.131,15.988,0,1.871.571,2.596,2.569,2.175,5.996,7.127-.764,8.228,1.233,7.994,7.995,3.117-.612,5.057.054,5.819,1.999l1.998,1.139c.57,3.296.901,13.429-1.998,14.85.403-3.061,7.332-2.924,7.994,0,3.273,1.647,3.131,14.053,0,15.989-.34-3.464,9.13-1.927,9.321-.746,1.71,10.538,1.106,22.373-1.328,32.724.548,4.991,2.775,6.99,6.68,5.996l1.314,1.999c2.817,13.261,2.778,26.707,0,39.973-.627,1.992-2.668,2.658-6.121,1.999.42,4.747-.484,9.435-1.872,13.99,2.89,16.173,2.985,32.802,0,48.967-.622,1.991-2.663,2.657-6.121,1.999.258,2.184-.812,4.165-1.872,5.996,2.711,7.942,2.766,16.054,0,23.984-.214.779-.539,1.921-1.165,1.999-2.546.316-19.509.47-21.359,0l-1.457-1.999c-1.991-.622-2.657-2.662-1.998-6.122-2.221.531-4.292-.399-5.995-1.873-1.871-.57-2.596-2.569-2.175-5.996-3.118.612-5.057-.055-5.819-1.999-1.462-1.692-2.295-3.637-1.977-5.857-7.146.368-8.468-1.036-8.192-8.134-3.116.612-5.056-.054-5.819-1.999l-1.998-1.123c-.67-2.933-.842-14.62,1.998-15.866.334,3.454-9.105,1.939-9.32.754-1.481-8.139-1.079-16.847,1.327-24.737-.548-4.991-2.775-6.99-6.68-5.996l-1.314-1.999c-1.349-4.594-2.523-9.267-1.585-13.99-3.369.653-5.506-.013-6.409-1.999l1.998,1.139c.57,3.296.901,13.429-1.998,14.85-.572,1.872-2.57,2.597-5.995,2.175.79,7.055-1.339,8.5-8.12,7.818.531,2.223-.4,4.293-1.872,5.996-.622,1.991-2.662,2.657-6.121,1.999.531,2.221-.399,4.292-1.872,5.996,5.086,8.618.529,10.615-6.995,10.169.977,7.306-2.851,10.396-9.992,5.82-1.691,1.462-3.635,2.295-5.854,1.977.514,3.642-.2,5.981-2.14,7.017-1.693,1.463-3.637,2.296-5.856,1.977.581,7.326-2.602,10.709-10.132,6.018-1.692,1.462-3.636,2.295-5.856,1.977.446,3.22-.267,5.226-2.138,6.018-1.692,1.462-3.637,2.295-5.856,1.977.446,3.22-.267,5.226-2.138,6.018-.214.779-.531,1.907-1.165,1.999-2.814.408-18.842.493-21.359,0l-1.457-1.999c3.454-.334,1.939,9.105.753,9.321-8.138,1.481-16.846,1.079-24.735-1.327-4.991.548-6.989,2.775-5.995,6.681l-1.998,1.314c-21.581,2.875-43.369,2.875-64.95,0-2.653-.016-5.341.011-7.994,0-.048-13.308.065-26.665,0-39.973-1.266-2.164-1.844-4.553-2.175-6.995-3.114.613-5.053-.054-5.819-1.999-.118-23.959-.143-47.992,0-71.951.622-1.991,2.663-2.657,6.121-1.999-.258-2.184.812-4.165,1.872-5.996.064-10.644-.047-21.334,0-31.978h7.994v-15.989h7.994v-15.989h8.993v-7.995h7.994v-7.995h7.994v-7.995h7.994v-7.995h7.994v-7.995c2.653-.025,5.341.035,7.994,0,1.692-1.462,3.636-2.295,5.856-1.977-.446-3.22.267-5.226,2.138-6.018,2.654-.018,5.34.018,7.994,0,4.991-.548,6.989-2.775,5.995-6.681l1.998-1.314c2.654-.018,5.34.018,7.994,0,4.991-.548,6.989-2.775,5.995-6.681l1.998-1.314c7.979-.048,16.002.019,23.982,0Z"/>
      <path class="f" d="M810.248,280.869c.59-3.558,9.892-2.994,9.992,1.123v13.836c2.258-.212,4.27.498,5.995,2.03,1.53,4.966,2.603,10.003,1.289,15.089,2.416-1.709,4.459-1.074,6.704.9,2.102,4.829,2.582,9.791,1.137,14.852,5.061-1.445,10.022-.965,14.851,1.137,1.463,1.693,2.295,3.638,1.977,5.857,7.063-.397,8.748,1.143,8.016,8.26,7.503-.812,14.83-.188,21.983,1.873,1.462,1.692,2.295,3.637,1.977,5.857,3.219-.446,5.225.267,6.017,2.138,1.971,2.621,1.962,5.368,0,7.995-.622,1.991-2.663,2.657-6.121,1.999.258,2.184-.812,4.165-1.872,5.996,2.459,5.391,2.48,10.604,0,15.989,1.962,5.305,1.969,10.686,0,15.989,1.958,2.625,1.961,5.371,0,7.995-.003,2.656-.003,5.339,0,7.995-.639,1.752-2.638,2.554-5.995,2.407v12.162c.045,4.256-8.713,4.896-9.992,1.42,3.273,1.647,3.131,14.053,0,15.989-.403,3.061-7.332,2.924-7.994,0,3.273,1.647,3.131,14.053,0,15.989-.571,1.872-2.569,2.597-5.995,2.175.764,7.127-1.233,8.229-7.994,7.995.764,7.127-1.233,8.229-7.994,7.995.764,7.127-1.233,8.229-7.994,7.995.764,7.127-1.233,8.229-7.994,7.995.612,3.117-.054,5.057-1.998,5.82-1.647,3.274-14.052,3.131-15.988,0l1.998,1.062c.59,7.258-.211,9.56-7.994,9.107.612,3.117-.054,5.057-1.998,5.82-.049.877-.481,1.46-1.123,1.999-.647.544-15.758.843-15.864-1.999,3.06.403,2.923,7.333,0,7.995-1.622,3.261-14.002,3.146-15.988,0,3.466-.34,1.924,9.135.742,9.323-10.541,1.671-22.394,1.182-32.717-1.328-2.653-.016-5.34.011-7.994,0v-7.995h-7.994v-7.995c-2.653-.011-5.341.016-7.994,0,.032,5.316-.023,10.673,0,15.989h-7.994v15.989h-7.994v7.995h-7.994v16.988h-7.994v7.995h-7.994v7.995h-7.994c.02-5.316-.015-10.673,0-15.989h7.994v-16.988h7.994v-15.989h7.994v-15.989h7.994v-7.995c5.316.023,10.672-.032,15.988,0-.016-2.654.011-5.341,0-7.995h-7.994v-7.995h-7.994v-7.995h-7.994v-15.989h-7.994v-7.995h-7.994v-15.989h-7.994v-15.989h-7.994v-31.978h-7.994v-39.973h-7.994c-1.96-2.625-1.963-5.371,0-7.995l.93-1.999h76.362c.115-2.907.997-4.906,2.646-5.996.214-.78.54-1.924,1.165-1.999,2.437-.292,19.727-.446,21.359,0l1.457,1.999c-3.06-.403-2.923-7.333,0-7.995,1.647-3.274,14.052-3.131,15.988,0-3.06-.403-2.923-7.333,0-7.995,1.647-3.274,14.052-3.131,15.988,0-4.917-4.275-1.823-11.66,5.995-10.169-.79-7.055,1.338-8.5,8.12-7.818-.53-2.223.4-4.293,1.872-5.996,2.632-1.442,5.248-2.534,7.958-1.22-1.638-2.411-.865-4.587,1.035-6.774,2.256-1.433,4.518-2.429,6.857-1.137-1.292-2.339-.296-4.602,1.137-6.858,2.187-1.9,4.363-2.673,6.774-1.035-1.313-2.711-.223-5.327,1.22-7.959-2.504-2.785-2.496-5.245,0-7.995Z"/>
      <path class="i" d="M930.156.061c1.991.622,2.657,2.663,1.998,6.122,2.184-.258,4.165.812,5.995,1.873,5.316.032,10.672-.026,15.988,0,2.053.851,2.719,3.212,1.998,7.082,2.5-.224,4.827.763,6.995,1.912,5.316.026,10.672-.019,15.988,0v7.995c2.653.025,5.341-.035,7.994,0,1.991.622,2.657,2.662,1.998,6.122,2.221-.531,4.292.399,5.995,1.873,2.653.035,5.341-.025,7.994,0v7.995h7.994v7.995c2.653.025,5.341-.035,7.994,0,1.991.622,2.657,2.662,1.998,6.122,2.221-.531,4.292.399,5.995,1.873,1.462,1.692,2.295,3.637,1.977,5.856,3.219-.446,5.225.267,6.017,2.138.035,2.653-.025,5.341,0,7.995h7.994v7.995h7.994c.025,2.654-.035,5.341,0,7.995,1.462,1.692,2.295,3.637,1.977,5.856,3.219-.446,5.225.267,6.017,2.138.035,2.652-.025,5.342,0,7.995h7.994v15.989h7.994v23.984h7.994v31.978h7.994c-.191,42.952.256,85.961,0,128.912-.622,1.991-2.663,2.657-6.121,1.999.258,2.184-.812,4.165-1.872,5.996-.175,29.284-.175,58.656,0,87.94.548,4.991,2.775,6.99,6.68,5.996l1.314,1.999c.064,10.644-.047,21.334,0,31.978h7.994v15.989h7.994v15.989h7.994v7.995h8.993c.025,2.653-.035,5.342,0,7.995,7.98.013,16.001-.007,23.982,0v7.995h-23.982c-.025-2.653.035-5.342,0-7.995-5.65-.009-11.337.007-16.987,0v-7.995h-7.994v-15.989h-7.994v-7.995h-7.994v-23.984h-7.994v-55.962h-7.994v-31.978h7.994v-168.885h-7.994v-23.984h-7.994v-23.984h-7.994v-15.989h-7.994v-15.989h-7.994v-7.995h-7.994v-7.995h-7.994v-7.995h-7.994v-7.995h-7.994v-7.995h-7.994v-7.995h-7.994v-7.995h-15.988v-7.995h-7.994v-7.995h-24.981v-7.995h-23.982v-8.994c-26.63.016-53.308-.022-79.938,0-.019,2.986.014,6.008,0,8.994h-15.988v-8.994c5.315-.032,10.672.004,15.988,0,.017-2.653-.012-5.341,0-7.995,31.957.142,63.969-.191,95.926,0Z"/>
      <path class="j" d="M128.916,995.777v7.995h15.988v7.995h15.988v7.995h16.987v7.995h31.975v7.995h31.975v7.995h39.969v7.995h15.988v7.995h7.994c.283.283,0,6.692,0,7.995v7.995h-47.963v-7.995h-39.969v-7.995h-23.982v-7.995h-23.982v-7.995h-16.987v-7.995h-15.988v-7.995h-7.994v-7.995h-7.994v-23.984c2.653-.011,5.341.016,7.994,0Z"/>
      <path class="e" d="M818.242,81.006c2.654-.523,5.313-1.002,7.991-1.33,13.042-1.598,21.856-2.329,15.991,9.325,7.938-2.746,16.052-2.784,23.982,0,1.416,2.295,2.512,4.568,1.199,6.93,2.411-1.623,4.619-.82,6.795,1.065,2.652.035,5.341-.025,7.994,0v7.995h7.994v7.995h7.994v7.995h7.994v7.995h7.994v7.995h7.994v23.984h7.994v111.924h-7.994v24.983h-7.994c-.023,5.316.032,10.673,0,15.989,4.455,8.234,1.144,10.809-6.121,9.993.812,7.5.188,14.828-1.872,21.985-.622,1.991-2.663,2.657-6.121,1.999.258,2.184-.812,4.165-1.872,5.996,2.469,7.933,2.717,16.522,1.329,24.712-.231,1.363-9.39,2.588-9.323-.729-1.958-2.625-1.958-5.37,0-7.995-1.96-2.624-1.957-5.369,0-7.995-.005-2.654.018-5.341,0-7.995-1.433-2.256-2.428-4.518-1.137-6.858-2.339,1.292-4.601.296-6.857-1.137-1.461-1.691-2.295-3.633-1.975-5.85l-12.593-.146c-3.076-.723-4.216-3.43-3.418-8.121-4.798.491-9.522.065-13.989-1.873-1.462-1.692-2.295-3.637-1.977-5.857-7.074.396-8.744-1.142-8.016-8.26-2.219.531-4.292-.399-5.995-1.873-2.053-4.871-2.677-9.935-1.261-15.025-2.411,1.674-4.516.974-6.732-.964-2.489-10.998-2.461-21.977,0-32.978-1.964-2.623-1.96-5.369,0-7.995-.459,1.766-2.467,2.489-6.025,2.168.326,2.209-.515,4.141-1.969,5.827,4.723,7.526,1.218,10.993-6.121,9.993.259,2.179-.81,4.164-1.872,5.996-.622,1.991-2.663,2.657-6.121,1.999.258,2.184-.811,4.165-1.872,5.996,2.486,3.096,2.503,5.905,0,8.994-2.156,1.852-4.44,2.725-6.857,1.137,1.588,2.417.716,4.701-1.137,6.858-2.484,1.887-5.122,2.714-7.885,1.164,1.601,2.414.757,4.667-1.108,6.831-4.465,1.84-9.237,2.666-13.989,1.585.69,7.202-.702,8.944-7.994,8.585.613,3.114-.054,5.054-1.998,5.82-1.647,3.274-14.052,3.131-15.988,0,3.06.403,2.923,7.333,0,7.995-.214.779-.539,1.921-1.165,1.999-2.546.316-19.509.47-21.359,0l-1.457-1.999c3.519-.365,1.862,9.251.701,9.326-16.27,1.054-32.503,1.048-48.664-1.332-5.303,1.969-10.683,1.962-15.988,0-7.584,1.605-15.268,2.494-22.946,1.22,1.209,4.969.601,9.929-1.036,14.769-.005,2.656.002,5.339,0,7.995-.007,7.981.005,16.002,0,23.984h-8.993v-23.984h-7.994v-31.978c21.624.129,43.326.129,64.95,0,4.991-.548,6.989-2.775,5.995-6.681l1.998-1.314c7.979-.048,16.002.035,23.982,0v-7.995h23.982v-7.995c2.653-.025,5.341.035,7.994,0,1.692-1.462,3.637-2.295,5.856-1.977-.446-3.22.267-5.226,2.138-6.018,2.653-.035,5.34.025,7.994,0v-7.995c2.653-.025,5.341.035,7.994,0,1.691-1.462,3.635-2.295,5.854-1.977-.514-3.642.2-5.981,2.14-7.017,2.653-.035,5.341.025,7.994,0v-7.995h8.993c.025-2.654-.035-5.341,0-7.995.622-1.991,2.662-2.657,6.121-1.999-.531-2.221.399-4.292,1.872-5.996.035-2.653-.025-5.341,0-7.995h7.994v-7.995h7.994v-15.989h7.994c.008,5.318-.011,10.671,0,15.989,1.963,2.623,1.96,5.369,0,7.995.374-3.038,7.301-2.946,7.994,0,.048,7.98-.035,16.004,0,23.984h7.994v16.988h7.994v7.995h7.994c.025,2.653-.035,5.342,0,7.995,1.852,2.156,2.725,4.441,1.137,6.858,2.417-1.588,4.701-.716,6.857,1.137,2.653.035,5.341-.025,7.994,0v7.995h23.982c.035-7.98-.048-16.004,0-23.984.622-1.991,2.663-2.657,6.121-1.999-.258-2.184.812-4.165,1.872-5.996.097-16.305-.029-32.661,0-48.967.627-1.992,2.668-2.658,6.121-1.999-.42-4.747.484-9.435,1.872-13.99.024-13.307.079-26.667,0-39.973-.548-4.991-2.775-6.99-6.68-5.996l-1.314-1.999c-.064-10.644.047-21.334,0-31.978h-7.994v-15.989h-7.994v-15.989h-7.994v-7.995h-7.994v-7.995h-15.988v-7.995h-15.988c-.025-2.653.035-5.342,0-7.995-7.979-.008-16.003.048-23.982,0-3.06-.403-2.923-7.333,0-7.995Z"/>
      <path class="e" d="M753.292,73.011c7.979-.014,16.002-.028,23.982,0,2.626-1.955,5.371-1.961,7.994,0,2.964-1.963,6.035-1.974,8.993,0,3.06.403,2.923,7.333,0,7.995-16.305-.017-32.657-.024-48.962,0-3.06-.403-2.923-7.333,0-7.995,2.653-.018,5.34.005,7.994,0Z"/>
      <path class="h" d="M954.138,8.055c2.986.015,6.007-.01,8.993,0v8.994c-2.986-.015-6.007.01-8.993,0v-8.994Z"/>
      <path class="i" d="M80.953,826.892h7.994c.01,2.987-.015,6.007,0,8.994h-7.994c-.01-2.986.015-6.007,0-8.994Z"/>
      <path class="h" d="M600.41,288.864h7.994c.01,2.986-.015,6.008,0,8.994h-7.994c-.01-2.986.015-6.008,0-8.994Z"/>
      <path class="h" d="M.016,555.078h8.993c.011,2.654-.016,5.341,0,7.995H.016c-.011-2.654.016-5.341,0-7.995Z"/>
      <path class="i" d="M48.978,546.084v8.994h-7.994c-.014-2.986.019-6.008,0-8.994h7.994Z"/>
      <path class="i" d="M378.724,1099.707c2.653.035,5.341-.025,7.994,0v8.994c-2.653-.035-5.341.025-7.994,0v-8.994Z"/>
      <path class="h" d="M1083.038,401.787h7.994c.011,2.654-.016,5.341,0,7.995h-7.994c-.011-2.653.016-5.341,0-7.995Z"/>
      <path class="d" d="M930.156.061c2.653.016,5.341-.011,7.994,0v7.995c-2.654-.016-5.34.011-7.994,0V.061Z"/>
      <path class="d" d="M1171.97,505.716c-.016,2.653.011,5.341,0,7.995h-7.994c.035-2.653-.025-5.342,0-7.995h7.994Z"/>
      <path class="h" d="M1091.032,305.852c-.016,2.653.011,5.341,0,7.995h-7.994c.016-2.653-.011-5.341,0-7.995h7.994Z"/>
      <path class="i" d="M88.947,571.067v7.995h-7.994c-.025-2.653.035-5.341,0-7.995h7.994Z"/>
      <path class="i" d="M9.009,579.061h7.994c.011,2.654-.016,5.341,0,7.995h-7.994c-.011-2.654.016-5.341,0-7.995Z"/>
      <path class="i" d="M104.935,579.061v7.995h-7.994c-.025-2.654.035-5.341,0-7.995h7.994Z"/>
      <path class="i" d="M144.904,603.045v7.995h-7.994c-.025-2.653.035-5.341,0-7.995h7.994Z"/>
      <path class="i" d="M24.997,635.023h7.994c.011,2.654-.016,5.341,0,7.995h-7.994c-.011-2.654.016-5.341,0-7.995Z"/>
      <path class="i" d="M201.86,635.023v7.995h-7.994c-.025-2.653.035-5.341,0-7.995h7.994Z"/>
      <path class="i" d="M32.99,659.007h7.994c.011,2.654-.016,5.341,0,7.995h-7.994c-.011-2.654.016-5.341,0-7.995Z"/>
      <path class="i" d="M257.817,667.001v7.995h-7.994c-.025-2.653.035-5.341,0-7.995h7.994Z"/>
      <path class="h" d="M40.984,690.985h7.994c.011,2.654-.016,5.341,0,7.995h-7.994c-.011-2.654.016-5.341,0-7.995Z"/>
      <path class="i" d="M297.786,690.985v7.995h-7.994c-.025-2.653.035-5.341,0-7.995h7.994Z"/>
      <path class="i" d="M313.774,698.98v7.995h-7.994c-.025-2.654.035-5.341,0-7.995h7.994Z"/>
      <path class="i" d="M48.978,714.969h7.994c.011,2.654-.016,5.341,0,7.995h-7.994c-.011-2.654.016-5.341,0-7.995Z"/>
      <path class="i" d="M354.742,722.963v7.995h-7.994c-.025-2.653.035-5.341,0-7.995h7.994Z"/>
      <path class="h" d="M611.545,722.963h7.994c.011,2.654-.016,5.341,0,7.995h-7.994c-.011-2.654.016-5.341,0-7.995Z"/>
      <path class="i" d="M410.699,754.941v7.995h-7.994c-.025-2.653.035-5.341,0-7.995h7.994Z"/>
      <path class="i" d="M64.966,770.931h7.994c.011,2.654-.016,5.341,0,7.995h-7.994c-.011-2.654.016-5.341,0-7.995Z"/>
      <path class="h" d="M635.526,778.925h7.994c.025,2.653-.035,5.342,0,7.995h-7.994c-.025-2.653.035-5.342,0-7.995Z"/>
      <path class="i" d="M72.96,794.914h7.994c.011,2.654-.016,5.341,0,7.995h-7.994c-.011-2.654.016-5.341,0-7.995Z"/>
      <path class="i" d="M1003.1,810.509c-.005,2.653.018,5.341,0,7.995-.403,3.061-7.332,2.924-7.994,0,.018-2.653-.012-5.341,0-7.995h7.994Z"/>
      <path class="h" d="M1003.1,818.503c-.018,2.653.012,5.341,0,7.995-2.653.025-5.341-.035-7.994,0,.005-2.653-.018-5.341,0-7.995h7.994Z"/>
      <path class="i" d="M458.662,818.898v7.995c-2.652-.035-5.341.025-7.994,0v-7.995h7.994Z"/>
      <path class="i" d="M88.947,851.875h7.994c.011,2.654-.016,5.341,0,7.995h-7.994c-.011-2.654.016-5.341,0-7.995Z"/>
      <path class="d" d="M995.106,867.47c-.016,2.653.011,5.341,0,7.995h-7.994c.016-2.653-.011-5.341,0-7.995h7.994Z"/>
      <path class="i" d="M104.935,907.837h7.994c.011,2.653-.016,5.341,0,7.995h-7.994c-.011-2.654.016-5.341,0-7.995Z"/>
      <path class="h" d="M608.404,208.918c-.016,2.654.011,5.341,0,7.995h-7.994c.016-2.653-.011-5.341,0-7.995h7.994Z"/>
      <path class="h" d="M987.112,987.388h7.994c.011,2.654-.016,5.341,0,7.995h-7.994c-.011-2.653.016-5.342,0-7.995Z"/>
      <path class="h" d="M681.348,96.995v7.995c-2.653.025-5.341-.035-7.994,0v-7.995c2.654-.012,5.34.018,7.994,0Z"/>
      <path class="h" d="M1051.063,89h7.994c.025,2.653-.035,5.342,0,7.995h-7.994c-.025-2.654.035-5.341,0-7.995Z"/>
      <path class="h" d="M995.106,1035.355h7.994c.011,2.654-.016,5.341,0,7.995h-7.994c-.011-2.654.016-5.341,0-7.995Z"/>
      <path class="h" d="M697.335,89v7.995c-2.654.012-5.34-.018-7.994,0v-7.995c2.654-.012,5.34.018,7.994,0Z"/>
      <path class="h" d="M1003.1,1067.334h7.994c.011,2.654-.016,5.341,0,7.995h-7.994c-.011-2.654.016-5.341,0-7.995Z"/>
      <path class="d" d="M713.323,81.006v7.995c-2.654.012-5.34-.018-7.994,0v-7.995c2.653-.011,5.341.016,7.994,0Z"/>
      <path class="h" d="M1011.094,1091.317h7.994c.011,2.654-.016,5.341,0,7.995h-7.994c-.011-2.654.016-5.341,0-7.995Z"/>
      <path class="d" d="M745.299,73.011v7.995c-2.655.004-5.338-.006-7.994,0v-7.995c2.654-.012,5.34.018,7.994,0Z"/>
      <path class="h" d="M1019.088,49.027c2.653.035,5.341-.025,7.994,0,.025,2.654-.035,5.341,0,7.995,2.653.035,5.341-.025,7.994,0,.025,2.654-.035,5.341,0,7.995h-7.994c-.025-2.654.035-5.341,0-7.995-2.653-.035-5.341.025-7.994,0v-7.995Z"/>
      <path class="h" d="M987.112,25.044c2.653.035,5.341-.025,7.994,0v7.995c-2.653-.035-5.341.025-7.994,0v-7.995Z"/>
      <path class="i" d="M611.545,1140.679v7.995c-2.653.025-5.341-.035-7.994,0v-7.995c2.653-.025,5.341.035,7.994,0Z"/>
      <path class="h" d="M649.372,1164.268c2.652.035,5.341-.025,7.994,0v7.995c-2.653-.035-5.341.025-7.994,0v-7.995Z"/>
      <path class="h" d="M571.575,1164.662v7.995c-2.653.025-5.341-.035-7.994,0v-7.995c2.653-.025,5.341.035,7.994,0Z"/>
      <path class="i" d="M507.625,1172.657c2.653.035,5.341-.025,7.994,0v7.995c-2.653-.035-5.341.025-7.994,0v-7.995Z"/>
      <path class="h" d="M721.317,1204.24c2.653.016,5.34-.011,7.994,0v7.995c-2.654-.016-5.34.011-7.994,0v-7.995Z"/>
      <path class="h" d="M995.106,1204.24v7.995c-2.653.025-5.341-.035-7.994,0v-7.995c2.653-.025,5.341.035,7.994,0Z"/>
      <path class="h" d="M745.299,1212.235c2.654.016,5.34-.011,7.994,0v7.995c-2.653-.016-5.34.011-7.994,0v-7.995Z"/>
      <path class="h" d="M777.274,1220.229c2.653.016,5.34-.011,7.994,0v7.995c-2.653-.016-5.341.011-7.994,0v-7.995Z"/>
      <path class="h" d="M826.236,1228.224c2.653.016,5.341-.011,7.994,0v7.995c-2.653-.016-5.341.011-7.994,0v-7.995Z"/>
      <path class="h" d="M914.168,1228.224v7.995c-2.653.011-5.341-.016-7.994,0v-7.995c2.653-.011,5.341.016,7.994,0Z"/>
      <path class="j" d="M482.644,923.826h7.994c.011,2.653-.016,5.341,0,7.995,2.986.016,6.007-.011,8.993,0v7.995h15.988v7.995h39.969v-7.995h55.957v23.984h-7.994v7.995h-39.969v7.995h-23.982v7.995h-15.988v-7.995h-15.988v-7.995h-7.994v-7.995c-2.986.014-6.007-.019-8.993,0,.063-10.64.063-21.338,0-31.978-2.653-.014-5.341.018-7.994,0-3.06-.403-2.923-7.333,0-7.995Z"/>
      <path class="e" d="M515.619,1035.75c-.018-2.654.012-5.341,0-7.995h-7.994v-15.989h7.994v7.995h15.988v7.995h7.994c.012,2.654-.018,5.341,0,7.995,5.316-.01,10.672-.032,15.988,0,3.06.403,2.923,7.333,0,7.995,3.06.403,2.923,7.333,0,7.995-8.474,2.136-8.452,6.119,0,7.995l2.407,5.996c.28.503,11.004.245,11.525,0,.187-.088.263-4.115.057-4.123-4.798.487-9.523.073-13.989-1.873-1.973-2.622-1.965-5.368,0-7.995,5.386-2.511,10.599-2.498,15.988,0,5.318.01,10.67-.007,15.988,0,.012,2.654-.018,5.341,0,7.995-2.653.018-5.34-.012-7.994,0-.283.283,0,6.692,0,7.995,1.991.622,2.657,2.662,1.998,6.122,2.221-.531,4.292.399,5.995,1.873.99,6.902,6.81,9.116,5.995,1.873-2.218.531-4.291-.399-5.995-1.873-1.97-2.621-1.958-5.367,0-7.995-.01-2.654.018-5.341,0-7.995,2.653-.018,5.341-.018,7.994,0,1.991.622,2.657,2.662,1.998,6.122,2.221-.531,4.292.399,5.995,1.873,2.653.035,5.341-.025,7.994,0v7.995h7.994v7.995h-15.988v7.995c-2.653.011-5.34-.016-7.994,0-5.303,1.995-10.685,1.995-15.988,0,.168-3.176-3.984-8.359-5.995-5.82-2.309,2.916,3.102,5.503,5.995,5.82,1.977,2.623,1.975,5.37,0,7.995-.016,2.986.011,6.007,0,8.994h-15.988v7.995c-5.316-.023-10.672.032-15.988,0-1.991-.622-2.657-2.663-1.998-6.122-2.184.258-4.165-.811-5.995-1.873,1.433,2.256,2.429,4.518,1.137,6.858,2.339-1.292,4.601-.296,6.857,1.137,0,1.303.283,7.712,0,7.995h-15.988c-.014-2.654.02-5.341,0-7.995-2.498-2.75-2.505-5.21,0-7.995,2.654,0,5.34-.018,7.994,0-.019-2.986.014-6.008,0-8.994h-15.988c-.005-7.982.007-16.002,0-23.984-1.962-2.624-1.961-5.37,0-7.995-2.749,2.495-5.209,2.501-7.994,0v-7.995c.403-3.061,7.332-2.924,7.994,0,3.06.403,2.923,7.333,0,7.995,2.255-1.433,4.518-2.429,6.857-1.137-1.292-2.339-.297-4.602,1.137-6.858-1.95-2.627-1.959-5.373,0-7.995,2.255-1.433,4.518-2.429,6.857-1.137-1.292-2.339-.297-4.602,1.137-6.858-1.943-2.625-1.943-5.37,0-7.995-2.622,1.959-5.367,1.95-7.994,0-7.433,1.201-8.97,7.264-1.298,6.022l1.298,1.972c1.962,2.625,1.964,5.371,0,7.995-2.622,1.973-5.368,1.965-7.994,0-.403,3.061-7.332,2.924-7.994,0,0-2.656.005-5.339,0-7.995-1.959-2.622-1.95-5.367,0-7.995Z"/>
      <path class="i" d="M418.693,1099.707c-2.654-.016-5.34.011-7.994,0v-7.995h7.994c.012,2.654-.017,5.341,0,7.995,5.316.032,10.672-.023,15.988,0,.014,2.986-.019,6.007,0,8.994,2.654.016,5.34-.011,7.994,0v7.995h-7.994c-.012-2.654.017-5.341,0-7.995-5.316-.032-10.672.023-15.988,0-.014-2.986.019-6.007,0-8.994Z"/>
      <path class="i" d="M515.619,1035.75c.018,2.654-.005,5.341,0,7.995h-15.988v-7.995h15.988Z"/>
      <path class="h" d="M563.582,1043.745c1.303,0,7.711-.283,7.994,0v7.995c-5.315-.01-10.673-.032-15.988,0v-7.995c.403-3.061,7.332-2.924,7.994,0Z"/>
      <path class="i" d="M515.619,1067.728c2.654-.018,5.34.018,7.994,0,0,2.656-.002,5.339,0,7.995h-15.988v-7.995c2.654-.012,5.34.018,7.994,0Z"/>
      <path class="h" d="M579.569,1091.712c-2.653-.016-5.34.011-7.994,0v-7.995h7.994c.012,2.654-.018,5.341,0,7.995,5.314.032,10.674.032,15.988,0v7.995h-15.988c.014-2.653.018-5.342,0-7.995Z"/>
      <rect class="i" x="458.662" y="851.875" width="7.994" height="15.989"/>
      <path class="i" d="M338.755,714.969c0,1.302.283,7.712,0,7.995h-8.993v-7.995c2.986.014,6.007-.019,8.993,0Z"/>
      <path class="i" d="M160.892,955.805c-2.654-.017-5.34.012-7.994,0v-7.995h7.994c.025,2.654-.035,5.341,0,7.995,2.986.019,6.007-.014,8.993,0v7.995h-8.993c-.025-2.654.035-5.341,0-7.995Z"/>
      <rect class="i" x="490.638" y="995.777" width="8.993" height="7.995"/>
      <path class="i" d="M490.638,1140.679c-2.654-.017-5.34.012-7.994,0v-7.995h7.994c.025,2.654-.035,5.341,0,7.995,2.986.019,6.007-.014,8.993,0v7.995h-8.993c-.025-2.654.035-5.341,0-7.995Z"/>
      <path class="i" d="M32.99,538.089c0,1.302.283,7.712,0,7.995h-7.994v-7.995c.283-.283,6.692,0,7.994,0Z"/>
      <path class="i" d="M128.916,595.05c0,1.303.283,7.712,0,7.995h-7.994v-7.995h7.994Z"/>
      <path class="i" d="M185.873,627.029c0,1.302.283,7.712,0,7.995h-7.994v-7.995h7.994Z"/>
      <path class="i" d="M241.829,659.007c0,1.302.283,7.712,0,7.995h-7.994v-7.995h7.994Z"/>
      <path class="i" d="M394.712,746.947c0,1.302.283,7.712,0,7.995h-7.994v-7.995h7.994Z"/>
      <path class="i" d="M450.669,786.92c0,1.302.283,7.712,0,7.995h-7.994v-7.995c.283-.283,6.692,0,7.994,0Z"/>
      <rect class="i" x="466.656" y="891.848" width="7.994" height="7.995"/>
      <path class="i" d="M482.644,923.826v7.995c-2.653-.018-5.341.012-7.994,0v-7.995c.283-.283,6.692,0,7.994,0Z"/>
      <rect class="i" x="120.923" y="931.821" width="7.994" height="7.995"/>
      <rect class="i" x="136.91" y="939.815" width="7.994" height="7.995"/>
      <rect class="i" x="177.879" y="963.799" width="7.994" height="7.995"/>
      <path class="i" d="M490.638,963.799c-.016,2.653.011,5.341,0,7.995h-7.994v-7.995c2.653-.012,5.341.017,7.994,0Z"/>
      <rect class="i" x="193.866" y="971.794" width="7.994" height="7.995"/>
      <rect class="i" x="209.854" y="979.788" width="7.994" height="7.995"/>
      <path class="i" d="M233.836,995.777c-2.653-.035-5.34.025-7.994,0v-7.995h7.994c.025,2.654-.035,5.341,0,7.995,2.653.035,5.34-.025,7.994,0v7.995h-7.994c-.025-2.654.035-5.341,0-7.995Z"/>
      <rect class="i" x="249.823" y="1003.772" width="7.994" height="7.995"/>
      <rect class="i" x="265.811" y="1011.766" width="7.994" height="7.995"/>
      <path class="i" d="M289.793,1027.756c-2.653-.035-5.34.025-7.994,0v-7.995h7.994c.025,2.654-.035,5.341,0,7.995,2.653.035,5.34-.025,7.994,0v7.995h-7.994c-.025-2.654.035-5.341,0-7.995Z"/>
      <rect class="i" x="305.78" y="1035.75" width="7.994" height="7.995"/>
      <path class="i" d="M555.588,1035.75c2.654.016,5.34-.011,7.994,0v7.995h-7.994v-7.995Z"/>
      <rect class="i" x="321.768" y="1043.745" width="7.994" height="7.995"/>
      <rect class="i" x="338.755" y="1051.739" width="7.994" height="7.995"/>
      <path class="h" d="M523.612,1051.739c3.06.403,2.923,7.333,0,7.995.403-3.061,7.332-2.924,7.994,0-.018,2.654.012,5.341,0,7.995-2.654.012-5.34-.018-7.994,0v-7.995h-7.994v-7.995h7.994Z"/>
      <path class="i" d="M362.736,1067.728c-2.653-.035-5.34.025-7.994,0v-7.995h7.994c.025,2.654-.035,5.341,0,7.995,2.653.035,5.34-.025,7.994,0v7.995h-7.994c-.025-2.654.035-5.341,0-7.995Z"/>
      <path class="h" d="M595.557,1059.734c2.653.018,5.34-.012,7.994,0v7.995c-2.653-.035-5.341.025-7.994,0v-7.995Z"/>
      <rect class="i" x="378.724" y="1075.723" width="7.994" height="7.995"/>
      <rect class="i" x="657.366" y="1091.317" width="7.994" height="7.995"/>
      <rect class="i" x="394.712" y="1083.717" width="7.994" height="7.995"/>
      <rect class="i" x="641.379" y="1099.312" width="7.994" height="7.995"/>
      <path class="i" d="M523.612,1108.7c3.06.403,2.923,7.333,0,7.995-1.302,0-7.711.283-7.994,0v-7.995c2.654-.012,5.34.018,7.994,0Z"/>
      <path class="h" d="M531.606,1108.7c.014,2.654-.02,5.341,0,7.995h-7.994v-7.995c2.653-.018,5.34,0,7.994,0Z"/>
      <rect class="i" x="450.669" y="1116.695" width="7.994" height="7.995"/>
      <rect class="i" x="611.545" y="1116.695" width="7.994" height="7.995"/>
      <rect class="i" x="466.656" y="1124.69" width="7.994" height="7.995"/>
      <rect class="i" x="595.557" y="1124.69" width="7.994" height="7.995"/>
      <rect class="i" x="579.569" y="1132.684" width="7.994" height="7.995"/>
      <rect class="i" x="523.612" y="1140.679" width="7.994" height="7.995"/>
      <rect class="i" x="507.625" y="1148.673" width="7.994" height="7.995"/>
      <rect class="i" x="523.612" y="1156.668" width="7.994" height="7.995"/>
      <path class="g" d="M882.193,417.776c.009,7.981-.007,16.002,0,23.984,1.96,2.624,1.957,5.369,0,7.995,1.349,4.594,2.523,9.267,1.585,13.99,3.369-.653,5.506.013,6.409,1.999l1.998,1.139c.57,3.296.901,13.429-1.998,14.85,2.628-1.957,5.373-1.969,7.994,0v7.995c2.653.012,5.34-.018,7.994,0,.014,7.981-.01,16.002,0,23.984h-7.994v23.984h-7.994v7.995h-7.994v7.995h-7.994v7.995h-7.994v8.994h-7.994v7.995h-7.994v7.995h-7.994v7.995h-15.988v7.995h-40.968c-2.625,1.962-5.371,1.965-7.994,0-10.644-.025-21.332.019-31.975,0v-7.995h-7.994v-7.995h-7.994v-7.995h-7.994v-32.978h7.994v-7.995c10.643.064,21.332-.047,31.975,0v-7.995h15.988v-7.995h16.987v-7.995h7.994v-7.995h15.988v-7.995h7.994v-7.995h7.994v-7.995h7.994v-7.995h7.994v-7.995h7.994v-15.989h7.994v-15.989h7.994v-15.989h7.994Z"/>
      <path class="g" d="M890.187,449.754c.035,2.653-.025,5.341,0,7.995h7.994v15.989h7.994c.012,2.654-.018,5.341,0,7.995,2.653.018,5.34-.012,7.994,0v7.995c-2.653-.018-5.34.018-7.994,0-.005-2.654.018-5.341,0-7.995-2.653-.018-5.341.018-7.994,0s-5.34.012-7.994,0v-15.989h-7.994c-.007-5.318.01-10.671,0-15.989.403-3.061,7.332-2.924,7.994,0Z"/>
      <path class="f" d="M785.268,602.65v7.995h-7.994v-7.995c2.656.006,5.338,0,7.994,0Z"/>
      <path class="g" d="M914.168,313.847h7.994v7.995h7.994v55.962h-7.994v7.995h-7.994c-.025,2.653.035,5.342,0,7.995-.57,1.872-2.569,2.596-5.995,2.175.612,3.118-.055,5.058-1.998,5.82-2.653.035-5.341-.025-7.994,0v7.995h-15.988c.003-2.656-.004-5.339,0-7.995.627-1.992,2.668-2.658,6.121-1.999-.42-4.747.483-9.435,1.872-13.99-1.957-2.625-1.96-5.371,0-7.995h7.994c.035-7.98-.048-16.004,0-23.984.622-1.991,2.663-2.657,6.121-1.999-.258-2.184.812-4.165,1.872-5.996.048-7.98-.035-16.004,0-23.984h7.994c.011-2.653-.016-5.341,0-7.995Z"/>
      <path class="g" d="M802.255,57.022c10.643-.064,21.332.047,31.975,0v7.995h15.988v7.995c2.653.025,5.341-.035,7.994,0,1.871.57,2.596,2.569,2.175,5.996,3.118-.612,5.057.055,5.819,1.999.018,2.653-.018,5.341,0,7.995,2.653.016,5.341-.011,7.994,0v7.995c-2.652-.035-5.341.025-7.994,0-.012-2.653.018-5.341,0-7.995-7.979-.048-16.003.008-23.982,0-.035-2.653.025-5.342,0-7.995-7.981-.005-16.001.007-23.982,0-2.625,1.96-5.371,1.964-7.994,0-2.655-.006-5.338.004-7.994,0-1.991-.622-2.657-2.663-1.998-6.122-2.184.258-4.165-.812-5.995-1.873-2.986-.019-6.007.005-8.993,0-3.06-.403-2.923-7.333,0-7.995,2.986-.019,6.007.019,8.993,0,4.991-.548,6.989-2.775,5.995-6.681l1.998-1.314Z"/>
      <path class="i" d="M914.168,393.792c-.035,2.653.025,5.341,0,7.995-2.653.025-5.341-.035-7.994,0v-7.995h7.994Z"/>
      <path class="d" d="M882.193,441.76h7.994c.025,2.653-.035,5.342,0,7.995h-7.994c-.005-2.656.002-5.339,0-7.995Z"/>
      <path class="d" d="M858.212,73.011c2.652.035,5.341-.025,7.994,0,.012,2.653-.018,5.341,0,7.995h-7.994v-7.995Z"/>
      <path class="d" d="M785.268,65.016v7.995c-2.656-.004-5.338.009-7.994,0v-7.995c2.654-.012,5.34.017,7.994,0Z"/>
      <path class="d" d="M802.255,57.022v7.995c-2.654.012-5.34-.017-7.994,0v-7.995c2.653-.011,5.341.016,7.994,0Z"/>
      <path class="h" d="M914.168,232.902c-.01,5.318.007,10.671,0,15.989h-7.994c.01-5.318-.007-10.672,0-15.989h7.994Z"/>
      <path class="h" d="M777.274,288.864v8.994c-2.653.025-5.341-.035-7.994,0v-8.994c2.653-.025,5.341.035,7.994,0Z"/>
      <path class="h" d="M689.342,329.836v7.995c-2.653.011-5.341-.016-7.994,0v-7.995c2.653-.011,5.34.016,7.994,0Z"/>
      <path class="h" d="M858.212,313.847h7.994v7.995c-2.653-.035-5.341.025-7.994,0-.025-2.653.035-5.342,0-7.995Z"/>
      <path class="h" d="M753.292,305.852v7.995c-2.653.025-5.341-.035-7.994,0v-7.995c2.653-.025,5.341.035,7.994,0Z"/>
      <path class="h" d="M906.175,297.858c-.016,2.653.011,5.341,0,7.995h-7.994c.016-2.654-.011-5.341,0-7.995h7.994Z"/>
      <path class="h" d="M802.255,264.88c-.035,2.653.025,5.341,0,7.995h-7.994c.035-2.653-.025-5.341,0-7.995h7.994Z"/>
      <path class="h" d="M826.236,248.891h7.994c.011,2.654-.016,5.341,0,7.995h-7.994c-.002-2.656.005-5.339,0-7.995Z"/>
      <path class="h" d="M906.175,184.935h7.994c.011,2.653-.016,5.341,0,7.995h-7.994c-.011-2.653.016-5.341,0-7.995Z"/>
      <path class="h" d="M818.242,81.006v7.995c-2.653-.016-5.341.011-7.994,0v-7.995c2.655.006,5.338-.002,7.994,0Z"/>
      <path class="d" d="M794.261,73.011c2.653.017,5.34-.012,7.994,0v7.995c-2.655-.004-5.338.003-7.994,0v-7.995Z"/>
      <path class="g" d="M810.248,288.864c-.016,2.986.011,6.008,0,8.994-2.653.025-5.341-.035-7.994,0-.017,2.653.012,5.341,0,7.995-2.653.012-5.341-.017-7.994,0-.035,2.653.025,5.342,0,7.995-2.986.01-6.007-.015-8.993,0-.035,2.653.025,5.342,0,7.995h-7.994v7.995h-7.994v7.995h-15.988v7.995h-15.988v7.995h-23.982v7.995h-79.938c.01-5.318-.007-10.671,0-15.989,7.981-.005,16.001.007,23.982,0,1.948.493,2.614,2.328,1.998,5.505.434.546,11.026.916,11.934.491-.551-3.202.134-5.201,2.055-5.996,15.972-.024,31.991.018,47.963,0v-7.995h23.982v-7.995h15.988v-7.995h7.994v-7.995c5.316-.019,10.672.026,15.988,0,.035-2.653-.025-5.342,0-7.995,2.986-.014,6.007.019,8.993,0,.035-2.653-.025-5.342,0-7.995,2.653-.025,5.341.035,7.994,0,.019-2.986-.019-6.008,0-8.994.403-3.061,7.332-2.924,7.994,0Z"/>
      <path class="j" d="M826.236,264.88c.025,10.978-.02,22,0,32.978,2.652.035,5.341-.025,7.994,0,.015,5.316-.02,10.673,0,15.989,2.653.035,5.341-.025,7.994,0v7.995h7.994c.025,2.653-.035,5.342,0,7.995,5.316.02,10.672-.015,15.988,0v7.995h15.988c.025,2.653-.035,5.342,0,7.995,2.653.016,5.34-.011,7.994,0,.012,2.654-.018,5.341,0,7.995h-7.994c-.025-2.653.035-5.342,0-7.995-7.979-.048-16.002.035-23.982,0v-7.995h-7.994c-.025-2.653.035-5.342,0-7.995-5.316-.02-10.672.015-15.988,0-.015-5.316.02-10.673,0-15.989-2.653-.035-5.341.025-7.994,0-.007-5.318.01-10.671,0-15.989-2.652-.035-5.341.025-7.994,0v-16.988c-.283-.283-6.692,0-7.994,0,.018-2.653-.012-5.341,0-7.995h7.994c.025-2.653-.035-5.342,0-7.995.403-3.061,7.332-2.924,7.994,0Z"/>
      <path class="d" d="M890.187,369.809c.002,2.656.002,5.339,0,7.995s.005,5.339,0,7.995c-.403,3.061-7.332,2.924-7.994,0,.005-5.316-.032-10.673,0-15.989.374-3.038,7.301-2.946,7.994,0Z"/>
      <path class="e" d="M890.187,385.798c-.011,5.318.008,10.671,0,15.989h-7.994c.008-5.318-.005-10.671,0-15.989h7.994Z"/>
      <path class="j" d="M890.187,361.814c.005,2.656-.002,5.339,0,7.995h-7.994c.016-2.654-.011-5.341,0-7.995h7.994Z"/>
      <path class="g" d="M810.248,280.869c-.018,2.653.014,5.341,0,7.995h-7.994c.017-2.653-.012-5.341,0-7.995h7.994Z"/>
      <path class="g" d="M673.354,345.825v7.995h-15.988v-7.995c5.317-.005,10.671.008,15.988,0Z"/>
      <path class="g" d="M826.236,256.886c.002,2.656-.006,5.339,0,7.995h-7.994c.035-2.653-.025-5.342,0-7.995.283-.283,6.692,0,7.994,0Z"/>
      <path class="f" d="M555.588,1059.734c5.316.032,10.672-.023,15.988,0v7.995h-15.988c-.012-2.654.018-5.341,0-7.995Z"/>
      <path class="h" d="M539.6,1035.75c.018,2.653.018,5.342,0,7.995-.403,3.061-7.332,2.924-7.994,0-3.06-.403-2.923-7.333,0-7.995,2.653-.018,5.34.005,7.994,0Z"/>
      <path class="f" d="M531.606,1035.75v7.995h7.994c-.018,2.654.012,5.341,0,7.995-2.654.012-5.34-.018-7.994,0-.005,2.654.018,5.341,0,7.995h-7.994v-7.995c2.653,0,5.341.018,7.994,0,.005-2.656,0-5.338,0-7.995-1.302,0-7.711.283-7.994,0v-7.995c2.654-.012,5.34.018,7.994,0Z"/>
      <path class="i" d="M555.588,1051.739c0,2.654-.018,5.341,0,7.995-2.654-.016-5.34.011-7.994,0v-7.995c2.654-.011,5.34.016,7.994,0Z"/>
      <path class="i" d="M547.594,1075.723c-2.654-.018-5.34.012-7.994,0v-7.995h7.994c.012,2.654-.018,5.341,0,7.995,2.654.018,5.34-.018,7.994,0,3.06.403,2.923,7.333,0,7.995-2.654.018-5.34-.01-7.994,0,.01,2.654-.018,5.341,0,7.995-2.654-.018-5.34.018-7.994,0-3.06-.403-2.923-7.333,0-7.995,2.654-.018,5.34.01,7.994,0-.01-2.654.018-5.341,0-7.995Z"/>
      <path class="h" d="M587.563,1067.728c.01,2.654-.018,5.341,0,7.995,2.653.035,5.341-.025,7.994,0v7.995h-7.994c-.012-2.654.018-5.341,0-7.995-2.653-.035-5.341.025-7.994,0v-7.995h7.994Z"/>
      <path class="f" d="M555.588,1075.723c2.654.018,5.34-.012,7.994,0v7.995c-2.654.012-5.34-.018-7.994,0v-7.995Z"/>
      <path class="f" d="M539.6,1083.717v7.995c-2.654-.018-5.34.012-7.994,0v-7.995c2.654-.012,5.34.018,7.994,0Z"/>
      <path class="f" d="M547.594,1091.712c2.654.018,5.34-.012,7.994,0v7.995h-7.994c-.012-2.654.018-5.341,0-7.995Z"/>
      <path class="i" d="M539.6,1108.7c2.654.018,5.34-.012,7.994,0v7.995c-2.653-.016-5.34.011-7.994,0-.012-2.654.017-5.341,0-7.995Z"/>
      <path class="d" d="M906.175,345.825c-.016,2.653.011,5.341,0,7.995h-7.994c.016-2.654-.011-5.341,0-7.995h7.994Z"/>
    </g>
  </g>
</svg>