<?xml version="1.0" encoding="UTF-8"?>
<svg id="b" data-name="Layer 2" xmlns="http://www.w3.org/2000/svg" width="757.238" height="1268.137" viewBox="0 0 757.238 1268.137">
  <defs>
    <style>
      .d {
        fill: #aa1f65;
      }

      .e {
        fill: #2b0f54;
      }

      .f {
        fill: #fe4f69;
      }

      .g {
        fill: #3368db;
      }

      .h {
        fill: #49e6eb;
      }

      .i {
        fill: #fed945;
      }

      .j {
        fill: #fef6f7;
      }
    </style>
  </defs>
  <g id="c" data-name="Layer 1">
    <g>
      <path class="e" d="M685.319,746.489c1.302,0,7.709-.283,7.991,0v7.994h7.991v7.994h7.991v15.988h7.991c-.071,15.972.095,31.993,0,47.965-.622,1.991-2.662,2.657-6.119,1.999.258,2.184-.812,4.165-1.872,5.996-.032,5.316.023,10.672,0,15.988h-7.991v7.994h-7.991c-.014,2.986.019,6.007,0,8.993-.622,1.991-2.661,2.657-6.119,1.999.53,2.221-.399,4.292-1.872,5.996-2.156,1.852-4.439,2.725-6.855,1.137,1.588,2.417.715,4.701-1.136,6.858-1.691,1.462-3.635,2.295-5.854,1.977.446,3.22-.267,5.225-2.137,6.017-2.985.019-6.005-.014-8.99,0v7.994h-7.991v7.994h-7.991v7.994h-7.991v7.994c-2.652.025-5.339-.035-7.991,0-1.691,1.462-3.635,2.295-5.854,1.977.446,3.22-.267,5.225-2.137,6.017-2.652.035-5.339-.025-7.991,0v7.994h-7.991v7.994h-15.982v7.994c-2.652.025-5.339-.035-7.991,0-1.691,1.462-3.635,2.295-5.854,1.977.446,3.22-.267,5.225-2.137,6.017-2.651.035-5.339-.025-7.991,0v7.994h-16.981v7.994h-15.982v7.994h-7.991v7.994c42.933.191,85.924-.256,128.856,0,1.99.622,2.656,2.663,1.998,6.122,2.183-.258,4.163.812,5.993,1.873,10.972.066,21.991-.048,32.963,0v7.994c5.314.023,10.668-.032,15.982,0,1.99.622,2.656,2.663,1.998,6.122,2.183-.258,4.163.812,5.993,1.873,5.314.032,10.668-.023,15.982,0v7.994h15.982v7.994h7.991v47.965h-7.991c-.025,2.653.035,5.342,0,7.994-.57,1.871-2.568,2.596-5.993,2.175.611,3.118-.055,5.058-1.998,5.819-5.314.032-10.668-.032-15.982,0-4.989.548-6.987,2.775-5.993,6.68l-1.998,1.314c-32.266.193-64.626.193-96.892,0-1.99-.622-2.656-2.663-1.998-6.122-2.183.258-4.163-.812-5.993-1.873-7.977-.048-15.997.048-23.973,0-1.99-.622-2.656-2.663-1.998-6.122-2.183.258-4.163-.812-5.993-1.873-7.977-.048-15.997.039-23.973,0-1.99-.623-2.656-2.663-1.998-6.122-2.502.309-4.825-.741-6.992-1.873-5.313-.026-10.669.019-15.982,0v7.994h-192.785v15.988h7.991v15.988h7.991v16.988h7.991c.025,2.653-.035,5.342,0,7.994,1.462,1.692,2.294,3.637,1.976,5.856,3.218-.446,5.223.266,6.015,2.138.035,2.653-.025,5.341,0,7.994h7.991v15.988h7.991v15.988h7.991v15.988h7.991c-.059,13.308.079,26.663,0,39.971-.622,1.991-2.661,2.657-6.119,1.999.53,2.221-.399,4.292-1.872,5.996-1.691,1.462-3.635,2.295-5.854,1.977.446,3.22-.266,5.225-2.137,6.017-13.303.079-26.652-.059-39.955,0v-7.994h-15.982v-7.994h-8.99v-7.994h-7.991v-7.994h-7.991v-7.994h-7.991v-7.994h-7.991v-15.988h-7.991c-.025-2.653.035-5.341,0-7.994-1.462-1.692-2.294-3.637-1.976-5.856-3.218.446-5.223-.267-6.015-2.138-.035-2.653.025-5.341,0-7.994h-15.982v-7.994h-15.982v-7.994c-2.652-.025-5.339.035-7.991,0-1.99-.622-2.656-2.662-1.998-6.122-2.22.531-4.29-.399-5.993-1.873-2.652-.035-5.339.025-7.991,0-.025-2.654.035-5.341,0-7.994-1.461-1.691-2.294-3.636-1.976-5.855-3.641.514-5.979-.2-7.014-2.14-.035-2.652.025-5.342,0-7.994h-7.991v-40.97c-40.27-.18-80.596.24-120.865,0-1.99-.622-2.656-2.663-1.998-6.122-2.183.258-4.163-.812-5.993-1.873-5.314-.032-10.668.023-15.982,0v-7.994h-15.982v-7.994h-7.991v-7.994h-7.991v-15.988h-7.991c-.047-10.644.063-21.333,0-31.977-.548-4.991-2.774-6.989-6.678-5.996l-1.313-1.999c-.095-15.972.095-31.993,0-47.965-.548-4.991-2.774-6.989-6.678-5.996l-1.313-1.999c-.224-37.62.168-75.297,0-112.918h7.991c.012-2.653-.018-5.341,0-7.994,4.272-4.917,11.655-1.824,10.165,5.996,7.729-1.823,10.594,5.61,5.817,9.993,1.646-3.274,14.047-3.131,15.982,0,3.059.403,2.922,7.333,0,7.994.214-.778.525-1.897,1.165-1.999,2.82-.448,18.65-.474,21.352,0l1.456,1.999c3.059.403,2.922,7.333,0,7.994l.919-1.999h54.826l1.191,1.999c3.093.477,2.954,8.252,0,8.993l.922-1.999h53.82l1.195,1.999c-3.543.289-1.893-10.204-.718-10.324,8.389-.854,16.452-.659,24.692,1.33,5.636-1.968,11.345-1.965,16.981,0,.402-3.06,7.33-2.924,7.991,0,1.679,2.043,2.095,4.437,2.174,6.995,7.124-.765,8.226,1.235,7.991,7.994,7.124-.765,8.226,1.235,7.991,7.994,7.83-1.848,10.809,5.662,5.817,9.993-4.989.548-6.987,2.775-5.993,6.68l-1.998,1.314c-1.691,1.462-3.635,2.295-5.854,1.977.446,3.22-.267,5.225-2.137,6.017-1.646,3.274-14.047,3.131-15.982,0,3.059.403,2.922,7.333,0,7.994.287,2.986-14.69,2.403-15.581,1.999-.74-.336-1.102-1.215-1.4-1.999,3.059.403,2.922,7.333,0,7.994-1.646,3.274-14.047,3.131-15.982,0l1.998,1.165v20.695c2.13.301,4.168.922,5.993,2.123,1.99.622,2.656,2.662,1.998,6.122,2.22-.531,4.29.399,5.993,1.873,8.379-6.219,13.497,2.952,7.991,7.994-.223-2.92,14.904-2.491,15.581-1.999.705.513,1.202,1.125,1.4,1.999,3.059.403,2.922,7.333,0,7.994,1.646-3.274,14.047-3.131,15.982,0,1.99.622,2.656,2.662,1.998,6.122,2.22-.531,4.29.399,5.993,1.873,1.99.622,2.656,2.662,1.998,6.122,2.22-.531,4.29.399,5.993,1.873,8.379-6.219,13.497,2.952,7.991,7.994,1.646-3.274,14.047-3.131,15.982,0,3.059.403,2.922,7.333,0,7.994,1.646-3.274,14.047-3.131,15.982,0,1.99.622,2.656,2.662,1.998,6.122,2.22-.531,4.29.399,5.993,1.873,1.99.622,2.656,2.663,1.998,6.122,2.183-.258,4.163.811,5.993,1.873,2.627-1.952,5.371-1.965,7.991,0,1.99.623,2.656,2.663,1.998,6.122,2.502-.309,4.826.74,6.992,1.873,2.626-1.952,5.37-1.96,7.991,0l1.998,1.062c-1.456,6.953,5.319,7.194,3.996.252l1.998-1.314c2.621-1.959,5.365-1.95,7.991,0,4.989-.548,6.987-2.775,5.993-6.68l1.998-1.314c1.691-1.462,3.635-2.295,5.854-1.977-.446-3.22.267-5.225,2.137-6.017,1.646-3.274,14.047-3.131,15.982,0-3.037-.374-2.945-7.301,0-7.994,1.646-3.274,14.047-3.131,15.982,0-3.059-.403-2.922-7.333,0-7.994,1.646-3.274,14.047-3.131,15.982,0-5.558-4.606-.36-14.362,7.991-7.994,1.691-1.462,3.635-2.295,5.854-1.977-.446-3.22.267-5.225,2.137-6.017,2.044-1.681,4.438-2.096,6.992-2.175-.612-3.115.054-5.054,1.998-5.819,1.646-3.274,14.047-3.131,15.982,0-3.059-.403-2.922-7.333,0-7.994,1.646-3.274,14.047-3.131,15.982,0-3.059-.403-2.922-7.333,0-7.994,1.646-3.274,14.047-3.131,15.982,0-5.558-4.606-.36-14.362,7.991-7.994,1.691-1.462,3.635-2.295,5.854-1.977-.446-3.22.267-5.225,2.137-6.017,2.749-2.495,5.207-2.501,7.991,0,4.989-.548,6.987-2.775,5.993-6.68l1.998-1.314c1.691-1.462,3.635-2.295,5.854-1.977-.446-3.22.267-5.225,2.137-6.017,1.646-3.274,14.047-3.131,15.982,0-3.059-.403-2.922-7.333,0-7.994,1.165-2.992,12.22-2.552,15.581-1.999l1.4,1.999c-3.059-.403-2.922-7.333,0-7.994,1.646-3.274,14.047-3.131,15.982,0-5.558-4.606-.36-14.362,7.991-7.994,1.691-1.462,3.635-2.295,5.854-1.977-.446-3.22.267-5.225,2.137-6.017,1.691-1.462,3.635-2.295,5.854-1.977-.446-3.22.266-5.225,2.137-6.017,1.646-3.274,14.047-3.131,15.982,0-3.059-.403-2.922-7.333,0-7.994,1.646-3.274,14.047-3.131,15.982,0-5.558-4.606-.36-14.362,7.991-7.994,2.186-1.9,4.362-2.673,6.771-1.035-1.313-2.711-.222-5.326,1.22-7.959-2.719-7.942-2.777-16.054,0-23.983.622-1.991,2.662-2.657,6.119-1.999-.258-2.184.812-4.165,1.872-5.996-2.464-5.393-2.501-10.606,0-15.988.85-2.053,3.21-2.719,7.079-1.999-.169-2.181.829-4.164,1.911-5.996-2.464-5.393-2.501-10.606,0-15.988.622-1.991,2.662-2.657,6.119-1.999-.258-2.184.812-4.165,1.872-5.996-2.712-7.943-2.776-16.054,0-23.983.622-1.991,2.662-2.657,6.119-1.999-.258-2.184.812-4.165,1.872-5.996Z"/>
      <path class="j" d="M362.679,353.774c2.651.035,5.339-.025,7.991,0,.011,2.653-.016,5.341,0,7.994,2.651.035,5.339-.025,7.991,0v15.988h7.991v23.983h7.991v103.925h-7.991v55.959h-7.991v39.971h-7.991v32.976h-7.991v23.983h15.982v7.994h7.991v7.994h15.982v7.994h7.991v7.994h15.982v7.994h7.991v7.994h24.972v-7.994h15.982v-7.994h7.991v-7.994c2.652-.014,5.339.02,7.991,0l1.998,1.062c-1.509,5.053,3.383,7.539,3.992,2.938.201-1.52,1.06-2.825,2.002-4,.035-2.653-.025-5.341,0-7.994h15.982v-7.994h15.982v-7.994h7.991v-7.994c2.653-.012,5.339.018,7.991,0l1.998,1.062c-1.743,6.635,5.919,7.363,5.649.935l1.343-1.997c.035-2.653-.025-5.341,0-7.994,2.653-.014,5.338.02,7.991,0l1.998,1.062c-1.509,5.052,3.383,7.539,3.992,2.938.201-1.52,1.06-2.825,2.002-4,.035-2.653-.025-5.341,0-7.994h15.982v-7.994h15.982v-7.994h7.991v-7.994c2.653-.014,5.339.02,7.991,0l1.998,1.062c-1.083,7.876,4.861,6.585,5.993-1.062.019-2.986-.014-6.007,0-8.993h15.982v-7.994h15.982v-7.994h8.99v-7.994c2.653-.014,5.339.02,7.991,0l1.998,1.062c-1.509,5.053,3.383,7.539,3.992,2.938.201-1.52,1.06-2.824,2.002-4,.035-2.653-.025-5.341,0-7.994,2.653-.014,5.338.02,7.991,0l1.998,1.062c-1.509,5.053,3.383,7.539,3.992,2.938.201-1.52,1.06-2.825,2.002-4,.035-2.653-.025-5.341,0-7.994h15.982v-7.994h23.973v7.994c-.622,1.991-2.662,2.657-6.119,1.999.258,2.184-.812,4.165-1.872,5.996-.048,7.979.035,16.003,0,23.983h-7.991v24.982h-7.991c-.035,7.98.048,16.003,0,23.983-.622,1.991-2.662,2.657-6.119,1.999.258,2.184-.812,4.165-1.872,5.996-.048,7.979.035,16.003,0,23.983h-7.991v23.983h-7.991c-.035,7.98.048,16.003,0,23.983-.622,1.991-2.662,2.657-6.119,1.999.258,2.184-.812,4.165-1.872,5.996-.032,5.316.032,10.672,0,15.988-.622,1.991-2.662,2.657-6.119,1.999.258,2.184-.812,4.165-1.872,5.996-.048,7.979.048,16.003,0,23.983-.622,1.991-2.662,2.657-6.119,1.999.258,2.184-.812,4.165-1.872,5.996-.032,5.316.032,10.672,0,15.988-.85,2.053-3.21,2.719-7.079,1.999.169,2.181-.829,4.164-1.911,5.996-.032,5.316.032,10.672,0,15.988-.622,1.991-2.662,2.657-6.119,1.999.258,2.184-.812,4.165-1.872,5.996-.048,7.98.039,16.003,0,23.983-.567,1.841-2.565,2.582-5.993,2.224.677,3.528.011,5.784-1.998,6.769-2.652.035-5.339-.025-7.991,0v7.994h-15.982v7.994h-15.982v7.994c-2.652.025-5.339-.035-7.991,0-1.691,1.462-3.635,2.295-5.854,1.977.446,3.22-.266,5.225-2.137,6.017-2.652.035-5.339-.025-7.991,0v7.994h-15.982v7.994h-16.981v7.994h-15.982v7.994c-2.652.025-5.339-.035-7.991,0-1.691,1.462-3.635,2.295-5.854,1.977.446,3.22-.267,5.225-2.137,6.017-2.653.018-5.338-.018-7.991,0-4.989.548-6.987,2.775-5.993,6.68l-1.998,1.314c-2.652.035-5.339-.025-7.991,0v7.994h-15.982v7.994h-15.982v7.994h-15.982v7.994c-2.985.014-6.005-.019-8.99,0-4.989.548-6.987,2.775-5.993,6.68l-1.998,1.314c-2.652.035-5.339-.025-7.991,0v7.994h-15.982v7.994h-15.982v7.994h-15.982v7.994c-2.652.025-5.339-.035-7.991,0-1.691,1.462-3.635,2.295-5.854,1.977.446,3.22-.267,5.225-2.137,6.017-2.653.018-5.338-.005-7.991,0-2.623,1.965-5.368,1.965-7.991,0-2.653-.005-5.338.014-7.991,0-1.99-.623-2.656-2.663-1.998-6.122-2.502.309-4.826-.74-6.992-1.873-2.653-.014-5.338.018-7.991,0-1.99-.622-2.656-2.662-1.998-6.122-2.22.531-4.29-.399-5.993-1.873-2.652-.035-5.339.025-7.991,0v-7.994h-15.982v-7.994h-15.982v-7.994c-2.652-.025-5.339.035-7.991,0-1.99-.622-2.656-2.662-1.998-6.122-2.22.531-4.29-.399-5.993-1.873-2.652-.035-5.339.025-7.991,0v-7.994h-15.982v-7.994h-16.981v-7.994c-2.652-.025-5.339.035-7.991,0-3.059-.403-2.922-7.333,0-7.994,13.253-2.739.712-11.893,1.972-1.298l-1.972,1.298c-2.623,1.978-5.369,1.978-7.991,0-2.653-.018-5.339.012-7.991,0v-23.983h15.982v-7.994h16.981v-7.994h15.982v-7.994c2.652-.025,5.339.035,7.991,0,1.691-1.462,3.635-2.295,5.854-1.977-.446-3.22.267-5.225,2.137-6.017,15.767-2.752,31.995-2.402,47.986-1.977,9.83.261,10.142.329,10.125,7.973,7.123-.77,8.228,1.249,7.991,7.994,7.048-.794,8.499,1.35,7.815,8.12,2.493-.31,4.823.738,6.992,1.873,3.059.403,2.922,7.333,0,7.994-2.959,1.952-6.028,1.946-8.99,0-4.989.548-6.987,2.775-5.993,6.68l-1.998,1.314c-2.621,1.959-5.365,1.95-7.991,0-4.989.548-6.987,2.775-5.993,6.68l-1.998,1.314c-4.989.548-6.987,2.775-5.993,6.68l-1.998,1.314-1.139,1.999c-3.294.57-13.424.901-14.843-1.999,3.059.403,2.922,7.333,0,7.994,1.646-3.274,14.047-3.131,15.982,0,1.871.571,2.595,2.569,2.174,5.996,7.73-1.823,10.594,5.61,5.817,9.993,1.646-3.274,14.047-3.131,15.982,0,1.991.627,2.657,2.667,1.998,6.122,5.117-.501,10.169-.054,14.983,1.873,1.462,1.693,2.295,3.636,1.974,5.849l11.953.146c-.094-10.045-.128-20.107,2.055-29.978.622-1.991,2.662-2.657,6.119-1.999-.258-2.184.811-4.165,1.872-5.996,8.472-2.136,8.449-6.118,0-7.994-1.957-2.626-1.962-5.371,0-7.994-1.961-2.627-1.971-5.373,0-7.994.622-1.991,2.662-2.657,6.119-1.999-.258-2.184.811-4.165,1.872-5.996-1.943-2.625-1.943-5.369,0-7.994-.548-4.991-2.774-6.989-6.678-5.996l-1.313-1.999c3.059.403,2.922,7.333,0,7.994-.402,3.06-7.33,2.924-7.991,0-6.269-8.52,2.999-13.72,7.991-7.994l-1.984-1.033.317-20.292c-3.158-.139-5.266-1.024-6.323-2.658l-1.998-1.123c-.67-2.932-.842-14.619,1.998-15.865.216,3.062-7.912,2.307-9.055,1.2-1.225-1.186-2.305-16.528,1.064-17.189.449-1.759,2.446-2.484,5.993-2.175-.611-3.118.054-5.057,1.998-5.819,1.646-3.274,14.047-3.131,15.982,0-3.059-.403-2.922-7.333,0-7.994,1.646-3.274,14.047-3.131,15.982,0-2.501-2.787-2.505-5.248,0-7.994.622-1.991,2.662-2.657,6.119-1.999-.258-2.184.812-4.165,1.872-5.996-2.775-10.076-2.507-20.727-1.262-31.014-2.307,1.234-4.57.54-6.73-.963-3.059-.403-2.922-7.333,0-7.994-1.646,3.274-14.047,3.131-15.982,0-1.871-.571-2.595-2.569-2.174-5.996-7.73,1.823-10.594-5.61-5.817-9.993-1.646,3.274-14.047,3.131-15.982,0-1.871-.57-2.595-2.569-2.174-5.996-3.117.612-5.056-.055-5.817-1.999-2.19-40.164-2.646-80.383-1.332-120.589.003-1.291,9.405-2.747,9.323.676-.775-.209-1.907-.517-1.998-1.14-.466-3.194-.53-19.421,0-22.415l1.998-1.426c.402-3.06,7.33-2.924,7.991,0-.781-.089-1.959-.346-1.998-.895-.243-3.431-.693-28.322,0-29.632.412-.778,1.191-1.191,1.998-1.45.402-3.06,7.33-2.924,7.991,0-.78-.09-1.949-.339-1.998-.895-.457-5.182-.917-25.353,0-29.632l1.998-1.45c.373-3.038,7.298-2.946,7.991,0-.774,0-1.967-.186-1.998-.673-.442-6.987-1.285-32.735,0-38.123l1.998-1.175c.373-3.038,7.298-2.946,7.991,0-.79-.085-1.978-.373-1.998-.932-.621-17.732-.824-38.43,0-56.118-.689-3.694-.023-5.995,1.998-6.904.402-3.06,7.33-2.924,7.991,0-.773-.003-1.958-.18-1.998-.673-.746-9.17-1.138-29.345,0-38.123l1.998-1.175c.34,3.464-9.127,1.927-9.318.746-1.709-10.537-1.106-22.373,1.327-32.722-7.929,4.827-12.737.609-7.991-7.994Z"/>
      <path class="g" d="M79.994,344.781v-7.994h7.991v-7.994h16.981v-7.994h7.991v-7.994h15.982v-7.994h15.982v-7.994h15.982c.011,2.653-.016,5.341,0,7.994,2.851,9.719,2.281,19.995,1.584,29.978,3.361-.654,5.496.012,6.407,1.999.877.049,1.459.481,1.998,1.123.543.647.843,15.759-1.998,15.865l1.062-1.999c7.255-.59,9.556.211,9.103,7.994,7.733-1.824,10.592,5.616,5.817,9.993,1.646-3.274,14.047-3.131,15.982,0,1.871.571,2.595,2.569,2.174,5.996,7.73-1.823,10.594,5.61,5.817,9.993l1.122-1.999c2.931-.67,14.613-.842,15.859,1.999,3.059.403,2.922,7.333,0,7.994l.932-1.999h61.788l1.208,1.999c-4.919-4.28-1.815-11.66,5.993-10.169-.79-7.049,1.337-8.501,8.117-7.818-.917-10.588-.293-20.914,1.872-30.978-4.746-8.603.062-12.822,7.991-7.994,1.691-1.462,3.635-2.295,5.854-1.977-.446-3.22.266-5.225,2.137-6.017,2.96-1.98,6.03-1.98,8.99,0,2.652.017,5.339-.012,7.991,0v7.994h15.982c.012,2.653-.017,5.341,0,7.994,1.886,2.484,2.713,5.123,1.163,7.885,2.413-1.601,4.665-.757,6.828,1.108.017,2.653-.012,5.341,0,7.994,2.652.025,5.34-.035,7.991,0,.063,10.643-.047,21.334,0,31.977h7.991v39.971h-7.991v63.954h-7.991v39.971h-7.991v31.977h-7.991v31.977h-7.991v24.982h-7.991c-.024,39.955.032,79.959,0,119.913,2.471,13.313,2.494,26.66,0,39.971,1.994,5.586,2.202,10.899,1.329,16.71-.203,1.356-10.309,2.661-10.319-.722l1.998,1.139c.594,3.162.876,13.515-1.998,14.849-.57,1.871-2.568,2.596-5.993,2.175.611,3.118-.055,5.058-1.998,5.819-.265,3.412-15.856,2.213-17.019,1.22-1.344-1.149-1.98-9.105,1.037-9.214l-.922,1.999h-45.83l-1.194-1.999c-1.871-.57-2.595-2.569-2.174-5.996-3.117.612-5.056-.055-5.817-1.999-1.8-4.473-2.682-9.244-1.584-13.99-3.369.652-5.505-.014-6.407-1.999-3.272-1.647-3.13-14.052,0-15.988l-1.062,1.999c-7.255.59-9.556-.211-9.103-7.994-3.116.612-5.055-.054-5.817-1.999-3.272-1.647-3.13-14.052,0-15.988l-1.079,1.999c-7.386.401-10.684.578-10.085-7.994-3.116.612-5.055-.054-5.817-1.999-3.272-1.647-3.13-14.052,0-15.988l-1.062,1.999c-7.255.59-9.556-.211-9.103-7.994-3.116.612-5.055-.054-5.817-1.999-3.272-1.647-3.13-14.052,0-15.988-4.272,4.917-11.655,1.825-10.165-5.996-7.124.764-8.225-1.233-7.991-7.994-3.116.612-5.055-.054-5.817-1.999-3.285-1.691-3.118-14.077,0-15.988-4.272,4.917-11.655,1.824-10.165-5.996-7.124.764-8.225-1.234-7.991-7.994-7.729,1.823-10.594-5.61-5.817-9.993-1.646,3.274-14.047,3.131-15.982,0-1.871-.57-2.595-2.569-2.174-5.996-3.117.612-5.056-.055-5.817-1.999-.778-.093-1.93-.328-1.998-.895-.722-6.022-.777-23.68,0-29.632l1.998-1.45c.402-3.06,7.33-2.924,7.991,0-.773-.003-1.958-.18-1.998-.673-.776-9.605-1.139-29.863,0-39.122l1.998-1.175c.402-3.06,7.33-2.924,7.991,0-.778-.093-1.93-.328-1.998-.895-.722-6.022-.777-23.68,0-29.632l1.998-1.45c.402-3.06,7.33-2.924,7.991,0-.779-.092-1.94-.334-1.998-.895-.607-5.895-.874-24.123,0-29.632l1.998-1.45c.402-3.06,7.33-2.924,7.991,0-.778-.093-1.93-.328-1.998-.895-.722-6.022-.777-23.68,0-29.632l1.998-1.45c.402-3.06,7.33-2.924,7.991,0l-1.998-.922v-45.848l1.998-1.195c.604-1.921,2.643-2.624,6.119-2.109-.675-3.201-.05-5.162,1.873-5.885-1.871-.57-2.595-2.569-2.174-5.996-3.117.612-5.056-.055-5.817-1.999-2.439-7.08-2.477-14.638-1.584-21.984-3.365.654-5.5-.013-6.407-1.999-3.272-1.647-3.13-14.052,0-15.988l-1.062,1.999c-7.255.59-9.556-.211-9.103-7.994-7.733,1.824-10.592-5.616-5.817-9.993-1.646,3.274-14.047,3.131-15.982,0-2.055-.861-2.72-3.221-1.998-7.081-10.562.851-20.884.213-30.965-1.912Z"/>
      <path class="j" d="M79.994,344.781c10.972-.066,21.991.048,32.963,0v8.993h15.982v7.994h7.991v7.994h7.991v15.988h7.991c.035,7.979-.048,16.004,0,23.983.548,4.991,2.774,6.989,6.678,5.996l1.313,1.999c0,1.302.283,7.712,0,7.994h-7.991v47.965h-7.991v31.977h-7.991v31.977h-7.991v31.977h-7.991v40.97h-7.991v31.977h7.991v7.994h15.982v7.994h7.991v7.994h7.991v7.994h7.991v15.988h7.991v7.994h7.991v7.994h7.991v15.988h7.991v7.994h7.991v15.988h7.991v7.994h8.99v15.988h7.991v7.994h7.991v15.988h7.991c-.023,5.316.032,10.673,0,15.988,4.398,8.244,1.351,10.506-5.993,10.169.765,7.127-1.235,8.229-7.991,7.994.79,7.054-1.339,8.499-8.117,7.818l.106,12.761-1.978,1.229c3.059.403,2.922,7.333,0,7.994-5.648,0-11.333-.005-16.981,0-1.871-.571-2.595-2.57-2.174-5.996-7.124.764-8.225-1.233-7.991-7.994-7.124.764-8.225-1.233-7.991-7.994-7.124.764-8.225-1.233-7.991-7.994-7.124.764-8.225-1.233-7.991-7.994-7.124.764-8.225-1.233-7.991-7.994-7.124.764-8.225-1.233-7.991-7.994-7.124.764-8.225-1.233-7.991-7.994-7.124.764-8.225-1.233-7.991-7.994-7.124.764-8.225-1.233-7.991-7.994-7.124.764-8.225-1.233-7.991-7.994-7.124.764-8.225-1.233-7.991-7.994-7.178.766-8.144-1.24-8.041-7.994-7.285.645-9.355-.412-8.94-7.994-7.126.763-8.225-1.231-7.991-7.994-7.124.764-8.225-1.233-7.991-7.994-7.124.764-8.225-1.233-7.991-7.994-7.124.764-8.225-1.233-7.991-7.994-7.124.764-8.225-1.233-7.991-7.994-7.124.764-8.225-1.233-7.991-7.994-4.362.736-6.967-.31-7.815-3.138v-12.794c-3.267.444-5.265-.241-5.993-2.055,0-1.302.283-7.712,0-7.994h-7.991v-63.954h-7.991v-112.918h7.991v-71.948h7.991v-31.977h7.991v-23.983h7.991v-7.994h7.991v-7.994h15.982v-8.993c2.652-.011,5.339.016,7.991,0Z"/>
      <path class="e" d="M249.805.03c15.966-.095,31.981.071,47.946,0v7.994h23.973v7.994c2.985.014,6.005-.019,8.99,0,1.99.622,2.656,2.662,1.998,6.122,2.22-.531,4.29.399,5.993,1.873,2.652.035,5.339-.025,7.991,0v7.994h7.991v7.994h15.982v7.994h7.991v7.994h7.991v7.994h7.991v7.994h7.991v7.994h7.991v8.993h7.991v7.994h7.991v7.994h7.991v7.994h8.99v7.994h7.991v7.994c5.314.023,10.668-.032,15.982,0,3.059.403,2.922,7.333,0,7.994,0,1.303.283,7.712,0,7.994-2.653.025-5.339-.035-7.991,0-2.156,1.852-4.438,2.725-6.855,1.137,1.59,2.414.706,4.699-1.136,6.858-8.275,2.323-8.769,5.778,0,7.994,2.653.018,5.338-.018,7.991,0,1.99.622,2.656,2.663,1.998,6.122,2.183-.258,4.163.812,5.993,1.873,5.314.032,10.669-.023,15.982,0v7.994h-7.991v7.994h-7.991v7.994c-10.973.018-21.991-.025-32.963,0-10.628,1.986-21.335,1.979-31.964,0-13.136,2.899-26.827,2.969-39.955,0-1.99-.622-2.656-2.663-1.998-6.122-2.183.258-4.163-.812-5.993-1.873-7.929,2.469-16.514,2.717-24.702,1.329-1.362-.231-2.587-9.391.729-9.324-.185.778-.446,1.726-1.14,1.999-1.043.409-20.131.229-22.406,0l-1.426-1.999c-3.059-.403-2.922-7.333,0-7.994l-1.165,1.999h-21.352l-1.456-1.999c-3.059-.403-2.922-7.333,0-7.994l-1.139,1.999c-3.161.594-13.51.876-14.843-1.999-1.991-.627-2.657-2.668-1.998-6.122-4.745.42-9.431-.483-13.984-1.873l-1.998-1.062c1.509-5.052-3.383-7.539-3.992-2.938-.201,1.52-1.06,2.824-2.002,4-2.255,1.433-4.516,2.429-6.855,1.137,1.292,2.339.296,4.602-1.136,6.858,3.022,9.695,5.02,19.295-5.993,18.163.792,7.053-1.343,8.5-8.117,7.818.528,2.231-.387,4.265-1.872,5.996-.85,2.053-3.21,2.719-7.079,1.999.169,2.181-.829,4.164-1.911,5.996,2.707,7.941,2.751,16.051,0,23.983-3.832,2.309-8.437,3.467-9.989-.922v-45.207l-12.756.143-1.228-1.979-1.998-1.062c1.083-7.876-4.861-6.585-5.993,1.062,1.949,2.627,1.958,5.372,0,7.994l-1.062,1.999c-6.946-1.458-7.195,5.32-.252,3.997l1.313,1.999c1.501,9.944,2.519,19.958,1.584,29.978,1.354-.096,7.559-.169,7.736,1.272,1.637,13.298,1.217,27.591-1.329,40.698h-7.991v-15.988h-7.991c-.023-5.316.032-10.672,0-15.988-.548-4.991-2.774-6.989-6.678-5.996l-1.313-1.999c-.095-15.972.071-31.993,0-47.965h-7.991c-.071-15.972.095-31.994,0-47.965-.548-4.991-2.774-6.989-6.678-5.996l-1.313-1.999c-.032-5.314-.032-10.674,0-15.988.622-1.991,2.662-2.657,6.119-1.999-.258-2.184.812-4.165,1.872-5.996.05-8.313-.036-16.669,0-24.982h7.991v-15.988h7.991v-7.994h15.982v-7.994h7.991v-7.994h7.991v-7.994h16.981v-7.994h7.991v-7.994c5.314-.023,10.668.032,15.982,0,4.989-.548,6.987-2.775,5.993-6.68l1.998-1.314Z"/>
      <path class="j" d="M208.85,224.867c3.095-2.485,5.902-2.499,8.99,0-3.272-1.647-3.13-14.052,0-15.988.402-3.06,7.33-2.924,7.991,0-3.259-1.622-3.144-14.003,0-15.988,1.646-3.274,14.047-3.131,15.982,0-3.272-1.647-3.13-14.052,0-15.988.57-1.871,2.568-2.596,5.993-2.175-.611-3.118.055-5.058,1.998-5.819,1.646-3.274,14.047-3.131,15.982,0,3.059.403,2.922,7.333,0,7.994,1.646-3.274,14.047-3.131,15.982,0,3.059.403,2.922,7.333,0,7.994,1.646-3.274,14.047-3.131,15.982,0,3.059.403,2.922,7.333,0,7.994.214-.78.54-1.924,1.165-1.999,2.436-.292,19.721-.446,21.352,0l1.456,1.999c3.059.403,2.922,7.333,0,7.994,0-.775.186-1.968.673-1.999,7.625-.478,32.948-1.361,39.107,0l1.175,1.999c1.992.63,2.658,2.67,1.998,6.122,7.391-.343,14.886-.603,21.975,1.873v15.988h-7.991v31.977h-7.991v23.983h-7.991v7.994h-7.991v7.994h-7.991v15.988h-7.991v7.994h-7.991v7.994c-2.984-.019-6.006-.019-8.99,0-4.989.548-6.987,2.775-5.993,6.68l-1.998,1.314c-2.652.035-5.339-.025-7.991,0-.011,2.653.016,5.341,0,7.994-.086.788-.368,1.977-.922,1.999-5.933.236-46.276.856-48.053-.773-.898-2.171-1.28-4.578-1.146-7.221-7.124.764-8.225-1.233-7.991-7.994-7.124.764-8.225-1.233-7.991-7.994-7.124.764-8.225-1.233-7.991-7.994-3.116.612-5.055-.054-5.817-1.999-3.259-1.622-3.144-14.003,0-15.988-.402,3.06-7.33,2.924-7.991,0-3.272-1.647-3.13-14.052,0-15.988.303,3.56-10.24,1.876-10.321.703-1.305-18.877-1.231-37.908,1.331-56.663Z"/>
      <path class="g" d="M32.048,682.536c1.302,0,7.709-.283,7.991,0v15.988h7.991v7.994h7.991v7.994h7.991v7.994h7.991v7.994h7.991v7.994h7.991v7.994h7.991v7.994h8.99v7.994h7.991v7.994h7.991v7.994h7.991v7.994h7.991v7.994h7.991v7.994h7.991v7.994h7.991v7.994h7.991v7.994h7.991v7.994h7.991v7.994h7.991v7.994h7.991v7.994c-7.978.007-15.996-.005-23.973,0v8.993h-55.938v-8.993h-56.936v-7.994h-23.973v-7.994h-15.982v-7.994h-7.991v-7.994h-7.991c.018-2.652.018-5.342,0-7.994-.548-4.991-2.774-6.989-6.678-5.996l-1.313-1.999c-.111-18.629-.111-37.33,0-55.959.622-1.991,2.662-2.657,6.119-1.999-.258-2.184.812-4.165,1.872-5.996.032-5.316-.023-10.672,0-15.988h7.991c.023-5.316-.032-10.672,0-15.988.622-1.991,2.662-2.657,6.119-1.999-.258-2.184.812-4.165,1.872-5.996.032-5.316-.032-10.672,0-15.988.57-1.871,2.568-2.596,5.993-2.175-.611-3.118.055-5.058,1.998-5.819Z"/>
      <path class="i" d="M249.805,152.92c5.315.011,10.667-.008,15.982,0v7.994h15.982v7.994h23.973v7.994h24.972v7.994c7.976.035,15.997-.048,23.973,0,1.99.622,2.656,2.663,1.998,6.122,2.183-.258,4.163.812,5.993,1.873,13.302.079,26.653-.014,39.955,0,3.059.403,2.922,7.333,0,7.994-2.652.016-5.339-.011-7.991,0v7.994c-2.652.011-5.339-.016-7.991,0-7.976.048-15.997-.035-23.973,0v-7.994h-40.954v-7.994h-23.973v-7.994h-15.982v-7.994h-15.982v-7.994h-15.982v7.994h-7.991v15.988h-15.982v15.988h-7.991v15.988c-2.985-.014-6.005.019-8.99,0-.042,18.637.031,37.322,0,55.959h8.99v15.988h7.991v15.988h7.991v7.994h7.991v7.994h7.991v7.994h7.991v7.994h47.946c-.065,10.976.048,21.999,0,32.976h-7.991v7.994h-7.991v7.994h-63.929v-7.994h-16.981v-7.994h-7.991v-7.994h-15.982v-7.994h-7.991v-7.994h-7.991v-16.988h-7.991c-.047-10.644.063-21.333,0-31.977h7.991c.025-2.654-.035-5.341,0-7.994.622-1.991,2.662-2.657,6.119-1.999-.258-2.184.812-4.165,1.872-5.996.032-5.316-.023-10.673,0-15.988h7.991c.011-2.653-.016-5.341,0-7.994.079-13.308-.059-26.663,0-39.971h-7.991c.006-10.645-.008-21.332,0-31.977-1.959-2.625-1.962-5.371,0-7.994.005-2.653-.018-5.341,0-7.994.402-3.06,7.33-2.924,7.991,0,2.358,0,15.417-.565,15.982,0v47.965c2.652.012,5.339-.017,7.991,0,.018-7.979-.048-16.004,0-23.983.85-2.053,3.21-2.719,7.079-1.999-.446-2.253.41-4.252,1.911-5.996.035-2.653-.025-5.341,0-7.994h7.991v-7.994h7.991c.023-5.316-.032-10.673,0-15.988.622-1.991,2.661-2.657,6.119-1.999-.53-2.221.399-4.292,1.872-5.996,2.621-1.974,5.367-1.969,7.991,0Z"/>
      <path class="d" d="M434.598,192.891v7.994c-10.639.047-21.325-.064-31.964,0v-7.994c10.639.012,21.325.024,31.964,0Z"/>
      <path class="d" d="M354.688,344.781h7.991c.014,2.986-.019,6.008,0,8.993-2.651-.035-5.339.025-7.991,0-.014-2.986.019-6.008,0-8.993Z"/>
      <path class="d" d="M547.472,1083.245c2.984.015,6.005-.01,8.99,0v7.994c-2.985-.015-6.005.01-8.99,0v-7.994Z"/>
      <path class="d" d="M208.85,1140.204h8.99c.025,2.654-.035,5.341,0,7.994h-8.99c-.025-2.653.035-5.342,0-7.994Z"/>
      <path class="h" d="M556.462,650.559c-.035,2.653.025,5.341,0,7.994h-8.99v-7.994c2.985-.02,6.005.014,8.99,0Z"/>
      <path class="g" d="M717.283,642.565c-.016,2.653.011,5.341,0,7.994h-7.991c.016-2.653-.011-5.341,0-7.994h7.991Z"/>
      <path class="h" d="M572.445,642.565c-.035,2.653.025,5.341,0,7.994h-7.991v-7.994c2.653-.02,5.338.014,7.991,0Z"/>
      <path class="d" d="M32.048,682.536v7.994h-7.991c.016-2.654-.011-5.34,0-7.994h7.991Z"/>
      <path class="h" d="M628.382,610.588c-.017,2.654.012,5.341,0,7.994h-7.991v-7.994c2.653-.02,5.338.014,7.991,0Z"/>
      <path class="h" d="M499.526,682.536c-.035,2.653.025,5.341,0,7.994h-7.991v-7.994c2.652-.02,5.339.014,7.991,0Z"/>
      <path class="d" d="M24.057,706.518c-.016,2.654.011,5.34,0,7.994h-7.991c.016-2.654-.011-5.341,0-7.994h7.991Z"/>
      <path class="h" d="M685.319,577.612c-.035,2.653.025,5.341,0,7.994h-7.991v-7.994c2.653-.02,5.338.014,7.991,0Z"/>
      <path class="g" d="M693.31,722.507c-.016,2.653.011,5.341,0,7.994h-7.991c.016-2.654-.011-5.34,0-7.994h7.991Z"/>
      <path class="d" d="M8.074,746.489c-.016,2.654.011,5.341,0,7.994H.083c.016-2.653-.011-5.341,0-7.994h7.991Z"/>
      <path class="h" d="M701.301,569.618c-.035,2.653.025,5.341,0,7.994h-7.991v-7.994c2.653-.02,5.338.014,7.991,0Z"/>
      <path class="h" d="M741.256,561.623c0,1.302.283,7.712,0,7.994h-7.991c.016-2.653-.011-5.341,0-7.994h7.991Z"/>
      <path class="d" d="M.083,810.443h7.991c.012,2.653-.018,5.341,0,7.994H.083c-.011-2.653.016-5.341,0-7.994Z"/>
      <path class="d" d="M717.283,826.432c-.016,2.653.011,5.341,0,7.994h-7.991c.016-2.654-.011-5.34,0-7.994h7.991Z"/>
      <path class="g" d="M176.886,288.821c-.016,2.653.011,5.341,0,7.994h-7.991c.035-2.653-.025-5.341,0-7.994h7.991Z"/>
      <path class="d" d="M160.904,224.867h7.991c.011,2.654-.016,5.341,0,7.994h-7.991c-.011-2.653.016-5.341,0-7.994Z"/>
      <path class="d" d="M693.31,867.402c-.017,2.654.012,5.34,0,7.994-2.652.025-5.339-.035-7.991,0-.035,2.653.025,5.341,0,7.994-2.653.025-5.339-.035-7.991,0-.035,2.653.025,5.341,0,7.994-2.653.012-5.338-.017-7.991,0v-7.994c2.653-.025,5.339.035,7.991,0,.035-2.653-.025-5.341,0-7.994,2.652-.025,5.339.035,7.991,0,.035-2.653-.025-5.341,0-7.994h7.991Z"/>
      <path class="d" d="M628.382,923.361v7.994c-2.652.025-5.339-.035-7.991,0v-7.994c2.652-.025,5.339.035,7.991,0Z"/>
      <path class="d" d="M459.571,160.914c2.653.018,5.338-.012,7.991,0v7.994c-2.652-.016-5.339.011-7.991,0v-7.994Z"/>
      <path class="d" d="M459.571,144.925v7.994c-2.652.025-5.339-.035-7.991,0-.02,2.654.014,5.34,0,7.994-2.653-.018-5.338.012-7.991,0v-7.994c2.652-.025,5.339.035,7.991,0,.02-2.654-.014-5.34,0-7.994,2.653-.025,5.339.035,7.991,0Z"/>
      <path class="d" d="M.083,947.344h7.991c.011,2.653-.016,5.341,0,7.994H.083c-.011-2.653.016-5.341,0-7.994Z"/>
      <path class="d" d="M580.436,955.338v7.994c-2.652.025-5.34-.035-7.991,0v-7.994c2.652-.025,5.339.035,7.991,0Z"/>
      <path class="d" d="M467.562,128.937c2.653.016,5.338-.011,7.991,0v7.994h-7.991v-7.994Z"/>
      <path class="d" d="M652.355,995.309c2.652.016,5.339-.011,7.991,0v7.994c-2.652-.016-5.339.011-7.991,0v-7.994Z"/>
      <path class="d" d="M8.074,1003.303h7.991c.011,2.654-.016,5.341,0,7.994h-7.991c-.011-2.653.016-5.341,0-7.994Z"/>
      <path class="d" d="M144.922,120.943h7.991c.011,2.653-.016,5.341,0,7.994h-7.991c-.011-2.654.016-5.34,0-7.994Z"/>
      <path class="d" d="M709.292,1011.298c2.652.016,5.339-.011,7.991,0v7.994c-2.652-.016-5.339.011-7.991,0v-7.994Z"/>
      <path class="d" d="M152.913,96.96c-.016,2.654.011,5.341,0,7.994h-7.991c.016-2.654-.011-5.34,0-7.994h7.991Z"/>
      <path class="d" d="M72.003,1083.245c2.652.016,5.339-.011,7.991,0v7.994c-2.652-.016-5.339.011-7.991,0v-7.994Z"/>
      <path class="d" d="M330.714,16.019c2.652.017,5.339-.012,7.991,0v7.994c-2.652-.035-5.339.025-7.991,0v-7.994Z"/>
      <path class="d" d="M580.436,1091.24c2.653.016,5.339-.011,7.991,0v7.994c-2.653-.016-5.338.011-7.991,0v-7.994Z"/>
      <path class="d" d="M749.247,1091.24c-.035,2.653.025,5.341,0,7.994-2.652.011-5.339-.016-7.991,0v-7.994h7.991Z"/>
      <path class="d" d="M612.4,1099.234c2.653.016,5.338-.011,7.991,0v7.994c-2.652-.016-5.339.011-7.991,0v-7.994Z"/>
      <path class="d" d="M725.274,1099.234v7.994c-2.652.011-5.339-.016-7.991,0v-7.994c2.652-.011,5.339.016,7.991,0Z"/>
      <path class="d" d="M249.805.03v7.994c-2.653.011-5.339-.016-7.991,0V.03c2.652-.011,5.339.016,7.991,0Z"/>
      <path class="d" d="M362.679,1148.198h7.991c.025,2.653-.035,5.341,0,7.994h-7.991c-.025-2.653.035-5.342,0-7.994Z"/>
      <path class="d" d="M225.831,1156.193c2.652.035,5.339-.025,7.991,0v7.994c-2.652-.035-5.339.025-7.991,0v-7.994Z"/>
      <path class="d" d="M273.778,1188.169h7.991c.025,2.653-.035,5.341,0,7.994h-7.991c-.025-2.653.035-5.341,0-7.994Z"/>
      <path class="d" d="M402.634,1252.123c-.016,2.653.011,5.341,0,7.994-2.652.025-5.339-.035-7.991,0-.035,2.653.025,5.341,0,7.994-2.653.011-5.339-.016-7.991,0v-7.994c2.652-.025,5.339.035,7.991,0,.035-2.653-.025-5.341,0-7.994h7.991Z"/>
      <path class="i" d="M241.814,810.443h7.991v7.994h47.946v7.994h15.982c1.668.581,2.46,2.58,2.378,5.996h13.203c2.913.666,4.104,3.33,3.574,7.994,3.116-.612,5.055.054,5.817,1.999v15.988h7.991v16.988h7.991c.848.848,0,20.661,0,23.983-1.302,0-7.709-.283-7.991,0-.025,2.653.035,5.341,0,7.994,4.825,7.933.609,12.742-7.991,7.994-2.622,1.977-5.368,1.975-7.991,0-2.985-.016-6.005.011-8.99,0v-7.994h-7.991v-7.994h-7.991v-7.994c-18.63.083-37.308-.111-55.938,0,0-1.302.283-7.712,0-7.994h-7.991v-7.994h-7.991v-7.994h-7.991c-.014-2.986.019-6.007,0-8.993-.548-4.991-2.774-6.989-6.678-5.996l-1.313-1.999c0-2.359-.565-15.423,0-15.988h7.991v-7.994h7.991v-7.994h7.991c.011-2.653-.016-5.341,0-7.994Z"/>
      <path class="g" d="M652.355,858.408c-.015,2.986.01,6.007,0,8.993-2.652.025-5.339-.035-7.991,0v-8.993h7.991Z"/>
      <path class="g" d="M669.336,802.449c-.016,2.654.011,5.34,0,7.994h-8.99c.016-2.654-.011-5.34,0-7.994h8.99Z"/>
      <path class="g" d="M321.724,1019.292c2.985.016,6.004-.011,8.99,0v7.994c-2.985-.016-6.004.011-8.99,0v-7.994Z"/>
      <path class="h" d="M685.319,746.489c-.016,2.654.011,5.34,0,7.994h-7.991c.016-2.653-.011-5.341,0-7.994h7.991Z"/>
      <path class="g" d="M677.328,778.466c-.016,2.653.011,5.341,0,7.994h-7.991c.016-2.654-.011-5.34,0-7.994h7.991Z"/>
      <path class="h" d="M660.346,826.432c-.016,2.654.011,5.34,0,7.994h-7.991c.016-2.654-.011-5.341,0-7.994h7.991Z"/>
      <path class="d" d="M217.84,850.414h7.991c.012,2.654-.017,5.341,0,7.994h-7.991v-7.994Z"/>
      <path class="g" d="M249.805,891.384v7.994c-2.652.025-5.339-.035-7.991,0v-7.994c2.653-.011,5.339.016,7.991,0Z"/>
      <path class="g" d="M596.418,891.384v7.994c-2.652.025-5.339-.035-7.991,0v-7.994c2.652-.025,5.339.035,7.991,0Z"/>
      <path class="g" d="M523.499,931.355v7.994c-2.653.012-5.338-.018-7.991,0v-7.994c2.652-.025,5.339.035,7.991,0Z"/>
      <path class="h" d="M507.517,939.35v7.994c-2.652.025-5.339-.035-7.991,0v-7.994c2.653-.012,5.338.018,7.991,0Z"/>
      <path class="h" d="M200.859,947.344c0-1.302-.283-7.712,0-7.994h7.991v7.994c-2.653.012-5.339-.018-7.991,0v7.994c-2.652-.035-5.339.025-7.991,0v-7.994c2.652.018,5.339.018,7.991,0Z"/>
      <path class="g" d="M249.805,979.321c2.652.035,5.339-.025,7.991,0v7.994c-2.652-.035-5.339.025-7.991,0v-7.994Z"/>
      <path class="g" d="M434.598,979.321v7.994c-2.652.025-5.339-.035-7.991,0v-7.994c2.653-.012,5.339.017,7.991,0Z"/>
      <path class="g" d="M305.742,1011.298c2.652.035,5.339-.025,7.991,0v7.994c-2.653-.018-5.338.012-7.991,0v-7.994Z"/>
      <path class="g" d="M362.679,1019.292v7.994c-2.653.012-5.338-.018-7.991,0v-7.994c2.652-.025,5.339.035,7.991,0Z"/>
      <path class="g" d="M346.697,1027.286v7.994h-7.991v-7.994c2.653.005,5.338.005,7.991,0Z"/>
      <path class="e" d="M378.661,778.466c2.652.016,5.339-.011,7.991,0-.047,10.643.063,21.334,0,31.977-.622,1.991-2.661,2.657-6.119,1.999.53,2.221-.399,4.292-1.872,5.996-.035,2.652.025,5.342,0,7.994h-15.982v7.994h-15.982v7.994c-.283.283-6.689,0-7.991,0h-7.991v-7.994h-16.981c-.283-.283,0-6.692,0-7.994v-7.994h7.991v-15.988h8.99c.007-5.317-.01-10.671,0-15.988l1.165-1.999h20.686c-.216-2.687.241-5.128,1.371-7.323,8.261-1.12,16.751-1.367,24.724,1.327Z"/>
      <path class="e" d="M330.714,923.361c2.626-1.962,5.371-1.971,7.991,0,2.476,5.385,2.457,10.598,0,15.988,1.432,2.256,2.428,4.518,1.136,6.858,2.338-1.292,4.6-.297,6.855,1.137-1.96-2.624-1.957-5.369,0-7.994,2.625-1.965,5.37-1.973,7.991,0,1.961,2.627,1.971,5.373,0,7.994-2.623,1.978-5.369,1.978-7.991,0,1.963,2.625,1.965,5.371,0,7.994-.027,10.644.02,21.333,0,31.977h-15.982c-.025-2.653.035-5.341,0-7.994,2.201-1.472,4.457-2.292,6.771-1.035-1.445-5.082-.81-10.103,1.22-14.953-1.432-2.256-2.428-4.518-1.136-6.858-2.338,1.292-4.6.296-6.855-1.137-1.958-2.624-1.956-5.369,0-7.994-1.958-2.622-1.949-5.367,0-7.994-1.442-2.239-2.39-4.499-1.108-6.831-2.686,1.293-5.288.295-7.882-1.163,1.958,2.624,1.956,5.369,0,7.994,1.958,2.622,1.949,5.367,0,7.994,1.421,2.279,2.479,4.547,1.175,6.899,2.753-1.579,5.321-.822,7.815,1.095,3.059.403,2.922,7.333,0,7.994l-.349,1.329c-5.801-.156-7.941,1.4-6.418,4.667,7.538-.935,11.713,1.941,6.766,9.993-5.647.034-11.334-.025-16.981,0v-7.994h-15.982v-7.994h-7.991v-7.994h-15.982v-7.994h15.982v-7.994c2.653-.012,5.339.018,7.991,0,2.623-1.978,5.369-1.978,7.991,0q1.771.456,0,0c-3.059-.403-2.922-7.333,0-7.994,2.653-.018,5.338.005,7.991,0,2.624-1.968,5.369-1.972,7.991,0-3.037-.374-2.945-7.301,0-7.994,2.985-.019,6.005-.006,8.99,0Z"/>
      <path class="e" d="M354.688,907.373c.402-3.06,7.33-2.924,7.991,0,.018,2.653.018,5.342,0,7.994-.622,1.991-2.662,2.657-6.119,1.999.258,2.184-.811,4.165-1.872,5.996-.018,2.654.005,5.34,0,7.994-.402,3.06-7.33,2.924-7.991,0-1.433-2.256-2.428-4.518-1.136-6.858-2.338,1.292-4.6.297-6.855-1.137-3.037-.374-2.945-7.301,0-7.994,2.652-.018,5.339.012,7.991,0,.025-2.653-.035-5.341,0-7.994h7.991Z"/>
      <path class="f" d="M330.714,746.489h7.991v7.994h15.982v7.994h7.991v7.994h15.982v7.994c-7.976-.048-15.997.035-23.973,0v7.994h-23.973c.024-13.308-.011-26.663,0-39.971Z"/>
      <rect class="h" x="612.4" y="858.408" width="7.991" height="8.993"/>
      <rect class="h" x="434.598" y="955.338" width="8.99" height="7.994"/>
      <rect class="h" x="321.724" y="1003.303" width="8.99" height="7.994"/>
      <rect class="h" x="434.598" y="714.513" width="8.99" height="7.994"/>
      <rect class="h" x="394.643" y="762.478" width="7.991" height="7.994"/>
      <path class="g" d="M386.652,810.443c-.016,2.653.011,5.341,0,7.994h-7.991c.035-2.652-.025-5.342,0-7.994h7.991Z"/>
      <rect class="h" x="378.661" y="834.426" width="7.991" height="7.994"/>
      <rect class="h" x="370.67" y="867.402" width="7.991" height="7.994"/>
      <path class="h" d="M354.688,899.379h7.991c.012,2.654-.018,5.341,0,7.994h-7.991v-7.994Z"/>
      <rect class="h" x="539.481" y="899.379" width="7.991" height="7.994"/>
      <rect class="h" x="523.499" y="907.373" width="7.991" height="7.994"/>
      <path class="h" d="M338.705,923.361c2.652.018,5.339-.012,7.991,0,.012,2.654-.018,5.341,0,7.994,1.971,2.621,1.961,5.368,0,7.994-.402,3.06-7.33,2.924-7.991,0-.032-5.316,0-10.672,0-15.988Z"/>
      <path class="h" d="M338.705,915.367v7.994c-2.652-.018-5.339.005-7.991,0v-7.994c2.652.014,5.339.018,7.991,0Z"/>
      <path class="h" d="M362.679,915.367c-.018,2.653.012,5.341,0,7.994h-7.991c.018-2.654-.012-5.34,0-7.994h7.991Z"/>
      <path class="g" d="M321.724,923.361v7.994c-2.653-.014-5.338-.005-7.991,0v-7.994c2.653-.012,5.339.017,7.991,0Z"/>
      <path class="g" d="M305.742,931.355v7.994c2.653.018,5.339-.012,7.991,0v7.994h-7.991c-.283-.283,0-6.692,0-7.994-2.652-.018-5.339-.018-7.991,0v-7.994c2.653-.012,5.338.018,7.991,0Z"/>
      <path class="g" d="M354.688,931.355c-.005,2.656.005,5.338,0,7.994-2.652-.018-5.338,0-7.991,0-.005-2.654.018-5.341,0-7.994h7.991Z"/>
      <path class="h" d="M354.688,939.35c2.653.018,5.338-.012,7.991,0v7.994c-2.653.012-5.338-.018-7.991,0-.018,2.654.012,5.34,0,7.994h-7.991c.007-2.656.002-5.338,0-7.994,2.652.018,5.339.018,7.991,0,.018-2.654-.005-5.34,0-7.994Z"/>
      <rect class="h" x="217.84" y="947.344" width="7.991" height="7.994"/>
      <rect class="h" x="451.579" y="947.344" width="7.991" height="7.994"/>
      <rect class="h" x="362.679" y="995.309" width="7.991" height="7.994"/>
      <rect class="h" x="346.697" y="1003.303" width="7.991" height="7.994"/>
      <path class="h" d="M152.913,409.733h7.991v7.994h-7.991c-.011-2.653.016-5.341,0-7.994Z"/>
      <path class="f" d="M321.724,328.792v7.994c-2.652.025-5.339-.035-7.991,0v-7.994c2.652-.012,5.339.017,7.991,0Z"/>
      <path class="d" d="M217.84,192.891c-.035,2.653.025,5.341,0,7.994h-8.99c.016-2.653-.011-5.341,0-7.994h8.99Z"/>
      <path class="f" d="M354.688,184.896c2.652.016,5.339-.011,7.991,0v7.994c-2.652-.016-5.339.011-7.991,0v-7.994Z"/>
      <path class="d" d="M176.886,184.896c-.005,2.656.002,5.339,0,7.994h-7.991v-7.994h7.991Z"/>
      <path class="d" d="M176.886,176.902c.018-2.653-.012-5.341,0-7.994h7.991v7.994h-7.991Z"/>
      <path class="f" d="M241.814,152.92c.035-2.653-.025-5.341,0-7.994h7.991v7.994c-2.652-.005-5.339-.018-7.991,0-.035,2.653.025,5.341,0,7.994h-7.991c.016-2.653-.011-5.341,0-7.994,2.652-.012,5.339.018,7.991,0Z"/>
      <path class="g" d="M330.714,963.332c.402-3.06,7.33-2.924,7.991,0,.032,5.316-.023,10.672,0,15.988-2.653.011-5.339-.016-7.991,0-.035-2.653.025-5.341,0-7.994h-8.99v-7.994c.318-.318,7.566,0,8.99,0Z"/>
      <path class="j" d="M321.724,931.355c2.985.016,6.005-.011,8.99,0,.012,2.654-.018,5.34,0,7.994-.477,3.094-8.249,2.955-8.99,0-.005-2.656,0-5.338,0-7.994Z"/>
      <path class="g" d="M330.714,939.35c.018,2.654-.005,5.34,0,7.994-.477,3.094-8.249,2.955-8.99,0-.018-2.653.005-5.341,0-7.994h8.99Z"/>
      <path class="j" d="M330.714,947.344c.005,2.656,0,5.338,0,7.994,2.653.017,5.338-.012,7.991,0,.011,2.654-.016,5.341,0,7.994h-7.991v-7.994c-2.985-.019-6.005.014-8.99,0-.012-2.654.018-5.341,0-7.994h8.99Z"/>
      <rect class="h" x="305.742" y="955.338" width="7.991" height="7.994"/>
      <path class="j" d="M346.697,939.35c.005,2.656-.002,5.338,0,7.994-2.653-.018-5.338.012-7.991,0-.011-2.654.016-5.34,0-7.994h7.991Z"/>
    </g>
  </g>
</svg>