<?xml version="1.0" encoding="UTF-8"?>
<svg id="b" data-name="Layer 2" xmlns="http://www.w3.org/2000/svg" width="677.214" height="1500.151" viewBox="0 0 677.214 1500.151">
  <defs>
    <style>
      .d {
        fill: #aa1f65;
      }

      .e {
        fill: #fe8042;
      }

      .f {
        fill: #fe4f69;
      }

      .g {
        fill: #49e6eb;
      }

      .h {
        fill: #fed945;
      }

      .i {
        fill: #2c1054;
      }
    </style>
  </defs>
  <g id="c" data-name="Layer 1">
    <g>
      <path class="f" d="M233.729,417.815c5.949,12.185-5.205,11.652-15.981,7.995,6.216,8.384-2.951,13.504-7.991,7.995.776.21,1.84.499,1.998,1.166.491,2.075.334,18.764,0,21.363l-1.998,1.457c.402-3.061,7.329-2.924,7.991,0,3.272,1.647,3.13,14.054,0,15.99.402-3.061,7.329-2.924,7.991,0l1.998,1.14c.594,3.162.876,13.517-1.998,14.851,4.272-4.917,11.654-1.825,10.165,5.996,7.729-1.824,10.593,5.611,5.817,9.994,1.646-3.274,14.046-3.131,15.981,0,1.871.571,2.595,2.57,2.174,5.996,7.729-1.824,10.593,5.611,5.817,9.994,1.646-3.274,14.046-3.131,15.981,0,3.059.403,2.922,7.333,0,7.995,1.646-3.274,14.046-3.131,15.981,0,3.059.403,2.922,7.333,0,7.995l1.14-1.999h22.405l1.426,1.999c3.059.403,2.922,7.333,0,7.995l.934-1.999h69.772l1.211,1.999c-3.059-.403-2.922-7.333,0-7.995,1.646-3.274,14.046-3.131,15.981,0-3.485-.836-2.76-9.736,1.079-9.994l5.913-.176c-1.823-7.733,5.608-10.599,9.988-5.82-3.272-1.647-3.13-14.054,0-15.99.402-3.061,7.329-2.924,7.991,0-.778-.214-1.896-.526-1.998-1.166-.448-2.821-.474-18.659,0-21.363l1.998-1.457c-.402,3.061-7.329,2.924-7.991,0-.779-.214-1.914-.535-1.998-1.166-.363-2.719-.494-19.131,0-21.363l1.998-1.457c-.402,3.061-7.329,2.924-7.991,0-3.272-1.647-3.13-14.054,0-15.99,1.646-3.274,14.046-3.131,15.981,0-3.059-.403-2.922-7.333,0-7.995,2.624-1.959,5.369-1.964,7.991,0,2.624-1.957,5.368-1.961,7.991,0,7.977.007,15.995-.005,23.972,0v7.995h15.981v7.995h7.991v7.995h32.962v7.995h15.981v7.995h7.991v7.995h7.991v7.995h7.991v15.99h7.991v15.99h7.991v15.99h7.991v15.99h7.991v23.985h7.991v31.98h7.991v23.985h7.991v39.975h8.99v39.975h7.991v48.97h7.991v63.961h7.991v63.961h7.991v31.98h7.991v168.896h-7.991v79.951h-7.991v87.946h-7.991v15.99h-15.981v7.995h-8.99c-1.968-2.621-1.956-5.367,0-7.995-.087.787-.364,1.971-.922,1.999-12.252.613-26.728.433-39.05,0-4.108.718-6.766.052-7.973-1.999-1.904-.575-2.611-2.574-2.12-5.996h-28.394l-1.449-1.999c.016-18.64-.012-37.326,0-55.966h-7.991v-55.966h-7.991v15.99h-8.99v7.995h-7.991v7.995h-7.991v7.995h-15.981v7.995h-15.981v7.995h-15.981v7.995h-23.972v7.995h-24.971v7.995h-31.963v7.995h-31.963v7.995h-56.934v7.995h-128.851c.025,21.304-.034,42.657,0,63.961l-1.139,1.999h-12.788c.551,3.202-.134,5.201-2.055,5.996-.214.779-.539,1.921-1.165,1.999-2.545.316-19.501.47-21.351,0l-1.456-1.999c3.424.92,2.803,10.082-.673,10.993h-38.477c.181,2.091-.419,4.09-1.802,5.996h-23.972v-24.985h-7.991v-39.975h-7.991v-31.98h-7.991v-39.975h-7.991v-39.975h-7.991v-39.975h-7.991v-47.971H0v-200.877h7.991v-151.907h7.991v-56.965h7.991v-39.975h7.991v-31.98h7.991v-23.985h7.991v-15.99h7.991v-15.99h7.991v-7.995h7.991v-7.995h7.991v-7.995h7.991v-7.995h8.99v-7.995h7.991v-7.995h7.991v-7.995h7.991v-7.995h7.991v-7.995h7.991v-7.995h15.981v-7.995h7.991v-7.995h7.991v-7.995h15.981v-7.995h16.98v-7.995c5.313-.015,10.668.02,15.981,0,.035-2.653-.025-5.342,0-7.995h15.981Z"/>
      <path class="i" d="M346.598.071c1.99.622,2.656,2.663,1.998,6.122,2.183-.258,4.163.812,5.993,1.873,7.976.048,15.996-.035,23.972,0v7.995h23.972v7.995h16.98v7.995h15.981v7.995h7.991v7.995h7.991v7.995h7.991c.025,2.653-.035,5.342,0,7.995,1.462,1.692,2.294,3.637,1.976,5.857,3.218-.446,5.223.267,6.015,2.138.081,13.642-.06,27.332,0,40.975h-7.991c-.012,2.654.018,5.342,0,7.995-.621,1.991-2.661,2.657-6.119,1.999.53,2.221-.399,4.293-1.872,5.996,5.093,7.92-.075,13.091-7.991,7.995-1.691,1.462-3.635,2.296-5.854,1.977.446,3.22-.267,5.226-2.137,6.018-1.692,1.463-3.636,2.296-5.854,1.977.399,7.313-1.93,10.421-10.128,6.018-2.044,1.681-4.438,2.096-6.992,2.175.612,3.115-.054,5.055-1.998,5.82-1.833,1.232-3.891,1.765-5.993,2.175,1.573,10.735-8.641,8.83-17.979,5.82-4.989.548-6.986,2.775-5.993,6.681l-1.998,1.314c-4.467,1.845-9.242,2.664-13.984,1.585,1.684,11.187-7.949,9.629-17.979,6.41-4.989.548-6.986,2.775-5.993,6.681l-1.998,1.314c-7.079,2.441-14.639,2.478-21.975,1.585.07,1.422.207,7.484-1.248,7.737-8.475,1.477-17.488,1.081-25.721-1.327-4.989.548-6.986,2.775-5.993,6.681l-1.998,1.314c-7.925,2.777-16.033,2.714-23.972,0-4.989.548-6.986,2.775-5.993,6.681l-1.998,1.314c-1.738,1.583-3.813,2.181-6.118,2.109.675,3.198.051,5.16-1.872,5.886,1.871.57,2.595,2.569,2.174,5.996,3.116-.612,5.055.055,5.817,1.999,2.578,10.369,2.9,22.085,1.33,32.7-.201,1.356-9.384,2.613-9.32-.72.773.004,1.955.178,1.998.673.806,9.296,1.068,29.083,0,38.127l-1.998,1.175c.402-3.061,7.329-2.924,7.991,0l1.998,1.14c.57,3.296.901,13.43-1.998,14.851-.054.89-.502,1.467-1.165,1.999-.833.668-19.123.207-21.351,0l-1.456-1.999c-3.272-1.647-3.13-14.054,0-15.99.217,3.039-7.823,2.329-9.042,1.21-1.341-1.232-1.955-9.063,1.051-9.205-.185.778-.446,1.727-1.14,1.999-1.043.409-20.13.229-22.405,0l-1.426-1.999c3.038-.217,2.328,7.827,1.209,9.047-1.231,1.342-9.058,1.956-9.2-1.052l1.998,1.14c.57,3.296.901,13.43-1.998,14.851.402-3.061,7.329-2.924,7.991,0l1.998,1.14c.57,3.296.901,13.43-1.998,14.851l1.079-1.999c7.373-.404,10.689-.573,10.084,7.995,7.051-.79,8.496,1.339,7.815,8.121,2.222-.531,4.291.4,5.993,1.873,2.491,2.75,2.498,5.21,0,7.995,2.626-1.962,5.371-1.971,7.991,0,8.771-5.895,13.35,2.954,7.991,7.995,1.646-3.274,14.046-3.131,15.981,0l1.998,1.062c.589,7.258-.211,9.56-7.991,9.108,1.823,7.737-5.613,10.597-9.988,5.82-.016-2.653.011-5.342,0-7.995h-7.991v-7.995h-7.991c-.014-2.653.02-5.342,0-7.995-5.316-.011-10.666.008-15.981,0v-7.995h-8.99v-7.995h-7.991v-7.995h-7.991v-7.995h-7.991v-7.995h-7.991v-7.995h-7.991v-7.995h-7.991v-7.995h-7.991v-7.995h-7.991v-7.995h-7.991c-.025-2.654.035-5.342,0-7.995-1.462-1.692-2.294-3.637-1.976-5.857-3.218.446-5.223-.267-6.015-2.138-.035-2.653.025-5.342,0-7.995h-7.991v-7.995h-7.991v-15.99h-8.99c-.023-5.317.032-10.674,0-15.99-.548-4.991-2.774-6.99-6.677-5.996l-1.313-1.999c-.079-13.304-.079-26.671,0-39.975.622-1.991,2.662-2.657,6.119-1.999-.258-2.184.811-4.165,1.872-5.996.018-2.654-.018-5.341,0-7.995.85-2.053,3.21-2.72,7.078-1.999-.169-2.181.829-4.164,1.911-5.996.048-7.981-.048-16.005,0-23.985.622-1.991,2.662-2.657,6.119-1.999-.258-2.184.812-4.165,1.872-5.996.034-5.65-.024-11.34,0-16.99h7.991v-15.99h7.991v-7.995h7.991v-15.99h7.991v-7.995c2.652-.025,5.339.035,7.991,0,1.691-1.463,3.635-2.296,5.854-1.977-.446-3.22.267-5.226,2.137-6.018,2.652-.035,5.339.025,7.991,0v-7.995h7.991v-7.995h15.981v-7.995c5.647-.025,11.334.034,16.98,0,4.989-.548,6.986-2.775,5.993-6.681l1.998-1.314c7.975-.048,15.997.035,23.972,0V.071c37.604.168,75.265-.225,112.869,0Z"/>
      <path class="g" d="M459.467,144.983h7.991v79.951h7.991v15.99h7.991v15.99h7.991v79.951h-7.991v39.975h-7.991v23.985h-7.991v7.995h-7.991v16.99c-2.652.025-5.34-.035-7.991,0-1.691,1.463-3.635,2.296-5.854,1.977.446,3.22-.266,5.226-2.137,6.018-2.654-.006-5.336.004-7.991,0-.084.79-.374,1.983-.928,1.999-8.095.237-62.613,1.422-65.024-.773-1.364-1.242-1.99-9.061,1.027-9.221-.214.779-.539,1.921-1.165,1.999-2.545.316-19.501.47-21.351,0l-1.456-1.999c-3.059-.403-2.922-7.333,0-7.995-1.646,3.274-14.046,3.131-15.981,0-1.942-.808-2.667-3.14-2.174-6.996-7.729,1.824-10.593-5.611-5.817-9.994-.507,2.881-13.287,2.631-15.581,1.999l-1.4-1.999c-1.871-.571-2.595-2.57-2.174-5.996-7.124.764-8.225-1.233-7.991-7.995-7.124.764-8.225-1.233-7.991-7.995-3.116.612-5.055-.054-5.817-1.999-3.272-1.647-3.13-14.054,0-15.99-.402,3.061-7.329,2.924-7.991,0-3.259-1.622-3.144-14.004,0-15.99-.402,3.061-7.329,2.924-7.991,0-.779-.214-1.914-.535-1.998-1.166-.363-2.719-.494-19.131,0-21.363l1.998-1.457c-.402,3.061-7.329,2.924-7.991,0-.781-.088-1.961-.348-1.998-.895-.246-3.672-.382-29.308.666-30.42.319-.339.802-.524,1.332-.665-.402,3.061-7.329,2.924-7.991,0-3.272-1.647-3.13-14.054,0-15.99.373-3.038,7.298-2.946,7.991,0-3.259-1.622-3.144-14.004,0-15.99.402-3.061,7.329-2.924,7.991,0-3.272-1.647-3.13-14.054,0-15.99-.402,3.061-7.329,2.924-7.991,0-3.259-1.622-3.144-14.004,0-15.99,1.646-3.274,14.046-3.131,15.981,0-3.059-.403-2.922-7.333,0-7.995-.001-.775.19-1.973.673-1.999,4.771-.254,37.419-.99,39.105,0l1.175,1.999c-3.037-.374-2.945-7.302,0-7.995.088-.782.347-1.962.895-1.999,3.67-.246,29.292-.382,30.404.666.339.319.524.803.664,1.333-3.059-.403-2.922-7.333,0-7.995,1.646-3.274,14.046-3.131,15.981,0-3.059-.403-2.922-7.333,0-7.995.214-.78.54-1.924,1.165-1.999,2.436-.292,19.72-.446,21.351,0l1.456,1.999c-3.037-.374-2.945-7.302,0-7.995,1.646-3.274,14.046-3.131,15.981,0-3.059-.403-2.922-7.333,0-7.995-.283-2.972,14.851-2.41,15.581-1.999.753.425,1.146,1.204,1.4,1.999l-1.998-1.062c-.589-7.259.211-9.56,7.991-9.108-.611-3.118.054-5.058,1.998-5.82,1.646-3.274,14.046-3.131,15.981,0l-1.998-1.062c-.59-7.258.211-9.56,7.991-9.108-1.847-7.834,5.66-10.814,9.988-5.82Z"/>
      <path class="g" d="M459.467,128.992v15.99c-1.302,0-7.708-.283-7.991,0v7.995h-7.991v7.995h-15.981v7.995h-7.991v7.995h-16.98v7.995h-15.981v7.995h-23.972v7.995h-15.981v7.995h-31.963v7.995h-40.952v7.995h-15.981v15.99h7.991v15.99h-7.991v15.99h-7.991v15.99h7.991v31.98h7.991v23.985h7.991v15.99h7.991v15.99h7.991v7.995h7.991v7.995h7.991v7.995h16.98v7.995h7.991v8.994h15.981v7.995h23.972v7.995h64.925v7.995h-15.981v15.99h7.991v23.985h7.991v23.985h-7.991v15.99h-7.991v7.995h-8.99v7.995h-15.981v7.995h-71.917v-7.995h-24.971v-7.995h-15.981v-7.995h-15.981v-7.995h-7.991v-7.995h-15.981v-7.995h-7.991v-7.995h-7.991v-15.99h-7.991v-15.99h-7.991v-23.985h7.991c.025-2.653-.035-5.342,0-7.995,5.313-.02,10.668.015,15.981,0,.011-2.653-.016-5.342,0-7.995.065-10.973.065-22.006,0-32.98h7.991v-7.995h7.991v-7.995h-15.981v-7.995c-2.653-.012-5.338.018-7.991,0-1.99-.622-2.656-2.663-1.998-6.122-2.22.531-4.29-.399-5.993-1.873-2.651-.035-5.339.025-7.991,0v-7.995h-7.991v-7.995h-8.99v-15.99h-7.991v-15.99h7.991v-7.995h24.971v7.995h7.991v15.99h23.972v-15.99h-7.991v-39.975h7.991c-.047-10.645.063-21.336,0-31.98-.548-4.991-2.774-6.99-6.677-5.996l-1.313-1.999c0-1.303-.283-7.712,0-7.995,2.652-.025,5.339.035,7.991,0,1.691-1.462,3.635-2.296,5.854-1.977-.446-3.22.267-5.226,2.137-6.018,7.976-.048,15.996.048,23.972,0,4.989-.548,6.986-2.775,5.993-6.681l1.998-1.314c8.309-.05,16.662.036,24.971,0v-7.995c7.976-.035,15.996.048,23.972,0,4.989-.548,6.986-2.775,5.993-6.681l1.998-1.314c5.314-.032,10.668.023,15.981,0v-7.995c5.314-.023,10.668.032,15.981,0,4.989-.548,6.986-2.775,5.993-6.681l1.998-1.314c5.314-.032,10.667.023,15.981,0v-7.995c2.653-.012,5.338.017,7.991,0,2.044-1.681,4.438-2.096,6.992-2.175-.612-3.115.054-5.055,1.998-5.82,2.653-.017,5.338.012,7.991,0v-7.995c2.652-.025,5.339.035,7.991,0,1.691-1.462,3.635-2.296,5.854-1.977-.446-3.22.267-5.226,2.137-6.018,2.652-.035,5.338.025,7.991,0,.025-2.654-.035-5.342,0-7.995.402-3.061,7.329-2.924,7.991,0Z"/>
      <path class="g" d="M160.813,1323.26c.009,5.651-.007,11.339,0,16.99h7.991v15.99h15.981v7.995h7.991v7.995h8.99v7.995h7.991v7.995h7.991v7.995h7.991v7.995h7.991v31.98h-7.991v23.985h-7.991v15.99h-15.981v7.995h-16.98v7.995h-23.972v7.995h-39.954v-15.99h-7.991v-15.99h-7.991v-15.99h-7.991v-23.985h-8.99v-31.98h-7.991c.071-15.974-.095-31.997,0-47.971.016-2.653-.011-5.342,0-7.995h40.952v-8.994h23.972v-7.995h15.981Z"/>
      <path class="g" d="M548.364,1267.294h31.963v7.995h47.944c.011,2.653-.016,5.342,0,7.995.063,10.644-.016,21.336,0,31.98,1.971,5.304,1.969,10.686,0,15.99-.015,13.642.081,27.334,0,40.975-.622,1.991-2.662,2.657-6.119,1.999.258,2.184-.812,4.165-1.872,5.996-.048,7.98.035,16.005,0,23.985h-7.991v23.985h-7.991v7.995c-5.315.007-10.667-.01-15.981,0-2.622,1.963-5.367,1.96-7.991,0-13.303.011-26.651-.008-39.954,0v-7.995h-24.971v-7.995h-7.991v-7.995h-7.991v-23.985h-7.991v-7.995h-7.991v-23.985h7.991v-15.99h7.991v-8.994h7.991v-7.995h7.991v-7.995h7.991v-7.995h8.99v-7.995h7.991v-7.995h7.991c.005-7.982-.007-16.004,0-23.985Z"/>
      <path class="e" d="M628.271,1315.265h8.99v15.99h-8.99c.006-5.316.008-10.674,0-15.99Z"/>
      <path class="d" d="M96.888,144.983c-.016,2.654.011,5.341,0,7.995h-8.99c.018-2.654-.012-5.341,0-7.995h8.99Z"/>
      <path class="d" d="M87.898,160.973c-.018,2.654.012,5.341,0,7.995h-7.991c.016-2.654-.011-5.341,0-7.995h7.991Z"/>
      <path class="d" d="M79.907,208.943h7.991c.011,2.654-.016,5.341,0,7.995h-7.991c-.011-2.654.016-5.341,0-7.995Z"/>
      <path class="d" d="M112.869,264.909h7.991c.025,2.654-.035,5.342,0,7.995h-7.991c-.025-2.654.035-5.342,0-7.995Z"/>
      <path class="d" d="M459.467,120.997c-.018,2.653,0,5.342,0,7.995h-7.991c.035-2.654-.025-5.341,0-7.995h7.991Z"/>
      <path class="h" d="M451.476,425.81v7.995c-2.654-.002-5.337.006-7.991,0v-7.995c2.652-.025,5.34.035,7.991,0Z"/>
      <path class="d" d="M104.878,113.002c-.016,2.654.011,5.341,0,7.995h-7.991c.016-2.654-.011-5.341,0-7.995h7.991Z"/>
      <path class="d" d="M459.467,64.032h7.991c.011,2.654-.016,5.341,0,7.995h-7.991c-.025-2.653.035-5.342,0-7.995Z"/>
      <path class="d" d="M152.823,40.047v7.995c-2.652.025-5.339-.035-7.991,0v-7.995c2.652-.025,5.339.035,7.991,0Z"/>
      <path class="d" d="M209.757,8.067v7.995c-2.653.011-5.338-.016-7.991,0v-7.995c2.652-.011,5.339.016,7.991,0Z"/>
      <path class="d" d="M346.598.071c2.652.016,5.339-.011,7.991,0v7.995c-2.652-.016-5.338.011-7.991,0V.071Z"/>
      <path class="e" d="M628.271,1372.23c-.016,2.653.011,5.342,0,7.995h-7.991c.016-2.653-.011-5.342,0-7.995h7.991Z"/>
      <path class="e" d="M588.317,1436.19v7.995h-7.991v-7.995c2.654-.002,5.336.005,7.991,0Z"/>
      <polygon class="f" points="532.382 882.53 532.382 898.52 540.373 898.52 540.373 930.501 532.382 930.501 532.382 978.471 523.393 978.471 523.393 914.51 515.402 914.51 515.402 898.52 523.393 898.52 523.393 882.53 532.382 882.53"/>
      <path class="d" d="M419.513,152.978v7.995c-2.985.014-6.005-.019-8.99,0v-7.995c2.985-.014,6.004.019,8.99,0Z"/>
      <path class="d" d="M386.552,168.968v7.995c-2.653.011-5.338-.016-7.991,0v-7.995c2.653-.011,5.338.016,7.991,0Z"/>
      <path class="e" d="M346.598,184.958v7.995c-2.652.011-5.338-.016-7.991,0v-7.995c2.653-.011,5.338.016,7.991,0Z"/>
      <path class="d" d="M289.664,200.948v7.995c-2.652.011-5.338-.016-7.991,0v-7.995c2.652-.011,5.338.016,7.991,0Z"/>
      <path class="e" d="M257.701,208.943v7.995c-2.652.025-5.339-.035-7.991,0v-7.995c2.652-.011,5.338.016,7.991,0Z"/>
      <path class="d" d="M241.72,224.933h7.991c.011,2.654-.016,5.342,0,7.995h-7.991v-7.995Z"/>
      <path class="e" d="M217.747,352.855c2.651.035,5.339-.025,7.991,0v7.995c-2.652-.018-5.338.005-7.991,0-.02-2.653.014-5.342,0-7.995Z"/>
      <path class="d" d="M443.486,136.987v7.995c-2.652.025-5.339-.035-7.991,0v-7.995c2.652-.025,5.339.035,7.991,0Z"/>
    </g>
  </g>
</svg>