<?xml version="1.0" encoding="UTF-8"?>
<svg id="b" data-name="Layer 2" xmlns="http://www.w3.org/2000/svg" width="1049.627" height="1541.825" viewBox="0 0 1049.627 1541.825">
  <defs>
    <style>
      .d {
        fill: #477ae0;
      }

      .e {
        fill: #2c1155;
      }

      .f {
        fill: #49e7eb;
      }

      .g {
        fill: #fd4f69;
      }

      .h {
        fill: #346adb;
      }

      .i {
        fill: #7ff0ec;
      }

      .j {
        fill: #fdf6f7;
      }

      .k {
        fill: #ab1f65;
      }
    </style>
  </defs>
  <g id="c" data-name="Layer 1">
    <g>
      <path class="e" d="M72.008,556.175c2.521-3.894,5.473-3.891,7.997,0,5.949,3.666,13.593,4.602,22.929,2.807,3.088,4.005,6.55,7.291,10.386,9.86l-1.328,4.327c1.543.017,3.868.333,3.998,1.361,2.522,19.898,1.502,62.403,0,83.227l-3.998,2.377c-1.947-6.322,10.377-3.852,10.658-1.444,2.257,19.36,2.018,38.438-2.661,57.421,3.931,5.247,3.919,10.74,0,15.994,3.895,2.521,3.893,5.474,0,7.997.017,10.638-.009,21.349,0,31.987,3.933,10.61,3.923,21.375,0,31.987,3.924,5.249,3.918,10.742,0,15.994,2.064,2.668,3.398,5.649,3.957,8.961l-.183,63.44,4.223,7.567c.024,7.975-.017,16.015,0,23.99h7.997v7.997c2.648.03,5.349-.046,7.997,0,4.651,3.188,8.639,5.569,15.994,7.997,2.525-3.887,5.478-3.893,7.997,0,24.006-4.907,47.971-4.966,71.971,0,29.285-3.91,58.681-3.932,87.965,0,3.435-.441,4.963,1.447,4.585,5.664,53.47.401,107.015.512,160.635.334.154-3.493.596-5.476,4.712-5.998,12.323-5.976,27.701-6.116,39.984,0,3.454-.464,4.888,1.433,4.301,5.692,3.677.5,7.61,4.313,8.046,8.302,7.706-.679,14.4-.197,15.881,7.997,5.307-.533,7.786,2.856,7.997,7.997l2.95.047c3.498,3.749,6.434,7.732,8.806,11.948,12.066,5.754,14.732,10.419,7.997,13.994l2.589.964c.37,3.401,2.173,6.412,5.407,9.032,3.901,4.579,3.916,9.425,0,13.994,1.783.37,1.711,1.048,0,1.999,3.908,9.941,3.896,20.044,0,29.988,2.008,2.036,3.349,4.424,3.966,7.196l-.141,36.103,4.171,6.681c4.986,23.333,4.936,46.633,0,69.972,3.931,8.598,3.912,17.386,0,25.99,3.931,5.248,3.922,10.741,0,15.994l2.67,13.323c-.507,33.958,1.269,29.517,5.326-13.323-3.922-5.253-3.932-10.746,0-15.994-3.911-5.253-3.92-10.745,0-15.994,3.314-4.056,5.088-9.388,5.324-15.998l2.673-7.993c-3.91-7.932-3.926-16.064,0-23.99-3.925-10.613-3.937-21.378,0-31.987,2.708-7.414,20.568-5.569,20.556,3.998,10.168-1.064,32.949-.493,19.428,11.995l2.292-3.998h34.831l2.862,3.998c3.619,3.352,8.074,4.684,13.365,3.998l2.629,3.998c-1.557-.428-3.795-1.051-3.998-2.332-.896-5.644-.949-37.326,0-42.734l3.998-2.915c-.004,5.852-6.68,5.603-7.997,0l-3.998-1.845v-91.726l3.998-2.39c-.257-3.237,1.044-4.255,3.998-4.238-.405-11.11,24.27-11.162,24.343.24,9.747-1.656,15.078,1.01,15.994,7.997,9.872-1.64,15.166,1.026,15.881,7.997,5.735-.618,7.038,3.096,8.574,7.997h24.331l2.841,3.998c3.069,19.858,4.385,39.895,4.238,59.976,5.315-.533,7.787,2.866,7.997,7.997,7.45,1.963,10.036,9.542,7.757,22.736,1.572,1.189,2.905,2.94,3.998,5.252l3.998,2.332v42.734l-3.998,2.915c-.004,5.852-6.68,5.603-7.997,0,1.567.421,3.875,1.096,3.998,2.342,1.501,15.146,1.862,51.968,0,66.695l-3.998,2.935c-.004,5.852-6.68,5.603-7.997,0l3.998,2.279c1.141,6.593,1.803,26.867-3.998,29.708.216,3.381-1.154,4.505-4.238,3.998.954,9.587.137,19.047-3.759,27.989-3.187,4.651-5.57,8.639-7.997,15.994,3.877,2.523,3.877,5.474,0,7.997,1.927,6.202,4.593,11.534,7.997,15.994,4.045,8.892,4.241,18.43,4.238,27.989,5.308-.534,7.786,2.859,7.997,7.997,4.075-.609,1.083,3.218-.24,2.239-3.319-2.458,9.111-17.486,11.995-6.238,6.363,1.618,6.088,21.819,0,23.99,1.566.181,3.919.701,3.998,1.808.439,6.08,1.244,50.806-.036,53.134-2.067,3.762-3.635,5.521-8.201,5.034,1.571,7.782.318,14.446-3.759,19.992-.83,3.18-3.496,5.846-7.997,7.997,7.601,3.475,3.813,12.192-3.998,12.235.616,8.006-9.672,11.58-11.995,3.759-3.18-.83-5.846-3.495-7.997-7.997-3.529-2.028-6.195-4.693-7.997-7.997-3.953-5.466-5.276-12.095-3.969-19.89-12.638-2.068-9.391-25.716-4.028-36.088,5.268-2.365,5.516-33.268,3.759-35.986-6.604-.493-9.269-5.825-7.997-15.994-9.942-3.191-11.195-15.186-3.759-35.986-3.892-2.519-3.887-5.472,0-7.997-1.926-6.203-4.592-11.534-7.997-15.994-5.542-13.178-5.439-26.778,0-39.984-1.927-6.203-4.593-11.534-7.997-15.994-5.716-7.196-5.652-16.656,0-23.99-3.56-2.09-6.225-4.756-7.997-7.997-5.587-1.695-5.784-14.436,0-15.994-1.775-.371-1.703-1.049,0-1.999-3.861-1.823-3.852-4.165,0-5.998-2.584-2.924-5.413-2.924-7.997,0,3.851,1.832,3.861,4.175,0,5.998,1.782.37,1.71,1.049,0,1.999,5.487,7.185,5.514,14.912,0,21.991-1.496,3.462-4.162,6.794-7.997,9.996,5.857,9.581,6.04,22.577,0,31.987-.613,3.185-3.279,5.851-7.997,7.997,5.397,7.87,5.46,16.231,0,23.99-.614,3.186-3.279,5.851-7.997,7.997,5.041,2.943,5.048,5.054,0,7.997,4.143,12.523,9.537,33.709-3.998,36.338,1.228,6.221-.105,10.102-3.998,11.643-8.725,5.523-20.157,5.254-29.723,2.286,2.859,9.623,3.519,21.118-2.265,29.701-.613,3.185-3.279,5.851-7.997,7.997,5.78,8.709,7.739,26.844-3.998,28.341,1.692,9.561-2.306,16.107-11.995,19.639-1.227,3.481-3.892,6.147-7.997,7.997-2.925,5.102-5.07,5.095-7.997,0-3.607-2.566-6.272-2.566-7.997,0,5.78,12.372,6.066,27.694,0,39.984,37.231,1.197,74.755,1.53,112.572,1,2.533.831,6.175,4.121,7.38,6.997,3.568,2.087,6.234,4.753,7.997,7.997,3.893,2.521,3.89,5.473,0,7.997,2.929-5.086,5.07-5.095,7.997,0,3.185.613,5.851,3.279,7.997,7.997,10.183-1.798,20.453-3.476,30.818-3.533,62.018-.343,124.246-.343,186.264,0,10.365.057,20.635,1.736,30.818,3.533,2.087-3.568,4.753-6.234,7.997-7.997,7.174-5.796,16.662-5.703,23.99,0-.032,5.309.022,10.685,0,15.994h-7.997v7.997h-287.885c-.02-7.975.028-16.015,0-23.99-42.616-.23-85.332.171-127.949,0,.3,2.204-.474,5.06,0,6.997.334,1.364,1.952.898,1.999,1,6.166.464,2.559,14.25-1.999,15.994-7.968.138-16.02-.099-23.99,0v-31.987h-23.99c-.025-7.307.035-14.684,0-21.991,6.084-3.06,13.131-.467,15.994,5.998.298-3.23,1.559-4.495,4.422-3.897-1.186-20.111-.673-40.286,3.575-60.077-2.043-2.519-3.369-5.357-3.931-8.535l.146-56.088-4.211-7.349c.082-29.289.064-58.676,0-87.965-4.976-8.798-4.938-17.179,0-25.99l-3.971-6.357c2.01-12.276.669-22.819-4.026-31.627-.078-34.62.183-69.34,0-103.958l-3.973-6.153c2.074-13.047.732-24.324-4.024-33.831-.085-15.965.062-32.015,0-47.981h-7.997v-15.994h-7.997v-7.997h-7.997v-7.997h-15.994v-7.997h-23.99v5.998h4.998l2.999,2.999v12.995c10.66-1.325,7.814,7.905,7.997,15.994,5.067,3.568,5.045,6.417,0,9.996l3.978,5.413c-1.749,9.772-.409,17.964,4.019,24.575.033,29.292-.025,58.673,0,87.965,3.932,11.279,3.917,22.704,0,33.986,3.924,5.247,3.913,10.74,0,15.994,2.02,2.153,3.36,4.652,3.964,7.522l-.148,41.608,4.182,6.847c.025,29.292-.026,58.673,0,87.965,3.932,10.609,3.917,21.374,0,31.987,3.924,5.247,3.913,10.74,0,15.994,2.02,2.153,3.36,4.652,3.964,7.522l-.148,41.608,4.182,6.847c-.014,15.967.01,32.014,0,47.981h-23.99c-.01-15.967.014-32.014,0-47.981-4.234-7.545-4.206-16.434,0-23.99l-3.974-6.153c2.074-13.047.733-24.324-4.023-33.831,0-39.952.033-80,0-119.952-6.531-12.688-4.513-28.97,0-41.983-3.81-1.516-6.476-3.515-7.997-5.998,0-47.948.055-95.994,0-143.942-5.738-10.01-5.613-21.929,0-31.987-3.568-2.087-6.234-4.753-7.997-7.997-.035-5.308.025-10.686,0-15.994h-7.997v-7.997h-7.997v-7.997c-4.286.15-7.461.816-9.996-2.999v-4.998h-13.994v-7.997H163.971c-7.257-5.271-24.006-7.482-29.818-2.181-1.189,1.084-2.61,1.762-4.169,2.181-.048.101-1.666-.364-1.999,1-1.193,4.88.097,16.856,0,22.991-3.318,4.057-5.092,9.389-5.324,15.998l-2.673,7.993c3.91,7.932,3.926,16.064,0,23.99-.011,12.634.046,25.351,0,37.985-4.597,6.951-5.936,16.4-4.018,28.349l-3.979,5.637c3.9,5.257,3.924,10.75,0,15.994-.056,15.965.018,32.016,0,47.981-4.437,5.92-5.784,14.111-4.04,24.575l-3.957,5.413c3.908,3.213,3.915,6.789,0,9.996-.094,18.629.015,37.348,0,55.978-4.507,6.347-5.848,15.072-4.02,26.178l-3.977,5.81c4.993,5.572,4.979,10.491,0,15.994-.051,13.3.041,26.684,0,39.984-4.507,6.347-5.848,15.072-4.02,26.178l-3.977,5.81c4.932,8.156,4.978,15.851,0,23.99-.038,13.299.105,26.686,0,39.984-.383,2.53-1.351,4.566-3.679,3.893,1.06,11.098-.379,20.463-4.318,28.094-.105,13.3.076,26.684,0,39.984-2.654-.004-5.343.006-7.997,0-2.02-1.275-4.02-1.275-5.998,0l-1.999-1v-6.997h-7.997c.143-17.962-.194-36.017,0-53.978,6.173-3.257,5.607,4.467,5.498,4.023-.691-2.794-.886-4.874,2.499-6.022-5.041-2.943-5.049-5.054,0-7.997.115-21.294-.024-42.679,0-63.974,3.314-4.056,5.088-9.388,5.324-15.998l2.673-7.993c-3.912-5.253-3.921-10.746,0-15.994.021-18.632-.021-37.345,0-55.978,3.187-4.651,5.571-8.638,7.997-15.994-4.943-8.153-4.972-15.848,0-23.99.021-18.632-.032-37.345,0-55.978,3.172-4.653,5.596-8.626,7.997-15.994-5.901-.457-4.588-11.838-1.999-15.994,3.647-19.985,1.952-42.883,1.999-63.974,1.495-3.463,4.161-6.795,7.997-9.996-3.877-2.528-3.889-5.48,0-7.997-3.904-4.578-3.917-9.425,0-13.994-.936-.508-.862-1.187,0-1.999.032-23.294-.139-46.679,0-69.972,3.266-4.545,5.932-10.543,7.997-17.993.037-7.308-.026-14.683,0-21.991-2.639-.113-5.367.175-7.997,0-2.423-1.232-5.089-1.898-7.997-1.999v-5.998h-7.997c-.099,7.971.138,16.021,0,23.99-.613,3.185-3.279,5.851-7.997,7.997-.265,15.283.016,30.693,0,45.982-3.266,4.545-5.932,10.543-7.997,17.993,3.9,7.934,3.924,16.065,0,23.99-.011,9.973.011,20.015,0,29.988-3.273,4.892-5.575,8.981-5.324,17.331l-2.672,8.659c3.913,5.253,3.922,10.745,0,15.994-.011,9.973.016,20.015,0,29.988-3.273,4.892-5.575,8.981-5.324,17.331l-2.672,8.659c3.891,2.523,3.893,5.476,0,7.997-.021,13.303.016,26.681,0,39.984-4.507,6.347-5.847,15.072-4.02,26.177l-3.977,5.81c3.886,2.526,3.894,5.479,0,7.997-.056,10.635.009,21.351,0,31.987-3.314,4.056-5.088,9.388-5.324,15.998l-2.673,7.993c3.91,7.932,3.925,16.064,0,23.99-.007,7.976.01,16.015,0,23.99-4.507,6.347-5.848,15.072-4.02,26.178l-3.977,5.81c3.883,2.525,3.889,5.477,0,7.997-.018,13.303.013,26.681,0,39.984H.037c.085-21.295-.115-42.68,0-63.974.614-3.186,3.279-5.851,7.997-7.997-5.041-2.943-5.049-5.054,0-7.997.086-15.965-.027-32.015,0-47.981,3.188-4.651,5.569-8.639,7.997-15.994-3.9-5.256-3.919-10.748,0-15.994.023-13.304-.023-26.68,0-39.984,3.188-4.651,5.569-8.639,7.997-15.994-3.9-5.256-3.919-10.748,0-15.994.027-15.965-.095-32.016,0-47.981,2.642-4.711,4.641-10.043,5.998-15.994,3.636-17.125,1.944-37.615,1.999-55.978-.229-3.151.951-4.315,3.871-4.161-.263-8.094.446-14.703,2.127-19.829,3.558-11.781,1.977-26.922,1.999-39.984,4.038-5.846,4.782-10.496,4.106-18.656l3.891-5.334c-5.052-1.867-4.324-4.252-1.999-7.997,3.632-14.455,1.922-32.264,1.999-47.981,3.266-4.545,5.932-10.543,7.997-17.993.157-31.95.089-64.011,0-95.962-4.977-8.139-4.932-15.835,0-23.99l-3.977-5.81c1.817-10.349.477-19.075-4.02-26.178-.084-29.291.05-58.674,0-87.965-3.893-2.521-3.89-5.473,0-7.997-1.423-9.773-4.088-17.77-7.997-23.99-.063-37.288.047-74.668,0-111.955h-7.997v-17.993c2.244.439,6.55-.68,7.997,0,2.352-.948,5.017-2.947,7.997-5.998,7.786-5.563,16.173-5.491,23.99,0ZM64.011,586.163c-.518,29.911-.09,60.043,0,89.964.024,7.974-.017,16.016,0,23.99h7.997c.032,10.638-.032,21.349,0,31.987.047,15.965-.024,32.016,0,47.981.012,7.975-.023,16.015,0,23.99.015,5.309-.031,10.685,0,15.994.07,12.112-.684,24.998,0,36.985.329,5.766,4.134,2.227,7.997,2.999.059,18.63-.043,37.347,0,55.978h7.997v15.994c.283.283,6.107,0,7.997,0v7.997h7.997c.03-2.648-.046-5.349,0-7.997.184-10.625-.013-21.358,0-31.987.01-7.972.019-16.019,0-23.99-.048-19.884,1.122-41.314,0-60.976-.329-5.766-4.135-2.227-7.997-2.999-.034-26.625.013-53.343,0-79.968-.009-18.631.023-37.347,0-55.978-.038-29.958.028-60.006,0-89.964h-7.997v-7.997h-23.99c-.03,2.647.046,5.35,0,7.997ZM625.786,1349.858h-7.997v79.968h7.997v-79.968ZM817.71,1397.838h-15.994v15.994h15.994v-15.994Z"/>
      <path class="k" d="M159.973,724.108c10.96-4.132,22.955-5.545,35.986-4.238-.412-2.209,1.729-3.005,3.998-3.759.422-1.564,1.074-3.838,2.342-3.998,14.741-1.864,51.565-1.499,66.695,0l2.935,3.998c5.852.004,5.603,6.68,0,7.997l2.292-3.998h34.831l2.862,3.998c5.065,2.204,10.396,4.87,15.994,7.997,3.186.614,5.851,3.279,7.997,7.997,2.528-3.855,5.477-3.863,7.997,0,4.31,3.646,10.977,5.409,20.002,5.29l3.988,2.707c4.844-7.16,10.176-4.494,15.994,7.997,5.577-4.957,10.493-4.96,15.994,0,7.932-3.912,16.064-3.93,23.99,0,3.186.614,5.851,3.279,7.997,7.997,3.6-5.006,6.403-5.023,9.996,0,5.255-3.906,10.747-3.921,15.994,0,10.613-3.921,21.378-3.939,31.987,0,3.186.614,5.851,3.279,7.997,7.997,2.943-5.042,5.054-5.049,7.997,0,5.255-3.903,10.748-3.92,15.994,0,10.613-3.92,21.378-3.938,31.987,0,3.185.613,5.851,3.279,7.997,7.997,5.577-4.957,10.493-4.96,15.994,0,2.524-3.891,5.476-3.893,7.997,0,10.614-3.923,21.379-3.947,31.987,0,4.651,3.187,8.639,5.57,15.994,7.997,2.525-3.887,5.478-3.892,7.997,0,13.428-4.941,26.566-4.984,39.984,0,3.186.614,5.851,3.279,7.997,7.997,2.943-5.042,5.054-5.049,7.997,0,2.525-3.887,5.477-3.893,7.997,0,10.614-3.913,21.379-3.936,31.987,0,3.186.614,5.851,3.279,7.997,7.997,2.943-5.042,5.054-5.049,7.997,0,5.255-3.903,10.748-3.92,15.994,0,8.152-4.977,15.849-5.006,23.99,0,3.186.614,5.851,3.279,7.997,7.997,2.941-5.052,5.057-5.061,7.997,0,2.934-5.073,5.065-5.084,7.997,0,3.186.614,5.851,3.279,7.997,7.997,2.937-5.061,5.061-5.074,7.997,0,3.18.83,5.846,3.496,7.997,7.997,3.529,2.028,6.195,4.693,7.997,7.997,5.554,2.841,9.552,6.214,11.995,10.122-1.611,7.245.61,11.395,6.661,12.451,2.538,24.524,1.855,49.144-2.663,73.389-2.335,5.658-5.001,11.656-7.997,17.993-.465,2.519-3.131,4.518-7.997,5.998,5.725,15.109,6.185,35.018,0,49.98-.004,5.852-6.68,5.603-7.997,0l3.975,5.81c-1.817,10.348-.476,19.074,4.022,26.177,6.325,25.537,6.376,54.461,0,79.968,11.547,10.871-7.628,18.244-11.89,4.602l-.105-24.572c-2.569-.181-4.6-1.699-6.203-3.6-2.181-10.669-3.527-86.498-.564-89.919,3.292-3.801,9.938-4.127,10.765,1.533-3.17-16.069-8.664-51.129-2.665-64.59.112-.252,2.669,2.718-1.334,3.614.36,7.386-4.971,10.502-15.994,9.349,1.632,10.259-1.114,15.473-8.237,15.641.859,12.13-.863,24.173-3.759,35.986h-31.987v-7.997h-7.997v-7.997h-15.994v-7.997h-15.994v-7.997h-15.994v7.997h-7.997v95.962h7.997v47.981h-15.994v-7.997h-39.984v-7.997h-23.99v-7.997h-15.994c-5.784-10.031-5.91-22.006,0-31.987.614-3.185,3.279-5.851,7.997-7.997-2.26-4.105-5.487-6.564-9.682-7.378-1.127-4.842-4.051-7.736-8.773-8.682-.673-5.22-1.998-6.609-5.536-9.93-5.388-1.87-5.373-4.149,0-5.998,3.676-5.298,7.594-9.963,11.755-13.994-4.736-.988-8.654-4.986-11.755-11.995-6.053-.693-5.776-12.792,0-13.994-5.095-2.927-5.102-5.072,0-7.997.83-3.18,3.495-5.846,7.997-7.997-7.67-3.635-3.725-11.913,3.998-12.447v-9.717c-7.054.876-13.77-.212-19.992-3.825-13.485,3.594-18.283,1.511-25.99-7.997-7.16,6.498-18.014,5.857-17.993-4.238-4.351.498-8.326-1.629-11.995-3.759-1.686-.258-3.469-.826-4.058-2.29-1.194-2.968-53.427-2.817-62.327-1.22-.707,2.076-2.569,3.246-5.587,3.51-27.283,3.899-54.684,3.903-81.967,0-48.522,4.404-97.227,4.944-145.874,3.209-.621,3.377-2.74,4.175-6.066,4.787-23.96-.026-48.012.067-71.971,0-3.185-.613-5.851-3.279-7.997-7.997,0-1.891.283-7.714,0-7.997h-7.997c-.073-2.647.113-5.354,0-7.997-3.53-2.026-6.195-4.692-7.997-7.997-.056-2.649.056-5.347,0-7.997-3.568-2.087-6.234-4.753-7.997-7.997-.092-5.304-.018-10.688,0-15.994,1.368-8.222,4.034-16.219,7.997-23.99.11-23.948-.415-48.031,0-71.971.613-3.185,3.279-5.851,7.997-7.997.23-13.293-.23-26.691,0-39.984.613-3.185,3.279-5.851,7.997-7.997Z"/>
      <path class="k" d="M687.643,945.962c3.938,2.521,3.942,5.48,0,7.997-2.518,3.948-5.479,3.948-7.997,0-11.177-3.522,2.477-19.855,7.997-7.997Z"/>
      <path class="h" d="M553.815,306.275h7.997c.035,2.65-.055,5.347,0,7.997-.004,5.852-6.68,5.603-7.997,0-5.093-2.928-5.084-5.067,0-7.997Z"/>
      <path class="h" d="M287.921,332.265c6.708-11.745,13.956,1.499,12.323,11.667,7.212.39,9.515,6.306,6.669,12.323.413-1.559,1.083-3.903,2.276-3.998,12.968-1.034,34.885-1.023,47.854,0l2.848,3.998c-5.852-.004-5.603-6.68,0-7.997l2.292-3.998h34.831l2.862,3.998c-11.468-6.664,1.36-14.176,11.995-12.235-.428-4.189,1.464-6.963,5.701-7.757l19.96-.328c2.087-7.11,9.773-9.705,23.059-7.784,1.748-5.453,4.228-8.746,7.44-9.881,9.236,1.456,16.506.123,21.808-3.998.428-1.56,1.081-3.849,2.332-3.998,4.876-.584,39.469-.893,42.734,0l2.915,3.998c4.652,3.179,8.632,5.584,15.994,7.997,5.13,3.071,7.129,6.403,5.998,9.996-.404,7.33-6.24,6.218-4.468,4.001,1.808-2.263,11.477,3.219,10.705,7.994,6.597,1.845,9.262,7.176,7.997,15.994,6.598.475,9.263,5.806,7.997,15.994,6.598.475,9.263,5.806,7.997,15.994,10.662.378,10.657,13.606-.24,14.234.533,5.307-2.855,7.785-7.997,7.997-.475,6.598-5.806,9.263-15.994,7.997-.468,6.595-5.799,9.261-15.994,7.997.531,5.312-2.856,7.784-7.997,7.997-.475,6.598-5.806,9.263-15.994,7.997.531,5.312-2.856,7.784-7.997,7.997-.475,6.598-5.806,9.263-15.994,7.997.457,11.053-23.952,11.09-24.319.089l-5.581-1.793c-1.103-4.663-4.079-7.782-8.93-9.356-.301-6.996-2.018-12.719-5.153-17.168,1.042.125,2,.349,2.666.916,1.695,1.444,4.068,32.254-2.666,33.07,6.675-11.474,14.175,1.376,12.235,11.995,9.934.793,9.981,11.046,3.759,17.993,3.084,3.246,5.75,6.578,7.997,9.996l4.238,3.998c6.599.479,9.265,5.81,7.997,15.994,6.597.472,9.262,5.803,7.997,15.994,6.597.472,9.262,5.803,7.997,15.994,9.931.791,9.983,11.065,3.759,17.993,3.934,3.209,3.934,6.787,0,9.996,9.825,10.335-.642,25.557-7.997,13.994-7.56-1.306-11.746-4.638-12.559-9.996-10.164,1.064-32.95.494-19.428-11.995-3.295,6.549-28.114,6.264-31.987,0-6.23-3.809-14.217-5.272-23.961-4.389-2.969-1.628-5.382-4.163-7.239-7.606-11.526,2.197-19.523-.468-23.99-7.997-11.526,2.197-19.523-.468-23.99-7.997-11.526,2.197-19.523-.468-23.99-7.997-11.526,2.197-19.523-.468-23.99-7.997-11.526,2.197-19.523-.468-23.99-7.997-11.526,2.197-19.523-.468-23.99-7.997-11.526,2.197-19.523-.468-23.99-7.997-21.321,2.733-29.41-5.368-18.78-27.989-3.934-3.205-3.925-6.783,0-9.996.006-1.985-.011-4.012,0-5.998.614-3.185,3.279-5.851,7.997-7.997-5.008-3.6-5.026-6.403,0-9.996.013-1.986-.029-4.012,0-5.998,1.496-3.462,4.162-6.794,7.997-9.996.06-4.645-.06-9.35,0-13.994,1.496-3.462,4.162-6.794,7.997-9.996.029-1.986-.029-4.011,0-5.998,1.496-3.462,4.162-6.794,7.997-9.996.029-1.986-.029-4.012,0-5.998,4.673-5.876,10.005-11.873,15.994-17.993.029-1.986-.029-4.012,0-5.998,1.493-3.614,4.415-8.05,7.997-9.996v-5.998h7.997c.03-2.65-.046-5.347,0-7.997Z"/>
      <path class="f" d="M223.947,476.207c.079,6.973-.056,13.996,0,20.992l2.999,2.999h20.992v4.998l2.999,2.999h20.992v4.998l2.999,2.999h20.992v4.998l2.999,2.999h20.992v4.998l2.999,2.999h20.992v4.998l2.999,2.999h20.992v4.998l2.999,2.999h20.992v4.998l2.999,2.999h20.992v4.998l2.999,2.999h22.991v7.997h31.987v7.997h23.99v7.997h7.997c.03,1.984-.051,4.014,0,5.998,6.79,5.993,6.085,20.313-4.238,19.992.497,4.355-1.629,8.328-3.759,11.995-3.69,3.932-3.69,7.264,0,9.996,5.493,7.82,5.58,16.209,0,23.99-1.313,3.464-3.979,6.129-7.997,7.997-2.481,5.429-5.512,5.405-7.997,0-1.515,3.81-3.515,6.475-5.998,7.997-1.243,2.528-3.394,4.005-5.998,4.88l-.037,34.092c-1.152,3.82-4.204,5.07-7.96,5.251-.683,10.146-13.306,10.14-19.992,3.759-3.002-1.414-5.668-1.414-7.997,0-4.579,3.565-5.47.799-6.562-3.998-9.371,1.663-15.848.33-19.428-3.998l-7.997-7.997c-2.943,5.041-5.054,5.049-7.997,0-3.663-3.805-8.687-5.151-15.073-4.04-4.368-5.338-10.006-9.323-16.914-11.954-3.185-.613-5.851-3.279-7.997-7.997-7.133,6.453-18.883,6.366-20.556-3.998-13.975,2.388-21.784-.357-23.427-8.237-10.497,1.784-19.826.531-27.989-3.759-3.185-.613-5.851-3.279-7.997-7.997-15.486,5.514-32.494,5.514-47.981,0-2.087,3.568-4.753,6.234-7.997,7.997-7.799,4.204-16.792,5.501-26.98,3.889l-5.007,4.108c-5.528,5.002-10.488,5.044-15.994,0-2.648-.046-5.348.03-7.997,0v-15.994h-7.997v-15.994h7.997c.047-5.309-.066-10.686,0-15.994.614-3.186,3.279-5.852,7.997-7.997.614-3.185,3.279-5.851,7.997-7.997-5.007-3.601-5.024-6.403,0-9.996.011-1.986-.036-4.012,0-5.998l2.543-3.866c3.391.286,4.958-.664,5.454-4.131-6.217.275-5.546-8.672,0-9.996-.066-1.979-.029-4.017,0-5.998,4.717-2.987,7.383-6.319,7.997-9.996-.629-1.338-.039-11.017,0-13.994l2.542-3.866c3.139.591,4.957-1.453,5.455-6.13-.591-3.923-.055-9.718,0-13.994l2.542-3.866c3.139.591,4.957-1.453,5.455-6.13-.591-3.923-.055-9.718,0-13.994,1.496-3.462,4.162-6.794,7.997-9.996.06-4.645-.06-9.35,0-13.994.004-5.852,6.68-5.603,7.997,0Z"/>
      <path class="j" d="M705.754,1357.854c14.819-13.176,15.208,20.069,7.997,31.987,2.39,6.548,5.055,12.545,7.997,17.993,7.707,1.563,13.038,6.228,15.994,13.994,3.485,1.694,6.817,4.36,9.996,7.997,1.142-2.85,3.172-4.876,5.998-5.998-1.775-.371-1.702-1.049,0-1.999-4.839-4.445-5.355-11.943-2.614-17.692,2.153-4.517,43.437-4.916,26.605,9.696.184,10.632-.134,21.354,0,31.987h7.997c.099,7.971-.138,16.021,0,23.99,3.381,2.084,6.047,4.749,7.997,7.997,3.529,2.027,6.195,4.693,7.997,7.997,1.891,0,7.714.283,7.997,0v-7.997h7.997c.073-2.646-.113-5.354,0-7.997.613-3.185,3.279-5.851,7.997-7.997.138-7.968-.099-16.021,0-23.99h7.997v-55.978c.481-6.991,32.391-4.295,34.341-2.189,3.072,3.317,2.19,8.926-2.353,10.186,3.53,2.026,6.195,4.692,7.997,7.997,5.501,5.101,5.42,10.856,0,15.994,3.568,2.087,6.234,4.753,7.997,7.997,6.851,3.135,10.929,7.134,12.235,11.995,4.768.57,8.687,4.568,11.755,11.995,3.185.613,5.851,3.279,7.997,7.997,5.138-5.42,10.892-5.501,15.994,0,3.185.613,5.851,3.279,7.997,7.997,5.138-5.42,10.892-5.501,15.994,0,3.185.613,5.851,3.279,7.997,7.997,5.138-5.402,10.88-5.456,15.994,0,3.186.614,5.851,3.279,7.997,7.997,2.944-5.041,5.053-5.048,7.997,0,7.933-3.895,16.064-3.916,23.99,0,3.186.614,5.851,3.279,7.997,7.997,2.946-5.034,5.051-5.04,7.997,0,.805-6.123,14.67-5.849,15.994,0-.184,10.628.063,21.356,0,31.987-7.971.099-16.021-.138-23.99,0-2.087,3.568-4.753,6.234-7.997,7.997-81.736,1.416-166.165,1.416-247.901,0-3.186-.614-5.852-3.279-7.997-7.997-2.646-.056-5.349.014-7.997,0-.009-2.654.005-5.343,0-7.997-3.896-2.521-3.894-5.474,0-7.997-3.93-7.927-3.918-16.059,0-23.99-5.438-7.763-5.391-16.123,0-23.99-2.583-2.923-5.414-2.923-7.997,0,5.391,7.868,5.439,16.227,0,23.99,3.906,5.249,3.897,10.74,0,15.994-.385,5.354-6.144,5.707-8.027,1-37.603.534-74.911.201-111.925-1,.168-13.295-.23-26.691,0-39.984.004-5.852,6.68-5.603,7.997,0,2.649,0,5.35.056,7.997,0,2.083-3.382,4.749-6.047,7.997-7.997.113-2.642-.073-5.351,0-7.997h7.997v-15.994h7.997c.099-7.971-.138-16.021,0-23.99.613-3.185,3.279-5.851,7.997-7.997.184-10.631-.134-21.354,0-31.987,10.633.134,21.356-.184,31.987,0Z"/>
      <path class="f" d="M559.813,324.268c.665-1.724,1.332-1.724,1.999,0v5.998h7.997v7.997h7.997v7.997h7.997v15.994h7.997v7.997h7.997c.034,1.32-.073,2.682,0,3.998-1.356,2.063-1.356,4.062,0,5.998v5.998c7.495-1.003,8.797,3.09,7.997,9.996l4.998-1.999c1.344.349.92,1.92,1,1.999l1.999,7.997c.105,1.977-.062,4.016,0,5.998,7.495-1.003,8.797,3.09,7.997,9.996h5.998l1.999,7.997c.105,1.977-.062,4.016,0,5.998h4.998l2.999,2.999v4.998h4.998l2.999,2.999v12.995h4.998l2.999,2.999v4.998h4.998l2.999,2.999v12.995h4.998l2.999,2.999v4.998h4.998l2.999,2.999v12.995h4.998l2.999,2.999v24.99c-.769,2.396-2.769,4.395-5.998,5.998,2.713,3.862,2.047,6.527-1.999,7.997-3.465,7.795-9.296,13.723-19.299,11.995-4.263,7.735-12.742,10.4-25.437,7.997-7.604,7.682-18.015,10.332-31.234,7.949-2.872,7.604-10.465,10.286-22.778,8.045-4.1,8.439-9.894,8.56-18.303,7.997-3.049,5.411-8.6,7.91-16.651,7.498-1.713,9.243-22.22,12.102-22.475.499-10.418-.967-9.693-12.359-3.759-19.992-3.083-3.246-5.748-6.578-7.997-9.996-.039-4.645.027-9.349,0-13.994h-7.997v-15.994h-7.997v-15.994h-7.997v-15.994h-7.997c-.034-2.649.052-5.348,0-7.997-3.085-3.244-5.751-6.576-7.997-9.996-.06-4.644.042-9.35,0-13.994h-7.997v-15.994h-7.997v-33.986l5.998,1,1.999,1.999v12.995h4.998l2.999,2.999v4.998h4.998l2.999,2.999v4.998h15.994v-7.997h15.994v-7.997h7.997v-7.997h15.994v-7.997h7.997v-7.997h15.994v-7.997h15.994v-7.997h7.997v-7.997h7.997v-5.998h-7.997v-15.994h-7.997v-15.994h-7.997v-15.994h-7.997v-7.997h-7.997v-7.997c1.974.101,4.036-.169,5.998,0Z"/>
      <path class="e" d="M319.909,226.307c.113-2.642-.073-5.351,0-7.997h7.997v-7.997h7.997v-7.997h7.997v-7.997h47.981v7.997h31.987v7.997h25.99v7.997c2.649.041,5.349-.064,7.997,0,.371-1.777,1.049-1.705,1.999,0,1.365-4.124,4.637-4.135,5.998,0,3.892-6.738,10.984-4.778,11.995,2.815,4.929.655,8.928,2.382,11.995,5.182,3.18.83,5.846,3.496,7.997,7.997,3.313,1.939,6.115,4.753,7.997,7.997,3.244,1.882,6.058,4.684,7.997,7.997,3.244,1.882,6.058,4.684,7.997,7.997,3.529,2.028,6.195,4.693,7.997,7.997,6.851,3.136,10.929,7.134,12.235,11.995,8.22.004,11.047,8.481,3.759,11.995,3.528,2.027,6.194,4.693,7.997,7.997-.018,2.649-.018,5.347,0,7.997s-.056,5.349,0,7.997h-15.994v-7.997h-47.981v7.997h-23.99c2.571,15.23-13.418,8.78-23.99,9.996v4.998l-2.999,2.999h-22.991v7.997h-15.994v7.997h-39.984v7.997h-52.979l-2.999-2.999v-4.998h-4.998l-2.999-2.999c-.129-3.32.189-6.683,0-9.996-.329-5.766-4.135-2.227-7.997-2.999.103-5.96.103-12.033,0-17.993-3.568-2.087-6.234-4.753-7.997-7.997-.138-7.949-.138-16.041,0-23.99.613-3.185,3.279-5.851,7.997-7.997.092-5.309-.092-10.685,0-15.994.614-3.186,3.279-5.851,7.997-7.997.056-2.648-.056-5.348,0-7.997,1.226-3.481,3.892-6.147,7.997-7.997,2.648-.056,5.348.056,7.997,0,2.083-3.382,4.749-6.047,7.997-7.997Z"/>
      <path class="e" d="M561.812,314.272c.069,3.314-.046,6.681,0,9.996-.664-.043-1.339.057-1.999,0l-1-1.999h-4.998c-.036-2.649.056-5.349,0-7.997h7.997Z"/>
      <path class="e" d="M681.764,548.178c4.259-10.698,12.056,1.458,15.994,7.997,2.642.113,5.351-.073,7.997,0v5.998c3.211-1.098,4.215,1.861,4.998,1.999,1.686.297,10.239.356,10.996,0,4.308,3.639,10.975,5.403,20.002,5.29l3.989,2.707c2.649.046,5.347-.03,7.997,0v5.998c4.325-.392,4.494,2.171,4.585,5.664,5.149,3.399,9.618,7.509,13.408,12.329h5.998v23.99h-7.997v5.998c-.614,1.276-1.947,1.942-3.998,1.999-1.136,3.875-2.9,3.901-3.998,0-5.776,1.639-12.077,2.389-18.903,2.25-.899,3.111-2.595,5.027-5.088,5.747.101.94.119,1.852-.154,2.666-1.371,4.079-76.004,1.936-85.462,1.333l-2.348-3.998c8.518,1.796,3.422,13.669-6.359,12.146l-35.29-.302-6.331,4.149c-2.519,3.892-5.472,3.886-7.997,0-6.283,2.17-11.614,4.835-15.994,7.997-6.202,1.927-11.534,4.593-15.994,7.997-10.055,5.601-21.963,5.681-31.987,0-2.943,5.049-5.054,5.042-7.997,0-2.087,3.568-4.753,6.234-7.997,7.997-13.286,8.434-37.638,3.173-23.99-7.997l7.997-7.997c.138-7.966-.021-16.022,0-23.99-3.909-3.214-3.918-6.79,0-9.996.035-5.31-.025-10.684,0-15.994h7.997c-.095-5.306.136-10.69,0-15.994h7.997c.027-4.645-.039-9.35,0-13.994.004-5.852,6.68-5.603,7.997,0,.066,5.309-.047,10.684,0,15.994h7.997v7.997l13.994-1.999v-5.998l15.994-1.999v-5.998h14.994l2.999-2.999v-4.998h20.992l2.999-2.999v-4.998c.813-.813,18.924.6,22.991,0,.584-.086,3.372-3.524,6.997-1.999v-5.998h22.991l2.999-2.999v-4.998h12.995l2.999-2.999v-4.998h7.997Z"/>
      <path class="f" d="M625.786,66.371c-.611,8.445-1.127,8.793,7.997,7.997v23.99h6.997l1,1.999c-2.643,4.084-3.382,7.24-3.332,12.775l-2.666,1.22c-.665.022-1.333-.01-1.999,0-5.488,5.016-10.425,5.012-15.994,0-2.943,5.05-5.054,5.043-7.997,0-2.924,2.583-2.924,5.414,0,7.997,2.946-5.034,5.051-5.04,7.997,0,.798-6.125,14.664-5.829,15.994,0,0,1.891-.283,7.714,0,7.997h7.997v7.997h7.997v15.994l7.997,1.999c-.769,2.396-2.769,4.395-5.998,5.998-.048.101-1.666-.364-1.999,1-.473,1.937.299,4.791,0,6.997h-7.997q-4.696-5.62,0,0c.056,2.649-.018,5.347,0,7.997-1.313,3.464-3.979,6.129-7.997,7.997-7.145,8.159-6.069,13.933,5.368,11.995l2.629,3.998c-.022,3.313.089,6.686,0,9.996-.77,2.396-2.77,4.395-5.998,5.998-.048.101-1.666-.364-1.999,1-.744,3.044.827,14.167,0,14.994-2.65.036-5.348-.056-7.997,0-2.928,5.08-5.066,5.07-7.997,0-3.044-1.507-5.709-1.507-7.997,0-2.087,3.568-4.753,6.234-7.997,7.997-7.97.026-16.024-.138-23.99,0-2.084,3.381-4.749,6.047-7.997,7.997-.113,2.642.073,5.351,0,7.997h-7.997v23.99h-7.997c-.036,2.649.056,5.349,0,7.997-.004,5.852-6.68,5.603-7.997,0-.113-2.642.073-5.351,0-7.997h-7.997v-7.997h-7.997c-.073-2.646.113-5.355,0-7.997-3.244-1.882-6.058-4.684-7.997-7.997-3.244-1.882-6.058-4.684-7.997-7.997-3.313-1.939-6.115-4.753-7.997-7.997-3.244-1.882-6.058-4.684-7.997-7.997-3.247-1.95-5.913-4.616-7.997-7.997-5.308-.092-10.684.064-15.994,0v-7.997c-2.649-.041-5.349.064-7.997,0-4.444.41-4.232-5.334,0-5.998-1.789-.369-1.716-1.048,0-1.999,1.95-3.248,4.615-5.914,7.997-7.997.056-2.648-.016-5.347,0-7.997.567-1.746,1.235-1.72,1.999,0,.744-3.23,3.325-6.4,5.998-7.997,6.501-5.983,17.296-5.814,23.99,0,2.087-3.568,4.753-6.234,7.997-7.997,6.116-5.149,14.466-5.455,21.544-2.069-2.955-7.507-1.482-14.878,2.446-21.921.005-5.849,6.681-5.604,7.997,0-.257-2.787,5.279-6.281,5.993-5.514,1.544,1.66-4.95,2.254-5.993-2.483-2.941,5.048-5.057,5.06-7.997,0-3.385-2.079-6.051-4.745-7.997-7.997-5.852-.004-5.603-6.68,0-7.997-5.852-.004-5.603-6.68,0-7.997-5.084-2.916-5.09-5.082,0-7.997-10.453-7.12,3.43-18.205,7.997-7.997,3,1.574,5.665,4.239,7.997,7.997,3.328,1.422,5.793,5.903,2.648,6.452-3.088.54,2.634-6.291,5.349-6.452-2.916,5.084-5.082,5.09-7.997,0-5.074-2.935-5.061-5.06,0-7.997,3.488-11.134,19.573,2.365,7.997,7.997,2.946-5.04,5.051-5.034,7.997,0,3.491-2.067,3.491-4.733,0-7.997-5.095-2.927-5.101-5.072,0-7.997.614-3.186,3.279-5.851,7.997-7.997-5.034-2.946-5.04-5.051,0-7.997,2.087-3.568,4.753-6.234,7.997-7.997,8.263-1.269,13.036-4.808,14.32-10.619,11.068-1.943,23.674-3.506,33.661,2.622Z"/>
      <path class="f" d="M641.78,186.323c.008,2.651.009,5.346,0,7.997-3.488,11.134-19.573-2.365-7.997-7.997,2.935-5.074,5.06-5.061,7.997,0Z"/>
      <path class="e" d="M561.812,2.397c2.644.104,5.35-.067,7.997,0v7.997c5.31.064,10.685-.092,15.994,0,3.124,1.206,5.79,3.872,7.997,7.997,3.333,3.706,7.788,5.039,13.365,3.998l2.629,3.998c.113,2.642-.073,5.351,0,7.997h7.997v7.997h7.997v7.997h7.997v15.994c-2.649.03-5.348-.046-7.997,0-10.632.184-21.353-.134-31.987,0v7.997c-5.31.025-10.683-.035-15.994,0-2.519,3.902-5.472,3.896-7.997,0-8.141,4.984-15.837,4.95-23.99,0-2.614-2.329-5.383-2.329-7.997,0q-5.434,4.626,0,0c2.919-5.086,5.075-5.078,7.997,0,3.881,4.043,9.216,5.389,16.007,4.038l7.984,3.959c0,2.65.056,5.349,0,7.997-.614,3.186-3.279,5.851-7.997,7.997-.056,2.648,0,5.347,0,7.997,5.852.004,5.603,6.68,0,7.997-2.648.056-5.348,0-7.997,0v-7.997h-7.997c-2.067-3.491-4.733-3.491-7.997,0h-7.997c-.036,2.65.056,5.347,0,7.997-1.507,3.044-1.507,5.709,0,7.997v7.997c-2.38,3.391-2.38,6.056,0,7.997,2.642.113,5.351-.073,7.997,0,.036,2.649-.056,5.349,0,7.997,5.086,2.92,5.078,5.075,0,7.997.043,7.974-.031,16.017,0,23.99-7.971.099-16.021-.138-23.99,0-2.087,3.568-4.753,6.234-7.997,7.997-7.968.138-16.026-.204-23.99,0-1.516,3.81-3.515,6.475-5.998,7.997h-1.999c.032-5.305.092-10.69,0-15.994-3.568-2.087-6.234-4.753-7.997-7.997-.056-2.649.056-5.347,0-7.997-3.568-2.087-6.234-4.753-7.997-7.997-.113-2.642.073-5.351,0-7.997h-7.997c-.02-7.974.027-16.016,0-23.99-3.926-5.245-3.905-10.737,0-15.994-.016-2.649.056-5.349,0-7.997-3.568-2.087-6.234-4.753-7.997-7.997-.092-5.307.018-10.684,0-15.994,1.507-3.044,1.507-5.709,0-7.997.016-2.65-.056-5.349,0-7.997.83-3.18,3.496-5.846,7.997-7.997.113-2.642-.073-5.351,0-7.997h7.997v-15.994h15.994v-7.997c5.311-.027,10.683.038,15.994,0,2.942-5.051,5.054-5.044,7.997,0,2.087-3.568,4.753-6.234,7.997-7.997,7.308-.04,14.683.012,21.991,0,3.209-3.906,6.783-3.902,9.996,0,2.519-3.892,5.472-3.887,7.997,0,2.943-5.05,5.054-5.043,7.997,0,2.087-3.568,4.753-6.234,7.997-7.997Z"/>
      <path class="e" d="M183.963,676.127c40.226-5.204,80.859-5.042,121.304-2.665l3.211,6.664c13.381-2.392,21.307.273,23.779,7.997,9.537-1.672,14.938.993,16.205,7.997,13.901-2.399,21.71.346,23.427,8.237,7.046-1.023,13.744.173,19.992,3.759,3.53,2.026,6.195,4.692,7.997,7.997,5.852.004,5.603,6.68,0,7.997-3.309,4.461-5.975,9.793-7.997,15.994,6.934,4.766,4.269,10.097-7.997,15.994-2.649-.046-5.348.03-7.997,0v-7.997c-2.649-.03-5.348.046-7.997,0-5.011-5.572-4.997-10.493,0-15.994q2.127-3.603,0,0c-6.171,10.241-10.948,17.225-23.99,7.997-2.647.019-5.351.056-7.997,0-3.185-.613-5.851-3.279-7.997-7.997-5.306-.092-10.686.064-15.994,0v-7.997h-39.984v-7.997h-71.971v7.997c-13.295.168-26.691-.23-39.984,0,.23-13.294-.168-26.688,0-39.984,2.649-.03,5.349.046,7.997,0,5.425-2.563,10.756-5.228,15.994-7.997Z"/>
      <path class="h" d="M119.989,548.178c3.744,1.141,5.194,5.14,4.351,11.995,6.238-1.224,10.118.109,11.643,3.998v5.998c-4.737,5.398-8.467,22.6,2.486,24.098.655,5.203,1.988,6.572,5.511,9.889.069,42.618-.051,85.331,0,127.949-.565.565-13.388,0-15.994,0-2.572-5.821-5.237-11.152-7.997-15.994-.06-18.629.045-37.348,0-55.978h-7.997v-86.965l-2.999-2.999h-4.998v-4.998l-2.999-2.999c-5.326-.105-10.67.15-15.994,0-6.251-.176-5.275.729-4.998-5.998,9.776-1.414,17.773-4.08,23.99-7.997,5.308.015,10.688-.092,15.994,0Z"/>
      <path class="j" d="M585.802,1405.835c1.656-7.54,10.934-4.806,11.962,2.599-1.404,8.795-.06,15.925,4.031,21.391-.05,21.295.037,42.679,0,63.974-.283.283-6.107,0-7.997,0-4.628-4.105-9.959-6.771-15.994-7.997-.035-5.31.025-10.684,0-15.994h-5.998c-1.738-7.334-1.644-16.84,0-23.99h5.998c.099-7.97-.138-16.022,0-23.99.614-3.186,3.279-5.851,7.997-7.997.056-2.648-.014-5.348,0-7.997Z"/>
      <path class="g" d="M593.799,1357.854c3.862.772,7.668-2.767,7.997,2.999,1.264,22.149.052,46.57,0,68.972-3.859-.772-7.668,2.768-7.997-2.999-.34-5.962.34-12.031,0-17.993-.329-5.767-4.137-2.226-7.997-2.999.043-7.974-.048-16.017,0-23.99,3.188-4.651,5.569-8.639,7.997-15.994.018-2.648-.007-5.348,0-7.997Z"/>
      <path class="h" d="M127.985,820.07c.098,26.626-.08,53.342,0,79.968-3.863-.772-7.668,2.767-7.997-2.999-1.414-24.776.039-51.907,0-76.969.004-5.852,6.68-5.603,7.997,0Z"/>
      <path class="f" d="M135.982,570.17h7.997c.013,11.304-.018,22.682,0,33.986-8.446.611-8.792,1.126-7.997-7.997h-4.998l-2.999-2.999v-22.991c.283-.283,6.107,0,7.997,0Z"/>
      <path class="h" d="M553.815,1381.845c.069,18.628.016,37.349,0,55.978-3.863-.772-7.668,2.767-7.997-2.999-.976-17.103.053-35.686,0-52.979.004-5.852,6.68-5.603,7.997,0Z"/>
      <path class="h" d="M545.818,1189.922c.065,18.629-.016,37.349,0,55.978-3.863-.772-7.668,2.767-7.997-2.999-.976-17.103.053-35.686,0-52.979.004-5.852,6.68-5.603,7.997,0Z"/>
      <path class="k" d="M521.828,1373.848c3.863.772,7.668-2.767,7.997,2.999.684,11.985-.067,24.875,0,36.985.372,2.073-.647,3.689-3.056,4.85,1.311,11.511-.336,15.225-4.94,11.144v-55.978Z"/>
      <path class="g" d="M577.805,1061.973c3.863.772,7.668-2.767,7.997,2.999.684,11.983-.064,24.877,0,36.985-3.861-.772-7.668,2.768-7.997-2.999-.684-11.983.064-24.876,0-36.985Z"/>
      <path class="k" d="M585.802,1205.915c3.863.772,7.668-2.767,7.997,2.999.648,11.345-.07,23.524,0,34.986-1.75,4.685-4.288,5.68-7.997,1.999-.04-13.299.03-26.685,0-39.984Z"/>
      <path class="g" d="M521.828,1211.913c.356,13.931-.011,28.041,0,41.983h-7.997c1.271-5.613-1.74-22.289,0-25.99,1.142-5.999,1.527-12.33,1.156-18.992.663-.839,7.84-.241,6.841,2.999Z"/>
      <path class="i" d="M537.821,1139.942c3.863.772,7.668-2.767,7.997,2.999.575,10.064-.076,20.823,0,30.988-.004,5.852-6.68,5.603-7.997,0-.02-11.304.01-22.682,0-33.986Z"/>
      <path class="h" d="M119.989,1083.964c-.041,11.302.067,22.685,0,33.986-.004,5.852-6.68,5.603-7.997,0,.076-10.165-.575-20.923,0-30.988.329-5.766,4.135-2.227,7.997-2.999Z"/>
      <path class="k" d="M48.017,812.073c3.863.772,7.668-2.767,7.997,2.999.54,9.454-.079,19.462,0,28.988-.004,5.852-6.68,5.603-7.997,0-.032-10.638.031-21.349,0-31.987Z"/>
      <path class="i" d="M119.989,772.089c3.862.772,7.668-2.767,7.997,2.999.54,9.453-.079,19.462,0,28.988-.004,5.852-6.68,5.603-7.997,0-.012-10.638.009-21.349,0-31.987Z"/>
      <path class="d" d="M103.995,1277.886c-.009,10.635.063,21.352,0,31.987-.004,5.852-6.68,5.603-7.997,0,.079-9.527-.54-19.535,0-28.988.329-5.766,4.135-2.227,7.997-2.999Z"/>
      <path class="d" d="M88.001,1461.813c-.075,9.525.54,19.537,0,28.988-.329,5.766-4.135,2.227-7.997,2.999.075-9.526-.54-19.537,0-28.988.329-5.766,4.136-2.227,7.997-2.999Z"/>
      <path class="i" d="M545.818,1333.864c3.863.772,7.668-2.767,7.997,2.999.54,9.454-.079,19.462,0,28.988-.004,5.852-6.68,5.603-7.997,0-.019-10.638.009-21.349,0-31.987Z"/>
      <path class="d" d="M32.024,1397.838c-.013,10.629.184,21.362,0,31.987-.004,5.852-6.68,5.603-7.997,0,.079-9.527-.54-19.535,0-28.988.329-5.766,4.135-2.227,7.997-2.999Z"/>
      <path class="g" d="M513.831,1029.986c.184,10.624-.012,21.36,0,31.987-3.863-.772-7.668,2.767-7.997-2.999-.537-9.397.027-19.498,0-28.988.004-5.852,6.68-5.603,7.997,0Z"/>
      <path class="h" d="M95.998,1365.851c-.033,10.639.032,21.349,0,31.987-.004,5.852-6.68,5.603-7.997,0,.079-9.527-.54-19.535,0-28.988.329-5.766,4.135-2.227,7.997-2.999Z"/>
      <path class="d" d="M48.017,1253.896c-.013,10.629.184,21.362,0,31.987-.004,5.852-6.68,5.603-7.997,0,.079-9.527-.54-19.535,0-28.988.329-5.766,4.135-2.227,7.997-2.999Z"/>
      <path class="d" d="M129.985,974.008c.617-1.312-.929-6.914,2.999-7.997,3.065-.845,8.454.632,11.995,0,.562-.1,2.095-3.185,5.998-1.999.817.248,1.248,1.844,1.999,1.999,2.039.421,4.763-.267,6.997,0l3.998,7.997h-33.986Z"/>
      <path class="h" d="M537.821,1021.989c.125,9.964-.011,20.022,0,29.988-3.861-.772-7.668,2.768-7.997-2.999-.503-8.805.073-18.117,0-26.989.004-5.852,6.68-5.603,7.997,0Z"/>
      <path class="h" d="M703.636,560.117c.101-.048-.364-1.666,1-1.999,5.696-1.392,15.621,1.001,21.991,0l1,9.996c-7.97-.138-16.019.099-23.99,0v-7.997Z"/>
      <path class="d" d="M111.992,1181.925c-.011,9.967.125,20.023,0,29.988-.004,5.852-6.68,5.603-7.997,0,.019-8.838-.5-18.238,0-26.989.329-5.766,4.135-2.227,7.997-2.999Z"/>
      <path class="f" d="M62.012,546.179c2.359-4.601,8.897-2.77,9.996,1.999,5.852.004,5.603,6.68,0,7.997-7.97.016-16.022-.116-23.99,0-.37,1.783-1.049,1.711-1.999,0-.302-3.226-.366-9.069,2.999-9.996,1.275-.351,12.368-.295,12.995,0Z"/>
      <path class="i" d="M62.012,546.179c-1.381-11.763,10.827-7.286,17.993-7.997v7.997c6.287.237,12.695-.334,18.992,0,2.183.116,4.93-.997,4.998,1.999-8.487,6.111-23.736,6.266-31.987,0-5.694-.219-5.711.016-9.996-1.999Z"/>
      <path class="h" d="M64.011,1107.954c-.009,8.638.052,17.352,0,25.99-.004,5.852-6.68,5.603-7.997,0,.024-8.642-.017-17.348,0-25.99h7.997Z"/>
      <path class="h" d="M56.014,1179.926c-.014,8.633.15,17.36,0,25.99-.004,5.852-6.68,5.603-7.997,0,.024-8.641-.017-17.348,0-25.99h7.997Z"/>
      <path class="f" d="M119.989,548.178c2.649.046,5.348-.03,7.997,0v5.998h7.997c.353.353,0,7.978,0,9.996h-15.994v-15.994Z"/>
      <path class="g" d="M593.799,1243.9c.053,8.637-.019,17.352,0,25.99h-7.997c-.017-7.975.024-16.016,0-23.99,2.762-1.583,4.585-2.617,7.997-1.999Z"/>
      <path class="g" d="M38.021,1101.957c.851-.198,1.789.107,1.999,1,1.425,6.047-1.026,16.305,0,22.991h-7.997c.024-7.976-.017-16.015,0-23.99h5.998Z"/>
      <path class="k" d="M40.021,692.121h7.997c.018,7.975-.026,16.016,0,23.99-.004,5.852-6.68,5.603-7.997,0-.138-7.964.014-16.023,0-23.99Z"/>
      <path class="i" d="M609.793,234.304c2.928-5.08,5.067-5.069,7.997,0,2.65-.035,5.348.056,7.997,0v7.997c-7.977.018-16.014-.026-23.99,0v-7.997c2.65-.036,5.348.056,7.997,0Z"/>
      <path class="g" d="M56.014,844.06c.066,7.97-.022,16.02,0,23.99h-7.997c-.017-7.975.024-16.016,0-23.99h7.997Z"/>
      <path class="h" d="M641.78,178.326c3.902,2.519,3.896,5.472,0,7.997-2.649.056-5.348-.056-7.997,0,0-1.891-.283-7.714,0-7.997h7.997Z"/>
      <path class="h" d="M633.783,186.323v7.997h7.997c-.009,2.651.018,5.346,0,7.997h-15.994v-15.994c2.649-.036,5.348.056,7.997,0Z"/>
      <path class="h" d="M127.985,997.998c-.126,7.968.026,16.021,0,23.99-.004,5.852-6.68,5.603-7.997,0,.026-7.975-.018-16.015,0-23.99h7.997Z"/>
      <path class="i" d="M127.985,1021.989c-.026,7.976.018,16.014,0,23.99h-7.997c.007-7.972-.026-16.018,0-23.99h7.997Z"/>
      <path class="k" d="M48.017,1037.982c.335,7.946-.241,16.036,0,23.99h-7.997c.014-7.968-.138-16.025,0-23.99.004-5.852,6.68-5.603,7.997,0Z"/>
      <path class="i" d="M95.998,1397.838c-.024,7.975.017,16.015,0,23.99h-7.997c.023-7.971-.066-16.02,0-23.99h7.997Z"/>
      <path class="i" d="M72.008,1053.976c-.026,7.976.018,16.015,0,23.99h-7.997c.009-7.972-.039-16.018,0-23.99.004-5.852,6.68-5.603,7.997,0Z"/>
      <path class="k" d="M72.008,1373.848c-.026,7.975.018,16.015,0,23.99h-7.997c.009-7.972-.048-16.019,0-23.99.004-5.852,6.68-5.603,7.997,0Z"/>
      <path class="g" d="M80.005,1261.893c-.009,7.972.048,16.019,0,23.99-.004,5.852-6.68,5.603-7.997,0,.026-7.975-.018-16.015,0-23.99h7.997Z"/>
      <path class="i" d="M40.021,1349.858c-.026,7.976.018,16.015,0,23.99h-7.997c.007-7.972-.026-16.018,0-23.99.004-5.852,6.68-5.603,7.997,0Z"/>
      <path class="h" d="M40.021,1325.867c-.007,7.972.026,16.018,0,23.99h-7.997c.026-7.976-.018-16.015,0-23.99h7.997Z"/>
      <path class="h" d="M735.624,574.111c4.286-.15,7.46-.817,9.996,2.999v4.998c7.495-1.003,8.797,3.09,7.997,9.996l-9.996-1v-6.997h-6.997l-1-9.996Z"/>
      <path class="g" d="M529.825,1413.832c.044,7.971-.007,16.019,0,23.99h-7.997c.439-2.245-.681-6.55,0-7.997.048-.101,1.666.364,1.999-1,.744-3.044-.827-14.167,0-14.994h5.998Z"/>
      <path class="g" d="M271.928,362.253c-.049,3.314.033,6.681,0,9.996h-7.997c.796,9.123.448,8.607-7.997,7.997.049-3.315-.033-6.681,0-9.996h7.997v-4.998l7.997-2.999Z"/>
      <path class="g" d="M143.979,852.057c-.027,5.975.019,12.018,0,17.993l-4.998-1.999-2.999,7.997c.027-7.974-.02-16.017,0-23.99h7.997Z"/>
      <path class="h" d="M689.761,540.182v5.998h7.997v9.996c-2.642-.113-5.351.073-7.997,0v-7.997c-.283-.283-6.106,0-7.997,0,.299-2.207-.473-5.06,0-6.997.333-1.364,1.952-.898,1.999-1-.41-4.444,5.334-4.232,5.998,0Z"/>
      <path class="k" d="M56.014,964.012c-.029,5.974.021,12.019,0,17.993h-7.997c.029-5.975-.021-12.018,0-17.993h7.997Z"/>
      <path class="h" d="M72.008,1035.983c-.006,5.979.019,12.014,0,17.993h-7.997c.029-5.975-.021-12.018,0-17.993h7.997Z"/>
      <path class="g" d="M103.995,988.002c-.03,5.976.021,12.017,0,17.993h-7.997c.032-5.31-.022-10.684,0-15.994l7.997-1.999Z"/>
      <path class="g" d="M86.002,1173.928c3.487,2.052,1.967,10.997,1.999,15.994-.004,5.852-6.68,5.603-7.997,0,.035-5.309-.025-10.685,0-15.994h5.998Z"/>
      <path class="h" d="M633.783,114.352v7.997h-15.994c-5.852-.004-5.603-6.68,0-7.997,5.31-.034,10.685.077,15.994,0Z"/>
      <path class="d" d="M545.818,1173.928c.04,5.308-.019,10.686,0,15.994h-7.997c-.016-5.313.01-10.681,0-15.994h7.997Z"/>
      <path class="k" d="M16.03,1333.864c-.035,5.309.025,10.684,0,15.994h-7.997c.009-5.31-.035-10.684,0-15.994.004-5.852,6.68-5.603,7.997,0Z"/>
      <path class="i" d="M64.011,1133.944c-.032,5.309.022,10.684,0,15.994h-7.997c.006-5.314-.015-10.68,0-15.994h7.997Z"/>
      <path class="i" d="M119.989,1117.95c-.032,5.309.022,10.685,0,15.994h-7.997c.019-5.309-.04-10.685,0-15.994h7.997Z"/>
      <path class="k" d="M30.025,1181.925c4.074,2.211,1.18,10.964,1.999,15.994h-7.997c.032-5.309-.022-10.684,0-15.994h5.998Z"/>
      <path class="f" d="M553.815,1365.851c.044,5.308-.02,10.686,0,15.994h-7.997c-.016-5.313.01-10.681,0-15.994h7.997Z"/>
      <path class="k" d="M88.001,1189.922c.034,5.309-.024,10.684,0,15.994h-7.997c.009-5.309-.035-10.685,0-15.994h7.997Z"/>
      <path class="g" d="M449.857,106.355c.032,5.311-.018,10.683,0,15.994h-7.997v-15.994h7.997Z"/>
      <path class="g" d="M24.027,1245.899c-.009,5.309.035,10.685,0,15.994-.004,5.852-6.68,5.603-7.997,0,.035-5.309-.025-10.684,0-15.994h7.997Z"/>
      <path class="g" d="M16.03,1317.87c-.009,5.309.035,10.684,0,15.994h-7.997c.035-5.309-.025-10.684,0-15.994h7.997Z"/>
      <path class="k" d="M271.928,660.134c3.185.613,5.851,3.279,7.997,7.997,10.631.184,21.354-.134,31.987,0v7.997h23.99v7.997c5.308.064,10.686-.092,15.994,0,3.185.613,5.851,3.279,7.997,7.997,5.308.092,10.684-.064,15.994,0v7.997h15.994c.073,2.646-.113,5.355,0,7.997,2.648.014,5.35-.056,7.997,0,5.852,0,5.596,6.677,0,7.997h-7.997c-.073-2.646.113-5.355,0-7.997-7.972-.043-16.018.031-23.99,0v-7.997h-23.99v-7.997h-15.994v-7.997h-23.99v-7.997c-39.954-.083-79.999.111-119.952,0-.113,2.641.073,5.352,0,7.997-5.308.064-10.686-.092-15.994,0v-7.997c5.305.092,10.687-.015,15.994,0,.113-2.641-.073-5.352,0-7.997,10.633-.134,21.356.184,31.987,0,2.087-3.568,4.753-6.234,7.997-7.997,15.911-.276,32.07-.276,47.981,0Z"/>
      <path class="h" d="M585.802,10.393c2.649.046,5.347-.03,7.997,0,.073,2.646-.113,5.354,0,7.997,5.308.092,10.685-.064,15.994,0,.073,2.645-.113,5.355,0,7.997h-15.994c-.073-2.646.113-5.354,0-7.997-2.649-.046-5.347.03-7.997,0v-7.997Z"/>
      <path class="i" d="M103.995,1309.874c-.032,5.309.022,10.685,0,15.994h-7.997c.02-5.309-.044-10.685,0-15.994h7.997Z"/>
      <path class="j" d="M159.973,932.025c5.852.004,5.603,6.68,0,7.997-5.308-.035-10.686.025-15.994,0v-7.997c5.306.092,10.687-.092,15.994,0Z"/>
      <path class="j" d="M593.799,1365.851c-.035,5.308.025,10.685,0,15.994h-7.997c.032-5.31-.022-10.683,0-15.994h7.997Z"/>
      <path class="k" d="M80.005,1285.883c-.032,5.309.022,10.685,0,15.994h-7.997c.006-5.313-.017-10.68,0-15.994h7.997Z"/>
      <path class="d" d="M127.985,804.076c.044,5.309-.019,10.685,0,15.994h-7.997c-.008-5.313.006-10.681,0-15.994h7.997Z"/>
      <path class="g" d="M72.008,1357.854c-.006,5.313.017,10.68,0,15.994h-7.997c.032-5.309-.022-10.684,0-15.994h7.997Z"/>
      <path class="k" d="M24.027,1261.893c-.035,5.309.025,10.684,0,15.994h-7.997c.009-5.309-.035-10.684,0-15.994h7.997Z"/>
      <path class="d" d="M627.785,1525.787h5.998v15.994c-2.649.03-5.349-.046-7.997,0,.259-2.239-.409-4.936,0-6.997.21-1.059,3.83-5.104,1.999-8.996Z"/>
      <path class="d" d="M537.821,2.397c5.852.004,5.603,6.68,0,7.997-3.32.009-6.676-.005-9.996,0-1.156-7.011,1.418-11.848,8.996-9.996,1.364.333.898,1.952,1,1.999Z"/>
      <path class="k" d="M191.96,562.173c.048.101,1.666-.364,1.999,1,1.852,7.578-2.985,10.152-9.996,8.996.049-3.315-.033-6.681,0-9.996h7.997Z"/>
      <path class="k" d="M207.953,514.192c.317,2.108,3.073,3.265,1.999,6.997-.976,3.392-6.744,3.288-9.996,2.999.043-3.315-.029-6.681,0-9.996h7.997Z"/>
      <path class="k" d="M88.001,1093.96c4.355-2.428,6.371,2.134,7.997,5.998-.049,3.313.033,6.683,0,9.996h-7.997c.012-5.309-.045-10.685,0-15.994Z"/>
      <path class="k" d="M199.957,538.182c.317,2.108,3.073,3.265,1.999,6.997-.976,3.392-6.744,3.288-9.996,2.999.043-3.315-.029-6.681,0-9.996h7.997Z"/>
      <path class="j" d="M93.999,1077.966h1.999c-.008,4.644.025,9.35,0,13.994-5.659,12.286-9.388-7.614-5.998-13.994h3.998Z"/>
      <path class="i" d="M641.78,100.357v13.994c-1.984.038-4.015-.065-5.998,0v-13.994h5.998Z"/>
      <path class="d" d="M553.815,2.397c5.852.004,5.603,6.68,0,7.997-2.648.056-5.347-.017-7.997,0-5.852-.004-5.603-6.68,0-7.997.949-.446,1.899-3.245,6.997-1.999,1.364.333.898,1.952,1,1.999Z"/>
      <path class="g" d="M167.969,618.15c1.784.37,1.711,1.048,0,1.999-.064,2.649.041,5.347,0,7.997h-7.997c.041-3.313-.028-6.683,0-9.996h7.997Z"/>
      <path class="g" d="M279.925,346.259v9.996h-7.997c.049-3.314-.033-6.681,0-9.996h7.997Z"/>
      <path class="k" d="M577.805,1485.803h15.994v7.997h-7.997v-5.998h-7.997c-.003-.666.004-1.333,0-1.999Z"/>
      <path class="g" d="M175.966,602.157c-.018,3.315.066,6.683,0,9.996-.004,5.852-6.68,5.603-7.997,0,.058-3.315-.039-6.68,0-9.996h7.997Z"/>
      <path class="k" d="M215.95,490.202c-.043,3.315.029,6.681,0,9.996h-7.997c.043-3.315-.029-6.681,0-9.996h7.997Z"/>
      <path class="g" d="M255.934,386.243c-.049,3.315.033,6.681,0,9.996h-7.997c.049-3.315-.033-6.681,0-9.996h7.997Z"/>
      <path class="g" d="M247.937,402.237c-.049,3.315.033,6.681,0,9.996h-7.997c.043-3.315-.029-6.681,0-9.996h7.997Z"/>
      <path class="i" d="M111.992,1211.913c-.041,3.313.028,6.683,0,9.996h-7.997c.017-3.313-.007-6.683,0-9.996h7.997Z"/>
      <path class="k" d="M513.831,1205.915h7.997c.03,1.983-.051,4.016,0,5.998h-5.998c-.828.828.744,11.949,0,14.994-.333,1.364-1.952.898-1.999,1v-21.991Z"/>
      <path class="g" d="M239.941,426.227c-.043,3.315.029,6.681,0,9.996h-7.997c.049-3.315-.033-6.681,0-9.996h7.997Z"/>
      <path class="g" d="M90.001,1077.966v13.994h5.998c-.014,2.649.039,5.349,0,7.997h-5.998v-4.998l-1.999-1c.043-4.975-.03-9.996,0-14.994l1.999-1Z"/>
      <path class="g" d="M223.947,466.211c-.009,3.313-.037,6.683,0,9.996h-7.997c.043-3.315-.029-6.681,0-9.996h7.997Z"/>
      <path class="g" d="M231.944,442.221c-.021,3.315.066,6.683,0,9.996-.004,5.852-6.68,5.603-7.997,0,.049-3.313-.033-6.683,0-9.996h7.997Z"/>
      <path class="d" d="M529.825,1011.993h7.997c.028,3.312-.041,6.684,0,9.996h-7.997c-.027-3.312.075-6.686,0-9.996Z"/>
      <path class="g" d="M183.963,578.166c.087,2.583-.598,8.725,0,9.996-.061,5.766-6.716,5.614-7.997,0,.127-2.304-.083-4.668,0-6.997,2.203-3.081,4.274-3.451,7.997-2.999Z"/>
      <path class="k" d="M183.963,588.162c.133.282,3.4.145,1.999,4.998-.98,3.394-6.742,3.287-9.996,2.999.048-2.643-.145-5.362,0-7.997h7.997Z"/>
      <path class="i" d="M32.024,1429.826c-.046,2.648.03,5.348,0,7.997h-7.997c.004-2.649-.022-5.348,0-7.997h7.997Z"/>
      <path class="f" d="M231.944,452.217c-.052,2.649.034,5.347,0,7.997h-7.997c.014-2.649-.039-5.348,0-7.997h7.997Z"/>
      <path class="h" d="M46.018,556.175c.665-.022,1.333.01,1.999,0v7.997c-2.204-.3-5.06.474-6.997,0-1.364-.334-.898-1.952-1-1.999v-5.998c1.984-.038,4.015.065,5.998,0Z"/>
      <path class="g" d="M585.802,1413.832c-.056,2.648.036,5.348,0,7.997h-7.997c.046-2.648-.03-5.348,0-7.997h7.997Z"/>
      <path class="d" d="M175.966,612.153c-.052,2.649.034,5.347,0,7.997h-7.997c.016-.666-.008-1.333,0-1.999.025-1.987-.035-4.011,0-5.998h7.997Z"/>
      <path class="k" d="M8.033,1405.835c-.056,2.647.036,5.348,0,7.997H.037c.014-2.648-.056-5.351,0-7.997.004-5.852,6.68-5.603,7.997,0Z"/>
      <path class="k" d="M279.925,306.275h7.997c.03,2.65-.046,5.347,0,7.997h-7.997c-.03-2.65.046-5.348,0-7.997Z"/>
      <path class="h" d="M553.815,290.281c-.056,2.648.018,5.348,0,7.997h-7.997c-.073-2.646.113-5.355,0-7.997h7.997Z"/>
      <path class="k" d="M287.921,274.288c-.046,2.649.03,5.347,0,7.997h-7.997c.046-2.649-.03-5.347,0-7.997h7.997Z"/>
      <path class="g" d="M295.918,250.297c-.056,2.648.036,5.348,0,7.997h-7.997c.046-2.649-.03-5.347,0-7.997h7.997Z"/>
      <path class="g" d="M48.017,716.111c.009,2.654-.005,5.343,0,7.997h-7.997c-.03-2.648.046-5.349,0-7.997h7.997Z"/>
      <path class="g" d="M8.033,1397.838c-.014,2.648.056,5.35,0,7.997H.037c.056-2.647-.036-5.349,0-7.997h7.997Z"/>
      <path class="g" d="M159.973,724.108c-.046,2.648.03,5.348,0,7.997h-7.997c.046-2.648-.03-5.349,0-7.997,2.648-.03,5.349.046,7.997,0Z"/>
      <path class="j" d="M127.985,732.105c-.046,2.649.03,5.347,0,7.997h-7.997c-.004-2.654.005-5.343,0-7.997.004-5.852,6.68-5.603,7.997,0Z"/>
      <path class="i" d="M577.805,242.301v7.997h-7.997c.113-2.642-.073-5.351,0-7.997,2.649-.03,5.348.046,7.997,0Z"/>
      <path class="i" d="M545.818,2.397v7.997c-2.65.017-5.346-.007-7.997,0V2.397c.53.249,7.467.249,7.997,0Z"/>
      <path class="g" d="M303.915,234.304v7.997h-7.997c.056-2.648-.036-5.348,0-7.997,2.649-.036,5.348.056,7.997,0Z"/>
      <path class="g" d="M151.976,772.089c-.046,2.648.03,5.349,0,7.997h-7.997c.046-2.648-.03-5.348,0-7.997h7.997Z"/>
      <path class="k" d="M319.909,226.307c-.113,2.642.073,5.351,0,7.997-2.649.036-5.348-.056-7.997,0v-7.997h7.997Z"/>
      <path class="i" d="M561.812,2.397v7.997c-2.649.036-5.348-.056-7.997,0V2.397c1.116.525,5.777-.087,7.997,0Z"/>
      <path class="g" d="M135.982,892.041h7.997c.036,2.65-.056,5.347,0,7.997h-7.997c-.03-2.649.046-5.348,0-7.997Z"/>
      <path class="j" d="M143.979,908.034h7.997c.073,2.647-.113,5.354,0,7.997h-7.997c-.036-2.65.056-5.347,0-7.997Z"/>
      <path class="k" d="M473.847,202.317c-.056,2.649.036,5.347,0,7.997-2.646.073-5.354-.113-7.997,0,.068-2.65-.044-5.346,0-7.997h7.997Z"/>
      <path class="h" d="M497.837,10.393c5.852.004,5.603,6.68,0,7.997-2.648.056-5.348-.019-7.997,0v-7.997c2.649-.036,5.348.056,7.997,0Z"/>
      <path class="i" d="M641.78,178.326c1.891,0,7.714-.283,7.997,0v7.997c-2.649.036-5.348-.056-7.997,0-.008-2.651.018-5.346,0-7.997Z"/>
      <path class="d" d="M80.005,982.005c-.046,2.649.03,5.347,0,7.997h-7.997c.046-2.648-.03-5.348,0-7.997h7.997Z"/>
      <path class="k" d="M465.85,170.329h7.997c.03,2.65-.046,5.347,0,7.997h-7.997c-.036-2.65.056-5.347,0-7.997Z"/>
      <path class="k" d="M505.834,1021.989h7.997c.03,2.647-.046,5.35,0,7.997h-7.997c-.008-2.648.018-5.349,0-7.997Z"/>
      <path class="g" d="M46.018,1029.986c3.217.174,1.868,4.894,1.999,7.997h-7.997c.046-2.648-.03-5.348,0-7.997h5.998Z"/>
      <path class="k" d="M457.853,154.336h7.997c.036,2.65-.056,5.347,0,7.997h-7.997c-.073-2.646.113-5.355,0-7.997Z"/>
      <path class="f" d="M505.834,10.393v7.997c-2.649.036-5.348-.056-7.997,0v-7.997c2.648-.056,5.347.015,7.997,0Z"/>
      <path class="i" d="M56.014,1205.915c-.046,2.648.03,5.348,0,7.997h-7.997c.004-2.654-.007-5.343,0-7.997h7.997Z"/>
      <path class="g" d="M441.86,90.361h7.997c.036,2.649-.056,5.348,0,7.997h-7.997c-.03-2.65.046-5.347,0-7.997Z"/>
      <path class="i" d="M48.017,1285.883c-.046,2.648.03,5.348,0,7.997h-7.997c.014-2.654-.022-5.343,0-7.997h7.997Z"/>
      <path class="g" d="M64.011,1461.813c-.014,2.648.056,5.35,0,7.997-.445,6.108-5.751,5.367-7.997,0,.056-2.647-.036-5.349,0-7.997h7.997Z"/>
      <path class="k" d="M441.86,66.371h7.997v7.997h-7.997c-.009-2.65-.016-5.346,0-7.997Z"/>
      <path class="g" d="M449.857,50.377c-.113,2.642.073,5.351,0,7.997h-7.997c.056-2.649-.036-5.347,0-7.997h7.997Z"/>
      <path class="i" d="M633.783,428.226h-7.997v-5.998h4.998l1-1.999,1.999,1c.08,2.33-.122,4.693,0,6.997Z"/>
      <path class="i" d="M617.789,404.236h-7.997v-5.998h4.998l1-1.999c.079.079,1.68-.337,1.999,1,.44,1.843-.118,4.767,0,6.997Z"/>
      <path class="k" d="M64.011,1469.81c-.056,2.647.036,5.349,0,7.997h-5.998v-4.998l-1.999-1c.007-.666-.014-1.333,0-1.999h7.997Z"/>
      <polygon class="g" points="571.808 1469.81 569.809 1468.81 569.809 1446.819 571.808 1445.819 571.808 1469.81"/>
      <path class="d" d="M95.998,966.011c-2.297-.153-4.671.101-6.997,0l-1-1.999,1.999-1v-4.998c5.041-.48,6.728,3.191,5.998,7.997Z"/>
      <path class="i" d="M601.796,374.248c.11,1.976-.065,4.017,0,5.998h-7.997v-5.998h7.997Z"/>
      <path class="d" d="M66.01,1533.784v-5.998h5.998v5.998c-1.99-.005-4.008.003-5.998,0Z"/>
      <path class="i" d="M671.649,530.129v5.998h-5.998c.517-1.1-.312-4.224,0-5.998h5.998Z"/>
      <path class="i" d="M641.78,212.313c-.053,1.984.032,4.012,0,5.998h-5.998c.517-1.1-.312-4.225,0-5.998h5.998Z"/>
      <path class="i" d="M657.773,156.335v5.998h-5.998c.517-1.1-.312-4.225,0-5.998h5.998Z"/>
      <path class="g" d="M465.85,210.313c-.017.665,0,1.333,0,1.999-.664,2.547-2.663,4.546-5.998,5.998-.666-.009-1.333.016-1.999,0v-7.997c2.646-.073,5.354.113,7.997,0Z"/>
      <path class="h" d="M751.617,622.092v1.999c-.606,3.804-2.188,3.59-3.998,0l3.998-1.999Z"/>
      <path class="g" d="M95.998,1077.966h-1.999l1.999-1.999c0,.666.001,1.333,0,1.999Z"/>
      <path class="g" d="M809.713,1005.995c.016-13.303-.012-26.681,0-39.984h7.997v-15.994h15.994v-9.996h7.997c.127,21.96-.173,44.015,0,65.974-1.89,0-7.714-.283-7.997,0v84.966l2.999,2.999h4.998v28.988c2.194,3.089,4.336,3.451,7.997,2.999.029-2.648-.045-5.35,0-7.997.004-5.852,6.68-5.603,7.997,0,3.886,2.526,3.894,5.479,0,7.997-.108,21.293.019,42.681,0,63.974-.613,3.185-3.279,5.851-7.997,7.997,5.613,10.059,5.738,21.977,0,31.987,4.939,26.635,4.989,53.338,0,79.968-.019,10.639.014,21.348,0,31.987h-7.997v7.997h-7.997v7.997h-4.998l-2.999,2.999v4.998h-7.997v-7.997h-7.997c-.046-10.636.063-21.351,0-31.987-1.927-6.203-4.592-11.534-7.997-15.994-.018-2.65-.018-5.347,0-7.997,3.187-4.651,5.571-8.638,7.997-15.994.063-10.635-.046-21.352,0-31.987h7.997v-31.987h7.997v-71.971h7.997v-47.981h-7.997v-23.99h-7.997v-7.997h-7.997c.019-21.297-.025-42.678,0-63.974Z"/>
      <path class="f" d="M64.011,586.163c.378-7.211,17.851-5.142,19.679,2.286-.545,6.462,2.087,11.62,7.895,15.476l.222,65.107,4.191,7.094c.023,18.631-.009,37.346,0,55.978h-23.99c-.032-10.638.032-21.349,0-31.987-1.422-9.773-4.088-17.77-7.997-23.99-.09-29.921-.518-60.053,0-89.964Z"/>
      <path class="f" d="M473.847,932.025c23.863-5.451,48.129-5.61,71.971,0,5.308.032,10.685-.022,15.994,0v7.997c4.642.042,9.353-.06,13.994,0l3.714,3.388c2.451,3.806,7.21,6.008,14.279,6.608,3.042,2.119,5.81,4.886,7.997,7.997,3.883,1.828,3.888,4.175,0,5.998-3.213,7.018-28.846,6.696-28.341-3.998-7.809.682-14.226.196-15.994-7.997-8.606,1.557-15.152-2.441-19.639-11.995-13.285-.23-26.694.011-39.984,0-35.271,3.913-70.688,3.937-105.958,0-5.852-.004-5.603-6.68,0-7.997,27.291-.027,54.676-.035,81.967,0Z"/>
      <path class="k" d="M391.88,940.022c35.289.016,70.669-.029,105.958,0l-1,9.996h-167.933l-1-9.996c21.274-3.928,42.701-3.936,63.974,0Z"/>
      <path class="h" d="M391.88,932.025v7.997c-21.296-.009-42.678.007-63.974,0-29.292-.009-58.673.031-87.965,0l2.999-7.997c49.643-.037,99.322.05,148.94,0Z"/>
      <path class="h" d="M64.011,586.163c.046-2.647-.03-5.349,0-7.997h23.99v7.997h7.997c.028,29.958-.038,60.006,0,89.964-3.862-.772-7.668,2.767-7.997-2.999-1.271-22.266.939-45.581,0-67.973l-2.999-2.999h-4.998v-12.995l-2.999-2.999h-12.995Z"/>
      <path class="h" d="M537.821,940.022c2.647.046,5.349-.03,7.997,0v7.997h15.994v7.997h15.994v7.997h23.99c-.049,3.314.033,6.681,0,9.996h-7.997v7.997h-7.997c-1.891,0-7.714.283-7.997,0v-7.997h-7.997v-7.997h-7.997v-7.997h-15.994v-7.997h-6.997l-1-9.996Z"/>
      <rect class="h" x="617.789" y="1349.858" width="7.997" height="79.968"/>
      <path class="k" d="M95.998,812.073c3.862.772,7.668-2.767,7.997,2.999,1.122,19.662-.048,41.091,0,60.976-.004,5.852-6.68,5.603-7.997,0-.064-21.294.027-42.68,0-63.974Z"/>
      <path class="h" d="M609.793,1051.977c.094,16.63-.032,33.349,0,49.98-3.861-.772-7.668,2.768-7.997-2.999-.867-15.187.061-31.628,0-46.981.004-5.852,6.68-5.603,7.997,0Z"/>
      <path class="h" d="M80.005,820.07c.016,13.301-.042,26.684,0,39.984-3.863-.772-7.668,2.767-7.997-2.999-.684-11.987.07-24.873,0-36.985.004-5.852,6.68-5.603,7.997,0Z"/>
      <path class="h" d="M617.789,1213.912c-.017,13.303.013,26.681,0,39.984h-7.997c-.012-13.303.017-26.681,0-39.984.004-5.852,6.68-5.603,7.997,0Z"/>
      <path class="k" d="M745.738,1493.8c5.05,2.942,5.042,5.054,0,7.997.004-5.852,6.68-5.603,7.997,0,.003,2.654-.005,5.343,0,7.997h-7.997c-.036-2.648.056-5.35,0-7.997-1.89,0-7.714.283-7.997,0v-5.998h-110.956l-1-1.999h119.952Z"/>
      <path class="j" d="M103.995,548.178v7.997c-7.977.018-16.014-.026-23.99,0-2.655.009-5.342-.005-7.997,0v-7.997c10.583.407,21.385-.03,31.987,0Z"/>
      <rect class="h" x="783.604" y="1393.783" width="15.994" height="15.994"/>
      <path class="i" d="M607.793,1021.989c.079.079,1.68-.337,1.999,1,.441,1.845-.121,4.768,0,6.997.107,1.974-.043,4.017,0,5.998.114,5.303-.03,10.688,0,15.994h-7.997c-.039-9.97-.016-20.018,0-29.988.62-2.063,4.078-1.142,5.998,0Z"/>
      <path class="i" d="M617.789,1171.929c3.904,3.212,3.907,6.786,0,9.996-.005,5.313.017,10.681,0,15.994-.004,5.852-6.68,5.603-7.997,0-.026-8.641.012-17.349,0-25.99h7.997Z"/>
      <path class="h" d="M64.011,676.127h7.997c.017,7.975-.024,16.015,0,23.99h-7.997c-.017-7.974.024-16.016,0-23.99Z"/>
      <path class="i" d="M72.008,780.086h7.997c.018,7.975-.026,16.015,0,23.99-.004,5.852-6.68,5.603-7.997,0-.023-7.975.012-16.015,0-23.99Z"/>
      <path class="g" d="M103.995,876.047c.019,7.972.01,16.019,0,23.99h-7.997c-.017-7.974.024-16.016,0-23.99h7.997Z"/>
      <path class="g" d="M625.786,1133.944c-.007,7.972.026,16.018,0,23.99-.004,5.852-6.68,5.603-7.997,0,.027-7.975-.02-16.015,0-23.99h7.997Z"/>
      <path class="k" d="M625.786,1157.934c-.026,7.976.018,16.015,0,23.99h-7.997c.003-3.318-.005-6.678,0-9.996.006-4.648-.016-9.346,0-13.994h7.997Z"/>
      <path class="k" d="M743.62,1297.821h7.997c.025,5.31-.035,10.684,0,15.994-.743,3.23-3.325,6.401-5.998,7.997l-1.999-1c-.034-7.663.047-15.351,0-22.991Z"/>
      <path class="d" d="M617.789,1197.918c-.017,5.313.007,10.68,0,15.994h-7.997c-.007-5.313.016-10.68,0-15.994h7.997Z"/>
      <path class="g" d="M735.624,1241.844h7.997c.022,5.309-.032,10.684,0,15.994h-7.997c-.022-5.31.032-10.683,0-15.994Z"/>
      <path class="k" d="M783.604,1305.818h7.997c.022,5.309-.032,10.684,0,15.994h-7.997c-.025-5.311.035-10.683,0-15.994Z"/>
      <path class="k" d="M791.601,1281.828c-.032,5.309.022,10.685,0,15.994h-7.997c.035-5.311-.025-10.683,0-15.994h7.997Z"/>
      <path class="d" d="M80.005,804.076c.017,5.313-.006,10.68,0,15.994h-7.997c-.031-5.309.015-10.685,0-15.994h7.997Z"/>
      <path class="f" d="M119.989,716.111h7.997c-.064,5.31.092,10.685,0,15.994h-7.997c-.01-5.313.017-10.681,0-15.994Z"/>
      <path class="d" d="M601.796,995.999c4.995,3.603,5.017,6.403,0,9.996-4.298-.02-7.383.963-9.996-2.999v-1.999c2.5-1.518,1.709-2.895,1.999-4.998h7.997Z"/>
      <path class="i" d="M719.63,1215.854c-.041,3.315.028,6.681,0,9.996h-7.997c.041-3.314-.028-6.682,0-9.996h7.997Z"/>
      <path class="g" d="M727.627,1209.857h7.997c.03,2.649-.046,5.348,0,7.997-5.511.926-11.618-.658-9.996-6.997.35-1.367,1.952-.898,1.999-1Z"/>
      <path class="g" d="M625.786,1453.816c.046-2.647-.03-5.349,0-7.997h7.997v7.997h-7.997Z"/>
      <path class="g" d="M649.777,1445.819c-.113,2.642.073,5.351,0,7.997-2.649.036-5.348-.056-7.997,0v-7.997h7.997Z"/>
      <path class="k" d="M775.608,1473.751c2.642.113,5.351-.073,7.997,0v7.997h-7.997c-.073-2.646.113-5.354,0-7.997Z"/>
      <path class="h" d="M103.995,932.025c-.046,2.648.03,5.349,0,7.997h-7.997v-7.997h7.997Z"/>
      <path class="g" d="M159.973,932.025c2.648.046,5.349-.03,7.997,0v7.997c-2.648-.007-5.349.018-7.997,0v-7.997Z"/>
      <path class="k" d="M673.767,1389.842c-.046,2.648.03,5.348,0,7.997h-7.997c.046-2.649-.03-5.347,0-7.997h7.997Z"/>
      <path class="g" d="M767.611,1465.754h7.997c.073,2.646-.113,5.354,0,7.997-2.642-.113-5.351.073-7.997,0-.03-2.649.046-5.348,0-7.997Z"/>
      <path class="k" d="M719.63,1185.866c.064-2.648-.041-5.347,0-7.997h7.997c.041,2.649-.064,5.349,0,7.997.5,4.575-7.454,4.267-7.997,0Z"/>
      <path class="g" d="M807.595,1457.758c-.046,2.648.03,5.349,0,7.997h-7.997c.113-2.643-.073-5.35,0-7.997h7.997Z"/>
      <path class="i" d="M711.633,1257.837c-.046,2.649.03,5.348,0,7.997h-7.997c.046-2.649-.03-5.347,0-7.997h7.997Z"/>
      <path class="h" d="M703.636,1289.825c-.014,2.649.056,5.349,0,7.997-.004,5.852-6.68,5.603-7.997,0,.056-2.648-.036-5.348,0-7.997h7.997Z"/>
      <path class="i" d="M703.636,1297.821c-.056,2.648.036,5.347,0,7.997h-7.997c.014-2.649-.056-5.349,0-7.997h7.997Z"/>
      <path class="i" d="M727.627,1185.866c.048,1.984-.015,4.012,0,5.998-1.105,1.757-6.093,1.49-7.997,0,.015-1.986-.048-4.013,0-5.998h7.997Z"/>
      <path class="g" d="M751.617,1313.815c.018,2.649-.007,5.348,0,7.997h-5.998v-7.997h5.998Z"/>
      <path class="d" d="M727.627,1191.864c.005.666.013,1.334,0,1.999h-7.997c.003-.666-.005-1.333,0-1.999h7.997Z"/>
      <path class="d" d="M607.793,1021.989h-5.998c.001-.666-.001-1.333,0-1.999,4.273-.706,4.195.197,5.998,1.999Z"/>
      <path class="j" d="M847.579,927.969c-.018,8.638.048,17.352,0,25.99-1.404,2.4-2.785,4.46-4.145,6.179l.121,27.651-3.973,6.154c-.082,15.294-.075,30.687,0,45.982,1.729,7.025,4.394,13.022,7.997,17.993.039,7.97.046,16.02,0,23.99-4.508,6.346-5.848,15.072-4.02,26.178l-3.977,5.81h-7.997c.456-26.597-.042-53.362,0-79.968-3.924-10.614-3.949-21.379,0-31.987.049-16.606-.424-33.387,0-49.98.465-2.519,3.131-4.518,7.997-5.998.153-5.97-.108-12.02,0-17.993h7.997Z"/>
      <path class="e" d="M473.847,932.025l2.999-7.997c21.734.911,44.362-1.234,65.974,0,5.766.329,2.227,4.134,2.999,7.997-23.957-.143-48.013.031-71.971,0Z"/>
      <path class="e" d="M687.643,953.959c-.056,2.648.036,5.348,0,7.997h-7.997c-.283-.283,0-6.106,0-7.997,2.642.055,5.355.055,7.997,0Z"/>
      <path class="e" d="M687.643,945.962h7.997v7.997c-2.649.036-5.348-.056-7.997,0,.055-2.644.039-5.352,0-7.997Z"/>
      <path class="e" d="M697.758,958.014c-2.648-.056-5.348.036-7.997,0v-7.997h-15.994v-9.996h31.987c.033,3.314-.049,6.682,0,9.996-1.891,0-7.714-.283-7.997,0v7.997Z"/>
      <path class="f" d="M367.889,732.105c-.039,5.31.028,10.683,0,15.994-7.969-.138-16.02.099-23.99,0v-7.997c5.31-.038,10.683.027,15.994,0v-7.997c2.646-.073,5.355.113,7.997,0Z"/>
      <path class="h" d="M831.585,1001.94c-.032,10.635.017,21.352,0,31.987-3.863-.772-7.668,2.767-7.997-2.999-.54-9.452.075-19.464,0-28.988h7.997Z"/>
      <path class="f" d="M399.877,740.102v15.994c-5.308-.016-10.688.092-15.994,0v-7.997h7.997c.03-2.65-.046-5.347,0-7.997.004-5.852,6.68-5.603,7.997,0Z"/>
      <path class="i" d="M505.834,764.092c5.31.038,10.683-.027,15.994,0v7.997c-5.31-.009-10.684.032-15.994,0-5.852-.004-5.603-6.68,0-7.997Z"/>
      <path class="g" d="M609.793,990.002v13.994c-2.957,1.39-2.568,2.024-7.997,1.999.022-3.311-.088-6.688,0-9.996.053-1.983-.032-4.013,0-5.998h7.997Z"/>
      <path class="e" d="M575.806,940.022c3.312.043,6.684-.029,9.996,0v7.997c5.308.022,10.685-.032,15.994,0v1.999c.087,5.866-6.532,5.395-7.997,0-9.983,0-20.048,3.099-17.993-9.996Z"/>
      <path class="e" d="M727.627,911.976c.046-2.649-.03-5.347,0-7.997h7.997v7.997c-2.646.073-5.354-.113-7.997,0-.092,5.309.064,10.684,0,15.994-2.646.073-5.354-.113-7.997,0-.046,2.649.03,5.347,0,7.997h-7.997v-7.997c2.646-.073,5.354.113,7.997,0,.092-5.309-.064-10.684,0-15.994,2.646-.073,5.354.113,7.997,0Z"/>
      <path class="i" d="M735.624,792.024c5.31.038,10.683-.027,15.994,0v7.997c-5.311-.01-10.683.032-15.994,0-5.852-.004-5.603-6.68,0-7.997Z"/>
      <path class="e" d="M633.783,780.086c5.852.004,5.603,6.68,0,7.997-5.31-.035-10.683.025-15.994,0v-7.997c5.308.015,10.688-.092,15.994,0Z"/>
      <path class="d" d="M577.805,772.089c5.852.004,5.603,6.68,0,7.997-5.308-.016-10.688.092-15.994,0-5.852-.004-5.603-6.68,0-7.997,5.308.016,10.688-.092,15.994,0Z"/>
      <path class="i" d="M441.86,756.095c5.31.036,10.683-.025,15.994,0v7.997c-5.31-.008-10.683.026-15.994,0-5.852-.004-5.603-6.68,0-7.997Z"/>
      <rect class="e" x="351.896" y="756.095" width="15.994" height="7.997"/>
      <path class="d" d="M441.86,756.095v7.997c-3.313-.016-6.684.066-9.996,0-5.852-.004-5.603-6.68,0-7.997,3.314.009,6.682-.023,9.996,0Z"/>
      <path class="f" d="M327.905,732.105c2.648.046,5.349-.03,7.997,0v7.997c-2.648-.056-5.348.036-7.997,0v-7.997Z"/>
      <path class="e" d="M431.864,756.095v7.997c-2.648-.052-5.348.034-7.997,0v-7.997c2.655.004,5.342-.007,7.997,0Z"/>
      <rect class="e" x="335.902" y="764.092" width="7.997" height="7.997"/>
      <path class="e" d="M497.837,764.092c5.852.004,5.603,6.68,0,7.997-2.648-.056-5.348.036-7.997,0v-7.997c2.655.004,5.342-.008,7.997,0Z"/>
      <path class="h" d="M505.834,764.092v7.997c-2.649-.016-5.349.056-7.997,0v-7.997c2.65.008,5.347-.019,7.997,0Z"/>
      <path class="e" d="M561.812,772.089v7.997c-2.649-.046-5.348.03-7.997,0v-7.997c2.655.004,5.342-.008,7.997,0Z"/>
      <path class="i" d="M577.805,772.089c2.649.046,5.348-.03,7.997,0v7.997c-2.655-.004-5.342.008-7.997,0v-7.997Z"/>
      <path class="d" d="M633.783,780.086c2.649.046,5.348-.03,7.997,0v7.997c-2.65-.007-5.347.018-7.997,0v-7.997Z"/>
      <path class="e" d="M689.761,788.082c5.852.004,5.603,6.68,0,7.997-2.648-.056-5.348.036-7.997,0v-7.997c2.65.007,5.347-.016,7.997,0Z"/>
      <path class="d" d="M679.646,784.027c5.852.004,5.603,6.68,0,7.997-2.649-.016-5.349.056-7.997,0v-7.997c2.649.016,5.349-.056,7.997,0Z"/>
      <path class="i" d="M679.646,784.027c2.648.056,5.348-.036,7.997,0v7.997c-2.65-.007-5.347.016-7.997,0v-7.997Z"/>
      <path class="e" d="M727.627,792.024c5.852.004,5.603,6.68,0,7.997-2.648-.056-5.348.036-7.997,0v-7.997c2.655.004,5.342-.008,7.997,0Z"/>
      <path class="h" d="M735.624,792.024v7.997c-2.649-.016-5.349.056-7.997,0v-7.997c2.65.008,5.347-.019,7.997,0Z"/>
      <path class="h" d="M783.604,800.021c5.852.004,5.603,6.68,0,7.997-2.649-.056-5.347.036-7.997,0v-7.997c2.649.014,5.349-.056,7.997,0Z"/>
      <path class="i" d="M783.604,800.021c2.648.056,5.348-.036,7.997,0v7.997c-2.65-.035-5.347.056-7.997,0v-7.997Z"/>
      <path class="h" d="M799.598,808.017c2.649.056,5.347-.036,7.997,0v7.997c-2.649-.056-5.347.036-7.997,0v-7.997Z"/>
      <path class="i" d="M815.592,816.014c2.649.056,5.347-.036,7.997,0,.073,2.647-.113,5.354,0,7.997-2.641-.113-5.352.073-7.997,0v-7.997Z"/>
      <path class="d" d="M823.588,824.011c2.641.113,5.352-.073,7.997,0,.073,2.644-.113,5.356,0,7.997h-7.997c-.073-2.647.113-5.354,0-7.997Z"/>
      <path class="g" d="M617.789,974.008c-.113,2.64.073,5.353,0,7.997h-7.997c.056-2.649-.036-5.347,0-7.997h7.997Z"/>
      <rect class="e" x="641.78" y="1053.976" width="7.997" height="7.997"/>
      <path class="g" d="M633.783,1061.973c-.052,2.649.034,5.347,0,7.997h-7.997c.046-2.648-.03-5.348,0-7.997h7.997Z"/>
      <rect class="e" x="657.773" y="1061.973" width="7.997" height="7.997"/>
      <path class="g" d="M839.582,945.962c-.051,1.984.03,4.012,0,5.998h-7.997c.051-1.982-.03-4.014,0-5.998h7.997Z"/>
      <path class="k" d="M473.847,490.202h7.997c.044,3.314-.066,6.683,0,9.996h-7.997c-.029-3.314.043-6.682,0-9.996Z"/>
      <path class="k" d="M513.831,570.17h7.997c.028,3.314-.041,6.682,0,9.996h-7.997c.028-3.313.028-6.683,0-9.996Z"/>
      <path class="h" d="M399.877,708.114c2.647.056,5.349-.036,7.997,0,.036,2.648-.056,5.35,0,7.997s.055,5.356,0,7.997c-2.94,5.06-5.056,5.049-7.997,0,5.842.004,5.602,6.685,0,7.997v7.997h-7.997c.092-5.309-.064-10.684,0-15.994,2.649-.044,5.349.068,7.997,0v-15.994Z"/>
      <path class="h" d="M497.837,626.147c-.022,3.314.009,6.682,0,9.996h-7.997v-9.996h7.997Z"/>
      <path class="h" d="M223.947,660.134v7.997c-2.649.03-5.349-.046-7.997,0v-7.997c2.649-.03,5.349.046,7.997,0Z"/>
      <path class="h" d="M271.928,660.134c2.648.046,5.348-.03,7.997,0v7.997c-2.648-.046-5.348.03-7.997,0v-7.997Z"/>
      <path class="h" d="M497.837,660.134c-.046,2.648.03,5.348,0,7.997-2.648.036-5.349-.056-7.997,0,0-1.891-.283-7.714,0-7.997h7.997Z"/>
      <path class="e" d="M351.896,684.124c2.648.046,5.348-.03,7.997,0v7.997c-2.649-.046-5.347.03-7.997,0v-7.997Z"/>
      <path class="i" d="M481.844,668.13v7.997c-1.984.032-4.014-.053-5.998,0v-7.997c1.984-.036,4.015.06,5.998,0Z"/>
      <path class="i" d="M433.863,724.108v-5.998h7.997v5.998c-2.649-.039-5.348.025-7.997,0Z"/>
      <path class="g" d="M735.624,1473.751c.015,7.975-.009,16.015,0,23.99h-7.997c-.056-2.646.016-5.349,0-7.997-.032-5.308-.011-10.685,0-15.994.004-5.852,6.68-5.603,7.997,0Z"/>
      <path class="k" d="M735.624,1449.761c.138,7.964-.015,16.023,0,23.99h-7.997c.016-7.967-.138-16.026,0-23.99.004-5.852,6.68-5.603,7.997,0Z"/>
      <path class="i" d="M695.64,1385.786h7.997v17.993h-4.998l-2.999-2.999c-.057-4.997.081-10.02,0-14.994Z"/>
      <path class="f" d="M735.624,1417.774c-.01.666.022,1.334,0,1.999-.662,2.55-2.662,4.549-5.998,5.998-3.311.089-6.684-.059-9.996,0v-7.997c5.307.092,10.686-.064,15.994,0Z"/>
      <path class="i" d="M855.576,1409.777h7.997c.073,2.646-.113,5.354,0,7.997h-7.997c-.03-2.65.046-5.347,0-7.997Z"/>
      <path class="g" d="M727.627,1449.761c.046-2.647-.03-5.349,0-7.997h7.997c.03,2.648-.046,5.349,0,7.997h-7.997Z"/>
      <path class="i" d="M847.579,1385.786h7.997c.03,2.65-.046,5.347,0,7.997h-7.997c-.073-2.645.113-5.355,0-7.997Z"/>
      <path class="i" d="M735.624,1419.773c-.065,1.982.038,4.014,0,5.998-1.985.032-4.014-.053-5.998,0v-5.998h5.998Z"/>
      <path class="h" d="M489.841,226.307c2.649.046,5.347-.03,7.997,0,.073,2.646-.113,5.355,0,7.997,2.643.113,5.35-.073,7.997,0,.073,2.646-.113,5.354,0,7.997,2.642.113,5.351-.073,7.997,0,.073,2.646-.113,5.355,0,7.997,2.643.113,5.35-.073,7.997,0,.073,2.646-.113,5.354,0,7.997,2.642.113,5.351-.073,7.997,0,.073,2.646-.113,5.355,0,7.997h-7.997c-.073-2.646.113-5.354,0-7.997-2.642-.113-5.351.073-7.997,0-.073-2.646.113-5.355,0-7.997-2.643-.113-5.35.073-7.997,0-.073-2.646.113-5.354,0-7.997-2.642-.113-5.351.073-7.997,0-.073-2.646.113-5.355,0-7.997-2.643-.113-5.35.073-7.997,0v-7.997Z"/>
      <path class="j" d="M465.85,212.313v5.998c-1.984-.048-4.012.026-5.998,0v-5.998h5.998Z"/>
      <path class="h" d="M761.732,628.146c5.852.004,5.603,6.68,0,7.997-2.648.016-5.35-.056-7.997,0-2.087,3.568-4.753,6.234-7.997,7.997-5.308.092-10.685-.064-15.994,0v7.997c-7.971.099-16.021-.138-23.99,0-2.087,3.568-4.753,6.234-7.997,7.997-5.307.092-10.686-.064-15.994,0-.073,2.645.113,5.356,0,7.997-12.294,6.051-27.614,5.786-39.984,0l-2.999-7.997h-4.998v-7.997c-7.974-.02-16.016.028-23.99,0-2.522,3.886-5.475,3.886-7.997,0,.772-3.864-2.767-7.668,2.999-7.997,14.856-.848,30.108.622,44.982,0v-7.997h87.965v-9.996c6.62,1.047,17.051-1.454,22.991,0,1.377.337.889,1.984,1,1.999Z"/>
      <path class="g" d="M601.796,652.137c2.65-.008,5.347-.009,7.997,0v7.997c-5.31.025-10.683-.035-15.994,0-5.852-.004-5.603-6.68,0-7.997,2.65-.019,5.347.008,7.997,0Z"/>
      <path class="h" d="M593.799,652.137v7.997c-5.31.035-10.683-.035-15.994,0v-7.997c5.311-.027,10.683.038,15.994,0Z"/>
      <path class="k" d="M585.802,604.156c-2.643-.113-5.35.073-7.997,0v-7.997h7.997c.073,2.646-.113,5.354,0,7.997,2.643.113,5.35-.073,7.997,0,.073,2.646-.113,5.354,0,7.997,2.643.113,5.35-.073,7.997,0v7.997h-7.997c-.073-2.646.113-5.354,0-7.997-2.643-.113-5.35.073-7.997,0-.073-2.646.113-5.354,0-7.997Z"/>
      <path class="d" d="M747.619,624.091c1.316.062,2.68-.044,3.998,0v7.997c-2.649.007-5.347-.016-7.997,0v-7.997c1.265.179,2.691-.062,3.998,0Z"/>
      <path class="k" d="M521.828,668.13c5.852.004,5.603,6.68,0,7.997-2.648.056-5.348-.014-7.997,0v-7.997c2.647-.036,5.35.056,7.997,0Z"/>
      <path class="g" d="M529.825,668.13v7.997c-2.649.036-5.348-.056-7.997,0v-7.997c2.646-.056,5.349.014,7.997,0Z"/>
      <path class="h" d="M593.799,218.31c-1.891,0-7.714-.283-7.997,0v7.997h-15.994v-23.99h-7.997v-15.994h7.997v7.997h7.997v7.997h7.997v7.997h7.997c.073,2.646-.113,5.355,0,7.997,1.891,0,7.714-.283,7.997,0v7.997h-7.997c-.073-2.646.113-5.355,0-7.997Z"/>
      <path class="h" d="M553.815,114.352c0,1.891.283,7.714,0,7.997h-7.997c-.036-2.65.056-5.348,0-7.997,2.648.056,5.348,0,7.997,0Z"/>
      <path class="h" d="M537.821,106.355v-7.997h7.997c.036,2.65-.056,5.348,0,7.997s-.056,5.348,0,7.997c-2.649-.056-5.347.036-7.997,0-.283-.283,0-6.106,0-7.997Z"/>
      <path class="h" d="M609.793,234.304v-7.997h7.997v7.997c-2.65.035-5.348-.056-7.997,0Z"/>
      <path class="h" d="M513.831,178.326v7.997c-2.65.03-5.348-.046-7.997,0v-7.997c2.649-.03,5.348.046,7.997,0Z"/>
      <path class="h" d="M641.78,170.329c-1.891,0-7.714.283-7.997,0v-7.997h7.997c.036,2.65-.056,5.348,0,7.997Z"/>
      <path class="g" d="M545.818,146.339c2.648.068,5.347-.044,7.997,0v7.997c-.283.283-6.106,0-7.997,0-5.848.003-5.592-6.679,0-7.997Z"/>
      <path class="h" d="M545.818,146.339v7.997h-7.997c-.014-2.649.056-5.349,0-7.997,2.65.044,5.348-.068,7.997,0Z"/>
      <path class="k" d="M529.825,130.345v7.997c-2.642-.113-5.351.073-7.997,0v-7.997h7.997Z"/>
      <path class="e" d="M617.789,114.352v7.997c-2.649,0-5.35.056-7.997,0-5.852-.004-5.603-6.68,0-7.997,2.648-.056,5.348.017,7.997,0Z"/>
      <path class="h" d="M609.793,114.352v7.997c-2.648-.056-5.348.036-7.997,0v-7.997c2.649-.036,5.348.056,7.997,0Z"/>
      <path class="g" d="M529.825,114.352c-.056,2.648,0,5.347,0,7.997h-7.997v-7.997h7.997Z"/>
      <path class="h" d="M561.812,106.355h7.997v7.997c-2.65.036-5.348-.056-7.997,0v-7.997Z"/>
      <path class="e" d="M617.789,98.358h7.997v7.997c-.283.283-6.106,0-7.997,0-5.852-.004-5.603-6.68,0-7.997Z"/>
      <path class="h" d="M617.789,98.358v7.997c-1.891,0-7.714.283-7.997,0v-7.997c.283-.283,6.106,0,7.997,0Z"/>
      <path class="h" d="M569.809,90.361c-.056,2.65.036,5.346,0,7.997h-7.997c.056-2.65-.036-5.346,0-7.997h7.997Z"/>
      <path class="h" d="M577.805,74.368v7.997c-2.649.03-5.348-.046-7.997,0-5.852-.004-5.603-6.68,0-7.997,2.65-.008,5.347.018,7.997,0Z"/>
      <path class="d" d="M481.844,186.323v7.997h-5.998v-7.997c1.985-.03,4.014.051,5.998,0Z"/>
      <path class="k" d="M537.821,74.368c.113-2.642-.073-5.351,0-7.997h7.997c.073,2.645-.113,5.355,0,7.997,7.973-.043,16.017.024,23.99,0v7.997c-7.969.138-16.02-.099-23.99,0-.073-2.645.113-5.355,0-7.997-2.649.014-5.349-.056-7.997,0-.113,2.642.073,5.351,0,7.997h-7.997v-7.997c2.649-.036,5.349.056,7.997,0Z"/>
      <rect class="h" x="335.902" y="708.114" width="7.997" height="15.994"/>
      <path class="h" d="M367.889,732.105c.039-5.31-.028-10.683,0-15.994h7.997v15.994c-2.646.073-5.355-.113-7.997,0Z"/>
      <rect class="d" x="161.972" y="686.123" width="5.998" height="5.998"/>
      <path class="i" d="M839.582,1225.85c-.039,25.061,1.414,52.194,0,76.969-.329,5.766-4.134,2.227-7.997,2.999.048-26.627-.03-53.341,0-79.968.004-5.852,6.68-5.603,7.997,0Z"/>
      <path class="i" d="M847.579,953.959c-.067,12.111.684,25,0,36.985-.329,5.766-4.135,2.227-7.997,2.999.065-12.109-.684-25.001,0-36.985.329-5.766,4.135-2.227,7.997-2.999Z"/>
      <path class="g" d="M569.809,676.127c12.25.51,24.735-.699,36.985,0,5.766.329,2.227,4.135,2.999,7.997-13.302-.016-26.682.012-39.984,0-.073-2.644.113-5.357,0-7.997Z"/>
      <path class="i" d="M847.579,1081.908c-.069,12.112.684,24.999,0,36.985-.329,5.766-4.135,2.227-7.997,2.999.013-2.654-.022-5.344,0-7.997.079-9.526-.54-19.535,0-28.988.329-5.766,4.134-2.227,7.997-2.999Z"/>
      <path class="f" d="M839.582,1193.863c-.009,10.638.016,21.349,0,31.987h-7.997c.012-10.629-.184-21.362,0-31.987.004-5.852,6.68-5.603,7.997,0Z"/>
      <path class="i" d="M839.582,1039.925h7.997c.021,5.975-.029,12.018,0,17.993h-7.997c-.021-5.974.029-12.018,0-17.993Z"/>
      <path class="f" d="M407.873,724.108c-.056,2.647.036,5.349,0,7.997h-7.997v-7.997c2.648-.068,5.348.044,7.997,0Z"/>
      <path class="d" d="M839.582,1185.866c-.002,2.654.002,5.343,0,7.997h-7.997c.046-2.648-.03-5.348,0-7.997h7.997Z"/>
      <path class="d" d="M601.796,950.018v7.997c-6.123.87-8.867-1.874-7.997-7.997h7.997Z"/>
      <path class="g" d="M641.78,668.13c13.294-.23,26.688.168,39.984,0-.113,2.641.073,5.352,0,7.997h-47.981v-7.997c2.649-.03,5.349.046,7.997,0Z"/>
      <path class="g" d="M735.624,632.088v7.997c-2.649.03-5.348-.046-7.997,0v-7.997c2.648-.036,5.349.056,7.997,0Z"/>
      <path class="k" d="M687.643,648.081v7.997c-2.649.03-5.349-.046-7.997,0v-7.997c2.649-.03,5.348.046,7.997,0Z"/>
    </g>
  </g>
</svg>