<?xml version="1.0" encoding="UTF-8"?>
<svg id="b" data-name="Layer 2" xmlns="http://www.w3.org/2000/svg" width="1131.547" height="2045.315" viewBox="0 0 1131.547 2045.315">
  <defs>
    <style>
      .d {
        fill: #477ae0;
      }

      .e {
        fill: #2c1155;
      }

      .f {
        fill: #49e7eb;
      }

      .g {
        fill: #fd4f69;
      }

      .h {
        fill: #346adb;
      }

      .i {
        fill: #7ff0ec;
      }

      .j {
        fill: #fdf6f7;
      }

      .k {
        fill: #ab1f65;
      }
    </style>
  </defs>
  <g id="c" data-name="Layer 1">
    <g>
      <path class="k" d="M377.849,282.013c3.821,3.222,4.299,7.354,4.238,11.995,5.312-.532,7.784,2.857,7.997,7.997,6.596.471,9.262,5.802,7.997,15.994,5.312-.532,7.784,2.857,7.997,7.997,5.312-.532,7.784,2.857,7.997,7.997,5.312-.532,7.784,2.857,7.997,7.997,5.312-.532,7.784,2.857,7.997,7.997,5.307-.533,7.786,2.856,7.997,7.997,5.312-.532,7.784,2.857,7.997,7.997,5.312-.532,7.784,2.857,7.997,7.997,5.312-.532,7.784,2.857,7.997,7.997,5.312-.532,7.784,2.857,7.997,7.997,5.291-.53,7.831,2.857,7.964,7.997,12.482-2.531,20.185,10.098,7.79,16.201,1.466,8.557-1.199,13.34-7.997,14.347-2.254,15.807.484,20.901,8.214,15.282,6.371,4.924,10.298,1.642,11.778-9.845,1.004-5.886,6.276-5.294,7.997,0,6.363,1.618,6.088,21.819,0,23.99,8.478,1.64,2.175,11.138-4.057,12.333.653,4.418-1.031,8.285-3.94,11.657-3.485,4.727-6.151,10.058-7.997,15.994-3.618,7.169-6.283,15.165-7.997,23.99-.421,1.002-.903,1.949-1.595,2.702-5.645,6.137-2.118,16.128,1.595-2.702,3.618-7.169,6.283-15.165,7.997-23.99,3.264-4.746,5.929-10.077,7.997-15.994,3.139-6.849,7.137-10.927,11.995-12.235-.294-9.644,13.114-10.896,15.994-2.229.604-4.048,4.364-5.994,8.237-5.528-1.875-13.009-.622-25.004,3.759-35.986l7.997-7.997c-5.041-2.943-5.048-5.054,0-7.997,1.28-3.504,5.278-5.109,11.995-4.816l.226-26.592c10.432-9.434,27.284-6.395,24.004,11.416,8.365-.333,8.098,6.462,7.757,13.09,1.102-3.945,4.277-5.026,7.997-5.446-1.64-9.872,1.026-15.166,7.997-15.881.57-6.818,5.986-9.404,16.246-7.757-.516-4.373,1.626-8.333,3.746-11.995-4.934-8.809-4.962-17.19,0-25.99-5.718-.129-5.463-4.646,0-5.998,4.738-1.918,10.196-2.417,10.324,3.67,6.208,2.679,13.004,3.788,20.389,3.327l1.274,1v5.998c2.686.767,5.352,1.434,7.997,1.999v7.997h7.997v5.998c3.096,1.513,5.762,4.845,7.997,9.996,3.481,1.225,6.147,3.891,7.997,7.997.068,1.983-.029,4.012,0,5.998,3.085,3.246,5.75,6.578,7.997,9.996.029,1.986-.029,4.011,0,5.998,3.086,3.245,5.752,6.577,7.997,9.996-.517,1.1.312,4.225,0,5.998,2.686.767,5.352,1.434,7.997,1.999v12.995l2.999,2.999h4.998v12.995l2.999,2.999h4.998v12.995l2.999,2.999h4.998v5.998c3.136,1.989,5.801,5.321,7.997,9.996-.441.939.112,4.184,0,5.998,3.137,2.875,5.803,6.207,7.997,9.996.029,1.986-.029,4.011,0,5.998,3.086,3.245,5.752,6.577,7.997,9.996-.517,1.1.312,4.225,0,5.998,2.686.767,5.352,1.434,7.997,1.999v23.99c-8.251,3.994-17.581,5.407-27.989,4.238.532,5.313-2.859,7.785-7.997,7.997.534,5.307-2.858,7.786-7.997,7.997.532,5.313-2.859,7.785-7.997,7.997.532,5.313-2.859,7.785-7.997,7.997.534,5.307-2.858,7.786-7.997,7.997-.743,4.675-4.742,8.593-11.995,11.755-.83,3.18-3.496,5.846-7.997,7.997,7.571,3.985,4.162,11.355-3.998,12.559v14.176c5.305,1.388,8.051,4.472,8.237,9.251,9.388-1.18,10.947,17.049,3.759,19.992-1.891,0-7.714-.283-7.997,0v7.997h-7.997v7.997h-7.997v7.997h-15.994v7.997c-5.309-.064-10.685.092-15.994,0-6.853-2.666-6.509-27.757,2.815-27.989.656-4.933,2.384-8.931,5.182-11.995q4.05-5.585,0,0c.077,1.63-.295,3.82-1.53,3.998-16.083,2.326-15.167-29.941,5.528-24.23,1.109-1.307,7.052-11.598,2.314-9.137-2.117-8.686-10.138-10.087-11.691-.934-13.954,9.528-20.09-10.834-10.615-17.678l-2.279,3.998c-6.326,1.188-27.039,1.753-29.708-3.998,3.919,7.933,3.942,16.065,0,23.99,3.895,2.525,3.901,5.478,0,7.997,2.518-3.948,5.479-3.948,7.997,0,10.852-13.671,15.571,11.178,10.56,17.839-1.129,1.501-8.256,5.276-10.56,6.152-1.891,0-7.714-.283-7.997,0-.031,7.974.043,16.017,0,23.99,5.074,2.918,5.082,5.081,0,7.997l-7.997,7.997c7.205,11.923,6.829,45.16-7.997,31.987-5.852-.004-5.603-6.68,0-7.997-5.852-.004-5.603-6.68,0-7.997-5.852-.004-5.603-6.68,0-7.997-3.939-7.932-3.962-16.066,0-23.99-5.549-8.959-6.603-19.768,4.238-19.992-1.037-4.45.78-8.526,3.759-11.995,3.485-4.727,6.15-10.058,7.997-15.994-3.414,4.301-6.079,9.632-7.997,15.994-3.124,3.269-4.349,5.871-5.61,10.145-2.954,3.074-33.361,4.964-30.616-6.147-7.446-1.945-10.031-9.523-7.757-22.736-1.585-1.201-2.917-2.952-3.998-5.252,1.554.425,3.862,1.071,3.998,2.292.526,4.714.527,34.435-1.333,36.369-.647.673-1.611,1.042-2.666,1.324-2.918,4.131-5.583,9.462-7.997,15.994-.497,2.124-4.782,6.667-5.234,6.431-4.131-2.16,4.13-4.973,5.234,1.566,3.889,2.523,3.891,5.475,0,7.997,6.123.805,5.849,14.67,0,15.994-1.606,6.832-17.872,5.373-19.992-1.026,1.009,4.966-.323,7.973-3.998,9.022-7.801,5.482-16.222,5.554-23.99,0-7.003,9.936-17.918-2.115-7.997-7.997-3.094-2.964-4.67-2.126-7.997,0-2.946,5.04-5.051,5.034-7.997,0l-4.007,4.006c-.167,8.37-7.498,11.148-11.987,3.991-4.49,5.692-11.435,5.563-15.994,0-5.06-2.94-5.048-5.056,0-7.997-3.382-2.083-6.047-4.748-7.997-7.997-5.074-2.935-5.061-5.06,0-7.997-12.426-6.126-15.091-11.457-7.997-15.994-3.948-2.518-3.948-5.479,0-7.997,1.265-1.031,2.565-1.991,3.989-2.707,5.385-2.706,21.604-2.189,16.352-1.354-4.76.757-9.026-.182-12.344-3.936l-3.998-2.182-.24-17.81c-5.384.54-7.624-2.857-8.11-7.997-5.163-1.298-8.986,1.193-11.469,7.473l-12.169.764c-.337,6.682-5.34,9.268-15.012,7.757-.418,4.973-2.078,8.971-4.98,11.995-3.23,9.676-20.713,1.482-9.996-7.997-5.678-1.273-5.825-6.581,0-7.997-2.93-4.396-3.047-10.712,5.998-12.235,1.845-6.597,7.176-9.263,15.994-7.997l1.856-6.161c7.372-.38,13.417-2.245,18.136-5.594,6.598-6.826-3.353-4.705-7.997,0-3.655,2.405-7.735,3.649-11.995,4.238.486,6.786-4.196,7.969-9.996,7.997-1.429,4.721-15.031,18.732-19.992,11.755-4.041-8.894-4.243-18.432-4.238-27.989-3.243.212-6.099-.674-7.258-3.89l-.499-27.983c-2.436.091-3.505-1.865-3.998-4.112-3.606-2.566-6.271-2.566-7.997,0,5.062,2.937,5.074,5.062,0,7.997-1.575,2.999-4.24,5.664-7.997,7.997,1.946-3.252,4.612-5.918,7.997-7.997,8.631-15.126,16.619,11.123,10.648,17.963-2.803,3.211-18.254,4.305-18.645-1.969-5.073-2.92-5.081-5.079,0-7.997-1.95,3.247-4.616,5.913-7.997,7.997,5.403,5.138,5.458,10.881,0,15.994,3.89,2.526,3.898,5.479,0,7.997,11.687,21.049-7.444,25.096-23.99,15.994-2.649-.046-5.347.03-7.997,0v-7.997h-7.997c-3.908-5.252-3.911-10.744,0-15.994.614-3.186,3.279-5.851,7.997-7.997-3.842-2.525-3.842-5.472,0-7.997-3.381-2.083-6.047-4.749-7.997-7.997-3.381-2.083-6.047-4.749-7.997-7.997-3.557,7.632-12.039,3.775-12.348-3.998-9.277,1.875-15.824-2.124-19.639-11.995-3.18-.83-5.846-3.496-7.997-7.997-3.313-1.939-6.115-4.753-7.997-7.997-4.591,7.463-9.922,4.797-15.994-7.997-2.937,5.061-5.062,5.074-7.997,0-9.219,10.323-13.438-1.446-11.995-11.013l-3.998-4.98c-3.815-1.155-5.228-5.153-4.238-11.995-5.384.54-7.624-2.857-8.11-7.997-9.9,1.69-22.475-3.318-11.643-11.995-6.933,9.897-16.833-1.251-9.55-8.996,7.578-8.06,19.987,1.82,9.55,8.996l7.984-3.959c17.33,2.183,14.591-4.771,4.715-13.233,1.059-7.551-4.969-16.541-10.323-18.75-.531-.219-.949-.685-1.282-1.252-.5-.85-.822-1.805-1.094-2.79.08-2.646-.039-5.349,0-7.997,1.496-3.462,4.162-6.794,7.997-9.996.06-4.645-.06-9.35,0-13.994,1.496-3.462,4.162-6.794,7.997-9.996.091-7.306-.065-14.685,0-21.991h7.997c.047-5.31-.066-10.684,0-15.994,1.496-3.462,4.162-6.794,7.997-9.996.06-4.645-.06-9.35,0-13.994,1.496-3.462,4.162-6.794,7.997-9.996.06-4.644-.042-9.35,0-13.994h7.997v-15.994h7.997v-7.997c1.033-1.033,19.066.959,22.991,0,1.364-.333.898-1.952,1-1.999.3-3.516,1.134-5.828,2.503-6.936l28.842-.052,1.121-3.008c6.656,1.175,11.828-.158,15.515-3.998,10.149-1.117,20.771-1.451,31.867-1,2.872-2.525,6.244-4.857,10.116-6.997,8.592-2.225,17.665-3.558,27.221-3.998l2.767,3.998c-4.043,1.862-5.248-6.213-3.712-7.662,2.961-2.793,31.942-1.455,37.698-.335Z"/>
      <path class="e" d="M633.747,937.751c-.046-4.752-2.045-7.418-5.998-7.997-.079-.079-1.68.337-1.999-1-1.742-7.295.041-27.796,0-36.985-1.795-3.357-4.461-6.022-7.997-7.997,4.073-1.874,3.324-7.827,0-9.996.875-1.861.061-25.127,0-29.988-4.333-2.401-6.998-5.733-7.997-9.996.418-.889-.046-4.226,0-5.998-.004-1.339-.824-1.736-1.999-1.999l-2.555-3.99c-4.322.447-8.135-.889-11.439-4.007,2.04-.397,3.156-1.377,3.679-2.455,1.342,1.314,3.054,2.569,4.318,2.455,2.917,5.083,5.082,5.09,7.997,0,3.925-2.517,3.919-5.474,0-7.997-.018-2.65.056-5.348,0-7.997-1.763-3.244-4.429-5.91-7.997-7.997-.055-2.648.016-5.347,0-7.997-7.016-12.226-12.348-14.891-15.994-7.997-2.534,10.448-4.261,19.778-5.182,27.989-.952-7.94-1.224-16.51-.816-25.709l-3.998-2.279c-1.881-1.662-1.215-4.327,1.999-7.997,5.849-1.324,6.123-15.188,0-15.994,5.597-1.319,5.852-7.997,0-7.997-2.153-4.501-4.818-7.167-7.997-7.997-5.255-3.903-10.748-3.919-15.994,0-5.302,10.514-5.302,21.474,0,31.987l-7.997,7.997c-2.943-5.042-5.054-5.049-7.997,0-2.525-3.887-5.477-3.892-7.997,0-5.251-3.909-10.743-3.91-15.994,0-10.278-4.004-19.808-3.918-30.4-2.657.721-.1,5.983-1.048-1.587-5.339-5.533-5.006-10.483-5.048-15.994,0-4.718,2.146-7.383,4.812-7.997,7.997-4.076,5.546-5.329,12.209-3.759,19.992-7.117.15-9.862,5.364-8.237,15.641-3.639.42-6.793,1.444-7.957,5.302l-.04,20.337c-6.706,1.372-9.481,6.828-8.325,16.369-6.449,1.03-9.114,6.361-7.997,15.994l-6.203,2.408c.076,7.576-1.745,13.546-5.464,17.912-10.369,5.412-13.494,7.866-11.995,19.639-5.119.48-8.539,2.718-7.997,8.11-7.444.454-11.608,6.827-3.998,10.236-4.063,2.953-6.729,6.285-7.997,9.996-7.426,3.067-11.424,6.986-11.995,11.755-5.14.213-8.528,2.685-7.997,7.997-5.807.028-10.482,1.216-9.996,7.997-5.14.212-8.528,2.685-7.997,7.997l-20.149.757c-4.223,9.545-10.286,8.726-19.835,6.479,7.013-1.894,9.678-7.44,7.997-16.641,6.987-.916,9.653-6.247,7.997-15.994,5.12-.48,8.539-2.718,7.997-8.109,5.14-.212,8.528-2.685,7.997-7.997,5.14-.212,8.528-2.684,7.997-7.997,5.14-.212,8.528-2.685,7.997-7.997,5.14-.212,8.528-2.684,7.997-7.997,8.417.468,11.749-4.825,9.996-15.881,5.14-.486,8.537-2.726,7.997-8.109,7.814-.044,11.598-8.761,3.998-12.235,7.251-3.161,11.25-7.08,11.995-11.756,6.971-.714,9.636-6.008,7.997-15.881,6.987-.915,9.653-6.247,7.997-15.993,6.987-.916,9.653-6.247,7.997-15.994,7.72-2.457,10.385-10.383,7.997-23.779,19.563-7.896.158-23.396-10.176-14.512,3.818-6.092,4.04-21.857.269-27.945,7.127,4.588,26.811,3.41,25.901-5.848l3.998-4.238c5.604-1.317,5.852-7.993,0-7.997-5.304.092-10.695-.179-15.994,0-1.602-5.086-3.346-5.375-3.998,0-9.908,1.752-20.112,1.729-30.612-.069-1.016,3.088-2.807,5.777-5.374,8.066-10.153-10.499-28.566,1.144-15.994,7.997,7.336,5.664,16.807,5.757,23.99,0-5.519,3.484-6.374,22.96-2.101,29.889-7.131-4.573-26.782-3.403-25.888,5.857-11.176-1.255-21.172.157-29.988,4.238-5.023-6.858-10.354-4.193-15.994,7.997-5.603,1.317-5.852,7.993,0,7.997-8.799.168-14.13,2.834-15.994,7.997-5.094,2.928-5.085,5.067,0,7.997-3.897,2.519-3.889,5.471,0,7.997-5.693,5.865-5.56,14.066,0,19.992-3.987,1.067-4.108,3.822,0,3.999-2.373,1.887-5.732,1.762-6.046-1.999l-1.951,3.999c0,18.63.032,37.347,0,55.978-3.893,2.521-3.89,5.473,0,7.997l-2.673,7.993c-.235,6.609-2.01,11.942-5.324,15.998-.022,12.637.03,25.348,0,37.985-4.975,11.433-4.923,22.541,0,33.986l-3.974,6.154.122,27.651c-1.359,1.719-2.741,3.779-4.145,6.18-.05,23.007-2.765,56.405,0,77.969-1.223,2.264-2.11,4.345-2.683,6.252.093.619.157,1.258.157,1.939v6.83c.574,1.137,1.412,2.13,2.526,2.971,2.828,6.774,26.611,2.631,27.989-4.189,42.027.717,84.087.637,125.95-3.808,5.557-5.09,5.488-10.872,0-15.994,3.894-2.52,3.889-5.472,0-7.997,2.065-7.45,4.731-13.447,7.997-17.993,3.931-7.252,3.905-14.729,0-21.991,3.888-2.517,3.876-5.469,0-7.997,2.542-3.643,5.455-3.643,7.997,0-3.876,2.528-3.887,5.48,0,7.997-4.879,21.343-4.94,42.639,0,63.975,26.634,4.953,53.338,4.993,79.968,0,22.519,5.526,46.154,5.923,68.754.76v-5.557c0-4.355,1.992-7.418,4.795-9.212-.455-.654-.979-1.314-1.578-1.985,3.836-3.202,6.501-6.534,7.997-9.996,0-9.971-.025-20.017,0-29.988,4.967-5.502,4.975-10.42,0-15.994,3.836-3.201,6.502-6.533,7.997-9.996.025-9.972-.044-20.017,0-29.988,3.887-2.517,3.876-5.468,0-7.997,3.836-3.201,6.502-6.533,7.997-9.996.068-15.297-.191-30.688,0-45.981,3.835-3.202,6.501-6.534,7.997-9.996.066-5.301.092-10.694,0-15.994Z"/>
      <path class="e" d="M545.782,729.834c-2.92-5.085-5.075-5.077-7.997,0-2.519-3.9-5.472-3.895-7.997,0-7.926-3.939-16.058-3.921-23.99,0-7.969-.015-16.025.138-23.99,0-5.604,1.317-5.852,7.993,0,7.997,2.518,3.902,5.472,3.896,7.997,0,5.247,3.932,10.741,3.922,15.994,0,2.521,3.895,5.474,3.894,7.997,0,10.611,3.938,21.377,3.94,31.987,0,2.523,3.894,5.476,3.895,7.997,0,9.559-6.89-1.104-17.556-7.997-7.997Z"/>
      <path class="e" d="M417.833,1219.638c-2.523-3.893-5.476-3.894-7.997,0-44.116-4.713-88.35-4.911-132.474-.551v11.558c0,6.238-4.076,9.836-8.794,10.821-1.027,14.045.086,28.086,3.323,42.146-3.931,5.248-3.922,10.741,0,15.994-3.922,5.248-3.912,10.74,0,15.994l-2.673,7.993c-.235,6.609-2.01,11.942-5.324,15.998-6.183,22.751-5.846,49.138,0,71.971-4.718,2.146-7.384,4.812-7.997,7.997-5.093,2.929-5.084,5.066,0,7.997-3.911,2.521-3.911,5.476,0,7.997-5.084,2.931-5.093,5.068,0,7.997,1.763,3.244,4.429,5.91,7.997,7.997-5.381,8.541-5.44,17.552,0,25.99,6.346,4.576,5.758,34.531,2.29,35.926-1.466.59-2.032,2.375-2.29,4.058-4.906,31.926-4.924,64.037,0,95.962-3.926,7.927-3.91,16.058,0,23.99l-2.673,7.993c-.235,6.609-2.01,11.942-5.324,15.998-5.002,10.114-4.961,19.862,0,29.988-1.711.951-1.783,1.629,0,1.999-3.892,2.519-3.885,5.472,0,7.997-2.412,6.532-5.078,11.864-7.997,15.994-5.817,10.022-5.918,22.005,0,31.987,1.85,4.104,4.516,6.77,7.997,7.997.837,1.929,1.944,3.793,3.999,4.158-.814,13.02-.188,25.765,1.878,38.233,6.828,1.775,14.011,2.305,21.549,1.591-.219,8.656,2.419,22.972,12.559,11.995,15.24,4.833,42.12,6.898,57.538,2.645.884-.244,2.453-4.556,2.438-6.403,7.687,1.133,12.351-.28,13.994-4.238.056-2.647-.036-5.349,0-7.997h7.997v-7.997h7.997v-7.997h7.997v-14.994l-2.999-2.999h-4.998c.057-28.626-.077-57.34,0-85.966,3.944-10.607,3.915-21.373,0-31.987l2.672-8.659c-.25-8.35,2.052-12.438,5.325-17.331.109-41.949.064-84,0-125.95-3.908-6.221-6.574-14.218-7.997-23.991,3.893-3.209,3.889-6.783,0-9.996.035-5.31-.025-10.684,0-15.994h7.997v-15.994h-7.997v-7.997c2.645-.073,5.355.113,7.997,0,4.106-1.85,6.771-4.516,7.997-7.997v-7.997h-7.997c.237-18.625-.323-37.357,0-55.978,4.718-2.146,7.383-4.812,7.997-7.997.184-10.63-.057-21.354,0-31.987,5.048-2.943,5.041-5.053,0-7.997,4.718-2.146,7.383-4.811,7.997-7.997.057-10.638-.057-21.35,0-31.987,5.048-2.943,5.041-5.053,0-7.997,4.718-2.146,7.383-4.811,7.997-7.997.043-7.974-.031-16.016,0-23.99Z"/>
      <path class="e" d="M529.788,1171.657l4.351,3.998c15.204-3.506,23.325,11.496,7.644,16.233-.57,4.769-4.568,8.687-11.995,11.755,3.822,3.22,4.273,7.361,4.267,11.995h48.788c9.937,2.141,7.841,11.653,2.922,19.992,3.902,2.518,3.896,5.472,0,7.997.03,10.635.057,21.352,0,31.987-.614,3.186-3.279,5.851-7.997,7.997,5.041,2.943,5.049,5.054,0,7.997-.172,31.956.078,64.005,0,95.962,3.893,2.524,3.897,5.477,0,7.997,3.889,2.524,3.892,5.476,0,7.997,3.894,2.523,3.896,5.476,0,7.997-2.026,3.53-4.692,6.195-7.997,7.997,3.487,1.655,6.153,4.321,7.997,7.997-.018,2.648.056,5.35,0,7.997-.614,3.186-3.279,5.851-7.997,7.997-.056,2.649.056,5.347,0,7.997-.613,3.185-3.279,5.851-7.997,7.997-.092,5.304.015,10.688,0,15.994,5.361,48.54,5.494,97.408,0,145.942-.021,55.946.016,111.987,0,167.933h-23.99v23.99h-15.994c-.036,2.647.056,5.35,0,7.997-.129,5.718-4.646,5.463-5.998,0-16.968,3.385-34.126,5.257-51.338,2.665-2.444-4.756-7.323-8.31-14.635-10.662-2.648-.046-5.348.03-7.997,0v-7.997h-15.994v-7.997h-7.997v-25.99h7.997v-21.991h-7.997c.064-5.308-.092-10.686,0-15.994.613-3.185,3.279-5.851,7.997-7.997.092-5.306-.016-10.685,0-15.994,3.188-4.651,5.569-8.639,7.997-15.994-3.9-5.256-3.919-10.748,0-15.994.027-15.968-.014-32.013,0-47.981,3.314-4.056,5.088-9.388,5.324-15.998l2.673-7.993c-3.915-8.605-3.943-17.394,0-25.99.082-23.294-.065-46.678,0-69.972,3.188-4.651,5.57-8.639,7.997-15.994-3.896-3.215-3.905-6.789,0-9.996.032-13.293-.23-26.695,0-39.984.613-3.185,3.279-5.851,7.997-7.997.092-5.307-.064-10.686,0-15.994h-7.997v-23.99h-7.997c-.036-2.648.056-5.35,0-7.997-3.948-2.518-3.948-5.479,0-7.997.056-2.647-.036-5.349,0-7.997,2.645-.073,5.356.113,7.997,0l3.906-5.416.741-77.807c1.524-11.083-.024-20.661-4.647-28.732-.02-13.302.017-26.682,0-39.984,2.521-3.894,5.474-3.893,7.997,0,11.841-2.83,23.895-5.04,35.986-3.171-1.307-6.735.025-11.009,3.998-12.823.775-1.987,2.019-3.607,3.998-4.351-1.656-9.748,1.01-15.079,7.997-15.994-1.224-6.236.109-10.117,3.998-11.643,5.249-3.924,10.742-3.921,15.994,0Z"/>
      <path class="j" d="M905.638,465.939c8.497-3.589,13.041.409,13.631,11.995l2.363,3.998c5.649,6.207,5.788,17.855,0,23.99,3.568,2.087,6.234,4.753,7.997,7.997,5.074,2.935,5.061,5.06,0,7.997l4.238,3.998c6.598.476,9.264,5.808,7.997,15.994,6.596.469,9.261,5.801,7.997,15.994,7.393-1.035,11.499,9.816,3.759,11.995,0,1.891.283,7.714,0,7.997h-15.994v7.997c-2.646.073-5.355-.113-7.997,0-2.026,3.53-4.692,6.195-7.997,7.997-2.649.056-5.347-.056-7.997,0-2.087,3.568-4.753,6.234-7.997,7.997-2.643.113-5.351-.073-7.997,0v7.997h-7.997v7.997c-5.31.064-10.685-.092-15.994,0-2.087,3.568-4.753,6.234-7.997,7.997-2.643.113-5.351-.073-7.997,0v7.997h-15.994v7.997c-2.646.073-5.354-.113-7.997,0-2.026,3.53-4.692,6.195-7.997,7.997-2.649.056-5.348-.056-7.997,0-2.083,3.381-4.749,6.047-7.997,7.997-.113,2.643.073,5.351,0,7.997-5.31.064-10.685-.092-15.994,0-2.087,3.568-4.753,6.234-7.997,7.997-2.649.056-5.347-.056-7.997,0-2.087,3.568-4.753,6.234-7.997,7.997-2.642.113-5.351-.073-7.997,0v7.997h-15.994v7.997h-23.99v-7.997c-2.646-.073-5.355.113-7.997,0-3.481-1.227-6.147-3.892-7.997-7.997-.113-2.642.073-5.351,0-7.997h-7.997v-7.997h-7.997v-15.994h-7.997v-7.997h-7.997v-23.99h7.997c.073-2.646-.113-5.355,0-7.997.83-3.18,3.496-5.846,7.997-7.997.113-2.642-.073-5.351,0-7.997h7.997v-7.997h7.997v-7.997h7.997v-7.997h7.997v-7.997h7.997v-7.997h7.997v-7.997c10.635.134,21.355-.184,31.987,0,2.649.046,5.347-.03,7.997,0v7.997c-1.763,2.53-2.07,2.994-1.399,4.02,2.13,3.259-8.681,2.595,1.399-4.02,2.642-.113,5.351.073,7.997,0v-7.997c2.646-.073,5.354.113,7.997,0,1.882-3.244,4.684-6.058,7.997-7.997,2.617-4.911,7.282-7.577,13.994-7.997.666-.008,1.333.014,1.999,0,2.912-6.569,8.243-9.901,15.994-9.996v-5.998h7.997v-7.997h15.994v-7.997c7.277-1.213,10.852-3.63,14.877-8.996,7.905.399,14.119-3.266,18.64-10.996l2.469-.24c.281-3.57,4.279-5.489,11.995-5.758v-5.998Z"/>
      <path class="e" d="M369.852,1813.4c.056,2.647-.036,5.349,0,7.997h7.997c.025,5.309-.035,10.684,0,15.994,5.459,5.112,5.403,10.856,0,15.994,3.568,2.087,6.234,4.753,7.997,7.997.016,2.65-.056,5.349,0,7.997,3.568,2.087,6.234,4.753,7.997,7.997.092,5.308-.032,10.684,0,15.994,5.049,2.943,5.042,5.053,0,7.997,3.568,2.087,6.234,4.753,7.997,7.997.057,10.635-.042,21.352,0,31.987h6.997l1,1.999c-.77,2.396-2.769,4.395-5.998,5.998,2.687,4.356,3.895,11.398-5.998,12.235-.473,6.597-5.804,9.263-15.994,7.997-.966,10.413-12.342,9.698-19.992,3.759-3.246,3.084-6.578,5.75-9.996,7.997-1.822,3.876-4.166,3.867-5.998,0-3.245,3.086-6.577,5.751-9.996,7.997-2.122,3.512-4.787,6.177-7.997,7.997-.004,5.852-6.68,5.603-7.997,0-.004,5.842-6.685,5.602-7.997,0-7.974,0-16.017.043-23.99,0-3.186-.614-5.851-3.279-7.997-7.997-2.944,5.042-5.054,5.049-7.997,0-5.31-.032-10.686.092-15.994,0-3.185-.613-5.851-3.279-7.997-7.997-5.309-.092-10.685.092-15.994,0-3.185-.613-5.851-3.279-7.997-7.997-5.309-.092-10.685.092-15.994,0-5.852-.004-5.603-6.68,0-7.997-5.095-2.927-5.101-5.072,0-7.997.059-4.058,4.682-6.505,8.747-7.247.493-3.88,3.63-7.154,7.247-8.747,2.935-5.074,5.06-5.061,7.997,0,2.087-3.568,4.753-6.234,7.997-7.997,2.935-5.074,5.06-5.061,7.997,0l7.997-7.997c-5.061-2.937-5.074-5.061,0-7.997.614-3.186,3.279-5.851,7.997-7.997-5.061-2.937-5.074-5.061,0-7.997.83-3.18,3.496-5.846,7.997-7.997,1.95-3.248,4.615-5.913,7.997-7.997-5.061-2.937-5.074-5.061,0-7.997.567-1.746,1.235-1.72,1.999,0,.498-2.446,2.497-4.445,5.998-5.998-1.775-.371-1.702-1.049,0-1.999-6.119-12.722-4.593-27.721-2.663-41.402,3.757-1.892,7.31-4.085,10.66-6.579-.602-5.842,29.533-4.789,30.978-3.961,7.701,9.769,9.95,12.481,16.846.481l13.048-.518c3.545-4.73,8.801-9.687,13.099-3.998Z"/>
      <path class="e" d="M449.82,1829.394c5.783-5.824,16.867-6.316,19.992,1.53l2.555-4.191c14.593-2.585,29.124-.746,43.426,2.661.129-5.718,4.646-5.463,5.998,0,.056,2.646-.036,5.35,0,7.997h7.997c.031,7.971-.043,16.02,0,23.99,5.049,2.943,5.042,5.054,0,7.997,3.568,2.087,6.234,4.752,7.997,7.997.032,5.305.092,10.69,0,15.994-2.946,5.034-5.051,5.04-7.997,0-2.946,5.04-5.051,5.034-7.997,0-2.924,2.583-2.924,5.414,0,7.997,2.525-3.842,5.472-3.842,7.997,0l7.997-7.997c2.649.056,5.347-.036,7.997,0,.073,2.646-.113,5.354,0,7.997,3.53,2.026,6.195,4.692,7.997,7.997.092,5.308-.064,10.685,0,15.994h15.994v7.997c2.645.073,5.355-.113,7.997,0,3.18.83,5.846,3.496,7.997,7.997,3.313,1.939,6.115,4.753,7.997,7.997,3.529,2.028,6.195,4.693,7.997,7.997.184,10.632-.134,21.353,0,31.987h6.997l1,1.999c-1.356,2.063-1.356,4.062,0,5.998.065,2.647-.016,5.348,0,7.997l-2.182,3.998c-9.277-1.45-16.547-.117-21.808,3.998-.182,1.564-.698,3.915-1.808,3.998-14.313,1.079-36.913,1.058-51.247,0l-2.922-3.998c-2.046.011-3.79-1.321-5.232-3.998l-25.775-.038c-3.875-1.151-4.91-4.311-5.33-7.958-9.873,1.64-15.166-1.026-15.881-7.997-5.391.542-7.629-2.876-8.11-7.997-9.561,1.669-14.962-.997-16.205-7.997-14.631,2.742-23.773-1.256-27.425-11.995.048-7.972-.014-16.018,0-23.99,3.314-4.056,5.088-9.388,5.324-15.997l2.673-7.993c-3.892-2.524-3.897-5.477,0-7.997.03-7.97-.138-16.024,0-23.99.613-3.185,3.279-5.851,7.997-7.997.138-7.966-.024-16.021,0-23.99-3.896-2.524-3.902-5.478,0-7.997.035-5.31-.025-10.684,0-15.994,2.649-.03,5.348.046,7.997,0Z"/>
      <path class="j" d="M393.842,226.035c.753-2.067,4.643-9.444,5.661-10.207,2.404-1.804,47.109-2.955,49.28-1.752,3.63,2.009,5.491,3.49,5.039,7.961h23.218l2.767,3.998c.37-1.784,1.048-1.711,1.999,0,3.479,1.227,6.145,3.892,7.997,7.997.01,1.986-.012,4.011,0,5.998,1.729,7.024,4.395,13.022,7.997,17.993.049,9.971-.035,20.017,0,29.988,2.664.727,5.33,1.393,7.997,1.999,5.965,22.422,6.36,47.637,0,69.972-1.496,3.462-4.162,6.794-7.997,9.996,4.966,4.895,4.987,9.108,0,13.994-1.691,3.486-4.357,6.818-7.997,9.996,3.606,1.747,6.271,3.746,7.997,5.998.696-2.554,3.362-4.553,7.997-5.998-5.562-2.52-2.896-5.185,7.997-7.997,6.188-.669,10.526-3.194,13.014-7.577,5.869-.16,9.642-1.632,11.319-4.419,17.553-1.53,12.644,21.186,7.654,35.986-.014,2.649.056,5.35,0,7.997-.613,3.185-3.279,5.851-7.997,7.997-3.092,3.911-7.487,4.216-11.995,4.351,1.656,9.746-1.009,15.077-7.997,15.994,2.118,10.112-4.318,22.712-11.995,11.643v-23.99c-5.557-1.889-2.892-4.555,7.997-7.997l-3.935-6.843c.91-10.486-.444-13.536-4.062-9.151-3.519,4.272-5.291,10.271-5.316,17.997l-2.681,5.993c-.032,5.311.022,10.683,0,15.994-2.86-.328-6.323.495-8.996,0-.74-.137-1.178-1.75-1.999-1.999-3.91-1.188-5.346,1.865-5.998,1.999-2.042.42-4.762-.266-6.997,0v-25.99h7.997v-13.994h5.998v-7.997h-13.994v-7.997h-7.997v-7.997h-7.997v-7.997h-7.997v-7.997h-7.997v-7.997h-7.997v-7.997h-7.997v-7.997h-7.997v-7.997h-7.997v-7.997h-7.997v-7.997h-7.997v-15.994h-7.997v-7.997h-7.997c.054-5.31-.077-10.685,0-15.994-1.785-.37-1.712-1.048,0-1.999.065-1.983-.038-4.013,0-5.998h4.998l2.999-2.999c.025-6.997-.035-14.016,0-20.992,3.266-4.545,5.932-10.543,7.997-17.993.011-1.986-.006-4.012,0-5.998Z"/>
      <path class="h" d="M449.82,80.094c-12.659-10.228,10.176-19.342,12.559-3.998,8.251,1.351,14.727.018,19.428-3.998l2.292-3.998h34.831l2.862,3.998c-11.453-3.744,2.075-17.681,10.138-10.389,3.345,3.025,3.802,23.844-4.956,22.384-.69,4.883-2.418,8.881-5.182,11.995,3.568,2.087,6.234,4.753,7.997,7.997,10.61,3.114-1.192,19.339-7.997,7.997-3.4,2.874-3.4,5.54,0,7.997,2.946-5.034,5.051-5.04,7.997,0-.106,23.959.143,48.012,0,71.971-2.32,5.246-4.986,10.577-7.997,15.994-.123,4.971.086,9.999,0,14.994l-2.999,2.999c-9.66.085-19.352-.118-28.988,0-2.982-7.468-6.314-7.468-9.996,0h-29.988v-7.997h-47.981v4.998l-7.997,2.999c.019-5.974-.103-12.021,0-17.993.614-3.186,3.279-5.851,7.997-7.997.056-2.648-.056-5.348,0-7.997-4.261-2.272-5.27-5.449-2.648-9.542,17.687-10.248-.029-11.755-12.398-10.49-3.8-1.182-5.015-4.282-5.186-7.957-10.405-.962-9.704-12.362-3.759-19.992-3.906-2.519-3.901-5.473,0-7.997-.004,5.852-6.68,5.603-7.997,0-10.456-3.627.511-18.772,7.997-7.997,5.852.004,5.603,6.68,0,7.997,1.656-3.487,4.321-6.153,7.997-7.997,3.12-7.059,7.118-11.137,11.995-12.235-.571-5.523,2.918-7.344,7.997-8.321-.71-7.525-.185-14.702,1.577-21.53,6.957-2,14.428-2.713,22.413-2.136.247-8.25,7.693-10.804,11.995-3.759,3.391,2.38,6.056,2.38,7.997,0Z"/>
      <path class="e" d="M425.83,8.122c2.921-5.085,5.074-5.077,7.997,0,2.519-3.902,5.472-3.896,7.997,0,3.094,2.964,4.67,2.126,7.997,0,5.311-.01,10.683-.01,15.994,0,2.523-3.894,5.476-3.897,7.997,0,2.524-3.896,5.478-3.902,7.997,0,2.649.018,5.349-.056,7.997,0,3.481,1.226,6.147,3.892,7.997,7.997.113,2.642-.073,5.351,0,7.997,5.309.064,10.685-.092,15.994,0,3.481,1.226,6.147,3.892,7.997,7.997.113,2.642-.073,5.351,0,7.997,2.646.073,5.355-.113,7.997,0,3.18.83,5.846,3.496,7.997,7.997,2.583,5.811,5.249,11.142,7.997,15.994.019,2.65-.009,5.346,0,7.997,3.897,2.52,3.894,5.473,0,7.997.005,2.651.005,5.346,0,7.997,3.924,5.255,3.941,10.749,0,15.994-.016,2.65.056,5.349,0,7.997-1.226,3.481-3.892,6.147-7.997,7.997-2.647.056-5.348,0-7.997,0s-5.349.056-7.997,0c-5.852-.004-5.603-6.68,0-7.997,2.642-.113,5.351.073,7.997,0v-7.997c-3.487-1.655-6.153-4.321-7.997-7.997-.092-5.308.064-10.685,0-15.994h7.997v-15.994h-7.997v7.997h-39.984v7.997h-23.99v-7.997h-7.997c-.073,2.645.113,5.355,0,7.997-2.94,5.06-5.056,5.049-7.997,0-2.647.068-5.348-.044-7.997,0v7.997h-23.99v23.99h-7.997v7.997h-7.997v7.997c-2.649.036-5.348-.056-7.997,0-2.935,5.074-5.06,5.062-7.997,0-2.648.056-5.348-.036-7.997,0-.283.283,0,6.106,0,7.997,3.481,1.226,6.146,3.891,7.997,7.997.039,5.31-.028,10.683,0,15.994h7.997v7.997h23.99v15.994h-7.997c-.036,2.649.056,5.349,0,7.997h-15.994c-3.361.219-4.507-1.136-3.998-4.238-6.493,1.349-10.491.096-11.995-3.759-.004,5.843-6.684,5.602-7.997,0-.092-5.307.064-10.685,0-15.994h-17.993v-7.997h-7.997c-.134-10.633.184-21.356,0-31.987-3.568-2.087-6.234-4.753-7.997-7.997-.092-5.297-.092-10.697,0-15.994.614-3.186,3.279-5.851,7.997-7.997.056-2.648-.014-5.347,0-7.997.567-1.746,1.235-1.72,1.999,0,.709-3.254,2.708-5.92,5.998-7.997-5.034-2.946-5.04-5.05,0-7.997-4.431.421-4.246-5.32,0-5.998-3.764-1.129,3.599-7.725,7.997-9.996,3.313-.066,6.682.044,9.996,0,.064-5.31-.092-10.685,0-15.994,1.458-4.784,6.123-7.45,13.994-7.997.37-1.784,1.048-1.712,1.999,0,2.087-3.568,4.752-6.234,7.997-7.997,2.648-.056,5.347.036,7.997,0v-7.997h23.99v-7.997c2.649-.036,5.348.056,7.997,0Z"/>
      <path class="h" d="M55.978,537.911c.086-4.974-.06-9.997,0-14.994l2.999-2.999h20.992v-4.998l2.999-2.999h12.995v41.983h15.994v7.997c2.649.03,5.348-.046,7.997,0,7.035-6.453,19.264-6.343,20.345,3.998,9.871-1.689,22.484,3.303,11.643,11.995,3.248,1.949,5.914,4.615,7.997,7.997,2.943-5.044,5.055-5.051,7.997,0,3.268,3.712,7.723,5.044,13.365,3.998l2.629,3.998c5.581,7.782,5.498,16.172,0,23.99,3.934,5.251,3.937,10.745,0,15.994,6.604,16.202,6.532,25.29-7.997,31.987-1.227,3.481-3.892,6.147-7.997,7.997-2.93,5.087-5.064,5.075-7.997,0-3.842-2.525-3.842-5.472,0-7.997-3.382-2.083-6.047-4.749-7.997-7.997-3.537,7.637-12.203,3.762-12.235-3.998l-2.95-.047c-3.098-5.043-6.595-8.153-10.49-9.33-1.115-4.984-11.67-14.542-11.691-8.93-3.425,3.448-9.616,3.771-10.615-1.685-1.891,0-7.714.283-7.997,0v-7.997c-7.974-.034-16.017.048-23.99,0-5.063-2.208-10.394-4.874-15.994-7.997-2.649-.046-5.347.03-7.997,0v-7.997h-15.994v-7.997h-7.997v-7.997c-2.646-.073-5.355.113-7.997,0-3.481-1.227-6.147-3.892-7.997-7.997-.138-7.962-.04-16.026,0-23.99-3.876-1.829-3.882-4.174,0-5.998-1.784-.37-1.711-1.048,0-1.999.064-2.648-.041-5.348,0-7.997h7.997v-7.997h15.994c.283.283,0,6.106,0,7.997-.613,3.185-3.279,5.851-7.997,7.997-.092,5.297-.092,10.697,0,15.994l7.997,7.997c3.242,1.884,6.058,4.684,7.997,7.997,4.962,16.849,6.296,18.509,4.004,4.98l-4.004-4.98c-3.911-2.52-3.911-5.476,0-7.997.016-2.649-.056-5.349,0-7.997.613-3.185,3.279-5.851,7.997-7.997.092-5.309-.092-10.685,0-15.994.613-3.185,3.279-5.851,7.997-7.997Z"/>
      <path class="j" d="M127.949,521.917c3.114-7.003,29.019-6.705,28.229,3.998,4.676.745,8.594,4.743,11.755,11.995,2.642.113,5.351-.073,7.997,0v15.994c2.649.036,5.348-.056,7.997,0,3.044,1.507,5.709,1.507,7.997,0,2.648.056,5.348-.036,7.997,0v7.997c2.646.073,5.355-.113,7.997,0,3.18.83,5.846,3.496,7.997,7.997,3.313,1.939,6.115,4.753,7.997,7.997,2.642.113,5.351-.073,7.997,0v7.997h15.994v7.997c2.646.073,5.355-.113,7.997,0,3.18.83,5.846,3.496,7.997,7.997,5.081,2.917,5.073,5.078,0,7.997,3.902,2.519,3.896,5.472,0,7.997,3.897,2.521,3.894,5.473,0,7.997.009,5.311.017,10.683,0,15.994s.092,10.687,0,15.994c-.614,3.186-3.279,5.851-7.997,7.997-.056,2.649.056,5.347,0,7.997-.613,3.185-3.279,5.851-7.997,7.997-.092,5.308.064,10.685,0,15.994-5.31.022-10.683-.032-15.994,0-9.742,1.762-17.739,4.427-23.99,7.997-2.649-.046-5.347.03-7.997,0v-7.997c-9.972-.035-20.016.049-29.988,0-4.545-3.266-10.543-5.932-17.993-7.997-10.912-5.326.446-12.024,7.997-15.994,2.648-.044,5.35.068,7.997,0,2.082-3.382,4.748-6.048,7.997-7.997.113-2.641-.073-5.352,0-7.997h7.997c.018-7.976-.026-16.014,0-23.99,5.347-5.554,5.347-10.885,0-15.994-.014-7.968.138-16.025,0-23.99-4.3-3.414-9.632-6.079-15.994-7.997-3.955-10.937-5.476-22.933-4.562-35.986-13.228,2.394-21.225-.271-23.99-7.997-9.367,1.664-15.843.331-19.428-3.998.046-2.649-.03-5.348,0-7.997h7.997c.03-2.649-.046-5.348,0-7.997Z"/>
      <path class="g" d="M361.855,673.856c.092-5.308-.064-10.685,0-15.994h15.994v-7.997h15.994v-7.997h15.994v7.997h7.997v23.99l-7.997,7.997c-3.491,2.067-3.491,4.732,0,7.997.056,2.649-.036,5.347,0,7.997h7.997c.036,2.649-.056,5.348,0,7.997-2.38,3.391-2.38,6.056,0,7.997,3.567,2.088,6.233,4.754,7.997,7.997.068,2.648-.044,5.347,0,7.997-1.317.044-2.77-.192-3.998,0-8.636,1.32-17.546,1.609-26.731.868-5.84,4.715-8.239-7.898-1.258-8.865,1.639-2.252,2.007-3.051,1.513-4.046-1.923-3.868,8.533-1.931-1.513,4.046-3.732,3.319-5.065,7.774-3.998,13.365l-3.998,2.629c-5.308.092-10.684-.064-15.994,0v7.997l-3.998,4.238c.486,6.786-4.197,7.969-9.996,7.997-.241,8.237-7.696,10.812-11.995,3.759l-3.988,2.707c-11.74-.847-17.612,1.633-17.615,7.438-11.605,1.425-13.921,3.308-6.947,5.648-.453,7.084,1.067,12.482,4.56,16.195v7.997c-6.459,1.075-10.283,3.77-15.994,7.997-.056,2.648.016,5.347,0,7.997-3.922,9.831-14.08,1.902-12.027-7.921-.447,5.421-3.768,8.061-9.964,7.921l-1.999-1v-22.991h-7.997v-23.99h-7.997v-7.997h7.997c.018-7.977-.026-16.014,0-23.99l1.987-1.783c9.02,7.512,12.277,6.773,9.769-2.215-7.4,1.031-11.508-9.847-3.759-11.995q5.619-4.697,0,0c-2.93,5.087-5.064,5.074-7.997,0,.026-7.977-.018-16.014,0-23.99,2.649-.036,5.349.056,7.997,0-.056-2.647.014-5.348,0-7.997,3.523-11.177,19.855,2.477,7.997,7.997-2.525,3.842-5.472,3.842-7.997,0,2.067,3.491,4.733,3.491,7.997,0,4.551-7.346,11.68-4.103,12.235,3.998,5.307-.534,7.786,2.857,7.997,7.997,5.384-.54,7.624,2.858,8.11,7.997,7.593-1.351,12.806.324,15.641,5.024l.041-8.102c5.344-4.358,9.328-9.996,11.954-16.914-3.515,11.351-17.511-1.879-10.615-9.682,6.364-7.201,21.839,2.026,10.615,9.682,3.652-3.804,5.023-8.899,4.113-15.285,3.939-3.266,8.565-6.168,13.88-8.706Z"/>
      <path class="h" d="M1051.579,441.949c1.1.517,4.225-.312,5.998,0v29.988c-12.556-.495-9.986,12.343,1.999,9.996v-7.997h15.994v-7.997h7.997v-7.997h13.994v5.998h-5.998v9.996h-9.996v5.998c-12.556-.495-9.986,12.343,1.999,9.996v-7.997h15.994v-7.997h7.997v-7.997h13.994v13.994h-5.998v7.997h15.994v17.993h-46.981c-1.364.333-.898,1.952-1,1.999-.94,2.545-3.605,4.544-7.997,5.998-2.646.056-5.349-.016-7.997,0-5.556-5.343-10.887-5.343-15.994,0-32.599.052-65.374-.565-97.961,0-4.328,10.786-15.767,17.782-23.99,7.997-.056-2.649.056-5.348,0-7.997-3.568-2.087-6.234-4.753-7.997-7.997-.136-7.874-.36-16.143,0-23.99-10.543-7.285,1.213-16.27,11.302-13.994l4.691-1.999c1.115.524,5.778-.086,7.997,0,7.293-1.234,14.871-3.366,19.992-5.634l3.998-2.363c1.829.86,19.598-.024,23.99,0l6.489-2.65c8.289.227,14.79-1.555,19.501-5.347.928.436,4.192-.098,5.998,0l5.213-3.852c8.868,1.341,15.794-.041,20.777-4.145ZM1027.589,465.939c-1.447.681-5.752-.439-7.997,0-.283.283,0,6.106,0,7.997v7.997h7.997c.283-.283,0-6.106,0-7.997,2.648-.068,5.347.044,7.997,0v-9.996c-2.206.299-5.06-.473-6.997,0-1.364.333-.898,1.952-1,1.999ZM995.602,471.937c-14.028-1.806-13.414,12.017,0,9.996v-9.996ZM1067.573,475.935h-5.998v5.998h5.998v-5.998Z"/>
      <path class="e" d="M598.542,1139.684c-22.892.15-45.87-.056-68.754-.014-5.857,9.581-6.04,22.577,0,31.987,22.874,3.746,45.871,3.915,68.754.495v-32.468Z"/>
      <path class="d" d="M598.542,1176.83c-7.205-4.666-9.998,5.935-8.778,14.467l-17.644.347c-3.346.382-3.71,2.848-2.348,6.003,3.99,4.369,10.891,5.702,20.701,3.999-1.06,5.92.036,11.917,3.289,17.993h4.78v-42.808Z"/>
      <path class="j" d="M385.846,625.875c2.943-5.051,5.054-5.044,7.997,0-.772,3.859,2.768,7.668-2.999,7.997-4.307.246-8.699-.17-12.995,0v7.997h-15.994v7.997h-7.997c-.299,2.205.473,5.06,0,6.997-.333,1.364-1.952.898-1.999,1-.004,5.852-6.68,5.603-7.997,0-5.095-2.927-5.086-5.067,0-7.997l7.997-2.999v-4.998h7.997v-7.997h9.996v-7.997c5.311-.027,10.683.038,15.994,0Z"/>
      <path class="j" d="M303.878,633.872c2.855-7.784,12.024-4.298,12.272,3.699,5.318.192,7.765,3.026,7.96,8.296,5.218-.582,8.256,3.147,7.757,8.237,6.487-1.35,10.485-.098,11.995,3.759,3.568,2.087,6.234,4.753,7.997,7.997.013,2.655-.009,5.342,0,7.997h9.996c-.046,2.649.03,5.348,0,7.997h-9.996v15.994c-.283.283-6.106,0-7.997,0-.046-2.649.03-5.348,0-7.997h-7.997v7.997h7.997c.092,5.308-.064,10.685,0,15.994h-7.997v15.994h-7.997v-7.997h-15.994v-7.997h-7.997v-7.997h-7.997v-7.997c-2.649-.036-5.349.056-7.997,0v7.997h-7.997c-.036-2.649.056-5.349,0-7.997,2.642-.055,5.355-.055,7.997,0,0-1.891.283-7.714,0-7.997h-7.997c-.072-13.302.052-26.682,0-39.984,7.97.138,16.019-.099,23.99,0,.025-5.311-.035-10.683,0-15.994Z"/>
      <path class="g" d="M425.83,1965.34l7.997,2.999v4.998h23.99v7.997h15.994v7.997h7.997v7.997h15.994v7.997h28.988l2.999,2.999v4.998h55.978v-7.997h23.99c.049,7.973-.035,16.017,0,23.99h-7.997v-7.997h-7.997v7.997c-5.31.05-10.685-.071-15.994,0-6.284,2.171-11.615,4.836-15.994,7.997-7.972.048-16.018-.034-23.99,0v-7.997h-39.984v-7.997h-15.994v-15.994h-31.987v-7.997h-15.994v-7.997h-15.994v-7.997h7.997c.022-5.31-.032-10.684,0-15.994Z"/>
      <path class="k" d="M505.798,290.01c10.242-3.044,16.349-1.82,18.321,3.67,6.5,2.816,13.721,4.258,21.663,4.327.038,1.984-.065,4.015,0,5.998,1.793.369,1.721,1.047,0,1.999,2.329,5.987,4.995,11.318,7.997,15.994,6.549,3.295,6.264,28.114,0,31.987-1.133,3.623-5.131,5.139-11.995,4.549,2.474,14.099-1.159,20.392-10.899,18.878-3.73,5.371-9.426,8.225-17.09,8.561v5.998c-2.205.3-5.06-.474-6.997,0-1.364.333-.898,1.952-1,1.999-.152,4.608-7.082,4.372-7.997,0-5.975-.146-5.511-8.918,0-9.996,0-4.645-.06-9.351,0-13.994,1.496-3.462,4.162-6.794,7.997-9.996.292-23.287-.215-46.683,0-69.972Z"/>
      <path class="k" d="M497.801,393.968c5.769.153,5.408,4.687,0,5.998-1.891,0-7.714.283-7.997,0-.032-1.986.053-4.013,0-5.998,2.939-5.062,5.057-5.052,7.997,0Z"/>
      <path class="g" d="M593.762,633.872c.027-7.976-.02-16.014,0-23.99h31.987v15.994h7.997v-7.997h15.994v7.997h7.997v7.997h-7.997v7.997h-15.994v15.994h7.997c.046-2.648-.03-5.348,0-7.997h7.997v7.997c-.283.283-6.106,0-7.997,0-.092,5.307.064,10.685,0,15.994h-7.997v23.99c-2.649-.046-5.347.03-7.997,0v-7.997h-7.997v-7.997h-7.997v-15.994h-7.997l2.999-7.997h4.998v-15.994c-2.649-.036-5.349.056-7.997,0-3.475-1.229-6.141-3.895-7.997-7.997Z"/>
      <path class="f" d="M103.958,633.872h7.997v-7.997h7.997v7.997h7.997v7.997h7.997v7.997h7.997v7.997c2.646.073,5.355-.113,7.997,0,3.481,1.227,6.147,3.892,7.997,7.997.055,2.642.055,5.355,0,7.997s.036,5.348,0,7.997h-7.997c-.283.283,0,6.106,0,7.997-7.968-.039-16.026.161-23.99,0-2.063-1.356-4.062-1.356-5.998,0l-1.999-1v-6.997h-7.997v-7.997h-7.997v-39.984Z"/>
      <path class="g" d="M409.836,1949.346c.215,10.627-.156,21.357,0,31.987h-7.997v7.997h-23.99v7.997h-33.986c-.03,2.648.046,5.349,0,7.997h-15.994c-5.852-.004-5.603-6.68,0-7.997,0-1.891-.283-7.714,0-7.997,2.647-.073,5.353.113,7.997,0,2.538-3.913,5.87-6.578,9.996-7.997,1.986-.029,4.011.029,5.998,0,3.245-3.085,6.577-5.75,9.996-7.997,5.31-.066,10.683.047,15.994,0v-7.997h15.994v-7.997h7.997c.299-2.205-.473-5.06,0-6.997.333-1.364,1.952-.898,1.999-1-.41-4.444,5.334-4.232,5.998,0Z"/>
      <path class="g" d="M143.942,465.939c3.036.843,7.997-2.825,7.997,2.999,0,4.455,3.787,5.637,7.997,4.998v12.995l2.999,2.999h4.998v15.994c-7.971-.099-16.021.138-23.99,0-.113-2.642.073-5.351,0-7.997h-7.997v7.997c2.649.03,5.348-.046,7.997,0,.113,2.642-.073,5.351,0,7.997h15.994v7.997h7.997v15.994c-2.642-.113-5.351.073-7.997,0v-7.997h-7.997v-7.997h-23.99c.15-8.635-.108-17.353,0-25.99h7.997v-20.992l2.999-2.999h4.998c.036-1.984-.06-4.015,0-5.998Z"/>
      <path class="k" d="M119.952,537.911h23.99v7.997h23.99c.168,13.296-.23,26.691,0,39.984-2.649-.019-5.35.056-7.997,0-3.481-1.226-6.147-3.892-7.997-7.997-.113-2.641.073-5.352,0-7.997h-15.994v-7.997c-5.308-.064-10.686.092-15.994,0,.099-7.971-.138-16.021,0-23.99Z"/>
      <path class="e" d="M529.788,1203.644l2.182-3.998,17.81-.24c-.244-10.114,14.757-11.023,15.994-.944l3.998-.816h23.99c.02,7.307-.028,14.684,0,21.991.02,5.305.092,10.69,0,15.994-.004,5.852-6.68,5.603-7.997,0-.035-5.309.025-10.684,0-15.994h-55.978c.064-5.308-.092-10.687,0-15.994Z"/>
      <path class="j" d="M577.769,689.85c-.048,7.973,0,16.017,0,23.99-1.507,3.044-1.507,5.709,0,7.997v7.997c-1.313,3.464-3.979,6.13-7.997,7.997,2.943-5.049,5.054-5.042,7.997,0,2.648-.056,5.348.036,7.997,0,.134-10.633-.184-21.356,0-31.987.614-3.186,3.279-5.851,7.997-7.997,2.925-5.083,5.069-5.07,7.997,0,.056,2.649-.056,5.347,0,7.997,3.568,2.087,6.234,4.753,7.997,7.997.092,5.306,0,10.686,0,15.994,5.015,5.528,5.051,10.485,0,15.994-1.95,3.248-4.615,5.914-7.997,7.997-.056,2.648.016,5.347,0,7.997-.004,5.852-6.68,5.603-7.997,0-3.503-2.126-6.169-4.791-7.997-7.997-3.381-2.084-6.047-4.749-7.997-7.997-2.641-.113-5.352.073-7.997,0v-7.997c-5.31.032-10.683-.009-15.994,0-.046-2.649.03-5.348,0-7.997-2.649-.036-5.349.056-7.997,0-3.044-1.507-5.709-1.507-7.997,0-2.655-.016-5.342.007-7.997,0-5.852-.004-5.603-6.68,0-7.997v-15.994c3.127-7.939,11.832-4.169,12.559,3.998h12.707c-8.391-3.625-7.17-15.966,2.723-16.233-1.171-9.399,17.064-10.939,19.992-3.759Z"/>
      <path class="i" d="M561.775,1475.535l7.997,2.999c-1.947,46.049,2.615,94.149,0,139.944-.329,5.766-4.133,2.227-7.997,2.999.019-48.614-.135-97.328,0-145.942Z"/>
      <path class="f" d="M953.619,513.92v15.994h7.997c-.51,12.25.699,24.735,0,36.985-.329,5.766-4.136,2.227-7.997,2.999v-7.997h-7.997v-15.994h-7.997v-15.994h-7.997c-.036-2.649.056-5.348,0-7.997h15.994v-7.997c2.648-.03,5.349.046,7.997,0Z"/>
      <path class="k" d="M449.82,1259.622c3.862.772,7.668-2.767,7.997,2.999,2.036,35.664-1.513,73.117,0,108.956-2.645.073-5.356-.113-7.997,0-.042-37.286.056-74.669,0-111.955Z"/>
      <path class="h" d="M369.852,1805.404c-.055,2.641-.055,5.356,0,7.997l-7.997,2.999v4.998h-17.993v7.997h-15.994v-7.997h-31.987c-5.049-2.941-5.06-5.057,0-7.997,18.62.323,37.355-.237,55.978,0v-7.997h17.993Z"/>
      <path class="h" d="M449.82,1813.4c5.307.092,10.685-.064,15.994,0v7.997c16.635,0,33.345,0,49.98,0,4.553-.508,4.254,7.444,0,7.997h-41.983v7.997h-7.997v-7.997c-5.308.064-10.686-.092-15.994,0v-15.994Z"/>
      <path class="d" d="M377.849,280.014c-.022.665.01,1.333,0,1.999h-33.986v7.997h-29.988v4.998l-2.999,2.999h-38.984c-1.746-.567-1.72-1.235,0-1.999,10.636-.052,21.351.038,31.987,0v-7.997h23.99v-7.997h49.98Z"/>
      <path class="k" d="M585.766,753.824c1.891,0,7.714-.283,7.997,0,.073,2.647-.113,5.354,0,7.997,3.529,2.026,6.195,4.692,7.997,7.997-.016,5.31-.032,10.683,0,15.994h-7.997v-4.998c-2.413-3.707-4.397-2.719-7.997-2.999-5.414-7.768-5.383-16.124,0-23.99Z"/>
      <path class="e" d="M425.83,1187.651c-.184,10.629.134,21.357,0,31.987-2.653.005-5.343-.004-7.997,0s-5.343-.003-7.997,0c-8.065-2.633-3.923-12.33,3.699-12.272-.995-9.686.402-33.819,12.295-19.715Z"/>
      <path class="k" d="M287.885,1011.721c-.067,12.11.684,25,0,36.985-.329,5.766-4.135,2.227-7.997,2.999.029-13.298-.125-26.687,0-39.984.004-5.852,6.68-5.603,7.997,0Z"/>
      <path class="i" d="M545.782,304.004h23.99v7.997h23.99v7.997c1.746.567,1.72,1.235,0,1.999-2.387,6.135-8.764,4.526-7.997-1.999-3.254-.709-5.919-2.708-7.997-5.998-12.047,6.942-29.664,7.684-31.987-7.997-.01-.666.022-1.334,0-1.999Z"/>
      <path class="j" d="M281.887,817.799l5.998-5.998v-9.996h7.997c.17,4.296-.246,8.688,0,12.995.329,5.767,4.139,2.226,7.997,2.999-.016,2.655.017,5.342,0,7.997-.004,5.852-6.68,5.603-7.997,0-.004,5.852-6.68,5.603-7.997,0-.113-2.642.073-5.351,0-7.997h-5.998Z"/>
      <path class="f" d="M937.625,465.939v5.998h-12.995l-2.999,2.999c-.07,2.331.106,4.691,0,6.997h-7.997v-15.994h-7.997l1-1.999c8.514,1.358,22.362-1.864,29.988,0,1.364.333.898,1.952,1,1.999Z"/>
      <polygon class="i" points="905.638 471.937 904.638 473.936 897.641 473.936 897.641 481.933 889.644 481.933 889.644 489.93 873.651 489.93 873.651 497.927 857.657 497.927 858.657 495.927 865.654 495.927 865.654 487.931 881.647 487.931 881.647 479.934 889.644 479.934 889.644 471.937 905.638 471.937"/>
      <path class="g" d="M287.885,977.735c-.027,11.302.063,22.685,0,33.986h-7.997c.083-8.834-1.14-20.761,0-28.988.71-5.122,3.787-5.476,7.997-4.998Z"/>
      <path class="i" d="M261.895,296.007c.799.947,1.466.947,1.999,0,2.648-.046,5.348.013,7.997,0v9.996h-45.982l5.998,5.998c-2.245.439-6.55-.68-7.997,0,.772-3.861-2.767-7.668,2.999-7.997,9.602-.548,19.391.396,28.988,0v-7.997c1.983-.038,4.016.065,5.998,0Z"/>
      <path class="f" d="M1019.592,449.946v7.997c-8.639-.035-17.351.048-25.99,0-.289-2.902-.416-9.122,2.999-9.996,2.145-.549,19.777-.541,21.991,0,1.364.333.898,1.952,1,1.999Z"/>
      <path class="j" d="M279.888,721.837c0-1.891-.283-7.714,0-7.997h7.997v7.997c-2.649.044-5.349-.068-7.997,0v7.997h7.997v15.994h-7.997l-7.997-7.997c.017-5.314-.017-10.679,0-15.994,2.649-.044,5.349.068,7.997,0Z"/>
      <path class="i" d="M393.842,1645.468c-.079,9.526.54,19.535,0,28.988-.329,5.766-4.134,2.227-7.997,2.999.029-10.639-.028-21.348,0-31.987.004-5.852,6.68-5.603,7.997,0Z"/>
      <path class="f" d="M1051.579,441.949v7.997c-8.607-.334-17.398.464-25.99,0-.289-2.902-.416-9.122,2.999-9.996,2.146-.549,19.777-.541,21.991,0,1.364.333.898,1.952,1,1.999ZM1035.586,443.948h-5.998v3.998h5.998v-3.998Z"/>
      <path class="i" d="M609.756,1123.775v-.099c-1.317-5.604-7.993-5.852-7.997,0-.013,1.077-.016,2.157-.017,3.238,2.125-2.029,5.052-3.077,8.014-3.139Z"/>
      <path class="h" d="M393.842,1619.478c-.023,8.636.072,17.354,0,25.99h-7.997c.022-8.642-.016-17.348,0-25.99h7.997Z"/>
      <path class="f" d="M593.762,319.998h23.99v7.997c1.985.03,4.014-.051,5.998,0,1.746.567,1.72,1.235,0,1.999-12.356,7.141-26.816,7.179-29.988-7.997v-1.999Z"/>
      <path class="f" d="M969.612,457.943v7.997c-7.958-.221-16.039.308-23.99,0v-1.999c.991-1.56,1.332-2.807,0-3.998.081-1.314-.038-2.679,0-3.998,6.625,1.046,17.048-1.453,22.991,0,1.364.333.898,1.952,1,1.999Z"/>
      <path class="g" d="M441.823,1605.484c-.004,5.852-6.68,5.603-7.997,0,.026-7.976-.018-16.015,0-23.99l7.997-1.999c-.03,8.641.027,17.349,0,25.99Z"/>
      <path class="k" d="M295.882,915.759c-.026,7.975.018,16.015,0,23.99h-7.997c.014-7.967-.138-16.026,0-23.99.004-5.852,6.68-5.603,7.997,0Z"/>
      <path class="d" d="M393.842,1469.538c.1,7.967-.012,16.022,0,23.99h-7.997c-.019-7.976.026-16.014,0-23.99.004-5.852,6.68-5.603,7.997,0Z"/>
      <path class="g" d="M231.907,697.847v7.997c-7.971-.099-16.021.138-23.99,0v-7.997c7.973-.034,16.017.048,23.99,0Z"/>
      <path class="k" d="M433.826,1917.359c-.026,7.977.018,16.014,0,23.99h-7.997c.014-7.968-.138-16.025,0-23.99.004-5.852,6.68-5.603,7.997,0Z"/>
      <path class="k" d="M441.823,1605.484c-.025,7.975.018,16.015,0,23.99h-7.997c.007-7.972-.026-16.018,0-23.99h7.997Z"/>
      <path class="k" d="M303.878,825.795c-.043,6.633.2,13.366,0,19.992-.772,1.562-1.111,2.842,0,3.998-.145.838.232,1.698-1,1.999h-6.997v-17.993c-5.852.005-5.588-6.675,0-7.997h7.997Z"/>
      <path class="i" d="M497.801,288.011h31.987v7.997l15.994,1.999h-22.991l-2.999-2.999v-4.998c-4.638-.116-9.36.167-13.994,0-2.309-.083-4.664.055-6.997,0l-1-1.999Z"/>
      <path class="e" d="M281.887,1132.672c-.116-.567-1.74-.973-1.999-2.999h-5.977c2.074,1.851,3.451,4.577,3.451,8.192v13.369c.879-.624,1.734-1.807,2.526-3.568-1.335-5.651,3.107-9.59,1.999-14.994Z"/>
      <path class="d" d="M623.75,327.995c5.97.153,12.021-.108,17.993,0v7.997h14.994l1,1.999h-22.991l-2.999-2.999v-4.998c-1.985-.038-4.015.065-5.998,0-.371,1.775-1.049,1.702-1.999,0v-1.999Z"/>
      <path class="g" d="M393.842,232.033c-.032,5.976.023,12.016,0,17.993h-7.997c.03-5.976-.021-12.016,0-17.993h7.997Z"/>
      <path class="f" d="M489.804,240.03h7.997c.021,5.976-.029,12.017,0,17.993h-7.997c-.025-5.977.036-12.016,0-17.993Z"/>
      <path class="g" d="M151.939,689.85c5.976.029,12.017-.021,17.993,0v7.997c-5.976-.029-12.016.021-17.993,0v-7.997Z"/>
      <path class="g" d="M433.826,1677.455c-.009,5.309.035,10.685,0,15.994-.004,5.852-6.68,5.603-7.997,0,.035-5.31-.025-10.683,0-15.994h7.997Z"/>
      <path class="k" d="M433.826,1693.448c-.035,5.309.025,10.684,0,15.994h-7.997c.016-5.311-.035-10.683,0-15.994h7.997Z"/>
      <path class="j" d="M609.756,809.802h7.997v7.997c-2.65.036-5.347-.056-7.997,0-.039,2.648.102,5.353,0,7.997h-15.994v-7.997c.004-5.852,6.68-5.603,7.997,0,2.65,0,5.349.056,7.997,0,.039-2.649.018-5.347,0-7.997Z"/>
      <path class="i" d="M377.849,1837.391h7.997c.027,5.311-.038,10.682,0,15.994-.004,5.852-6.68,5.603-7.997,0-.092-5.306.035-10.686,0-15.994Z"/>
      <path class="f" d="M529.788,192.049c-.032,5.308.022,10.685,0,15.994h-7.997c.131-5.304-.092-10.688,0-15.994h7.997Z"/>
      <path class="k" d="M449.82,1493.528c-.035,5.31.025,10.684,0,15.994h-7.997c.015-5.307-.092-10.689,0-15.994.004-5.852,6.68-5.603,7.997,0Z"/>
      <path class="k" d="M1051.579,513.92v-7.997h15.994v7.997c-5.309.032-10.685-.009-15.994,0Z"/>
      <path class="h" d="M545.782,88.09h7.997v15.994h-7.997c.032-5.311-.01-10.682,0-15.994Z"/>
      <path class="i" d="M617.753,1067.699c-.035,5.31.025,10.683,0,15.994h-7.997c.014-5.309-.066-10.686,0-15.994.004-5.852,6.68-5.603,7.997,0Z"/>
      <path class="d" d="M537.785,48.106c2.642.113,5.351-.073,7.997,0,.027,5.311-.038,10.683,0,15.994h-7.997c-.064-5.309.092-10.685,0-15.994Z"/>
      <path class="g" d="M55.978,617.879c5.308.092,10.684-.064,15.994,0v7.997c-5.311-.032-10.683.022-15.994,0v-7.997Z"/>
      <path class="j" d="M577.769,2029.314v7.997c-5.31.022-10.684-.032-15.994,0v-7.997c5.31-.05,10.685.071,15.994,0Z"/>
      <path class="i" d="M609.756,729.834h7.997v15.994c-2.646.073-5.354-.113-7.997,0,.092-5.306,0-10.686,0-15.994Z"/>
      <path class="k" d="M369.852,184.052c2.607,0,15.428-.565,15.994,0v7.997c-5.307,0-10.689.092-15.994,0-5.852,0-5.597-6.678,0-7.997Z"/>
      <path class="k" d="M351.859,56.103v7.997c-2.207.299-5.06-.473-6.997,0-1.364.333-.898,1.952-1,1.999-1.549,1.998-1.549,3.997,0,5.998,0,2.651.056,5.348,0,7.997-.744,3.232-3.325,6.399-5.998,7.997h-1.999c.043-7.974-.031-16.016,0-23.99h7.997v-7.997c2.65-.034,5.348.052,7.997,0Z"/>
      <path class="i" d="M609.756,833.792h7.997c.028,3.315-.041,6.682,0,9.996-7.012,1.155-11.847-1.418-9.996-8.996.333-1.364,1.952-.898,1.999-1Z"/>
      <path class="d" d="M705.718,409.962h-7.997c-.033-3.315.049-6.681,0-9.996,7.011-1.156,11.848,1.418,9.996,8.996-.333,1.364-1.952.898-1.999,1Z"/>
      <path class="h" d="M683.727,369.978c-.37,1.779-1.049,1.706-1.999,0-2.649-.072-5.347.046-7.997,0v-9.996c8.476-1.057,11.053,1.52,9.996,9.996Z"/>
      <path class="f" d="M833.667,519.918l-1,1.999h-6.997v7.997c-2.649.036-5.348-.056-7.997,0v-9.996h15.994Z"/>
      <path class="i" d="M617.753,873.776h7.997c.033,3.315-.049,6.682,0,9.996-.004,5.852-6.68,5.603-7.997,0-.925-5.366-3.222-3.144,0-9.996Z"/>
      <path class="d" d="M761.695,513.92h-7.997c-.033-3.315.049-6.681,0-9.996,7.01-1.156,11.848,1.418,9.996,8.996-.333,1.364-1.952.898-1.999,1Z"/>
      <path class="i" d="M745.702,481.933h-7.997v-9.996c7.011-1.156,11.848,1.418,9.996,8.996-.333,1.364-1.952.898-1.999,1Z"/>
      <path class="d" d="M625.75,1009.722c-.015,3.313.066,6.685,0,9.996-.004,5.852-6.68,5.603-7.997,0,.049-3.313-.033-6.682,0-9.996h7.997Z"/>
      <path class="g" d="M159.936,423.956c-.041,3.314.028,6.682,0,9.996h-7.997c.043-3.315-.029-6.681,0-9.996h7.997Z"/>
      <path class="g" d="M175.93,375.975c-.043,3.315.029,6.681,0,9.996h-7.997c.041-3.314-.028-6.682,0-9.996h7.997Z"/>
      <path class="g" d="M183.926,351.985c-.043,3.314.029,6.682,0,9.996h-7.997c.043-3.315-.029-6.681,0-9.996h7.997Z"/>
      <path class="d" d="M609.756,1113.68v9.996h-7.997c.041-3.315-.028-6.681,0-9.996h7.997Z"/>
      <path class="i" d="M745.702,487.931h7.997c.033,3.315-.049,6.681,0,9.996h-7.997c.137-3.302-.204-6.703,0-9.996Z"/>
      <path class="i" d="M385.846,1459.542h7.997c.028,3.312-.041,6.684,0,9.996h-7.997c-.011-3.314-.022-6.682,0-9.996Z"/>
      <path class="g" d="M151.939,447.947c-.043,3.315.029,6.681,0,9.996h-7.997c.049-3.313-.033-6.682,0-9.996h7.997Z"/>
      <path class="d" d="M633.747,953.744c-.041,3.315.028,6.681,0,9.996h-7.997c.041-3.313-.028-6.682,0-9.996h7.997Z"/>
      <path class="d" d="M617.753,1057.703c-.008,3.314.022,6.682,0,9.996h-7.997c.041-3.314-.028-6.682,0-9.996h7.997Z"/>
      <path class="i" d="M689.724,383.972h7.997c.033,3.315-.049,6.681,0,9.996h-7.997c-.033-3.316.049-6.68,0-9.996Z"/>
      <path class="k" d="M369.852,32.113c2.256-5.11,3.75-5.109,5.998,0l-1,1.999h-4.998v5.998h-7.997c.046-2.649-.03-5.347,0-7.997,2.649-.041,5.349.064,7.997,0Z"/>
      <path class="i" d="M815.674,529.914l-1,1.999h-4.998v5.998c-2.647.073-5.353-.113-7.997,0,.113-2.642-.073-5.351,0-7.997,4.645-.039,9.35.056,13.994,0Z"/>
      <path class="g" d="M449.82,1493.528h-7.997c.046-2.648-.03-5.349,0-7.997l7.997-1.999c-.008,3.314.022,6.682,0,9.996Z"/>
      <path class="d" d="M593.762,1949.346c2.642.113,5.351-.073,7.997,0,.03,2.649-.046,5.348,0,7.997h-7.997c-.073-2.647.113-5.354,0-7.997Z"/>
      <path class="i" d="M625.75,1019.718c-.052,2.648.034,5.348,0,7.997h-7.997c.012-2.649-.039-5.348,0-7.997h7.997Z"/>
      <path class="h" d="M585.766,1941.349c2.643.113,5.35-.073,7.997,0,.073,2.647-.113,5.354,0,7.997-2.642-.113-5.351.073-7.997,0-.073-2.645.113-5.355,0-7.997Z"/>
      <path class="k" d="M55.978,537.911c-.046,2.648.03,5.348,0,7.997h-7.997c.046-2.649-.03-5.347,0-7.997h7.997Z"/>
      <path class="f" d="M801.679,537.911c-.113,2.642.073,5.351,0,7.997-2.646.073-5.354-.113-7.997,0v-7.997c2.647-.073,5.353.113,7.997,0Z"/>
      <path class="g" d="M295.882,907.763c-.005,2.654.009,5.343,0,7.997h-7.997c.046-2.647-.03-5.349,0-7.997h7.997Z"/>
      <path class="d" d="M577.769,1933.352c2.642.113,5.351-.073,7.997,0,.073,2.645-.113,5.355,0,7.997-2.643-.113-5.35.073-7.997,0v-7.997Z"/>
      <path class="h" d="M625.75,883.772c.039,2.649-.012,5.347,0,7.997h-7.997c-.271-2.575.42-5.559,0-7.997h7.997Z"/>
      <path class="f" d="M31.987,545.907v7.997h-7.997c.046-2.649-.03-5.347,0-7.997h7.997Z"/>
      <path class="i" d="M687.725,369.978c.665-1.292,1.332-1.291,1.999,0,.058,2.649-.091,5.35,0,7.997h-7.997v-7.997c.666.018,1.333-.018,1.999,0,1.314.035,2.704-.144,3.998,0Z"/>
      <path class="d" d="M489.804,226.035c.039,2.649-.013,5.347,0,7.997h-7.997v-7.997c2.52-3.88,5.471-3.874,7.997,0Z"/>
      <path class="g" d="M295.882,825.795v7.997h-7.997c-.073-2.645.113-5.355,0-7.997h7.997Z"/>
      <path class="g" d="M401.839,200.046c-.056,2.648.036,5.348,0,7.997h-7.997c.046-2.649-.03-5.347,0-7.997h7.997Z"/>
      <path class="i" d="M601.759,793.808h7.997c.036,2.65-.056,5.347,0,7.997h-7.997c-.036-2.649.056-5.348,0-7.997Z"/>
      <path class="g" d="M369.852,184.052v7.997c-2.648-.046-5.348.03-7.997,0-.03-2.649.046-5.348,0-7.997h7.997Z"/>
      <path class="i" d="M593.762,1235.631c-.046,2.649.03,5.348,0,7.997h-7.997c-.007-2.649.018-5.348,0-7.997h7.997Z"/>
      <path class="h" d="M601.759,761.821c-.016,2.655.008,5.342,0,7.997h-7.997c-.073-2.647.113-5.354,0-7.997h7.997Z"/>
      <path class="h" d="M417.833,1243.628c-.014,2.649.056,5.349,0,7.997-.004,5.852-6.68,5.603-7.997,0,.056-2.648-.036-5.348,0-7.997h7.997Z"/>
      <path class="i" d="M417.833,1251.625c-.056,2.648.036,5.348,0,7.997h-7.997c.014-2.649-.056-5.349,0-7.997h7.997Z"/>
      <path class="d" d="M585.766,1275.615c-.014,2.648.056,5.35,0,7.997-.004,5.852-6.68,5.603-7.997,0,.056-2.647-.036-5.348,0-7.997h7.997Z"/>
      <path class="i" d="M585.766,1283.612c-.056,2.647.036,5.349,0,7.997h-7.997c.014-2.648-.056-5.35,0-7.997h7.997Z"/>
      <path class="d" d="M409.836,1291.609c-.014,2.649.056,5.349,0,7.997-.004,5.852-6.68,5.603-7.997,0,.056-2.648-.036-5.348,0-7.997h7.997Z"/>
      <path class="f" d="M609.756,745.827c-.046,2.649.03,5.347,0,7.997h-7.997c.056-2.649-.036-5.347,0-7.997,2.646-.073,5.354.113,7.997,0Z"/>
      <path class="i" d="M409.836,1299.606c-.056,2.648.036,5.348,0,7.997h-7.997c.014-2.649-.056-5.349,0-7.997h7.997Z"/>
      <path class="d" d="M433.826.126c5.852-.005,5.588,6.675,0,7.997-2.649.018-5.349-.056-7.997,0V.126h7.997Z"/>
      <path class="d" d="M401.839,1339.59c-.046,2.649.03,5.347,0,7.997h-7.997c.046-2.648-.03-5.348,0-7.997h7.997Z"/>
      <path class="g" d="M441.823,1379.574c-.055,2.641-.055,5.356,0,7.997h-7.997v-7.997h7.997Z"/>
      <path class="i" d="M577.769,1387.571h7.997c.036,2.65-.056,5.348,0,7.997-.004,5.852-6.68,5.603-7.997,0,.009-2.654-.007-5.342,0-7.997Z"/>
      <path class="d" d="M585.766,1395.567c.055,2.643.055,5.354,0,7.997.005,5.852-6.675,5.588-7.997,0,.003-2.654-.009-5.342,0-7.997h7.997Z"/>
      <path class="i" d="M585.766,1403.564c-.056,2.649.036,5.347,0,7.997-2.646.073-5.354-.113-7.997,0,.005-2.654-.003-5.342,0-7.997h7.997Z"/>
      <path class="d" d="M401.839,1411.561c0,1.89.283,7.714,0,7.997-2.645.073-5.355-.113-7.997,0v-7.997h7.997Z"/>
      <path class="d" d="M577.769,1411.561c-.005,2.654.009,5.342,0,7.997-.004,5.852-6.68,5.603-7.997,0v-7.997c2.646-.073,5.354.113,7.997,0Z"/>
      <path class="i" d="M577.769,1419.558c-.009,2.649.018,5.348,0,7.997h-7.997c-.283-.283,0-6.106,0-7.997h7.997Z"/>
      <path class="k" d="M457.817,1435.551c-.046,2.648.03,5.348,0,7.997h-7.997c.046-2.648-.03-5.348,0-7.997h7.997Z"/>
      <path class="i" d="M577.769,1435.551c-.056,2.647.036,5.348,0,7.997h-7.997c.056-2.649-.036-5.347,0-7.997h7.997Z"/>
      <path class="d" d="M569.772,1451.545c-.056,2.649.036,5.347,0,7.997h-7.997c.046-2.647-.03-5.349,0-7.997h7.997Z"/>
      <path class="g" d="M433.826,1909.362c-.01,2.655.009,5.342,0,7.997h-7.997c.046-2.648-.03-5.348,0-7.997h7.997Z"/>
      <path class="i" d="M601.759,705.843h7.997c.03,2.65-.046,5.348,0,7.997h-7.997c-.036-2.65.056-5.347,0-7.997Z"/>
      <path class="h" d="M593.762,689.85h7.997c.036,2.65-.056,5.347,0,7.997-2.648.044-5.35-.068-7.997,0,.056-2.648-.014-5.348,0-7.997Z"/>
      <path class="g" d="M705.718,681.853h7.997v7.997c-2.642-.113-5.351.073-7.997,0-.073-2.646.113-5.355,0-7.997Z"/>
      <path class="g" d="M777.689,673.856v7.997c-2.646.073-5.355-.113-7.997,0v-7.997c2.65-.036,5.347.056,7.997,0Z"/>
      <path class="f" d="M255.898,673.856c-.056,2.649.036,5.347,0,7.997h-7.997c.046-2.649-.03-5.348,0-7.997h7.997Z"/>
      <path class="g" d="M793.683,665.859v7.997c-2.65.036-5.347-.056-7.997,0v-7.997c2.65-.03,5.347.046,7.997,0Z"/>
      <path class="g" d="M327.869,120.078h7.997c.03,2.649-.046,5.348,0,7.997h-7.997c-.03-2.65.046-5.347,0-7.997Z"/>
      <path class="i" d="M433.826.126c1.891,0,7.714-.283,7.997,0,.073,2.647-.113,5.354,0,7.997-2.65.008-5.347-.018-7.997,0V.126Z"/>
      <path class="k" d="M47.981,561.901c-.046,2.649.03,5.347,0,7.997h-7.997c.056-2.649-.036-5.347,0-7.997h7.997Z"/>
      <path class="d" d="M545.782,112.081c-.056,2.649.036,5.347,0,7.997-2.65.036-5.348-.056-7.997,0v-7.997h7.997Z"/>
      <path class="i" d="M545.782,1901.365h7.997c.03,2.649-.046,5.348,0,7.997h-7.997c-.073-2.646.113-5.354,0-7.997Z"/>
      <path class="i" d="M263.894,657.863c-.046,2.649.03,5.347,0,7.997h-7.997c.056-2.649-.036-5.347,0-7.997h7.997Z"/>
      <path class="g" d="M817.673,649.866v7.997h-7.997c.113-2.643-.073-5.351,0-7.997,2.65-.036,5.348.056,7.997,0Z"/>
      <path class="h" d="M401.839,1901.365c.056,2.646-.014,5.349,0,7.997h-7.997c-.036-2.65.056-5.348,0-7.997.004-5.852,6.68-5.603,7.997,0Z"/>
      <path class="g" d="M833.667,641.869v7.997c-2.65.036-5.348-.056-7.997,0v-7.997c2.646-.073,5.354.113,7.997,0Z"/>
      <path class="i" d="M473.81.126c5.852.004,5.603,6.68,0,7.997-2.655-.008-5.342.005-7.997,0V.126c.283-.283,6.106,0,7.997,0Z"/>
      <path class="d" d="M473.81.126h7.997v7.997c-2.65-.018-5.346.008-7.997,0V.126Z"/>
      <path class="k" d="M335.866,96.087c-.056,2.649.036,5.347,0,7.997h-7.997c.046-2.649-.03-5.347,0-7.997h7.997Z"/>
      <path class="g" d="M873.651,617.879v7.997c-2.646.073-5.354-.113-7.997,0v-7.997c2.65-.03,5.347.046,7.997,0Z"/>
      <path class="g" d="M425.83,1725.436c-.046,2.649.03,5.347,0,7.997h-7.997c.046-2.648-.03-5.348,0-7.997h7.997Z"/>
      <path class="h" d="M449.82,8.122v7.997h-7.997c-.073-2.647.113-5.354,0-7.997,2.655-.008,5.342.005,7.997,0Z"/>
      <path class="g" d="M913.635,593.888v7.997c-2.646.073-5.354-.113-7.997,0v-7.997c2.65-.036,5.347.056,7.997,0Z"/>
      <path class="d" d="M545.782,72.097h7.997v7.997h-7.997c-.005-2.655.009-5.342,0-7.997Z"/>
      <path class="g" d="M929.628,585.891v7.997c-2.65.036-5.347-.056-7.997,0v-7.997c2.646-.073,5.355.113,7.997,0Z"/>
      <path class="g" d="M7.997,585.891h7.997v7.997c-2.642-.113-5.351.073-7.997,0-.03-2.65.046-5.348,0-7.997Z"/>
      <path class="i" d="M393.842,1893.368h7.997c.036,2.648-.056,5.35,0,7.997h-7.997c-.056-2.648.016-5.347,0-7.997Z"/>
      <path class="g" d="M441.823,1845.388c-.018,2.65.008,5.347,0,7.997h-7.997v-7.997h7.997Z"/>
      <path class="h" d="M529.788,40.11c2.642.113,5.351-.073,7.997,0,.03,2.65-.046,5.348,0,7.997-2.642-.113-5.351.073-7.997,0v-7.997Z"/>
      <path class="d" d="M385.846,1853.384c.019,2.655-.016,5.342,0,7.997h-7.997c-.03-2.649.046-5.349,0-7.997h7.997Z"/>
      <path class="f" d="M23.99,569.898h7.997c.073,2.646-.113,5.354,0,7.997,2.648.068,5.348-.044,7.997,0-.016,2.65-.019,5.347,0,7.997-2.642-.113-5.351.073-7.997,0-.073-2.646.113-5.354,0-7.997-2.648-.068-5.348.044-7.997,0-.03-2.65.046-5.347,0-7.997Z"/>
      <path class="i" d="M529.788,1861.381h7.997c.036,2.65-.056,5.348,0,7.997-.004,5.852-6.68,5.603-7.997,0-.056-2.646.014-5.35,0-7.997Z"/>
      <path class="d" d="M385.846,1869.378h7.997c.03,2.65-.046,5.347,0,7.997h-7.997c-.036-2.65.056-5.348,0-7.997Z"/>
      <path class="h" d="M537.785,1869.378c.056,2.648-.016,5.347,0,7.997h-7.997c-.036-2.647.056-5.35,0-7.997h7.997Z"/>
      <path class="h" d="M513.794,24.116c2.649.046,5.347-.03,7.997,0,.073,2.646-.113,5.355,0,7.997h-7.997v-7.997Z"/>
      <path class="k" d="M385.846,24.116v7.997c-2.649.041-5.349-.064-7.997,0-5.852-.004-5.603-6.68,0-7.997,2.649-.056,5.348.056,7.997,0Z"/>
      <path class="g" d="M441.823,1877.375c-.046,2.648.03,5.348,0,7.997h-7.997c.046-2.649-.03-5.348,0-7.997h7.997Z"/>
      <path class="g" d="M377.849,24.116v7.997c-.666.016-1.333-.009-1.999,0-1.985.026-4.013-.048-5.998,0v-7.997c2.649-.036,5.348.056,7.997,0Z"/>
      <path class="h" d="M489.804,8.122c2.648.056,5.347-.036,7.997,0,.073,2.646-.113,5.355,0,7.997h-7.997v-7.997Z"/>
      <path class="i" d="M121.951,689.85v-7.997h5.998v7.997c-1.984-.04-4.013.024-5.998,0Z"/>
      <path class="d" d="M609.756,1991.329c.029,1.985-.049,4.014,0,5.998h-7.997v-5.998h7.997Z"/>
      <path class="i" d="M1083.567,507.923v5.998c-2.648.036-5.35-.056-7.997,0v-5.998c2.245-.439,6.55.68,7.997,0Z"/>
      <path class="i" d="M521.791,1821.397c-.055,2.64-.055,5.357,0,7.997h-5.998v-7.997h5.998Z"/>
      <path class="d" d="M627.749,929.754h5.998c.03,2.65-.046,5.347,0,7.997h-7.997v-3.998h5.998v-1.999c-3.885,1.096-3.418-1.418-3.998-1.999Z"/>
      <path class="i" d="M945.622,459.942h9.996v3.998h-9.996c.038-1.319-.081-2.684,0-3.998Z"/>
      <path class="d" d="M409.836,1943.348c.024,1.984-.04,4.014,0,5.998h-5.998c.517-1.1-.312-4.225,0-5.998h5.998Z"/>
      <path class="j" d="M7.997,555.903c-.025,1.986.01,4.012,0,5.998H1.999c-3.093-6.256-.168-9.116,5.998-5.998Z"/>
      <path class="g" d="M7.997,553.904c-.016.666.008,1.333,0,1.999H1.999v5.998l-1.999-1v-6.997h7.997Z"/>
      <polygon class="d" points="713.715 417.959 706.717 417.959 705.718 415.959 712.715 415.959 713.715 417.959"/>
      <polygon class="d" points="769.692 521.917 762.695 521.917 761.695 519.918 768.693 519.918 769.692 521.917"/>
      <polygon class="d" points="665.734 345.987 658.737 345.987 657.737 343.988 664.734 343.988 665.734 345.987"/>
      <path class="d" d="M261.895,296.007c.665-.022,1.333.012,1.999,0l-1,1.999-1-1.999Z"/>
      <path class="i" d="M609.756,827.795l-1.999-1.999h1.999c-.026.665.017,1.333,0,1.999Z"/>
      <path class="h" d="M689.724,369.978c-.662-.055-1.342.073-1.999,0l1-1.999,1,1.999Z"/>
      <path class="g" d="M545.782,306.003l8.996,7.997c7.66.095,15.353-.132,22.991,0,3.026.879,6.715,3.248,7.997,5.998,3.304,1.554,2.775,1.723,7.997,1.999,1.977.105,4.016-.062,5.998,0v4.998l2.999,2.999c6.995.072,14.018-.101,20.992,0,.666.01,1.334-.022,1.999,0v5.998c-4.317,5.912-11.13,15.924-3.297,22.267,1.301,1.053,2.381,2.312,3.297,3.722-.032,5.31.022,10.684,0,15.994h-15.994v7.997h-7.997v15.994h-7.997v15.994h-7.997v-23.99h-7.997v-15.994h-15.994v31.987h-15.994c.057-10.637-.042-21.35,0-31.987h-15.994v5.998h7.997v9.996h-7.997v-7.997h-15.994l1-1.999h6.997v-5.998l15.994-1.999v-21.991h15.994v-31.987h-7.997c-.054-5.309.077-10.685,0-15.994Z"/>
      <path class="g" d="M529.788,689.85c.038-5.31-.027-10.684,0-15.994h7.997v-39.984h7.997v23.99h7.997v7.997h23.99v-7.997c2.645-.073,5.355.113,7.997,0,.071-5.309-.05-10.684,0-15.994,2.649-.036,5.349.056,7.997,0-.035,5.31.025,10.684,0,15.994-2.645.073-5.355-.113-7.997,0-.071,5.309.05,10.684,0,15.994h-7.997c-.022,5.31.032,10.683,0,15.994h-15.994v7.997h-7.997v7.997h7.997v7.997h-23.99c.796-9.123.449-8.607-7.997-7.997,0-2.655-.009-5.342,0-7.997-1.85-4.467,6.283-4.609,6.484-3.951,1.402,4.589-5.895-.032-6.484-4.046,3.886,2.525,3.892,5.478,0,7.997-1.891,0-7.714.283-7.997,0v-7.997c.283-.283,6.106,0,7.997,0Z"/>
      <path class="g" d="M327.869,585.891c1.89,0,7.714-.283,7.997,0v31.987h7.997c.042,10.637-.057,21.35,0,31.987.014,2.648-.056,5.35,0,7.997-2.607,0-15.428.565-15.994,0v-7.997h-7.997v-7.997h-7.997c.796-9.124.448-8.607-7.997-7.997.018-2.655-.017-5.342,0-7.997,2.918-4.131,5.583-9.462,7.997-15.994,2.606,0,15.428.565,15.994,0v-15.994h-7.997c.056-2.648-.056-5.348,0-7.997.004-5.852,6.68-5.603,7.997,0Z"/>
      <path class="g" d="M319.872,593.888c-.056,2.648.036,5.348,0,7.997-2.646.073-5.355-.113-7.997,0,.056-2.648-.036-5.348,0-7.997.283-.283,6.106,0,7.997,0Z"/>
      <path class="g" d="M351.859,657.863c-.479,1.019-.011,5.892,0,7.997h-7.997c-.036-2.649.056-5.349,0-7.997h7.997Z"/>
      <path class="g" d="M545.782,417.959c-.056,2.648.036,5.348,0,7.997-2.649.03-5.348-.046-7.997,0-.23,13.295.168,26.687,0,39.984h-7.997v7.997h-7.997v-7.997h-7.997v7.997h-7.997v7.997c-2.645.073-5.355-.113-7.997,0-.071,5.309.05,10.684,0,15.994-2.645.073-5.355-.113-7.997,0-.048,7.973.034,16.017,0,23.99-2.645.073-5.355-.113-7.997,0-.032,5.31.022,10.683,0,15.994h-7.997v-15.994c2.645-.073,5.355.113,7.997,0,.048-7.973-.034-16.017,0-23.99,2.645-.073,5.355.113,7.997,0,.032-5.31-.022-10.683,0-15.994,2.645-.073,5.355.113,7.997,0,.071-5.309-.05-10.684,0-15.994h4.998l2.999-2.999v-4.998h7.997v-15.994h7.997v-15.994c5.309-.064,10.686.092,15.994,0,.046-2.649-.03-5.348,0-7.997h7.997Z"/>
      <path class="f" d="M457.817,721.837c2.38,3.195,5.504,4.976,9.372,5.343,1.732,5.947,6.604,9.498,14.618,10.651,2.65.018,5.347-.009,7.997,0,5.852.004,5.603,6.68,0,7.997,5.852.004,5.603,6.68,0,7.997,5.852.004,5.603,6.68,0,7.997,5.852.004,5.603,6.68,0,7.997-2.521,3.894-5.473,3.891-7.997,0-12.665-6.44-15.33-11.771-7.997-15.994-3.664-3.799-8.688-5.145-15.073-4.04-4.358-5.343-9.996-9.328-16.914-11.954v-7.997c2.649-.046,5.347.03,7.997,0v-7.997c2.649-.036,5.348.056,7.997,0Z"/>
      <path class="g" d="M505.798,729.834v-15.994h7.997v7.997h15.994v7.997c-7.977-.022-16.014.015-23.99,0Z"/>
      <path class="h" d="M465.814,721.837c.004-5.852,6.68-5.603,7.997,0,.113,2.642-.073,5.351,0,7.997,2.649.03,5.348-.046,7.997,0v7.997c-5.31-.035-10.683.025-15.994,0v-7.997c-9.123.796-8.607.449-7.997-7.997,2.647-.056,5.348,0,7.997,0Z"/>
      <path class="j" d="M625.75,335.991c0,8.638.052,17.352,0,25.99-15.194,2.472-8.805-13.13-9.996-22.991l9.996-2.999Z"/>
      <path class="g" d="M505.798,409.962c2.572,5.821,5.238,11.152,7.997,15.994-.051,1.984.03,4.013,0,5.998-2.205.3-5.06-.473-6.997,0-1.364.333-.898,1.952-1,1.999-1.447.681-5.752-.439-7.997,0,.048-7.974-.034-16.017,0-23.99h7.997Z"/>
      <path class="j" d="M417.833,673.856c5.308-.092,10.684.064,15.994,0v7.997c-7.971.099-16.02-.138-23.99,0-.055,2.642-.055,5.355,0,7.997h-7.997v-7.997c2.65-.03,5.348.046,7.997,0,.056-2.649-.036-5.347,0-7.997,2.65-.03,5.348.046,7.997,0Z"/>
      <path class="g" d="M183.926,487.931c2.267.404,4.199,3.28,7.997,1.999.073,2.646-.113,5.354,0,7.997,2.65.046,5.347-.03,7.997,0v7.997h-7.997c-.073-2.646.113-5.354,0-7.997-5.309-.092-10.684.064-15.994,0-.353-.353,0-7.978,0-9.996,1.322-4.165,6.887-4.418,7.997,0Z"/>
      <path class="g" d="M481.807,625.875c-2.642-.113-5.351.073-7.997,0v-7.997h7.997c.03,2.65-.046,5.348,0,7.997,2.642.113,5.351-.073,7.997,0,.064,5.31-.092,10.685,0,15.994,2.642.113,5.351-.073,7.997,0v7.997h-7.997c-.03-2.65.046-5.348,0-7.997-2.642-.113-5.351.073-7.997,0-.064-5.31.092-10.685,0-15.994Z"/>
      <path class="g" d="M385.846,625.875c.773-3.859-2.768-7.668,2.999-7.997,4.307-.246,8.699.17,12.995,0v7.997c-2.649.036-5.348-.056-7.997,0s-5.347-.019-7.997,0Z"/>
      <rect class="j" x="417.833" y="569.898" width="15.994" height="7.997"/>
      <path class="f" d="M311.875,609.882c-.038,5.311.027,10.683,0,15.994h-7.997c.034-5.309-.092-10.686,0-15.994-.005-5.852,6.675-5.588,7.997,0Z"/>
      <path class="h" d="M617.753,487.931v9.996h-9.996c-1.057-8.476,1.52-11.053,9.996-9.996Z"/>
      <path class="g" d="M175.93,481.933c-2.649-.068-5.347.044-7.997,0v-7.997h7.997v5.998h6.997l1,1.999c-2.012,4.144-6.006,4.17-7.997,0Z"/>
      <path class="g" d="M609.756,409.962c.079-.079-.337-1.68,1-1.999h6.997v-5.998h7.997v7.997c-.283.283-6.106,0-7.997,0,0,5.852-6.675,5.598-7.997,0Z"/>
      <path class="j" d="M617.753,409.962v7.997c-4.286.15-7.46.817-9.996-2.999v-3.998c.335-1.341,1.92-.921,1.999-1h7.997Z"/>
      <path class="h" d="M609.756,529.914h-7.997v-9.996c7.759-1.007,8.754,3.433,7.997,9.996Z"/>
      <rect class="g" x="505.798" y="489.93" width="7.997" height="7.997"/>
      <rect class="g" x="175.93" y="505.923" width="7.997" height="7.997"/>
      <path class="g" d="M191.923,553.904v7.997h-7.997v-7.997c2.649.056,5.348-.056,7.997,0Z"/>
      <path class="g" d="M465.814,721.837v-7.997h7.997c.073,2.645-.113,5.355,0,7.997h-7.997Z"/>
      <path class="j" d="M417.833,705.843c.056,2.649-.056,5.348,0,7.997,2.643.113,5.35-.073,7.997,0,.044,2.65-.068,5.348,0,7.997h-7.997c-.036-2.649.056-5.348,0-7.997-2.643-.113-5.35.073-7.997,0v-7.997h7.997Z"/>
      <rect class="g" x="175.93" y="457.943" width="7.997" height="7.997"/>
      <rect class="g" x="191.923" y="465.939" width="7.997" height="7.997"/>
      <path class="d" d="M593.762,633.872h7.997v7.997c-2.642-.055-5.355-.055-7.997,0,.018-2.654-.009-5.342,0-7.997Z"/>
      <rect class="g" x="553.778" y="633.872" width="7.997" height="7.997"/>
      <path class="e" d="M271.891,617.879c-.056,2.649.036,5.347,0,7.997h-7.997c-.004-2.655.008-5.342,0-7.997.004-5.852,6.68-5.603,7.997,0Z"/>
      <path class="d" d="M271.891,609.882c.055,2.643.055,5.354,0,7.997h-7.997c-.008-2.65.018-5.347,0-7.997.005-5.829,6.692-5.601,7.997,0Z"/>
      <path class="g" d="M689.724,601.885c-.113,2.642.073,5.351,0,7.997h-7.997c.113-2.642-.073-5.351,0-7.997h7.997Z"/>
      <rect class="g" x="657.737" y="601.885" width="7.997" height="7.997"/>
      <rect class="j" x="641.743" y="601.885" width="7.997" height="7.997"/>
      <path class="g" d="M457.817,601.885c-2.643-.113-5.35.073-7.997,0v-7.997h7.997c.073,2.647-.113,5.354,0,7.997,2.643.113,5.35-.073,7.997,0v7.997h-7.997c-.073-2.647.113-5.354,0-7.997Z"/>
      <path class="h" d="M311.875,601.885c-.056,2.648.019,5.348,0,7.997h-7.997c.046-2.649-.03-5.347,0-7.997,2.646-.073,5.355.113,7.997,0Z"/>
      <path class="f" d="M263.894,601.885c2.643.113,5.35-.073,7.997,0,.036,2.65-.056,5.348,0,7.997h-7.997c-.018-2.649.056-5.349,0-7.997Z"/>
      <path class="g" d="M255.898,593.888c2.642.113,5.351-.073,7.997,0,.036,2.649-.056,5.348,0,7.997-2.643-.113-5.35.073-7.997,0v-7.997Z"/>
      <rect class="e" x="593.762" y="585.891" width="7.997" height="7.997"/>
      <rect class="g" x="401.839" y="577.895" width="7.997" height="7.997"/>
      <path class="j" d="M319.872,585.891c.056-2.648-.036-5.348,0-7.997h7.997v7.997h-7.997Z"/>
      <rect class="j" x="649.74" y="569.898" width="7.997" height="7.997"/>
      <path class="g" d="M207.917,561.901c2.642.113,5.351-.073,7.997,0,.073,2.646-.113,5.355,0,7.997,2.643.113,5.35-.073,7.997,0v7.997c-2.642-.113-5.351.073-7.997,0-.073-2.646.113-5.355,0-7.997-2.643-.113-5.35.073-7.997,0v-7.997Z"/>
      <path class="j" d="M183.926,481.933v5.998c-2.424-.432-5.427.278-7.997,0v-5.998c2.649.068,5.347-.044,7.997,0Z"/>
      <path class="h" d="M441.823,737.831c5.308-.092,10.685.064,15.994,0v7.997h15.994c.073,2.645-.113,5.355,0,7.997-2.207,5.064-4.872,10.395-7.997,15.994l-7.997,7.997c-.138,7.969.099,16.02,0,23.99h-7.997v15.994h-7.997v22.991l-2.999,2.999h-4.998v12.995l-2.999,2.999h-4.998v12.995l-2.999,2.999h-4.998c-.363,7.023,3.073,17.319-7.997,15.994-2.259-4.104-5.486-6.563-9.682-7.378l-2.878-6.617c-9.371,1.663-15.847.331-19.428-3.998.113-2.642-.073-5.351,0-7.997h7.997v-7.997h7.997v-15.994h7.997v-15.994h7.997v-15.994h7.997v-23.99h7.997v-7.997h-15.994v-31.987h23.99v-7.997c2.649-.03,5.348.046,7.997,0Z"/>
      <path class="e" d="M433.826,1139.67c-43.284.027-86.664-.021-129.948,0v5.998c-2.89.289-6.238-.437-8.996,0-5.026.795-8.423,1.771-14.994,1.999-.836.029-1.68.032-2.526.028v32.486c41.849,3.959,83.872,4.627,125.857,2.138l2.618-6.423c6.794-.175,13.551-1.524,19.992-4.238,4.407-4.185,5.74-11.328,3.998-21.431,7.425-1.246,11.657-6.973,3.998-10.556Z"/>
      <path class="f" d="M377.849,873.776h23.99v7.997h7.997c-.044,3.314.066,6.683,0,9.996-.052,2.649.034,5.347,0,7.997h-7.997v15.994h-7.997v7.997h-7.997c-.032,1.985.053,4.014,0,5.998-1.496,3.463-4.162,6.795-7.997,9.996-.052,2.648.034,5.348,0,7.997h-7.997v7.997h-7.997v7.997h-9.996v7.997h-7.997v7.997h-23.99v7.997h-23.99v-9.996h7.997v-15.994h7.997v-15.994h7.997v-7.997h7.997v-7.997h7.997v-7.997h7.997v-7.997h7.997v-7.997h9.996v-15.994h7.997v-7.997h7.997c.073-2.645-.113-5.355,0-7.997Z"/>
      <path class="e" d="M529.788,1139.67c.134,10.633-.184,21.356,0,31.987-5.312.003-10.681-.004-15.994,0-21.273,3.94-42.7,3.921-63.974,0-6.524-3.245-6.293-28.014,0-31.987,26.624-.013,53.344.049,79.968,0Z"/>
      <path class="f" d="M369.852,745.827c7.968-.138,16.021.099,23.99,0v31.987h-23.99v7.997c-11.299.142-22.69-.196-33.986,0-5.074-2.933-5.087-5.066,0-7.997.614-3.186,3.28-5.852,7.997-7.997-5.048-2.941-5.06-5.057,0-7.997,2.648-.046,5.348.03,7.997,0v-7.997h9.996v-7.997c2.649-.03,5.349.046,7.997,0Z"/>
      <path class="f" d="M545.782,737.831c7.414,2.709,5.569,20.568-3.998,20.556,1.663,9.372.33,15.848-3.998,19.428-2.655.016-5.342-.007-7.997,0-5.06-2.94-5.048-5.056,0-7.997-2.067-3.491-4.733-3.491-7.997,0-.004,5.852-6.68,5.603-7.997,0-2.999-1.574-5.664-4.24-7.997-7.997-5.852-.004-5.603-6.68,0-7.997,2.381-3.391,5.046-6.057,7.997-7.997-5.852-.004-5.603-6.68,0-7.997,10.64.009,21.347.012,31.987,0Z"/>
      <path class="k" d="M343.862,761.821c-.044,2.65.068,5.348,0,7.997-.614,3.186-3.28,5.852-7.997,7.997-.068,2.649.044,5.347,0,7.997-2.648.046-5.348-.03-7.997,0v7.997h-7.997c-1.89,0-7.714.283-7.997,0v-15.994h-15.994v-7.997h23.99v-7.997c7.97-.099,16.022.138,23.99,0Z"/>
      <path class="j" d="M585.766,777.815c-.021,10.64.015,21.348,0,31.987h-7.997v7.997h-25.99c-1.557-12.902,15.157-6.642,23.99-7.997v-31.987c.371-1.775,1.049-1.702,1.999,0,1.881-5.616,6.161-5.704,7.997,0Z"/>
      <path class="h" d="M553.778,737.831c.184,10.603.184,21.384,0,31.987-1.226,3.481-3.892,6.147-7.997,7.997-2.647.056-5.348-.016-7.997,0v-23.99h7.997v-15.994c2.655-.003,5.342.005,7.997,0Z"/>
      <path class="j" d="M489.804,769.818c7.928-3.937,16.06-3.93,23.99,0,5.852.004,5.603,6.68,0,7.997-10.64-.022-21.347.016-31.987,0-.073-2.645.113-5.355,0-7.997,2.655-.008,5.342.005,7.997,0Z"/>
      <path class="h" d="M585.766,753.824c.138,7.963.016,16.025,0,23.99-2.615-.203-5.362.046-7.997,0-5.852-.004-5.603-6.68,0-7.997v-15.994c.005-5.829,6.692-5.601,7.997,0Z"/>
      <path class="k" d="M473.81,753.824c.113,2.642-.073,5.351,0,7.997h7.997c.073,2.645-.113,5.355,0,7.997-5.308.016-10.688-.092-15.994,0-.046,2.649.03,5.347,0,7.997h-7.997c.046-2.648-.03-5.348,0-7.997,2.649-.03,5.348.046,7.997,0,.092-5.309-.064-10.684,0-15.994h7.997Z"/>
      <path class="k" d="M393.842,721.837v-7.997h7.997v7.997c-2.646.073-5.355-.113-7.997,0,0,1.891-.283,7.714,0,7.997h27.989c-.11.017.377,1.663-1,1.999-4.401,1.076-25.86-1.129-26.989,0v5.998c-2.65.03-5.348-.046-7.997,0v-15.994c2.646-.073,5.355.113,7.997,0Z"/>
      <path class="j" d="M545.782,785.811v15.994h-9.996v-12.995c2.536-3.816,5.71-3.149,9.996-2.999Z"/>
      <path class="h" d="M441.823,1097.687c-.016,5.972.103,12.023,0,17.993-.004,5.852-6.68,5.603-7.997,0,.032-5.976-.023-12.017,0-17.993h7.997Z"/>
      <path class="h" d="M521.791,769.818c.004-5.852,6.68-5.603,7.997,0,.068,2.649-.044,5.347,0,7.997-5.31.015-10.683.011-15.994,0v-7.997h7.997Z"/>
      <path class="k" d="M319.872,801.805l-1,1.999h-6.997v5.998h-7.997c.056-2.649-.036-5.347,0-7.997h15.994Z"/>
      <path class="h" d="M385.846,929.754c-.089,3.311.059,6.683,0,9.996h-7.997c.066-3.312-.044-6.683,0-9.996h7.997Z"/>
      <path class="d" d="M441.823,1067.699c.049-3.313-.033-6.683,0-9.996h7.997c.033,3.313-.049,6.683,0,9.996-.004,5.852-6.68,5.603-7.997,0Z"/>
      <path class="f" d="M553.778,769.818c-.046,2.649.03,5.348,0,7.997-2.649.036-5.349-.056-7.997,0v-7.997h7.997Z"/>
      <path class="i" d="M449.82,1067.699c.039,2.648-.012,5.348,0,7.997h-7.997c.013-2.649-.039-5.349,0-7.997h7.997Z"/>
      <path class="i" d="M441.823,1115.679c-.046,2.648.03,5.348,0,7.997h-7.997c.009-2.655-.014-5.342,0-7.997h7.997Z"/>
      <path class="h" d="M593.762,817.799c0-1.891-.283-7.714,0-7.997h7.997v7.997h-7.997Z"/>
      <path class="f" d="M577.769,769.818v7.997c-.666-.012-1.334.022-1.999,0-1.984-.065-4.012.038-5.998,0v-7.997h7.997Z"/>
      <path class="g" d="M577.769,745.827c2.641.113,5.352-.073,7.997,0,.03,2.649-.046,5.349,0,7.997h-7.997v-7.997Z"/>
      <path class="g" d="M303.878,845.787c-.04,1.322.206,2.805,0,3.998h-5.998v-3.998h5.998Z"/>
      <path class="e" d="M427.094,1179.654c-1.858-2.185-2.769-5.095-2.739-7.997-7.491.017-15.032-.018-22.516,0v7.997c-41.462.019-83.008-.021-124.477,0v39.986c44.134.015,88.347.05,132.474-.002-.611-8.445-1.127-8.792,7.997-7.997.283-6.947-.397-14.037,0-20.992.329-5.767,4.137-2.227,7.997-2.999.046-2.646-.03-5.349,0-7.997h1.265Z"/>
      <path class="e" d="M449.82,1171.657c-.241-.12-.483-.22-.725-.332.742,2.725.578,5.728-.489,8.329h1.214c.012,13.302-.017,26.682,0,39.984,2.654-.002,5.344.003,7.997,0,4.718-3.349,10.763-5.213,18.136-5.594l1.856-3.932c6.354,10.976,14.09,4.965,18.397-3.765l1.595-2.702c2.642-.113,5.351.073,7.997,0v-15.994h7.997v-15.994c-21.296.018-42.679-.017-63.974,0Z"/>
      <path class="k" d="M263.894,1477.535c3.861.772,7.668-2.768,7.997,2.999.594,10.409.594,23.578,0,33.986-.329,5.766-4.136,2.227-7.997,2.999-.022-13.302.021-26.682,0-39.984Z"/>
      <path class="k" d="M265.894,1299.606l2.666.886c-.442,5.746.668,10.782,3.332,15.108-.026,7.975.018,16.015,0,23.99h-7.997c.006-14.966-.097-29.993,0-44.982.02-3.123-1.443-9.695,1.999-10.996,4.519,1.295,4.464,14.757,0,15.994Z"/>
      <path class="g" d="M263.894,1613.48c-.007,7.971.026,16.019,0,23.99-.004,5.852-6.68,5.603-7.997,0,.09-5.819-1.195-18.653,0-22.991.224-.813,2.315-1.923,2.999-2.999l4.998,1.999Z"/>
      <path class="k" d="M263.894,1637.471c-.026,7.975.018,16.016,0,23.99h-7.997c.038-7.97-.123-16.022,0-23.99h7.997Z"/>
      <path class="k" d="M255.898,1691.449c-.002.666.002,1.333,0,1.999-1.414,3.002-1.414,5.668,0,7.997-.039,5.31.028,10.684,0,15.994h-7.997c.022-8.641-.016-17.348,0-25.99h7.997Z"/>
      <path class="j" d="M271.891,1283.612c-.015,5.313.006,10.68,0,15.994-.153,5.769-4.687,5.408-5.998,0,0-2.606-.565-15.428,0-15.994h5.998Z"/>
      <path class="g" d="M271.891,1299.606c-.006,5.313.017,10.681,0,15.994h-5.998v-15.994h5.998Z"/>
      <path class="k" d="M263.894,1411.561c-.046,2.647.03,5.349,0,7.997h-7.997c.056-2.649-.036-5.347,0-7.997h7.997Z"/>
      <path class="g" d="M255.898,1427.555c-.018,2.65-.018,5.346,0,7.997h-7.997v-7.997h7.997Z"/>
      <path class="g" d="M255.898,1443.548h7.997c.03,2.648-.046,5.35,0,7.997h-7.997c-.036-2.65.056-5.348,0-7.997Z"/>
      <path class="g" d="M247.901,1749.426h7.997v7.997c-2.641-.113-5.352.073-7.997,0-.03-2.648.046-5.349,0-7.997Z"/>
      <path class="j" d="M255.898,1693.448c-.008,2.65.02,5.347,0,7.997h-5.998v-7.997h5.998Z"/>
      <path class="e" d="M598.542,1171.657c-22.897.004-45.865-.014-68.754,0,.046,2.648-.03,5.348,0,7.997h15.994v7.997h-7.997v7.997h-7.997c-.03,2.648.046,5.349,0,7.997h23.99v-7.997h7.997v7.997h7.997v-5.998c1.303-3.447,7.867-1.973,10.996-1.999,4.332-.037,8.686.025,12.995,0v-15.994c1.582-.018,3.182-.004,4.78.005v-8.002Z"/>
      <path class="h" d="M457.817,1219.638c.772-3.859-2.768-7.668,2.999-7.997,4.307-.246,8.699.17,12.995,0v-7.997h7.997v7.997h7.997v-7.997c2.646-.073,5.355.113,7.997,0v15.994c-13.302.013-26.682-.018-39.984,0Z"/>
      <path class="g" d="M319.872,2037.311v7.997c-2.647.03-5.35-.046-7.997,0v-7.997c2.649-.03,5.348.046,7.997,0Z"/>
      <path class="k" d="M55.978,2037.311c2.647.056,5.349-.036,7.997,0v7.997c-2.647-.046-5.35.03-7.997,0v-7.997Z"/>
      <path class="f" d="M207.917,1965.34v7.997c-2.649-.046-5.347.03-7.997,0v-7.997c2.648.068,5.347-.044,7.997,0Z"/>
      <path class="h" d="M327.869,1997.327v7.997c-2.649,0-5.349.056-7.997,0-5.852-.004-5.603-6.68,0-7.997h7.997Z"/>
      <path class="f" d="M319.872,1997.327v7.997c-2.649-.056-5.347.036-7.997,0v-7.997h7.997Z"/>
      <path class="h" d="M279.888,1989.33c2.649.056,5.347-.036,7.997,0v7.997c-2.649-.014-5.349.056-7.997,0-5.852-.004-5.603-6.68,0-7.997Z"/>
      <path class="f" d="M279.888,1989.33v7.997c-2.648-.056-5.347.036-7.997,0v-7.997c2.65.016,5.349-.056,7.997,0Z"/>
      <path class="d" d="M247.901,1981.333c2.649.046,5.347-.03,7.997,0v7.997c-2.649-.046-5.347.03-7.997,0v-7.997Z"/>
      <path class="d" d="M223.91,1973.336c2.649.046,5.347-.03,7.997,0v7.997c-2.649-.046-5.347.03-7.997,0v-7.997Z"/>
      <path class="f" d="M921.631,505.923h7.997c.036,2.649-.056,5.348,0,7.997h-7.997c-.03-2.649.046-5.348,0-7.997Z"/>
      <path class="f" d="M777.689,553.904c0,1.891.283,7.714,0,7.997h-7.997v-7.997c2.646-.073,5.354.113,7.997,0Z"/>
      <rect class="f" x="737.705" y="585.891" width="7.997" height="7.997"/>
      <path class="f" d="M753.699,569.898c.113-2.643-.073-5.35,0-7.997h7.997v7.997c-2.647.073-5.354-.113-7.997,0-.113,2.643.073,5.35,0,7.997h-7.997v-7.997c2.647-.073,5.354.113,7.997,0Z"/>
      <path class="g" d="M223.91,1941.349v7.997h-4.998l-2.999,2.999v4.998h-7.997c.056-2.649-.036-5.347,0-7.997h7.997v-7.997c2.65-.036,5.348.056,7.997,0Z"/>
      <rect class="k" x="263.894" y="1925.356" width="15.994" height="7.997"/>
      <path class="k" d="M361.855,1973.336v7.997c-3.315.033-6.681-.049-9.996,0v-7.997c3.315-.028,6.681.041,9.996,0Z"/>
      <path class="j" d="M289.884,1917.359h-9.996v-7.997c6.563-.757,11.003.238,9.996,7.997Z"/>
      <path class="j" d="M313.874,1885.372h-9.996v-7.997c6.563-.757,11.003.238,9.996,7.997Z"/>
      <path class="j" d="M305.878,1901.365h-9.996v-7.997c6.563-.757,11.003.238,9.996,7.997Z"/>
      <path class="k" d="M345.862,1981.333l-1.999,7.997c-2.647.073-5.353-.113-7.997,0v-7.997c3.315-.033,6.681.049,9.996,0Z"/>
      <path class="k" d="M239.904,1933.352v7.997c-2.65.036-5.348-.056-7.997,0v-7.997c2.65-.036,5.348.056,7.997,0Z"/>
      <path class="k" d="M255.898,1925.356c-.056,2.649.036,5.347,0,7.997-2.65.036-5.348-.056-7.997,0v-7.997h7.997Z"/>
      <path class="k" d="M263.894,1909.362c-.056,2.649.036,5.347,0,7.997h-7.997c.056-2.649-.036-5.347,0-7.997h7.997Z"/>
      <path class="k" d="M279.888,1885.372c-.056,2.649.036,5.347,0,7.997-2.646.073-5.354-.113-7.997,0,.113-2.643-.073-5.35,0-7.997h7.997Z"/>
      <path class="g" d="M271.891,1893.368c-.113,2.643.073,5.35,0,7.997h-7.997c.056-2.649-.036-5.347,0-7.997,2.646-.073,5.354.113,7.997,0Z"/>
      <path class="j" d="M287.885,1871.377c-.065,1.983.038,4.013,0,5.998h-5.998c-3.112-5.486-.445-9.383,5.998-5.998Z"/>
      <rect class="d" x="289.884" y="1831.393" width="5.998" height="5.998"/>
      <path class="g" d="M287.885,1869.378c-.01.666.022,1.334,0,1.999h-5.998v5.998h-1.999c.056-2.649-.036-5.347,0-7.997h7.997Z"/>
      <path class="k" d="M521.791,1909.362c1.891,0,7.714-.283,7.997,0,.044,2.649-.068,5.349,0,7.997,5.082,2.926,5.07,5.068,0,7.997-2.649-.056-5.347.036-7.997,0v-5.998h-6.997l-1-1.999c1.225-3.481,3.891-6.147,7.997-7.997Z"/>
      <path class="k" d="M537.785,1917.359c1.891,0,7.714-.283,7.997,0v7.997c-2.65.036-5.348-.056-7.997,0-5.852.001-5.594-6.677,0-7.997Z"/>
      <path class="j" d="M537.785,1917.359v7.997c-2.643.055-5.354.055-7.997,0-.044-2.649.068-5.349,0-7.997h7.997Z"/>
      <rect class="j" x="513.794" y="1909.362" width="7.997" height="7.997"/>
      <rect class="g" x="497.801" y="1901.365" width="7.997" height="7.997"/>
      <path class="g" d="M537.785,1893.368c-.046,2.649.03,5.347,0,7.997-2.65.036-5.348-.056-7.997,0-5.852-.004-5.603-6.68,0-7.997,2.649,0,5.349-.056,7.997,0Z"/>
      <path class="j" d="M529.788,1893.368v7.997c-2.643.055-5.354.055-7.997,0-5.852-.004-5.603-6.68,0-7.997,2.648-.056,5.348,0,7.997,0Z"/>
      <path class="k" d="M521.791,1893.368v7.997c-2.649-.056-5.347.036-7.997,0v-7.997c2.65-.036,5.348.056,7.997,0Z"/>
      <rect class="g" x="497.801" y="1885.372" width="7.997" height="7.997"/>
      <path class="k" d="M505.798,409.962c.046-2.649-.03-5.347,0-7.997h7.997c-.146,7.968.204,16.026,0,23.99h-7.997c.064-5.309-.092-10.685,0-15.994Z"/>
      <path class="k" d="M479.808,226.035c-1.057-8.476,1.52-11.053,9.996-9.996.033,3.315-.049,6.682,0,9.996-2.648.032-5.348.005-7.997,0-.666-.001-1.333,0-1.999,0Z"/>
      <path class="g" d="M505.798,393.968v5.998h-7.997v-5.998c2.175-.044,6.922.506,7.997,0Z"/>
      <path class="g" d="M497.801,383.972v9.996c-2.648.054-5.348-.035-7.997,0-.089-3.312.059-6.682,0-9.996h7.997Z"/>
      <path class="g" d="M505.798,359.982c-.041,3.312.028,6.683,0,9.996h-7.997c.043-3.315-.029-6.681,0-9.996h7.997Z"/>
      <rect class="f" x="417.833" y="298.007" width="7.997" height="7.997"/>
      <rect class="f" x="473.81" y="314" width="7.997" height="7.997"/>
      <rect class="f" x="449.82" y="345.987" width="7.997" height="7.997"/>
      <rect class="f" x="481.807" y="353.984" width="7.997" height="7.997"/>
      <path class="j" d="M497.801,176.055c2.515-3.935,5.473-3.926,7.997,0,5.31.038,10.683-.027,15.994,0v7.997h-31.987v-7.997c2.649-.036,5.349.056,7.997,0Z"/>
      <rect class="e" x="457.817" y="96.087" width="23.99" height="7.997"/>
      <rect class="k" x="433.826" y="200.046" width="7.997" height="7.997"/>
      <path class="e" d="M497.801,176.055v-7.997h7.997v7.997c-2.647-.019-5.352-.056-7.997,0Z"/>
      <path class="k" d="M377.849,136.071c0,2.65-.02,5.347,0,7.997h-7.997v-7.997h7.997Z"/>
      <path class="f" d="M385.846,128.074v7.997c-.283.283-6.106,0-7.997,0v-7.997c2.648-.056,5.348.056,7.997,0Z"/>
      <path class="f" d="M481.807,120.078c2.643.113,5.35-.073,7.997,0v7.997h-7.997c-.073-2.647.113-5.354,0-7.997Z"/>
      <path class="k" d="M521.791,112.081v7.997c-2.649-.056-5.347.036-7.997,0v-7.997c2.646-.073,5.354.113,7.997,0Z"/>
      <path class="e" d="M481.807,120.078c-2.643-.113-5.35.073-7.997,0v-7.997h7.997c.073,2.647-.113,5.354,0,7.997Z"/>
      <rect class="e" x="457.817" y="112.081" width="7.997" height="7.997"/>
      <path class="f" d="M521.791,96.087h7.997c.283.283,0,6.106,0,7.997h-7.997c-.03-2.649.046-5.348,0-7.997Z"/>
      <path class="f" d="M449.82,80.094c-.113,2.642.073,5.352,0,7.997h-7.997v-7.997c2.647-.068,5.348.044,7.997,0Z"/>
      <path class="j" d="M343.862,80.094c-.056,2.65.036,5.346,0,7.997h-5.998v-7.997h5.998Z"/>
      <path class="g" d="M343.862,66.099v5.998h-5.998v-5.998c1.773-.312,4.898.517,5.998,0Z"/>
      <path class="k" d="M39.984,585.891c2.642.113,5.351-.073,7.997,0v15.994h-7.997c-.027-5.311.038-10.683,0-15.994Z"/>
      <path class="f" d="M167.933,585.891c5.31.038,10.684-.027,15.994,0,.03,2.649-.046,5.348,0,7.997h-15.994c-.03-2.648.046-5.349,0-7.997Z"/>
      <path class="f" d="M183.926,617.879h7.997v15.994h-7.997c.017-5.31.01-10.684,0-15.994Z"/>
      <path class="f" d="M175.93,665.859c-.113,2.641.073,5.352,0,7.997-2.648.044-5.35-.068-7.997,0v-7.997h7.997Z"/>
      <path class="k" d="M151.939,657.863c2.642.113,5.351-.073,7.997,0,.036,2.649-.056,5.349,0,7.997h-7.997v-7.997Z"/>
      <path class="f" d="M151.939,577.895h7.997v7.997c-2.648-.056-5.348.036-7.997,0-.073-2.645.113-5.355,0-7.997Z"/>
      <rect class="e" x="63.974" y="561.901" width="7.997" height="7.997"/>
      <rect class="i" x="57.977" y="523.916" width="5.998" height="5.998"/>
      <rect class="f" x="215.914" y="601.885" width="7.997" height="7.997"/>
      <path class="f" d="M207.917,593.888c.113-2.643-.073-5.35,0-7.997h7.997v7.997c-2.647.073-5.354-.113-7.997,0-.113,2.643.073,5.35,0,7.997h-7.997v-7.997c2.647-.073,5.354.113,7.997,0Z"/>
      <path class="j" d="M369.852,705.843c-2.649-.046-5.347.03-7.997,0v-7.997h7.997c.283.283,0,6.106,0,7.997,5.309.092,10.684-.064,15.994,0v7.997h-7.997v7.997h-15.994v-7.997h7.997v-7.997Z"/>
      <rect class="k" x="295.882" y="753.824" width="15.994" height="7.997"/>
      <path class="e" d="M995.602,471.937v9.996c-13.414,2.021-14.028-11.802,0-9.996Z"/>
      <path class="k" d="M1027.589,465.939v7.997c-2.926,5.082-5.068,5.07-7.997,0,0-1.891-.283-7.714,0-7.997,2.245-.439,6.55.681,7.997,0Z"/>
      <path class="d" d="M1027.589,473.936c0,1.891.283,7.714,0,7.997h-7.997v-7.997c2.649-.044,5.349.068,7.997,0Z"/>
      <rect class="i" x="1061.575" y="475.935" width="5.998" height="5.998"/>
      <path class="j" d="M254.363,1179.654c-2.155,0-4.314-.001-6.462,0v7.997c.697,1.955,3.258,3.307,6.462,4.036v-12.032Z"/>
      <rect class="k" x="617.753" y="649.866" width="7.997" height="7.997"/>
      <path class="g" d="M577.769,729.834v7.997c-2.647.056-5.348-.016-7.997,0,0-1.89-.283-7.714,0-7.997h7.997Z"/>
      <path class="g" d="M593.762,697.847c-.056,2.648.036,5.348,0,7.997h-7.997c.046-2.648-.03-5.348,0-7.997,2.648-.044,5.35.068,7.997,0Z"/>
      <rect class="g" x="569.772" y="713.84" width="7.997" height="7.997"/>
      <path class="j" d="M577.769,314c2.649.046,5.347-.03,7.997,0v5.998c-1.447-.681-5.752.439-7.997,0v-5.998Z"/>
      <rect class="i" x="1029.588" y="443.948" width="5.998" height="3.998"/>
      <rect class="k" x="561.775" y="361.981" width="7.997" height="7.997"/>
      <path class="j" d="M529.788,689.85c1.891,0,7.714-.283,7.997,0v7.997h-7.997c.009-2.65-.019-5.347,0-7.997Z"/>
      <path class="k" d="M537.785,729.834v-7.997h7.997v7.997c-2.647-.056-5.348.016-7.997,0Z"/>
      <path class="e" d="M505.798,761.821c2.649.046,5.347-.03,7.997,0,.283.283,0,6.106,0,7.997-7.977,0-16.014-.014-23.99,0v-7.997c5.117-5.436,10.897-5.49,15.994,0Z"/>
      <path class="e" d="M505.798,745.827c.004-5.851,6.68-5.603,7.997,0,0,1.891.283,7.714,0,7.997-2.65.03-5.347-.046-7.997,0-5.097,5.49-10.877,5.436-15.994,0v-7.997c.805-6.119,14.671-5.849,15.994,0Z"/>
      <path class="k" d="M505.798,737.831c5.852.004,5.603,6.68,0,7.997h-15.994v-7.997c5.314.017,10.679-.006,15.994,0Z"/>
      <path class="h" d="M505.798,753.824v7.997c-5.309-.092-10.684.064-15.994,0v-7.997c5.31-.064,10.685.092,15.994,0Z"/>
      <path class="j" d="M513.794,737.831v7.997h-7.997v-7.997c2.655.003,5.342-.002,7.997,0Z"/>
      <path class="e" d="M417.833,849.786v9.996c-13.414,2.021-14.028-11.802,0-9.996Z"/>
      <rect class="e" x="385.846" y="881.773" width="7.997" height="9.996"/>
      <rect class="e" x="361.855" y="921.757" width="7.997" height="9.996"/>
      <path class="h" d="M343.862,769.818c-.068,2.649.044,5.347,0,7.997h-7.997c.068-2.649-.044-5.347,0-7.997h7.997Z"/>
      <path class="j" d="M521.791,769.818v-7.997h7.997c.044,2.65-.068,5.348,0,7.997h-7.997Z"/>
      <rect class="j" x="521.791" y="745.827" width="7.997" height="7.997"/>
    </g>
  </g>
</svg>