<?xml version="1.0" encoding="UTF-8"?>
<svg id="b" data-name="Layer 2" xmlns="http://www.w3.org/2000/svg" width="1643.423" height="975.141" viewBox="0 0 1643.423 975.141">
  <defs>
    <style>
      .d {
        fill: #b22861;
      }

      .e {
        fill: #aa1f65;
      }

      .f {
        fill: #2b0f54;
      }

      .g {
        fill: #fe8042;
      }

      .h {
        fill: #3368db;
      }

      .i {
        fill: #49e6eb;
      }

      .j {
        fill: #fed945;
      }

      .k {
        fill: #fef6f7;
      }
    </style>
  </defs>
  <g id="c" data-name="Layer 1">
    <g>
      <path class="e" d="M1317.839,886.86c-4.79-13.306-6.672-27.42-11.003-40.869-1.935-6.007,1.381-12.591,6.68-15.546,7.097-27.554,7.17-58.482-1.028-85.598-4.765-6.237-8.496-13.692-11.194-22.366,5.44-3.531,5.448-7.66,0-11.183,6.904-22.484,6.97-44.627,0-67.099-3.532-5.443-7.665-5.446-11.194,0l-8.354,5.776-39.718-.273c-3.266.96-5.873,2.891-7.895,5.68-7.067,7.791-7.06,14.683,0,22.366,2.468,4.536,6.199,8.264,11.194,11.183-7.526,10.998-7.549,22.68,0,33.549,2.468,4.536,6.199,8.264,11.194,11.183-7.939,10.262-8.102,23.517,0,33.549,2.468,4.536,6.199,8.264,11.194,11.183-7.587,7.185-7.7,15.233,0,22.366,2.468,4.537,6.199,8.264,11.194,11.183-.705.795-1.319,1.579-1.879,2.358,6.049,12.742,9.324,26.511,11.609,40.377,2.322,14.09,3.957,28.419,4.022,42.714.012,2.648-.606,4.888-1.652,6.734,11.82-1.003,11.12-.262,10.286,11.261,3.705-.02,7.491.078,11.194,0,3.704-.078,7.489.05,11.194,0v-20.896c-2.574-1.716-4.655-4.333-5.843-7.634Z"/>
      <path class="d" d="M504.393,880.101c2.683-5.132,5.16-10.635,4.452-16.561.802-.021,1.542-.114,2.25-.242,4.643-18.335,8.463-36.879,10.852-55.621.49-3.847,2.162-7.352,5.005-9.456-.702-1.846-1.898-3.718-3.614-5.656,5.588-2.54,8.746-5.694,9.472-9.463,6.516-6.037,6.42-12.847,0-18.927,5.588-2.54,8.746-5.694,9.472-9.463,6.637-1.558,6.931-9.459,0-9.463,5.862-6.512,5.866-12.328,0-18.927l9.472-9.463c6.442-9.187,6.385-19.079,0-28.39,5.588-2.54,8.746-5.694,9.472-9.463,5.91-19.027,5.971-37.765,0-56.78-4.032-5.278-7.189-11.587-9.472-18.927-12.909-5.872-35.785-7.437-49.281-3.116-3.63,1.162-3.473,41.619-2.816,47.721.155,1.44,2.892,2.209,4.736,2.712,2.309,3.844,5.466,6.999,9.472,9.463-4.551,2.987-4.551,6.476,0,9.463-5.588,2.539-8.745,5.693-9.472,9.463-6.555,15.596-6.44,31.69,0,47.317-2.873,8.705-5.698,13.422-9.472,18.927-4.608,2.986-4.612,6.48,0,9.463-4.607,2.985-4.608,6.479,0,9.463-4.864,8.475-6.152,18.102-4.068,27.255,1.358,1.727,2.201,3.989,2.212,6.789.553,1.289,1.161,2.563,1.856,3.809l-1.996,1.994c-1.084,25.106-7.887,49.485-11.077,74.347l3.601,1.731c-1.906.447-3.27,1.424-4.109,2.58-.079.715-.169,1.429-.241,2.145-.077.768-.208,1.522-.391,2.253.644,1.419,2.203,2.483,4.741,2.485-6.928,1.566-7.252,17.974,0,18.927,3.464,6.037,6.006,6.029,9.472,0l4.736-3.21c-1.74-10.417-.161-18.811,4.736-25.18Z"/>
      <path class="d" d="M568.503,854.025c1.346-7.04,3.412-13.869,5.717-20.768,3.083-9.226,6.107-18.432,6.255-28.24.049-3.262,1.205-5.804,2.972-7.629-.726-1.576-1.817-3.176-3.276-4.822,5.588-2.539,8.746-5.694,9.472-9.463,5.975-6.502,5.98-12.333,0-18.927,4.62-2.986,4.625-6.482,0-9.463-1.133-1.8-2.462-3.856-4.538-4.651-.045-.583-.139-1.304-.303-2.203-.788-4.332-2.148-8.384-4.632-12.072,5.927-6.594,5.913-12.417,0-18.927-3.745-5.182-6.903-11.491-9.472-18.927,6.021-3.468,6.031-5.998,0-9.463-1.56-6.631-9.468-6.925-9.472,0-5.891,9.636-5.859,18.742,0,28.39-5.98,3.483-5.972,5.981,0,9.463-5.588,2.539-8.745,5.693-9.472,9.463-4.613,2.984-4.611,6.478,0,9.463-4.646,6.211-4.638,12.711,0,18.927-6.442,9.187-6.385,19.079,0,28.39-4.925,2.238-7.959,4.954-9.108,8.147,1.652,1.958,2.63,4.384,2.301,6.964-1.766,13.853-4.159,27.571-7.046,41.182.264,1.339.162,2.928-.355,4.801-.244.027-.475.07-.709.108-1.765,7.979-3.697,15.922-5.773,23.833.531.875,1.112,1.715,1.746,2.501,9.395,4.641,19.028,4.662,28.417,0,3.126-8.376,5.362-17.103,4.452-26.024.992.097,1.935.07,2.824-.052Z"/>
      <path class="j" d="M1226.647,880.101c3.485-5.975,5.987-5.966,9.472,0,6.169,4.99,14.918,6.552,26.247,4.688,4.539,5.195,9.611,9.559,15.216,13.093l1.162,6.161c8.209-.877,16.133,1.416,23.68,4.448,6.287.021,12.66-.109,18.944,0,5.629-8.733,13.253-4.832,14.876,4.732,12.036-1.258,39.029-.586,23.013,14.195,3.903-7.75,33.3-7.413,37.889,0,4.527,2.4,9.056,5.486,13.587,9.258l.905,14.4c5.143-.741,12.913,10.189,15.609,14.67,2.2,3.657,2.256,6.496-1.684,8.988-138.886.043-277.89-.02-416.776,0-8.072-1.252-6.156-11.409,1.039-13.804l56.91-.185c1.717-2.961,8.432-2.696,6.544-.206-3.634,4.795-21.334-9.252-7.66-14.195-.228,1.833-.721,4.468-2.122,4.732-11.534,2.172-57.071,1.228-70.22,0l-3.436-4.732c-3.837.369-4.913-1.332-5.166-4.732h-117.541l-2.799-4.732-9.472-9.463c-8.683-5.365-4.898-13.804,4.736-14.479-8.334,1.216-16.303-.211-23.68-4.448-3.774-.726-6.931-3.881-9.472-9.463-3.487,5.966-5.986,5.974-9.472,0-18.818,6.423-38.038,6.526-56.833,0-2.99,4.611-6.489,4.618-9.472,0-4.16-2.51-7.317-5.665-9.472-9.463-6.931-.004-6.637-7.905,0-9.463,12.431-1.277,24.868-2.451,37.329-3.268,12.454-.816,24.897-1.586,37.339-1.626,112.013-.364,224.09-.159,336.102.411,12.445.063,24.888.742,37.338,1.489,12.462.748,24.904,1.824,37.341,2.994Z"/>
      <path class="j" d="M500.671,904.258c-1.848-.823-3.612.579-5.75,4.233-3.136,0-6.337.066-9.472,0-6.363-6.082-6.363-12.391,0-18.927v-9.463l-3.237-4.437c-.422,3.047-.806,6.099-1.112,9.161-.62,6.207-4.767,11.5-11.5,11.5-5.772,0-12.118-5.311-11.5-11.5.344-3.443.777-6.877,1.266-10.306-10.271-.062-20.874.219-27.988.849-1.451.129-2.256,2.882-2.762,4.732h-18.944c-2.672-7.239-26.499-7.492-28.417,0h-9.472c-1.568-6.922-17.99-7.246-18.944,0h-18.944c-1.56-6.631-9.468-6.925-9.472,0-9.447,0-18.969-.008-28.417,0-9.394-4.644-19.026-4.654-28.417,0-3.144.004-6.328-.005-9.472,0-10.191-4.644-20.601-4.667-30.785,0-3.144.009-6.328-.003-9.472,0-12.774-5.885-25.127-5.931-37.889,0-3.136.017-6.337-.066-9.472,0-3.915,2.132-7.072,5.286-9.472,9.463-3.13.134-6.338-.086-9.472,0v9.463h-18.944c-.086,3.131.134,6.337,0,9.463-5.554,4.47-13.451,6.557-23.692,6.26l-4.724,3.203c-3.847,2.307-7.005,5.462-9.472,9.463-3.137.066-6.335-.066-9.472,0-3.843,2.086-7,5.241-9.472,9.463-3.138.066-6.334-.066-9.472,0-3.843,2.086-7,5.241-9.472,9.463-3.138.066-6.334-.066-9.472,0-3.843,2.086-7,5.241-9.472,9.463-3.138.066-6.334-.066-9.472,0-3.843,2.086-7,5.241-9.472,9.463-3.134.066-6.338-.066-9.472,0-6.637,1.559-6.931,9.459,0,9.463,44.112.764,88.482-.031,132.611,0,8.39-2.674,13.126-7.311,14.208-13.911,12.065,1.5,18.379-1.655,18.944-9.463,6.089-.25,10.104-3.183,9.472-9.463,6.088-.251,10.102-3.177,9.472-9.463,12.064,1.5,18.379-1.655,18.944-9.463,6.089-.25,10.104-3.183,9.472-9.463,11.581-2.972-3.886,10.274-9.416,14.868l-.056,3.491c-6.088.251-10.102,3.177-9.472,9.463-6.088.251-10.102,3.177-9.472,9.463-11.694-1.537-18.127,1.603-19.299,9.42-9.029-.068-13.934,11.407-4.381,14.522,54.427.027,108.968-.017,163.395,0,4.608-1.806,6.186-6.399,4.736-13.778,6.089-.575,10.112-3.226,9.472-9.597l14.414-.904c3.892-5.643,17.333-21.732,14.003-9.26-6.089.575-10.112,3.226-9.472,9.597-11.383-.978-13.451,21.054-4.736,23.942,37.852.01,75.814-.006,113.666,0,4.608-1.81,6.187-6.402,4.736-13.778,16.348,2.469,22.663-6.911,18.944-28.14,11.55-2.184,11.322-11.567,6.453-21.219-2.771-1.522-4.896-4.055-5.439-7.339Z"/>
      <path class="j" d="M501.076,899.061c2.079-6.857,4.09-13.748,6.01-20.667-.903.513-1.802,1.069-2.692,1.708-4.205,6.846-5.379,13.427-3.61,20.126.08-.383.172-.77.292-1.166Z"/>
      <path class="j" d="M508.677,912.663c1.35.653,2.733.819,4.022.548-1.358.026-2.721-.161-4.022-.548Z"/>
      <path class="j" d="M532.81,880.101c-.682-.479-1.368-.912-2.057-1.322-2.128,8.051-4.403,16.069-6.8,24.059,2.91-1.416,4.54-4.099,4.121-8.259,9.59-.655,13.442-9.093,4.736-14.479Z"/>
      <path class="h" d="M542.282,383.274c11.695-6.062,27.396-6.017,40.683-4.681,7.972.801,11.082,1.733,11.832,9.413,7.369-1.453,11.966.124,13.791,4.732,1.113-.12,2.193-.141,3.157.183,4.831,1.622,2.655,91.031,1.579,101.135l-4.736,2.779c.004-6.925,7.912-6.631,9.472,0,1.825.195,4.086.598,4.736,2.139,1.179,2.794.577,53.94,0,60.646l-4.736,3.458c.004-6.925,7.912-6.631,9.472,0,1.845.439,4.091,1.057,4.736,2.7.97,2.47.542,47.68,0,53.069l-4.736,3.377c.004-6.925,7.912-6.631,9.472,0,1.841.503,4.575,1.268,4.736,2.712.623,5.578.624,40.75-1.579,43.038-.767.797-1.908,1.233-3.157,1.566.004-6.925,7.912-6.631,9.472,0l4.736,2.698c1.351,7.802,2.136,31.794-4.736,35.156-.126-7.433,10.569-6.005,13.595-.185l.613,23.952c6.341,1.429,10.995,9.944,4.736,14.086-14.801,4.92-30.21,6.401-45.473,3.121,4.811,1.577,2.571,3.411-1.888,6.342-.954,7.246-17.376,6.922-18.944,0-3.454,6.016-6.021,6.024-9.472,0-2.283-7.34-5.44-13.649-9.472-18.927-.042-6.284.042-12.643,0-18.927-2.283-7.34-5.44-13.649-9.472-18.927-.023-3.135.066-6.33,0-9.463-4.017-2.817-7.174-5.972-9.472-9.463.015-18.891.113-37.89,0-56.78l-4.632-12.072c2.149-2.152.536-4.437-4.84-6.855-4.641-3.794-4.63-8.026,0-11.829-4.614-2.983-4.609-6.476,0-9.463-6.45-6.055-6.394-12.847,0-18.927-4.226-2.47-7.384-5.625-9.472-9.463-6.544-6.035-6.487-12.865,0-18.927,1.784-3.602,1.784-6.756,0-9.463-5.882-15.877-5.81-31.424,0-47.317-2.283-7.34-5.44-13.649-9.472-18.927-5.988-19.02-5.981-37.759,0-56.78,1.784-3.602,1.784-6.756,0-9.463-11.323-8.156,1.311-20.776,9.472-9.463Z"/>
      <path class="g" d="M693.837,936.881c3.409.123,4.804,1.663,5.054,4.732h57.79l3.462,4.732c7.768,6.814,27.479,9.634,25.244-4.736l3.172-4.727c3.723-6.78,13.419-1.356,14.208,5.631,11.264-2.423,22.548-.47,33.153,3.833l9.472,9.463c4.685-4.978,10.914-6.723,16.25-2.692-4.034-5.33-2.288-11.554,2.695-16.235h125.506v9.463h75.777v9.463h9.472v9.463c-20.656.863-42.186-1.173-62.753,0-6.83.39-2.638,4.892-3.552,9.463h-296.006c-2.913-1.902-5.536-3.545-7.869-4.93l-54.539.266c-6.112-.192-9.158-4.229-8.633-9.815-8.331,1.215-16.302-.21-23.68-4.448-6.931-.004-6.637-7.905,0-9.463,12.573-4.631,25.324-4.66,37.889,0,7.769,6.814,27.478,9.634,25.245-4.736l3.172-4.727c.004-6.925,7.912-6.631,9.472,0Z"/>
      <path class="j" d="M712.781,880.101c8.481,5.733,5.323,12.042-9.472,18.927-15.719,4.659-31.637,4.635-47.361,0-2.986,4.607-6.483,4.604-9.472,0-6.06,6.443-12.86,6.387-18.944,0-2.472,4.222-5.63,7.377-9.472,9.463l-12.083,4.628c-2.154-2.148-4.441-.536-6.861,4.836,5.972,3.483,5.981,5.981,0,9.463-7.007,5.44-6.762,13.365,0,18.927l9.472,9.463c3.486-5.966,5.986-5.974,9.472,0,9.444.051,18.973-.036,28.417,0v9.463c20.658.863,42.186-1.173,62.753,0,6.83.39,2.637,4.895,3.552,9.463-63.11-.007-126.334.013-189.444,0-9.592-3.504-4.906-14.341,4.736-14.612-1.962-11.532,1.195-17.841,9.472-18.927-1.962-11.532,1.195-17.841,9.472-18.927-1.927-12.157,1.325-18.327,9.756-18.509-.878-8.208,1.42-16.12,4.452-23.658,49.289-7.724,102.361-8.343,151.555,0Z"/>
      <path class="g" d="M1406.618,880.101c7.127,4.159,11.957,8.891,14.492,14.195,6.175-.695,9.787,3.742,9.188,9.747,33.727-2.318,66.88-.835,99.458,4.448,6.289.037,12.655-.026,18.944,0v9.463c5.086.201,10.29-.291,15.392,0,6.83.39,2.638,4.894,3.552,9.463-35.719,6.267-76.168,6.578-112.856,4.828-3.028-.144-5.977-.581-8.671-1.674-.301-.122,3.768-3.767,3.409,1.602,7.824.564,10.981,6.865,9.472,18.903,5.141-.743,12.908,10.183,15.609,14.67,2.189,3.637,2.272,6.481-1.684,8.988-15.755.008-31.605-.005-47.361,0l-3.552-9.463h-5.92v-9.463h-9.472v-18.927h-9.472v-9.463h-37.889v-9.463h-28.417v-9.463c-3.138-.035-6.335.054-9.472,0v-9.463c-3.136-.054-6.335.035-9.472,0v-9.463c4.172-13.226,23.518,2.93,9.472,9.463,10.436-6.832,31.285-9.192,33.821,4.732,18.196,3.395,18.122-1.313-.221-14.124-1.857-4.929-1.05-8.024,4.289-9.534,15.758-.02,31.603,0,47.361,0Z"/>
      <path class="j" d="M1567.645,927.418c3.137.054,6.335-.035,9.472,0v9.463c3.133.086,6.344-.134,9.472,0,3.767.982,6.924,4.137,9.472,9.463,3.127.134,6.341-.086,9.472,0v9.463h18.944v9.463c3.131.086,6.346-.134,9.472,0,6.931.004,6.637,7.905,0,9.463-53.571.927-107.436-.027-161.027,0l-3.552-9.463h-5.92v-9.463h-9.472v-18.927h-9.472v-9.463c40.994.527,82.151-.709,123.138,0Z"/>
      <path class="g" d="M507.851,858.808h-3.458c-.004,1.287.001,2.585.001,3.876h4.684c-.619-1.205-1.03-2.52-1.227-3.876Z"/>
      <path class="g" d="M504.384,885.684h-9.463v22.807c3.136,0,6.338.066,9.472,0,.045-7.577-.009-15.208-.009-22.807Z"/>
      <path class="g" d="M561.225,885.684h-28.421c.009,1.297.02,2.595.006,3.88h-9.472v9.463h-9.472v9.463c-3.137.042-6.336-.066-9.472,0-.038,6.284.026,12.643,0,18.927h-9.472v28.39h-18.944v18.927c15.755.002,31.605-.003,47.361,0-.723-9.995-1.334-10.405,9.472-9.463v-18.927h9.472v-18.927h9.472v-18.927h9.472c.017-7.582-.004-15.205-.001-22.807Z"/>
      <path class="h" d="M712.781,811.492c16.91-10.24,21.587-2.528,28.417,9.463,5.791,19.812,5.857,39.346,0,59.146v9.463l-.376,3.154c-6.668,1.513-3.385,3.616,9.849,6.309,3.842,2.227,7.175,5.543,9.472,9.463l9.472,9.463c3.486-5.967,5.986-5.975,9.472,0,6.931.004,6.637,7.905,0,9.463-6.599,5.975-12.437,5.969-18.944,0-5.816,8.845-12.83,4.727-15.176-4.732-1.392-1.06-33.829-2.975-29.351,7.266-8.988.911-16.248,3.22-21.778,6.929h-9.472c-4.576-2.982-4.566-6.472,0-9.463l-9.472-9.463c-17.976,6.786-38.914,7.027-56.833,0-.004,6.925-7.912,6.631-9.472,0,.005,6.916-7.914,6.614-9.472,0,.066-3.133-.042-6.329,0-9.463,6.289-.029,12.655.042,18.944,0,2.983-4.613,6.48-4.603,9.472,0,6.056-6.459,12.859-6.394,18.944,0,2.472-4.222,5.63-7.377,9.472-9.463,15.758-.026,31.602.019,47.361,0,5.995,3.475,6.01,5.99,0,9.463q-5.778,8.89,0,0c3.509-3.813,5.06-6.585,6.371-11.457,10.562-2.964,10.338-8.794,3.101-16.933.232-13.358.023-26.856,0-40.219-.011-6.283.037-12.644,0-18.927-5.981-3.482-5.972-5.981,0-9.463Z"/>
      <path class="g" d="M1245.591,660.078c-.037,6.284.011,12.642,0,18.927,2.239,0,9.137-.335,9.472,0,.017,12.591-.024,25.263,0,37.853,2.239,0,9.137-.335,9.472,0,.02,15.744-.027,31.573,0,47.317,3.128.134,6.34-.086,9.472,0-.036,9.435.051,18.956,0,28.39,2.239,0,9.137-.335,9.472,0v37.853h9.472v40.219h9.472v37.853c-9.448-.032-18.968.023-28.417,0v-9.463h-9.472v-9.463c-8.228-.335-16.627.47-24.864,0-6.83-.39-2.637-4.895-3.552-9.463l4.736-5.395c-.874-9.587-.251-18.871,1.871-27.852,8.264-2.173,17.112-3.142,26.546-2.908.573-.72.305-17.425-.968-18.259h-28.819c-9.116-1.179-11.238-9.554-3.365-14.195l2.7-4.732h30.318l4.871-4.732c-5.972-3.483-5.98-5.981,0-9.463-.004,6.925-7.912,6.631-9.472,0-6.611-9.209-6.513-19.138,0-28.39-16.355,15.719-17.284-17.42-9.472-37.853-4.613-2.983-4.611-6.477,0-9.463-.004,6.925-7.912,6.631-9.472,0-6.61-9.209-6.511-19.137,0-28.39-4.619-2.984-4.618-6.479,0-9.463-.004,6.925-7.912,6.631-9.472,0-5.981-6.517-5.938-12.386,0-18.927.004-6.925,7.912-6.631,9.472,0Z"/>
      <path class="j" d="M1491.868,880.101c3.767.982,6.924,4.137,9.472,9.463,3.13.134,6.338-.086,9.472,0v9.463c5.089.201,10.29-.291,15.392,0,6.831.389,2.637,4.897,3.552,9.463-34.694-.207-69.499.153-104.194,0v-9.463h-9.472v-9.463c-10.806.941-10.196.532-9.472-9.463,28.358,0,56.902-.491,85.25,0Z"/>
      <path class="g" d="M142.083,974.735l3.552-9.463h5.92v-9.463h18.944v-9.463h9.472v-9.463h9.472v-9.463h18.944v-9.463h9.472v-9.463h18.944v9.463h-9.472v9.463h-9.472v9.463h-9.472v9.463h-9.472v9.463h-18.944v9.463c-10.807-.942-10.195-.531-9.472,9.463-9.445-.005-18.971.007-28.417,0Z"/>
      <path class="j" d="M1359.258,880.101c-.723,9.995-1.334,10.405,9.472,9.463v9.463h9.472v9.463h-28.417v-9.463c-9.44-.117-18.979.163-28.417,0,0-2.238.335-9.129,0-9.463h-9.472c0-2.237-.335-9.129,0-9.463,15.758-.014,31.603.02,47.361,0Z"/>
      <path class="g" d="M333.894,974.735v-18.927h9.472v-9.463h18.944v-9.463h9.472v-9.463h9.472v18.927h-9.472v9.463h-9.472v18.927c-9.445-.002-18.971.003-28.417,0Z"/>
      <path class="f" d="M1264.536,650.614c6.214-4.639,12.719-4.619,18.944,0,6.931.004,6.637,7.905,0,9.463h-37.889c-6.014-3.458-6.024-6.008,0-9.463,6.217-4.642,12.723-4.634,18.944,0Z"/>
      <path class="g" d="M179.971,880.101c.915-4.568-3.278-9.074,3.552-9.463,9.502-.542,21.282-.542,30.785,0,6.83.39,2.637,4.895,3.552,9.463-12.598.011-25.291-.068-37.889,0Z"/>
      <path class="g" d="M227.332,880.101c.915-4.568-3.278-9.074,3.552-9.463,7.371-.42,16.31-.42,23.68,0,6.831.39,2.637,4.896,3.552,9.463-10.236.015-20.549-.03-30.785,0Z"/>
      <path class="g" d="M267.589,880.101c.915-4.567-3.278-9.074,3.552-9.463,6.657-.38,14.655-.38,21.312,0,6.831.39,2.637,4.896,3.552,9.463-9.447.008-18.969-.012-28.417,0Z"/>
      <path class="g" d="M381.255,880.101c.915-4.567-3.278-9.074,3.552-9.463,6.657-.38,14.655-.38,21.312,0,6.831.39,2.637,4.896,3.552,9.463h-28.417Z"/>
      <path class="k" d="M561.227,688.468c-.011,9.434.051,18.957,0,28.39-3.482,5.988-5.989,5.974-9.472,0,.019-9.431-.163-18.963,0-28.39.004-6.925,7.912-6.631,9.472,0Z"/>
      <path class="g" d="M132.61,908.491c-.134,3.127.086,6.332,0,9.463-9.442.117-18.976-.163-28.417,0-.134,3.127.086,6.332,0,9.463-3.138.042-6.335-.066-9.472,0v-9.463c3.138-.035,6.334.054,9.472,0,.134-3.127-.086-6.332,0-9.463h28.417Z"/>
      <path class="g" d="M485.449,889.564v18.927c-3.136-.066-6.335.042-9.472,0v-18.927h9.472Z"/>
      <rect class="g" x="352.839" y="870.638" width="18.944" height="9.463"/>
      <path class="j" d="M551.754,745.248c-.006,6.289.012,12.637,0,18.927h-9.472c-6.921-.004-6.636-7.91,0-9.463v-9.463c.004-6.925,7.912-6.631,9.472,0Z"/>
      <path class="f" d="M580.171,735.785h9.472c.029,6.285-.042,12.642,0,18.927-3.137-.066-6.335.042-9.472,0-.029-6.284.042-12.643,0-18.927Z"/>
      <path class="h" d="M494.921,735.785c4.622,2.98,4.615,6.476,0,9.463.009,3.141-.005,6.322,0,9.463-.004,6.925-7.912,6.631-9.472,0,0-3.085-.67-18.258,0-18.927h9.472Z"/>
      <path class="k" d="M551.754,726.321c4.611,2.985,4.612,6.479,0,9.463-.003,3.142.003,6.322,0,9.463h-9.472c0-6.282-.109-12.647,0-18.927-.002-6.925,7.909-6.62,9.472,0Z"/>
      <path class="g" d="M504.393,726.321c-.038,6.284.026,12.643,0,18.927h-9.472c-.009-3.135.021-6.328,0-9.463s.066-6.331,0-9.463h9.472Z"/>
      <path class="f" d="M570.699,697.931h9.472c.029,6.284-.042,12.643,0,18.927h-9.472c-.032-6.284.045-12.643,0-18.927Z"/>
      <path class="f" d="M551.754,603.298c3.136.054,6.335-.035,9.472,0,.026,6.283-.038,12.644,0,18.927h-9.472c-.03-6.285.043-12.642,0-18.927Z"/>
      <path class="j" d="M1292.952,650.614c.023,3.133-.01,6.33,0,9.463h-9.472v-9.463c3.485-5.976,5.986-5.967,9.472,0Z"/>
      <path class="j" d="M513.866,660.078c.066,3.124.066,6.34,0,9.463-.004,6.925-7.912,6.631-9.472,0,.066-3.133-.042-6.329,0-9.463h9.472Z"/>
      <path class="g" d="M513.866,669.541c-.066,3.131.042,6.331,0,9.463h-9.472c.017-3.134-.066-6.331,0-9.463h9.472Z"/>
      <path class="i" d="M1292.952,669.541h9.472v9.463h-9.472c-.004-3.14.005-6.323,0-9.463Z"/>
      <path class="g" d="M561.227,679.005c4.612,2.985,4.613,6.48,0,9.463h-9.472c.054-3.135-.035-6.328,0-9.463h9.472Z"/>
      <path class="f" d="M561.227,679.005c2.239,0,9.137-.335,9.472,0,.042,3.135-.066,6.33,0,9.463h-9.472c.004-3.141-.002-6.323,0-9.463Z"/>
      <path class="g" d="M551.754,716.858c4.61,2.986,4.612,6.48,0,9.463.003-6.925,7.911-6.629,9.472,0-.066,3.132.042,6.33,0,9.463h-9.472c.003-3.142-.004-6.322,0-9.463h-9.472c.054-3.135-.035-6.327,0-9.463,3.138-.052,6.336.08,9.472,0Z"/>
      <path class="j" d="M561.227,716.858c-.017,3.133.066,6.332,0,9.463h-9.472c.004-3.142-.006-6.322,0-9.463,3.136-.08,6.334.052,9.472,0Z"/>
      <path class="j" d="M1292.952,716.858h9.472c.042,3.133-.066,6.331,0,9.463-.004,6.925-7.912,6.631-9.472,0-.066-3.13.017-6.331,0-9.463Z"/>
      <path class="g" d="M1302.424,726.321c.066,3.131-.017,6.331,0,9.463h-9.472c-.042-3.132.066-6.332,0-9.463h9.472Z"/>
      <path class="g" d="M494.921,754.711c.005,3.141.004,6.322,0,9.463h-9.472v-9.463h9.472Z"/>
      <path class="g" d="M542.282,754.711v9.463h-9.472c.054-3.135-.035-6.327,0-9.463h9.472Z"/>
      <path class="j" d="M599.115,754.711c6.931.004,6.637,7.905,0,9.463h-9.472c0-3.136.021-6.327,0-9.463,3.135.066,6.335,0,9.472,0Z"/>
      <path class="g" d="M532.81,783.101c-.054,3.135.035,6.327,0,9.463h-9.472c.054-3.135-.035-6.328,0-9.463h9.472Z"/>
      <path class="g" d="M589.643,783.101c-.054,3.135.035,6.328,0,9.463h-9.472c.054-3.133-.035-6.33,0-9.463h9.472Z"/>
      <path class="g" d="M551.754,792.565c-.054,3.135.035,6.328,0,9.463h-9.472c.066-3.134-.042-6.328,0-9.463h9.472Z"/>
      <path class="j" d="M494.921,802.028c-.054,3.134.035,6.329,0,9.463-3.138.035-6.335-.054-9.472,0,.134-3.125-.086-6.334,0-9.463h9.472Z"/>
      <rect class="g" x="381.255" y="849.345" width="9.472" height="9.463"/>
      <rect class="g" x="324.422" y="870.638" width="9.472" height="9.463"/>
      <path class="g" d="M170.499,880.101v9.463c-3.134.086-6.343-.134-9.472,0v-9.463c3.137-.042,6.337.066,9.472,0Z"/>
      <path class="g" d="M1491.868,880.101c3.136.054,6.335-.035,9.472,0v9.463c-3.13-.134-6.338.086-9.472,0v-9.463Z"/>
      <path class="g" d="M85.25,927.418v9.463c-3.139.042-6.334-.066-9.472,0v-9.463c3.138-.042,6.335.066,9.472,0Z"/>
      <path class="g" d="M66.305,936.881v9.463c-3.139.042-6.334-.066-9.472,0v-9.463c3.139-.042,6.334.066,9.472,0Z"/>
      <path class="g" d="M1586.59,936.881c3.128.134,6.34-.086,9.472,0v9.463c-3.127-.134-6.341.086-9.472,0v-9.463Z"/>
      <path class="g" d="M47.361,946.344v9.463c-3.139.042-6.334-.066-9.472,0v-9.463c3.139-.042,6.334.066,9.472,0Z"/>
      <path class="g" d="M28.417,955.808v9.463c-3.135.042-6.338-.066-9.472,0v-9.463c3.139-.042,6.334.066,9.472,0Z"/>
      <path class="g" d="M9.472,965.271v9.463c-3.135-.054-6.337.035-9.472,0v-9.463c3.135-.042,6.338.066,9.472,0Z"/>
      <path class="g" d="M1633.951,965.271c3.127.134,6.341-.086,9.472,0v9.463c-3.135.035-6.337-.054-9.472,0v-9.463Z"/>
      <path class="k" d="M485.449,238.958c.054-3.134-.035-6.329,0-9.463h9.472c.035,3.134-.054,6.33,0,9.463-3.135.066-6.337-.066-9.472,0Z"/>
      <path class="k" d="M1169.814,477.908c4.611-2.984,4.608-6.478,0-9.463.183-69.964.02-140.036.005-210.011-.051-.466-.081-.946-.081-1.446V10.436h-125.507c-1.827,0-3.426-.352-4.802-.965h-383.48c-1.562-6.624-9.472-6.925-9.472,0h-123.138v39.257c1.032,1.631,1.657,3.65,1.657,6.074v529.39c6.091,4.984,25.062,4.484,26.759-2.188-.02-6.282.109-12.647,0-18.927-2.089-3.839-5.246-6.993-9.472-9.463-.109-6.279.019-12.646,0-18.927,4.608-2.986,4.612-6.48,0-9.463-.026-15.74.094-31.577,0-47.317-4.032-5.278-7.19-11.587-9.472-18.927-.113-18.886-.102-37.894,0-56.78,5.98-3.482,5.972-5.981,0-9.463.066-3.132-.042-6.33,0-9.463,3.136-.035,6.336.054,9.472,0,4.435-1.875,6.123-6.624,5.066-14.247,5.26.754,9.869-1.218,13.878-4.68l4.736-2.911V42.367c147.675,2.125,295.283.623,442.824-4.505,40.244,5.254,80.786,6.019,121.242,3.121-2.791,5.431-1.896,10.788,1.896,15.806-4.615,3.804-4.625,8.034,0,11.829-7.054,117.79-6.122,236.171-3.156,354.143.077,3.044,14.156,3.565,16.947,3.099,1.416,5.736,6.291,10.468,14.626,14.195-4.551,2.988-4.551,6.476,0,9.463l-9.472,9.463c-2.71,1.783-5.867,1.783-9.472,0-3.474-6.004-6.001-6.016-9.472,0l-4.736,2.782v85.821l-4.736,6.03c-20.381-7.018-46.087-7.534-66.305,0l-6.036,4.732h-87.091c-14.602,8.109-5.767,41.624,17.349,23.658,2.983,4.618,6.482,4.611,9.472,0,40.708,6.823,82.47,7.154,123.138,0,18.465,10.142,25.585,3.512,23.68-13.778,9.631-1.013,13.437-9.161,4.736-14.612,6.023-3.457,6.013-6.004,0-9.463,2.271-7.529,5.429-13.838,9.472-18.927,5.348-5.156,8.392-5.344,16.428-4.733l2.517-4.731c4.669-6.207,4.649-12.708,0-18.927,4.652-6.211,4.645-12.712,0-18.927Z"/>
      <path class="h" d="M655.948.008v9.463h-9.472V.008c3.136-.035,6.337.054,9.472,0Z"/>
      <path class="g" d="M1321.369,9.472c3.767.982,6.924,4.137,9.472,9.463,3.13.134,6.337-.086,9.472,0v9.463h9.472v9.463h9.472c.086,3.132-.134,6.336,0,9.463,4.181,2.398,7.338,5.552,9.472,9.463.078,3.919-.018,7.909,0,11.829,4.705,12.555,4.694,25.296,0,37.853-2.467,4.002-5.624,7.157-9.472,9.463-.134,3.127.086,6.332,0,9.463h-9.472v9.463h-9.472v9.463c-5.088.201-10.29-.291-15.392,0-6.831.39-2.637,4.896-3.552,9.463-3.144.01-6.328,0-9.472,0-9.258,6.52-19.198,6.609-28.417,0-3.137-.054-6.334.035-9.472,0v-9.463c-3.133-.086-6.343.134-9.472,0-3.767-.982-6.924-4.137-9.472-9.463-3.843-2.227-7.175-5.543-9.472-9.463-4.18-2.399-7.338-5.554-9.472-9.463-.066-3.133.017-6.329,0-9.463-4.743-16.496-4.743-33.187,0-49.683.017-3.135-.066-6.33,0-9.463.983-3.763,4.14-6.918,9.472-9.463,2.229-3.839,5.548-7.169,9.472-9.463,2.402-4.177,5.559-7.331,9.472-9.463,3.136-.066,6.335.017,9.472,0,11.54-2.083,21.012-5.237,28.417-9.463,6.285-.021,12.662-.109,18.944,0Z"/>
      <path class="j" d="M1236.119,56.789c-.089,16.525-.089,33.158,0,49.683h-9.472c.033-9.436-.046-18.955,0-28.39.035-7.072-.025-14.221,0-21.293h9.472Z"/>
      <path class="h" d="M1368.73,68.618c4.572.914,9.082-3.275,9.472,3.549.627,10.975.192,23.229,0,34.305-3.138.023-6.336-.066-9.472,0,.035-12.587.056-25.267,0-37.853Z"/>
      <path class="j" d="M1302.424,9.472v9.463c-9.444.036-18.972-.051-28.417,0v-9.463c9.445-.023,18.972.032,28.417,0Z"/>
      <path class="g" d="M1207.703,440.055c6.931.004,6.637,7.905,0,9.463,2.528-8.562,34.46-8.388,33.821,4.732,15.973-2.823,25.318.332,28.033,9.463,9.76.287,12.803,9.106,4.452,14.195,6.03,3.448,6.022,6.013,0,9.463-.004,6.925-7.912,6.631-9.472,0-6.223,4.652-12.731,4.667-18.944,0-3.139-.019-6.335.066-9.472,0-3.767-.982-6.924-4.137-9.472-9.463-3.13-.134-6.338.086-9.472,0v-9.463h-9.472c-.67-.669,0-15.842,0-18.927h-9.472c-.109,6.281.076,12.645,0,18.927-3.137.042-6.336-.066-9.472,0-6.919-.004-6.635-7.911,0-9.463v-9.463h9.472c.054-3.134-.035-6.329,0-9.463,3.138-.035,6.335.054,9.472,0Z"/>
      <path class="e" d="M1359.258,47.325h9.472c.04,3.135-.062,6.329,0,9.463h-9.472c-.086-3.132.134-6.336,0-9.463Z"/>
      <path class="j" d="M1264.536,18.935v9.463c-3.135.086-6.341-.134-9.472,0-.134,3.126.086,6.333,0,9.463-3.133.086-6.343-.134-9.472,0-.134,3.128.086,6.331,0,9.463h-9.472c.066-3.134-.042-6.329,0-9.463,3.133-.086,6.343.134,9.472,0,.134-3.128-.086-6.331,0-9.463,3.135-.086,6.341.134,9.472,0,.134-3.126-.086-6.333,0-9.463,3.138-.042,6.336.066,9.472,0Z"/>
      <path class="j" d="M1321.369,9.472c3.137.054,6.334-.035,9.472,0v9.463c-3.13-.134-6.337.086-9.472,0v-9.463Z"/>
      <path class="e" d="M1188.758,458.981v9.463c-3.135.066-6.336,0-9.472,0-.066,3.132.019,6.33,0,9.463-3.483,5.975-5.99,5.988-9.472,0,.002-3.14-.008-6.323,0-9.463h9.472c.066-3.133-.042-6.33,0-9.463h9.472Z"/>
      <path class="e" d="M864.336,591.468c6.815,7.578,9.145,7.926,20.933,7.098h29.791c.579-4.459,2.616-6.825,6.109-7.098,3.46-6.01,6.014-6.02,9.472,0,6.582-9.941,15.704-2.811,14.208,7.173,12.052-.617,23.953,1.3,35.521,4.656,113.548-6.74,227.459-6.982,340.998,0-.062,3.133.04,6.329,0,9.463-6.288.059-12.657-.084-18.944,0l-9.066,4.737c5.007-1.022,8.029.554,9.066,4.726,0,4.228,1.005,27.386,0,28.39-3.136.042-6.337-.066-9.472,0-3.594-4.043-5.194-8.867-5.054-14.195l-60.024-.042c-3.33-1.715-5.899-4.856-7.707-9.421h-532.879l-2.923-4.732c-14.719-7.25-17.876-13.559-9.472-18.927l2.21-4.732h171.478l6.283-7.098c0-6.925,7.909-6.622,9.472,0Z"/>
      <path class="g" d="M1188.758,515.762c2.24,0,9.137-.335,9.472,0v9.463c-6.085,6.388-12.885,6.444-18.944,0-6.015-3.446-6.005-6.015,0-9.463.004-6.925,7.912-6.631,9.472,0Z"/>
      <path class="g" d="M1169.814,515.762c6.005,3.448,6.015,6.018,0,9.463-6.06,6.444-12.86,6.388-18.944,0,6.542,6.357,12.857,6.357,18.944,0,2.986-4.618,6.486-4.618,9.472,0,9.313,5.061,14.316,10.151,18.944,18.927,7.757,3.899,7.42,33.27,0,37.853-.503,1.839-1.269,4.57-2.715,4.732-5.583.623-40.788.623-43.078-1.577-.797-.766-1.234-1.907-1.568-3.154,2.8-.437,4.77,1.14,5.911,4.732h45.892c.814-9.866,9.104-13.251,14.502-4.732,31.425-.544,63.297-.544,94.722,0,4.123,1.451,7.281,4.605,9.472,9.463.077,3.909.077,7.92,0,11.829-113.626-.136-227.373.183-340.998,0-7.282-1.059-7.055-19.456,0-21.293,3.137.021,6.335-.009,9.472,0,4.137.394,6.471,2.122,7.004,5.185,35.53-.285,71.088-.341,106.675-.167l9.459-5.018c6.288-.037,12.656.026,18.944,0v-18.927h9.472c.042-3.133-.066-6.331,0-9.463,1.784-3.602,1.784-6.756,0-9.463.045-6.282-.032-12.644,0-18.927,3.137-.035,6.336.054,9.472,0,0-2.236-.335-9.129,0-9.463h18.944Z"/>
      <path class="e" d="M1198.23,525.225c3.136.054,6.335-.035,9.472,0v28.39h9.472v28.39c-3.136.054-6.335-.035-9.472,0v9.463h-56.833v-9.463h47.361v-37.853h-9.472v-9.463h-9.472c-.042-3.134.066-6.331,0-9.463,6.286.02,12.661-.109,18.944,0Z"/>
      <path class="e" d="M1179.286,496.835c4.635,6.21,4.62,12.709,0,18.927.019,3.134-.066,6.331,0,9.463-3.137-.01-6.335-.01-9.472,0-.066,3.131.042,6.331,0,9.463h-18.944v-9.463c6.284-.109,12.659.02,18.944,0,.066-3.131-.019-6.331,0-9.463.037-6.281-.011-12.646,0-18.927.004-6.925,7.912-6.631,9.472,0Z"/>
      <path class="j" d="M1207.703,440.055c22.057-.382,44.245.281,66.305,0v9.463h9.472v18.927h9.472c-.076,6.282.109,12.646,0,18.927-5.788,13.27-14.6-1.843-18.944-9.463-.066-3.134.042-6.328,0-9.463h-9.472v-9.463h-28.417v-9.463c-1.005-1.004-24.184,0-28.417,0v-9.463Z"/>
      <path class="i" d="M1179.286,477.908c3.135.08,6.335-.052,9.472,0v37.853h-9.472c-.037-6.283,0-12.644,0-18.927-4.656-6.217-4.672-12.719,0-18.927Z"/>
      <path class="i" d="M1311.897,153.788c-.915,4.567,3.278,9.074-3.552,9.463-6.657.38-14.655.38-21.312,0-6.831-.39-2.637-4.896-3.552-9.463,9.434.163,18.979,0,28.417,0Z"/>
      <path class="f" d="M1274.008,477.908h9.472v9.463h9.472c-.054,3.134.035,6.329,0,9.463-6.29.029-12.655-.042-18.944,0-6.931-.004-6.637-7.905,0-9.463,0-3.134.066-6.331,0-9.463Z"/>
      <rect class="i" x="1330.841" y="591.468" width="9.472" height="21.293"/>
      <path class="j" d="M1264.536,487.371c6.931.004,6.637,7.905,0,9.463-6.289-.042-12.655.029-18.944,0v-9.463c6.291.037,12.653,0,18.944,0Z"/>
      <path class="f" d="M1302.424,612.761v9.463h-18.944v-9.463c6.288-.059,12.657.084,18.944,0Z"/>
      <path class="j" d="M1311.897,582.005c3.136.054,6.335-.035,9.472,0,.04,3.134-.062,6.33,0,9.463h-9.472v-9.463Z"/>
      <path class="e" d="M1274.008,487.371v9.463c-3.138.021-6.335.021-9.472,0v-9.463h9.472Z"/>
      <path class="j" d="M1226.647,477.908c3.13.134,6.338-.086,9.472,0v9.463c-3.138-.066-6.334.042-9.472,0v-9.463Z"/>
      <path class="j" d="M1236.119,115.935h9.472c.086,3.132-.134,6.336,0,9.463,3.129.134,6.339-.086,9.472,0,.086,3.13-.134,6.337,0,9.463,3.131.134,6.337-.086,9.472,0v9.463c-3.129-.134-6.339.086-9.472,0-.086-3.13.134-6.337,0-9.463-3.131-.134-6.337.086-9.472,0-.086-3.132.134-6.336,0-9.463-3.129-.134-6.339.086-9.472,0-.042-3.135.066-6.33,0-9.463Z"/>
      <path class="e" d="M1274.008,825.765v-4.81h-.777c.324,1.594.577,3.199.777,4.81Z"/>
      <path class="e" d="M1240.647,855.959c-4.053-11.26-5.646-23.204-9.311-34.584-1.637-5.084,1.169-10.655,5.653-13.155,6.005-23.317,6.068-49.488-.87-72.435-4.032-5.278-7.189-11.587-9.472-18.927,4.604-2.988,4.611-6.482,0-9.463,5.842-19.026,5.898-37.764,0-56.78-2.989-4.606-6.486-4.609-9.472,0l-7.069,4.888-33.61-.231c-2.764.812-4.97,2.446-6.681,4.806-5.98,6.593-5.975,12.425,0,18.927,2.089,3.839,5.246,6.993,9.472,9.463-6.369,9.306-6.388,19.192,0,28.39,2.089,3.839,5.246,6.993,9.472,9.463-6.718,8.684-6.856,19.901,0,28.39,2.089,3.839,5.246,6.993,9.472,9.463-6.42,6.08-6.516,12.89,0,18.927,2.089,3.839,5.246,6.993,9.472,9.463-.596.673-1.116,1.337-1.59,1.995,5.119,10.783,7.89,22.434,9.824,34.168,1.965,11.923,3.349,24.048,3.404,36.145.01,2.241-.513,4.136-1.398,5.698,10.002-.849,9.41-.221,8.704,9.529,3.135-.017,6.339.066,9.472,0,3.134-.066,6.337.042,9.472,0v-17.682c-2.178-1.452-3.939-3.667-4.945-6.46Z"/>
      <path class="f" d="M816.975,899.028c3.774.726,6.931,3.881,9.472,9.463,3.487-5.966,5.986-5.974,9.472,0,9.444.051,18.972-.036,28.417,0v9.463h-9.472c-.035,3.135.054,6.329,0,9.463,3.137.066,6.334-.042,9.472,0,.035,3.136-.054,6.329,0,9.463.109,6.282-.076,12.644,0,18.927-6.289-.076-12.657.109-18.944,0-6.931,0-6.63-7.902,0-9.463,3.929-5.274,7.086-11.583,9.472-18.927-3.489,5.958-5.983,5.964-9.472,0,5.978,6.514,5.935,12.39,0,18.927-3.454,6.015-6.015,6.005-9.472,0-5.975-6.502-5.98-12.334,0-18.927.004-6.915,7.918-6.629,9.472,0l-9.472-9.463c-14.657,6.819-32.768,7.043-47.361,0-2.99,4.61-6.489,4.617-9.472,0-3.138-.019-6.336.066-9.472,0-3.767-.982-6.924-4.137-9.472-9.463-6.011-3.453-5.996-6.007,0-9.463,18.913.053,37.921-.102,56.833,0Z"/>
      <path class="i" d="M741.198,889.564c2.239,0,9.137-.335,9.472,0,.086,3.131-.134,6.337,0,9.463,3.139.021,6.333-.009,9.472,0,.052,3.134-.08,6.331,0,9.463,3.129.134,6.339-.086,9.472,0v9.463c-3.137-.066-6.335.042-9.472,0-.052-3.134.08-6.331,0-9.463-3.129-.134-6.339.086-9.472,0-.086-3.131.134-6.337,0-9.463-6.29-.042-12.654.029-18.944,0v-9.463h9.472Z"/>
      <path class="e" d="M826.448,899.028c6.931.004,6.637,7.905,0,9.463-3.137-.066-6.335.042-9.472,0v-9.463c3.138.017,6.336-.066,9.472,0Z"/>
      <path class="g" d="M826.448,899.028c3.137.066,6.335-.042,9.472,0v9.463c-3.138-.017-6.336.066-9.472,0v-9.463Z"/>
      <path class="i" d="M580.171,335.958c.639-2.798,2.172-4.693,5.09-4.39-3.741-13.778,18.23-16.726,23.326-7.439l4.736,2.661v43.697l-4.736,3.325,2.585-4.732c16.284-2.795,29.49-.862,35.304,14.195,1.837.227,4.504.737,4.736,2.12,2.115,12.603,1.371,56.407,0,70.154l-4.736,3.433c3.401-12.13,22.473.384,9.472,9.463,6.023,3.457,6.013,6.004,0,9.463,2.272,7.528,5.429,13.837,9.472,18.927,7.399,4.207,6.074,11.432-1.812,14.195,9.895,4.262,7.203,14.628,1.812,23.658,6.771,8.515,6.695,19.711,0,28.39,14.719,7.251,17.876,13.56,9.472,18.927,6.501,6.778,6.447,14.369,0,21.293.054,3.133-.035,6.33,0,9.463h9.472c.042,3.133-.066,6.331,0,9.463,6.032,3.465,6.021,5.996,0,9.463,2.271,7.529,5.428,13.838,9.472,18.927,4.672,6.206,4.65,12.708,0,18.927,7.168,21.18,7.428,45.115,0,66.244-1.452,4.119-4.61,7.274-9.472,9.463-6.507,5.964-12.343,5.962-18.944,0l-3.552-9.463h-5.92v-28.39h-9.472v-37.853h-9.472v-47.317h-9.472v-59.146h-9.472v-66.244h-9.472v-104.097h-18.944v-9.463c-15.748.199-31.616-.273-47.361,0v-18.927c6.287-.059,12.658.084,18.944,0,5.25-4.586,10.238-6.246,15.955-2.281-3.115-8.867-.539-17.538,2.99-26.109Z"/>
      <path class="f" d="M731.726,650.614c2.988-4.607,6.486-4.608,9.472,0,2.988-4.607,6.485-4.608,9.472,0,.484-1.833,1.18-4.389,2.715-4.687,3.902-.759,37.57-.793,41.257-.036l3.389,4.723c2.988-4.608,6.485-4.609,9.472,0,6.931.004,6.637,7.905,0,9.463,12.158-12.301,19.046,4.869,9.472,18.927,4.622,2.98,4.615,6.476,0,9.463,4.193,17.02,5.877,34.37,5.054,52.048h57.79l3.462,4.732c8.388,20.534,6.156,22.561-16.006,23.566-16.986.77-33.757-.677-50.299-4.639-25.079,6.54-50.676,6.384-75.777,0-15.456,4.218-17.559,6.318-6.311,6.298l6.311,3.165c21.246-6.924,45.024-6.737,66.305,0,1.81.179,3.324.895,4.62,2.128,15.793,15.021-49.365,12.892-57.014,12.329,1.602,7.567.122,12.212-4.439,13.933-.727,3.77-3.884,6.925-9.472,9.463-.066,3.132.017,6.329,0,9.463h-9.472v-9.463c-6.288-.029-12.657.042-18.944,0-4.226-2.47-7.384-5.625-9.472-9.463v-18.927h-9.472v-9.463h-75.777c-.042-3.134.066-6.331,0-9.463-4.677-2.979-4.677-6.484,0-9.463.066-3.133-.042-6.33,0-9.463,15.755-.032,31.606.044,47.361,0,6.286-.017,12.661.109,18.944,0l9.472-9.463c.382-22.017.037-44.218,0-66.244,6.68-14.424,12.995-17.579,18.944-9.463,6.931.004,6.637,7.905,0,9.463,4.649,12.556,4.636,25.294,0,37.853,4.668,12.554,4.647,25.294,0,37.853.047-1.786.237-4.23,1.595-4.732,5.063-1.871,78.997-.655,90.342,0l2.785,4.732c-1.843-.506-4.468-1.23-4.736-2.759-1.136-6.468-1.049-43.967,0-50.572l4.736-3.449c-6.931-.004-6.637-7.905,0-9.463-6.931-.004-6.637-7.905,0-9.463-6.931-.004-6.637-7.905,0-9.463-3.486,5.966-5.987,5.974-9.472,0-27.404,7.067-57.795,6.802-85.25,0-6.931-.004-6.637-7.905,0-9.463,6.222-4.629,12.728-4.641,18.944,0Z"/>
      <path class="j" d="M551.754,582.005c.01,3.142-.009,6.321,0,9.463h-28.417v-9.463h28.417Z"/>
      <path class="i" d="M532.81,458.981h9.472c.026,6.284-.038,12.643,0,18.927h-9.472c-.026-6.282.038-12.645,0-18.927Z"/>
      <path class="i" d="M618.06,754.711c-.066,3.125-.066,6.338,0,9.463h-18.944v-9.463h18.944Z"/>
      <path class="i" d="M542.282,553.615h9.472c.035,3.136-.054,6.328,0,9.463h-9.472c-.035-3.135.054-6.329,0-9.463Z"/>
      <path class="f" d="M532.81,392.738h9.472v9.463h-9.472c.017-3.133-.066-6.332,0-9.463Z"/>
      <path class="f" d="M542.282,525.225h9.472v9.463h-9.472c-.009-3.141.005-6.322,0-9.463Z"/>
      <path class="j" d="M693.837,936.881v-9.463h18.944v-9.463h37.889v9.463c3.137.035,6.336-.054,9.472,0,6.492,6.043,6.411,12.847,0,18.927h-66.305c-.335-.335,0-7.227,0-9.463Z"/>
      <path class="j" d="M835.92,917.954c6.931,0,6.63,7.902,0,9.463,0,6.281-.109,12.648,0,18.927-12.6.068-25.289-.049-37.889,0v-5.915l-9.472-3.549c-4.599-2.988-4.604-6.481,0-9.463-6.931-.004-6.637-7.905,0-9.463,15.747.041,31.62-.272,47.361,0Z"/>
      <path class="j" d="M674.893,917.954c6.931,0,6.628,7.902,0,9.463-3.489,5.964-5.983,5.958-9.472,0l-9.472,9.463c4.551,2.988,4.551,6.476,0,9.463-12.603-.024-25.285.033-37.889,0-4.645-6.213-4.645-12.713,0-18.927-6.931-.004-6.637-7.905,0-9.463,18.897,0,37.943-.327,56.833,0Z"/>
      <path class="f" d="M674.893,927.418c.004-6.915,7.918-6.629,9.472,0,.066,3.13.023,6.331,0,9.463-.045,6.284.032,12.643,0,18.927h-28.417c-.042-3.134.066-6.33,0-9.463s-.066-6.337,0-9.463c1.452-4.119,4.61-7.274,9.472-9.463,3.135-.066,6.336,0,9.472,0Z"/>
      <path class="f" d="M779.087,927.418c.004-6.921,7.914-6.63,9.472,0,0,3.136.023,6.328,0,9.463-.047,6.284.033,12.643,0,18.927h-28.417c-.035-3.135.054-6.329,0-9.463-.109-6.281.076-12.645,0-18.927,6.283.109,12.659,0,18.944,0Z"/>
      <path class="e" d="M608.587,927.418c4.645,6.213,4.645,12.713,0,18.927,2.99-4.6,6.488-4.607,9.472,0v9.463c-3.137-.017-6.337.066-9.472,0-6.931,0-6.63-7.902,0-9.463-3.457,6.004-6.018,6.014-9.472,0-5.989-6.515-5.961-12.397,0-18.927,3.452-6.024,6.018-6.016,9.472,0Z"/>
      <path class="e" d="M854.864,927.418c-.109,6.281.076,12.644,0,18.927-3.138.042-6.336-.066-9.472,0v9.463c-3.138-.054-6.334.035-9.472,0-.035-3.136.054-6.329,0-9.463,3.138-.017,6.336.066,9.472,0,0-6.28.109-12.649,0-18.927,3.137,0,6.337-.066,9.472,0Z"/>
      <path class="i" d="M712.781,880.101c3.136.054,6.335-.035,9.472,0v18.927h-9.472v9.463c-3.132.086-6.344-.134-9.472,0-.066,3.133.042,6.33,0,9.463h-9.472v-9.463c3.132-.086,6.344.134,9.472,0,.066-3.133-.066-6.331,0-9.463.066-3.133-.042-6.33,0-9.463h9.472c.035-3.134-.054-6.33,0-9.463Z"/>
      <path class="f" d="M608.587,917.954c6.931.004,6.637,7.905,0,9.463.004-6.925,7.912-6.631,9.472,0v18.927c-3.139-.008-6.333.019-9.472,0v-18.927c-3.137,0-6.337-.066-9.472,0-.037,6.277-.109,12.652,0,18.927,3.136.066,6.335-.019,9.472,0v9.463c-3.136-.066-6.335.042-9.472,0-.035-3.135.054-6.329,0-9.463-3.137-.066-6.335.042-9.472,0v-18.927c3.138-.042,6.336.066,9.472,0,.019-3.134-.066-6.331,0-9.463h9.472Z"/>
      <path class="e" d="M646.476,899.028c6.931.004,6.637,7.905,0,9.463-6.285.109-12.657-.041-18.944,0-6.931-.004-6.637-7.905,0-9.463,6.284-.109,12.658.019,18.944,0Z"/>
      <path class="g" d="M627.532,899.028v9.463c-3.144.02-6.328-.021-9.472,0v-9.463c3.137-.035,6.335.054,9.472,0Z"/>
      <path class="f" d="M655.948,899.028v9.463c-3.138.035-6.335-.054-9.472,0v-9.463c3.144-.009,6.328.005,9.472,0Z"/>
      <rect class="k" x="608.587" y="917.954" width="9.472" height="9.463"/>
      <path class="k" d="M674.893,917.954c3.137.054,6.334-.035,9.472,0,.042,3.134-.066,6.33,0,9.463h-9.472v-9.463Z"/>
      <path class="k" d="M788.559,917.954v9.463h-9.472v-9.463c3.139.019,6.333-.008,9.472,0Z"/>
      <path class="e" d="M703.309,802.028h9.472c.042,3.134-.066,6.331,0,9.463-3.137-.021-6.335.009-9.472,0v-9.463Z"/>
      <path class="j" d="M1274.008,792.565c-.017,3.134.066,6.331,0,9.463h-9.472c-.035-3.135.054-6.33,0-9.463h9.472Z"/>
      <rect class="e" x="1264.536" y="870.638" width="9.472" height="9.463"/>
      <path class="j" d="M1255.064,716.858c.006,3.141-.006,6.322,0,9.463h-9.472c-.035-3.135.054-6.329,0-9.463h9.472Z"/>
      <path class="g" d="M684.365,622.224h542.282v9.463h66.305c.032,6.281-.045,12.646,0,18.927-3.135.066-6.336-.019-9.472,0-6.288.037-12.656-.012-18.944,0-6.542-6.357-12.857-6.357-18.944,0-2.986,4.606-6.483,4.604-9.472,0-3.144.009-6.329-.007-9.472,0s-6.329-.005-9.472,0c-15.719,4.667-31.638,4.648-47.361,0-101.797,5.916-203.679,5.831-305.478,0-10.235-7.944-35.548-8.15-47.361,0-2.988,4.608-6.485,4.609-9.472,0-3.144-.003-6.329.002-9.472,0-10.235-7.944-35.548-8.15-47.361,0-3.144-.002-6.329.003-9.472,0-3.605-1.783-6.763-1.783-9.472,0-6.294-.008-12.651.02-18.944,0-6.019,6.434-12.871,6.567-18.944,0-2.283-7.34-5.44-13.649-9.472-18.927-.023-3.133.066-6.332,0-9.463Z"/>
      <path class="e" d="M1245.591,650.614c.066-3.134-.042-6.329,0-9.463h18.944v9.463c-6.294.012-12.651-.005-18.944,0-.066,3.133.019,6.329,0,9.463h-9.472v-9.463c3.144-.009,6.329.003,9.472,0Z"/>
      <path class="j" d="M1245.591,679.005c-.006,3.136-.006,6.327,0,9.463h-9.472c-.035-3.136.054-6.328,0-9.463h9.472Z"/>
      <path class="g" d="M788.559,458.981c4.614,2.986,4.617,6.48,0,9.463.002,6.925-7.909,6.62-9.472,0-4.301,12.279-22.248-.584-9.472-9.463,6.084-6.405,12.896-6.485,18.944,0Z"/>
      <path class="g" d="M665.42,468.445c6.931.004,6.637,7.905,0,9.463-.004,6.925-7.912,6.631-9.472,0-.023-3.134.066-6.331,0-9.463.004-6.925,7.912-6.631,9.472,0Z"/>
      <path class="g" d="M1008.787,37.862c3.203,2.394,6.263,4.062,9.181,5.004l99.339-.37c7.65.021,12.083,7.987,14.618,14.293.026,3.92-.01,7.909,0,11.829-.492,3.603-2.091,5.757-4.736,8.048l-.007,332.091c-1.236,8.629-10.641,10.921-14.201,2.907-1.113.12-2.193.141-3.157-.182-4.944-1.658-2.705-93.343-1.579-103.504l4.736-2.777-4.736-2.184v-108.548l4.736-2.828c-.206,1.865-.866,4.67-2.186,4.732-27.907,1.297-72.975,2.964-99.659,0-6.551,1.381-10.492-.196-11.821-4.732,1.872.201,4.689.879,4.736,2.198,1.495,41.899,1.235,88.467,0,130.538,1.776,10.484.197,17.499-4.736,21.044,4.612,2.984,4.611,6.478,0,9.463,4.646,6.211,4.639,12.711,0,18.927,6.442,9.187,6.385,19.079,0,28.39-2.988,4.609-6.486,4.612-9.472,0l-2.957-14.052c-1.972-64.731-3.534-130.066-.179-194.696-1.565,4.867-3.327,2.733-6.337-1.811-6.244,2.438-12.701,3.959-19.376,4.544l-82.45.742v155.102l-4.736,2.855c1.833.465,4.237,1.113,4.691,2.712.73,2.567.603,37.603.045,41.218l-4.736,3.386c-2.986,4.609-6.483,4.606-9.472,0-15.891,5.889-31.46,5.843-47.361,0-7.757-3.899-7.42-33.27,0-37.853-7.252-.953-6.928-17.36,0-18.927-4.651-32.285-4.636-64.713,0-96.999-7.026-14.585-6.822-32.674,0-47.317-4.617-3.073-6.691-4.742-1.726-6.318-24.746,3.028-49.483.625-74.052-3.145-11.857,6.79-25.974,6.642-37.889,0l-9.472,9.463c6.385,9.311,6.44,19.203,0,28.39,5.778,57.522,5.799,115.185,0,172.706,4.612,2.984,4.61,6.478,0,9.463,3.196,10.876,5.979,21.937,3.756,33.122l10.453-.284c-.66-9.32,11.291-13.452,14.208-4.448,2.251-.388,8.817,3.212,7.66,4.732s-8.719-1.082-7.66-4.732c-6.264,1.038-6.043-8.539-2.828-12.005,3.343-3.604,39.573-5.903,36.264,7.274,9.738.004,13.085,10.038,4.452,14.195,3.464-6.037,6.005-6.029,9.472,0,4.551,2.988,4.551,6.476,0,9.463-8.294,11.759-21.225-2.503-9.472-9.463-3.92,5.283-7.078,11.592-9.472,18.927-.727,3.77-3.884,6.924-9.472,9.463-4.028,3.402-4.028,6.556,0,9.463-6.022-3.451-6.03-6.015,0-9.463,2.31-3.843,5.467-6.997,9.472-9.463,10.5-16.839,21.647,12.362,9.472,18.927-6.068,6.479-12.903,6.537-18.944,0,7.252.953,6.928,17.36,0,18.927-2.986,4.61-6.483,4.607-9.472,0-3.767-.982-6.924-4.137-9.472-9.463-4.572-.928-6.053-5.33-4.444-13.205l-5.029-5.722q-8.461-6.091,0,0c3.048,6.41,6.205,12.719,9.472,18.927,6.931.004,6.637,7.905,0,9.463-7.548,3.186-15.532,4.799-23.68,5.015-1.661,17.759-29.398,7.054-14.208-5.015-3.847-2.307-7.005-5.461-9.472-9.463-3.478,5.99-5.996,6.004-9.472,0-5.866-6.598-5.862-12.415,0-18.927,3.45-6.012,6.024-6.02,9.472,0q6.614,4.794,0,0c-6.931-.004-6.637-7.905,0-9.463,3.486-5.978,5.986-5.969,9.472,0,4.135-2.446,4.135-5.6,0-9.463-4.654-12.557-4.654-25.296,0-37.853-7.252-.953-6.928-17.36,0-18.927-5.862-51.205-5.833-102.574,0-153.78-3.764-18.015-6.053-36.256-2.98-54.496-32.944,3.69-68.958,5.307-101.214-2.285-5.477,2.231-7.02,4.404-4.628,6.519-1.313,40.703-.865,81.111,1.344,121.222l3.283,4.746c4.628,3.802,4.633,8.032,0,11.829-.03,9.437.022,18.953,0,28.39-6.287.059-12.658-.084-18.944,0V37.862c149.147.104,298.413-.14,447.56,0Z"/>
      <path class="f" d="M807.503,402.201c6.931.004,6.637,7.905,0,9.463-.004,6.925-7.912,6.631-9.472,0,3.872,46.538,6.1,93.165,3.044,139.788,24.351-3.315,48.626-3.394,72.733,2.163,2.989-4.605,6.486-4.609,9.472,0,12.571-4.632,25.321-4.644,37.889,0,9.391-4.643,19.023-4.636,28.417,0,31.499-5.123,63.38-6.273,95.114-3.102-2.82-5.437-1.76-10.796,1.976-15.824-8.016-18.29-8.498-66.504,9.472-47.317,4.637,12.561,4.663,25.3,0,37.853,4.612,2.986,4.616,6.481,0,9.463,6.487,6.061,6.544,12.892,0,18.927-.054,3.133.035,6.329,0,9.463h-94.722v18.927c6.288.029,12.656-.042,18.944,0v21.293c-13.389-.022-26.868.016-40.257,0v-11.829c-3.135-.042-6.338.066-9.472,0-4.804-3.922-11.12-6.022-18.949-6.3l-9.467-3.163c-4.719-1.479-6.298-6.31-4.736-14.493-8.162.905-16.06-1.383-23.68-4.433-19.044,5.833-37.799,5.89-56.833,0-9.394,4.636-19.027,4.65-28.417,0-7.537-1.914-7.211-25.821,0-28.39-6.931-.004-6.637-7.905,0-9.463-6.931-.004-6.637-7.905,0-9.463-7.537-1.914-7.211-25.821,0-28.39-4.615-2.985-4.616-6.48,0-9.463-4.611-2.986-4.615-6.481,0-9.463.01-3.141-.003-6.323,0-9.463-4.612-2.985-4.614-6.48,0-9.463-4.612-2.986-4.614-6.48,0-9.463-6.511-9.252-6.61-19.181,0-28.39,0-6.925,7.909-6.622,9.472,0-6.921-.004-6.636-7.91,0-9.463,3.467-6.028,6.002-6.018,9.472,0Z"/>
      <path class="j" d="M1131.925,68.618c.286,117.463-.214,235.047,0,352.51h18.944v9.463h9.472c.042,3.132-.066,6.332,0,9.463-3.468,6-6.007,6.015-9.472,0-4.614,7.976-13.013,5.651-14.208-3.331-7.703-4.034-52.616-3.439-61.569,3.331-.004,6.925-7.912,6.631-9.472,0-7.231-.956-6.916-17.368,0-18.927l2.208-4.7,30.669.517c.167-10.172,9.761-14.301,14.483-5.28,3.127-.134,6.341.086,9.472,0V72.167l9.472-3.549Z"/>
      <path class="j" d="M1131.925,458.981v94.634c-3.136.035-6.337-.054-9.472,0l-4.736-2.139v-59.055c-2.842-.14-3.964-2.238-4.736-5.049l4.736,2.712v41.218l-4.736,3.386c-.498,1.839-1.181,4.358-2.762,4.732-4.918,1.163-44.46.791-50.619,0l-3.453-4.732c.009-3.141-.005-6.323,0-9.463,5.36-7.52,6.967-17.848,4.821-30.983l4.652-6.871c-5.98-3.482-5.972-5.981,0-9.463,4.218-7.389,11.435-6.077,14.208,1.81,5.487-10.188,23.674-8.356,33.153-1.81l4.736-5.149c-1.613-11.471,2.838-26.149,14.208-13.778Z"/>
      <path class="g" d="M1075.092,440.055c.915-4.569-3.278-9.074,3.552-9.463,20.567-1.173,42.095.863,62.753,0v9.463c3.136.052,6.337-.08,9.472,0,4.123,1.451,7.281,4.606,9.472,9.463-.066,3.131.042,6.331,0,9.463-3.135.042-6.338-.066-9.472,0-3.467,6.012-6.003,5.999-9.472,0-3.135.042-6.338-.066-9.472,0s-6.337-.042-9.472,0v18.927c-3.136.035-6.337-.054-9.472,0-6.491-6.044-6.41-12.847,0-18.927l-9.472-9.463c-3.479,5.99-5.995,6.004-9.472,0-3.773-.726-6.931-3.881-9.472-9.463-3.49,5.957-5.982,5.964-9.472,0Z"/>
      <path class="g" d="M1056.148,534.688h56.833v-47.317h9.472v66.244c-22.053.382-44.248-.281-66.305,0,.109-6.278-.019-12.647,0-18.927Z"/>
      <path class="j" d="M1008.787,37.862c41.01.038,82.129-.028,123.138,0,.029,6.281-.042,12.646,0,18.927l-9.472-3.549v-5.915c-36.224-1.525-74.064,2.056-110.114,0-6.83-.39-2.638-4.892-3.552-9.463Z"/>
      <path class="j" d="M1112.981,582.005c-.914,4.572,3.278,9.074-3.552,9.463-37.987,2.167-77.835-1.608-116.034,0l-3.552-9.463c41.001.114,82.139.244,123.138,0Z"/>
      <path class="f" d="M1179.286,477.908c-.037,6.283,0,12.644,0,18.927h-9.472c.011-6.287-.005-12.64,0-18.927,3.137.052,6.337-.08,9.472,0Z"/>
      <path class="e" d="M1141.397,544.152h9.472v9.463h-9.472c.066-3.132-.023-6.33,0-9.463Z"/>
      <path class="f" d="M1160.342,440.055c.066,3.124.066,6.339,0,9.463h-9.472v-9.463c3.135.08,6.336-.052,9.472,0Z"/>
      <path class="j" d="M1150.87,458.981v9.463h-9.472v-9.463c3.135-.042,6.338.066,9.472,0Z"/>
      <polygon class="k" points="1330.841 28.398 1330.841 37.862 1340.313 37.862 1340.313 47.325 1349.785 47.325 1349.785 68.618 1359.258 68.618 1359.258 97.008 1349.785 97.008 1349.785 115.935 1340.313 115.935 1340.313 125.398 1330.841 125.398 1330.841 134.861 1274.008 134.861 1274.008 125.398 1264.536 125.398 1264.536 115.935 1255.064 115.935 1255.064 106.471 1245.591 106.471 1245.591 56.789 1255.064 56.789 1255.064 47.325 1264.536 47.325 1264.536 37.862 1274.008 37.862 1274.008 28.398 1330.841 28.398"/>
      <path class="e" d="M1368.73,106.471c-.009,3.136.021,6.328,0,9.463h-9.472c.134-3.127-.086-6.332,0-9.463,3.138-.042,6.335.066,9.472,0Z"/>
      <path class="g" d="M873.808,563.078c7.252.953,6.928,17.36,0,18.927-3.486,5.975-5.986,5.966-9.472,0l-9.472,9.463c-.078,3.918.052,7.91,0,11.829h-179.971c-.123-7.067.123-14.226,0-21.293,34.704-5.89,69.485-5.823,104.194,0,7.354,6.995,19.897,7.639,28.417,0,4.392-3.871,5.971-9.143,4.736-15.816l4.736-3.111c18.909.035,37.924-.057,56.833,0Z"/>
      <path class="f" d="M864.336,582.005c6.931.004,6.637,7.905,0,9.463,19.042-5.887,37.803-5.95,56.833,0l-1.184,11.829h-55.649c-.419-.418,0-9.442,0-11.829h-9.472c.062-3.132-.04-6.33,0-9.463,3.136-.042,6.337.066,9.472,0Z"/>
      <path class="h" d="M873.808,582.005c9.389-4.692,19.024-4.682,28.417,0,9.446.03,18.97-.022,28.417,0v9.463c-3.133-.066-6.337.017-9.472,0-18.907-.102-37.926,0-56.833,0v-9.463c3.134-.066,6.337.017,9.472,0Z"/>
      <path class="e" d="M750.67,802.028v9.463h-9.472c.066-3.133-.042-6.329,0-9.463h9.472Z"/>
      <path class="f" d="M1217.175,650.614c-.915,4.57,3.278,9.074-3.552,9.463-14.51.828-29.299-.603-43.809,0v-9.463c15.757-.011,31.604.026,47.361,0Z"/>
      <path class="g" d="M1236.119,716.858c.109,6.276-.017,12.649,0,18.927h-9.472c-.029-6.283.042-12.644,0-18.927.004-6.925,7.912-6.631,9.472,0Z"/>
      <path class="g" d="M1169.814,679.005h9.472c.035,3.136-.054,6.328,0,9.463h-9.472c-.035-3.136.054-6.328,0-9.463Z"/>
      <path class="j" d="M1226.647,707.395h9.472c.035,3.133-.054,6.331,0,9.463h-9.472c-.021-3.135.009-6.328,0-9.463Z"/>
      <path class="j" d="M1179.286,716.858h9.472c.035,3.136-.054,6.328,0,9.463h-9.472c.066-3.134-.017-6.328,0-9.463Z"/>
      <path class="g" d="M1188.758,754.711h9.472c.035,3.136-.054,6.328,0,9.463h-9.472c-.035-3.136.054-6.328,0-9.463Z"/>
      <path class="g" d="M1198.23,783.101h9.472c.035,3.133-.054,6.331,0,9.463h-9.472c-.035-3.136.054-6.328,0-9.463Z"/>
      <path class="k" d="M835.92,917.954c3.137.054,6.334-.035,9.472,0,.035,3.135-.054,6.329,0,9.463h-9.472v-9.463Z"/>
      <path class="k" d="M580.171,257.885l2.517-4.732c7.787.629,11.034.288,16.428-4.732,3.903-7.75,33.3-7.413,37.889,0,4.276,2.11,6.399,1.446,6.371-1.994,11.01-5.799,14.236-2.895,19.242,6.725h6.377c3.969-5.741,10.385-11.385,15.371-4.732.044,51.221,0,102.558,0,153.78l-2.517,4.732c-16.469-3.451-17.054,12.597-.597,9.463l3.114,4.732v37.853c6.931.004,6.637,7.905,0,9.463-3.138.066-6.333-.023-9.472,0-2.984,4.622-6.483,4.617-9.472,0h-9.472c-.066-3.133.042-6.329,0-9.463h-9.472v-75.707h-9.472v-9.463h-28.417v-49.683h-18.944c.152,10.578,2.794,13.446-9.472,11.829.013-3.927-.006-7.902,0-11.829-4.631-22.036-4.649-44.21,0-66.244Z"/>
      <path class="g" d="M665.42,534.688c3.419-16.078,27.989-21.434,34.453-4.732h85.901l2.785,4.732v28.39c-40.979,5.832-82.162,5.882-123.138,0-.163-9.427.056-18.96,0-28.39Z"/>
      <path class="j" d="M674.893,468.445v9.463c3.138.066,6.333-.042,9.472,0v9.463h-9.472c-.335-.335,0-7.226,0-9.463-3.136-.066-6.334,0-9.472,0v-9.463c3.14,0,6.332.023,9.472,0Z"/>
      <path class="j" d="M665.42,477.908c0,6.279.109,12.65,0,18.927,3.136.066,6.336-.066,9.472,0,4.123,1.451,7.281,4.605,9.472,9.463.134,3.126-.086,6.334,0,9.463h9.472v-9.463c9.447-.024,18.969.033,28.417,0,2.985-4.612,6.483-4.608,9.472,0,3.144-.006,6.328.006,9.472,0,10.887-3.194,21.96-5.973,33.153-3.752-1.547-7.978.032-13.036,4.736-15.174.003-6.925,7.911-6.629,9.472,0v28.39c-1.784,3.602-1.784,6.756,0,9.463v9.463h-94.722v-9.463h-18.944v5.915l-9.472,3.549c-.038-6.282.026-12.644,0-18.927h-9.472v-9.463h9.472c.035-3.134-.054-6.33,0-9.463-3.136-.066-6.335.042-9.472,0-.032-6.283.045-12.644,0-18.927h9.472Z"/>
      <path class="k" d="M788.559,563.078c9.446.01,18.971-.018,28.417,0v18.927c-3.136.035-6.337-.054-9.472,0-9.217,6.605-19.156,6.507-28.417,0-34.695.059-69.499-.044-104.194,0-.054-3.133.035-6.33,0-9.463h-9.472c-.035-3.134.054-6.33,0-9.463,41.01.032,82.129-.044,123.138,0Z"/>
      <path class="k" d="M798.031,660.078c4.123,1.45,7.281,4.605,9.472,9.463v9.463c-3.719,8.292-34.323,7.931-33.471-4.732h-57.79l-3.462-4.732v-9.463c28.331-.49,56.91-.152,85.25,0Z"/>
      <path class="k" d="M712.781,650.614v9.463c-3.136.054-6.336-.035-9.472,0v9.463h-9.472c-.011-6.283.042-12.644,0-18.927,6.283.109,12.659-.02,18.944,0Z"/>
      <path class="e" d="M684.365,631.688h9.472c.029,6.283-.042,12.644,0,18.927-3.136-.054-6.335.035-9.472,0-.032-6.282.045-12.645,0-18.927Z"/>
      <path class="h" d="M693.837,735.785c-.054,3.133.035,6.329,0,9.463-3.137.035-6.336-.054-9.472,0v-9.463h9.472Z"/>
      <path class="h" d="M807.503,688.468v56.78h-94.722c-.017-12.59.024-25.264,0-37.853l2.585-4.732c10.989,1.715,19.599.138,25.832-4.732.505-1.84,1.222-4.447,2.762-4.732,6.281-1.162,43.992-1.003,50.619,0l3.453,4.732c-13.188-4.128,2.802-23.162,9.472-9.463Z"/>
      <path class="h" d="M826.448,688.468c6.213,3.264,12.528,6.418,18.944,9.463,3.138.054,6.333-.035,9.472,0v9.463c3.134.086,6.342-.134,9.472,0,3.767.982,6.924,4.137,9.472,9.463,4.18,2.399,7.338,5.554,9.472,9.463.109,6.273.042,12.652,0,18.927h-66.305c-.039-18.893.053-37.887,0-56.78.004-6.925,7.912-6.631,9.472,0Z"/>
      <path class="i" d="M712.781,669.541h66.305v9.463h28.417v9.463h-9.472v9.463h-56.833v9.463h-28.417c-.024-12.589,0-25.264,0-37.853Z"/>
      <path class="e" d="M816.975,764.175v9.463c-3.137.035-6.336-.054-9.472,0-22.028.381-44.271.131-66.305,0-6.931-.004-6.637-7.905,0-9.463,25.223-.15,50.554.075,75.777,0Z"/>
      <path class="h" d="M741.198,764.175v9.463c-6.288-.037-12.656.026-18.944,0v-9.463c6.288-.026,12.656.037,18.944,0Z"/>
      <path class="i" d="M807.503,660.078v9.463h-9.472v-9.463c3.136.017,6.338-.066,9.472,0Z"/>
      <path class="i" d="M816.975,679.005h9.472c.086,3.131-.134,6.336,0,9.463,3.087,0,18.275-.669,18.944,0v9.463c-6.288-.109-12.655.076-18.944,0-.086-3.131.134-6.336,0-9.463h-9.472c-.009-3.134.021-6.329,0-9.463Z"/>
      <path class="g" d="M665.42,927.418v9.463h-9.472c.066-3.133-.042-6.329,0-9.463,3.137-.042,6.336.066,9.472,0Z"/>
      <rect class="e" x="769.614" y="936.881" width="9.472" height="9.463"/>
      <path class="e" d="M816.975,650.614c.915-4.569-3.278-9.074,3.552-9.463,12.329-.703,27.928-.703,40.257,0,6.83.39,2.637,4.894,3.552,9.463h-47.361Z"/>
      <path class="e" d="M750.67,650.614c.915-4.569-3.278-9.074,3.552-9.463,12.329-.703,27.928-.703,40.257,0,6.83.39,2.637,4.894,3.552,9.463h-47.361Z"/>
      <path class="e" d="M731.726,650.614v-9.463h9.472v9.463c-3.144-.003-6.329.004-9.472,0Z"/>
      <path class="i" d="M940.114,515.762c4.677,2.98,4.677,6.484,0,9.463-4.172,13.227-23.518-2.931-9.472-9.463,3.461-6.008,6.013-6.018,9.472,0Z"/>
      <path class="i" d="M999.315,402.201c4.171,2.66,6.69,4.851,2.223,6.447,11.497-2.855,25.348-3.872,35.665,3.016,6.348-8.573,9.851-5.317,14.203,2.712,1.121,2.068,1.686,44.737-4.731,44.605l-9.472,9.463c-10.019,7.541-15.509,6.185-23.68-1.214-.416-.377-3.066,5.25,4.973,5.968,6.475.578,12.703,2.214,18.707,4.709l4.646,8.147-.108,40.917,4.934,7.717c-.038,6.281.026,12.645,0,18.927-32.326.038-64.763-.051-97.09,0-7.354-6.995-19.897-7.639-28.417,0-12.6,0-25.288.024-37.889,0-3.605-1.783-6.763-1.783-9.472,0-25.223-.063-50.554.047-75.777,0v-141.95h9.472c19.039-5.877,37.799-5.907,56.833,0,6.222-4.632,12.728-4.641,18.944,0,19.304-4,38.838-6.226,58.443-3.154l3.126,4.964c4.506-9.877,17.205-7.948,26.048-1.81,6.931.004,6.637,7.905,0,9.463-2.088,2.994-2.452,3.543-1.658,4.757,2.523,3.857-10.283,3.071,1.658-4.757,2.4-4.177,5.558-7.331,9.472-9.463l9.472-9.463c3.144.009,6.328-.003,9.472,0Z"/>
      <path class="i" d="M1046.676,468.445c6.931.004,6.637,7.905,0,9.463-2.99,4.607-6.487,4.611-9.472,0-6.025-3.467-6.034-5.999,0-9.463,2.992-4.601,6.489-4.611,9.472,0Z"/>
      <path class="k" d="M693.837,229.495c2.68-8.126,9.944-5.904,14.532.417,4.603-7.645,25.176-8.011,28.093,1.394,2.687-9.016,16.13-9.299,18.944,0,4.302-10.409,17.866-8.8,19.912,2.921l31.197.109c4.55,2.627,8.69,9.057,10.459,14.086.027,32.299,0,64.701,0,96.999l-2.517,4.732c-7.922-1.844-13.336,1.107-16.242,8.851l-23.866.896c-.564,7.808-6.879,10.963-18.944,9.463.26,3.823-.78,7.173-4.551,8.567l-23.866.896c-.399,7.907-6.326,10.967-17.781,9.18-.495,5.885-2.462,10.616-5.899,14.195-.301-2.065.306-3.666,2.018-4.701l21.652.401c.056-8.314,6.375-11.707,18.955-10.179.554-7.805,6.869-10.959,18.944-9.463-.26-3.824.781-7.174,4.551-8.567l23.866-.896c-1.388-11.121,20.211-12.945,23.68-4.448v37.853c-2.985,4.606-6.481,4.6-9.472,0-3.136.019-6.337-.066-9.472,0l-9.472,9.463c-.163,9.425.019,18.961,0,28.39-3.482,5.988-5.988,5.974-9.472,0l-9.472,9.463c-3.138,0-6.336-.066-9.472,0-.134-3.125.086-6.335,0-9.463h-9.472v-9.463h-28.417v9.463h-9.472v9.463h-18.944c-.017-12.589.024-25.264,0-37.853.727-3.769,3.884-6.924,9.472-9.463-.004,6.925-7.912,6.631-9.472,0-.066-57.53-.098-115.176,0-172.706Z"/>
      <path class="i" d="M999.315,345.421v-153.78h113.666v113.56c-1.367,4.515-6.104,6.186-14.208,5.015.63,6.286-3.383,9.212-9.472,9.463-.398,7.907-6.325,10.967-17.781,9.18-.765,8.001-4.31,12.038-10.635,12.113.632,6.28-3.382,9.213-9.472,9.463-.563,7.808-6.878,10.962-18.944,9.463.63,6.286-3.383,9.212-9.472,9.463,1.388,11.122-20.212,12.945-23.68,4.448-.012-6.287.005-12.64,0-18.927,2.069-3.925,2.992-5.738,0-9.463Z"/>
      <path class="i" d="M693.837,56.789h123.138v125.39h-123.138c-.016-12.588.023-25.265,0-37.853-5.904-29.189-5.845-58.342,0-87.536Z"/>
      <path class="i" d="M980.37,56.789c3.539,2.769,6.697,6.712,9.472,11.829v113.56c-35.468-.455-71.1.614-106.562,0l-4.736-2.514c.631-7.783.292-11.021-4.736-16.412-.094-15.735-.012-31.581,0-47.317,1.659-2.84,3.296-5.276,4.911-7.308l-.118-32.728,4.68-7.281c-7.067-.175-6.531-10.562,0-11.829,32.289-.559,64.789.041,97.09,0Z"/>
      <path class="i" d="M999.315,56.789h113.666v125.39h-113.666v-113.56c-7.077-.174-6.531-10.558,0-11.829Z"/>
      <path class="k" d="M980.37,191.641c3.135.054,6.336-.035,9.472,0-.907,70.118,1.216,140.454,0,210.56-35.499,5.775-71.066,5.807-106.562,0-2.986,4.608-6.484,4.606-9.472,0v-47.317c15.228-20.987,17.395,25.344,12.604,26.507-2.338.567,2.799-8.97,5.194-11.151l5.882-1.444c.153-7.724,5.561-10.784,16.224-9.18-3.508-.351-5.778-3.077-6.752-6.323v-79.939c-12.149-2.711-14.165-18.606,0-20.484.555-7.805,6.87-10.96,18.944-9.463-.255-3.836.793-7.2,4.582-8.579l35.601-.6c-.614-6.925,3.488-8.594,9.547-10.43v-28.793l4.736-3.362Z"/>
      <path class="i" d="M684.365,56.789c5.845,29.195,5.904,58.348,0,87.536-.023,12.589.016,25.265,0,37.853h-104.194c-.013-18.894.017-37.886,0-56.78l2.7-4.732h30.318c-.273-2.862,2.034-3.854,4.871-4.732l2.715-4.732h41.257l3.389,4.732c-6.077-4.298-8.658-5.71-17.854-4.78l-4.637-3.531c-.732-4.962-6.52-7.466-17.366-7.51-.476-7.645-11.582.987-12.57,5.949-4.808,7.244-28.767,8.325-32.823.409v-18.927c-7.621-2.334-7.22-27.779,0-30.756,34.673-.6,69.515.445,104.194,0Z"/>
      <path class="i" d="M980.37,191.641v37.853h-9.472v9.463h-40.257v9.463h-18.944v9.463h-9.472v9.463h9.472v87.536h9.472v9.463h-18.944v9.463h-9.472v9.463h-9.472c-.335-8.22.47-16.612,0-24.841-.39-6.824-4.899-2.635-9.472-3.549v-163.243c35.468.455,71.099-.614,106.562,0Z"/>
      <path class="k" d="M1112.981,305.202v106.463c-3.127.134-6.341-.086-9.472,0v9.463c-1.34,1.338-32.299,0-37.889,0-.004,6.925-7.912,6.631-9.472,0-3.394-5.341-5.756-10.698-2.694-16.236-5.543,3.06-10.905.7-16.251-2.691-12.775,5.823-25.127,5.872-37.889,0-.163-9.423.018-18.963,0-28.39h18.944v-9.463h9.472v-9.463h18.944v-9.463h9.472v-9.463h9.472v-11.829h18.944v-9.463h9.472v-9.463h18.944Z"/>
      <path class="i" d="M580.171,191.641c34.673-.6,69.515.445,104.194,0,.012,18.894-.016,37.886,0,56.78l-9.472,3.549v5.915h-18.944v-9.463h-9.472v9.463h-9.472v-9.463h-37.889v9.463h-18.944c-1.825-.195-4.086-.598-4.736-2.139-1.179-2.794-.509-54.012.062-60.646l4.674-3.458Z"/>
      <path class="i" d="M741.198,191.641c2.958,2.024,5.69,3.674,8.197,4.948l58.681-.331c3.452.688,6.406,2.328,8.9,4.846.273,15.722-.013,31.589,0,47.317l-9.472-3.549v-5.915h-37.889v-9.463h-9.472v9.463h-9.472v-9.463h-9.472v9.463h-9.472v-9.463h-18.944v9.463h-9.472c.943-10.796.531-10.186-9.472-9.463.016-9.428-.163-18.966,0-28.39,1.452-4.119,4.61-7.274,9.472-9.463,12.584-.218,25.3.014,37.889,0Z"/>
      <path class="i" d="M816.975,345.421v18.927h-18.944v9.463h-28.417v9.463h-18.944v9.463h-18.944v9.463c-1.005,1.004-24.184,0-28.417,0,.109-6.281-.076-12.645,0-18.927h18.944v-9.463h28.417v-9.463h18.944v-9.463h28.417v-9.463h18.944Z"/>
      <path class="k" d="M580.171,106.471h28.417v-9.463h9.472v-9.463h9.472v9.463h18.944v9.463h18.944v9.463h-47.361v9.463h-37.889c-.006-6.287,0-12.64,0-18.927Z"/>
      <path class="j" d="M580.171,191.641v66.244c0,22.046.034,44.197,0,66.244-4.577-.913-9.082,3.274-9.472-3.549-2.412-42.204,1.792-86.528,0-128.938,3.136-.035,6.337.054,9.472,0Z"/>
      <path class="e" d="M693.837,56.789c.039,29.141-.052,58.395,0,87.536h-9.472c.052-29.142-.039-58.394,0-87.536h9.472Z"/>
      <path class="e" d="M760.142,487.371c2.989-4.602,6.486-4.604,9.472,0-.002-6.925,7.909-6.62,9.472,0v18.927c-12.602.018-25.286-.025-37.889,0v-18.927c6.286.109,12.656-.022,18.944,0Z"/>
      <path class="k" d="M741.198,191.641c25.226-.029,50.552.021,75.777,0,.035,3.133-.054,6.331,0,9.463-23.77-.995-48.562,1.35-72.225,0-6.83-.39-2.638-4.892-3.552-9.463Z"/>
      <path class="j" d="M779.087,449.518c.003-6.925,7.911-6.629,9.472,0-.004,3.141.003,6.323,0,9.463-6.286-.076-12.66.109-18.944,0-.066-3.128-.066-6.336,0-9.463-.002-6.925,7.909-6.62,9.472,0Z"/>
      <path class="j" d="M760.142,449.518c.134,3.125-.086,6.335,0,9.463,3.136.035,6.337-.054,9.472,0,.066,3.135-.042,6.327,0,9.463.335.335,7.232,0,9.472,0,6.93.004,6.637,7.906,0,9.463-2.472,4.223-5.629,7.377-9.472,9.463-3.14,0-6.333.011-9.472,0v-18.927c-.335-.335-7.233,0-9.472,0,.109-6.282-.076-12.643,0-18.927,3.138-.042,6.335.066,9.472,0Z"/>
      <path class="j" d="M741.198,477.908c-.066,3.133,0,6.329,0,9.463-3.138-.054-6.333.035-9.472,0v-9.463c3.134-.086,6.342.134,9.472,0Z"/>
      <path class="j" d="M750.67,468.445c-.054,3.135.035,6.328,0,9.463-3.134.086-6.342-.134-9.472,0,.066-3.134-.042-6.328,0-9.463h9.472Z"/>
      <path class="h" d="M816.975,402.201c15.757-.041,31.604.035,47.361,0,6.931.004,6.637,7.905,0,9.463-18.909-.048-37.924,0-56.833,0v-9.463c3.143-.019,6.329.008,9.472,0Z"/>
      <path class="k" d="M883.281,68.618c0,14.287.808,29.632,0,43.768-.39,6.824-4.899,2.635-9.472,3.549.012-15.732-.197-31.588,0-47.317.004-6.925,7.912-6.631,9.472,0Z"/>
      <rect class="i" x="665.42" y="402.201" width="18.944" height="18.927"/>
      <path class="e" d="M580.171,56.789v30.756c-4.577-.913-9.082,3.274-9.472-3.549-.515-9.013.369-18.206,0-27.207,3.136-.035,6.337.054,9.472,0Z"/>
      <path class="k" d="M873.808,163.251h9.472v18.927c-3.135-.054-6.337.035-9.472,0-.026-6.281.038-12.646,0-18.927Z"/>
      <path class="j" d="M712.781,477.908c-3.13-.134-6.338.086-9.472,0v-9.463h9.472c.035,3.136-.054,6.328,0,9.463,3.13.134,6.338-.086,9.472,0,.67.669,0,15.842,0,18.927-3.13-.134-6.338.086-9.472,0-.076-6.283.109-12.645,0-18.927Z"/>
      <path class="f" d="M873.808,402.201c3.144-.005,6.328.004,9.472,0,6.931.004,6.637,7.905,0,9.463-6.293-.006-12.652.016-18.944,0v-9.463c3.144-.007,6.328.005,9.472,0Z"/>
      <path class="k" d="M999.315,345.421h18.944v9.463h-18.944c-.003-3.14.002-6.323,0-9.463Z"/>
      <path class="j" d="M883.281,56.789v11.829h-9.472c.049-3.919-.033-7.91,0-11.829,3.136-.035,6.337.054,9.472,0Z"/>
      <path class="j" d="M989.843,56.789c7.077.174,6.531,10.558,0,11.829-2.24,0-9.137.335-9.472,0v-11.829c3.143-.004,6.329.003,9.472,0Z"/>
      <path class="e" d="M999.315,56.789v11.829h-9.472v-11.829c3.143-.003,6.329.002,9.472,0Z"/>
      <path class="j" d="M703.309,402.201c-.054,3.134.035,6.329,0,9.463h-9.472c-.006-3.14.004-6.323,0-9.463h9.472Z"/>
      <path class="e" d="M722.254,496.835c3.13.134,6.338-.086,9.472,0v9.463c-3.144.006-6.328-.011-9.472,0v-9.463Z"/>
      <path class="e" d="M674.893,496.835c3.136.066,6.335-.042,9.472,0,.086,3.13-.134,6.338,0,9.463h-9.472v-9.463Z"/>
      <rect class="j" x="722.254" y="440.055" width="9.472" height="9.463"/>
      <path class="k" d="M703.309,191.641v9.463h-9.472c.054-3.133-.035-6.33,0-9.463,3.136-.035,6.337.054,9.472,0Z"/>
      <path class="j" d="M684.365,458.981h9.472v9.463c-3.139.042-6.334-.066-9.472,0v-9.463Z"/>
      <path class="h" d="M1046.676,458.981c3.476-6.004,5.994-5.99,9.472,0,4.61,2.983,4.607,6.477,0,9.463-3.485,5.967-5.987,5.976-9.472,0-3.143-.019-6.329.023-9.472,0,.066-3.133-.042-6.329,0-9.463,3.137-.042,6.336.066,9.472,0Z"/>
      <path class="h" d="M1037.203,477.908c-9.445-.034-18.971.024-28.417,0v-18.927h9.472v9.463c6.287.032,12.657-.045,18.944,0-.066,3.133.017,6.329,0,9.463Z"/>
      <path class="h" d="M1046.676,477.908c2.99-4.611,6.489-4.618,9.472,0,4.62,2.984,4.62,6.48,0,9.463-2.238,0-9.137-.335-9.472,0-.069,15.738.094,31.579,0,47.317-4.573-.914-9.082,3.275-9.472-3.549-.977-17.104-.093-35.941,0-53.231,3.143.011,6.329-.009,9.472,0Z"/>
      <path class="k" d="M873.808,563.078c9.446.028,18.971-.02,28.417,0v18.927c-9.44-.03-18.976-.051-28.417,0v-18.927Z"/>
      <path class="i" d="M1065.62,487.371c.06,11.176.632,23.238,0,34.305-.39,6.823-4.896,2.635-9.472,3.549.021-12.59-.03-25.263,0-37.853.004-6.925,7.912-6.631,9.472,0Z"/>
      <path class="h" d="M921.169,553.615c.915-4.567-3.278-9.074,3.552-9.463,6.657-.38,14.655-.38,21.312,0,6.831.39,2.637,4.896,3.552,9.463-9.446.015-18.971,0-28.417,0Z"/>
      <path class="g" d="M779.087,477.908c3.466-6.014,6.003-5.999,9.472,0-.007,3.141,0,6.323,0,9.463h-18.944v-9.463c3.139-.052,6.335.08,9.472,0Z"/>
      <path class="h" d="M873.808,553.615v-9.463h9.472v9.463c-3.143-.006-6.329.008-9.472,0Z"/>
      <path class="h" d="M798.031,402.201v9.463h-9.472c.054-3.133-.035-6.329,0-9.463,3.136-.042,6.337.066,9.472,0Z"/>
      <rect class="k" x="779.087" y="515.762" width="9.472" height="9.463"/>
      <path class="g" d="M788.559,440.055c-.006,3.141.004,6.323,0,9.463h-9.472c-6.919-.004-6.635-7.911,0-9.463,3.137-.08,6.334.052,9.472,0Z"/>
      <path class="e" d="M788.559,468.445c-.01,3.141.007,6.323,0,9.463-3.139.052-6.335-.08-9.472,0v-9.463h9.472Z"/>
      <path class="k" d="M1075.092,440.055c3.139,0,6.335-.066,9.472,0,3.773.726,6.931,3.881,9.472,9.463,3.138.066,6.335-.066,9.472,0,4.123,1.451,7.281,4.605,9.472,9.463.109,6.282-.076,12.643,0,18.927-9.436.163-18.979-.117-28.417,0v9.463h-9.472v-9.463c-3.135-.042-6.338.066-9.472,0,.066,3.131-.017,6.331,0,9.463h-9.472c.007-3.135.007-6.329,0-9.463,3.457-6.003,6.018-6.013,9.472,0l-9.472-9.463c-.01-3.141.003-6.323,0-9.463l5.033-4.994c-1.6-7.576-.12-12.221,4.439-13.933h9.472Z"/>
      <path class="i" d="M1065.62,421.128v18.927c0,3.084.67,18.258,0,18.927-3.137.042-6.336-.066-9.472,0-5.878-12.749-5.828-25.09,0-37.853h9.472Z"/>
      <path class="i" d="M1084.564,440.055c3.138.066,6.333-.042,9.472,0v9.463c-3.138-.066-6.334.042-9.472,0v-9.463Z"/>
      <path class="i" d="M1103.509,449.518c3.138.066,6.334-.042,9.472,0,.035,3.136-.054,6.328,0,9.463h-9.472v-9.463Z"/>
      <path class="g" d="M1292.952,78.081c-3.138-.054-6.333.035-9.472,0v-9.463h9.472c.086,3.131-.134,6.336,0,9.463,6.274.109,12.671.109,18.944,0,.134-3.127-.086-6.332,0-9.463h9.472v9.463c-3.139.035-6.334-.054-9.472,0-.134,3.127.086,6.332,0,9.463h-18.944c-.086-3.131.134-6.336,0-9.463Z"/>
      <path class="j" d="M807.503,582.005c-.915,4.567,3.278,9.074-3.552,9.463-6.657.38-14.655.38-21.312,0-6.831-.39-2.637-4.896-3.552-9.463,9.436-.016,18.984.163,28.417,0Z"/>
      <path class="i" d="M864.336,707.395c3.13.134,6.338-.086,9.472,0,.086,3.131-.134,6.336,0,9.463,3.128.134,6.34-.086,9.472,0,.035,3.134-.054,6.33,0,9.463h-9.472c-.086-3.131.134-6.336,0-9.463-3.128-.134-6.34.086-9.472,0v-9.463Z"/>
      <path class="i" d="M1179.286,726.321c-.066,3.134.042,6.328,0,9.463h-9.472v-9.463c.335-.335,7.233,0,9.472,0Z"/>
      <rect class="k" x="712.781" y="515.762" width="9.472" height="9.463"/>
      <path class="h" d="M989.843,449.518c.054-3.134-.035-6.329,0-9.463h18.944v9.463c-6.287.076-12.658-.109-18.944,0-.164,9.43.117,18.958,0,28.39h-9.472v18.927h18.944v18.927h-9.472v9.463h-9.472v9.463h-9.472v-66.244h9.472v-18.927c3.137-.035,6.335.054,9.472,0Z"/>
      <path class="h" d="M989.843,402.201c-.054,3.132.035,6.33,0,9.463-3.135.042-6.338-.066-9.472,0-3.456,6.004-6.013,5.992-9.472,0-7.074.085-14.238-.06-21.312,0v9.463h-9.472v-9.463c-18.912-.012-37.921.017-56.833,0v-9.463c35.484-.05,71.079-.099,106.562,0Z"/>
      <path class="f" d="M1037.203,402.201c6.288.037,12.656-.026,18.944,0,.026,6.283-.038,12.644,0,18.927.075,12.585-.012,25.267,0,37.853-3.136.066-6.336-.066-9.472,0v-47.317c-3.136-.035-6.337.054-9.472,0-6.931-.004-6.637-7.905,0-9.463Z"/>
      <polygon class="h" points="826.448 477.908 826.448 496.835 816.975 496.835 816.975 506.298 807.503 506.298 807.503 477.908 826.448 477.908"/>
      <path class="h" d="M1037.203,402.201v9.463c-12.589-.218-25.297.158-37.889,0-.035-3.133.054-6.331,0-9.463,12.598.011,25.292-.075,37.889,0Z"/>
      <path class="h" d="M911.697,506.298c.045-6.284-.032-12.642,0-18.927h9.472v18.927c-3.138.035-6.334-.054-9.472,0-.023,3.132-.066,6.332,0,9.463,6.29.042,12.654-.037,18.944,0,0,2.237-.335,9.129,0,9.463h9.472c-.066,3.134.042,6.328,0,9.463h-18.944v-9.463h-9.472c-.042-3.135.066-6.329,0-9.463-6.29-.042-12.654.029-18.944,0v-9.463c6.289-.076,12.657.109,18.944,0Z"/>
      <path class="h" d="M940.114,515.762c3.137.066,6.334-.042,9.472,0v9.463c-.335.335-7.233,0-9.472,0,.066-3.127.066-6.337,0-9.463Z"/>
      <path class="h" d="M930.641,515.762v-9.463h9.472c.042,3.135-.066,6.329,0,9.463-3.136-.066-6.334.019-9.472,0Z"/>
      <polygon class="h" points="949.586 477.908 949.586 487.371 940.114 487.371 940.114 496.835 930.641 496.835 930.641 477.908 949.586 477.908"/>
      <path class="h" d="M1018.259,525.225c.134-3.127-.086-6.332,0-9.463h9.472v9.463c-3.139.035-6.334-.054-9.472,0-.134,3.127.086,6.332,0,9.463h-18.944v-9.463c6.289-.076,12.657.109,18.944,0Z"/>
      <path class="k" d="M980.37,411.665v9.463c-3.135.086-6.342-.134-9.472,0,0,2.238.335,9.129,0,9.463h-9.472v-9.463c3.135-.086,6.342.134,9.472,0v-9.463c3.135-.038,6.338.066,9.472,0Z"/>
      <polygon class="k" points="1065.62 276.812 1065.62 286.275 1056.148 286.275 1056.148 295.738 1046.676 295.738 1046.676 305.202 1037.203 305.202 1037.203 314.665 1018.259 314.665 1018.259 286.275 1027.731 286.275 1027.731 276.812 1065.62 276.812"/>
      <polygon class="k" points="1008.787 106.471 1008.787 97.008 1027.731 97.008 1027.731 87.544 1037.203 87.544 1037.203 78.081 1046.676 78.081 1046.676 87.544 1056.148 87.544 1056.148 97.008 1075.092 97.008 1075.092 106.471 1008.787 106.471"/>
      <polygon class="i" points="980.37 305.202 980.37 314.665 970.898 314.665 970.898 324.128 961.426 324.128 961.426 335.958 940.114 335.958 940.114 345.421 930.641 345.421 930.641 305.202 980.37 305.202"/>
      <path class="e" d="M779.087,440.055v9.463h-9.472c.066-3.135-.042-6.327,0-9.463,3.138-.052,6.335.08,9.472,0Z"/>
      <path class="f" d="M1056.148,468.445c4.615,2.982,4.611,6.477,0,9.463-3.136-.021-6.336.009-9.472,0v-9.463c3.135.019,6.338-.066,9.472,0Z"/>
      <path class="i" d="M1056.148,468.445c3.134.066,6.337-.042,9.472,0,.042,3.132-.066,6.332,0,9.463-3.134-.066-6.337.021-9.472,0-.008-3.141.01-6.323,0-9.463Z"/>
    </g>
  </g>
</svg>